<?xml version="1.0" encoding="utf-8"?>
<!-- Generator: Adobe Illustrator 24.1.3, SVG Export Plug-In . SVG Version: 6.00 Build 0)  -->
<svg version="1.1" id="レイヤー_1" xmlns="http://www.w3.org/2000/svg" xmlns:xlink="http://www.w3.org/1999/xlink" x="0px"
	 y="0px" viewBox="0 0 1440 1440" style="enable-background:new 0 0 1440 1440;" xml:space="preserve">
<style type="text/css">
	.st0{fill:#B2E2F8;}
	.st1{fill:#FFFFFF;stroke:#FFFFFF;stroke-miterlimit:10;}
	.st2{fill:#FFFFFF;}
	.st3{opacity:0.3;fill:#B2E2F8;}
	.st4{fill:#514F50;}
	.st5{fill:#E0F4FC;}
	.st6{fill:#57C0F0;}
	.st7{fill:#00A0E9;}
	.st8{clip-path:url(#SVGID_2_);}
	.st9{fill:#FFAF9B;}
	.st10{fill:#FFCFBA;}
	.st11{fill:#505050;}
	.st12{fill:#E7EFF9;}
	.st13{fill:#C9DCF1;}
	.st14{fill:#8BB9E3;}
	.st15{fill:#F76E57;}
	.st16{fill:#CEDFF3;}
	.st17{clip-path:url(#SVGID_4_);fill:#FFFFFF;}
	.st18{clip-path:url(#SVGID_4_);}
	.st19{fill:#9DC3E7;}
	.st20{fill:#B5D1ED;}
	.st21{clip-path:url(#SVGID_6_);fill:#FFFFFF;}
	.st22{clip-path:url(#SVGID_6_);}
	.st23{fill:none;stroke:#B2E2F8;stroke-miterlimit:10;}
	.st24{clip-path:url(#SVGID_8_);}
	.st25{clip-path:url(#SVGID_10_);fill:#FFFFFF;}
	.st26{clip-path:url(#SVGID_10_);}
	.st27{clip-path:url(#SVGID_12_);fill:#FFFFFF;}
	.st28{clip-path:url(#SVGID_12_);}
	.st29{clip-path:url(#SVGID_14_);}
	.st30{clip-path:url(#SVGID_16_);}
</style>
<g>
	<path class="st7" d="M418.5,940.3c-0.3-0.5-0.2-1,0.3-1.2c2.3-0.7,4-1.8,5.3-3.4c1.4-1.8,2.1-4.2,2.1-7.1c0-1.6-0.3-3.2-0.8-4.6
		c-0.5-1.4-1.3-2.7-2.3-3.8c-1-1.1-2.4-1.9-4-2.6c-1.6-0.6-3.5-0.9-5.6-0.9h-14.9c-0.4,0-0.7,0.3-0.7,0.7v36.9c0,0.5,0.5,0.9,1,0.9
		h8.4c0.4,0,0.7-0.3,0.7-0.7v-11.6c0-0.8,1-0.9,1.5-0.2l7.8,12c0.2,0.3,0.5,0.5,0.8,0.5h10.5c0.6,0,0.9-0.7,0.5-1.2L418.5,940.3z
		 M414.4,932.7c-1.1,0.8-2.6,1.2-4.5,1.2h-0.9c-0.5,0-1-0.5-1-0.9v-7.9c0-0.4,0.3-0.7,0.7-0.7h1.2c2,0,3.5,0.4,4.5,1.2
		c1.1,0.8,1.6,2,1.6,3.5C415.9,930.7,415.4,931.8,414.4,932.7z"/>
	<path class="st7" d="M464.6,916.7h-8.3c-0.4,0-0.7,0.3-0.7,0.7v20.3c0,1.1,0,2.3-0.1,3.4c-0.1,1.2-0.3,2.2-0.8,3.2
		c-0.4,1-1.1,1.7-2,2.3c-0.9,0.6-2.2,0.9-3.9,0.9c-1.7,0-3-0.3-3.9-0.9c-0.9-0.6-1.6-1.4-2-2.3c-0.4-1-0.7-2-0.8-3.2
		c-0.1-1.2-0.1-2.3-0.1-3.4v-20c0-0.5-0.5-0.9-1-0.9h-8.4c-0.4,0-0.7,0.3-0.7,0.7V939c0,6,1.4,10.4,4.1,13.1c2.8,2.8,7,4.1,12.7,4.1
		c5.7,0,9.9-1.4,12.6-4.1c2.7-2.8,4.1-7.1,4.1-13.1v-21.4C465.6,917.1,465.1,916.7,464.6,916.7z"/>
	<path class="st7" d="M492.2,940.3c-0.3-0.5-0.2-1,0.3-1.2c2.3-0.7,4-1.8,5.3-3.4c1.4-1.8,2.1-4.2,2.1-7.1c0-1.6-0.3-3.2-0.8-4.6
		c-0.5-1.4-1.3-2.7-2.3-3.8c-1-1.1-2.4-1.9-4-2.6c-1.6-0.6-3.5-0.9-5.6-0.9h-14.9c-0.4,0-0.7,0.3-0.7,0.7v36.9c0,0.5,0.5,0.9,1,0.9
		h8.4c0.4,0,0.7-0.3,0.7-0.7v-11.6c0-0.8,1-0.9,1.5-0.2l7.8,12c0.2,0.3,0.5,0.5,0.8,0.5h10.5c0.6,0,0.9-0.7,0.5-1.2L492.2,940.3z
		 M488,932.7c-1.1,0.8-2.6,1.2-4.5,1.2h-0.9c-0.5,0-1-0.5-1-0.9v-7.9c0-0.4,0.3-0.7,0.7-0.7h1.2c2,0,3.5,0.4,4.5,1.2
		c1.1,0.8,1.6,2,1.6,3.5C489.6,930.7,489.1,931.8,488,932.7z"/>
	<path class="st7" d="M545.7,954l-13.8-36.4c-0.1-0.4-0.5-0.6-0.9-0.6h-9.6c-0.3,0-0.5,0.2-0.6,0.4l-13.8,36.4
		c-0.2,0.5,0.3,1.2,0.9,1.2h8.7c0.3,0,0.5-0.2,0.6-0.4l2-5.7c0.1-0.3,0.3-0.4,0.6-0.4h12.9c0.4,0,0.8,0.3,0.9,0.7l1.8,5.3
		c0.1,0.4,0.5,0.7,0.9,0.7h8.9C545.6,954.9,545.9,954.5,545.7,954z M529.7,940.8h-6.6c-0.6,0-1.1-0.6-0.9-1.2l3.3-9.4
		c0.2-0.7,1.3-0.5,1.5,0.2l3.3,9.4C530.5,940.4,530.2,940.8,529.7,940.8z"/>
	<path class="st7" d="M338.7,928.9c0.2,0.7,0.9,1.1,1.6,1.1c0.2,0,0.4,0,0.6-0.1c0.9-0.3,1.4-1.3,1.1-2.2h0c-1.4-4-1.1-7.1,0.6-8.9
		c2-2,5.7-2.2,10.4-0.7c0.7,0.2,1.4,0.5,2.1,0.8c1.1-0.8,2.3-1.6,3.5-2.2c-1.4-0.7-2.9-1.2-4.5-1.8c-5.9-2-11-1.4-13.9,1.5
		C337.4,919.2,336.9,923.6,338.7,928.9C338.7,928.9,338.7,928.9,338.7,928.9z"/>
	<path class="st7" d="M365.3,914.9c-1.4,0.5-2.7,1-4.1,1.7c-0.4,0.2-0.9,0.5-1.3,0.7c-1.2,0.6-2.3,1.3-3.4,2.1
		c-0.4,0.3-0.8,0.5-1.2,0.8c-2.7,2-5.3,4.3-7.7,6.9l0,0c-0.6,0.7-0.6,1.8,0.1,2.4c0.3,0.3,0.7,0.4,1.1,0.4c0.5,0,0.9-0.2,1.3-0.6h0
		c2.7-2.9,5.7-5.5,8.7-7.5c0.4-0.3,0.8-0.5,1.2-0.8l0.1,0.1c0.4,0.2,0.7,0.4,1.1,0.7c2.9,1.9,5.5,4.3,8,7.3c0,0,0,0,0,0
		c0.6,0.7,1.7,0.8,2.4,0.2c0.7-0.6,0.8-1.7,0.2-2.4c0,0,0,0,0,0c-2.3-2.8-4.7-5.1-7.2-7c-0.4-0.3-0.8-0.6-1.2-0.8
		c0.4-0.2,0.9-0.4,1.3-0.6c0.6-0.2,1.2-0.5,1.7-0.7c4.6-1.5,8.4-1.3,10.4,0.7c1.8,1.8,2,5,0.6,8.9l0,0c-0.3,0.9,0.2,1.9,1.1,2.2
		c0.9,0.3,1.9-0.2,2.2-1.1c0,0,0,0,0,0c1.8-5.3,1.3-9.7-1.4-12.4C376.2,913.5,371.2,913,365.3,914.9z"/>
	<path class="st7" d="M375.2,939.5c2.2,0,4-1.8,4-4s-1.8-4-4-4s-4,1.8-4,4S373,939.5,375.2,939.5z"/>
	<path class="st7" d="M340.3,935.4c0,2.2,1.8,4,4,4c2.2,0,4-1.8,4-4s-1.8-4-4-4C342.1,931.3,340.3,933.1,340.3,935.4z"/>
	<path class="st7" d="M378.4,941c-0.9,0.3-1.4,1.3-1.1,2.2c1.5,4.5,1.2,8.2-0.9,10.2c-2,1.9-5.5,2-9.6,0.4c-0.9-0.3-1.8-0.7-2.6-1.1
		c-1.1,0.8-2.2,1.5-3.3,2.2c1.5,0.8,3,1.5,4.7,2.1c2.3,0.9,4.5,1.3,6.5,1.3c2.7,0,5-0.8,6.7-2.4c3.1-2.9,3.7-7.9,1.8-13.8
		C380.2,941.2,379.2,940.7,378.4,941z"/>
	<path class="st7" d="M364,951.2c2.8-2.1,5.3-4.6,7.7-7.6c0,0,0,0,0,0c0.6-0.7,0.5-1.8-0.2-2.4c-0.7-0.6-1.8-0.5-2.4,0.2
		c0,0,0,0,0,0c-2.6,3.2-5.3,5.8-8.4,7.9c-0.3,0.2-0.7,0.5-1,0.7l-1.2-0.7l-0.5-0.3c-2.9-2.1-5.5-4.5-7.9-7.6c0,0,0,0,0,0
		c-0.6-0.7-1.7-0.8-2.4-0.2c-0.7,0.6-0.8,1.7-0.2,2.4c0,0,0,0,0,0c2.4,3,4.9,5.5,7.7,7.6c0.4,0.3,0.7,0.6,1.1,0.8
		c-0.4,0.2-0.8,0.4-1.3,0.6c-0.8,0.4-1.7,0.8-2.6,1.1c-4.2,1.6-7.7,1.5-9.6-0.4c-2.1-2-2.4-5.7-0.9-10.2c0.3-0.9-0.2-1.9-1.1-2.2
		c-0.9-0.3-1.9,0.2-2.2,1.1c-1.9,5.8-1.3,10.8,1.8,13.8c1.7,1.6,4,2.4,6.7,2.4c2,0,4.2-0.4,6.5-1.3c1.6-0.6,3.2-1.3,4.7-2.1
		c0.4-0.2,0.9-0.5,1.3-0.7c1.1-0.6,2.2-1.3,3.3-2.1C363.3,951.7,363.7,951.5,364,951.2z"/>
</g>
</svg>
