<?xml version="1.0" encoding="utf-8"?>
<!-- Generator: Adobe Illustrator 24.1.3, SVG Export Plug-In . SVG Version: 6.00 Build 0)  -->
<svg version="1.1" id="レイヤー_1" xmlns="http://www.w3.org/2000/svg" xmlns:xlink="http://www.w3.org/1999/xlink" x="0px"
	 y="0px" viewBox="0 0 1440 1440" style="enable-background:new 0 0 1440 1440;" xml:space="preserve">
<style type="text/css">
	.st0{fill:#B2E2F8;}
	.st1{fill:#FFFFFF;stroke:#FFFFFF;stroke-miterlimit:10;}
	.st2{clip-path:url(#SVGID_2_);fill:#FFFFFF;}
	.st3{clip-path:url(#SVGID_2_);}
	.st4{fill:#505050;}
	.st5{fill:#9DC3E7;}
	.st6{fill:#FFFFFF;}
	.st7{fill:#FFAF9B;}
	.st8{fill:#FFCFBA;}
	.st9{fill:#B5D1ED;}
	.st10{fill:#F76E57;}
	.st11{fill:#00A0E9;}
	.st12{clip-path:url(#SVGID_4_);fill:#FFFFFF;}
	.st13{clip-path:url(#SVGID_4_);}
	.st14{fill:none;stroke:#B2E2F8;stroke-width:2;stroke-miterlimit:10;}
	.st15{clip-path:url(#SVGID_6_);}
	.st16{clip-path:url(#SVGID_8_);}
	.st17{fill:#F3BF9B;}
	.st18{fill:#D8E5F5;}
	.st19{fill:#FDE2A4;}
	.st20{fill:#231815;}
	.st21{fill:#C0D7EF;}
	.st22{clip-path:url(#SVGID_10_);}
</style>
<g>
	<g>
		<path class="st6" d="M923.9,1240.2c0,3.1-2.6,5.7-5.7,5.7H521.6c-3.1,0-5.7-2.6-5.7-5.7V959.6c0-3.1,2.6-5.7,5.7-5.7h396.6
			c3.1,0,5.7,2.6,5.7,5.7V1240.2z"/>
	</g>
	<g>
		<path class="st0" d="M858.7,976.4H576.9c-4.8,0-8.7,3.9-8.7,8.7v187.4c0,4.8,3.9,8.7,8.7,8.7h281.7c4.8,0,8.7-3.9,8.7-8.7V985.1
			C867.3,980.3,863.4,976.4,858.7,976.4z"/>
		<path class="st6" d="M843.6,992.4H591.7c-4.9,0-8.9,3.9-8.9,8.7v155.4c0,4.8,4,8.7,8.9,8.7h251.9c4.9,0,8.9-3.9,8.9-8.7v-155.4
			C852.5,996.3,848.5,992.4,843.6,992.4z"/>
	</g>
	<g>
		<defs>
			<rect id="SVGID_7_" x="525.3" y="965.7" width="377.4" height="263.3"/>
		</defs>
		<clipPath id="SVGID_2_">
			<use xlink:href="#SVGID_7_"  style="overflow:visible;"/>
		</clipPath>
		<g class="st3">
			<path class="st8" d="M813,1158.7c0-0.7-0.5-0.7-0.5-1.3c0-0.7,0.1-0.7,0.1-1.3c0-0.7-0.3-0.7-0.3-1.3c0-0.7,0.4-0.7,0.4-1.3
				c0-0.7-0.2-0.7-0.2-1.3c0-0.7-0.2-0.7-0.2-1.3c0-0.7,0-0.7,0-1.3c0-0.7,0.4-0.7,0.4-1.3c0-0.7,0.2-0.7-0.2-1.2
				c-0.5-0.5-0.5,0.2-1.2,0.2c-0.7,0-0.7-0.6-1.4-0.6c-0.7,0-0.7,0.1-1.4,0.1c-0.7,0-0.7,0.6-1.4,0.6c-0.7,0-0.7-0.2-1.4-0.2
				c-0.7,0-0.7-0.1-1.4-0.1c-0.7,0-0.7,0.1-1.4,0.1c-0.7,0-0.7-0.2-1.4-0.2c-0.7,0-0.7,0.3-1.4,0.3c-0.7,0-0.7,0-1.4,0
				c-0.7,0-0.7-0.1-1.4-0.1c-0.7,0-0.7,0.2-1.4,0.2c-0.7,0-0.7-0.2-1.4-0.2c-0.7,0-0.7-0.4-1.4-0.4c-0.7,0-0.7-0.1-1.4-0.1
				c-0.7,0-0.7,0.7-1.4,0.7c-0.7,0-0.7-0.5-1.4-0.5c-0.7,0-0.7-0.1-1.4-0.1c-0.7,0-0.7,0.1-1.4,0.1c-0.7,0-0.7,0.4-1.4,0.4
				c-0.7,0-0.7-0.5-1.4-0.5c-0.7,0-0.7,0.4-1.4,0.4c-0.7,0-0.7-0.5-1.4-0.5c-0.7,0-0.7,0.2-1.4,0.2c-0.7,0-0.7,0.2-1.4,0.2
				c-0.7,0-0.7,0.2-1.4,0.2c-0.7,0-0.7-0.1-1.4-0.1c-0.7,0-0.7-0.2-1.4-0.2c-0.7,0-0.7-0.1-1.4-0.1c-0.7,0-0.7,0.2-1.4,0.2
				c-0.7,0-0.7,0-1.4,0c-0.7,0-0.7-0.2-1.4-0.2c-0.7,0-0.7,0.2-1.4,0.2c-0.7,0-0.7,0.3-1.4,0.3c-0.7,0-0.8-0.7-1.3-0.2
				c-0.5,0.5-0.4,0.6-0.4,1.3c0,0.7,0.2,0.7,0.2,1.4c0,0.7,0.3,0.7,0.3,1.4c0,0.7,0.2,0.7,0.2,1.4c0,0.7-0.1,0.7-0.1,1.4
				c0,0.7,0.2,0.7,0.2,1.4c0,0.7-0.4,0.7-0.4,1.4c0,0.7-0.1,0.7-0.1,1.4c0,0.7,0.3,0.7,0.3,1.4c0,0.7-0.5,0.7-0.5,1.4
				c0,0.7,0.1,0.7,0.1,1.4c0,0.7,0,0.7,0,1.4c0,0.7-0.1,0.7-0.1,1.4c0,0.7,0,0.7,0.2,1.4c0.4,0.3,1,0.3,1.4,0.5
				c0.4,0.3,0.5,0.9,0.9,1.2c0.4,0.3,1,0.1,1.4,0.3c0.4,0.2,0.5,1,0.9,1.3c0.4,0.2,0.9,0.2,1.4,0.4c0.4,0.2,0.7,0.6,1.2,0.8
				c0.4,0.2,0.9,0.2,1.4,0.4c0.4,0.2,0.9,0.1,1.4,0.3c0.4,0.1,0.8,0.6,1.2,0.7c0.4,0.1,1-0.2,1.5-0.1c0.4,0.1,0.8,0.7,1.3,0.7
				c0.5,0.1,0.9,0.1,1.4,0.2c0.5,0.1,0.9,0.1,1.4,0.1c0.5,0.1,0.9-0.2,1.4-0.1c0.5,0,0.9,0.3,1.4,0.3c0.5,0,0.9,0.3,1.4,0.3
				c0.5,0,0.9,0.1,1.4,0.1c0.5,0,0.9,0.1,1.4,0.1c0.5,0,0.9-0.2,1.4-0.2c0.5,0,0.9,0,1.4,0c0.5,0,0.9-0.1,1.4-0.2
				c0.5,0,0.9-0.4,1.3-0.4c0.5-0.1,0.9,0,1.4-0.1c0.5-0.1,0.9-0.2,1.4-0.3c0.5-0.1,0.9,0,1.4-0.1c0.5-0.1,0.8-0.7,1.2-0.8
				c0.4-0.1,1,0.3,1.5,0.1c0.4-0.1,0.8-0.6,1.2-0.7c0.4-0.1,0.9-0.1,1.4-0.3c0.4-0.1,0.8-0.5,1.3-0.6c0.4-0.2,0.8-0.4,1.3-0.6
				c0.4-0.2,1,0.1,1.5-0.1c0.4-0.2,0.6-0.9,1-1.1c0.4-0.2,1,0,1.5-0.2c0.4-0.2,0.9-0.3,1.3-0.5c0.4-0.2,0.4-0.7,0.8-1
				c0.2-0.6,0.4-0.6,0.4-1.3c0-0.7-0.4-0.7-0.4-1.3c0-0.7,0.5-0.7,0.5-1.3c0-0.7-0.5-0.7-0.5-1.3c0-0.7,0.5-0.7,0.5-1.3
				C812.9,1159.4,813,1159.4,813,1158.7z"/>
			<path class="st8" d="M826.4,1181c-0.5-0.4-0.4-0.7-1-0.9c-0.6-0.2-0.8,0.1-1.4-0.1c-0.6-0.2-0.7,0.1-1.4-0.2
				c-0.6-0.2-0.5-0.5-1.2-0.7c-0.6-0.2-0.7-0.1-1.3-0.3c-0.6-0.2-0.6-0.4-1.2-0.6c-0.6-0.2-0.7-0.2-1.3-0.4c-0.6-0.2-0.7,0-1.3-0.2
				c-0.6-0.2-0.6-0.2-1.3-0.4c-0.6-0.2-0.5-0.7-1.1-0.8c-0.6-0.1-0.7,0.1-1.1-0.5c-0.4-0.5-0.2-0.5-0.2-1.2c0-0.7,0-0.7,0-1.3
				c0-0.7-0.1-0.7-0.1-1.3c0-0.7,0-0.7,0-1.3c0-0.7,0-0.7,0-1.3c0-0.7,0.2-0.7,0.2-1.3c0-0.7,0.5-0.8,0.3-1.5
				c-0.4,0.2-1.2,0.5-1.6,0.7c-0.4,0.2-0.7,0.6-1.1,0.8c-0.4,0.2-0.8,0.4-1.3,0.6c-0.4,0.2-1,0.1-1.4,0.3c-0.4,0.2-0.9,0.3-1.3,0.5
				c-0.4,0.2-0.7,0.7-1.2,0.8c-0.4,0.2-1,0.1-1.4,0.2c-0.4,0.1-0.9,0.3-1.3,0.5c-0.4,0.1-0.9,0.1-1.4,0.2c-0.4,0.1-0.9,0.1-1.4,0.2
				c-0.4,0.1-0.8,0.7-1.2,0.8c-0.5,0.1-0.9,0.1-1.4,0.2c-0.5,0.1-0.9,0.3-1.4,0.3c-0.5,0.1-1-0.1-1.4-0.1c-0.5,0.1-0.9,0.5-1.3,0.5
				c-0.5,0-0.9,0-1.4,0c-0.5,0-0.9-0.3-1.4-0.3c-0.5,0-0.9,0.5-1.4,0.5c-0.5,0-0.9,0-1.4,0c-0.5,0-0.9,0-1.4,0
				c-0.5,0-0.9-0.1-1.4-0.1c-0.5,0-0.9-0.3-1.4-0.3c-0.5,0-0.9-0.2-1.4-0.3c-0.5-0.1-0.9-0.3-1.3-0.3c-0.5-0.1-0.9-0.3-1.3-0.4
				c-0.5-0.1-1,0.3-1.5,0.2c-0.4-0.1-0.9-0.2-1.4-0.3c-0.4-0.1-0.8-0.7-1.2-0.9c-0.4-0.1-0.8-0.4-1.3-0.6c-0.4-0.2-1,0.1-1.4-0.1
				c-0.4-0.2-0.8-0.5-1.2-0.7c-0.4-0.2-1,0-1.4-0.2c-0.4-0.2-0.8-0.5-1.2-0.7c-0.4-0.2-0.7-0.7-1-1c-0.4-0.3-0.5-0.8-0.9-1.1
				c-0.4-0.3-0.7-0.2-1.1-0.5c-0.2,0.6-0.4,0.6-0.4,1.3c0,0.7,0.3,0.7,0.3,1.3c0,0.7-0.4,0.7-0.4,1.3c0,0.7,0.5,0.7,0.6,1.3
				c0,0.7-0.3,0.7-0.3,1.3c0,0.7,0.3,0.7,0.3,1.3s0.3,0.9-0.1,1.4c-0.4,0.6-0.8-0.2-1.5,0c-0.7,0.2-0.6,0.4-1.3,0.6
				c-0.7,0.2-0.7,0.2-1.4,0.4c-0.7,0.2-0.7,0.2-1.3,0.4c-0.7,0.2-0.7,0.2-1.3,0.4c-0.7,0.2-0.7,0-1.4,0.1c-0.7,0.2-0.6,0.3-1.3,0.5
				c-0.7,0.2-0.7,0.2-1.3,0.4c-0.7,0.2-0.7,0-1.4,0.2c-0.7,0.2-0.6,0.3-1.3,0.5c-0.7,0.2-0.7,0.3-1.2,0.7c-0.6,0.4,0,0.4,0.3,1.2
				c0.2,0.3,0.4,0.7,0.7,1.2c0.2,0.4,0.3,0.8,0.6,1.3c0.2,0.4,0.4,0.8,0.6,1.2c0.2,0.4,0.7,0.6,0.9,1.1c0.2,0.4,0,1,0.2,1.4
				c0.2,0.4,0.8,0.6,1,1c0.2,0.4,0,1,0.2,1.4c0.2,0.4,0.8,0.6,1,1c0.2,0.4,0.1,1,0.4,1.4c0.2,0.4,0.3,0.9,0.6,1.3
				c0.2,0.4,0.7,0.7,0.9,1.1c0.2,0.4,0.3,0.9,0.5,1.3c0.2,0.4,0.7,0.6,0.9,1c0.2,0.4,0.5,0.8,0.7,1.2c0.2,0.4,0.4,0.8,0.6,1.2
				c0.2,0.4,0.3,0.9,0.6,1.3c0.2,0.4,0.8,0.6,1,1c0.2,0.4,0.4,0.8,0.7,1.2c0.2,0.4,0.2,1,0.4,1.4c0.2,0.4,0.6,0.7,0.8,1.1
				c0.3,0.4,0.8,0.6,1.1,0.9c0.3,0.4,0.2,1,0.4,1.4c0.3,0.4,0.7,0.6,1,1c0.3,0.4,0.7,0.6,1,1c0.3,0.4,0.2,1,0.5,1.4
				c0.3,0.4,0.9,0.4,1.2,0.8c0.3,0.4,0.1,1.1,0.4,1.4c0.3,0.4,0.7,0.6,1,1c0.3,0.4,1,0.4,1.2,0.8c0.3,0.4,0.5,0.8,0.8,1.1
				c0.3,0.3,0.4,0.9,0.7,1.2c0.3,0.3,0.6,0.7,0.9,1c0.3,0.3,0.9,0.4,1.2,0.7c0.3,0.3,0.2,1.1,0.5,1.4c0.3,0.3,1.1,0.2,1.4,0.5
				c0.3,0.3,0.7,0.6,1.1,0.9c0.4,0.3,0.3,1.1,0.7,1.4c0.4,0.3,1,0.2,1.4,0.5c0.4,0.3,0.8,0.5,1.2,0.7c0.4,0.2,0.7,0.7,1.1,0.9
				c0.4,0.2,0.8,0.4,1.2,0.6c0.4,0.2,0.8,0.6,1.2,0.7c0.4,0.2,1,0.1,1.4,0.2c0.5,0.1,1-0.2,1.4-0.2c0.5,0.1,0.9,0.5,1.3,0.5
				c0.5,0,0.9,0.3,1.4,0.2c0.4-0.1,0.9-0.2,1.4-0.3c0.4-0.1,0.8-0.6,1.2-0.8c0.4-0.1,0.8-0.5,1.2-0.7c0.4-0.2,1-0.1,1.4-0.3
				c0.4-0.2,0.9-0.3,1.2-0.6c0.4-0.2,0.7-0.6,1.1-0.8c0.4-0.3,0.8-0.4,1.2-0.7c0.4-0.3,0.6-0.7,1-1c0.3-0.3,0.8-0.5,1.1-0.8
				c0.3-0.3,0.6-0.7,0.9-1c0.3-0.3,0.4-0.9,0.7-1.2c0.3-0.3,0.9-0.4,1.2-0.7c0.3-0.3,0.6-0.6,0.9-1c0.3-0.3,0.2-1,0.5-1.4
				c0.3-0.3,0.8-0.5,1.1-0.9c0.3-0.3,0.5-0.8,0.7-1.2c0.3-0.4,1-0.4,1.2-0.8c0.3-0.4,0.3-0.9,0.6-1.3c0.3-0.4,0.6-0.7,0.9-1.1
				c0.3-0.4,0.2-0.9,0.5-1.3c0.3-0.4,0.9-0.5,1.2-0.8c0.3-0.4,0.4-0.8,0.6-1.2c0.2-0.4,0.3-0.9,0.5-1.3c0.2-0.4,0.8-0.6,1-0.9
				c0.2-0.4,0.3-0.9,0.6-1.3c0.2-0.4,0.6-0.7,0.8-1.1c0.2-0.4,0.3-0.9,0.5-1.3c0.2-0.4,0.6-0.7,0.9-1.1c0.2-0.4,0.5-0.8,0.7-1.2
				c0.2-0.4,0.4-0.8,0.6-1.2c0.2-0.4,0.6-0.7,0.8-1.1c0.2-0.4,0.1-1,0.3-1.4c0.2-0.4,0.7-0.7,0.9-1.1c0.2-0.4,0.5-0.8,0.7-1.1
				c0.2-0.4-0.2-1.1,0-1.5c0.2-0.4,0.6-0.7,0.8-1.1c0.2-0.4,0.2-0.9,0.4-1.3c0.2-0.4,0.6-0.7,0.8-1.1c0.2-0.4,0.3-0.9,0.5-1.3
				c0.2-0.4,0.9-0.6,1-1c0.2-0.4,0.1-1,0.3-1.4c0.2-0.4,0.1-1,0.3-1.4c0.2-0.5,0.7-0.8,0.9-1.1
				C826.3,1181.3,826.9,1181.5,826.4,1181z"/>
			<path class="st8" d="M823.6,1068.6c-0.7,0-0.6-0.3-1.3-0.5c-0.7-0.1-0.7,0.1-1.4,0c-0.7-0.1-0.7,0-1.4-0.1
				c-0.7-0.1-0.7-0.1-1.4-0.3c-0.7-0.1-0.7,0-1.4-0.2c-0.7-0.1-0.7-0.2-1.3-0.3c-0.7-0.1-0.7,0-1.4-0.1c-0.7-0.1-0.7-0.2-1.3-0.4
				c-0.7-0.1-0.6-0.3-1.3-0.4c-0.7-0.1-0.6-0.5-1.3-0.6c-0.7-0.1-0.8,0.2-1.4,0.1c-0.7-0.1-0.6-0.6-1.2-0.8
				c-0.7-0.1-0.7-0.1-1.4-0.3c-0.7-0.1-0.8,0.5-1.5,0.3c-0.7-0.1-0.6-0.6-1.2-0.8c-0.7-0.1-0.7,0.1-1.4,0c-0.7-0.1-0.7-0.1-1.4-0.2
				c-0.7-0.1-0.7-0.1-1.4-0.2c-0.7-0.1-0.6-0.4-1.3-0.6c-0.7-0.1-0.7,0.2-1.4,0c-0.7-0.1-0.6-0.4-1.3-0.6c-0.7-0.1-0.7-0.1-1.4-0.2
				c-0.7-0.1-0.7-0.1-1.4-0.3c-0.7-0.1-0.6-0.3-1.3-0.5c-0.7-0.1-0.7,0-1.4-0.1c-0.7-0.1-0.7-0.1-1.4-0.3c-0.7-0.1-0.6-0.4-1.3-0.5
				c-0.7-0.1-0.8,0.4-1.5,0.3c-0.7-0.1-0.6-0.4-1.3-0.5c-0.7-0.1-0.7,0-1.4-0.1c-0.7-0.1-0.6-0.5-1.3-0.7c-0.7-0.1-0.6-0.3-1.3-0.5
				c-0.7-0.1-0.8,0.3-1.5,0.2c-0.7-0.1-0.6-0.4-1.3-0.6c-0.7-0.1-0.7,0.1-1.4-0.1c-0.7-0.1-0.6-0.5-1.3-0.4
				c-0.7,0.1-0.7,0.2-1.3,0.5c-0.6,0.3-0.6,0.4-1.1,0.7c-0.6,0.3-0.5,0.5-1.1,0.8c-0.6,0.3-0.5,0.6-1,0.9c-0.6,0.3-0.6,0.3-1.2,0.7
				c-0.6,0.3-0.7,0.2-1.2,0.6c-0.6,0.3-0.6,0.3-1.2,0.7c-0.6,0.3-0.6,0.2-1.2,0.6c-0.6,0.3-0.7,0.1-1.3,0.4
				c-0.6,0.3-0.5,0.4-1.1,0.8c-0.6,0.3-0.4,0.6-1,1c-0.6,0.3-0.6,0.3-1.2,0.7c-0.6,0.3-0.8,0-1.3,0.4c-0.6,0.3-0.6,0.3-1.2,0.6
				c-0.6,0.3-0.4,0.7-0.9,1.1c-0.6,0.3-0.7,0.2-1.2,0.6c-0.6,0.3-0.5,0.5-1.1,0.9c-0.6,0.3-0.6,0.4-1.1,0.7
				c-0.6,0.3-0.6,0.3-1.2,0.7c-0.6,0.3-1-0.1-1.3,0.5c-0.3,0.6-0.1,0.7-0.1,1.4c0,0.7,0.1,0.7,0.1,1.4c0,0.7-0.1,0.7-0.1,1.4
				c0,0.7,0.3,0.7,0.3,1.4c0,0.7-0.2,0.7-0.2,1.4c0,0.7,0.6,0.7,0.6,1.4c0,0.7-0.3,0.7-0.2,1.4c0,0.7-0.4,0.7-0.4,1.4
				c0,0.7,0.3,0.7,0.3,1.4c0,0.7,0,0.7,0,1.4c0,0.7,0.2,0.7,0.2,1.4c0,0.7,0,0.7,0,1.4c0,0.7-0.3,0.7-0.3,1.4c0,0.7,0.7,0.7,0.7,1.3
				c0,0.7-0.7,0.7-0.7,1.4c0,0.7,0.3,0.7,0.3,1.4c0,0.7,0.4,0.7,0.4,1.4c0,0.7-0.5,0.7-0.5,1.4c0,0.7,0.2,0.7,0.2,1.4
				c0,0.7,0.4,0.7,0.4,1.4c0,0.7-0.1,0.7-0.1,1.4c0,0.7,0.2,0.7,0.3,1.4c0,0.7-0.6,0.7-0.5,1.4c0,0.7,0.6,0.7,0.6,1.4
				c0,0.7-0.2,0.7-0.2,1.4c0,0.7,0.2,0.7,0.3,1.4c0,0.7-0.2,0.7-0.2,1.4c0,0.7-0.3,0.7-0.3,1.4c0,0.7,0,0.7,0,1.4
				c0,0.7-0.1,0.7-0.1,1.4c0,0.7,0.2,0.7,0.2,1.4c0,0.7,0.3,0.7,0.3,1.4c0,0.7-0.2,0.7-0.2,1.4c0,0.7,0.5,0.7,0.5,1.4
				c0,0.7-0.5,0.7-0.5,1.4c0,0.7,0.2,0.7,0.2,1.4c0,0.7,0.2,0.7,0.3,1.4c0,0.7-0.5,0.7-0.5,1.4c0,0.7,0.5,0.7,0.5,1.4
				c0,0.7-0.1,0.7-0.1,1.4c0,0.5,0,0.9,0,1.4c0,0.5,0.4,0.9,0.4,1.3c0,0.5,0.1,0.9,0.2,1.3c0.1,0.5,0.1,0.9,0.1,1.4
				c0.1,0.5,0,0.9,0.1,1.4c0.1,0.4,0.4,0.8,0.5,1.3c0.1,0.4-0.1,1,0,1.4c0.1,0.4,0.5,0.8,0.6,1.2c0.1,0.4-0.3,1.1-0.1,1.5
				c0.2,0.4,0.7,0.7,0.9,1.1c0.2,0.4,0.4,0.8,0.6,1.2c0.2,0.4,0.2,0.9,0.4,1.3c0.2,0.4,0.6,0.7,0.8,1.1c0.2,0.4,0.5,0.8,0.7,1.2
				c0.2,0.4,0.5,0.8,0.7,1.2c0.2,0.4,0.1,1,0.4,1.4c0.3,0.4,0.7,0.6,0.9,1c0.3,0.4,0.9,0.5,1.1,0.8c0.3,0.4,0.6,0.7,0.8,1.1
				c0.3,0.3,0.6,0.7,0.9,1c0.3,0.3,0.3,0.9,0.7,1.3c0.3,0.3,0.8,0.5,1.1,0.8c0.3,0.3,0.4,0.9,0.7,1.2c0.3,0.3,1.1,0.1,1.5,0.3
				c0.4,0.3,0.7,0.5,1.1,0.8c0.4,0.3,0.5,0.9,0.9,1.1c0.4,0.3,0.9,0.3,1.3,0.6c0.4,0.2,0.8,0.3,1.2,0.6c0.4,0.2,0.6,0.8,1,1
				c0.4,0.2,0.7,0.6,1.1,0.8c0.4,0.2,1-0.1,1.5,0.1c0.4,0.2,0.8,0.3,1.3,0.5c0.4,0.2,0.7,0.7,1.2,0.8c0.4,0.1,1-0.1,1.4,0
				c0.4,0.1,0.8,0.5,1.2,0.6c0.4,0.1,0.8,0.5,1.3,0.6c0.4,0.1,0.9,0.2,1.4,0.3c0.4,0.1,0.9-0.1,1.4,0c0.5,0.1,0.9-0.3,1.4-0.2
				c0.5,0,0.9,0.2,1.3,0.3c0.5,0,0.9,0.1,1.4,0.1c0,0,0,0.2,0,0.2c0.5,0,0.9-0.4,1.4-0.4c0.5,0,0.9-0.1,1.4-0.2c0.5,0,1,0.4,1.4,0.3
				c0.5-0.1,0.8-0.7,1.3-0.8c0.5-0.1,0.9-0.1,1.3-0.2c0.4-0.1,0.9-0.2,1.3-0.3c0.4-0.1,1,0.1,1.4,0c0.4-0.1,0.8-0.4,1.3-0.5
				c0.4-0.1,0.8-0.4,1.3-0.5c0.4-0.2,1,0.1,1.4-0.1c0.4-0.2,0.7-0.7,1.1-0.9c0.4-0.2,0.9-0.3,1.3-0.5c0.4-0.2,0.7-0.7,1.1-0.9
				c0.4-0.2,1-0.2,1.3-0.4c0.4-0.2,0.8-0.5,1.2-0.7c0.4-0.3,0.8-0.4,1.2-0.7c0.4-0.3,0.6-0.7,0.9-1c0.4-0.3,0.8-0.5,1.2-0.8
				c0.3-0.3,0.6-0.7,1-1c0.3-0.3,0.4-0.9,0.7-1.2c0.3-0.3,0.6-0.6,1-1c0.3-0.3,0.6-0.6,0.9-1c0.3-0.3,0.7-0.6,1-1
				c0.3-0.4,0.5-0.7,0.8-1.1c0.3-0.4,0.7-0.6,1-1c0.3-0.4,0.5-0.8,0.7-1.2c0.2-0.4,0.5-0.8,0.7-1.2c0.2-0.4,0.3-0.9,0.5-1.3
				c0.2-0.4,0.2-0.9,0.4-1.3c0.2-0.4,0.5-0.7,0.7-1.2c0.2-0.4,0.2-0.9,0.4-1.3c0.2-0.4,0.9-0.6,1-1.1c0.2-0.4,0.2-0.9,0.4-1.3
				c0.1-0.4,0.4-0.8,0.5-1.3c0.1-0.4-0.2-1-0.1-1.4c0.1-0.4,0.3-0.9,0.4-1.3c0.1-0.4,0.1-0.9,0.2-1.4c0.1-0.4,0.3-0.9,0.4-1.3
				c0.1-0.5,0.1-0.9,0.2-1.4c0-0.5-0.1-0.9-0.1-1.4c0-0.5,0.2-0.9,0.2-1.4c0-0.7,0.1-0.7,0.1-1.4s-0.4-0.7-0.4-1.4
				c0-0.7,0-0.7,0-1.4c0-0.7,0.4-0.7,0.4-1.4c0-0.7-0.1-0.7,0-1.4c0-0.7-0.5-0.7-0.5-1.4c0-0.7,0.5-0.7,0.5-1.4
				c0-0.7-0.1-0.7-0.1-1.4c0-0.7,0.2-0.7,0.2-1.4c0-0.7,0-0.7,0-1.4c0-0.7-0.3-0.7-0.2-1.4c0-0.7,0.4-0.7,0.4-1.4
				c0-0.7-0.4-0.7-0.4-1.4c0-0.7,0.1-0.7,0.1-1.4c0-0.7,0-0.7,0-1.4c0-0.7,0.1-0.7,0.2-1.4c0-0.7-0.1-0.7-0.1-1.4c0-0.7,0-0.7,0-1.4
				c0-0.7-0.1-0.7-0.1-1.4c0-0.7,0.3-0.7,0.3-1.4c0-0.7-0.6-0.7-0.6-1.4c0-0.7,0.4-0.7,0.4-1.4c0-0.7,0.2-0.7,0.2-1.4
				c0-0.7-0.3-0.7-0.3-1.4c0-0.7-0.2-0.7-0.2-1.4c0-0.7,0-0.7,0-1.4c0-0.7,0.5-0.7,0.6-1.4c0-0.7-0.2-0.7-0.2-1.4
				c0-0.7-0.3-0.7-0.3-1.4c0-0.7,0.3-0.7,0.3-1.4c0-0.7-0.1-0.7-0.1-1.4c0-0.7,0.4-0.7,0.4-1.4c0-0.7-0.5-0.7-0.5-1.4
				c0-0.7,0.6-0.7,0.7-1.4c0-0.7,0-0.7,0.1-1.4c0-0.7-0.2-0.7-0.2-1.4c0-0.7-0.4-0.7-0.4-1.4c0-0.7,0.1-0.7,0.1-1.4
				c0-0.7,0.1-0.7,0.1-1.4c0-0.7-0.1-0.7-0.1-1.4c0-0.7,0.6-0.7,0.6-1.4c0-0.7,0.4-1.1,0-1.6
				C824.9,1068.3,824.5,1068.5,823.6,1068.6z"/>
			<path class="st8" d="M754.2,1120.7c0-0.7-0.3-0.7-0.3-1.4c0-0.7,0-0.7,0-1.4c0-0.7,0.2-0.7,0.2-1.4c0-0.7-0.4-0.7-0.4-1.3
				c0-0.7,0.3-0.7,0.3-1.4c0-0.7-0.5-0.7-0.6-1.3c0-0.7,0-0.7-0.1-1.4c0-0.7,0.5-0.7,0.5-1.4c0-0.7-0.6-0.6-0.7-1.3
				c0-0.7,0.1-0.7,0-1.4c0-0.7,0.3-0.7,0.2-1.4c0-0.7-0.4-0.7-0.4-1.3c0-0.7,0.2-0.7,0.2-1.4c0-0.7,0-0.7-0.1-1.4
				c0-0.7-0.4-0.7-0.5-1.3c0-0.7,0.3-0.7,0.3-1.4c0-0.7,0.1-0.7,0-1.4c0-0.7,0.2-0.8-0.1-1.4c-0.5,0-1,0.1-1.5,0.1
				c-0.5,0-0.9,0.4-1.3,0.5c-0.5,0.1-0.9,0.3-1.3,0.4c-0.4,0.1-1-0.1-1.4,0.1c-0.4,0.2-0.8,0.4-1.3,0.6c-0.4,0.2-1,0.3-1.3,0.5
				c-0.4,0.3-0.7,0.7-1,1c-0.4,0.3-0.6,0.7-0.9,1.1c-0.3,0.3-0.6,0.7-0.9,1.1c-0.3,0.4-0.4,0.8-0.7,1.2c-0.2,0.4-0.3,0.8-0.5,1.3
				c-0.2,0.4-0.5,0.8-0.7,1.2c-0.2,0.4-0.7,0.8-0.8,1.2c-0.1,0.4,0.1,1,0,1.4c-0.1,0.5-0.4,0.9-0.5,1.4c0,0.5,0.4,0.9,0.4,1.4
				c0,0.5-0.2,0.9-0.1,1.4c0.1,0.5,0.4,0.8,0.5,1.3c0.1,0.4,0.2,0.9,0.4,1.3c0.2,0.4,0.6,0.7,0.8,1.1c0.2,0.4,0.4,0.8,0.6,1.2
				c0.3,0.4,0.4,0.9,0.7,1.2c0.3,0.3,0.7,0.6,1,0.9c0.3,0.3,0.5,0.8,0.9,1.1c0.4,0.3,1.1,0,1.5,0.3c0.4,0.2,0.5,1,0.9,1.2
				c0.4,0.2,0.9,0.3,1.3,0.5c0.4,0.2,0.8,0.5,1.2,0.7c0.4,0.2,1.1-0.4,1.5-0.2c0.4,0.1,0.8,0.4,1.3,0.5c0.5,0.1,0.9,0.4,1.3,0.5
				c0.5,0,0.9-0.1,1.3-0.1c0.2-0.7,0.2-0.7,0.1-1.4C754.1,1121.4,754.2,1121.4,754.2,1120.7z"/>
			<path class="st8" d="M835.9,1111.1c-0.1-0.5-0.6-0.8-0.7-1.3c-0.1-0.5,0.1-1-0.1-1.4c-0.2-0.5-0.6-0.8-0.8-1.2
				c-0.2-0.4-0.1-1-0.3-1.4c-0.3-0.4-0.4-0.9-0.7-1.2c-0.3-0.4-0.7-0.6-1.1-0.9c-0.4-0.3-0.8-0.5-1.2-0.8c-0.4-0.3-0.8-0.5-1.2-0.7
				c-0.4-0.2-0.9-0.2-1.4-0.4c-0.4-0.2-0.9-0.1-1.4-0.2c-0.4-0.1-0.9-0.4-1.3-0.5c-0.5-0.1-0.9-0.1-1.4-0.1c-0.5,0-1.3-0.2-1.7-0.2
				c-0.3,0.6,0,0.8,0,1.5c0,0.7,0.2,0.7,0.2,1.4c0,0.7,0.1,0.7,0,1.4c0,0.7,0,0.7-0.1,1.4c0,0.7-0.1,0.7-0.2,1.4
				c0,0.7-0.4,0.7-0.4,1.3c0,0.7,0.4,0.7,0.3,1.4c0,0.7,0,0.7-0.1,1.4c0,0.7-0.3,0.7-0.4,1.3c0,0.7,0.3,0.7,0.3,1.4
				c0,0.7-0.4,0.7-0.4,1.3c0,0.7-0.1,0.7-0.2,1.4c0,0.7,0.5,0.7,0.5,1.4c0,0.7-0.6,0.6-0.6,1.3c0,0.7,0,0.7-0.1,1.4
				c0,0.7,0.5,0.8,0.4,1.4c-0.1,0.7-0.6,0.7-0.4,1.3c0.5,0,1-0.1,1.5-0.2c0.5,0,1,0.2,1.4,0.1c0.5-0.1,1,0.1,1.4,0
				c0.5-0.1,0.8-0.9,1.2-1c0.5-0.1,0.9-0.1,1.4-0.2c0.4-0.2,0.8-0.5,1.2-0.6c0.4-0.2,1.1,0.2,1.5-0.1c0.4-0.2,0.5-1,0.8-1.3
				c0.4-0.3,0.9-0.4,1.2-0.7c0.3-0.3,0.6-0.7,0.9-1.1c0.3-0.4,0.8-0.6,1-1c0.2-0.4,0.6-0.8,0.7-1.3c0.1-0.4,0.1-1,0.1-1.5
				c0.1-0.4,0.2-0.9,0.2-1.4c0-0.5-0.2-0.9-0.3-1.4C835.8,1112,836,1111.5,835.9,1111.1z"/>
			<polygon class="st4" points="838.1,1071.4 837.9,1070.1 837.9,1068.8 837.7,1067.6 836.8,1066.5 836.4,1065.3 835.9,1064.1 
				834.8,1063.3 834.3,1062.2 833.7,1061 833,1060 832,1059.1 831.2,1058.1 829.9,1057.6 829.2,1056.6 828.3,1055.6 827.2,1055 
				826.4,1053.9 825.2,1053.4 824.3,1052.6 823.4,1051.6 822.4,1050.8 821.2,1050.3 820.5,1049.1 819.2,1048.8 818.5,1047.6 
				817.6,1046.7 816.7,1045.8 815.5,1045.3 814.5,1044.4 813.3,1044 812.6,1042.7 811.4,1042.3 810.4,1041.4 809.3,1040.8 
				808,1040.6 806.9,1039.7 805.9,1039 804.7,1038.4 803.4,1038.3 802.2,1037.8 801.1,1037.2 799.9,1036.8 798.7,1036.3 
				797.3,1036.6 796.1,1035.9 794.8,1035.8 793.5,1036 792.3,1035.3 791,1035.2 789.8,1035.5 788.5,1035.5 787.2,1035.3 
				785.9,1035.7 784.7,1035.7 783.4,1035.4 782.2,1036.1 780.8,1035.8 779.6,1036.3 778.3,1036.2 777.2,1037.1 775.9,1037.1 
				774.7,1037.4 773.5,1037.9 772.4,1038.6 771.3,1039.2 769.9,1039.4 768.8,1040 767.8,1040.8 766.7,1041.4 765.7,1042.3 
				764.7,1043 763.5,1043.5 762.6,1044.4 761.7,1045.4 760.6,1046 760,1047.3 759.1,1048.2 758.4,1049.2 757.5,1050.1 756.7,1051.2 
				755.7,1052 755.5,1053.4 754.4,1054.4 754.9,1054.5 753.7,1055 752.7,1055.9 751.5,1056.4 750.5,1057.1 749.8,1058.2 749,1059.2 
				748.3,1060.3 747.1,1061.1 746.9,1062.5 746.4,1063.6 745.3,1064.5 745.1,1065.8 744.5,1067 744,1068.2 743.1,1069.1 
				742.8,1070.4 742.5,1071.7 742.1,1072.9 741.2,1074 741.1,1075.3 740.7,1076.5 740.6,1077.8 739.9,1079 739.7,1080.2 
				739.6,1081.6 739.9,1082.8 739.6,1084.2 740.4,1085.3 740.4,1086.7 740.9,1087.9 741.7,1088.9 742.6,1089.9 743.3,1091 
				743.8,1092.2 744.7,1093.2 745,1094.6 746,1095.4 746.6,1096.6 747.8,1097.4 748.3,1098.6 749,1099.7 749.9,1100.6 750.4,1101.8 
				751.3,1102.9 751.5,1104.2 751.9,1105.4 752.4,1104.1 752.7,1102.8 752.8,1101.4 752.5,1100 753.3,1098.8 753.1,1097.4 
				753.6,1096.1 753.7,1094.8 754.7,1093.9 755.5,1092.9 756.9,1092.5 757.6,1091.5 758.6,1090.6 758.9,1089.3 759.9,1088.4 
				760.9,1087.6 761.2,1086.2 761.9,1085.2 763.1,1084.4 763.6,1083.2 764.3,1082.2 764.8,1081 765,1079.7 765.7,1078.6 
				766.3,1077.5 766.6,1076.2 767.4,1075.2 767.4,1073.8 767.9,1072.7 768.6,1071.6 768.7,1070.2 769.2,1069.1 769.9,1068 
				770.4,1066.8 770.8,1065.6 770.9,1064.4 772.2,1064.5 773.3,1064.9 774.4,1065.6 775.7,1065.8 776.8,1066.6 778.1,1066.7 
				779.2,1067.4 780.5,1067.6 781.7,1067.8 782.8,1068.5 784.1,1068.8 785.3,1069.3 786.3,1070 787.6,1070.3 788.6,1071.1 
				790,1071.2 791.2,1071.4 792.3,1072.2 793.4,1072.8 794.8,1072.9 796,1073.3 797.1,1073.9 798.2,1074.5 799.5,1074.7 
				800.7,1075.1 801.9,1075.4 803.2,1075.8 804.4,1076 805.5,1076.6 806.6,1077.1 807.8,1077.5 809,1077.8 810.2,1078.1 
				811.1,1079.1 812,1079.9 813.3,1080.4 813.9,1081.5 814.4,1082.7 815.4,1083.7 815.7,1085 816.5,1086 817.3,1087 817.8,1088.3 
				818.3,1089.5 819.2,1090.4 819.9,1091.5 820,1093 820.6,1094.1 821.6,1095.1 821.7,1096.5 822.7,1097.4 822.8,1098.8 823.4,1100 
				824,1101.2 825,1102.1 825.1,1103.5 825.9,1104.8 826.4,1103.4 826.4,1102 827.2,1100.9 828.1,1100 828.3,1098.6 828.9,1097.5 
				829.9,1096.6 830.1,1095.2 831.2,1094.4 831.4,1093 831.9,1091.9 832.9,1090.9 833.6,1089.8 834.3,1088.8 834.8,1087.5 
				835.4,1086.4 835.6,1085.1 835.9,1083.9 836.5,1082.7 836.8,1081.5 837.7,1080.4 837.6,1079 838.2,1077.8 837.9,1076.5 
				838.3,1075.3 838.4,1074 838.2,1072.7 			"/>
			<polygon class="st0" points="889.3,1272.1 889.5,1270.8 889.6,1269.5 889.5,1268.2 889.4,1266.9 889.4,1265.6 890,1264.3 
				889.8,1263.1 889.4,1261.8 890,1260.5 889.9,1259.2 889.9,1257.9 890,1256.6 889.4,1255.3 889.5,1254 889.4,1252.8 889.5,1251.5 
				889.8,1250.2 889.6,1248.9 889.9,1247.6 889.8,1246.3 889.7,1245 890,1243.7 889.7,1242.5 889.6,1241.2 889.7,1239.9 
				889.9,1238.6 889.6,1237.3 890,1236 889.3,1234.7 889.6,1233.4 889.9,1232.2 889.6,1230.9 890,1229.6 889.9,1228.3 889.5,1227 
				889.8,1225.7 889.4,1224.4 890,1223.2 889.6,1221.9 889.6,1220.6 889.3,1219.4 889.8,1218.1 889.1,1216.9 889.4,1215.5 
				889,1214.3 888.5,1213.1 888,1212 887.9,1210.6 887.2,1209.5 886.6,1208.4 886.4,1207.1 885.4,1206.2 884.6,1205.2 884.1,1204 
				883.5,1202.9 882.6,1202 882.2,1200.7 881,1200 880.5,1198.8 879.6,1197.8 878.5,1197.2 877.7,1196.1 876.8,1195.2 875.5,1194.8 
				874.7,1193.8 873.5,1193.2 872.3,1192.7 871.2,1192.1 870.3,1191.2 869.1,1190.8 868,1190 866.9,1189.5 865.7,1188.8 
				864.6,1188.2 863.3,1188.2 862.2,1187.5 860.9,1187.1 859.7,1186.8 858.4,1186.8 857.2,1186.3 856,1185.9 854.7,1185.6 
				853.6,1184.9 852.3,1185 851.1,1184.4 849.8,1184.2 848.7,1183.5 847.4,1183.6 846.2,1182.8 844.9,1182.8 843.7,1182.3 
				842.4,1182.4 841.2,1182.1 840,1181.3 838.7,1181.6 837.4,1181.2 836.2,1181.2 834.9,1181 833.8,1180.1 832.5,1180.1 
				831.1,1180.2 829.9,1179.9 828.7,1179.3 827.4,1179.3 826.2,1179.2 824.9,1179 823.7,1178.3 822.4,1178.7 821.2,1178 
				819.9,1177.8 818.6,1177.9 817.4,1177.4 816.1,1177.4 814.9,1177 813.6,1177 812.3,1177.2 811.1,1177.5 809.8,1177.3 
				808.5,1177.5 807.3,1177.3 806,1177.5 804.7,1177.2 803.5,1176.9 802.2,1177.4 800.9,1177.2 799.7,1177.3 798.4,1177.3 
				797.1,1177.2 795.9,1177.1 794.6,1177.1 793.3,1177.3 792.1,1177.3 790.8,1177 789.5,1177.4 788.3,1177 787,1177.5 785.7,1177.3 
				784.5,1177.4 783.2,1177.3 781.9,1177.1 780.7,1177.3 779.4,1177.5 778.1,1177.1 776.9,1177 775.6,1177.4 774.3,1176.9 
				773.1,1177.6 771.8,1177.5 770.5,1177.3 769.3,1177.6 768,1176.9 766.7,1177 765.5,1177 764.3,1177.7 763,1177.7 761.7,1177.5 
				760.4,1177.7 759.2,1178.4 757.9,1178 756.7,1178.7 755.5,1179.1 754.2,1179 752.9,1179.3 751.6,1179.3 750.4,1179.8 
				749.2,1180.1 747.8,1179.9 746.7,1180.5 745.3,1180.4 744.2,1181.1 742.8,1180.9 741.6,1181.4 740.4,1181.8 739.2,1182.2 
				737.9,1182.4 736.7,1182.8 735.3,1182.5 734.2,1183.1 733,1183.6 731.6,1183.3 730.4,1183.9 729.2,1184.1 728,1184.9 
				726.7,1184.9 725.6,1185.6 724.4,1185.9 723,1185.7 721.8,1186.3 720.6,1186.5 719.5,1187.4 718.1,1187.3 717.1,1188.2 
				715.8,1188.4 714.6,1188.7 713.6,1189.8 712.4,1190.2 711.1,1190.5 710.1,1191.2 709.2,1192.1 707.8,1192.3 707.1,1193.5 
				705.8,1193.9 704.7,1194.6 703.7,1195.4 702.9,1196.4 701.8,1197.1 701.1,1198.2 699.9,1198.8 699,1199.7 698.2,1200.7 
				697.4,1201.7 696.8,1202.8 696.3,1204 695.3,1204.9 695.1,1206.3 694.5,1207.3 693.4,1208.2 693.2,1209.5 692.4,1210.6 
				692.2,1211.9 691.7,1213.1 691.7,1214.4 691.6,1215.6 691,1216.8 690.7,1218.1 690.5,1219.3 690.7,1220.6 691,1221.9 
				690.7,1223.1 691,1224.4 690.5,1225.7 690.6,1227 690.8,1228.3 690.7,1229.6 691,1230.9 690.6,1232.2 690.5,1233.5 690.4,1234.8 
				690.3,1236 690.8,1237.3 690.3,1238.6 690.6,1239.9 690.4,1241.2 690.8,1242.5 690.9,1243.8 690.9,1245.1 690.5,1246.3 
				690.4,1247.6 690.5,1248.9 690.8,1250.2 691,1251.5 690.5,1252.8 690.5,1254.1 691,1255.4 690.9,1256.6 690.7,1257.9 691,1259.2 
				690.9,1260.5 690.5,1261.8 690.5,1263.1 690.6,1264.4 690.5,1265.7 690.3,1266.9 690.6,1268.2 690.6,1269.5 690.5,1270.8 
				690.8,1272.1 690.7,1273.4 690.4,1274.7 690.8,1276 890,1276 890,1274.7 890.1,1273.4 			"/>
			<path class="st4" d="M751.9,1105.4l14.7,41.7l4.5-5.6l7.7,5.6l5.7-5.6l5.7,5.6l5.9-5.6l4.7,5.6l5.7-5.6l4.7,5.6
				c0,0,10.3-32.6,10.6-34c0.4-1.3,3.2-9.7,3.2-9.7l1.3-39.7l-43.6-9.1c0,0-16.9-0.9-19.4,2.6s-15.6,25.1-15.6,25.1L751.9,1105.4z"
				/>
		</g>
	</g>
	<g>
		<g>
			<path class="st17" d="M630.9,1068.5c-23.3,15.1-44.5,39.8-25.8,38.4c18.7-1.4,25.8-10.7,25.8-10.7l1.9-15.1L630.9,1068.5z"/>
			<path class="st17" d="M696.4,1068.5c23.3,15.1,44.5,39.8,25.8,38.4c-18.7-1.4-25.8-10.7-25.8-10.7l-1.9-15.1L696.4,1068.5z"/>
		</g>
		<g>
			<g>
				<g>
					<path class="st10" d="M634.4,1129.6c0.1-0.4,0.1-0.9,0.3-1.4c0-0.1,0.1-0.3,0.2-0.4c0,0,0,0,0.1-0.3c0,0.1-0.1,0.2-0.1,0.3
						c0,0,0.2-0.3,0.2-0.4c0.1-0.1,0.1-0.2,0.2-0.3c-0.1,0-0.2,0.1-0.3,0.1c-0.1,0.1-0.2,0.1-0.4,0.2c0.1-0.1,0.3-0.1,0.4-0.2
						c0.1-0.1,0.2-0.2,0.3-0.3c0.4-0.4,0.4-0.4,0.2-0.1c0,0.1-0.1,0.2-0.2,0.3c0.5-0.2,0.9-0.4,1.3-0.8c0.3-0.2,0.5-0.6,0.7-1
						c0-0.1,0.1-0.1,0.1-0.2c-0.1,0-0.1,0.1-0.2,0.1c-0.2,0.1-0.2,0.1,0.1-0.1c0.3-0.3,0.2-0.2,0.1-0.1c0,0,0.1-0.1,0.1-0.1
						c0.3-0.2,0.7-0.5,1-0.8c0.2-0.2,0.3-0.3,0.5-0.5c0,0,0,0,0,0c-0.2,0,0.3-0.3,0,0c0,0,0.1,0,0.2,0c0.6-0.2,1.2-0.6,1.6-1
						c0.1-0.1,0.1-0.2,0.2-0.2c-0.1,0-0.3,0-0.4,0.1c-0.1,0-0.2,0-0.4,0c-0.1,0-0.1,0-0.2,0c0,0,0.1,0,0.2,0c0.5-0.1,1-0.4,1.3-0.9
						c0,0.1-0.1,0.1-0.1,0.2c-0.1,0.2-0.3,0.5-0.5,0.7c0.3,0,0.5-0.1,0.8-0.2c0.6-0.2,1.3-0.3,1.9-0.6c0,0,0,0,0,0c0,0,0,0-0.1,0
						c-0.4-0.1-1.3-0.5-0.5-0.2c-0.6-0.2-0.2-0.3,1.3-0.2c-0.1,0-0.1,0.1-0.2,0.1c-0.2,0.1-0.3,0.2-0.5,0.3c0.3,0.1,0.7,0.1,1,0.2
						c0.1,0,0.1,0,0.1,0c0,0,0,0-0.1,0c-0.3-0.1,0.3,0,0.1,0c0.4,0.1,0.7,0.1,1.1,0.2c0.5,0,1,0,1.5-0.2c-0.1,0-0.2,0-0.3-0.1
						c-0.4-0.1-0.2-0.1,0.7,0c-0.1,0-0.2,0.1-0.3,0.1c0,0-0.1,0-0.1,0c0.2,0,0.4,0.1,0.6,0.1c1.5,0.4,3.2-0.5,3.6-2
						c0.3-1.5-0.5-3.1-2-3.6c-0.7-0.2-1.5-0.4-2.3-0.4c-0.3,0-0.8,0.1-1.1,0.2c-0.1,0-0.3,0.1-0.4,0.1c0,0,0.1,0,0.1,0
						c0.1,0,0.3,0,0.4,0.1c-0.1,0-0.2,0-0.3,0c-0.5,0-0.4,0-0.2,0c-0.3,0-0.5-0.1-0.8-0.1c0,0,0,0,0.1,0c0.1,0,0.2,0.1,0.3,0.1
						c-0.1,0-0.2-0.1-0.3-0.1c-0.1,0-0.1,0-0.2,0c-0.3,0-0.3,0,0,0c0,0,0.1,0,0.1,0c-0.2-0.1-0.3-0.1-0.5-0.2
						c-0.4-0.1-0.7-0.2-1.1-0.2c-0.8,0-1.8,0.2-2.4,0.8c0,0,0,0-0.1,0c0.6-0.1-0.3,0.3,0,0c0,0,0,0,0,0c-0.3,0.1-0.7,0.1-0.9,0.3
						c0,0-0.1,0-0.1,0c0.1,0,0.2,0,0.3,0c-0.3,0-0.4,0-0.3,0c0,0-0.1,0-0.1,0c-0.4,0-0.8,0-1.1,0.1c-1,0.2-1.7,0.9-2.3,1.7
						c0.3-0.1,0.3-0.1,0,0.2c-0.3,0.3-0.2,0.3,0-0.1c0,0,0-0.1,0.1-0.1c0,0,0,0-0.1,0c-0.2,0.1-0.3,0.1-0.5,0.2
						c-0.5,0.3-1.1,0.7-1.5,1.2c-0.1,0.1-0.1,0.1-0.1,0.1c0.1,0,0.1-0.1,0.2-0.1c-0.2,0.1-0.2,0.2-0.2,0.1c-0.1,0-0.2,0.1-0.2,0.1
						c-0.4,0.2-0.7,0.5-1,0.8c-0.3,0.3-0.5,0.6-0.7,1c0,0,0,0,0,0.1c0.2-0.1,0.5-0.2,0.7-0.3c-0.1,0-0.2,0.1-0.3,0.1
						c-0.6,0.8-0.8,0.9-0.5,0.5c0.1-0.1,0.1-0.2,0.2-0.3c-0.1,0-0.1,0.1-0.2,0.1c-0.3,0.2-0.7,0.4-0.9,0.6c-0.5,0.4-0.9,1.1-1.2,1.7
						c-0.6,1.1-0.9,2.3-1.2,3.5c-0.4,1.5,0.5,3.2,2,3.6C632.3,1131.9,634,1131.2,634.4,1129.6z"/>
					<path class="st10" d="M643.1,1130.5c0-0.5-0.1-0.9-0.1-1.4c0-0.1,0-0.3,0.1-0.4c0,0,0,0,0-0.3c0,0.1,0,0.2,0,0.3
						c0,0,0.1-0.3,0.1-0.4c0-0.1,0.1-0.2,0.1-0.3c-0.1,0.1-0.2,0.1-0.3,0.2c-0.1,0.1-0.2,0.2-0.3,0.3c0.1-0.1,0.2-0.2,0.3-0.3
						c0.1-0.1,0.2-0.2,0.2-0.4c0.3-0.5,0.3-0.5,0.2-0.2c0,0.1-0.1,0.2-0.1,0.3c0.4-0.3,0.7-0.6,1-1.1c0.2-0.3,0.3-0.8,0.4-1.1
						c0-0.1,0.1-0.2,0.1-0.2c-0.1,0.1-0.1,0.1-0.2,0.2c-0.1,0.2-0.1,0.1,0.1-0.1c0.2-0.4,0.2-0.3,0.1-0.1c0,0,0.1-0.1,0.1-0.1
						c0.3-0.3,0.6-0.7,0.8-1c0.1-0.2,0.2-0.4,0.3-0.6c0,0,0,0,0,0c-0.2,0.1,0.2-0.3,0,0c0,0,0.1,0,0.2-0.1c0.5-0.3,1-0.8,1.3-1.4
						c0-0.1,0.1-0.2,0.1-0.3c-0.1,0.1-0.2,0.1-0.4,0.1c-0.1,0-0.2,0.1-0.4,0.1c-0.1,0-0.1,0.1-0.2,0.1c0,0,0.1-0.1,0.2-0.1
						c0.5-0.2,0.9-0.6,1.1-1.2c0,0.1,0,0.1-0.1,0.2c-0.1,0.3-0.2,0.5-0.3,0.8c0.3-0.1,0.5-0.2,0.7-0.4c0.6-0.3,1.2-0.6,1.7-1.1
						c0,0,0,0,0,0c0,0,0,0-0.1,0c-0.4,0-1.4-0.1-0.6-0.1c-0.7,0-0.3-0.2,1.2-0.5c0,0.1-0.1,0.1-0.1,0.2c-0.1,0.2-0.3,0.3-0.4,0.5
						c0.3,0,0.7,0,1-0.1c0.1,0,0.1,0,0.1,0c0,0,0,0-0.1,0c-0.3,0,0.3-0.1,0.1,0c0.4,0,0.8,0,1.1-0.1c0.5-0.1,1-0.3,1.4-0.6
						c-0.1,0-0.2,0-0.3,0c-0.4,0-0.2,0,0.7-0.2c-0.1,0-0.2,0.1-0.2,0.1c0,0-0.1,0-0.1,0.1c0.2,0,0.4,0,0.6,0c1.5,0,3-1.3,2.9-2.8
						c0-1.6-1.2-2.9-2.8-2.9c-0.7,0-1.6,0-2.3,0.1c-0.3,0.1-0.7,0.2-1,0.4c-0.1,0-0.2,0.1-0.3,0.2c0,0,0.1,0,0.1,0
						c0.1,0,0.3,0,0.4,0c-0.1,0-0.2,0-0.3,0c-0.5,0.2-0.4,0.1-0.2,0c-0.3,0-0.5,0.1-0.8,0.1c0,0,0.1,0,0.1,0c0.1,0,0.2,0,0.3,0.1
						c-0.1,0-0.2,0-0.3-0.1c-0.1,0-0.1,0-0.2,0c-0.3,0-0.3,0,0,0c0,0,0.1,0,0.1,0c-0.2,0-0.3,0-0.5-0.1c-0.4,0-0.7,0-1.1,0.1
						c-0.8,0.2-1.6,0.7-2.1,1.3c0,0,0,0,0,0.1c0.5-0.2-0.2,0.3,0,0c0,0,0,0,0,0c-0.3,0.1-0.6,0.3-0.8,0.5c0,0-0.1,0-0.1,0
						c0.1,0,0.2-0.1,0.3-0.1c-0.3,0.1-0.4,0.1-0.3,0.1c0,0-0.1,0-0.1,0c-0.4,0.1-0.7,0.2-1.1,0.4c-0.9,0.5-1.5,1.3-1.8,2.2
						c0.2-0.2,0.2-0.1,0,0.2c-0.2,0.4-0.2,0.3,0-0.1c0,0,0-0.1,0-0.1c0,0,0,0,0,0c-0.1,0.1-0.3,0.2-0.4,0.3c-0.4,0.4-0.9,1-1.2,1.5
						c-0.1,0.1-0.1,0.1-0.1,0.2c0.1-0.1,0.1-0.1,0.2-0.2c-0.1,0.2-0.2,0.2-0.2,0.2c-0.1,0.1-0.1,0.1-0.2,0.2c-0.3,0.3-0.6,0.7-0.8,1
						c-0.2,0.3-0.3,0.7-0.5,1.1c0,0,0,0,0,0.1c0.2-0.2,0.4-0.3,0.6-0.4c-0.1,0.1-0.2,0.1-0.3,0.2c-0.4,0.9-0.6,1.1-0.4,0.6
						c0-0.1,0.1-0.2,0.1-0.4c-0.1,0-0.1,0.1-0.2,0.1c-0.3,0.2-0.5,0.5-0.8,0.9c-0.4,0.5-0.6,1.3-0.7,1.9c-0.3,1.2-0.3,2.4-0.3,3.7
						c0,1.5,1.2,3,2.8,2.9C641.6,1133.3,643.1,1132.1,643.1,1130.5z"/>
					<path class="st10" d="M652.9,1129.6c-0.1-0.4-0.4-0.8-0.5-1.3c0-0.1-0.1-0.3-0.1-0.4c0,0,0,0,0-0.3c0,0.1,0,0.2,0,0.3
						c0,0,0-0.4,0-0.4c0-0.1,0-0.2,0-0.4c-0.1,0.1-0.1,0.2-0.2,0.3c-0.1,0.1-0.1,0.2-0.2,0.3c0.1-0.1,0.2-0.2,0.2-0.3
						c0.1-0.1,0.1-0.3,0.1-0.4c0.1-0.5,0.1-0.6,0.1-0.2c0,0.1,0,0.2,0,0.3c0.3-0.4,0.5-0.8,0.7-1.4c0.1-0.3,0.1-0.8,0.1-1.2
						c0-0.1,0-0.2,0-0.3c0,0.1-0.1,0.1-0.1,0.2c-0.1,0.2-0.1,0.2,0-0.1c0.1-0.4,0.1-0.3,0.1-0.1c0-0.1,0.1-0.1,0.1-0.2
						c0.2-0.4,0.3-0.8,0.4-1.2c0.1-0.2,0.1-0.4,0.1-0.6c0,0,0,0,0,0c-0.2,0.1,0.1-0.4,0,0c0,0,0.1-0.1,0.1-0.1
						c0.4-0.5,0.7-1.1,0.8-1.7c0-0.1,0-0.2,0-0.3c-0.1,0.1-0.2,0.2-0.3,0.3c0,0-0.2,0.1-0.3,0.2c-0.1,0.1-0.1,0.1-0.2,0.2
						c0,0,0.1-0.1,0.2-0.2c0.4-0.4,0.6-0.8,0.7-1.5c0,0.1,0,0.1,0,0.2c0,0.3,0,0.6,0,0.8c0.2-0.2,0.4-0.4,0.6-0.6
						c0.5-0.5,1-1,1.3-1.6c0,0,0,0,0,0c0,0,0,0-0.1,0c-0.4,0.1-1.4,0.3-0.6,0.1c-0.7,0.2-0.3-0.1,1-0.9c0,0.1-0.1,0.1-0.1,0.2
						c-0.1,0.2-0.2,0.4-0.3,0.6c0.3-0.1,0.7-0.2,1-0.4c0,0,0.1,0,0.1-0.1c0,0,0,0-0.1,0c-0.3,0.1,0.3-0.2,0.1,0
						c0.3-0.1,0.7-0.3,1-0.4c0.4-0.3,0.9-0.6,1.2-1c-0.1,0-0.2,0.1-0.3,0.1c-0.4,0.2-0.2,0,0.6-0.4c-0.1,0.1-0.1,0.1-0.2,0.2
						c0,0-0.1,0.1-0.1,0.1c0.2-0.1,0.4-0.1,0.6-0.2c1.5-0.4,2.5-2.1,2-3.6c-0.5-1.5-2-2.4-3.6-2c-0.7,0.2-1.5,0.4-2.1,0.8
						c-0.3,0.2-0.6,0.5-0.8,0.7c-0.1,0.1-0.2,0.2-0.3,0.3c0,0,0.1,0,0.1,0c0.1-0.1,0.3-0.1,0.4-0.2c-0.1,0-0.2,0.1-0.3,0.1
						c-0.4,0.3-0.4,0.2-0.2,0.1c-0.2,0.1-0.5,0.2-0.7,0.3c0,0,0.1,0,0.1,0c0.1,0,0.2-0.1,0.3-0.1c-0.1,0-0.2,0-0.3,0.1
						c-0.1,0-0.1,0-0.2,0.1c-0.2,0.1-0.2,0.1,0,0c0,0,0.1,0,0.1,0c-0.2,0-0.3,0.1-0.5,0.1c-0.4,0.1-0.7,0.2-1,0.4
						c-0.7,0.4-1.4,1.1-1.6,1.9c0,0,0,0,0,0.1c0.4-0.4-0.1,0.4,0,0c0,0,0,0,0,0c-0.2,0.2-0.5,0.4-0.6,0.7c0,0,0,0.1-0.1,0.1
						c0.1-0.1,0.2-0.1,0.3-0.2c-0.2,0.2-0.3,0.3-0.3,0.2c0,0-0.1,0-0.1,0.1c-0.3,0.2-0.6,0.4-0.9,0.7c-0.7,0.7-1,1.7-1,2.6
						c0.2-0.3,0.2-0.2,0.1,0.2c-0.1,0.4-0.1,0.4-0.1,0c0,0,0-0.1,0-0.1c0,0,0,0,0,0c-0.1,0.1-0.2,0.3-0.3,0.4
						c-0.3,0.5-0.6,1.2-0.6,1.8c0,0.1,0,0.2,0,0.2c0-0.1,0.1-0.2,0.1-0.2c-0.1,0.2-0.1,0.3-0.1,0.2c0,0.1-0.1,0.2-0.1,0.3
						c-0.2,0.4-0.4,0.8-0.5,1.2c-0.1,0.4-0.1,0.8-0.1,1.2c0,0,0,0,0,0.1c0.1-0.2,0.3-0.4,0.5-0.6c-0.1,0.1-0.1,0.2-0.2,0.3
						c-0.1,1-0.2,1.2-0.2,0.7c0-0.1,0-0.3,0-0.4c0,0.1-0.1,0.1-0.1,0.2c-0.2,0.3-0.4,0.7-0.5,1c-0.2,0.6-0.2,1.4-0.1,2.1
						c0,1.3,0.4,2.4,0.8,3.6c0.5,1.4,2.1,2.5,3.6,2C652.4,1132.7,653.4,1131.2,652.9,1129.6z"/>
				</g>
				<g>
					<path class="st10" d="M693,1129.6c-0.1-0.4-0.1-0.9-0.3-1.4c0-0.1-0.1-0.3-0.2-0.4c0,0,0,0-0.1-0.3c0,0.1,0.1,0.2,0.1,0.3
						c0,0-0.2-0.3-0.2-0.4c-0.1-0.1-0.1-0.2-0.2-0.3c0.1,0,0.2,0.1,0.3,0.1c0.1,0.1,0.2,0.1,0.4,0.2c-0.1-0.1-0.3-0.1-0.4-0.2
						c-0.1-0.1-0.2-0.2-0.3-0.3c-0.4-0.4-0.4-0.4-0.2-0.1c0,0.1,0.1,0.2,0.2,0.3c-0.5-0.2-0.9-0.4-1.3-0.8c-0.3-0.2-0.5-0.6-0.7-1
						c0-0.1-0.1-0.1-0.1-0.2c0.1,0,0.1,0.1,0.2,0.1c0.2,0.1,0.2,0.1-0.1-0.1c-0.3-0.3-0.2-0.2-0.1-0.1c0,0-0.1-0.1-0.1-0.1
						c-0.3-0.2-0.7-0.5-1-0.8c-0.2-0.2-0.3-0.3-0.5-0.5c0,0,0,0,0,0c0.2,0-0.3-0.3,0,0c0,0-0.1,0-0.2,0c-0.6-0.2-1.2-0.6-1.6-1
						c-0.1-0.1-0.1-0.2-0.2-0.2c0.1,0,0.3,0,0.4,0.1c0.1,0,0.2,0,0.4,0c0.1,0,0.1,0,0.2,0c0,0-0.1,0-0.2,0c-0.5-0.1-1-0.4-1.3-0.9
						c0,0.1,0.1,0.1,0.1,0.2c0.1,0.2,0.3,0.5,0.5,0.7c-0.3,0-0.5-0.1-0.8-0.2c-0.6-0.2-1.3-0.3-1.9-0.6c0,0,0,0,0,0c0,0,0,0,0.1,0
						c0.4-0.1,1.3-0.5,0.5-0.2c0.6-0.2,0.2-0.3-1.3-0.2c0.1,0,0.1,0.1,0.2,0.1c0.2,0.1,0.3,0.2,0.5,0.3c-0.3,0.1-0.7,0.1-1,0.2
						c-0.1,0-0.1,0-0.1,0c0,0,0,0,0.1,0c0.3-0.1-0.3,0-0.1,0c-0.4,0.1-0.7,0.1-1.1,0.2c-0.5,0-1,0-1.5-0.2c0.1,0,0.2,0,0.3-0.1
						c0.4-0.1,0.2-0.1-0.7,0c0.1,0,0.2,0.1,0.3,0.1c0,0,0.1,0,0.1,0c-0.2,0-0.4,0.1-0.6,0.1c-1.5,0.4-3.2-0.5-3.6-2
						c-0.3-1.5,0.5-3.1,2-3.6c0.7-0.2,1.5-0.4,2.3-0.4c0.3,0,0.8,0.1,1.1,0.2c0.1,0,0.3,0.1,0.4,0.1c0,0-0.1,0-0.1,0
						c-0.1,0-0.3,0-0.4,0.1c0.1,0,0.2,0,0.3,0c0.5,0,0.4,0,0.2,0c0.3,0,0.5-0.1,0.8-0.1c0,0,0,0-0.1,0c-0.1,0-0.2,0.1-0.3,0.1
						c0.1,0,0.2-0.1,0.3-0.1c0.1,0,0.1,0,0.2,0c0.3,0,0.3,0,0,0c0,0-0.1,0-0.1,0c0.2-0.1,0.3-0.1,0.5-0.2c0.4-0.1,0.7-0.2,1.1-0.2
						c0.8,0,1.8,0.2,2.4,0.8c0,0,0,0,0.1,0c-0.6-0.1,0.3,0.3,0,0c0,0,0,0,0,0c0.3,0.1,0.7,0.1,0.9,0.3c0,0,0.1,0,0.1,0
						c-0.1,0-0.2,0-0.3,0c0.3,0,0.4,0,0.3,0c0,0,0.1,0,0.1,0c0.4,0,0.8,0,1.1,0.1c1,0.2,1.7,0.9,2.3,1.7c-0.3-0.1-0.3-0.1,0,0.2
						c0.3,0.3,0.2,0.3,0-0.1c0,0,0-0.1-0.1-0.1c0,0,0,0,0.1,0c0.2,0.1,0.3,0.1,0.5,0.2c0.5,0.3,1.1,0.7,1.5,1.2
						c0.1,0.1,0.1,0.1,0.1,0.1c-0.1,0-0.1-0.1-0.2-0.1c0.2,0.1,0.2,0.2,0.2,0.1c0.1,0,0.2,0.1,0.2,0.1c0.4,0.2,0.7,0.5,1,0.8
						c0.3,0.3,0.5,0.6,0.7,1c0,0,0,0,0,0.1c-0.2-0.1-0.5-0.2-0.7-0.3c0.1,0,0.2,0.1,0.3,0.1c0.6,0.8,0.8,0.9,0.5,0.5
						c-0.1-0.1-0.1-0.2-0.2-0.3c0.1,0,0.1,0.1,0.2,0.1c0.3,0.2,0.7,0.4,0.9,0.6c0.5,0.4,0.9,1.1,1.2,1.7c0.6,1.1,0.9,2.3,1.2,3.5
						c0.4,1.5-0.5,3.2-2,3.6C695.1,1131.9,693.4,1131.2,693,1129.6z"/>
					<path class="st10" d="M684.3,1130.5c0-0.5,0.1-0.9,0.1-1.4c0-0.1,0-0.3-0.1-0.4c0,0,0,0,0-0.3c0,0.1,0,0.2,0,0.3
						c0,0-0.1-0.3-0.1-0.4c0-0.1-0.1-0.2-0.1-0.3c0.1,0.1,0.2,0.1,0.3,0.2c0.1,0.1,0.2,0.2,0.3,0.3c-0.1-0.1-0.2-0.2-0.3-0.3
						c-0.1-0.1-0.2-0.2-0.2-0.4c-0.3-0.5-0.3-0.5-0.2-0.2c0,0.1,0.1,0.2,0.1,0.3c-0.4-0.3-0.7-0.6-1-1.1c-0.2-0.3-0.3-0.8-0.4-1.1
						c0-0.1-0.1-0.2-0.1-0.2c0.1,0.1,0.1,0.1,0.2,0.2c0.1,0.2,0.1,0.1-0.1-0.1c-0.2-0.4-0.2-0.3-0.1-0.1c0,0-0.1-0.1-0.1-0.1
						c-0.3-0.3-0.6-0.7-0.8-1c-0.1-0.2-0.2-0.4-0.3-0.6c0,0,0,0,0,0c0.2,0.1-0.2-0.3,0,0c0,0-0.1,0-0.2-0.1c-0.5-0.3-1-0.8-1.3-1.4
						c0-0.1-0.1-0.2-0.1-0.3c0.1,0.1,0.2,0.1,0.4,0.1c0.1,0,0.2,0.1,0.4,0.1c0.1,0,0.1,0.1,0.2,0.1c0,0-0.1-0.1-0.2-0.1
						c-0.5-0.2-0.9-0.6-1.1-1.2c0,0.1,0,0.1,0.1,0.2c0.1,0.3,0.2,0.5,0.3,0.8c-0.3-0.1-0.5-0.2-0.7-0.4c-0.6-0.3-1.2-0.6-1.7-1.1
						c0,0,0,0,0,0c0,0,0,0,0.1,0c0.4,0,1.4-0.1,0.6-0.1c0.7,0,0.3-0.2-1.2-0.5c0,0.1,0.1,0.1,0.1,0.2c0.1,0.2,0.3,0.3,0.4,0.5
						c-0.3,0-0.7,0-1-0.1c-0.1,0-0.1,0-0.1,0c0,0,0,0,0.1,0c0.3,0-0.3-0.1-0.1,0c-0.4,0-0.8,0-1.1-0.1c-0.5-0.1-1-0.3-1.4-0.6
						c0.1,0,0.2,0,0.3,0c0.4,0,0.2,0-0.7-0.2c0.1,0,0.2,0.1,0.2,0.1c0,0,0.1,0,0.1,0.1c-0.2,0-0.4,0-0.6,0c-1.5,0-3-1.3-2.9-2.8
						c0-1.6,1.2-2.9,2.8-2.9c0.7,0,1.6,0,2.3,0.1c0.3,0.1,0.7,0.2,1,0.4c0.1,0,0.2,0.1,0.3,0.2c0,0-0.1,0-0.1,0c-0.1,0-0.3,0-0.4,0
						c0.1,0,0.2,0,0.3,0c0.5,0.2,0.4,0.1,0.2,0c0.3,0,0.5,0.1,0.8,0.1c0,0-0.1,0-0.1,0c-0.1,0-0.2,0-0.3,0.1c0.1,0,0.2,0,0.3-0.1
						c0.1,0,0.1,0,0.2,0c0.3,0,0.3,0,0,0c0,0-0.1,0-0.1,0c0.2,0,0.3,0,0.5-0.1c0.4,0,0.7,0,1.1,0.1c0.8,0.2,1.6,0.7,2.1,1.3
						c0,0,0,0,0,0.1c-0.5-0.2,0.2,0.3,0,0c0,0,0,0,0,0c0.3,0.1,0.6,0.3,0.8,0.5c0,0,0.1,0,0.1,0c-0.1,0-0.2-0.1-0.3-0.1
						c0.3,0.1,0.4,0.1,0.3,0.1c0,0,0.1,0,0.1,0c0.4,0.1,0.7,0.2,1.1,0.4c0.9,0.5,1.5,1.3,1.8,2.2c-0.2-0.2-0.2-0.1,0,0.2
						c0.2,0.4,0.2,0.3,0-0.1c0,0,0-0.1,0-0.1c0,0,0,0,0,0c0.1,0.1,0.3,0.2,0.4,0.3c0.4,0.4,0.9,1,1.2,1.5c0.1,0.1,0.1,0.1,0.1,0.2
						c-0.1-0.1-0.1-0.1-0.2-0.2c0.1,0.2,0.2,0.2,0.2,0.2c0.1,0.1,0.1,0.1,0.2,0.2c0.3,0.3,0.6,0.7,0.8,1c0.2,0.3,0.3,0.7,0.5,1.1
						c0,0,0,0,0,0.1c-0.2-0.2-0.4-0.3-0.6-0.4c0.1,0.1,0.2,0.1,0.3,0.2c0.4,0.9,0.6,1.1,0.4,0.6c0-0.1-0.1-0.2-0.1-0.4
						c0.1,0,0.1,0.1,0.2,0.1c0.3,0.2,0.5,0.5,0.8,0.9c0.4,0.5,0.6,1.3,0.7,1.9c0.3,1.2,0.3,2.4,0.3,3.7c0,1.5-1.2,3-2.8,2.9
						C685.7,1133.3,684.3,1132.1,684.3,1130.5z"/>
					<path class="st10" d="M674.5,1129.6c0.1-0.4,0.4-0.8,0.5-1.3c0-0.1,0.1-0.3,0.1-0.4c0,0,0,0,0.1-0.3c0,0.1,0,0.2-0.1,0.3
						c0,0,0-0.4,0-0.4c0-0.1,0-0.2,0-0.4c0.1,0.1,0.1,0.2,0.2,0.3c0.1,0.1,0.1,0.2,0.2,0.3c-0.1-0.1-0.2-0.2-0.2-0.3
						c-0.1-0.1-0.1-0.3-0.1-0.4c-0.1-0.5-0.1-0.6-0.1-0.2c0,0.1,0,0.2,0,0.3c-0.3-0.4-0.5-0.8-0.7-1.4c-0.1-0.3-0.1-0.8-0.1-1.2
						c0-0.1,0-0.2,0-0.3c0,0.1,0.1,0.1,0.1,0.2c0.1,0.2,0.1,0.2,0-0.1c-0.1-0.4-0.1-0.3-0.1-0.1c0-0.1-0.1-0.1-0.1-0.2
						c-0.2-0.4-0.3-0.8-0.4-1.2c-0.1-0.2-0.1-0.4-0.1-0.6c0,0,0,0,0,0c0.2,0.1-0.1-0.4,0,0c0,0-0.1-0.1-0.1-0.1
						c-0.4-0.5-0.7-1.1-0.8-1.7c0-0.1,0-0.2,0-0.3c0.1,0.1,0.2,0.2,0.3,0.3c0,0,0.2,0.1,0.3,0.2c0.1,0.1,0.1,0.1,0.2,0.2
						c0,0-0.1-0.1-0.2-0.2c-0.4-0.4-0.6-0.8-0.7-1.5c0,0.1,0,0.1,0,0.2c0,0.3,0,0.6,0,0.8c-0.2-0.2-0.4-0.4-0.6-0.6
						c-0.5-0.5-1-1-1.3-1.6c0,0,0,0,0,0c0,0,0,0,0.1,0c0.4,0.1,1.4,0.3,0.6,0.1c0.7,0.2,0.3-0.1-1-0.9c0,0.1,0.1,0.1,0.1,0.2
						c0.1,0.2,0.2,0.4,0.3,0.6c-0.3-0.1-0.7-0.2-1-0.4c0,0-0.1,0-0.1-0.1c0,0,0,0,0.1,0c0.3,0.1-0.3-0.2-0.1,0
						c-0.3-0.1-0.7-0.3-1-0.4c-0.4-0.3-0.9-0.6-1.2-1c0.1,0,0.2,0.1,0.3,0.1c0.4,0.2,0.2,0-0.6-0.4c0.1,0.1,0.1,0.1,0.2,0.2
						c0,0,0.1,0.1,0.1,0.1c-0.2-0.1-0.4-0.1-0.6-0.2c-1.5-0.4-2.5-2.1-2-3.6c0.5-1.5,2-2.4,3.6-2c0.7,0.2,1.5,0.4,2.1,0.8
						c0.3,0.2,0.6,0.5,0.8,0.7c0.1,0.1,0.2,0.2,0.3,0.3c0,0-0.1,0-0.1,0c-0.1-0.1-0.3-0.1-0.4-0.2c0.1,0,0.2,0.1,0.3,0.1
						c0.4,0.3,0.4,0.2,0.2,0.1c0.2,0.1,0.5,0.2,0.7,0.3c0,0-0.1,0-0.1,0c-0.1,0-0.2-0.1-0.3-0.1c0.1,0,0.2,0,0.3,0.1
						c0.1,0,0.1,0,0.2,0.1c0.2,0.1,0.2,0.1,0,0c0,0-0.1,0-0.1,0c0.2,0,0.3,0.1,0.5,0.1c0.4,0.1,0.7,0.2,1,0.4
						c0.7,0.4,1.4,1.1,1.6,1.9c0,0,0,0,0,0.1c-0.4-0.4,0.1,0.4,0,0c0,0,0,0,0,0c0.2,0.2,0.5,0.4,0.6,0.7c0,0,0,0.1,0.1,0.1
						c-0.1-0.1-0.2-0.1-0.3-0.2c0.2,0.2,0.3,0.3,0.3,0.2c0,0,0.1,0,0.1,0.1c0.3,0.2,0.6,0.4,0.9,0.7c0.7,0.7,1,1.7,1,2.6
						c-0.2-0.3-0.2-0.2-0.1,0.2c0.1,0.4,0.1,0.4,0.1,0c0,0,0-0.1,0-0.1c0,0,0,0,0,0c0.1,0.1,0.2,0.3,0.3,0.4
						c0.3,0.5,0.6,1.2,0.6,1.8c0,0.1,0,0.2,0,0.2c0-0.1-0.1-0.2-0.1-0.2c0.1,0.2,0.1,0.3,0.1,0.2c0,0.1,0.1,0.2,0.1,0.3
						c0.2,0.4,0.4,0.8,0.5,1.2c0.1,0.4,0.1,0.8,0.1,1.2c0,0,0,0,0,0.1c-0.1-0.2-0.3-0.4-0.5-0.6c0.1,0.1,0.1,0.2,0.2,0.3
						c0.1,1,0.2,1.2,0.2,0.7c0-0.1,0-0.3,0-0.4c0,0.1,0.1,0.1,0.1,0.2c0.2,0.3,0.4,0.7,0.5,1c0.2,0.6,0.2,1.4,0.1,2.1
						c0,1.3-0.4,2.4-0.8,3.6c-0.5,1.4-2.1,2.5-3.6,2C675,1132.7,674,1131.2,674.5,1129.6z"/>
				</g>
			</g>
			<g>
				<polygon class="st18" points="653.6,1038.6 663.7,1015 673.7,1038.6 				"/>
				<path class="st17" d="M673.7,1042h-20.1c-1.1,0-2.2-0.6-2.8-1.5c-0.6-0.9-0.7-2.1-0.3-3.1l10.1-23.6c0.5-1.2,1.7-2,3-2l0,0
					c1.3,0,2.5,0.8,3,2l10.1,23.6c0.4,1,0.3,2.2-0.3,3.1C675.9,1041.4,674.9,1042,673.7,1042z"/>
			</g>
			<path class="st19" d="M624.4,1098.3c0,0.6,0.2,0.6,0.1,1.2c0,0.6-0.3,0.6-0.3,1.2c0,0.6,0.1,0.6,0.1,1.2c0,0.6,0.1,0.6,0.1,1.2
				c0,0.6-0.3,0.6-0.4,1.2c0,0.4-0.1,0.8-0.1,1.2c0,0.4,0,0.8,0,1.2c0.1,0.4,0.3,0.8,0.4,1.2c0.1,0.4,0,0.8,0.1,1.2
				c0.1,0.4,0.5,0.7,0.6,1.1c0.1,0.4,0.2,0.8,0.4,1.2c0.2,0.4,0.4,0.7,0.6,1.1c0.2,0.4,0.3,0.8,0.6,1.1c0.2,0.4,0.4,0.8,0.7,1.1
				c0.3,0.3,0.9,0.5,1.2,0.8c0.3,0.3,0.7,0.6,1,0.9c0.3,0.3,0.2,1,0.5,1.2c0.3,0.3,0.9,0.4,1.3,0.7c0.4,0.3,0.8,0.5,1.1,0.8
				c0.4,0.3,0.8,0.4,1.2,0.7c0.4,0.3,0.8,0.5,1.2,0.7c0.4,0.2,0.8,0.4,1.2,0.7c0.4,0.2,0.5,0.8,1,1c0.4,0.2,0.8,0.5,1.2,0.7
				c0.4,0.2,1.1,0,1.6,0.1c0.4,0.2,0.9,0.4,1.3,0.5c0.4,0.2,0.7,0.7,1.2,0.9c0.5,0.2,1,0.1,1.5,0.2c0.5,0.1,0.9,0.4,1.3,0.5
				c0.5,0.1,0.9,0.2,1.4,0.4c0.5,0.1,0.9,0.2,1.4,0.3c0.5,0.1,1.1-0.2,1.5-0.1c0.5,0.1,0.8,0.8,1.3,0.9c0.5,0.1,1-0.1,1.5,0
				c0.5,0.1,0.9,0.4,1.4,0.5c0.5,0.1,1-0.2,1.5-0.2c0.5,0.1,1-0.1,1.5,0c0.5,0,0.9,0.5,1.4,0.6c0.5,0,1-0.2,1.5-0.1
				c0.5,0,1,0.2,1.5,0.2c0.5,0,1-0.3,1.5-0.3c0.5,0,1-0.2,1.5-0.3c0.5,0,1,0,1.4,0c0.5,0,1,0.2,1.5,0.1c0.5,0,1-0.1,1.4-0.1
				c0.5,0,1,0.3,1.5,0.2c0.5,0,0.9-0.3,1.4-0.4c0.5-0.1,1,0,1.5-0.1c0.5-0.1,1,0,1.5-0.1c0.5-0.1,1-0.1,1.5-0.1
				c0.5-0.1,0.9-0.6,1.3-0.6c0.5-0.1,1-0.1,1.4-0.3c0.5-0.1,0.9-0.3,1.4-0.4c0.5-0.1,0.9-0.4,1.3-0.5c0.5-0.1,1.1,0.2,1.6,0.1
				c0.5-0.1,0.9-0.3,1.3-0.5c0.5-0.1,0.8-0.5,1.2-0.7c0.4-0.2,1.1,0.1,1.6-0.1c0.4-0.2,0.8-0.4,1.3-0.6c0.4-0.2,0.7-0.7,1.1-0.9
				c0.4-0.2,0.7-0.6,1.1-0.8c0.4-0.2,1.1-0.1,1.5-0.3c0.4-0.2,0.5-0.8,0.9-1c0.4-0.2,1.1-0.1,1.5-0.4c0.4-0.3,0.6-0.7,1-0.9
				c0.4-0.3,0.9-0.4,1.2-0.7c0.3-0.3,0.3-0.9,0.6-1.2c0.3-0.3,1.1-0.3,1.4-0.6c0.3-0.3,0.4-0.8,0.6-1.1c0.3-0.3,0.5-0.7,0.7-1.1
				c0.3-0.3,0.7-0.6,0.9-0.9c0.2-0.4,0.3-0.8,0.5-1.1c0.2-0.4,0.6-0.7,0.7-1.1c0.2-0.4,0.6-0.7,0.7-1.1c0.1-0.4,0-0.8,0.1-1.2
				c0.1-0.4-0.2-0.8-0.1-1.3c0.1-0.4,0.6-0.7,0.7-1.1c0.1-0.4-0.4-0.8-0.3-1.2c0-0.4,0.5-0.8,0.5-1.2c0-0.6-0.4-0.6-0.4-1.2
				c0-0.6-0.2-0.6-0.2-1.2c0-0.6,0.4-0.6,0.4-1.2c0-0.6,0.1-0.6,0-1.2c0-0.6,0.1-0.6,0-1.2c0-0.6,0-0.6,0-1.2c0-0.6-0.2-0.6-0.2-1.2
				c0-0.6-0.4-0.6-0.4-1.2c0-0.6-0.2-0.6-0.2-1.2c0-0.6,0.7-0.6,0.7-1.2c0-0.6-0.2-0.6-0.3-1.2c0-0.6,0-0.6,0-1.2
				c0-0.6-0.3-0.6-0.3-1.2c0-0.6,0.4-0.6,0.4-1.2c0-0.6-0.4-0.6-0.5-1.2c0-0.6,0.3-0.6,0.3-1.2c0-0.6-0.1-0.6-0.1-1.2
				c0-0.6,0-0.6,0-1.2c0-0.6,0.1-0.6,0.1-1.2c0-0.6-0.1-0.6-0.1-1.2c0-0.6-0.3-0.6-0.3-1.2c0-0.6-0.3-0.6-0.3-1.2
				c0-0.6,0.5-0.6,0.5-1.2c0-0.6-0.5-0.6-0.6-1.2c0-0.6,0.6-0.6,0.5-1.2c0-0.6-0.5-0.6-0.5-1.2c0-0.6-0.1-0.6-0.2-1.2
				c0-0.6,0-0.6,0-1.2s-0.1-0.6-0.1-1.2c0-0.6,0.4-0.6,0.4-1.2c0-0.6-0.3-0.6-0.3-1.2c0-0.6,0.1-0.6,0.1-1.2c0-0.6,0-0.6-0.1-1.2
				c0-0.6,0.1-0.6,0.1-1.2c0-0.6,0-0.6,0-1.2c0-0.4,0.1-0.8,0.1-1.2c0-0.4-0.5-0.8-0.5-1.2c0-0.4-0.3-0.8-0.3-1.2
				c-0.1-0.4,0-0.8-0.1-1.2c-0.1-0.4,0.2-0.9,0.1-1.3c-0.1-0.4-0.6-0.7-0.7-1.1c-0.1-0.4-0.1-0.8-0.2-1.2c-0.1-0.4-0.3-0.8-0.5-1.1
				c-0.1-0.4,0-0.9-0.1-1.2c-0.2-0.4-0.7-0.7-0.9-1c-0.2-0.4-0.4-0.7-0.6-1.1c-0.2-0.4-0.3-0.8-0.5-1.1c-0.2-0.4-0.4-0.7-0.6-1.1
				c-0.2-0.4-0.2-0.9-0.4-1.2c-0.3-0.3-0.4-0.8-0.7-1.1c-0.3-0.3-1.1-0.4-1.3-0.7c-0.3-0.3-0.5-0.7-0.8-1c-0.3-0.3-0.5-0.7-0.8-1
				c-0.3-0.3-0.7-0.6-1-0.9c-0.3-0.3-0.4-0.8-0.7-1.1c-0.3-0.3-1.1-0.2-1.5-0.5c-0.4-0.3-0.7-0.5-1.1-0.8c-0.4-0.3-0.4-0.9-0.8-1.1
				c-0.4-0.3-0.9-0.4-1.3-0.6c-0.4-0.2-0.6-0.7-1-1c-0.4-0.2-1.1-0.1-1.5-0.4c-0.4-0.2-0.6-0.7-1-0.9c-0.4-0.2-1-0.2-1.4-0.4
				c-0.4-0.2-0.7-0.6-1.2-0.8c-0.4-0.2-0.9-0.4-1.3-0.6c-0.4-0.2-0.9-0.3-1.4-0.5c-0.5-0.2-0.9-0.2-1.4-0.4
				c-0.5-0.1-0.9-0.3-1.4-0.4c-0.5-0.1-0.9-0.4-1.4-0.5c-0.5-0.1-1.1,0.2-1.5,0.1c-0.5-0.1-1-0.1-1.4-0.1c-0.5-0.1-1-0.1-1.4-0.2
				c-0.5-0.1-0.9-0.2-1.4-0.3c-0.5,0-0.9-0.2-1.4-0.2c-0.5,0-0.9-0.5-1.4-0.5c-0.5,0-1,0.4-1.5,0.4c0,0,0-0.4,0-0.4
				c-0.5,0-1,0.1-1.5,0.2c-0.5,0-1,0.4-1.4,0.4c-0.5,0-1-0.5-1.5-0.4c-0.5,0-0.9,0.5-1.4,0.6c-0.5,0.1-1-0.1-1.5,0
				c-0.5,0.1-0.8,0.6-1.3,0.7c-0.5,0.1-1,0.1-1.4,0.2c-0.5,0.1-1.1-0.1-1.5,0c-0.5,0.1-0.9,0.3-1.4,0.4c-0.5,0.1-1,0.2-1.4,0.3
				c-0.5,0.2-0.9,0.3-1.3,0.5c-0.4,0.2-0.9,0.4-1.3,0.6c-0.4,0.2-0.8,0.5-1.2,0.7c-0.4,0.2-0.7,0.6-1.1,0.8
				c-0.4,0.2-0.8,0.5-1.2,0.7c-0.4,0.2-1,0.2-1.4,0.4c-0.4,0.2-0.8,0.5-1.2,0.7c-0.4,0.2-0.5,0.8-0.9,1c-0.4,0.3-1.2,0.1-1.6,0.4
				c-0.4,0.3-0.6,0.6-1,0.9c-0.4,0.3-0.4,0.8-0.7,1.1c-0.3,0.3-1.1,0.3-1.4,0.6c-0.3,0.3-0.6,0.7-0.9,1c-0.3,0.3-0.2,0.9-0.5,1.2
				c-0.3,0.3-0.6,0.7-0.8,1c-0.3,0.3-1,0.4-1.3,0.8c-0.3,0.3-0.1,0.9-0.3,1.3c-0.2,0.3-0.6,0.6-0.9,1c-0.2,0.4-0.5,0.7-0.7,1.1
				c-0.2,0.4-0.5,0.7-0.7,1.1c-0.2,0.4-0.4,0.7-0.6,1.1c-0.2,0.4-0.6,0.7-0.8,1.1c-0.2,0.4,0.3,0.9,0.1,1.3c-0.1,0.4-0.8,0.6-0.9,1
				c-0.1,0.4,0.1,0.9,0,1.3c-0.1,0.4-0.3,0.8-0.4,1.2c-0.1,0.4,0,0.8-0.1,1.2c-0.1,0.4-0.8,0.7-0.9,1.1c-0.1,0.4,0.3,0.8,0.3,1.3
				c0,0.4,0.3,0.8,0.3,1.2c0,0.4-0.3,0.8-0.3,1.2c0,0.6,0.3,0.6,0.3,1.2c0,0.6-0.6,0.6-0.6,1.2c0,0.6,0.6,0.6,0.5,1.2
				c0,0.6-0.7,0.6-0.7,1.2c0,0.6-0.1,0.6-0.1,1.2c0,0.6,0.3,0.6,0.3,1.2c0,0.6,0.4,0.6,0.3,1.2c0,0.6-0.1,0.6-0.1,1.2
				c0,0.6-0.2,0.6-0.2,1.2c0,0.6-0.6,0.6-0.6,1.2c0,0.6,0.1,0.6,0.1,1.2c0,0.6,0.2,0.6,0.2,1.2c0,0.6,0,0.6,0,1.2
				c0,0.6-0.3,0.6-0.3,1.2c0,0.6,0.7,0.6,0.7,1.2c0,0.6-0.1,0.6-0.1,1.2c0,0.6-0.2,0.6-0.2,1.2c0,0.6-0.5,0.6-0.5,1.2
				s0.3,0.6,0.3,1.2c0,0.6,0,0.6,0,1.2c0,0.6,0.3,0.6,0.3,1.2c0,0.6-0.2,0.6-0.2,1.2c0,0.6-0.3,0.6-0.4,1.2c0,0.6,0.5,0.6,0.5,1.2
				c0,0.6-0.4,0.6-0.5,1.2c0,0.6-0.1,0.6-0.2,1.2c0,0.6,0.1,0.6,0,1.2c0,0.6-0.2,0.6-0.2,1.2s0.4,0.6,0.4,1.2c0,0.6-0.5,0.6-0.5,1.2
				C623.9,1097.7,624.4,1097.7,624.4,1098.3z"/>
			<g>
				<path class="st20" d="M680.5,1050.2c-0.4-0.2-1.1-0.2-1.6-0.2s-1,0.2-1.4,0.5c-0.4,0.3-0.9,0.6-1.1,1c-0.2,0.4-0.2,0.9-0.2,1.5
					c0,0.5-0.3,1.2-0.1,1.7c0.3,0.4,1.1,0.3,1.6,0.6c0.4,0.2,0.7,0.9,1.3,0.9c0.5,0,1.2-0.1,1.6-0.3c0.4-0.3,0.7-0.9,0.9-1.3
					c0.2-0.4,0.4-0.9,0.4-1.5s0.1-1.2-0.1-1.6C681.4,1050.9,680.9,1050.4,680.5,1050.2z"/>
				<path class="st20" d="M650.1,1050.3c-0.4-0.2-1-0.6-1.5-0.6c-0.5,0-1,0.5-1.4,0.8c-0.4,0.3-0.5,0.8-0.8,1.2
					c-0.2,0.4-0.7,0.7-0.7,1.3c0,0.5-0.2,1.2,0.1,1.7c0.3,0.4,0.8,0.9,1.2,1.2c0.4,0.2,1.1-0.1,1.7-0.1s0.9-0.3,1.3-0.5
					c0.4-0.3,0.7-0.5,1-0.9c0.2-0.4,0.4-0.8,0.4-1.3s0.4-1.2,0.2-1.6C651.1,1050.9,650.5,1050.5,650.1,1050.3z"/>
			</g>
			<path class="st10" d="M682.9,1077.9c-0.9-1-2.6-1.5-4.3-1.6c-0.6,0-1.2,0-1.8,0.1c-0.2,0-0.7,0.1-0.7,0.2c-0.4,0-0.9,0.1-1.3,0.1
				c-0.2,0-1,0.2-0.3,0c0.6-0.1,0.2,0,0,0c-0.5,0-1,0.1-1.5,0.1c-0.2,0-0.4,0.1-0.6,0.1c-0.1,0-0.3,0-0.4,0c-0.3,0-0.6-0.1-0.9-0.1
				c0,0-0.1,0-0.1,0c-1.7-0.6-3.8-0.5-5.7-0.5c-1,0-2.1,0-3.1,0.2c-0.3,0.1-0.6,0.1-1,0.2c0,0-0.1,0-0.1,0c-0.7,0-1.4,0-2.1,0.1
				c-0.1,0-0.8,0-1.4,0.1c-0.2-0.1-0.5-0.2-0.7-0.2c-0.1,0-1-0.1-1.6-0.1c0,0,0,0,0,0c-0.1,0-0.3,0-0.4,0c-0.7-0.1-1.4-0.1-2.1-0.1
				c-0.1,0-0.5,0-0.7,0c0.3,0,0.8,0.1,0.2,0c-0.1,0-0.2,0-0.3,0c0,0,0,0,0,0c0,0,0,0,0,0c-0.4,0-0.9-0.1-1.3-0.1c-1-0.1-2,0.1-3,0.3
				c-0.2,0-0.4,0.1-0.6,0.2c-0.2,0-0.3,0.1-0.5,0.1c-2.8,0.9-3.1,3.2-1.4,4.7c0,0,0.1,0.1,0.2,0.1c0.1,0.2,0.2,0.3,0.3,0.5
				c0.2,0.3,0.6,0.6,0.9,0.8c0,0.2,0.1,0.3,0.1,0.4c0.3,0.7,0.9,1.4,1.5,2c0.4,0.4,0.8,0.8,1.3,1.2c0,0,0.1,0.1,0.2,0.2
				c0.1,0.2,0.2,0.3,0.3,0.5c0.3,0.5,0.6,0.9,1.2,1.2c0.4,0.3,0.9,0.5,1.4,0.7c0.3,0.1,0.7,0.2,1.1,0.3c0.1,0.1,0.3,0.2,0.4,0.3
				c0.5,0.3,1,0.6,1.5,0.8c0,0,0,0,0,0c0.3,0.1,0.5,0.3,0.8,0.4c0.5,0.2,1.2,0.4,1.8,0.6c0.6,0.1,1.3,0.2,2,0.1c0.2,0,0.3,0,0.5,0
				c0.2,0,0.3,0.1,0.5,0.1c0.8,0.2,1.6,0.3,2.4,0.3c2,0.1,3.9-0.2,5.8-0.7c1.3-0.3,2.4-0.6,3.4-1.2c0.3-0.2,0.5-0.3,0.8-0.5
				c0,0,0,0,0.1-0.1c0.1-0.1,0.2-0.1,0.3-0.2c0.5-0.3,1.1-0.5,1.6-0.8c0,0,0.1,0,0.1,0c0,0,0.1,0,0.2-0.1c1.3-0.6,2.4-1.3,2.9-2.3
				c0.1-0.1,0.1-0.2,0.2-0.4c0.4-0.2,0.6-0.3,0.6-0.3c0.4-0.3,0.8-0.6,1.1-1c0.3-0.4,0.5-0.8,0.6-1.2c0-0.2,0.3-0.7,0.1-0.4
				c0.2-0.3,0.4-0.6,0.6-0.9c0.1-0.1,0.2-0.2,0.3-0.2c0.4-0.2,0.7-0.5,1-0.8C683.6,1080,683.7,1078.8,682.9,1077.9z"/>
			<path class="st10" d="M644.5,1073.5c0.9,1,2.6,1.5,4.3,1.6c0.6,0,1.2,0,1.8-0.1c0.2,0,0.7-0.1,0.7-0.2c0.4,0,0.9-0.1,1.3-0.1
				c0.2,0,1-0.2,0.3,0c-0.6,0.1-0.2,0,0,0c0.5,0,1-0.1,1.5-0.1c0.2,0,0.4-0.1,0.6-0.1c0.1,0,0.3,0,0.4,0c0.3,0,0.6,0.1,0.9,0.1
				c0,0,0.1,0,0.1,0c1.7,0.6,3.8,0.5,5.7,0.5c1,0,2.1,0,3.1-0.2c0.3-0.1,0.6-0.1,1-0.2c0,0,0.1,0,0.1,0c0.7,0,1.4,0,2.1-0.1
				c0.1,0,0.8,0,1.4-0.1c0.2,0.1,0.5,0.2,0.7,0.2c0.1,0,1,0.1,1.6,0.1c0,0,0,0,0,0c0.1,0,0.3,0,0.4,0c0.7,0.1,1.4,0.1,2.1,0.1
				c0.1,0,0.5,0,0.7,0c-0.3,0-0.8-0.1-0.2,0c0.1,0,0.2,0,0.3,0c0,0,0,0,0,0c0,0,0,0,0,0c0.4,0,0.9,0.1,1.3,0.1c1,0.1,2-0.1,3-0.3
				c0.2,0,0.4-0.1,0.6-0.2c0.2,0,0.3-0.1,0.5-0.1c2.8-0.9,3.1-3.2,1.4-4.7c0,0-0.1-0.1-0.2-0.1c-0.1-0.2-0.2-0.3-0.3-0.5
				c-0.2-0.3-0.6-0.6-0.9-0.8c0-0.2-0.1-0.3-0.1-0.4c-0.3-0.7-0.9-1.4-1.5-2c-0.4-0.4-0.8-0.8-1.3-1.2c0,0-0.1-0.1-0.2-0.2
				c-0.1-0.2-0.2-0.3-0.3-0.5c-0.3-0.5-0.6-0.9-1.2-1.2c-0.4-0.3-0.9-0.5-1.4-0.7c-0.3-0.1-0.7-0.2-1.1-0.3
				c-0.1-0.1-0.3-0.2-0.4-0.3c-0.5-0.3-1-0.6-1.5-0.8c0,0,0,0,0,0c-0.3-0.1-0.5-0.3-0.8-0.4c-0.5-0.2-1.2-0.4-1.8-0.6
				c-0.6-0.1-1.3-0.2-2-0.1c-0.2,0-0.3,0-0.5,0c-0.2,0-0.3-0.1-0.5-0.1c-0.8-0.2-1.6-0.3-2.4-0.3c-2-0.1-3.9,0.2-5.8,0.7
				c-1.3,0.3-2.4,0.6-3.4,1.2c-0.3,0.2-0.5,0.3-0.8,0.5c0,0,0,0-0.1,0.1c-0.1,0.1-0.2,0.1-0.3,0.2c-0.5,0.3-1.1,0.5-1.6,0.8
				c0,0-0.1,0-0.1,0c0,0-0.1,0-0.2,0.1c-1.3,0.6-2.4,1.3-2.9,2.3c-0.1,0.1-0.1,0.2-0.2,0.4c-0.4,0.2-0.6,0.3-0.6,0.3
				c-0.4,0.3-0.8,0.6-1.1,1c-0.3,0.4-0.5,0.8-0.6,1.2c0,0.2-0.3,0.7-0.1,0.4c-0.2,0.3-0.4,0.6-0.6,0.9c-0.1,0.1-0.2,0.2-0.3,0.2
				c-0.4,0.2-0.7,0.5-1,0.8C643.8,1071.3,643.6,1072.5,644.5,1073.5z"/>
		</g>
	</g>
</g>
</svg>
