<?xml version="1.0" encoding="utf-8"?>
<!-- Generator: Adobe Illustrator 24.1.3, SVG Export Plug-In . SVG Version: 6.00 Build 0)  -->
<svg version="1.1" id="レイヤー_1" xmlns="http://www.w3.org/2000/svg" xmlns:xlink="http://www.w3.org/1999/xlink" x="0px"
	 y="0px" viewBox="0 0 1440 1440" style="enable-background:new 0 0 1440 1440;" xml:space="preserve">
<style type="text/css">
	.st0{fill:#FFFFFF;}
	.st1{opacity:0.3;}
	.st2{fill:#B2E2F8;}
	.st3{fill:#FF7A44;}
	.st4{fill:#00A0E9;}
	.st5{clip-path:url(#SVGID_2_);fill:#FFFFFF;}
	.st6{clip-path:url(#SVGID_2_);}
	.st7{fill:#CBDDF2;}
	.st8{fill:#C0D7EF;}
	.st9{fill:#D8E5F5;}
	.st10{fill:#B5D1ED;}
	.st11{fill:#8AB9E3;}
	.st12{clip-path:url(#SVGID_4_);fill:#FFFFFF;}
	.st13{clip-path:url(#SVGID_4_);}
	.st14{fill:#9DC3E7;}
	.st15{clip-path:url(#SVGID_6_);fill:#FFFFFF;}
	.st16{clip-path:url(#SVGID_6_);}
	.st17{fill:#E9F0F9;}
	.st18{clip-path:url(#SVGID_8_);fill:#FFFFFF;}
	.st19{clip-path:url(#SVGID_8_);}
	.st20{fill:#505050;}
	.st21{fill:#FFAF9B;}
	.st22{fill:#FFCFBA;}
	.st23{fill:#F76E57;}
	.st24{clip-path:url(#SVGID_10_);fill:none;}
	.st25{clip-path:url(#SVGID_10_);}
	.st26{fill:#47C9DE;}
	.st27{clip-path:url(#SVGID_12_);fill:none;}
	.st28{clip-path:url(#SVGID_12_);}
	.st29{fill:#FFDA65;}
	.st30{clip-path:url(#SVGID_14_);fill:#FFFFFF;}
	.st31{clip-path:url(#SVGID_14_);}
	.st32{clip-path:url(#SVGID_16_);fill:none;}
	.st33{clip-path:url(#SVGID_16_);}
	.st34{clip-path:url(#SVGID_18_);fill:none;}
	.st35{clip-path:url(#SVGID_18_);}
	.st36{clip-path:url(#SVGID_20_);}
	.st37{clip-path:url(#SVGID_22_);}
	.st38{clip-path:url(#SVGID_24_);}
	.st39{clip-path:url(#SVGID_26_);fill:#FFFFFF;}
	.st40{clip-path:url(#SVGID_26_);fill:#505050;}
	.st41{clip-path:url(#SVGID_26_);fill:#9DC3E7;}
	.st42{clip-path:url(#SVGID_26_);fill:#FFAF9B;}
	.st43{clip-path:url(#SVGID_26_);fill:#FFCFBA;}
	.st44{clip-path:url(#SVGID_26_);}
	.st45{clip-path:url(#SVGID_28_);fill:none;}
	.st46{clip-path:url(#SVGID_28_);}
	.st47{clip-path:url(#SVGID_30_);fill:none;}
	.st48{clip-path:url(#SVGID_30_);}
	.st49{clip-path:url(#SVGID_32_);fill:none;}
	.st50{clip-path:url(#SVGID_32_);}
	.st51{clip-path:url(#SVGID_34_);fill:#FFCFBA;}
	.st52{clip-path:url(#SVGID_34_);fill:#505050;}
	.st53{clip-path:url(#SVGID_34_);fill:#B2E2F8;}
	.st54{clip-path:url(#SVGID_36_);fill:#FFFFFF;}
	.st55{clip-path:url(#SVGID_36_);fill:#505050;}
	.st56{clip-path:url(#SVGID_36_);fill:#9DC3E7;}
	.st57{clip-path:url(#SVGID_36_);fill:#FFAF9B;}
	.st58{clip-path:url(#SVGID_36_);fill:#FFCFBA;}
	.st59{clip-path:url(#SVGID_36_);}
	.st60{clip-path:url(#SVGID_38_);fill:#FFCFBA;}
	.st61{clip-path:url(#SVGID_38_);fill:#505050;}
	.st62{clip-path:url(#SVGID_38_);fill:#B2E2F8;}
	.st63{clip-path:url(#SVGID_40_);fill:none;}
	.st64{clip-path:url(#SVGID_40_);}
	.st65{clip-path:url(#SVGID_42_);fill:#FFCFBA;}
	.st66{clip-path:url(#SVGID_42_);fill:#505050;}
	.st67{clip-path:url(#SVGID_42_);fill:#B2E2F8;}
</style>
<g>
	<g>
		<path class="st2" d="M884.2,1021.2c-4.7-3.1-6.4-7.3-6.3-13.3c0.4-17.6,0.2-35.2,0.2-52.8c-0.4-7-1.4-7.9-8.1-7.9
			c-6.2,0-12.3,0-18.5,0c-5.1,0-6.5,1.5-6.5,6.9c0,8.2-0.1,16.4,0,24.7c0,2.1-0.4,3.2-2.7,3c-3.6-0.2-7.2-0.2-10.8-0.2
			c-5.9,1.7-6.6,1.2-6.6-5c0-2.9,0-5.8,0-8.6c-0.1-6.6-1.3-7.8-7.7-7.8c-8.7,0-17.4,0-26.2,0c-6.2,0-7.5,1.3-7.5,7.7
			c0,33.7,0,67.3,0.1,101c0,3.2-0.8,5.4-3,7.7c-20.4,20.9-40.7,41.9-61,63c-2,2.1-3.9,2.9-6.7,2.9c-49.8-0.1-108.1-0.1-157.9-0.1
			c-6.3,0-7.6,1.4-7.6,8c0,12.3,0,24.7,0,37c0,7.1,0.2,7.3,6.7,9.4c1-1.2,2.3-1,3.6-1c27.4,0,63.5,0,90.9-0.1c2.8,0,4.1,0.7,3.7,3.7
			c-0.2,1.6-0.1,3.2-0.2,4.8c0,24.4,0,48.9,0,73.3c0,6.3,0.6,7,6.4,8.1c1.4-0.9,3-0.7,4.5-0.7c13.3,0,26.7-0.1,40,0.1
			c3.4,0,5-1.4,6.2-4.5c3.5-8.8,7.3-17.5,10.9-26.3c1.1-2.7,2.6-3.6,5.5-3.6c30.5,0.1,61.1,0,91.6,0.1c3.5,0,5.8-1.1,8.1-4
			c5.4-6.7,11.3-13,17-19.4c4.3-4.9,8.7-9.7,13.8-15.4c0,6.2,0,11.3,0,16.5c-0.7,4.9-0.2,9.7-0.2,14.6c0,5.6,1.1,6.7,6.4,6.9
			c9.8,0,19.5,0,29.3-0.1c5.1,0,6.3-1.2,6.3-6.6c0-66.5,0-133.1,0-199.6c0-1.9,0.1-3.7,0.1-5.6c-0.2-2-1.7-3.2-2.9-4.5
			C891.7,1029.1,887.4,1025.7,884.2,1021.2z"/>
	</g>
	<g>
		<path class="st2" d="M948.2,803.8c-49.3,0-81,0-130.3,0c-7.1,0-7.9,0.9-7.9,8.3c0,30.1,0,36.8,0.1,66.9c0,3.1-0.7,4.2-3.8,4
			c-5.1-0.3-10.3-0.1-15.4-0.1c-4.8,0-6.4,1.7-6.4,6.7c0,13.1,0,26.3,0,39.4c0,5,1.5,6.4,6.5,6.7c12.7,0,25.4-0.1,38.1-0.1
			c5.4,0,6.8-1.5,6.8-7.1c0-4.6,0-9.3,0-13.9c0-5.2,0-5.2,4.9-5.2c25.4,0,50.8,0,76.2,0c16.6,0,15.6,0,32.2,0c5.6,0,7-1.5,7-7.2
			c0-37.9,0-52.5,0.1-90.4C956,804.7,955,803.8,948.2,803.8z"/>
	</g>
	<g>
		<path class="st2" d="M514.9,1142.8c-22.2,0-44.3,0-66.5,0c-5.5,0-6.8,1.3-6.8,6.9c0,21.2,0,42.3,0,63.5c0,5.3,1.3,6.7,6.5,7
			c0.6,0,1.3-0.1,1.9-0.1c9,0.2,7.5-1.5,7.6,7.9c0,13.6,0.1,27.2,0.1,40.7c0,6.7,0.5,7.3,6.7,8.6c6.1-1.8,12.3-0.6,18.5-0.6
			c1.8,0,1.6,2.1,1.6,3.5c0,1.6,0.3,3.2-0.6,4.6c0.1,3.5,0.1,7.1,0.2,10.6c0,5.6,1.1,6.9,6.5,7.4c8,0,15.9,0,23.9-0.1
			c5.6,0,7-1.5,7-7.3c0-48.5,0-97,0.1-145.5C521.7,1143.9,520.7,1142.8,514.9,1142.8z"/>
	</g>
	<g>
		<path class="st2" d="M619,1213.6c-23.2,0-46.5,0-69.7,0c-4.4,0-6,1.7-6,6.3c-0.1,13.5,0,27.1,0,40.6c0,4.8,1.5,6.2,6.3,6.5
			c22.7,0,45.4,0,68.1,0c5.9,0,7.2-1.4,7.3-7.4c0-12.7,0.1-25.4,0.1-38.1C624.8,1214.9,623.9,1213.6,619,1213.6z"/>
	</g>
	<g>
		<path class="st2" d="M427.5,1302.7c-3.6,0-7.2,0-10.8,0c-4.5,0-6,1.5-6.1,6.1c0,10.1,0,20.1,0,30.2c0,4.4,1.6,5.9,6.1,6.1
			c4,0,7.9,0,11.9-0.1c4.2,0,5.8-1.6,5.8-6c0.1-9.6,0-19.3,0-28.9C434.5,1303.6,433.6,1302.7,427.5,1302.7z"/>
	</g>
	<g>
		<path class="st2" d="M708.4,1092.5c-3.2,0-6.4-0.1-9.6,0c-4.1,0.2-5.8,1.9-5.8,6.1c-0.1,3.8,0,7.7,0,11.5c0,5.3,1.2,6.5,6.3,6.7
			c3.8,0,7.7,0,11.5,0c4-0.1,5.4-1.5,5.5-5.8c0.1-3.6,0.1-7.1,0.2-10.7C716.2,1093.5,715.2,1092.5,708.4,1092.5z"/>
	</g>
</g>
</svg>
