<?xml version="1.0" encoding="utf-8"?>
<!-- Generator: Adobe Illustrator 24.1.3, SVG Export Plug-In . SVG Version: 6.00 Build 0)  -->
<svg version="1.1" id="レイヤー_1" xmlns="http://www.w3.org/2000/svg" xmlns:xlink="http://www.w3.org/1999/xlink" x="0px"
	 y="0px" viewBox="0 0 1440 1440" style="enable-background:new 0 0 1440 1440;" xml:space="preserve">
<style type="text/css">
	.st0{fill:#B2E2F8;}
	.st1{fill:#FFFFFF;stroke:#FFFFFF;stroke-miterlimit:10;}
	.st2{clip-path:url(#SVGID_2_);fill:#FFFFFF;}
	.st3{clip-path:url(#SVGID_2_);}
	.st4{fill:#505050;}
	.st5{fill:#9DC3E7;}
	.st6{fill:#FFFFFF;}
	.st7{fill:#FFAF9B;}
	.st8{fill:#FFCFBA;}
	.st9{fill:#B5D1ED;}
	.st10{fill:#F76E57;}
	.st11{fill:#00A0E9;}
	.st12{clip-path:url(#SVGID_4_);fill:#FFFFFF;}
	.st13{clip-path:url(#SVGID_4_);}
	.st14{fill:none;stroke:#B2E2F8;stroke-width:2;stroke-miterlimit:10;}
	.st15{clip-path:url(#SVGID_6_);}
	.st16{clip-path:url(#SVGID_8_);}
	.st17{fill:#F3BF9B;}
	.st18{fill:#D8E5F5;}
	.st19{fill:#FDE2A4;}
	.st20{fill:#231815;}
	.st21{fill:#C0D7EF;}
	.st22{clip-path:url(#SVGID_10_);}
</style>
<g>
	<path class="st6" d="M1419.9,1240.2c0,3.1-2.6,5.7-5.7,5.7h-396.6c-3.1,0-5.7-2.6-5.7-5.7V959.6c0-3.1,2.6-5.7,5.7-5.7h396.6
		c3.1,0,5.7,2.6,5.7,5.7V1240.2z"/>
</g>
<g>
	<g>
		<path class="st21" d="M1078,1153.6c-0.4,0.4-0.6,0.5-0.8,0.8c-0.2,0.3,0.3-0.1,0.3,0c0.1,0.1,0.1,0.1,0.2,0.2c0.1,0.1,0,0.2,0,0.3
			c0.1,0.1,0.3-0.1,0.4,0s-0.2,0.4-0.1,0.5s0.4-0.2,0.5-0.1c0.1,0.1,0,0.2,0.1,0.3c0.1,0.1,0,0.1,0.1,0.2c0.1,0.1,0.2,0,0.3,0
			c0.1,0.1-0.1,0.3,0,0.3c0.1,0.1,0.3-0.1,0.3,0c0.1,0.1-0.2,0.4-0.1,0.5c0.1,0.1,0.2-0.1,0.3,0c0.1,0.1,0.2,0,0.2,0.1
			c0.1,0.1-0.1,0.3,0,0.3s0.2,0,0.3,0.1c0.1,0.1,0.1,0,0.2,0.1c0.1,0.1,0.2,0,0.3,0.1c0.1,0.1,0,0.2,0.1,0.2c0.1,0.1,0.1,0,0.2,0.1
			c0.1,0.1,0,0.2,0.1,0.2c0.1,0.1,0.2-0.1,0.3,0s-0.3,0.4-0.2,0.5s0.1,0,0.2,0.1c0.1,0.1,0.2,0,0.2,0.1c0.1,0.1,0.1,0.1,0.2,0.2
			c0.1,0.1,0.3-0.1,0.4,0c0.1,0.1-0.3,0.4-0.2,0.5c0.1,0.1,0.3-0.2,0.4-0.1s-0.2,0.3-0.1,0.4c0.1,0.1,0.3-0.1,0.4,0
			c0.1,0.1-0.2,0.3-0.1,0.4c0.1,0.1,0.4-0.2,0.5-0.2c0.1,0.1,0.1,0.1,0.2,0.2c0.1,0.1,0,0.2,0,0.3c0.1,0.1-0.1,0.3,0,0.4
			c0.1,0.1,0.1,0,0.2,0.1s0.2-0.1,0.3,0c0.1,0.1,0.2-0.1,0.3,0c0.1,0.1,0.1,0.1,0.2,0.2c0.1,0.1-0.3,0.5,0,0.3
			c0.3-0.2,0.4-0.4,0.8-0.8c0.4-0.4,0.4-0.4,0.7-0.8c0.4-0.4,0.4-0.4,0.8-0.7c0.4-0.4,0.4-0.4,0.8-0.8c0.4-0.4,0.3-0.4,0.7-0.8
			c0.4-0.4,0.4-0.4,0.8-0.8c0.4-0.4,0.4-0.3,0.8-0.7c0.4-0.4,0.4-0.4,0.8-0.7c0.4-0.4,0.3-0.5,0.7-0.8c0.4-0.4,0.4-0.3,0.8-0.7
			c0.4-0.4,0.4-0.4,0.7-0.8c0.4-0.4,0.4-0.3,0.8-0.7c0.4-0.4,0.4-0.4,0.7-0.8c0.4-0.4,0.4-0.4,0.8-0.8c0.4-0.4,0.4-0.4,0.7-0.8
			c0.4-0.4,0.4-0.4,0.8-0.7c0.4-0.4,0.4-0.4,0.8-0.8c0.4-0.4,0.3-0.4,0.7-0.8c0.4-0.4,0.4-0.4,0.8-0.8c0.4-0.4,0.4-0.3,0.8-0.7
			c0.4-0.4,0.4-0.4,0.8-0.7c0.4-0.4,0.4-0.4,0.8-0.8c0.4-0.4,0.3-0.5,0.7-0.8c0.4-0.4,0.4-0.4,0.8-0.7s0.4-0.3,0.8-0.7
			c0.4-0.4,0.4-0.3,0.8-0.7c0.4-0.4,0.3-0.4,0.7-0.8c0.4-0.4,0.4-0.4,0.8-0.8s0.7-0.5,0.9-0.8c0.2-0.3-0.4,0.2-0.5,0.1
			c-0.1-0.1,0.1-0.3,0-0.3s-0.2,0.1-0.3,0s0.2-0.3,0.1-0.4s-0.3,0.2-0.4,0.1c-0.1-0.1,0.1-0.2,0-0.3c-0.1-0.1-0.1,0-0.2-0.1
			c-0.1-0.1,0.1-0.3,0-0.4c-0.1-0.1-0.2,0-0.3,0c-0.1-0.1,0.1-0.3,0-0.4c-0.1-0.1-0.5,0.3-0.5,0.2c-0.1-0.1,0.2-0.4,0.2-0.5
			s0-0.2-0.1-0.2c-0.1-0.1-0.3,0.2-0.4,0.1s-0.2,0-0.2-0.1c-0.1-0.1-0.1-0.1-0.2-0.2s0-0.2-0.1-0.3s-0.1-0.1-0.2-0.1
			c-0.1-0.1,0.2-0.3,0.1-0.4c-0.1-0.1-0.1-0.1-0.2-0.2c-0.1-0.1-0.4,0.2-0.5,0.1c-0.1-0.1,0-0.1-0.1-0.2c-0.1-0.1,0-0.1-0.1-0.2
			s-0.1-0.1-0.2-0.1c-0.1-0.1,0.2-0.3,0.1-0.4c-0.1-0.1-0.3,0.1-0.4,0s-0.1-0.1-0.2-0.2c-0.1-0.1,0-0.2-0.1-0.2
			c-0.1-0.1-0.2,0-0.3-0.1c-0.1-0.1,0.1-0.2,0-0.3c-0.1-0.1-0.1,0-0.2-0.1c-0.1-0.1,0-0.2-0.1-0.3c-0.1-0.1-0.1-0.1-0.2-0.1
			c-0.1-0.1-0.3,0.1-0.4,0c-0.1-0.1,0.1-0.3,0-0.4c-0.1-0.1-0.2,0.1-0.3,0s0.2-0.4,0.1-0.5s-0.3,0.2-0.4,0.1c-0.1-0.1,0.1-0.3,0-0.4
			c-0.1-0.1-0.3,0.2-0.4,0.1c-0.1-0.1,0.3-0.6,0-0.3c-0.3,0.2-0.4,0.4-0.8,0.9c-0.3,0.4-0.4,0.4-0.8,0.8c-0.4,0.4-0.4,0.4-0.8,0.7
			c-0.4,0.4-0.3,0.5-0.7,0.8s-0.4,0.3-0.8,0.7c-0.4,0.4-0.3,0.4-0.7,0.8c-0.4,0.4-0.4,0.4-0.8,0.8c-0.4,0.4-0.4,0.4-0.8,0.7
			c-0.4,0.4-0.4,0.4-0.8,0.8c-0.4,0.4-0.4,0.4-0.8,0.8c-0.4,0.4-0.4,0.3-0.8,0.7c-0.4,0.4-0.3,0.4-0.7,0.8c-0.4,0.4-0.4,0.4-0.8,0.8
			c-0.4,0.4-0.4,0.3-0.8,0.7c-0.4,0.4-0.3,0.4-0.7,0.8c-0.4,0.4-0.4,0.3-0.8,0.7c-0.4,0.4-0.4,0.4-0.7,0.8c-0.4,0.4-0.4,0.3-0.8,0.7
			s-0.3,0.4-0.7,0.8c-0.4,0.4-0.5,0.3-0.8,0.7c-0.4,0.4-0.3,0.4-0.7,0.8c-0.4,0.4-0.4,0.3-0.8,0.7c-0.4,0.4-0.3,0.4-0.7,0.8
			s-0.4,0.4-0.8,0.7c-0.4,0.4-0.4,0.4-0.7,0.8c-0.4,0.4-0.4,0.4-0.7,0.8c-0.4,0.4-0.4,0.4-0.8,0.7
			C1078.4,1153.3,1078.4,1153.3,1078,1153.6z"/>
		<circle class="st18" cx="1075.4" cy="1163.2" r="15"/>
	</g>
	<g>
		<path class="st21" d="M1195.2,1141.8c0.5,0,0.8,0,1.1-0.1c0.4-0.1-0.2-0.1-0.2-0.2c0-0.1,0-0.1,0-0.2c0-0.1,0.2-0.1,0.2-0.2
			s-0.3-0.1-0.3-0.2c0-0.1,0.4-0.1,0.4-0.2c0-0.1-0.4-0.1-0.4-0.2c0-0.1,0.2-0.1,0.2-0.2c0-0.1,0.1-0.1,0.1-0.2
			c0-0.1-0.2-0.1-0.2-0.2c0-0.1,0.2-0.1,0.2-0.2c0-0.1-0.2-0.1-0.2-0.2c0-0.1,0.4-0.1,0.4-0.2s-0.2-0.1-0.2-0.2
			c0-0.1-0.1-0.1-0.1-0.2s0.3-0.1,0.3-0.2c0-0.1-0.1-0.1-0.1-0.2c0-0.1-0.1-0.1-0.1-0.2s-0.1-0.1-0.1-0.2c0-0.1,0.1-0.1,0.1-0.2
			s-0.1-0.1-0.1-0.2s0.1-0.1,0.1-0.2c0-0.1-0.2-0.1-0.2-0.2c0-0.1,0.5-0.1,0.5-0.2c0-0.1-0.1-0.1-0.1-0.2c0-0.1-0.1-0.1-0.1-0.2
			c0-0.1,0-0.1,0-0.2c0-0.1-0.3-0.1-0.3-0.2c0-0.1,0.5-0.1,0.5-0.2c0-0.1-0.4-0.1-0.4-0.2c0-0.1,0.4-0.1,0.4-0.2
			c0-0.1-0.3-0.1-0.3-0.2c0-0.1,0.3-0.1,0.3-0.2s-0.5-0.1-0.5-0.2c0-0.1,0-0.1,0-0.2c0-0.1,0.2-0.1,0.2-0.2c0-0.1,0.3-0.1,0.3-0.2
			c0-0.1-0.1-0.1-0.1-0.2s-0.2-0.1-0.2-0.2s-0.2-0.1-0.2-0.2s0-0.1,0-0.2c0-0.1,0.6-0.2,0.2-0.2c-0.4-0.1-0.6,0-1.1,0
			c-0.5,0-0.5,0-1.1,0.1c-0.5,0-0.5,0-1.1,0c-0.5,0-0.5,0-1.1,0c-0.5,0-0.5,0.1-1.1,0.1c-0.5,0-0.5,0-1.1,0c-0.5,0-0.5,0-1.1,0
			c-0.5,0-0.5,0-1.1,0c-0.5,0-0.5,0.1-1.1,0.1c-0.5,0-0.5,0-1.1,0c-0.5,0-0.5,0.1-1.1,0.1c-0.5,0-0.5-0.1-1.1-0.1
			c-0.5,0-0.5,0-1.1,0.1c-0.5,0-0.5,0-1.1,0c-0.5,0-0.5,0-1.1,0.1c-0.5,0-0.5,0-1.1,0c-0.5,0-0.5,0-1.1,0c-0.5,0-0.5,0.1-1.1,0.1
			c-0.5,0-0.5,0-1.1,0c-0.5,0-0.5-0.1-1.1,0c-0.5,0-0.5,0-1.1,0c-0.5,0-0.5,0-1.1,0c-0.5,0-0.5,0.1-1.1,0.1c-0.5,0-0.5,0-1.1,0
			c-0.5,0-0.5,0-1.1,0c-0.5,0-0.5,0-1.1,0c-0.5,0-0.5,0.1-1.1,0.1c-0.5,0-0.5,0-1.1,0c-0.5,0-0.9-0.1-1.3,0
			c-0.4,0.1,0.5,0.1,0.5,0.3c0,0.1-0.2,0.1-0.2,0.2c0,0.1,0.2,0.1,0.2,0.2c0,0.1-0.4,0.1-0.4,0.2c0,0.1,0.4,0.1,0.4,0.2
			c0,0.1-0.2,0.1-0.2,0.2c0,0.1,0.1,0.1,0.1,0.2c0,0.1-0.3,0.1-0.3,0.2c0,0.1,0.2,0.1,0.2,0.2c0,0.1-0.3,0.1-0.3,0.2
			c0,0.1,0.5,0.1,0.5,0.2c0,0.1-0.5,0.1-0.4,0.2c0,0.1-0.1,0.1-0.1,0.2c0,0.1,0.4,0.1,0.4,0.2c0,0.1,0.1,0.1,0.1,0.2s0,0.1,0,0.2
			c0,0.1-0.2,0.1-0.2,0.2c0,0.1,0,0.1,0,0.2c0,0.1-0.3,0.1-0.3,0.2c0,0.1,0,0.1,0,0.2c0,0.1,0.4,0.1,0.5,0.2c0,0.1,0,0.1,0,0.2
			s-0.1,0.1-0.1,0.2c0,0.1,0,0.1,0,0.2s-0.4,0.1-0.4,0.2s0.3,0.1,0.3,0.2c0,0.1,0,0.1,0,0.2s-0.1,0.1-0.1,0.2c0,0.1,0.1,0.1,0.1,0.2
			c0,0.1-0.2,0.1-0.2,0.2c0,0.1,0.1,0.1,0.1,0.2c0,0.1-0.2,0.1-0.1,0.2c0,0.1,0,0.1,0,0.2s0.3,0.1,0.3,0.2c0,0.1-0.3,0.1-0.3,0.2
			s0.2,0.1,0.2,0.2s-0.4,0.1-0.4,0.2c0,0.1,0.3,0.1,0.3,0.2s-0.3,0.1-0.3,0.2c0,0.1,0.3,0.1,0.3,0.2s-0.6,0.2-0.2,0.3
			c0.4,0.1,0.6,0,1.2-0.1c0.5,0,0.6,0,1.1,0c0.5,0,0.5,0,1.1,0c0.5,0,0.5-0.1,1.1-0.1c0.5,0,0.5,0.1,1.1,0c0.5,0,0.5-0.1,1.1-0.1
			c0.5,0,0.5,0,1.1,0c0.5,0,0.5,0,1.1,0c0.5,0,0.5,0,1.1,0c0.5,0,0.5,0,1.1,0c0.5,0,0.5,0.1,1.1,0.1c0.5,0,0.5-0.1,1.1-0.1
			c0.5,0,0.5,0,1.1,0c0.5,0,0.5,0,1.1,0c0.5,0,0.5-0.1,1.1-0.1c0.5,0,0.5,0,1.1,0c0.5,0,0.5,0,1.1-0.1c0.5,0,0.5,0,1.1,0
			c0.5,0,0.5-0.1,1.1-0.1c0.5,0,0.5,0.1,1.1,0.1c0.5,0,0.5-0.1,1.1-0.1c0.5,0,0.5,0.1,1.1,0c0.5,0,0.5-0.1,1.1-0.1
			c0.5,0,0.5,0,1.1,0c0.5,0,0.5,0,1.1,0c0.5,0,0.5,0,1.1-0.1c0.5,0,0.5,0,1.1,0C1194.6,1141.8,1194.6,1141.8,1195.2,1141.8z"/>
		<circle class="st18" cx="1203.7" cy="1137.3" r="15"/>
	</g>
	<g>
		<path class="st21" d="M1142.4,1011.5c0-0.4,0.1-0.5-0.1-0.8c-0.1-0.3-0.2,0.2-0.4,0.2c-0.2,0-0.2,0-0.4,0c-0.2,0-0.2-0.1-0.4-0.1
			s-0.2,0.2-0.4,0.2c-0.2,0-0.2-0.3-0.4-0.3c-0.2,0-0.2,0.3-0.4,0.3c-0.2,0-0.2-0.1-0.4-0.1c-0.2,0-0.2,0-0.4,0s-0.2,0.1-0.4,0.1
			c-0.2,0-0.2-0.2-0.4-0.2c-0.2,0-0.2,0.2-0.4,0.2c-0.2,0-0.2-0.3-0.4-0.3c-0.2,0-0.2,0.1-0.4,0.1c-0.2,0-0.2,0.1-0.4,0.1
			c-0.2,0-0.2-0.2-0.4-0.2c-0.2,0-0.2,0.1-0.4,0.1c-0.2,0-0.2,0.1-0.4,0.1c-0.2,0-0.2,0.1-0.4,0.1c-0.2,0-0.2-0.1-0.4-0.1
			c-0.2,0-0.2,0-0.4,0c-0.2,0-0.2-0.1-0.4-0.1c-0.2,0-0.2,0.2-0.4,0.2s-0.2-0.3-0.4-0.3s-0.2,0.1-0.4,0.1c-0.2,0-0.2,0.1-0.4,0.1
			c-0.2,0-0.2,0-0.4,0s-0.2,0.2-0.4,0.2s-0.2-0.3-0.4-0.3s-0.2,0.2-0.4,0.2c-0.2,0-0.2-0.2-0.4-0.2c-0.2,0-0.2,0.2-0.4,0.2
			s-0.2-0.2-0.4-0.2c-0.2,0-0.2,0.3-0.4,0.3c-0.2,0-0.2,0-0.4,0c-0.2,0-0.2-0.1-0.4-0.1c-0.2,0-0.2-0.2-0.4-0.2
			c-0.2,0-0.2,0.1-0.4,0.1s-0.2,0.1-0.4,0.1s-0.2,0.1-0.4,0.1s-0.2,0-0.4,0c-0.2,0-0.2-0.4-0.4-0.2c-0.1,0.3-0.1,0.4-0.1,0.8
			s0,0.4,0,0.7c0,0.4-0.1,0.4-0.1,0.7c0,0.4,0,0.4,0,0.7c0,0.4,0.1,0.4,0.1,0.7c0,0.4,0,0.4,0,0.7c0,0.4-0.1,0.4-0.1,0.7
			c0,0.4,0,0.4,0,0.7c0,0.4,0.2,0.4,0.2,0.7c0,0.4-0.1,0.4-0.1,0.7c0,0.4,0.1,0.4,0.1,0.7c0,0.4-0.1,0.4-0.1,0.7
			c0,0.4,0.1,0.4,0.1,0.7c0,0.4,0,0.4,0,0.7c0,0.4,0,0.4,0,0.7c0,0.4,0,0.4,0,0.7c0,0.4,0,0.4,0,0.7c0,0.4,0.1,0.4,0.1,0.7
			c0,0.4,0,0.4,0,0.7c0,0.4-0.1,0.4-0.1,0.7c0,0.4,0,0.4,0,0.7c0,0.4,0,0.4,0,0.7c0,0.4,0.2,0.4,0.2,0.7c0,0.4,0,0.4,0,0.7
			c0,0.4-0.1,0.4-0.1,0.7c0,0.4-0.1,0.4-0.1,0.7c0,0.4,0.1,0.4,0.1,0.7c0,0.4,0,0.4,0,0.7s-0.2,0.6-0.1,0.9c0.1,0.3,0.2-0.3,0.4-0.3
			c0.2,0,0.2,0.2,0.4,0.2c0.2,0,0.2-0.2,0.4-0.2s0.2,0.2,0.4,0.2c0.2,0,0.2-0.3,0.4-0.3c0.2,0,0.2,0.2,0.4,0.2
			c0.2,0,0.2-0.1,0.4-0.1c0.2,0,0.2,0.2,0.4,0.2c0.2,0,0.2-0.1,0.4-0.1s0.2,0.2,0.4,0.2s0.2-0.4,0.4-0.4c0.2,0,0.2,0.3,0.4,0.3
			s0.2,0.1,0.4,0.1s0.2-0.3,0.4-0.3c0.2,0,0.2-0.1,0.4-0.1c0.2,0,0.2,0,0.4,0c0.2,0,0.2,0.1,0.4,0.1c0.2,0,0.2,0,0.4,0
			c0.2,0,0.2,0.2,0.4,0.2c0.2,0,0.2,0,0.4,0s0.2-0.3,0.4-0.3c0.2,0,0.2,0,0.4,0c0.2,0,0.2,0,0.4,0c0.2,0,0.2,0,0.4,0
			c0.2,0,0.2,0.3,0.4,0.3c0.2,0,0.2-0.2,0.4-0.2s0.2,0,0.4,0s0.2,0.1,0.4,0.1s0.2-0.1,0.4-0.1s0.2,0.2,0.4,0.2
			c0.2,0,0.2-0.1,0.4-0.1c0.2,0,0.2,0.1,0.4,0.1c0.2,0,0.2,0,0.4,0s0.2-0.2,0.4-0.2c0.2,0,0.2,0.2,0.4,0.2c0.2,0,0.2-0.2,0.4-0.2
			s0.2,0.3,0.4,0.3c0.2,0,0.2-0.2,0.4-0.2c0.2,0,0.2,0.2,0.4,0.2c0.2,0,0.2-0.2,0.4-0.2s0.3,0.4,0.4,0.2c0.1-0.3,0-0.4-0.1-0.8
			c0-0.4,0.1-0.4,0.1-0.8c0-0.4,0.1-0.4,0.1-0.7c0-0.4-0.2-0.4-0.2-0.7c0-0.4,0.1-0.4,0.1-0.7c0-0.4-0.1-0.4-0.1-0.7
			c0-0.4,0-0.4,0-0.7c0-0.4,0-0.4,0-0.7c0-0.4,0-0.4,0-0.7c0-0.4,0-0.4,0-0.7c0-0.4,0.1-0.4,0.1-0.7c0-0.4-0.1-0.4-0.1-0.7
			c0-0.4,0-0.4,0-0.7c0-0.4,0.1-0.4,0.1-0.7c0-0.4-0.1-0.4-0.1-0.7c0-0.4,0.1-0.4,0.1-0.7c0-0.4,0-0.4,0-0.7c0-0.4,0.1-0.4,0.1-0.7
			s-0.1-0.4-0.1-0.7c0-0.4,0.2-0.4,0.2-0.7c0-0.4-0.1-0.4-0.1-0.7c0-0.4,0.1-0.4,0.1-0.7c0-0.4-0.1-0.4-0.1-0.7c0-0.4,0-0.4,0-0.7
			c0-0.4,0-0.4,0-0.7c0-0.4,0-0.4,0-0.7c0-0.4,0.1-0.4,0.1-0.7C1142.3,1011.8,1142.4,1011.8,1142.4,1011.5z"/>
		<circle class="st18" cx="1134.6" cy="1004.2" r="15"/>
		<path class="st18" d="M1199.7,1065.2c0-0.4-0.2-0.9-0.2-1.3c0-0.4-0.2-0.9-0.2-1.3c0-0.4,0.4-0.9,0.3-1.4c0-0.4-0.7-0.8-0.7-1.3
			c0-0.4,0.4-0.9,0.4-1.4c-0.1-0.4-0.1-0.9-0.2-1.3c-0.1-0.4-0.1-0.9-0.1-1.3c-0.1-0.4-0.7-0.8-0.7-1.2c-0.1-0.4-0.1-0.9-0.2-1.3
			c-0.1-0.4-0.3-0.8-0.4-1.3c-0.1-0.4,0.4-1,0.2-1.5c-0.1-0.4-0.2-0.9-0.4-1.3c-0.1-0.4-0.9-0.6-1.1-1.1c-0.1-0.4,0.3-1.1,0.1-1.5
			c-0.2-0.4-0.4-0.8-0.6-1.2c-0.2-0.4-0.4-0.8-0.6-1.2c-0.2-0.4-0.2-0.9-0.3-1.3c-0.2-0.4-0.9-0.5-1.1-0.9c-0.2-0.4-0.5-0.7-0.7-1.1
			c-0.2-0.4-0.3-0.8-0.6-1.2c-0.2-0.4-0.3-0.9-0.6-1.2c-0.3-0.4-0.7-0.6-1-0.9c-0.3-0.4-0.2-1-0.5-1.3c-0.3-0.3-0.7-0.5-1-0.9
			c-0.3-0.3-0.8-0.4-1.1-0.7c-0.3-0.3-0.5-0.8-0.8-1.1c-0.3-0.3-0.9-0.3-1.3-0.5c-0.4-0.3-0.4-1-0.7-1.3c-0.4-0.2-1-0.1-1.3-0.4
			c-0.4-0.2-0.7-0.5-1.1-0.7c-0.4-0.2-0.9-0.1-1.3-0.3c-0.4-0.2-0.8-0.4-1.2-0.5c-0.4-0.1-0.7-0.7-1.1-0.8c-0.4-0.1-0.9,0-1.3-0.1
			c-0.4-0.1-0.8-0.2-1.3-0.3c-0.4-0.1-0.8-0.3-1.3-0.4c-0.4,0-0.9,0.4-1.4,0.4c-0.4,0-0.9-0.3-1.3-0.3c-0.7,0-0.7-0.3-1.3-0.3
			c-0.7,0-0.6,0.3-1.3,0.3c-0.7,0-0.6,0.3-1.3,0.3s-0.7-0.3-1.3-0.3c-0.7,0-0.7,0-1.3,0c-0.7,0-0.6,0.3-1.3,0.3
			c-0.6,0-0.6,0.2-1.3,0.2c-0.7,0-0.7-0.3-1.3-0.3c-0.7,0-0.6,0-1.3,0.1c-0.7,0-0.7-0.2-1.3-0.2c-0.7,0-0.7,0-1.3,0
			c-0.7,0-0.6,0.2-1.3,0.2c-0.7,0-0.7-0.2-1.3-0.2c-0.6,0-0.6,0.5-1.3,0.5c-0.7,0-0.6,0.2-1.3,0.2c-0.6,0-0.7-0.2-1.3-0.2
			c-0.6,0-0.7-0.3-1.3-0.3c-0.6,0-0.7-0.1-1.3,0c-0.4,0-0.5,0.1-0.7,0.2c-0.3,0-0.5,0.1-0.8,0c-0.1,0-0.3,0-0.4,0
			c-0.2-0.1-0.3-0.1-0.7-0.1c-0.3,0-0.5,0.1-0.7,0.3c-0.3,0-0.6,0.1-0.8,0.1c-0.4,0-0.9-0.7-1.3-0.7c-0.7,0-0.7,0.2-1.3,0.2
			c-0.4,0-0.6,0.1-0.8,0.2c-0.1,0-0.2,0-0.3,0c-0.3,0-0.4,0-0.6,0.1c-0.4-0.1-0.5-0.2-1-0.2c-0.7,0-0.7-0.1-1.3-0.1
			c-0.7,0-0.7,0-1.3,0c-0.7,0-0.6-0.4-1.3-0.4c-0.7,0-0.7,0-1.3,0c-0.7,0-0.7,0-1.3,0c-0.7,0-0.7,0.3-1.3,0.3c-0.7,0-0.7,0-1.3,0
			c-0.7,0-0.7-0.3-1.3-0.3c-0.7,0-0.7,0.2-1.3,0.2c-0.7,0-0.7,0.2-1.3,0.2c-0.7,0-0.7-0.1-1.3-0.1c-0.7,0-0.7-0.3-1.3-0.3
			c-0.7,0-0.7,0.3-1.3,0.3c-0.7,0-0.6-0.6-1.3-0.6c-0.7,0-0.7,0.1-1.3,0.1c-0.7,0-0.7,0.4-1.3,0.4c-0.7,0-0.6-0.5-1.3-0.5
			c-0.7,0-0.7,0-1.3,0c-0.7,0-0.7,0.6-1.3,0.6c-0.7,0-0.6-0.4-1.3-0.4c-0.7,0-0.7,0.4-1.3,0.4c-0.7,0-0.6-0.5-1.3-0.5
			c-0.7,0-0.7,0.4-1.3,0.4c-0.7,0-0.7-0.2-1.3-0.2c-0.7,0-0.7,0.3-1.3,0.3c-0.7,0-0.7-0.2-1.3-0.2c-0.7,0-0.6-0.5-1.3-0.5
			c-0.7,0-0.7,0.3-1.3,0.3c-0.7,0-0.7,0.1-1.3,0.1c-0.7,0-0.7,0.1-1.3,0.1c-0.7,0-0.6-0.3-1.3-0.3c-0.7,0-0.7,0-1.3,0
			c-0.7,0-0.7-0.1-1.3-0.1s-0.7,0.1-1.3,0.1c-0.4,0-0.9,0.2-1.3,0.2c-0.4,0-0.9-0.5-1.4-0.5c-0.4,0.1-0.9,0.1-1.3,0.2
			c-0.4,0.1-0.8,0.6-1.2,0.7c-0.4,0.1-0.9,0.1-1.3,0.3c-0.4,0.1-0.9,0.2-1.3,0.4c-0.4,0.2-0.8,0.5-1.2,0.6c-0.4,0.2-0.9,0.2-1.2,0.5
			c-0.4,0.2-0.6,0.7-1,0.9c-0.4,0.2-0.9,0.3-1.2,0.5c-0.4,0.3-0.6,0.7-0.9,1c-0.3,0.3-0.8,0.4-1.2,0.7c-0.3,0.3-0.7,0.5-1,0.8
			c-0.3,0.3-0.8,0.4-1.1,0.8c-0.3,0.3-0.1,1.1-0.4,1.5c-0.3,0.3-0.7,0.5-1,0.9c-0.3,0.4-0.3,0.9-0.6,1.2c-0.2,0.4-0.9,0.5-1.1,0.9
			c-0.2,0.4-0.3,0.9-0.5,1.3c-0.2,0.4-0.8,0.6-1,1c-0.2,0.4-0.4,0.8-0.6,1.2c-0.2,0.4,0.1,1-0.1,1.4c-0.2,0.4-0.6,0.7-0.8,1.1
			c-0.2,0.4,0,0.9-0.2,1.4c-0.1,0.4-0.6,0.7-0.7,1.2c-0.1,0.4-0.2,0.9-0.3,1.3c-0.1,0.4-0.2,0.9-0.3,1.3c-0.1,0.4-0.1,0.9-0.2,1.3
			c-0.1,0.4-0.4,0.8-0.5,1.3c-0.1,0.4-0.3,0.9-0.4,1.3c-0.1,0.4-0.1,0.9-0.1,1.3c-0.1,0.4,0.3,0.9,0.2,1.4c-0.1,0.4-0.2,0.9-0.3,1.3
			c0,0.4-0.2,0.9-0.2,1.3c0,0.4-0.1,0.9-0.1,1.3c0,0.4-0.5,0.9-0.5,1.3c0,0.4,0.1,0.9,0.1,1.4c0,0.4,0.2,0.9,0.2,1.3
			c0,0.4,0.2,0.9,0.2,1.3c0,0.4-0.4,0.9-0.3,1.4c0,0.4,0.7,0.8,0.7,1.3c0,0.4-0.4,0.9-0.4,1.4c0.1,0.4,0.1,0.9,0.2,1.3
			c0.1,0.4,0.1,0.9,0.1,1.3c0.1,0.4,0.7,0.8,0.7,1.2c0.1,0.4,0.1,0.9,0.2,1.3c0.1,0.4,0.3,0.8,0.4,1.3c0.1,0.4-0.4,1-0.2,1.5
			c0.1,0.4,0.2,0.9,0.4,1.3c0.1,0.4,0.9,0.6,1.1,1.1c0.1,0.4-0.3,1.1-0.1,1.5c0.2,0.4,0.4,0.8,0.6,1.2c0.2,0.4,0.4,0.8,0.6,1.2
			c0.2,0.4,0.2,0.9,0.3,1.3c0.2,0.4,0.9,0.5,1.1,0.9c0.2,0.4,0.5,0.7,0.7,1.1c0.2,0.4,0.3,0.8,0.6,1.2c0.2,0.4,0.3,0.9,0.6,1.2
			c0.3,0.4,0.7,0.6,1,0.9c0.3,0.4,0.2,1,0.5,1.3c0.3,0.3,0.7,0.5,1,0.9c0.3,0.3,0.8,0.4,1.1,0.7c0.3,0.3,0.5,0.8,0.8,1.1
			c0.3,0.3,0.9,0.3,1.3,0.5c0.4,0.3,0.4,1,0.7,1.3c0.4,0.2,1,0.1,1.3,0.4c0.4,0.2,0.7,0.5,1.1,0.7c0.4,0.2,0.9,0.1,1.3,0.3
			c0.4,0.2,0.8,0.4,1.2,0.5c0.4,0.1,0.7,0.7,1.1,0.8c0.4,0.1,0.9,0,1.3,0.1c0.4,0.1,0.8,0.2,1.3,0.3c0.4,0.1,0.8,0.3,1.3,0.4
			c0.4,0,0.9-0.4,1.4-0.4c0.4,0,0.9,0.3,1.3,0.3c0.7,0,0.7,0.3,1.3,0.3s0.6-0.3,1.3-0.3c0.7,0,0.6-0.3,1.3-0.3
			c0.7,0,0.7,0.3,1.3,0.3c0.7,0,0.7,0,1.3,0c0.7,0,0.6-0.3,1.3-0.3c0.6,0,0.6-0.2,1.3-0.2c0.7,0,0.7,0.3,1.3,0.3
			c0.7,0,0.6,0,1.3-0.1c0.7,0,0.7,0.2,1.3,0.2c0.7,0,0.7,0,1.3,0c0.6,0,0.6-0.2,1.3-0.2c0.7,0,0.7,0.2,1.3,0.2
			c0.6,0,0.6-0.5,1.3-0.5c0.7,0,0.6-0.2,1.3-0.2c0.6,0,0.7,0.2,1.3,0.2c0.6,0,0.7,0.3,1.3,0.3c0.6,0,0.7,0.1,1.3,0
			c0.4,0,0.5-0.1,0.7-0.2c0.3,0,0.5-0.1,0.8,0c0.1,0,0.3,0,0.4,0c0.2,0.1,0.3,0.1,0.7,0.1c0.3,0,0.5-0.1,0.7-0.3
			c0.3,0,0.6-0.1,0.8-0.1c0.4,0,0.9,0.7,1.3,0.7c0.7,0,0.7-0.2,1.3-0.2c0.4,0,0.6-0.1,0.8-0.2c0.1,0,0.2,0,0.3,0
			c0.3,0,0.4,0,0.6-0.1c0.4,0.1,0.5,0.2,1,0.2c0.7,0,0.7,0.1,1.3,0.1s0.7,0,1.3,0c0.7,0,0.6,0.4,1.3,0.4c0.7,0,0.7,0,1.3,0
			c0.7,0,0.7,0,1.3,0c0.7,0,0.7-0.3,1.3-0.3c0.7,0,0.7,0,1.3,0c0.7,0,0.7,0.3,1.3,0.3c0.7,0,0.7-0.2,1.3-0.2c0.7,0,0.7-0.2,1.3-0.2
			c0.7,0,0.7,0.1,1.3,0.1c0.7,0,0.7,0.3,1.3,0.3c0.7,0,0.7-0.3,1.3-0.3c0.7,0,0.6,0.6,1.3,0.6c0.7,0,0.7-0.1,1.3-0.1
			c0.7,0,0.7-0.4,1.3-0.4c0.7,0,0.6,0.5,1.3,0.5c0.7,0,0.7,0,1.3,0c0.7,0,0.7-0.6,1.3-0.6c0.7,0,0.6,0.4,1.3,0.4
			c0.7,0,0.7-0.4,1.3-0.4c0.7,0,0.6,0.5,1.3,0.5c0.7,0,0.7-0.4,1.3-0.4c0.7,0,0.7,0.2,1.3,0.2c0.7,0,0.7-0.3,1.3-0.3
			c0.7,0,0.6,0.2,1.3,0.2c0.7,0,0.6,0.5,1.3,0.5c0.7,0,0.7-0.3,1.3-0.3c0.7,0,0.7-0.1,1.3-0.1c0.7,0,0.7-0.1,1.3-0.1
			c0.7,0,0.6,0.3,1.3,0.3c0.7,0,0.7,0,1.3,0c0.7,0,0.7,0.1,1.3,0.1c0.7,0,0.7-0.1,1.3-0.1c0.4,0,0.9-0.2,1.3-0.2
			c0.4,0,0.9,0.5,1.4,0.5c0.4-0.1,0.9-0.1,1.3-0.2c0.4-0.1,0.8-0.6,1.2-0.7c0.4-0.1,0.9-0.1,1.3-0.3c0.4-0.1,0.9-0.2,1.3-0.4
			c0.4-0.2,0.8-0.5,1.2-0.6c0.4-0.2,0.9-0.2,1.2-0.5c0.4-0.2,0.6-0.7,1-0.9c0.4-0.2,0.9-0.3,1.2-0.5c0.4-0.3,0.6-0.7,0.9-1
			c0.3-0.3,0.8-0.4,1.2-0.7c0.3-0.3,0.7-0.5,1-0.8c0.3-0.3,0.8-0.4,1.1-0.8c0.3-0.3,0.1-1.1,0.4-1.5c0.3-0.3,0.7-0.5,1-0.9
			c0.3-0.4,0.3-0.9,0.6-1.2c0.2-0.4,0.9-0.5,1.1-0.9c0.2-0.4,0.3-0.9,0.5-1.3c0.2-0.4,0.8-0.6,1-1c0.2-0.4,0.4-0.8,0.6-1.2
			c0.2-0.4-0.1-1,0.1-1.4c0.2-0.4,0.6-0.7,0.8-1.1c0.2-0.4,0-0.9,0.2-1.4c0.1-0.4,0.6-0.7,0.7-1.2c0.1-0.4,0.2-0.9,0.3-1.3
			c0.1-0.4,0.2-0.9,0.3-1.3c0.1-0.4,0.1-0.9,0.2-1.3c0.1-0.4,0.4-0.8,0.5-1.3c0.1-0.4,0.3-0.9,0.4-1.3c0.1-0.4,0.1-0.9,0.1-1.3
			c0.1-0.4-0.3-0.9-0.2-1.4c0.1-0.4,0.2-0.9,0.3-1.3c0-0.4,0.2-0.9,0.2-1.3c0-0.4,0.1-0.9,0.1-1.3c0-0.4,0.5-0.9,0.5-1.3
			C1199.8,1066.1,1199.7,1065.7,1199.7,1065.2z"/>
		<path class="st4" d="M1179,1065.1c0-0.3-0.1-0.6-0.1-0.9c0-0.3-0.1-0.6-0.2-0.9c0-0.3,0.3-0.6,0.2-0.9c0-0.3-0.4-0.6-0.5-0.9
			c0-0.3,0.3-0.6,0.2-0.9c0-0.3-0.1-0.6-0.1-0.9c0-0.3-0.1-0.6-0.1-0.9c-0.1-0.3-0.5-0.5-0.5-0.8c-0.1-0.3-0.1-0.6-0.1-0.9
			c-0.1-0.3-0.2-0.6-0.3-0.9c-0.1-0.3,0.2-0.7,0.2-1c-0.1-0.3-0.2-0.6-0.3-0.9c-0.1-0.3-0.6-0.4-0.7-0.7c-0.1-0.3,0.2-0.7,0.1-1
			c-0.1-0.3-0.3-0.5-0.4-0.8c-0.1-0.3-0.3-0.5-0.4-0.8c-0.1-0.3-0.1-0.6-0.2-0.9c-0.1-0.3-0.6-0.4-0.8-0.6c-0.1-0.3-0.3-0.5-0.5-0.7
			c-0.2-0.3-0.2-0.6-0.4-0.8c-0.2-0.3-0.2-0.6-0.4-0.8c-0.2-0.2-0.5-0.4-0.7-0.6c-0.2-0.2-0.1-0.7-0.3-0.9c-0.2-0.2-0.5-0.4-0.7-0.6
			c-0.2-0.2-0.5-0.3-0.8-0.5c-0.2-0.2-0.3-0.5-0.6-0.7c-0.2-0.2-0.6-0.2-0.9-0.4c-0.2-0.2-0.2-0.7-0.5-0.9c-0.2-0.2-0.7-0.1-0.9-0.2
			c-0.3-0.2-0.5-0.4-0.7-0.5c-0.3-0.1-0.6-0.1-0.9-0.2c-0.3-0.1-0.5-0.2-0.8-0.3c-0.3-0.1-0.5-0.5-0.8-0.6c-0.3-0.1-0.6,0-0.9-0.1
			c-0.3-0.1-0.6-0.2-0.9-0.2c-0.3,0-0.6-0.2-0.9-0.3c-0.3,0-0.6,0.3-0.9,0.3c-0.3,0-0.6-0.2-0.9-0.2c-0.4,0-0.5-0.2-0.9-0.2
			s-0.4,0.2-0.9,0.2c-0.4,0-0.4,0.2-0.9,0.2c-0.4,0-0.5-0.2-0.9-0.2c-0.4,0-0.4,0-0.9,0c-0.4,0-0.4,0.2-0.9,0.2
			c-0.4,0-0.4,0.1-0.9,0.1c-0.4,0-0.5-0.2-0.9-0.2c-0.4,0-0.4,0-0.9,0c-0.4,0-0.4-0.2-0.9-0.1c-0.4,0-0.4,0-0.9,0
			c-0.4,0-0.4,0.1-0.9,0.2c-0.4,0-0.4-0.1-0.9-0.1c-0.4,0-0.4,0.3-0.9,0.3c-0.4,0-0.4,0.1-0.9,0.2c-0.4,0-0.4-0.1-0.9-0.1
			c-0.4,0-0.5-0.2-0.9-0.2c-0.4,0-0.4,0-0.9,0c-0.2,0-0.4,0.1-0.5,0.1c-0.2,0-0.3,0-0.5,0c-0.1,0-0.2,0-0.3,0
			c-0.1,0-0.2-0.1-0.5-0.1c-0.2,0-0.3,0.1-0.4,0.2c-0.2,0-0.4,0.1-0.6,0.1c-0.3,0-0.6-0.5-0.9-0.5c-0.4,0-0.4,0.1-0.9,0.1
			c-0.3,0-0.4,0.1-0.6,0.2c-0.1,0-0.1,0-0.2,0c-0.2,0-0.3,0-0.4,0.1c-0.2,0-0.3-0.1-0.7-0.1c-0.4,0-0.4-0.1-0.9-0.1
			c-0.4,0-0.4,0-0.9,0c-0.4,0-0.4-0.2-0.9-0.2c-0.4,0-0.4,0-0.9,0c-0.4,0-0.4,0-0.9,0c-0.4,0-0.4,0.2-0.9,0.2c-0.4,0-0.4,0-0.9,0
			c-0.4,0-0.4-0.2-0.9-0.2c-0.4,0-0.4,0.1-0.9,0.1c-0.4,0-0.4,0.1-0.9,0.1c-0.4,0-0.4-0.1-0.9-0.1c-0.4,0-0.4-0.2-0.9-0.2
			c-0.4,0-0.4,0.2-0.9,0.2c-0.4,0-0.4-0.4-0.9-0.4c-0.4,0-0.4,0.1-0.9,0.1c-0.4,0-0.4,0.2-0.9,0.2c-0.4,0-0.4-0.3-0.9-0.3
			c-0.4,0-0.4,0-0.9,0c-0.4,0-0.5,0.4-0.9,0.4c-0.4,0-0.4-0.3-0.9-0.3c-0.4,0-0.5,0.3-0.9,0.3s-0.4-0.4-0.9-0.4
			c-0.4,0-0.4,0.3-0.9,0.2c-0.4,0-0.4-0.1-0.9-0.1c-0.4,0-0.4,0.2-0.9,0.2c-0.4,0-0.4-0.2-0.9-0.2c-0.4,0-0.4-0.3-0.9-0.3
			c-0.4,0-0.4,0.2-0.9,0.2s-0.4,0.1-0.9,0.1c-0.4,0-0.4,0.1-0.9,0.1s-0.4-0.2-0.9-0.2c-0.4,0-0.4,0-0.9,0c-0.4,0-0.4,0-0.9-0.1
			s-0.4,0.1-0.9,0.1c-0.3,0-0.6,0.1-0.9,0.1c-0.3,0-0.6-0.4-0.9-0.3c-0.3,0-0.6,0.1-0.9,0.1c-0.3,0.1-0.5,0.4-0.8,0.4
			c-0.3,0.1-0.6,0.1-0.9,0.2c-0.3,0.1-0.6,0.1-0.9,0.2c-0.3,0.1-0.5,0.3-0.8,0.4c-0.3,0.1-0.6,0.2-0.9,0.3c-0.3,0.1-0.4,0.5-0.7,0.6
			c-0.3,0.2-0.6,0.2-0.8,0.4c-0.2,0.2-0.4,0.5-0.6,0.7c-0.2,0.2-0.6,0.2-0.8,0.4c-0.2,0.2-0.5,0.3-0.7,0.6c-0.2,0.2-0.6,0.3-0.8,0.5
			c-0.2,0.2-0.1,0.7-0.3,1c-0.2,0.2-0.5,0.3-0.7,0.6c-0.2,0.2-0.2,0.6-0.4,0.8c-0.2,0.2-0.6,0.3-0.7,0.6c-0.2,0.3-0.2,0.6-0.3,0.8
			c-0.1,0.3-0.6,0.4-0.7,0.6c-0.1,0.3-0.2,0.6-0.4,0.8c-0.1,0.3,0.1,0.7-0.1,1c-0.1,0.3-0.4,0.5-0.5,0.8c-0.1,0.3,0,0.6-0.1,0.9
			c-0.1,0.3-0.4,0.5-0.5,0.8c-0.1,0.3-0.1,0.6-0.2,0.9c-0.1,0.3-0.1,0.6-0.2,0.9c-0.1,0.3-0.1,0.6-0.1,0.9c-0.1,0.3-0.3,0.6-0.3,0.8
			c-0.1,0.3-0.2,0.6-0.3,0.9c-0.1,0.3,0,0.6-0.1,0.9c0,0.3,0.2,0.6,0.2,0.9c0,0.3-0.1,0.6-0.2,0.9c0,0.3-0.1,0.6-0.1,0.9
			c0,0.3-0.1,0.6-0.1,0.9c0,0.3-0.3,0.6-0.3,0.9c0,0.3,0.1,0.6,0.1,0.9c0,0.3,0.1,0.6,0.1,0.9s0.1,0.6,0.2,0.9
			c0,0.3-0.3,0.6-0.2,0.9c0,0.3,0.4,0.6,0.5,0.9c0,0.3-0.3,0.6-0.2,0.9c0,0.3,0.1,0.6,0.1,0.9c0,0.3,0.1,0.6,0.1,0.9
			c0.1,0.3,0.5,0.5,0.5,0.8c0.1,0.3,0.1,0.6,0.1,0.9c0.1,0.3,0.2,0.6,0.3,0.9c0.1,0.3-0.2,0.7-0.2,1c0.1,0.3,0.2,0.6,0.3,0.9
			c0.1,0.3,0.6,0.4,0.7,0.7c0.1,0.3-0.2,0.7-0.1,1c0.1,0.3,0.3,0.5,0.4,0.8c0.1,0.3,0.3,0.5,0.4,0.8c0.1,0.3,0.1,0.6,0.2,0.9
			c0.1,0.3,0.6,0.4,0.8,0.6c0.1,0.3,0.3,0.5,0.5,0.7c0.2,0.3,0.2,0.6,0.4,0.8c0.2,0.3,0.2,0.6,0.4,0.8c0.2,0.2,0.5,0.4,0.7,0.6
			c0.2,0.2,0.1,0.7,0.3,0.9c0.2,0.2,0.5,0.4,0.7,0.6c0.2,0.2,0.5,0.3,0.8,0.5c0.2,0.2,0.3,0.5,0.6,0.7c0.2,0.2,0.6,0.2,0.9,0.4
			c0.2,0.2,0.2,0.7,0.5,0.9c0.2,0.2,0.7,0.1,0.9,0.2c0.3,0.2,0.5,0.4,0.7,0.5c0.3,0.1,0.6,0.1,0.9,0.2c0.3,0.1,0.5,0.2,0.8,0.3
			c0.3,0.1,0.5,0.5,0.8,0.6c0.3,0.1,0.6,0,0.9,0.1c0.3,0.1,0.6,0.2,0.9,0.2c0.3,0,0.6,0.2,0.9,0.3c0.3,0,0.6-0.3,0.9-0.3
			c0.3,0,0.6,0.2,0.9,0.2c0.4,0,0.5,0.2,0.9,0.2c0.4,0,0.4-0.2,0.9-0.2c0.4,0,0.4-0.2,0.9-0.2c0.4,0,0.5,0.2,0.9,0.2
			c0.4,0,0.4,0,0.9,0c0.4,0,0.4-0.2,0.9-0.2c0.4,0,0.4-0.1,0.9-0.1c0.4,0,0.5,0.2,0.9,0.2c0.4,0,0.4,0,0.9,0c0.4,0,0.4,0.2,0.9,0.1
			c0.4,0,0.4,0,0.9,0c0.4,0,0.4-0.1,0.9-0.2c0.4,0,0.4,0.1,0.9,0.1c0.4,0,0.4-0.3,0.9-0.3c0.4,0,0.4-0.1,0.9-0.2
			c0.4,0,0.4,0.1,0.9,0.1c0.4,0,0.5,0.2,0.9,0.2c0.4,0,0.4,0,0.9,0c0.2,0,0.4-0.1,0.5-0.1c0.2,0,0.3,0,0.5,0c0.1,0,0.2,0,0.3,0
			c0.1,0,0.2,0.1,0.5,0.1c0.2,0,0.3-0.1,0.4-0.2c0.2,0,0.4-0.1,0.6-0.1c0.3,0,0.6,0.5,0.9,0.5c0.4,0,0.4-0.1,0.9-0.1
			c0.3,0,0.4-0.1,0.6-0.2c0.1,0,0.1,0,0.2,0c0.2,0,0.3,0,0.4-0.1c0.2,0,0.3,0.1,0.7,0.1c0.4,0,0.4,0.1,0.9,0.1c0.4,0,0.4,0,0.9,0
			c0.4,0,0.4,0.2,0.9,0.2c0.4,0,0.4,0,0.9,0c0.4,0,0.4,0,0.9,0c0.4,0,0.4-0.2,0.9-0.2c0.4,0,0.4,0,0.9,0c0.4,0,0.4,0.2,0.9,0.2
			c0.4,0,0.4-0.1,0.9-0.1c0.4,0,0.4-0.1,0.9-0.1c0.4,0,0.4,0.1,0.9,0.1c0.4,0,0.4,0.2,0.9,0.2c0.4,0,0.4-0.2,0.9-0.2
			c0.4,0,0.4,0.4,0.9,0.4c0.4,0,0.4-0.1,0.9-0.1c0.4,0,0.4-0.2,0.9-0.2c0.4,0,0.4,0.3,0.9,0.3c0.4,0,0.4,0,0.9,0
			c0.4,0,0.5-0.4,0.9-0.4c0.4,0,0.4,0.3,0.9,0.3c0.4,0,0.5-0.3,0.9-0.3c0.4,0,0.4,0.4,0.9,0.4c0.4,0,0.4-0.3,0.9-0.2
			c0.4,0,0.4,0.1,0.9,0.1c0.4,0,0.4-0.2,0.9-0.2c0.4,0,0.4,0.2,0.9,0.2c0.4,0,0.4,0.3,0.9,0.3c0.4,0,0.4-0.2,0.9-0.2
			s0.4-0.1,0.9-0.1c0.4,0,0.4-0.1,0.9-0.1c0.4,0,0.4,0.2,0.9,0.2c0.4,0,0.4,0,0.9,0c0.4,0,0.4,0,0.9,0.1c0.4,0,0.4-0.1,0.9-0.1
			c0.3,0,0.6-0.1,0.9-0.1c0.3,0,0.6,0.4,0.9,0.3c0.3,0,0.6-0.1,0.9-0.1c0.3-0.1,0.5-0.4,0.8-0.4c0.3-0.1,0.6-0.1,0.9-0.2
			c0.3-0.1,0.6-0.1,0.9-0.2c0.3-0.1,0.5-0.3,0.8-0.4c0.3-0.1,0.6-0.2,0.9-0.3c0.3-0.1,0.4-0.5,0.7-0.6c0.3-0.2,0.6-0.2,0.8-0.4
			c0.2-0.2,0.4-0.5,0.6-0.7c0.2-0.2,0.6-0.2,0.8-0.4c0.2-0.2,0.5-0.3,0.7-0.6c0.2-0.2,0.6-0.3,0.8-0.5c0.2-0.2,0.1-0.7,0.3-1
			c0.2-0.2,0.5-0.3,0.7-0.6c0.2-0.2,0.2-0.6,0.4-0.8c0.2-0.2,0.6-0.3,0.7-0.6c0.2-0.3,0.2-0.6,0.3-0.8c0.1-0.3,0.6-0.4,0.7-0.6
			c0.1-0.3,0.2-0.6,0.4-0.8c0.1-0.3-0.1-0.7,0.1-1c0.1-0.3,0.4-0.5,0.5-0.8c0.1-0.3,0-0.6,0.1-0.9c0.1-0.3,0.4-0.5,0.5-0.8
			c0.1-0.3,0.1-0.6,0.2-0.9c0.1-0.3,0.1-0.6,0.2-0.9c0.1-0.3,0.1-0.6,0.1-0.9c0.1-0.3,0.3-0.6,0.3-0.8c0.1-0.3,0.2-0.6,0.3-0.9
			c0.1-0.3,0-0.6,0.1-0.9c0-0.3-0.2-0.6-0.2-0.9c0-0.3,0.1-0.6,0.2-0.9c0-0.3,0.1-0.6,0.1-0.9c0-0.3,0.1-0.6,0.1-0.9
			c0-0.3,0.3-0.6,0.3-0.9C1179,1065.7,1179,1065.4,1179,1065.1z"/>
		<g>
			<path class="st18" d="M1140.1,1073.7C1140,1073.7,1140,1073.7,1140.1,1073.7C1140.3,1073.7,1140.3,1073.7,1140.1,1073.7z"/>
			<path class="st18" d="M1129.7,1073.5c1,1,1.3,1.2,1,0.7c-0.1-0.2-0.3-0.5-0.5-0.7c-0.1,0-0.9-0.1-0.9-0.1
				C1129.5,1073.5,1129.6,1073.5,1129.7,1073.5z"/>
			<path class="st18" d="M1134.3,1074.9c-0.1,0-0.2-0.1-0.3-0.1c-0.2,0-0.4,0.1-0.5,0C1133.5,1074.8,1134,1074.8,1134.3,1074.9z"/>
			<path class="st18" d="M1135.5,1074.8c0.3-0.1,0.9,0,0.3-0.1c0,0-0.1,0-0.1,0C1135.6,1074.7,1135.5,1074.7,1135.5,1074.8
				C1135.3,1074.8,1134.8,1075,1135.5,1074.8z"/>
			<path class="st18" d="M1145.7,1074.8C1145.8,1074.7,1145.8,1074.7,1145.7,1074.8L1145.7,1074.8z"/>
			<path class="st18" d="M1141.3,1073.1c0.2-0.5,0.6-0.7,1-0.7c-0.1-0.1-0.4,0-0.5,0c-0.3,0-0.5,0.1-0.7,0.1
				c-0.2,0.3-0.4,0.7-0.4,1.1C1140.5,1074.1,1140.7,1073.9,1141.3,1073.1z"/>
			<path class="st18" d="M1138.8,1074.5c0.4-0.3,0.7-0.5,1.1-0.8c-0.2,0-0.5,0.1-0.7,0.1c-0.1,0.1-0.2,0.3-0.3,0.4
				C1138.9,1074.3,1138.9,1074.4,1138.8,1074.5z"/>
			<path class="st18" d="M1137.8,1074.2C1137.4,1074.3,1138.2,1074.2,1137.8,1074.2L1137.8,1074.2z"/>
			<path class="st18" d="M1126.3,1076.9c-0.2-0.3-0.3-0.4-0.2-0.2C1126.2,1076.7,1126.2,1076.8,1126.3,1076.9
				C1126.3,1076.9,1126.3,1076.9,1126.3,1076.9C1126.6,1077.1,1126.6,1077.1,1126.3,1076.9z"/>
			<path class="st18" d="M1137.8,1079.4c-0.3,0.1-0.3,0.1-0.1,0.1C1137.7,1079.4,1137.8,1079.4,1137.8,1079.4
				C1137.8,1079.4,1137.8,1079.4,1137.8,1079.4z"/>
			<path class="st18" d="M1140.2,1078.9C1140.3,1078.9,1140.3,1078.9,1140.2,1078.9C1140.6,1078.7,1139.8,1078.9,1140.2,1078.9z"/>
			<path class="st18" d="M1146,1073.6c0-0.6-0.3-1.4-0.8-1.8c-0.9-0.9-2.8-1.1-3.7,0c-0.2,0.2-0.4,0.5-0.5,0.7
				c0.2-0.1,0.5-0.1,0.7-0.1c0.1,0,0.4-0.1,0.5,0c-0.5,0-0.8,0.3-1,0.7c-0.6,0.8-0.8,1-0.6,0.5c0.1-0.4,0.2-0.8,0.4-1.1
				c-0.6,0.2-1.1,0.4-1.5,0.9c-0.1,0.1-0.2,0.3-0.3,0.4c0.2,0,0.5-0.1,0.7-0.1c0,0,0,0,0,0c0,0,0.1,0,0.1,0c0,0,0,0,0,0
				c0.3,0,0.3,0,0,0c0,0-0.1,0-0.1,0c-0.4,0.3-0.7,0.5-1.1,0.8c0.1-0.1,0.1-0.2,0.1-0.3c0.1-0.2,0.2-0.3,0.3-0.4c0,0,0,0,0,0
				c-0.2,0-0.4,0.1-0.6,0.2c-0.2,0.1-0.5,0.1-0.7,0.2c-0.1,0-0.1,0-0.1,0c0.5,0-0.3,0.1,0,0c0,0,0,0,0,0c-0.8,0-1.4,0.2-2.1,0.5
				c0,0,0.1,0,0.1,0c0.6,0.1,0,0-0.3,0.1c-0.6,0.2-0.1,0,0,0c0,0,0.1,0,0.1-0.1c-0.4-0.1-0.7-0.1-1.1-0.1c-0.2,0-0.4,0.1-0.6,0.1
				c0.1,0.1,0.2,0.1,0.3,0.1c0.1,0,0.1,0,0.1,0c0,0,0,0-0.1,0c-0.2,0-0.8-0.1-0.8-0.1c0.1,0,0.3,0,0.5,0c-0.2-0.1-0.4-0.2-0.4-0.2
				c-0.5-0.2-1.1-0.3-1.6-0.5c-0.5-0.2-1.1-0.4-1.6-0.5c0,0,0,0,0,0c0.2,0.2,0.3,0.4,0.5,0.7c0.3,0.5,0,0.3-1-0.7
				c-0.1,0-0.2,0-0.3-0.1c0,0,0.7,0.1,0.9,0.1c-0.2-0.2-0.4-0.4-0.6-0.6c-0.3-0.2-0.6-0.4-0.9-0.6c0.5,0.3-0.3-0.3-0.5-0.4
				c-0.3-0.2-0.6-0.3-0.9-0.4c-0.1,0-0.1,0-0.2,0c0,0,0,0,0,0c0.2,0.2,0.2,0.1-0.2-0.1c0.1,0,0.1,0,0.2,0c-1.1-0.8-2.9-0.2-3.5,0.9
				c-0.7,1.4-0.2,2.7,0.9,3.5c0.3,0.2,0.7,0.4,1,0.5c0.1,0,0.1,0,0.2,0.1c-0.3-0.2-0.6-0.5,0-0.1c0.5,0.3,0.3,0.2,0,0.1
				c0.2,0.1,0.3,0.2,0.4,0.3c0-0.1-0.1-0.1-0.1-0.1c-0.1-0.2-0.1-0.2,0.2,0.2c0.3,0.2,0.3,0.2,0,0c0,0-0.1,0-0.1-0.1
				c0.3,0.5,0.8,1,1.3,1.3c0.3,0.2,0.6,0.3,1,0.4c0.3,0.1,0.6,0.1,0.9,0.1c0,0,0.1,0,0.1,0c-0.1,0,0,0,0.3,0c-0.1,0-0.2,0-0.3,0
				c0,0,0.1,0,0.2,0.1c0.1,0,0.2,0.1,0.3,0.1c0.3,0.1,0.5,0.2,0.8,0.3c0.1,0,0.5,0.1,0.7,0.2c0,0-0.1,0-0.1-0.1c0,0,0.1,0,0.1,0.1
				c0.1,0,0.1,0,0.2,0.1c-0.1,0-0.1-0.1-0.2-0.1c0,0,0,0,0,0c0.1,0,0.2,0.1,0.2,0.1c0.7,0.4,1.4,0.6,2.2,0.5c0.2,0,0.5-0.1,0.7-0.1
				c-0.2,0-0.2,0,0.1,0c0.3-0.1,0.4-0.1,0.1,0c-0.1,0-0.1,0-0.2,0c0.2,0,0.5,0,0.6,0c0.8,0.1,1.7,0,2.5-0.4c-0.2,0-0.2,0,0.1-0.1
				c0,0,0,0,0,0c-0.5,0.1,0.4-0.2,0,0c0,0,0,0,0,0c0,0,0,0,0,0c0,0,0,0,0,0c0,0-0.1,0-0.1,0c0.2,0,0.4,0,0.4-0.1
				c0.6-0.1,1.5-0.2,2.1-0.5c0,0,0,0,0.1,0c0,0,0,0,0,0c-0.5,0,0.4-0.2,0,0c0.4,0,0.8-0.1,1.2-0.2c0.7-0.2,1.2-0.6,1.6-1.2
				c-0.2,0-0.4,0.1-0.6,0.1c-0.1,0-0.3,0-0.5,0c0.7-0.1,1.2-0.3,1.5-0.8c0,0.1-0.1,0.2-0.1,0.3c-0.1,0.2-0.2,0.3-0.3,0.4
				c0.6-0.1,1.2-0.4,1.7-0.9c0.4-0.4,0.6-0.9,0.8-1.4c0.1-0.2,0.1-0.3,0.2-0.4c-0.1,0.1-0.2,0.3-0.5,0.7
				C1145.7,1074.9,1146,1074.4,1146,1073.6z"/>
			<path class="st18" d="M1143.5,1076.7c-0.4,0.5-0.9,0.8-1.5,0.8c0.1,0,0.3,0,0.5,0c0.2,0,0.4,0,0.6-0.1c0.1-0.1,0.2-0.3,0.3-0.4
				C1143.4,1076.9,1143.5,1076.8,1143.5,1076.7z"/>
			<path class="st18" d="M1137.8,1079.4C1138.2,1079.1,1137.4,1079.5,1137.8,1079.4L1137.8,1079.4z"/>
			<path class="st18" d="M1131.4,1079.2C1131.4,1079.2,1131.5,1079.2,1131.4,1079.2c0.1,0.1,0.1,0.1,0.1,0.1
				C1131.5,1079.2,1131.5,1079.2,1131.4,1079.2z"/>
			<path class="st18" d="M1129.5,1078.6c0.1,0,0.2,0,0.3,0C1129.5,1078.6,1129.4,1078.6,1129.5,1078.6z"/>
			<path class="st18" d="M1125.8,1076.4c-0.6-0.3-0.3-0.1,0,0.1C1126.1,1076.6,1126.3,1076.7,1125.8,1076.4z"/>
			<path class="st18" d="M1134.8,1079.8c-0.3,0-0.3,0-0.1,0C1134.7,1079.8,1134.8,1079.8,1134.8,1079.8
				C1135.1,1079.7,1135.1,1079.7,1134.8,1079.8z"/>
			<path class="st18" d="M1127.2,1071.5C1127.2,1071.5,1127.1,1071.5,1127.2,1071.5c-0.1,0-0.1,0-0.2-0.1
				C1127.3,1071.7,1127.4,1071.7,1127.2,1071.5z"/>
		</g>
		<path class="st21" d="M1142.4,1101.5c0-0.5,0.1-0.8-0.1-1.1c-0.1-0.4-0.2,0.2-0.4,0.2c-0.2,0-0.2,0-0.4,0c-0.2,0-0.2-0.2-0.4-0.2
			s-0.2,0.3-0.4,0.3c-0.2,0-0.2-0.4-0.4-0.4c-0.2,0-0.2,0.4-0.4,0.4c-0.2,0-0.2-0.2-0.4-0.2c-0.2,0-0.2-0.1-0.4-0.1
			s-0.2,0.2-0.4,0.2c-0.2,0-0.2-0.2-0.4-0.2c-0.2,0-0.2,0.2-0.4,0.2c-0.2,0-0.2-0.4-0.4-0.4c-0.2,0-0.2,0.2-0.4,0.2
			c-0.2,0-0.2,0.1-0.4,0.1c-0.2,0-0.2-0.3-0.4-0.3c-0.2,0-0.2,0.1-0.4,0.1c-0.2,0-0.2,0.1-0.4,0.1c-0.2,0-0.2,0.1-0.4,0.1
			c-0.2,0-0.2-0.1-0.4-0.1c-0.2,0-0.2,0.1-0.4,0.1c-0.2,0-0.2-0.1-0.4-0.1c-0.2,0-0.2,0.2-0.4,0.2s-0.2-0.5-0.4-0.5
			s-0.2,0.1-0.4,0.1c-0.2,0-0.2,0.1-0.4,0.1c-0.2,0-0.2,0-0.4,0s-0.2,0.3-0.4,0.3s-0.2-0.5-0.4-0.5s-0.2,0.4-0.4,0.4
			c-0.2,0-0.2-0.4-0.4-0.4c-0.2,0-0.2,0.3-0.4,0.3s-0.2-0.3-0.4-0.3c-0.2,0-0.2,0.5-0.4,0.5c-0.2,0-0.2,0-0.4,0
			c-0.2,0-0.2-0.2-0.4-0.2c-0.2,0-0.2-0.3-0.4-0.3c-0.2,0-0.2,0.1-0.4,0.1s-0.2,0.2-0.4,0.2s-0.2,0.2-0.4,0.2s-0.2,0-0.4,0
			c-0.2,0-0.2-0.6-0.4-0.2c-0.1,0.4-0.1,0.6-0.1,1.1s0,0.5,0,1.1c0,0.5-0.1,0.5-0.1,1.1c0,0.5,0,0.5,0,1.1c0,0.5,0.1,0.5,0.1,1.1
			c0,0.5,0,0.5,0,1.1c0,0.5-0.1,0.5-0.1,1.1c0,0.5,0,0.5,0,1.1s0.2,0.5,0.2,1.1c0,0.5-0.1,0.5-0.1,1.1c0,0.5,0.1,0.5,0.1,1.1
			c0,0.5-0.1,0.5-0.1,1.1c0,0.5,0.1,0.5,0.1,1.1c0,0.5,0,0.5,0,1.1c0,0.5,0,0.5,0,1.1c0,0.5,0,0.5,0,1.1c0,0.5,0,0.5,0,1.1
			c0,0.5,0.1,0.5,0.1,1.1c0,0.5,0,0.5,0,1.1c0,0.5-0.1,0.5-0.1,1.1c0,0.5,0,0.5,0,1.1c0,0.5,0,0.5,0,1.1c0,0.5,0.2,0.5,0.2,1.1
			c0,0.5,0,0.5,0,1.1c0,0.5-0.1,0.5-0.1,1.1c0,0.5-0.1,0.5-0.1,1.1c0,0.5,0.1,0.5,0.1,1.1c0,0.5,0,0.5,0,1.1c0,0.5-0.2,0.9-0.1,1.3
			c0.1,0.4,0.2-0.5,0.4-0.5c0.2,0,0.2,0.3,0.4,0.3c0.2,0,0.2-0.2,0.4-0.2s0.2,0.4,0.4,0.4c0.2,0,0.2-0.4,0.4-0.4
			c0.2,0,0.2,0.2,0.4,0.2c0.2,0,0.2-0.1,0.4-0.1c0.2,0,0.2,0.3,0.4,0.3c0.2,0,0.2-0.2,0.4-0.2s0.2,0.3,0.4,0.3s0.2-0.5,0.4-0.5
			c0.2,0,0.2,0.5,0.4,0.5s0.2,0.1,0.4,0.1s0.2-0.4,0.4-0.4c0.2,0,0.2-0.1,0.4-0.1c0.2,0,0.2,0,0.4,0c0.2,0,0.2,0.2,0.4,0.2
			c0.2,0,0.2,0,0.4,0c0.2,0,0.2,0.3,0.4,0.3c0.2,0,0.2,0,0.4,0s0.2-0.4,0.4-0.4c0.2,0,0.2,0.1,0.4,0.1c0.2,0,0.2,0.1,0.4,0.1
			c0.2,0,0.2,0,0.4,0c0.2,0,0.2,0.4,0.4,0.4c0.2,0,0.2-0.3,0.4-0.3s0.2,0,0.4,0s0.2,0.1,0.4,0.1s0.2-0.1,0.4-0.1s0.2,0.2,0.4,0.2
			c0.2,0,0.2-0.1,0.4-0.1c0.2,0,0.2,0.2,0.4,0.2c0.2,0,0.2,0,0.4,0s0.2-0.3,0.4-0.3c0.2,0,0.2,0.3,0.4,0.3c0.2,0,0.2-0.2,0.4-0.2
			s0.2,0.4,0.4,0.4c0.2,0,0.2-0.3,0.4-0.3c0.2,0,0.2,0.3,0.4,0.3c0.2,0,0.2-0.3,0.4-0.3s0.3,0.6,0.4,0.2c0.1-0.4,0-0.6-0.1-1.2
			c0-0.5,0.1-0.6,0.1-1.1c0-0.5,0.1-0.5,0.1-1.1c0-0.5-0.2-0.5-0.2-1.1s0.1-0.5,0.1-1.1c0-0.5-0.1-0.5-0.1-1.1c0-0.5,0-0.5,0-1.1
			c0-0.5,0-0.5,0-1.1c0-0.5,0-0.5,0-1.1c0-0.5,0-0.5,0-1.1c0-0.5,0.1-0.5,0.1-1.1c0-0.5-0.1-0.5-0.1-1.1c0-0.5,0-0.5,0-1.1
			c0-0.5,0.1-0.5,0.1-1.1c0-0.5-0.1-0.5-0.1-1.1c0-0.5,0.1-0.5,0.1-1.1c0-0.5,0-0.5,0-1.1c0-0.5,0.1-0.5,0.1-1.1s-0.1-0.5-0.1-1.1
			c0-0.5,0.2-0.5,0.2-1.1c0-0.5-0.1-0.5-0.1-1.1c0-0.5,0.1-0.5,0.1-1.1c0-0.5-0.1-0.5-0.1-1.1s0-0.5,0-1.1s0-0.5,0-1.1
			c0-0.5,0-0.5,0-1.1s0.1-0.5,0.1-1.1C1142.3,1102,1142.4,1102,1142.4,1101.5z"/>
		<g>
			<path class="st18" d="M1158.6,1055.8c-0.4-0.6-0.4-1.4-1-1.8c-0.6-0.3-1.3-0.2-2-0.2c-0.7,0-1.7-0.5-2.2-0.2
				c-0.6,0.4-0.6,1.4-1,2c-0.3,0.6-1.2,1.1-1.2,1.9c0,0.7,0.8,1.3,1.1,1.9c0.4,0.6,0.8,1,1.4,1.3c0.6,0.3,1.1,0.9,1.8,0.9
				c0.7,0,1.7,0.1,2.3-0.2c0.6-0.4,1.1-1.2,1.4-1.8c0.3-0.6-0.2-1.4-0.2-2.1S1159,1056.4,1158.6,1055.8z"/>
			<path class="st18" d="M1115.8,1054.5c-0.6-0.3-1.2-0.5-2-0.5c-0.7,0-1.5-0.1-2.1,0.3c-0.6,0.4-1.4,0.8-1.7,1.4
				c-0.3,0.6-0.1,1.5-0.1,2.2c0,0.7,0.1,1.4,0.4,2c0.4,0.6,1,0.9,1.6,1.2c0.6,0.3,1.1,1.2,1.9,1.2c0.7,0,1.6-0.4,2.2-0.7
				c0.6-0.4,0.6-1.3,1-1.9c0.3-0.6,1.2-1.1,1.2-1.8c0-0.7-0.7-1.3-1.1-1.9C1116.7,1055.4,1116.4,1054.8,1115.8,1054.5z"/>
		</g>
		<path class="st18" d="M1134.2,1193c0.4,0,0.9-0.1,1.3-0.1c0.4,0,0.9-0.1,1.3-0.1c0.4,0,0.9,0.2,1.4,0.2c0.4,0,0.8-0.4,1.3-0.4
			c0.4,0,0.9,0.2,1.4,0.2c0.4,0,0.9-0.1,1.3-0.1c0.4,0,0.9,0,1.3-0.1c0.4,0,0.8-0.4,1.2-0.4c0.4-0.1,0.9-0.1,1.3-0.1
			c0.4-0.1,0.8-0.2,1.3-0.2c0.4-0.1,1,0.2,1.5,0.1c0.4-0.1,0.9-0.1,1.3-0.2c0.4-0.1,0.6-0.5,1.1-0.6c0.4-0.1,1.1,0.2,1.5,0.1
			c0.4-0.1,0.8-0.2,1.2-0.3c0.4-0.1,0.8-0.2,1.2-0.3c0.4-0.1,0.9-0.1,1.3-0.2c0.4-0.1,0.5-0.5,0.9-0.7c0.4-0.1,0.7-0.3,1.1-0.4
			c0.4-0.1,0.8-0.2,1.2-0.3c0.4-0.1,0.9-0.2,1.2-0.3c0.4-0.2,0.6-0.4,0.9-0.6c0.4-0.2,1-0.1,1.3-0.3c0.3-0.2,0.5-0.4,0.9-0.6
			c0.3-0.2,0.4-0.5,0.7-0.7c0.3-0.2,0.8-0.3,1.1-0.5c0.3-0.2,0.3-0.5,0.5-0.7c0.3-0.2,1-0.2,1.3-0.4c0.2-0.2,0.1-0.6,0.4-0.8
			c0.2-0.2,0.5-0.4,0.7-0.6c0.2-0.2,0.1-0.5,0.3-0.8c0.2-0.2,0.4-0.5,0.5-0.7c0.1-0.2,0.7-0.4,0.8-0.7c0.1-0.2,0-0.5,0.1-0.8
			c0.1-0.3,0.2-0.5,0.3-0.8c0.1-0.3,0.3-0.5,0.4-0.8c0-0.3-0.4-0.5-0.4-0.8c0-0.3,0.3-0.5,0.3-0.8c0-0.4,0.3-0.4,0.3-0.8
			c0-0.4-0.3-0.4-0.3-0.8c0-0.4-0.3-0.4-0.3-0.8c0-0.4,0.3-0.4,0.3-0.8c0-0.4,0-0.4,0-0.8c0-0.4-0.3-0.4-0.3-0.8
			c0-0.4-0.2-0.4-0.2-0.8c0-0.4,0.3-0.4,0.3-0.8c0-0.4,0-0.4-0.1-0.8c0-0.4,0.2-0.4,0.2-0.8c0-0.4,0-0.4,0-0.8
			c0-0.4-0.2-0.4-0.2-0.8c0-0.4,0.2-0.4,0.2-0.8c0-0.4-0.5-0.4-0.5-0.8c0-0.4-0.2-0.4-0.2-0.8c0-0.4,0.2-0.4,0.2-0.8
			c0-0.4,0.3-0.4,0.3-0.8c0-0.4,0.1-0.4,0-0.8c0-0.2-0.1-0.3-0.2-0.4c0-0.1-0.1-0.3,0-0.4c0-0.1,0-0.2,0-0.3
			c0.1-0.1,0.1-0.2,0.1-0.4c0-0.2-0.1-0.3-0.3-0.4c0-0.2-0.1-0.3-0.1-0.5c0-0.3,0.7-0.5,0.7-0.8c0-0.4-0.2-0.4-0.2-0.8
			c0-0.3-0.1-0.3-0.2-0.5c0,0,0-0.1,0-0.2c0-0.2,0-0.3-0.1-0.3c0.1-0.2,0.2-0.3,0.2-0.6c0-0.4,0.1-0.4,0.1-0.8c0-0.4,0-0.4,0-0.8
			c0-0.4,0.4-0.4,0.4-0.8c0-0.4,0-0.4,0-0.8c0-0.4,0-0.4,0-0.8c0-0.4-0.3-0.4-0.3-0.8c0-0.4,0-0.4,0-0.8c0-0.4,0.3-0.4,0.3-0.8
			c0-0.4-0.2-0.4-0.2-0.8c0-0.4-0.2-0.4-0.2-0.8c0-0.4,0.1-0.4,0.1-0.8c0-0.4,0.3-0.4,0.3-0.8c0-0.4-0.3-0.4-0.3-0.8
			c0-0.4,0.6-0.4,0.6-0.8c0-0.4-0.1-0.4-0.1-0.8c0-0.4-0.4-0.4-0.4-0.8c0-0.4,0.5-0.4,0.5-0.8c0-0.4,0-0.4,0-0.8
			c0-0.4-0.6-0.4-0.6-0.8c0-0.4,0.4-0.4,0.4-0.8c0-0.4-0.4-0.4-0.4-0.8s0.5-0.4,0.5-0.8c0-0.4-0.4-0.4-0.4-0.8
			c0-0.4,0.2-0.4,0.2-0.8c0-0.4-0.3-0.4-0.3-0.8s0.2-0.4,0.2-0.8c0-0.4,0.5-0.4,0.5-0.8c0-0.4-0.3-0.4-0.3-0.8s-0.1-0.4-0.1-0.8
			c0-0.4-0.1-0.4-0.1-0.8c0-0.4,0.3-0.4,0.3-0.8c0-0.4,0-0.4,0-0.8c0-0.4,0.1-0.4,0.1-0.8c0-0.4-0.1-0.4-0.1-0.8
			c0-0.3-0.2-0.5-0.2-0.8c0-0.3,0.5-0.6,0.5-0.8c-0.1-0.3-0.1-0.5-0.2-0.8c-0.1-0.3-0.6-0.5-0.7-0.7c-0.1-0.3-0.1-0.5-0.3-0.8
			c-0.1-0.3-0.2-0.5-0.4-0.8c-0.2-0.2-0.5-0.5-0.6-0.7c-0.2-0.2-0.2-0.5-0.5-0.7c-0.2-0.2-0.7-0.4-0.9-0.6c-0.2-0.2-0.3-0.5-0.5-0.7
			c-0.3-0.2-0.7-0.3-1-0.5c-0.3-0.2-0.4-0.5-0.7-0.7c-0.3-0.2-0.5-0.4-0.8-0.6c-0.3-0.2-0.4-0.5-0.8-0.7c-0.3-0.2-1.1-0.1-1.5-0.2
			c-0.3-0.2-0.5-0.4-0.9-0.6c-0.4-0.2-0.9-0.2-1.2-0.3c-0.4-0.1-0.5-0.5-0.9-0.6c-0.4-0.1-0.9-0.2-1.3-0.3c-0.4-0.1-0.6-0.5-1-0.6
			c-0.4-0.1-0.8-0.2-1.2-0.3c-0.4-0.1-1,0.1-1.4-0.1c-0.4-0.1-0.7-0.4-1.1-0.4c-0.4-0.1-0.9,0-1.4-0.1c-0.4-0.1-0.7-0.3-1.2-0.4
			c-0.4-0.1-0.9-0.1-1.3-0.2c-0.4-0.1-0.9-0.1-1.3-0.2c-0.4-0.1-0.9-0.1-1.3-0.1c-0.4-0.1-0.8-0.2-1.3-0.3c-0.4-0.1-0.9-0.2-1.3-0.2
			c-0.4,0-0.9,0-1.3-0.1c-0.4,0-0.9,0.2-1.4,0.1c-0.4,0-0.9-0.1-1.3-0.1c-0.4,0-0.9-0.1-1.3-0.1c-0.4,0-0.9-0.1-1.3-0.1
			c-0.4,0-0.9-0.3-1.3-0.3c-0.4,0-0.9,0.1-1.4,0.1c-0.4,0-0.9,0.1-1.3,0.1s-0.9,0.1-1.3,0.1c-0.4,0-0.9-0.2-1.4-0.2
			c-0.4,0-0.8,0.4-1.3,0.4c-0.4,0-0.9-0.2-1.4-0.2c-0.4,0-0.9,0.1-1.3,0.1c-0.4,0-0.9,0-1.3,0.1c-0.4,0-0.8,0.4-1.2,0.4
			c-0.4,0.1-0.9,0.1-1.3,0.1c-0.4,0.1-0.8,0.2-1.3,0.2c-0.4,0.1-1-0.2-1.5-0.1c-0.4,0.1-0.9,0.1-1.3,0.2c-0.4,0.1-0.6,0.5-1.1,0.6
			c-0.4,0.1-1.1-0.2-1.5-0.1c-0.4,0.1-0.8,0.2-1.2,0.3c-0.4,0.1-0.8,0.2-1.2,0.3c-0.4,0.1-0.9,0.1-1.3,0.2c-0.4,0.1-0.5,0.5-0.9,0.7
			c-0.4,0.1-0.7,0.3-1.1,0.4c-0.4,0.1-0.8,0.2-1.2,0.3c-0.4,0.1-0.9,0.2-1.2,0.3c-0.4,0.2-0.6,0.4-0.9,0.6c-0.4,0.2-1,0.1-1.3,0.3
			c-0.3,0.2-0.5,0.4-0.9,0.6c-0.3,0.2-0.4,0.5-0.7,0.7c-0.3,0.2-0.8,0.3-1.1,0.5c-0.3,0.2-0.3,0.5-0.5,0.7c-0.3,0.2-1,0.2-1.3,0.4
			c-0.2,0.2-0.1,0.6-0.4,0.8c-0.2,0.2-0.5,0.4-0.7,0.6c-0.2,0.2-0.1,0.5-0.3,0.8c-0.2,0.2-0.4,0.5-0.5,0.7c-0.1,0.2-0.7,0.4-0.8,0.7
			c-0.1,0.2,0,0.5-0.1,0.8c-0.1,0.3-0.2,0.5-0.3,0.8c-0.1,0.3-0.3,0.5-0.4,0.8c0,0.3,0.4,0.5,0.4,0.8c0,0.3-0.3,0.5-0.3,0.8
			c0,0.4-0.3,0.4-0.3,0.8s0.3,0.4,0.3,0.8c0,0.4,0.3,0.4,0.3,0.8c0,0.4-0.3,0.4-0.3,0.8c0,0.4,0,0.4,0,0.8c0,0.4,0.3,0.4,0.3,0.8
			c0,0.4,0.2,0.4,0.2,0.8c0,0.4-0.3,0.4-0.3,0.8c0,0.4,0,0.4,0.1,0.8c0,0.4-0.2,0.4-0.2,0.8c0,0.4,0,0.4,0,0.8
			c0,0.4,0.2,0.4,0.2,0.8c0,0.4-0.2,0.4-0.2,0.8c0,0.4,0.5,0.4,0.5,0.8c0,0.4,0.2,0.4,0.2,0.8c0,0.4-0.2,0.4-0.2,0.8
			c0,0.4-0.3,0.4-0.3,0.8c0,0.4-0.1,0.4,0,0.8c0,0.2,0.1,0.3,0.2,0.4c0,0.1,0.1,0.3,0,0.4c0,0.1,0,0.2,0,0.3
			c-0.1,0.1-0.1,0.2-0.1,0.4c0,0.2,0.1,0.3,0.3,0.4c0,0.2,0.1,0.3,0.1,0.5c0,0.3-0.7,0.5-0.7,0.8c0,0.4,0.2,0.4,0.2,0.8
			c0,0.3,0.1,0.3,0.2,0.5c0,0,0,0.1,0,0.2c0,0.2,0,0.3,0.1,0.3c-0.1,0.2-0.2,0.3-0.2,0.6c0,0.4-0.1,0.4-0.1,0.8s0,0.4,0,0.8
			c0,0.4-0.4,0.4-0.4,0.8c0,0.4,0,0.4,0,0.8c0,0.4,0,0.4,0,0.8c0,0.4,0.3,0.4,0.3,0.8c0,0.4,0,0.4,0,0.8c0,0.4-0.3,0.4-0.3,0.8
			c0,0.4,0.2,0.4,0.2,0.8c0,0.4,0.2,0.4,0.2,0.8c0,0.4-0.1,0.4-0.1,0.8c0,0.4-0.3,0.4-0.3,0.8c0,0.4,0.3,0.4,0.3,0.8
			c0,0.4-0.6,0.4-0.6,0.8c0,0.4,0.1,0.4,0.1,0.8c0,0.4,0.4,0.4,0.4,0.8c0,0.4-0.5,0.4-0.5,0.8c0,0.4,0,0.4,0,0.8
			c0,0.4,0.6,0.4,0.6,0.8c0,0.4-0.4,0.4-0.4,0.8s0.4,0.4,0.4,0.8c0,0.4-0.5,0.4-0.5,0.8c0,0.4,0.4,0.4,0.4,0.8
			c0,0.4-0.2,0.4-0.2,0.8c0,0.4,0.3,0.4,0.3,0.8c0,0.4-0.2,0.4-0.2,0.8c0,0.4-0.5,0.4-0.5,0.8c0,0.4,0.3,0.4,0.3,0.8
			c0,0.4,0.1,0.4,0.1,0.8c0,0.4,0.1,0.4,0.1,0.8c0,0.4-0.3,0.4-0.3,0.8c0,0.4,0,0.4,0,0.8c0,0.4-0.1,0.4-0.1,0.8s0.1,0.4,0.1,0.8
			c0,0.3,0.2,0.5,0.2,0.8c0,0.3-0.5,0.6-0.5,0.8c0.1,0.3,0.1,0.5,0.2,0.8c0.1,0.3,0.6,0.5,0.7,0.7c0.1,0.3,0.1,0.5,0.3,0.8
			c0.1,0.3,0.2,0.5,0.4,0.8c0.2,0.2,0.5,0.5,0.6,0.7c0.2,0.2,0.2,0.5,0.5,0.7c0.2,0.2,0.7,0.4,0.9,0.6c0.2,0.2,0.3,0.5,0.5,0.7
			c0.3,0.2,0.7,0.3,1,0.5c0.3,0.2,0.4,0.5,0.7,0.7c0.3,0.2,0.5,0.4,0.8,0.6c0.3,0.2,0.4,0.5,0.8,0.7c0.3,0.2,1.1,0.1,1.5,0.2
			c0.3,0.2,0.5,0.4,0.9,0.6c0.4,0.2,0.9,0.2,1.2,0.3c0.4,0.1,0.5,0.5,0.9,0.6c0.4,0.1,0.9,0.2,1.3,0.3c0.4,0.1,0.6,0.5,1,0.6
			c0.4,0.1,0.8,0.2,1.2,0.3c0.4,0.1,1-0.1,1.4,0.1c0.4,0.1,0.7,0.4,1.1,0.4c0.4,0.1,0.9,0,1.4,0.1c0.4,0.1,0.7,0.3,1.2,0.4
			c0.4,0.1,0.9,0.1,1.3,0.2c0.4,0.1,0.9,0.1,1.3,0.2c0.4,0.1,0.9,0.1,1.3,0.1c0.4,0.1,0.8,0.2,1.3,0.3c0.4,0.1,0.9,0.2,1.3,0.2
			c0.4,0,0.9,0,1.3,0.1c0.4,0,0.9-0.2,1.4-0.1c0.4,0,0.9,0.1,1.3,0.1c0.4,0,0.9,0.1,1.3,0.1c0.4,0,0.9,0.1,1.3,0.1
			c0.4,0,0.9,0.3,1.3,0.3C1133.3,1193,1133.7,1193,1134.2,1193z"/>
	</g>
	<path class="st4" d="M1157.3,1147.2c0-0.2-0.1-0.3-0.1-0.5c0-0.2-0.1-0.3-0.1-0.5c0-0.2,0.1-0.3,0.1-0.5c0-0.2-0.2-0.3-0.2-0.4
		c0-0.2,0.1-0.3,0.1-0.5c0-0.2,0-0.3-0.1-0.5c0-0.2,0-0.3-0.1-0.5c0-0.2-0.2-0.3-0.3-0.4c0-0.2,0-0.3-0.1-0.5c0-0.1-0.1-0.3-0.1-0.4
		c0-0.1,0.1-0.4,0.1-0.5c0-0.1-0.1-0.3-0.1-0.4c0-0.1-0.3-0.2-0.4-0.4c-0.1-0.1,0.1-0.4,0-0.5c-0.1-0.1-0.1-0.3-0.2-0.4
		c-0.1-0.1-0.1-0.3-0.2-0.4c-0.1-0.1-0.1-0.3-0.1-0.5c-0.1-0.1-0.3-0.2-0.4-0.3c-0.1-0.1-0.2-0.3-0.3-0.4c-0.1-0.1-0.1-0.3-0.2-0.4
		c-0.1-0.1-0.1-0.3-0.2-0.4c-0.1-0.1-0.3-0.2-0.3-0.3c-0.1-0.1-0.1-0.3-0.2-0.5c-0.1-0.1-0.3-0.2-0.4-0.3c-0.1-0.1-0.3-0.2-0.4-0.3
		c-0.1-0.1-0.2-0.3-0.3-0.4c-0.1-0.1-0.3-0.1-0.4-0.2c-0.1-0.1-0.1-0.4-0.3-0.4c-0.1-0.1-0.3,0-0.5-0.1c-0.1-0.1-0.2-0.2-0.4-0.3
		c-0.1-0.1-0.3,0-0.5-0.1c-0.1-0.1-0.3-0.1-0.4-0.2c-0.1-0.1-0.2-0.2-0.4-0.3c-0.1,0-0.3,0-0.5,0c-0.1,0-0.3-0.1-0.4-0.1
		c-0.2,0-0.3-0.1-0.4-0.1c-0.2,0-0.3,0.1-0.5,0.1c-0.2,0-0.3-0.1-0.5-0.1c-0.2,0-0.2-0.1-0.5-0.1c-0.2,0-0.2,0.1-0.5,0.1
		c-0.2,0-0.2,0.1-0.4,0.1s-0.2-0.1-0.5-0.1s-0.2,0-0.5,0c-0.2,0-0.2,0.1-0.4,0.1c-0.2,0-0.2,0.1-0.5,0.1c-0.2,0-0.2-0.1-0.5-0.1
		c-0.2,0-0.2,0-0.5,0c-0.2,0-0.2-0.1-0.5-0.1c-0.2,0-0.2,0-0.5,0c-0.2,0-0.2,0.1-0.5,0.1s-0.2-0.1-0.5-0.1c-0.2,0-0.2,0.2-0.4,0.2
		c-0.2,0-0.2,0.1-0.5,0.1c-0.2,0-0.2-0.1-0.5-0.1c-0.2,0-0.2-0.1-0.5-0.1c-0.2,0-0.2,0-0.5,0c-0.1,0-0.2,0-0.2,0.1
		c-0.1,0-0.2,0-0.3,0c-0.1,0-0.1,0-0.2,0c-0.1,0-0.1,0-0.2,0c-0.1,0-0.2,0-0.2,0.1c-0.1,0-0.2,0-0.3,0c-0.2,0-0.3-0.2-0.5-0.2
		c-0.2,0-0.2,0.1-0.5,0.1c-0.1,0-0.2,0-0.3,0.1c0,0-0.1,0-0.1,0c-0.1,0-0.1,0-0.2,0c-0.1,0-0.2-0.1-0.3-0.1c-0.2,0-0.2,0-0.5,0
		c-0.2,0-0.2,0-0.5,0c-0.2,0-0.2-0.1-0.5-0.1c-0.2,0-0.2,0-0.5,0c-0.2,0-0.2,0-0.5,0c-0.2,0-0.2,0.1-0.5,0.1c-0.2,0-0.2,0-0.5,0
		c-0.2,0-0.2-0.1-0.5-0.1c-0.2,0-0.2,0.1-0.5,0.1c-0.2,0-0.2,0.1-0.5,0.1c-0.2,0-0.2,0-0.5,0c-0.2,0-0.2-0.1-0.5-0.1
		c-0.2,0-0.2,0.1-0.5,0.1c-0.2,0-0.2-0.2-0.5-0.2c-0.2,0-0.2,0-0.5,0c-0.2,0-0.2,0.1-0.5,0.1c-0.2,0-0.2-0.2-0.5-0.2
		c-0.2,0-0.2,0-0.5,0c-0.2,0-0.2,0.2-0.5,0.2c-0.2,0-0.2-0.1-0.5-0.1c-0.2,0-0.2,0.1-0.5,0.1s-0.2-0.2-0.5-0.2s-0.2,0.1-0.5,0.1
		c-0.2,0-0.2-0.1-0.5-0.1c-0.2,0-0.2,0.1-0.5,0.1c-0.2,0-0.2-0.1-0.5-0.1c-0.2,0-0.2-0.2-0.5-0.2c-0.2,0-0.2,0.1-0.5,0.1
		s-0.2,0-0.5,0c-0.2,0-0.2,0.1-0.5,0c-0.2,0-0.2-0.1-0.5-0.1c-0.2,0-0.2,0-0.5,0c-0.2,0-0.2,0-0.5,0c-0.2,0-0.2,0-0.5,0
		c-0.2,0-0.3,0.1-0.5,0.1c-0.2,0-0.3-0.2-0.5-0.2c-0.2,0-0.3,0-0.5,0.1c-0.2,0-0.3,0.2-0.4,0.2c-0.2,0-0.3,0-0.4,0.1
		c-0.1,0-0.3,0.1-0.4,0.1c-0.1,0.1-0.3,0.2-0.4,0.2c-0.1,0.1-0.3,0.1-0.4,0.2c-0.1,0.1-0.2,0.2-0.3,0.3c-0.1,0.1-0.3,0.1-0.4,0.2
		c-0.1,0.1-0.2,0.2-0.3,0.3c-0.1,0.1-0.3,0.1-0.4,0.2c-0.1,0.1-0.3,0.2-0.4,0.3c-0.1,0.1-0.3,0.2-0.4,0.3c-0.1,0.1,0,0.4-0.1,0.5
		c-0.1,0.1-0.3,0.2-0.4,0.3c-0.1,0.1-0.1,0.3-0.2,0.4c-0.1,0.1-0.3,0.2-0.4,0.3c-0.1,0.1-0.1,0.3-0.2,0.4c-0.1,0.1-0.3,0.2-0.4,0.3
		c-0.1,0.1-0.1,0.3-0.2,0.4c-0.1,0.1,0,0.4,0,0.5c-0.1,0.1-0.2,0.2-0.3,0.4c-0.1,0.1,0,0.3-0.1,0.5c-0.1,0.1-0.2,0.3-0.2,0.4
		c0,0.1-0.1,0.3-0.1,0.4c0,0.1-0.1,0.3-0.1,0.4c0,0.1,0,0.3-0.1,0.5c0,0.1-0.1,0.3-0.2,0.4c0,0.2-0.1,0.3-0.1,0.4c0,0.2,0,0.3,0,0.5
		c0,0.2,0.1,0.3,0.1,0.5c0,0.2-0.1,0.3-0.1,0.5c0,0.2-0.1,0.3-0.1,0.5c0,0.2,0,0.3,0,0.5c0,0.2-0.2,0.3-0.2,0.5c0,0.2,0,0.3,0,0.5
		s0.1,0.3,0.1,0.5s0.1,0.3,0.1,0.5c0,0.2-0.1,0.3-0.1,0.5c0,0.2,0.2,0.3,0.2,0.4c0,0.2-0.1,0.3-0.1,0.5c0,0.2,0,0.3,0.1,0.5
		c0,0.2,0,0.3,0.1,0.5c0,0.2,0.2,0.3,0.3,0.4c0,0.2,0,0.3,0.1,0.5c0,0.1,0.1,0.3,0.1,0.4c0,0.1-0.1,0.4-0.1,0.5
		c0,0.1,0.1,0.3,0.1,0.4c0,0.1,0.3,0.2,0.4,0.4c0.1,0.1-0.1,0.4,0,0.5c0.1,0.1,0.1,0.3,0.2,0.4c0.1,0.1,0.1,0.3,0.2,0.4
		c0.1,0.1,0.1,0.3,0.1,0.5c0.1,0.1,0.3,0.2,0.4,0.3c0.1,0.1,0.2,0.3,0.3,0.4c0.1,0.1,0.1,0.3,0.2,0.4c0.1,0.1,0.1,0.3,0.2,0.4
		c0.1,0.1,0.3,0.2,0.3,0.3c0.1,0.1,0.1,0.3,0.2,0.5c0.1,0.1,0.3,0.2,0.4,0.3c0.1,0.1,0.3,0.2,0.4,0.3c0.1,0.1,0.2,0.3,0.3,0.4
		c0.1,0.1,0.3,0.1,0.4,0.2c0.1,0.1,0.1,0.4,0.3,0.4c0.1,0.1,0.3,0,0.5,0.1c0.1,0.1,0.2,0.2,0.4,0.3c0.1,0.1,0.3,0,0.5,0.1
		c0.1,0.1,0.3,0.1,0.4,0.2c0.1,0.1,0.2,0.2,0.4,0.3c0.1,0,0.3,0,0.5,0c0.1,0,0.3,0.1,0.4,0.1c0.2,0,0.3,0.1,0.4,0.1
		c0.2,0,0.3-0.1,0.5-0.1c0.2,0,0.3,0.1,0.5,0.1c0.2,0,0.2,0.1,0.5,0.1c0.2,0,0.2-0.1,0.5-0.1c0.2,0,0.2-0.1,0.4-0.1
		c0.2,0,0.2,0.1,0.5,0.1c0.2,0,0.2,0,0.5,0c0.2,0,0.2-0.1,0.4-0.1c0.2,0,0.2-0.1,0.5-0.1c0.2,0,0.2,0.1,0.5,0.1c0.2,0,0.2,0,0.5,0
		c0.2,0,0.2,0.1,0.5,0.1c0.2,0,0.2,0,0.5,0c0.2,0,0.2-0.1,0.5-0.1c0.2,0,0.2,0.1,0.5,0.1c0.2,0,0.2-0.2,0.4-0.2s0.2-0.1,0.5-0.1
		c0.2,0,0.2,0.1,0.5,0.1c0.2,0,0.2,0.1,0.5,0.1c0.2,0,0.2,0,0.5,0c0.1,0,0.2,0,0.2-0.1c0.1,0,0.2,0,0.3,0c0.1,0,0.1,0,0.2,0
		c0.1,0,0.1,0,0.2,0c0.1,0,0.2,0,0.2-0.1c0.1,0,0.2,0,0.3,0c0.2,0,0.3,0.2,0.5,0.2c0.2,0,0.2-0.1,0.5-0.1c0.1,0,0.2,0,0.3-0.1
		c0,0,0.1,0,0.1,0c0.1,0,0.1,0,0.2,0c0.1,0,0.2,0.1,0.3,0.1c0.2,0,0.2,0,0.5,0s0.2,0,0.5,0c0.2,0,0.2,0.1,0.5,0.1c0.2,0,0.2,0,0.5,0
		c0.2,0,0.2,0,0.5,0c0.2,0,0.2-0.1,0.5-0.1c0.2,0,0.2,0,0.5,0c0.2,0,0.2,0.1,0.5,0.1c0.2,0,0.2-0.1,0.5-0.1c0.2,0,0.2-0.1,0.5-0.1
		c0.2,0,0.2,0,0.5,0c0.2,0,0.2,0.1,0.5,0.1c0.2,0,0.2-0.1,0.5-0.1c0.2,0,0.2,0.2,0.5,0.2c0.2,0,0.2,0,0.5,0c0.2,0,0.2-0.1,0.5-0.1
		c0.2,0,0.2,0.2,0.5,0.2c0.2,0,0.2,0,0.5,0c0.2,0,0.2-0.2,0.5-0.2c0.2,0,0.2,0.1,0.5,0.1c0.2,0,0.2-0.1,0.5-0.1
		c0.2,0,0.2,0.2,0.5,0.2s0.2-0.1,0.5-0.1c0.2,0,0.2,0.1,0.5,0.1c0.2,0,0.2-0.1,0.5-0.1c0.2,0,0.2,0.1,0.5,0.1c0.2,0,0.2,0.2,0.5,0.2
		c0.2,0,0.2-0.1,0.5-0.1s0.2,0,0.5,0c0.2,0,0.2-0.1,0.5,0s0.2,0.1,0.5,0.1s0.2,0,0.5,0c0.2,0,0.2,0,0.5,0c0.2,0,0.2,0,0.5,0
		c0.2,0,0.3-0.1,0.5-0.1c0.2,0,0.3,0.2,0.5,0.2c0.2,0,0.3,0,0.5-0.1c0.2,0,0.3-0.2,0.4-0.2c0.2,0,0.3,0,0.4-0.1
		c0.1,0,0.3-0.1,0.4-0.1c0.1-0.1,0.3-0.2,0.4-0.2c0.1-0.1,0.3-0.1,0.4-0.2c0.1-0.1,0.2-0.2,0.3-0.3c0.1-0.1,0.3-0.1,0.4-0.2
		c0.1-0.1,0.2-0.2,0.3-0.3c0.1-0.1,0.3-0.1,0.4-0.2c0.1-0.1,0.3-0.2,0.4-0.3c0.1-0.1,0.3-0.2,0.4-0.3c0.1-0.1,0-0.4,0.1-0.5
		c0.1-0.1,0.3-0.2,0.4-0.3c0.1-0.1,0.1-0.3,0.2-0.4c0.1-0.1,0.3-0.2,0.4-0.3c0.1-0.1,0.1-0.3,0.2-0.4c0.1-0.1,0.3-0.2,0.4-0.3
		c0.1-0.1,0.1-0.3,0.2-0.4c0.1-0.1,0-0.4,0-0.5c0.1-0.1,0.2-0.2,0.3-0.4c0.1-0.1,0-0.3,0.1-0.5c0.1-0.1,0.2-0.3,0.2-0.4
		c0-0.1,0.1-0.3,0.1-0.4c0-0.1,0.1-0.3,0.1-0.4c0-0.1,0-0.3,0.1-0.5c0-0.1,0.1-0.3,0.2-0.4c0-0.1,0.1-0.3,0.1-0.4c0-0.2,0-0.3,0-0.5
		c0-0.2-0.1-0.3-0.1-0.5c0-0.2,0.1-0.3,0.1-0.5c0-0.2,0.1-0.3,0.1-0.5c0-0.2,0-0.3,0-0.5c0-0.2,0.2-0.3,0.2-0.5
		C1157.3,1147.5,1157.3,1147.4,1157.3,1147.2z"/>
</g>
<g>
	<defs>
		<rect id="SVGID_9_" x="1021.4" y="965.7" width="377.4" height="263.3"/>
	</defs>
	<clipPath id="SVGID_2_">
		<use xlink:href="#SVGID_9_"  style="overflow:visible;"/>
	</clipPath>
	<g class="st3">
		<path class="st8" d="M1309,1158.7c0-0.7-0.5-0.7-0.5-1.3c0-0.7,0.1-0.7,0.1-1.3c0-0.7-0.3-0.7-0.3-1.3c0-0.7,0.4-0.7,0.4-1.3
			c0-0.7-0.2-0.7-0.2-1.3c0-0.7-0.2-0.7-0.2-1.3c0-0.7,0-0.7,0-1.3c0-0.7,0.4-0.7,0.4-1.3c0-0.7,0.2-0.7-0.2-1.2
			c-0.5-0.5-0.5,0.2-1.2,0.2s-0.7-0.6-1.4-0.6c-0.7,0-0.7,0.1-1.4,0.1c-0.7,0-0.7,0.6-1.4,0.6c-0.7,0-0.7-0.2-1.4-0.2
			c-0.7,0-0.7-0.1-1.4-0.1c-0.7,0-0.7,0.1-1.4,0.1c-0.7,0-0.7-0.2-1.4-0.2c-0.7,0-0.7,0.3-1.4,0.3c-0.7,0-0.7,0-1.4,0
			c-0.7,0-0.7-0.1-1.4-0.1c-0.7,0-0.7,0.2-1.4,0.2c-0.7,0-0.7-0.2-1.4-0.2c-0.7,0-0.7-0.4-1.4-0.4c-0.7,0-0.7-0.1-1.4-0.1
			c-0.7,0-0.7,0.7-1.4,0.7c-0.7,0-0.7-0.5-1.4-0.5c-0.7,0-0.7-0.1-1.4-0.1c-0.7,0-0.7,0.1-1.4,0.1c-0.7,0-0.7,0.4-1.4,0.4
			c-0.7,0-0.7-0.5-1.4-0.5c-0.7,0-0.7,0.4-1.4,0.4c-0.7,0-0.7-0.5-1.4-0.5c-0.7,0-0.7,0.2-1.4,0.2c-0.7,0-0.7,0.2-1.4,0.2
			c-0.7,0-0.7,0.2-1.4,0.2c-0.7,0-0.7-0.1-1.4-0.1c-0.7,0-0.7-0.2-1.4-0.2c-0.7,0-0.7-0.1-1.4-0.1c-0.7,0-0.7,0.2-1.4,0.2
			c-0.7,0-0.7,0-1.4,0c-0.7,0-0.7-0.2-1.4-0.2c-0.7,0-0.7,0.2-1.4,0.2c-0.7,0-0.7,0.3-1.4,0.3s-0.8-0.7-1.3-0.2
			c-0.5,0.5-0.4,0.6-0.4,1.3c0,0.7,0.2,0.7,0.2,1.4c0,0.7,0.3,0.7,0.3,1.4c0,0.7,0.2,0.7,0.2,1.4c0,0.7-0.1,0.7-0.1,1.4
			c0,0.7,0.2,0.7,0.2,1.4c0,0.7-0.4,0.7-0.4,1.4c0,0.7-0.1,0.7-0.1,1.4c0,0.7,0.3,0.7,0.3,1.4c0,0.7-0.5,0.7-0.5,1.4
			c0,0.7,0.1,0.7,0.1,1.4c0,0.7,0,0.7,0,1.4c0,0.7-0.1,0.7-0.1,1.4c0,0.7,0,0.7,0.2,1.4c0.4,0.3,1,0.3,1.4,0.5
			c0.4,0.3,0.5,0.9,0.9,1.2c0.4,0.3,1,0.1,1.4,0.3c0.4,0.2,0.5,1,0.9,1.3c0.4,0.2,0.9,0.2,1.4,0.4c0.4,0.2,0.7,0.6,1.2,0.8
			c0.4,0.2,0.9,0.2,1.4,0.4c0.4,0.2,0.9,0.1,1.4,0.3c0.4,0.1,0.8,0.6,1.2,0.7c0.4,0.1,1-0.2,1.5-0.1c0.4,0.1,0.8,0.7,1.3,0.7
			c0.5,0.1,0.9,0.1,1.4,0.2c0.5,0.1,0.9,0.1,1.4,0.1c0.5,0.1,0.9-0.2,1.4-0.1c0.5,0,0.9,0.3,1.4,0.3c0.5,0,0.9,0.3,1.4,0.3
			c0.5,0,0.9,0.1,1.4,0.1c0.5,0,0.9,0.1,1.4,0.1c0.5,0,0.9-0.2,1.4-0.2c0.5,0,0.9,0,1.4,0c0.5,0,0.9-0.1,1.4-0.2
			c0.5,0,0.9-0.4,1.3-0.4c0.5-0.1,0.9,0,1.4-0.1c0.5-0.1,0.9-0.2,1.4-0.3c0.5-0.1,0.9,0,1.4-0.1c0.5-0.1,0.8-0.7,1.2-0.8
			c0.4-0.1,1,0.3,1.5,0.1c0.4-0.1,0.8-0.6,1.2-0.7c0.4-0.1,0.9-0.1,1.4-0.3c0.4-0.1,0.8-0.5,1.3-0.6c0.4-0.2,0.8-0.4,1.3-0.6
			c0.4-0.2,1,0.1,1.5-0.1c0.4-0.2,0.6-0.9,1-1.1c0.4-0.2,1,0,1.5-0.2c0.4-0.2,0.9-0.3,1.3-0.5c0.4-0.2,0.4-0.7,0.8-1
			c0.2-0.6,0.4-0.6,0.4-1.3c0-0.7-0.4-0.7-0.4-1.3c0-0.7,0.5-0.7,0.5-1.3c0-0.7-0.5-0.7-0.5-1.3c0-0.7,0.5-0.7,0.5-1.3
			C1309,1159.4,1309,1159.4,1309,1158.7z"/>
		<path class="st8" d="M1322.4,1181c-0.5-0.4-0.4-0.7-1-0.9c-0.6-0.2-0.8,0.1-1.4-0.1c-0.6-0.2-0.7,0.1-1.4-0.2
			c-0.6-0.2-0.5-0.5-1.2-0.7c-0.6-0.2-0.7-0.1-1.3-0.3c-0.6-0.2-0.6-0.4-1.2-0.6c-0.6-0.2-0.7-0.2-1.3-0.4s-0.7,0-1.3-0.2
			c-0.6-0.2-0.6-0.2-1.3-0.4c-0.6-0.2-0.5-0.7-1.1-0.8c-0.6-0.1-0.7,0.1-1.1-0.5c-0.4-0.5-0.2-0.5-0.2-1.2c0-0.7,0-0.7,0-1.3
			c0-0.7-0.1-0.7-0.1-1.3c0-0.7,0-0.7,0-1.3c0-0.7,0-0.7,0-1.3c0-0.7,0.2-0.7,0.2-1.3c0-0.7,0.5-0.8,0.3-1.5
			c-0.4,0.2-1.2,0.5-1.6,0.7c-0.4,0.2-0.7,0.6-1.1,0.8c-0.4,0.2-0.8,0.4-1.3,0.6c-0.4,0.2-1,0.1-1.4,0.3c-0.4,0.2-0.9,0.3-1.3,0.5
			c-0.4,0.2-0.7,0.7-1.2,0.8c-0.4,0.2-1,0.1-1.4,0.2c-0.4,0.1-0.9,0.3-1.3,0.5c-0.4,0.1-0.9,0.1-1.4,0.2c-0.4,0.1-0.9,0.1-1.4,0.2
			c-0.4,0.1-0.8,0.7-1.2,0.8c-0.5,0.1-0.9,0.1-1.4,0.2c-0.5,0.1-0.9,0.3-1.4,0.3c-0.5,0.1-1-0.1-1.4-0.1c-0.5,0.1-0.9,0.5-1.3,0.5
			c-0.5,0-0.9,0-1.4,0c-0.5,0-0.9-0.3-1.4-0.3c-0.5,0-0.9,0.5-1.4,0.5c-0.5,0-0.9,0-1.4,0c-0.5,0-0.9,0-1.4,0
			c-0.5,0-0.9-0.1-1.4-0.1c-0.5,0-0.9-0.3-1.4-0.3c-0.5,0-0.9-0.2-1.4-0.3c-0.5-0.1-0.9-0.3-1.3-0.3c-0.5-0.1-0.9-0.3-1.3-0.4
			c-0.5-0.1-1,0.3-1.5,0.2c-0.4-0.1-0.9-0.2-1.4-0.3c-0.4-0.1-0.8-0.7-1.2-0.9c-0.4-0.1-0.8-0.4-1.3-0.6c-0.4-0.2-1,0.1-1.4-0.1
			c-0.4-0.2-0.8-0.5-1.2-0.7c-0.4-0.2-1,0-1.4-0.2c-0.4-0.2-0.8-0.5-1.2-0.7c-0.4-0.2-0.7-0.7-1-1c-0.4-0.3-0.5-0.8-0.9-1.1
			c-0.4-0.3-0.7-0.2-1.1-0.5c-0.2,0.6-0.4,0.6-0.4,1.3c0,0.7,0.3,0.7,0.3,1.3c0,0.7-0.4,0.7-0.4,1.3c0,0.7,0.5,0.7,0.6,1.3
			c0,0.7-0.3,0.7-0.3,1.3c0,0.7,0.3,0.7,0.3,1.3s0.3,0.9-0.1,1.4c-0.4,0.6-0.8-0.2-1.5,0c-0.7,0.2-0.6,0.4-1.3,0.6
			c-0.7,0.2-0.7,0.2-1.4,0.4c-0.7,0.2-0.7,0.2-1.3,0.4c-0.7,0.2-0.7,0.2-1.3,0.4c-0.7,0.2-0.7,0-1.4,0.1c-0.7,0.2-0.6,0.3-1.3,0.5
			c-0.7,0.2-0.7,0.2-1.3,0.4c-0.7,0.2-0.7,0-1.4,0.2c-0.7,0.2-0.6,0.3-1.3,0.5c-0.7,0.2-0.7,0.3-1.2,0.7c-0.6,0.4,0,0.4,0.3,1.2
			c0.2,0.3,0.4,0.7,0.7,1.2c0.2,0.4,0.3,0.8,0.6,1.3c0.2,0.4,0.4,0.8,0.6,1.2c0.2,0.4,0.7,0.6,0.9,1.1c0.2,0.4,0,1,0.2,1.4
			c0.2,0.4,0.8,0.6,1,1c0.2,0.4,0,1,0.2,1.4c0.2,0.4,0.8,0.6,1,1c0.2,0.4,0.1,1,0.4,1.4c0.2,0.4,0.3,0.9,0.6,1.3
			c0.2,0.4,0.7,0.7,0.9,1.1c0.2,0.4,0.3,0.9,0.5,1.3c0.2,0.4,0.7,0.6,0.9,1c0.2,0.4,0.5,0.8,0.7,1.2c0.2,0.4,0.4,0.8,0.6,1.2
			c0.2,0.4,0.3,0.9,0.6,1.3c0.2,0.4,0.8,0.6,1,1c0.2,0.4,0.4,0.8,0.7,1.2c0.2,0.4,0.2,1,0.4,1.4c0.2,0.4,0.6,0.7,0.8,1.1
			c0.3,0.4,0.8,0.6,1.1,0.9c0.3,0.4,0.2,1,0.4,1.4c0.3,0.4,0.7,0.6,1,1c0.3,0.4,0.7,0.6,1,1c0.3,0.4,0.2,1,0.5,1.4
			c0.3,0.4,0.9,0.4,1.2,0.8c0.3,0.4,0.1,1.1,0.4,1.4c0.3,0.4,0.7,0.6,1,1c0.3,0.4,1,0.4,1.2,0.8c0.3,0.4,0.5,0.8,0.8,1.1
			c0.3,0.3,0.4,0.9,0.7,1.2c0.3,0.3,0.6,0.7,0.9,1c0.3,0.3,0.9,0.4,1.2,0.7c0.3,0.3,0.2,1.1,0.5,1.4c0.3,0.3,1.1,0.2,1.4,0.5
			c0.3,0.3,0.7,0.6,1.1,0.9c0.4,0.3,0.3,1.1,0.7,1.4c0.4,0.3,1,0.2,1.4,0.5c0.4,0.3,0.8,0.5,1.2,0.7c0.4,0.2,0.7,0.7,1.1,0.9
			c0.4,0.2,0.8,0.4,1.2,0.6c0.4,0.2,0.8,0.6,1.2,0.7c0.4,0.2,1,0.1,1.4,0.2c0.5,0.1,1-0.2,1.4-0.2c0.5,0.1,0.9,0.5,1.3,0.5
			c0.5,0,0.9,0.3,1.4,0.2c0.4-0.1,0.9-0.2,1.4-0.3c0.4-0.1,0.8-0.6,1.2-0.8c0.4-0.1,0.8-0.5,1.2-0.7c0.4-0.2,1-0.1,1.4-0.3
			c0.4-0.2,0.9-0.3,1.2-0.6c0.4-0.2,0.7-0.6,1.1-0.8c0.4-0.3,0.8-0.4,1.2-0.7c0.4-0.3,0.6-0.7,1-1c0.3-0.3,0.8-0.5,1.1-0.8
			c0.3-0.3,0.6-0.7,0.9-1c0.3-0.3,0.4-0.9,0.7-1.2c0.3-0.3,0.9-0.4,1.2-0.7c0.3-0.3,0.6-0.6,0.9-1c0.3-0.3,0.2-1,0.5-1.4
			c0.3-0.3,0.8-0.5,1.1-0.9c0.3-0.3,0.4-0.8,0.7-1.2c0.3-0.4,1-0.4,1.2-0.8c0.3-0.4,0.3-0.9,0.6-1.3c0.3-0.4,0.6-0.7,0.9-1.1
			c0.3-0.4,0.2-0.9,0.5-1.3c0.3-0.4,0.9-0.5,1.2-0.8c0.3-0.4,0.4-0.8,0.6-1.2c0.2-0.4,0.3-0.9,0.5-1.3c0.2-0.4,0.8-0.6,1-0.9
			c0.2-0.4,0.3-0.9,0.6-1.3c0.2-0.4,0.6-0.7,0.8-1.1c0.2-0.4,0.3-0.9,0.5-1.3c0.2-0.4,0.6-0.7,0.9-1.1c0.2-0.4,0.5-0.8,0.7-1.2
			c0.2-0.4,0.4-0.8,0.6-1.2c0.2-0.4,0.6-0.7,0.8-1.1c0.2-0.4,0.1-1,0.3-1.4c0.2-0.4,0.7-0.7,0.9-1.1c0.2-0.4,0.5-0.8,0.7-1.1
			c0.2-0.4-0.2-1.1,0-1.5c0.2-0.4,0.6-0.7,0.8-1.1c0.2-0.4,0.2-0.9,0.4-1.3c0.2-0.4,0.6-0.7,0.8-1.1c0.2-0.4,0.3-0.9,0.5-1.3
			c0.2-0.4,0.9-0.6,1-1c0.2-0.4,0.1-1,0.3-1.4c0.2-0.4,0.1-1,0.3-1.4c0.2-0.5,0.7-0.8,0.9-1.1
			C1322.4,1181.3,1323,1181.5,1322.4,1181z"/>
		<path class="st8" d="M1319.7,1068.6c-0.7,0-0.6-0.3-1.3-0.5c-0.7-0.1-0.7,0.1-1.4,0s-0.7,0-1.4-0.1c-0.7-0.1-0.7-0.1-1.4-0.3
			c-0.7-0.1-0.7,0-1.4-0.2c-0.7-0.1-0.7-0.2-1.3-0.3c-0.7-0.1-0.7,0-1.4-0.1c-0.7-0.1-0.7-0.2-1.3-0.4c-0.7-0.1-0.6-0.3-1.3-0.4
			c-0.7-0.1-0.6-0.5-1.3-0.6c-0.7-0.1-0.8,0.2-1.4,0.1c-0.7-0.1-0.6-0.6-1.2-0.8c-0.7-0.1-0.7-0.1-1.4-0.3c-0.7-0.1-0.8,0.5-1.5,0.3
			c-0.7-0.1-0.6-0.6-1.2-0.8c-0.7-0.1-0.7,0.1-1.4,0c-0.7-0.1-0.7-0.1-1.4-0.2c-0.7-0.1-0.7-0.1-1.4-0.2c-0.7-0.1-0.6-0.4-1.3-0.6
			c-0.7-0.1-0.7,0.2-1.4,0c-0.7-0.1-0.6-0.4-1.3-0.6c-0.7-0.1-0.7-0.1-1.4-0.2c-0.7-0.1-0.7-0.1-1.4-0.3c-0.7-0.1-0.6-0.3-1.3-0.5
			c-0.7-0.1-0.7,0-1.4-0.1c-0.7-0.1-0.7-0.1-1.4-0.3c-0.7-0.1-0.6-0.4-1.3-0.5c-0.7-0.1-0.8,0.4-1.5,0.3c-0.7-0.1-0.6-0.4-1.3-0.5
			c-0.7-0.1-0.7,0-1.4-0.1c-0.7-0.1-0.6-0.5-1.3-0.7c-0.7-0.1-0.6-0.3-1.3-0.5c-0.7-0.1-0.8,0.3-1.5,0.2c-0.7-0.1-0.6-0.4-1.3-0.6
			c-0.7-0.1-0.7,0.1-1.4-0.1c-0.7-0.1-0.6-0.5-1.3-0.4c-0.7,0.1-0.7,0.2-1.3,0.5c-0.6,0.3-0.6,0.4-1.1,0.7c-0.6,0.3-0.5,0.5-1.1,0.8
			c-0.6,0.3-0.5,0.6-1,0.9s-0.6,0.3-1.2,0.7c-0.6,0.3-0.7,0.2-1.2,0.6c-0.6,0.3-0.6,0.3-1.2,0.7c-0.6,0.3-0.6,0.2-1.2,0.6
			c-0.6,0.3-0.7,0.1-1.3,0.4c-0.6,0.3-0.5,0.4-1.1,0.8c-0.6,0.3-0.4,0.6-1,1c-0.6,0.3-0.6,0.3-1.2,0.7c-0.6,0.3-0.8,0-1.3,0.4
			c-0.6,0.3-0.6,0.3-1.2,0.6c-0.6,0.3-0.4,0.7-0.9,1.1c-0.6,0.3-0.7,0.2-1.2,0.6c-0.6,0.3-0.5,0.5-1.1,0.9c-0.6,0.3-0.6,0.4-1.1,0.7
			c-0.6,0.3-0.6,0.3-1.2,0.7c-0.6,0.3-1-0.1-1.3,0.5c-0.3,0.6-0.1,0.7-0.1,1.4s0.1,0.7,0.1,1.4c0,0.7-0.1,0.7-0.1,1.4
			s0.3,0.7,0.3,1.4s-0.2,0.7-0.2,1.4c0,0.7,0.6,0.7,0.6,1.4c0,0.7-0.3,0.7-0.2,1.4c0,0.7-0.4,0.7-0.4,1.4c0,0.7,0.3,0.7,0.3,1.4
			c0,0.7,0,0.7,0,1.4c0,0.7,0.2,0.7,0.2,1.4c0,0.7,0,0.7,0,1.4c0,0.7-0.3,0.7-0.3,1.4c0,0.7,0.7,0.7,0.7,1.3c0,0.7-0.7,0.7-0.7,1.4
			c0,0.7,0.3,0.7,0.3,1.4c0,0.7,0.4,0.7,0.4,1.4c0,0.7-0.5,0.7-0.5,1.4c0,0.7,0.2,0.7,0.2,1.4c0,0.7,0.4,0.7,0.4,1.4
			c0,0.7-0.1,0.7-0.1,1.4c0,0.7,0.2,0.7,0.3,1.4c0,0.7-0.6,0.7-0.5,1.4c0,0.7,0.6,0.7,0.6,1.4c0,0.7-0.2,0.7-0.2,1.4
			c0,0.7,0.2,0.7,0.3,1.4c0,0.7-0.2,0.7-0.2,1.4c0,0.7-0.3,0.7-0.3,1.4c0,0.7,0,0.7,0,1.4c0,0.7-0.1,0.7-0.1,1.4
			c0,0.7,0.2,0.7,0.2,1.4c0,0.7,0.3,0.7,0.3,1.4c0,0.7-0.2,0.7-0.2,1.4c0,0.7,0.5,0.7,0.5,1.4c0,0.7-0.5,0.7-0.5,1.4
			c0,0.7,0.2,0.7,0.2,1.4c0,0.7,0.2,0.7,0.3,1.4c0,0.7-0.5,0.7-0.5,1.4c0,0.7,0.5,0.7,0.5,1.4c0,0.7-0.1,0.7-0.1,1.4
			c0,0.5,0,0.9,0,1.4c0,0.5,0.4,0.9,0.4,1.3c0,0.5,0.1,0.9,0.2,1.3c0.1,0.5,0.1,0.9,0.1,1.4c0.1,0.5,0,0.9,0.1,1.4
			c0.1,0.4,0.4,0.8,0.5,1.3c0.1,0.4-0.1,1,0,1.4c0.1,0.4,0.5,0.8,0.6,1.2c0.1,0.4-0.3,1.1-0.1,1.5c0.2,0.4,0.7,0.7,0.9,1.1
			c0.2,0.4,0.4,0.8,0.6,1.2c0.2,0.4,0.2,0.9,0.4,1.3c0.2,0.4,0.6,0.7,0.8,1.1c0.2,0.4,0.5,0.8,0.7,1.2c0.2,0.4,0.5,0.8,0.7,1.2
			c0.2,0.4,0.1,1,0.4,1.4c0.3,0.4,0.7,0.6,0.9,1c0.3,0.4,0.9,0.5,1.1,0.8c0.3,0.4,0.6,0.7,0.8,1.1c0.3,0.3,0.6,0.7,0.9,1
			c0.3,0.3,0.3,0.9,0.7,1.3c0.3,0.3,0.8,0.5,1.1,0.8c0.3,0.3,0.4,0.9,0.7,1.2s1.1,0.1,1.5,0.3c0.4,0.3,0.7,0.5,1.1,0.8
			c0.4,0.3,0.5,0.9,0.9,1.1c0.4,0.3,0.9,0.3,1.3,0.6c0.4,0.2,0.8,0.3,1.2,0.6c0.4,0.2,0.6,0.8,1,1c0.4,0.2,0.7,0.6,1.1,0.8
			c0.4,0.2,1-0.1,1.5,0.1c0.4,0.2,0.8,0.3,1.3,0.5c0.4,0.2,0.7,0.7,1.2,0.8c0.4,0.1,1-0.1,1.4,0c0.4,0.1,0.8,0.5,1.2,0.6
			c0.4,0.1,0.8,0.5,1.3,0.6c0.4,0.1,0.9,0.2,1.4,0.3c0.4,0.1,0.9-0.1,1.4,0c0.5,0.1,0.9-0.3,1.4-0.2c0.5,0,0.9,0.2,1.3,0.3
			c0.5,0,0.9,0.1,1.4,0.1c0,0,0,0.2,0,0.2c0.5,0,0.9-0.4,1.4-0.4c0.5,0,0.9-0.1,1.4-0.2c0.5,0,1,0.4,1.4,0.3
			c0.5-0.1,0.8-0.7,1.3-0.8c0.5-0.1,0.9-0.1,1.3-0.2c0.4-0.1,0.9-0.2,1.3-0.3c0.4-0.1,1,0.1,1.4,0c0.4-0.1,0.8-0.4,1.3-0.5
			c0.4-0.1,0.8-0.4,1.3-0.5c0.4-0.2,1,0.1,1.4-0.1c0.4-0.2,0.7-0.7,1.1-0.9c0.4-0.2,0.9-0.3,1.3-0.5c0.4-0.2,0.7-0.7,1.1-0.9
			c0.4-0.2,1-0.2,1.3-0.4c0.4-0.2,0.8-0.5,1.2-0.7c0.4-0.3,0.8-0.4,1.2-0.7c0.4-0.3,0.6-0.7,0.9-1c0.4-0.3,0.8-0.5,1.2-0.8
			c0.3-0.3,0.6-0.7,1-1c0.3-0.3,0.4-0.9,0.7-1.2c0.3-0.3,0.6-0.6,1-1c0.3-0.3,0.6-0.6,0.9-1c0.3-0.3,0.7-0.6,1-1
			c0.3-0.4,0.5-0.7,0.8-1.1c0.3-0.4,0.7-0.6,1-1c0.3-0.4,0.5-0.8,0.7-1.2c0.2-0.4,0.5-0.8,0.7-1.2c0.2-0.4,0.3-0.9,0.5-1.3
			c0.2-0.4,0.2-0.9,0.4-1.3c0.2-0.4,0.5-0.7,0.7-1.2c0.2-0.4,0.2-0.9,0.4-1.3c0.2-0.4,0.9-0.6,1-1.1c0.2-0.4,0.2-0.9,0.4-1.3
			c0.1-0.4,0.4-0.8,0.5-1.3c0.1-0.4-0.2-1-0.1-1.4c0.1-0.4,0.3-0.9,0.4-1.3c0.1-0.4,0.1-0.9,0.2-1.4c0.1-0.4,0.3-0.9,0.4-1.3
			c0.1-0.5,0.1-0.9,0.2-1.4c0-0.5-0.1-0.9-0.1-1.4c0-0.5,0.2-0.9,0.2-1.4c0-0.7,0.1-0.7,0.1-1.4c0-0.7-0.4-0.7-0.4-1.4
			c0-0.7,0-0.7,0-1.4c0-0.7,0.4-0.7,0.4-1.4c0-0.7-0.1-0.7,0-1.4c0-0.7-0.5-0.7-0.5-1.4c0-0.7,0.5-0.7,0.5-1.4
			c0-0.7-0.1-0.7-0.1-1.4c0-0.7,0.2-0.7,0.2-1.4c0-0.7,0-0.7,0-1.4c0-0.7-0.3-0.7-0.2-1.4c0-0.7,0.4-0.7,0.4-1.4
			c0-0.7-0.4-0.7-0.4-1.4c0-0.7,0.1-0.7,0.1-1.4c0-0.7,0-0.7,0-1.4c0-0.7,0.1-0.7,0.2-1.4c0-0.7-0.1-0.7-0.1-1.4c0-0.7,0-0.7,0-1.4
			c0-0.7-0.1-0.7-0.1-1.4c0-0.7,0.3-0.7,0.3-1.4c0-0.7-0.6-0.7-0.6-1.4c0-0.7,0.4-0.7,0.4-1.4c0-0.7,0.2-0.7,0.2-1.4
			c0-0.7-0.3-0.7-0.3-1.4c0-0.7-0.2-0.7-0.2-1.4c0-0.7,0-0.7,0-1.4c0-0.7,0.5-0.7,0.6-1.4c0-0.7-0.2-0.7-0.2-1.4
			c0-0.7-0.3-0.7-0.3-1.4c0-0.7,0.3-0.7,0.3-1.4c0-0.7-0.1-0.7-0.1-1.4c0-0.7,0.4-0.7,0.4-1.4s-0.5-0.7-0.5-1.4
			c0-0.7,0.6-0.7,0.7-1.4c0-0.7,0-0.7,0.1-1.4c0-0.7-0.2-0.7-0.2-1.4c0-0.7-0.4-0.7-0.4-1.4c0-0.7,0.1-0.7,0.1-1.4
			c0-0.7,0.1-0.7,0.1-1.4c0-0.7-0.1-0.7-0.1-1.4c0-0.7,0.6-0.7,0.6-1.4c0-0.7,0.4-1.1,0-1.6
			C1320.9,1068.3,1320.6,1068.5,1319.7,1068.6z"/>
		<path class="st8" d="M1250.2,1120.7c0-0.7-0.3-0.7-0.3-1.4c0-0.7,0-0.7,0-1.4c0-0.7,0.2-0.7,0.2-1.4c0-0.7-0.4-0.7-0.4-1.3
			c0-0.7,0.3-0.7,0.3-1.4c0-0.7-0.5-0.7-0.6-1.3c0-0.7,0-0.7-0.1-1.4c0-0.7,0.5-0.7,0.5-1.4c0-0.7-0.6-0.6-0.7-1.3
			c0-0.7,0.1-0.7,0-1.4c0-0.7,0.3-0.7,0.2-1.4c0-0.7-0.4-0.7-0.4-1.3c0-0.7,0.2-0.7,0.2-1.4c0-0.7,0-0.7-0.1-1.4
			c0-0.7-0.4-0.7-0.5-1.3c0-0.7,0.3-0.7,0.3-1.4c0-0.7,0.1-0.7,0-1.4c0-0.7,0.2-0.8-0.1-1.4c-0.5,0-1,0.1-1.5,0.1
			c-0.5,0-0.9,0.4-1.3,0.5c-0.5,0.1-0.9,0.3-1.3,0.4c-0.4,0.1-1-0.1-1.4,0.1c-0.4,0.2-0.8,0.4-1.3,0.6c-0.4,0.2-1,0.3-1.3,0.5
			c-0.4,0.3-0.7,0.7-1,1c-0.4,0.3-0.6,0.7-0.9,1.1c-0.3,0.3-0.6,0.7-0.9,1.1c-0.3,0.4-0.4,0.8-0.7,1.2c-0.2,0.4-0.3,0.8-0.5,1.3
			c-0.2,0.4-0.5,0.8-0.7,1.2c-0.2,0.4-0.7,0.8-0.8,1.2c-0.1,0.4,0.1,1,0,1.4c-0.1,0.5-0.4,0.9-0.5,1.4c0,0.5,0.4,0.9,0.4,1.4
			c0,0.5-0.2,0.9-0.1,1.4c0.1,0.5,0.4,0.8,0.5,1.3c0.1,0.4,0.2,0.9,0.4,1.3c0.2,0.4,0.6,0.7,0.8,1.1c0.2,0.4,0.4,0.8,0.6,1.2
			c0.3,0.4,0.4,0.9,0.7,1.2c0.3,0.3,0.7,0.6,1,0.9c0.3,0.3,0.5,0.8,0.9,1.1c0.4,0.3,1.1,0,1.5,0.3c0.4,0.2,0.5,1,0.9,1.2
			c0.4,0.2,0.9,0.3,1.3,0.5c0.4,0.2,0.8,0.5,1.2,0.7c0.4,0.2,1.1-0.4,1.5-0.2c0.4,0.1,0.8,0.4,1.3,0.5c0.5,0.1,0.9,0.4,1.3,0.5
			c0.5,0,0.9-0.1,1.3-0.1c0.2-0.7,0.2-0.7,0.1-1.4C1250.2,1121.4,1250.3,1121.4,1250.2,1120.7z"/>
		<path class="st8" d="M1332,1111.1c-0.1-0.5-0.6-0.8-0.7-1.3c-0.1-0.5,0.1-1-0.1-1.4c-0.2-0.5-0.6-0.8-0.8-1.2
			c-0.2-0.4-0.1-1-0.3-1.4c-0.3-0.4-0.4-0.9-0.7-1.2c-0.3-0.4-0.7-0.6-1.1-0.9c-0.4-0.3-0.8-0.5-1.2-0.8c-0.4-0.3-0.8-0.5-1.2-0.7
			c-0.4-0.2-0.9-0.2-1.4-0.4c-0.4-0.2-0.9-0.1-1.4-0.2c-0.4-0.1-0.9-0.4-1.3-0.5c-0.5-0.1-0.9-0.1-1.4-0.1c-0.5,0-1.3-0.2-1.7-0.2
			c-0.3,0.6,0,0.8,0,1.5c0,0.7,0.2,0.7,0.2,1.4c0,0.7,0.1,0.7,0,1.4c0,0.7,0,0.7-0.1,1.4c0,0.7-0.1,0.7-0.2,1.4
			c0,0.7-0.4,0.7-0.4,1.3c0,0.7,0.4,0.7,0.3,1.4c0,0.7,0,0.7-0.1,1.4c0,0.7-0.3,0.7-0.4,1.3c0,0.7,0.3,0.7,0.3,1.4
			c0,0.7-0.4,0.7-0.4,1.3c0,0.7-0.1,0.7-0.2,1.4c0,0.7,0.5,0.7,0.5,1.4c0,0.7-0.6,0.6-0.6,1.3c0,0.7,0,0.7-0.1,1.4
			c0,0.7,0.5,0.8,0.4,1.4c-0.1,0.7-0.6,0.7-0.4,1.3c0.5,0,1-0.1,1.5-0.2c0.5,0,1,0.2,1.4,0.1c0.5-0.1,1,0.1,1.4,0
			c0.5-0.1,0.8-0.9,1.2-1c0.5-0.1,0.9-0.1,1.4-0.2c0.4-0.2,0.8-0.5,1.2-0.6c0.4-0.2,1.1,0.2,1.5-0.1c0.4-0.2,0.5-1,0.8-1.3
			c0.4-0.3,0.9-0.4,1.2-0.7c0.3-0.3,0.6-0.7,0.9-1.1c0.3-0.4,0.8-0.6,1-1c0.2-0.4,0.6-0.8,0.7-1.3c0.1-0.4,0.1-1,0.1-1.5
			c0.1-0.4,0.2-0.9,0.2-1.4c0-0.5-0.2-0.9-0.3-1.4C1331.8,1112,1332,1111.5,1332,1111.1z"/>
		<polygon class="st4" points="1334.1,1071.4 1334,1070.1 1333.9,1068.8 1333.7,1067.6 1332.9,1066.5 1332.4,1065.3 1332,1064.1 
			1330.9,1063.3 1330.3,1062.2 1329.7,1061 1329,1060 1328.1,1059.1 1327.3,1058.1 1326,1057.6 1325.2,1056.6 1324.4,1055.6 
			1323.3,1055 1322.5,1053.9 1321.3,1053.4 1320.3,1052.6 1319.5,1051.6 1318.5,1050.8 1317.3,1050.3 1316.6,1049.1 1315.2,1048.8 
			1314.6,1047.6 1313.7,1046.7 1312.7,1045.8 1311.5,1045.3 1310.6,1044.4 1309.3,1044 1308.7,1042.7 1307.4,1042.3 1306.5,1041.4 
			1305.3,1040.8 1304,1040.6 1303,1039.7 1301.9,1039 1300.8,1038.4 1299.5,1038.3 1298.3,1037.8 1297.1,1037.2 1295.9,1036.8 
			1294.7,1036.3 1293.3,1036.6 1292.2,1035.9 1290.9,1035.8 1289.6,1036 1288.4,1035.3 1287.1,1035.2 1285.8,1035.5 1284.5,1035.5 
			1283.3,1035.3 1282,1035.7 1280.7,1035.7 1279.4,1035.4 1278.2,1036.1 1276.9,1035.8 1275.7,1036.3 1274.3,1036.2 1273.3,1037.1 
			1272,1037.1 1270.7,1037.4 1269.5,1037.9 1268.4,1038.6 1267.3,1039.2 1266,1039.4 1264.9,1040 1263.8,1040.8 1262.7,1041.4 
			1261.8,1042.3 1260.8,1043 1259.5,1043.5 1258.6,1044.4 1257.8,1045.4 1256.6,1046 1256.1,1047.3 1255.2,1048.2 1254.4,1049.2 
			1253.6,1050.1 1252.8,1051.2 1251.8,1052 1251.6,1053.4 1250.5,1054.4 1251,1054.5 1249.7,1055 1248.8,1055.9 1247.6,1056.4 
			1246.5,1057.1 1245.8,1058.2 1245,1059.2 1244.4,1060.3 1243.2,1061.1 1243,1062.5 1242.4,1063.6 1241.3,1064.5 1241.2,1065.8 
			1240.6,1067 1240.1,1068.2 1239.1,1069.1 1238.9,1070.4 1238.6,1071.7 1238.1,1072.9 1237.3,1074 1237.1,1075.3 1236.8,1076.5 
			1236.6,1077.8 1235.9,1079 1235.8,1080.2 1235.7,1081.6 1236,1082.8 1235.7,1084.2 1236.4,1085.3 1236.5,1086.7 1237,1087.9 
			1237.8,1088.9 1238.6,1089.9 1239.3,1091 1239.8,1092.2 1240.8,1093.2 1241,1094.6 1242.1,1095.4 1242.7,1096.6 1243.8,1097.4 
			1244.3,1098.6 1245.1,1099.7 1245.9,1100.6 1246.5,1101.8 1247.3,1102.9 1247.5,1104.2 1248,1105.4 1248.4,1104.1 1248.8,1102.8 
			1248.8,1101.4 1248.6,1100 1249.3,1098.8 1249.1,1097.4 1249.7,1096.1 1249.8,1094.8 1250.7,1093.9 1251.6,1092.9 1252.9,1092.5 
			1253.7,1091.5 1254.6,1090.6 1255,1089.3 1256,1088.4 1257,1087.6 1257.2,1086.2 1257.9,1085.2 1259.1,1084.4 1259.6,1083.2 
			1260.3,1082.2 1260.9,1081 1261,1079.7 1261.8,1078.6 1262.4,1077.5 1262.7,1076.2 1263.5,1075.2 1263.4,1073.8 1264,1072.7 
			1264.7,1071.6 1264.8,1070.2 1265.3,1069.1 1265.9,1068 1266.4,1066.8 1266.8,1065.6 1266.9,1064.4 1268.2,1064.5 1269.4,1064.9 
			1270.5,1065.6 1271.8,1065.8 1272.8,1066.6 1274.2,1066.7 1275.2,1067.4 1276.5,1067.6 1277.8,1067.8 1278.9,1068.5 
			1280.1,1068.8 1281.3,1069.3 1282.4,1070 1283.6,1070.3 1284.7,1071.1 1286,1071.2 1287.3,1071.4 1288.3,1072.2 1289.5,1072.8 
			1290.8,1072.9 1292,1073.3 1293.1,1073.9 1294.3,1074.5 1295.6,1074.7 1296.7,1075.1 1298,1075.4 1299.2,1075.8 1300.4,1076 
			1301.5,1076.6 1302.7,1077.1 1303.8,1077.5 1305,1077.8 1306.3,1078.1 1307.1,1079.1 1308.1,1079.9 1309.3,1080.4 1310,1081.5 
			1310.4,1082.7 1311.4,1083.7 1311.7,1085 1312.6,1086 1313.4,1087 1313.8,1088.3 1314.3,1089.5 1315.3,1090.4 1316,1091.5 
			1316.1,1093 1316.6,1094.1 1317.6,1095.1 1317.7,1096.5 1318.8,1097.4 1318.8,1098.8 1319.5,1100 1320,1101.2 1321.1,1102.1 
			1321.1,1103.5 1321.9,1104.8 1322.5,1103.4 1322.5,1102 1323.3,1100.9 1324.2,1100 1324.4,1098.6 1324.9,1097.5 1325.9,1096.6 
			1326.2,1095.2 1327.2,1094.4 1327.5,1093 1328,1091.9 1328.9,1090.9 1329.6,1089.8 1330.3,1088.8 1330.8,1087.5 1331.5,1086.4 
			1331.6,1085.1 1332,1083.9 1332.6,1082.7 1332.8,1081.5 1333.7,1080.4 1333.7,1079 1334.3,1077.8 1333.9,1076.5 1334.4,1075.3 
			1334.4,1074 1334.2,1072.7 		"/>
		<polygon class="st0" points="1385.4,1272.1 1385.5,1270.8 1385.7,1269.5 1385.5,1268.2 1385.4,1266.9 1385.5,1265.6 
			1386.1,1264.3 1385.9,1263.1 1385.5,1261.8 1386,1260.5 1385.9,1259.2 1385.9,1257.9 1386,1256.6 1385.5,1255.3 1385.5,1254 
			1385.5,1252.8 1385.6,1251.5 1385.9,1250.2 1385.7,1248.9 1386,1247.6 1385.9,1246.3 1385.8,1245 1386,1243.7 1385.7,1242.5 
			1385.7,1241.2 1385.8,1239.9 1386,1238.6 1385.6,1237.3 1386.1,1236 1385.4,1234.7 1385.6,1233.4 1385.9,1232.2 1385.7,1230.9 
			1386,1229.6 1385.9,1228.3 1385.6,1227 1385.9,1225.7 1385.4,1224.4 1386.1,1223.2 1385.6,1221.9 1385.6,1220.6 1385.3,1219.4 
			1385.9,1218.1 1385.2,1216.9 1385.5,1215.5 1385.1,1214.3 1384.6,1213.1 1384,1212 1384,1210.6 1383.3,1209.5 1382.7,1208.4 
			1382.5,1207.1 1381.5,1206.2 1380.7,1205.2 1380.2,1204 1379.6,1202.9 1378.6,1202 1378.2,1200.7 1377.1,1200 1376.5,1198.8 
			1375.7,1197.8 1374.5,1197.2 1373.8,1196.1 1372.8,1195.2 1371.5,1194.8 1370.7,1193.8 1369.5,1193.2 1368.4,1192.7 
			1367.3,1192.1 1366.3,1191.2 1365.1,1190.8 1364.1,1190 1362.9,1189.5 1361.8,1188.8 1360.7,1188.2 1359.3,1188.2 1358.2,1187.5 
			1357,1187.1 1355.8,1186.8 1354.4,1186.8 1353.2,1186.3 1352,1185.9 1350.8,1185.6 1349.7,1184.9 1348.3,1185 1347.2,1184.4 
			1345.9,1184.2 1344.8,1183.5 1343.4,1183.6 1342.3,1182.8 1341,1182.8 1339.8,1182.3 1338.5,1182.4 1337.2,1182.1 1336.1,1181.3 
			1334.7,1181.6 1333.5,1181.2 1332.2,1181.2 1330.9,1181 1329.8,1180.1 1328.5,1180.1 1327.2,1180.2 1326,1179.9 1324.8,1179.3 
			1323.5,1179.3 1322.2,1179.2 1320.9,1179 1319.8,1178.3 1318.4,1178.7 1317.2,1178 1316,1177.8 1314.7,1177.9 1313.5,1177.4 
			1312.2,1177.4 1310.9,1177 1309.7,1177 1308.4,1177.2 1307.1,1177.5 1305.8,1177.3 1304.6,1177.5 1303.3,1177.3 1302,1177.5 
			1300.8,1177.2 1299.5,1176.9 1298.2,1177.4 1297,1177.2 1295.7,1177.3 1294.4,1177.3 1293.2,1177.2 1291.9,1177.1 1290.6,1177.1 
			1289.4,1177.3 1288.1,1177.3 1286.8,1177 1285.6,1177.4 1284.3,1177 1283,1177.5 1281.8,1177.3 1280.5,1177.4 1279.2,1177.3 
			1278,1177.1 1276.7,1177.3 1275.5,1177.5 1274.2,1177.1 1272.9,1177 1271.7,1177.4 1270.4,1176.9 1269.1,1177.6 1267.9,1177.5 
			1266.6,1177.3 1265.3,1177.6 1264.1,1176.9 1262.8,1177 1261.5,1177 1260.3,1177.7 1259,1177.7 1257.7,1177.5 1256.5,1177.7 
			1255.3,1178.4 1253.9,1178 1252.7,1178.7 1251.5,1179.1 1250.2,1179 1249,1179.3 1247.7,1179.3 1246.5,1179.8 1245.2,1180.1 
			1243.9,1179.9 1242.7,1180.5 1241.4,1180.4 1240.2,1181.1 1238.9,1180.9 1237.7,1181.4 1236.5,1181.8 1235.2,1182.2 1234,1182.4 
			1232.8,1182.8 1231.4,1182.5 1230.2,1183.1 1229,1183.6 1227.6,1183.3 1226.5,1183.9 1225.2,1184.1 1224.1,1184.9 1222.8,1184.9 
			1221.6,1185.6 1220.4,1185.9 1219,1185.7 1217.9,1186.3 1216.6,1186.5 1215.6,1187.4 1214.2,1187.3 1213.1,1188.2 1211.9,1188.4 
			1210.6,1188.7 1209.7,1189.8 1208.5,1190.2 1207.2,1190.5 1206.1,1191.2 1205.2,1192.1 1203.8,1192.3 1203.1,1193.5 
			1201.8,1193.9 1200.7,1194.6 1199.8,1195.4 1198.9,1196.4 1197.8,1197.1 1197.2,1198.2 1196,1198.8 1195.1,1199.7 1194.3,1200.7 
			1193.5,1201.7 1192.8,1202.8 1192.3,1204 1191.4,1204.9 1191.2,1206.3 1190.5,1207.3 1189.4,1208.2 1189.2,1209.5 1188.4,1210.6 
			1188.3,1211.9 1187.8,1213.1 1187.7,1214.4 1187.7,1215.6 1187.1,1216.8 1186.8,1218.1 1186.5,1219.3 1186.7,1220.6 1187,1221.9 
			1186.8,1223.1 1187.1,1224.4 1186.5,1225.7 1186.6,1227 1186.9,1228.3 1186.8,1229.6 1187.1,1230.9 1186.7,1232.2 1186.6,1233.5 
			1186.5,1234.8 1186.4,1236 1186.8,1237.3 1186.4,1238.6 1186.7,1239.9 1186.4,1241.2 1186.8,1242.5 1186.9,1243.8 1186.9,1245.1 
			1186.5,1246.3 1186.4,1247.6 1186.5,1248.9 1186.8,1250.2 1187.1,1251.5 1186.5,1252.8 1186.5,1254.1 1187.1,1255.4 1187,1256.6 
			1186.8,1257.9 1187.1,1259.2 1187,1260.5 1186.6,1261.8 1186.5,1263.1 1186.6,1264.4 1186.6,1265.7 1186.4,1266.9 1186.6,1268.2 
			1186.6,1269.5 1186.6,1270.8 1186.8,1272.1 1186.8,1273.4 1186.5,1274.7 1186.8,1276 1386.1,1276 1386,1274.7 1386.1,1273.4 		"/>
		<path class="st4" d="M1248,1105.4l14.7,41.7l4.5-5.6l7.7,5.6l5.7-5.6l5.7,5.6l5.9-5.6l4.7,5.6l5.7-5.6l4.7,5.6
			c0,0,10.3-32.6,10.6-34c0.4-1.3,3.2-9.7,3.2-9.7l1.3-39.7l-43.6-9.1c0,0-16.9-0.9-19.4,2.6c-2.6,3.5-15.6,25.1-15.6,25.1
			L1248,1105.4z"/>
	</g>
</g>
</svg>
