<?xml version="1.0" encoding="utf-8"?>
<!-- Generator: Adobe Illustrator 24.1.3, SVG Export Plug-In . SVG Version: 6.00 Build 0)  -->
<svg version="1.1" id="レイヤー_1" xmlns="http://www.w3.org/2000/svg" xmlns:xlink="http://www.w3.org/1999/xlink" x="0px"
	 y="0px" viewBox="0 0 1440 1440" style="enable-background:new 0 0 1440 1440;" xml:space="preserve">
<style type="text/css">
	.st0{fill:#FFFFFF;}
	.st1{opacity:0.3;}
	.st2{fill:#B2E2F8;}
	.st3{fill:#FF7A44;}
	.st4{fill:#00A0E9;}
	.st5{clip-path:url(#SVGID_2_);fill:#FFFFFF;}
	.st6{clip-path:url(#SVGID_2_);}
	.st7{fill:#CBDDF2;}
	.st8{fill:#C0D7EF;}
	.st9{fill:#D8E5F5;}
	.st10{fill:#B5D1ED;}
	.st11{fill:#8AB9E3;}
	.st12{clip-path:url(#SVGID_4_);fill:#FFFFFF;}
	.st13{clip-path:url(#SVGID_4_);}
	.st14{fill:#9DC3E7;}
	.st15{clip-path:url(#SVGID_6_);fill:#FFFFFF;}
	.st16{clip-path:url(#SVGID_6_);}
	.st17{fill:#E9F0F9;}
	.st18{clip-path:url(#SVGID_8_);fill:#FFFFFF;}
	.st19{clip-path:url(#SVGID_8_);}
	.st20{fill:#505050;}
	.st21{fill:#FFAF9B;}
	.st22{fill:#FFCFBA;}
	.st23{fill:#F76E57;}
	.st24{clip-path:url(#SVGID_10_);fill:none;}
	.st25{clip-path:url(#SVGID_10_);}
	.st26{fill:#47C9DE;}
	.st27{clip-path:url(#SVGID_12_);fill:none;}
	.st28{clip-path:url(#SVGID_12_);}
	.st29{fill:#FFDA65;}
	.st30{clip-path:url(#SVGID_14_);fill:#FFFFFF;}
	.st31{clip-path:url(#SVGID_14_);}
	.st32{clip-path:url(#SVGID_16_);fill:none;}
	.st33{clip-path:url(#SVGID_16_);}
	.st34{clip-path:url(#SVGID_18_);fill:none;}
	.st35{clip-path:url(#SVGID_18_);}
	.st36{clip-path:url(#SVGID_20_);}
	.st37{clip-path:url(#SVGID_22_);}
	.st38{clip-path:url(#SVGID_24_);}
	.st39{clip-path:url(#SVGID_26_);fill:#FFFFFF;}
	.st40{clip-path:url(#SVGID_26_);fill:#505050;}
	.st41{clip-path:url(#SVGID_26_);fill:#9DC3E7;}
	.st42{clip-path:url(#SVGID_26_);fill:#FFAF9B;}
	.st43{clip-path:url(#SVGID_26_);fill:#FFCFBA;}
	.st44{clip-path:url(#SVGID_26_);}
	.st45{clip-path:url(#SVGID_28_);fill:none;}
	.st46{clip-path:url(#SVGID_28_);}
	.st47{clip-path:url(#SVGID_30_);fill:none;}
	.st48{clip-path:url(#SVGID_30_);}
	.st49{clip-path:url(#SVGID_32_);fill:none;}
	.st50{clip-path:url(#SVGID_32_);}
	.st51{clip-path:url(#SVGID_34_);fill:#FFCFBA;}
	.st52{clip-path:url(#SVGID_34_);fill:#505050;}
	.st53{clip-path:url(#SVGID_34_);fill:#B2E2F8;}
	.st54{clip-path:url(#SVGID_36_);fill:#FFFFFF;}
	.st55{clip-path:url(#SVGID_36_);fill:#505050;}
	.st56{clip-path:url(#SVGID_36_);fill:#9DC3E7;}
	.st57{clip-path:url(#SVGID_36_);fill:#FFAF9B;}
	.st58{clip-path:url(#SVGID_36_);fill:#FFCFBA;}
	.st59{clip-path:url(#SVGID_36_);}
	.st60{clip-path:url(#SVGID_38_);fill:#FFCFBA;}
	.st61{clip-path:url(#SVGID_38_);fill:#505050;}
	.st62{clip-path:url(#SVGID_38_);fill:#B2E2F8;}
	.st63{clip-path:url(#SVGID_40_);fill:none;}
	.st64{clip-path:url(#SVGID_40_);}
	.st65{clip-path:url(#SVGID_42_);fill:#FFCFBA;}
	.st66{clip-path:url(#SVGID_42_);fill:#505050;}
	.st67{clip-path:url(#SVGID_42_);fill:#B2E2F8;}
</style>
<g>
	<g>
		<path class="st0" d="M232.7,674.8c0,2.2-1.8,4-4,4l0,0c-2.2,0-4-1.8-4-4l0,0c0-2.2,1.8-4,4-4l0,0
			C230.9,670.8,232.7,672.6,232.7,674.8z M232.7,694.9c0,2.2-1.8,4-4,4l0,0c-2.2,0-4-1.8-4-4l0,0c0-2.2,1.8-4,4-4l0,0
			C230.9,690.9,232.7,692.7,232.7,694.9z M232.7,715c0,2.2-1.8,4-4,4l0,0c-2.2,0-4-1.8-4-4l0,0c0-2.2,1.8-4,4-4l0,0
			C230.9,710.9,232.7,712.7,232.7,715z M232.7,735c0,2.2-1.8,4-4,4l0,0c-2.2,0-4-1.8-4-4l0,0c0-2.2,1.8-4,4-4l0,0
			C230.9,731,232.7,732.8,232.7,735z M232.7,755.1c0,2.2-1.8,4-4,4l0,0c-2.2,0-4-1.8-4-4l0,0c0-2.2,1.8-4,4-4l0,0
			C230.9,751.1,232.7,752.8,232.7,755.1z M232.7,775.1c0,2.2-1.8,4-4,4l0,0c-2.2,0-4-1.8-4-4l0,0c0-2.2,1.8-4,4-4l0,0
			C230.9,771.1,232.7,772.9,232.7,775.1z M232.7,795.2c0,2.2-1.8,4-4,4l0,0c-2.2,0-4-1.8-4-4l0,0c0-2.2,1.8-4,4-4l0,0
			C230.9,791.2,232.7,793,232.7,795.2z M232.7,815.2c0,2.2-1.8,4-4,4l0,0c-2.2,0-4-1.8-4-4l0,0c0-2.2,1.8-4,4-4l0,0
			C230.9,811.2,232.7,813,232.7,815.2z M232.7,835.3c0,2.2-1.8,4-4,4l0,0c-2.2,0-4-1.8-4-4l0,0c0-2.2,1.8-4,4-4l0,0
			C230.9,831.3,232.7,833.1,232.7,835.3z M232.7,855.3c0,2.2-1.8,4-4,4l0,0c-2.2,0-4-1.8-4-4l0,0c0-2.2,1.8-4,4-4l0,0
			C230.9,851.3,232.7,853.1,232.7,855.3z"/>
	</g>
	<g>
		<path class="st0" d="M509.5,656.4c-2.2,0-4-1.8-4-4l0,0c0-2.2,1.8-4,4-4l0,0c2.2,0,4,1.8,4,4l0,0
			C513.5,654.6,511.7,656.4,509.5,656.4z M469.4,656.4c-2.2,0-4-1.8-4-4l0,0c0-2.2,1.8-4,4-4l0,0c2.2,0,4,1.8,4,4l0,0
			C473.4,654.6,471.6,656.4,469.4,656.4z M449.3,656.4c-2.2,0-4-1.8-4-4l0,0c0-2.2,1.8-4,4-4l0,0c2.2,0,4,1.8,4,4l0,0
			C453.4,654.6,451.6,656.4,449.3,656.4z M429.3,656.4c-2.2,0-4-1.8-4-4l0,0c0-2.2,1.8-4,4-4l0,0c2.2,0,4,1.8,4,4l0,0
			C433.3,654.6,431.5,656.4,429.3,656.4z M409.2,656.4c-2.2,0-4-1.8-4-4l0,0c0-2.2,1.8-4,4-4l0,0c2.2,0,4,1.8,4,4l0,0
			C413.2,654.6,411.5,656.4,409.2,656.4z M389.2,656.4c-2.2,0-4-1.8-4-4l0,0c0-2.2,1.8-4,4-4l0,0c2.2,0,4,1.8,4,4l0,0
			C393.2,654.6,391.4,656.4,389.2,656.4z M369.1,656.4c-2.2,0-4-1.8-4-4l0,0c0-2.2,1.8-4,4-4l0,0c2.2,0,4,1.8,4,4l0,0
			C373.1,654.6,371.3,656.4,369.1,656.4z M349.1,656.4c-2.2,0-4-1.8-4-4l0,0c0-2.2,1.8-4,4-4l0,0c2.2,0,4,1.8,4,4l0,0
			C353.1,654.6,351.3,656.4,349.1,656.4z M329,656.4c-2.2,0-4-1.8-4-4l0,0c0-2.2,1.8-4,4-4l0,0c2.2,0,4,1.8,4,4l0,0
			C333,654.6,331.2,656.4,329,656.4z M309,656.4c-2.2,0-4-1.8-4-4l0,0c0-2.2,1.8-4,4-4l0,0c2.2,0,4,1.8,4,4l0,0
			C313,654.6,311.2,656.4,309,656.4z M288.9,656.4c-2.2,0-4-1.8-4-4l0,0c0-2.2,1.8-4,4-4l0,0c2.2,0,4,1.8,4,4l0,0
			C292.9,654.6,291.1,656.4,288.9,656.4z M268.8,656.4c-2.2,0-4-1.8-4-4l0,0c0-2.2,1.8-4,4-4l0,0c2.2,0,4,1.8,4,4l0,0
			C272.9,654.6,271.1,656.4,268.8,656.4z M248.8,656.4c-2.2,0-4-1.8-4-4l0,0c0-2.2,1.8-4,4-4l0,0c2.2,0,4,1.8,4,4l0,0
			C252.8,654.6,251,656.4,248.8,656.4z M228.7,656.4c-2.2,0-4-1.8-4-4l0,0c0-2.2,1.8-4,4-4l0,0c2.2,0,4,1.8,4,4l0,0
			C232.7,654.6,230.9,656.4,228.7,656.4z"/>
	</g>
</g>
</svg>
