<?xml version="1.0" encoding="utf-8"?>
<!-- Generator: Adobe Illustrator 24.1.3, SVG Export Plug-In . SVG Version: 6.00 Build 0)  -->
<svg version="1.1" id="レイヤー_1" xmlns="http://www.w3.org/2000/svg" xmlns:xlink="http://www.w3.org/1999/xlink" x="0px"
	 y="0px" viewBox="0 0 1440 1440" style="enable-background:new 0 0 1440 1440;" xml:space="preserve">
<style type="text/css">
	.st0{fill:#B2E2F8;}
	.st1{fill:#FFFFFF;stroke:#FFFFFF;stroke-miterlimit:10;}
	.st2{clip-path:url(#SVGID_2_);fill:#FFFFFF;}
	.st3{clip-path:url(#SVGID_2_);}
	.st4{fill:#505050;}
	.st5{fill:#9DC3E7;}
	.st6{fill:#FFFFFF;}
	.st7{fill:#FFAF9B;}
	.st8{fill:#FFCFBA;}
	.st9{fill:#B5D1ED;}
	.st10{fill:#F76E57;}
	.st11{fill:#00A0E9;}
	.st12{clip-path:url(#SVGID_4_);fill:#FFFFFF;}
	.st13{clip-path:url(#SVGID_4_);}
	.st14{fill:none;stroke:#B2E2F8;stroke-width:2;stroke-miterlimit:10;}
	.st15{clip-path:url(#SVGID_6_);}
	.st16{clip-path:url(#SVGID_8_);}
	.st17{fill:#F3BF9B;}
	.st18{fill:#D8E5F5;}
	.st19{fill:#FDE2A4;}
	.st20{fill:#231815;}
	.st21{fill:#C0D7EF;}
	.st22{clip-path:url(#SVGID_10_);}
</style>
<g>
	<g>
		<path class="st6" d="M427.8,1240.2c0,3.1-2.6,5.7-5.7,5.7H25.6c-3.1,0-5.7-2.6-5.7-5.7V959.6c0-3.1,2.6-5.7,5.7-5.7h396.6
			c3.1,0,5.7,2.6,5.7,5.7V1240.2z"/>
	</g>
	<g>
		<path class="st0" d="M362.6,976.4H80.9c-4.8,0-8.7,3.9-8.7,8.7v187.4c0,4.8,3.9,8.7,8.7,8.7h281.7c4.8,0,8.7-3.9,8.7-8.7V985.1
			C371.3,980.3,367.4,976.4,362.6,976.4z"/>
		<path class="st6" d="M347.6,992.4H95.7c-4.9,0-8.9,3.9-8.9,8.7v155.4c0,4.8,4,8.7,8.9,8.7h251.9c4.9,0,8.9-3.9,8.9-8.7v-155.4
			C356.5,996.3,352.5,992.4,347.6,992.4z"/>
	</g>
	<g>
		<defs>
			<circle id="SVGID_3_" cx="184.2" cy="1079.8" r="69.8"/>
		</defs>
		<clipPath id="SVGID_2_">
			<use xlink:href="#SVGID_3_"  style="overflow:visible;"/>
		</clipPath>
		<circle class="st2" cx="184.2" cy="1079.8" r="69.8"/>
		<g class="st3">
			<polygon class="st4" points="182,1102.1 181.8,1101.4 181.8,1100.6 182,1099.9 181.6,1099.1 181.7,1098.4 181.6,1097.7 
				181.6,1096.9 181.5,1096.2 181.5,1095.4 181.4,1094.7 181.4,1093.9 181.2,1093.2 181.4,1092.5 181.2,1091.7 181.1,1091 
				181.1,1090.2 181,1089.5 181.3,1088.7 181,1088 180.9,1087.3 181,1086.5 181,1085.8 180.7,1085 180.7,1084.3 180.7,1083.5 
				180.6,1082.9 180,1082.7 179.3,1082.4 178.5,1082.2 177.8,1081.9 177.1,1081.9 176.4,1081.7 175.6,1081.5 175,1081 174.3,1080.8 
				173.6,1080.6 172.8,1080.5 172.1,1080.4 171.4,1080.2 170.6,1080 169.9,1079.7 169.2,1079.5 168.5,1079.3 167.8,1079 
				167.1,1078.8 166.3,1078.8 165.6,1078.7 164.9,1078.4 164.1,1078.3 163.4,1078 162.7,1077.8 162,1077.4 162,1077.4 161.2,1077.4 
				160.5,1077.5 159.7,1077.5 159.1,1078.1 158.2,1077.9 157.5,1078.1 156.8,1078.4 156.1,1078.7 155.5,1079.3 154.7,1079.4 
				154.1,1079.9 153.6,1080.4 153,1080.9 152.4,1081.4 151.8,1081.9 151.3,1082.5 150.7,1083 150.2,1083.6 150.1,1084.4 149.6,1085 
				149.2,1085.6 148.8,1086.3 148.7,1087.1 148.4,1087.7 148.2,1088.5 147.9,1089.2 147.8,1089.9 147.8,1090.7 147.6,1091.4 
				148,1092.2 147.7,1092.9 147.8,1093.6 147.9,1094.4 147.7,1095.1 147.8,1095.9 147.7,1096.6 147.5,1097.3 147.6,1098.1 
				147.4,1098.8 147.2,1099.5 147.4,1100.3 147.1,1101 146.8,1101.7 146.3,1102.3 145.9,1103 145.7,1103.7 145.2,1104.3 
				144.8,1104.8 144.2,1105.4 143.7,1105.9 143.2,1106.4 142.7,1107 142.2,1107.5 141.6,1108 140.9,1108.3 140.2,1108.7 
				139.4,1108.7 138.7,1109 138,1109.3 137.3,1109.2 136.5,1109.6 135.7,1109.4 135,1109.2 134.3,1108.9 133.5,1108.9 132.8,1108.6 
				132,1108.4 131.4,1107.8 130.7,1107.5 129.9,1107.4 129.3,1107 128.5,1106.8 127.9,1106.3 127.2,1105.7 127.5,1106.5 
				127.6,1107.3 127.7,1108 127.9,1108.6 128.3,1109.3 128.4,1110 128.8,1110.6 129.4,1111.1 129.7,1111.8 130.1,1112.4 
				130.7,1112.8 131.1,1113.3 131.6,1113.9 132.3,1114.1 132.9,1114.5 133.6,1114.8 134.3,1115 135,1115.2 135.5,1115.6 
				136.3,1115.9 137,1115.8 137.8,1115.9 138.5,1115.8 139.3,1115.8 140,1116 140.8,1115.9 141.5,1115.9 142.3,1116 143,1115.8 
				143.7,1116.2 144.5,1115.9 145.3,1115.9 146,1115.9 146.8,1116 147.5,1116.4 148.2,1116.2 149,1116.3 149.7,1116.4 150.5,1116.2 
				151.2,1116.2 152,1116.5 152.7,1116.2 153.5,1116.3 154.2,1116.5 154.9,1116.6 155.7,1116.5 156.4,1116.6 157.2,1116.6 
				157.9,1116.8 158.7,1116.6 159.4,1116.8 160.2,1116.6 160.9,1116.7 161.7,1116.6 162.4,1116.8 163.2,1116.7 163.9,1116.8 
				164.6,1116.7 165.2,1116.2 165.8,1115.7 166.3,1115.2 167,1114.9 167.5,1114.3 168.3,1114.1 168.7,1113.4 169.4,1113.1 
				170.1,1112.9 170.6,1112.4 171.2,1112 171.8,1111.5 172.4,1111 172.9,1110.5 173.5,1110 174.3,1109.9 174.9,1109.4 175.5,1109.1 
				176.1,1108.7 176.6,1108.1 177.1,1107.5 177.8,1107.1 178.6,1107 179,1106.3 179.7,1106.1 180.3,1105.6 181,1105.3 181.5,1104.8 
				182,1104.3 182.2,1103.6 182.2,1102.8 			"/>
			<polygon class="st5" points="242.4,1161.2 242.5,1160.4 242.5,1159.7 242.3,1158.9 242.1,1158.2 242.5,1157.4 242.5,1156.6 
				242.3,1155.9 242.4,1155.1 242.5,1154.4 242.1,1153.6 242.4,1152.9 242.5,1152.1 242.3,1151.4 242.3,1150.6 242.1,1149.9 
				242.1,1149.1 242.5,1148.4 242.5,1147.6 242.1,1146.9 242.4,1146.1 242.3,1145.4 242.4,1144.6 242.3,1143.9 242.1,1143.1 
				242.5,1142.4 242.2,1141.6 242.4,1140.9 242.2,1140.1 242.3,1139.4 242.1,1138.6 242.1,1137.9 242.4,1137.1 242.3,1136.4 
				242.3,1135.6 242.1,1134.9 242.2,1134.1 242.2,1133.4 242.2,1132.6 242.3,1131.9 242.1,1131.1 242.1,1130.4 242,1129.7 
				242.3,1128.9 241.9,1128.2 241.6,1127.5 241.4,1126.8 241.2,1126.1 241,1125.4 240.8,1124.7 240.7,1123.9 240.1,1123.4 
				239.7,1122.8 239.4,1122.1 239.2,1121.3 238.7,1120.7 238.4,1120.1 238,1119.5 237.3,1119 236.7,1118.6 236.2,1118.1 
				235.7,1117.5 235.3,1116.9 234.8,1116.3 234.2,1115.9 233.4,1115.6 232.9,1115.1 232.3,1114.7 231.5,1114.5 231,1113.8 
				230.3,1113.6 229.5,1113.5 229,1112.9 228.3,1112.6 227.7,1112.3 226.9,1112.2 226.3,1111.7 225.5,1111.6 224.8,1111.4 
				224.1,1111.1 223.4,1110.9 222.8,1110.5 222.1,1110.3 221.3,1110.3 220.6,1110 219.9,1109.6 219.2,1109.6 218.4,1109.4 
				217.8,1109 217.1,1108.7 216.3,1108.6 215.6,1108.4 215,1108 214.2,1107.9 213.5,1107.6 212.9,1107.2 212.1,1107.2 211.4,1107.1 
				210.7,1106.7 210,1106.5 209.4,1106.1 208.5,1106.2 207.9,1105.9 207.2,1105.5 206.4,1105.6 205.7,1105.2 205.1,1104.9 
				204.3,1104.8 203.6,1104.5 202.8,1104.5 202.2,1104 201.5,1103.7 200.8,1103.7 200,1103.6 199.4,1103.1 198.6,1103.2 197.9,1103 
				197.2,1102.7 196.5,1102.8 195.7,1102.7 195,1102.7 194.2,1102.6 193.5,1102.6 192.8,1102.6 192,1102.7 191.3,1102.7 
				190.5,1102.7 189.8,1102.6 189.1,1102.9 188.3,1102.8 187.6,1102.9 186.9,1102.8 186.1,1102.9 185.4,1102.8 184.6,1102.7 
				183.9,1102.9 183.2,1102.8 182.4,1102.7 181.7,1102.6 180.9,1102.6 180.2,1102.6 179.5,1103 178.7,1102.6 178,1102.9 
				177.3,1102.8 176.5,1102.8 175.8,1102.8 175,1103 174.3,1102.9 173.6,1103 172.8,1102.9 172.1,1103.1 171.3,1102.9 170.6,1102.7 
				169.9,1102.9 169.1,1102.8 168.4,1102.9 167.8,1103.4 167,1103.6 166.3,1103.6 165.5,1103.7 164.8,1104 164.1,1104.1 
				163.4,1104.6 162.7,1104.8 162,1104.8 161.3,1105.3 160.6,1105.6 159.9,1105.9 159.1,1105.8 158.4,1106 157.8,1106.4 
				157.1,1106.9 156.4,1107.1 155.6,1107.1 155,1107.5 154.2,1107.7 153.5,1107.8 152.8,1108.2 152.1,1108.4 151.3,1108.5 
				150.7,1108.8 150,1109.1 149.3,1109.5 148.6,1109.7 147.8,1109.8 147.2,1110.2 146.4,1110.2 145.8,1110.6 145,1110.8 
				144.3,1110.9 143.6,1111.2 142.9,1111.4 142.3,1112 141.5,1112 140.9,1112.5 140.1,1112.5 139.5,1113 138.8,1113.2 138.1,1113.6 
				137.5,1113.9 136.8,1114.2 136.2,1114.7 135.6,1115.2 135.1,1115.7 134.3,1115.9 133.8,1116.4 133.3,1117.1 132.7,1117.4 
				132.1,1117.9 131.6,1118.5 131,1118.9 130.5,1119.5 130.1,1120.1 129.8,1120.8 129.4,1121.4 128.8,1121.9 128.6,1122.7 
				128.4,1123.4 128,1124 127.6,1124.6 127.5,1125.4 126.9,1126 126.8,1126.7 126.8,1127.5 126.4,1128.2 126.2,1128.9 126.5,1129.7 
				126.2,1130.4 126.3,1131.1 126,1131.9 126.3,1132.6 126.2,1133.4 126.4,1134.1 126.2,1134.9 126,1135.6 126.2,1136.4 
				126.2,1137.1 126.3,1137.9 126.2,1138.6 126.2,1139.4 126.2,1140.1 126.2,1140.9 126.3,1141.6 126,1142.4 126,1143.1 
				126.2,1143.9 126.2,1144.6 126.1,1145.4 126.2,1146.1 126.1,1146.9 126.3,1147.6 126.2,1148.4 126.3,1149.1 126.2,1149.9 
				126.1,1150.6 125.9,1151.4 126.4,1152.2 126.2,1152.9 126.4,1153.7 126.1,1154.4 126.2,1155.2 125.9,1155.9 126,1156.7 
				126.3,1157.4 126.1,1158.2 126.3,1158.9 126.1,1159.7 126.2,1160.4 126.2,1161.2 126.2,1161.9 126.1,1162.7 126,1163.4 
				242.5,1163.4 242.4,1162.7 242.5,1161.9 			"/>
			<polygon class="st6" points="204.4,1106.9 203.7,1106.8 202.9,1106.9 202.2,1106.8 201.4,1106.9 200.7,1106.7 199.9,1106.9 
				199.2,1106.9 198.5,1106.8 197.7,1106.9 197,1106.9 196.2,1106.9 195.5,1106.7 194.8,1107 194,1107 193.3,1106.9 192.5,1106.8 
				191.8,1106.9 191,1106.5 190.3,1106.8 189.6,1106.9 188.8,1106.7 188.1,1106.7 187.3,1106.8 186.6,1106.6 185.9,1106.6 
				185.1,1106.5 184.4,1106.9 183.6,1106.8 182.9,1106.9 182.1,1106.8 181.4,1106.7 180.7,1106.6 179.9,1106.5 179.2,1106.5 
				178.4,1106.6 177.7,1106.9 177,1106.5 176.2,1106.5 175.5,1106.7 174.7,1106.5 174,1106.4 173.3,1106.7 172.5,1106.8 
				171.8,1106.8 171,1106.6 170.3,1106.7 169.6,1106.4 168.8,1106.5 168.1,1106.8 167.3,1106.8 166.6,1106.7 165.8,1106.5 
				165.1,1106.6 164.4,1106.7 163.6,1106.7 162.9,1106.5 162.2,1106.6 162.4,1107.3 162.2,1108.1 162.7,1108.7 162.7,1109.5 
				162.7,1110.2 162.8,1111 162.9,1111.7 162.9,1112.5 163.2,1113.2 163.3,1113.9 163.5,1114.6 163.4,1115.4 163.4,1116.1 
				163.7,1116.8 163.8,1117.6 163.9,1118.3 164,1119 164.3,1119.8 164.5,1120.5 164.5,1121.2 164.4,1122 164.6,1122.7 164.9,1123.4 
				164.9,1124.2 165.1,1124.9 165.2,1125.6 165.3,1126.4 165.3,1127.1 165.3,1127.9 165.6,1128.6 165.8,1129.3 165.5,1130.1 
				165.8,1130.8 165.8,1131.5 166.1,1132.2 166.2,1133 166.5,1133.7 166.4,1134.4 166.4,1135.2 166.7,1135.9 166.9,1136.6 
				167,1137.3 166.8,1138.1 167,1138.8 167.3,1139.6 167.4,1140.3 167.4,1141 167.6,1141.8 167.6,1142.5 167.7,1143.2 167.7,1144 
				168,1144.7 168.1,1145.4 168.4,1146.1 168.2,1146.9 168.5,1147.6 168.4,1148.4 168.5,1149.1 168.7,1149.8 168.7,1150.6 
				169.1,1151.3 169.2,1152 169,1152.8 169.5,1153.5 169.6,1154.2 169.7,1154.9 169.9,1155.6 169.7,1156.4 169.8,1157.1 
				169.9,1157.9 170.3,1158.6 170.2,1159.3 170.3,1160.1 170.5,1160.8 170.5,1161.5 170.5,1162.3 170.7,1163 170.9,1163.7 
				195.5,1163.7 195.8,1163 195.8,1162.2 196,1161.5 196.3,1160.8 196.3,1160.1 196.6,1159.4 196.6,1158.6 196.8,1157.9 
				196.9,1157.1 196.9,1156.4 197.2,1155.7 197.3,1155 197.5,1154.2 197.7,1153.5 197.5,1152.7 197.8,1152 198,1151.3 198.2,1150.6 
				198.2,1149.8 198.1,1149.1 198.3,1148.4 198.8,1147.7 198.8,1146.9 198.7,1146.2 199,1145.5 199,1144.7 199.3,1144 199.4,1143.3 
				199.5,1142.6 199.4,1141.8 199.9,1141.1 200,1140.4 199.9,1139.6 200,1138.9 200.3,1138.2 200.5,1137.5 200.5,1136.7 200.6,1136 
				200.9,1135.3 200.8,1134.5 201.2,1133.8 201.1,1133.1 201.5,1132.4 201.3,1131.6 201.5,1130.9 201.7,1130.2 201.9,1129.4 
				202.1,1128.7 202.1,1128 202.3,1127.2 202.4,1126.5 202.4,1125.8 202.8,1125.1 202.7,1124.3 202.8,1123.6 203,1122.9 
				202.9,1122.1 203.1,1121.4 203.3,1120.7 203.4,1119.9 203.9,1119.3 203.7,1118.5 204,1117.8 204.2,1117.1 204.3,1116.3 
				204.3,1115.6 204.6,1114.9 204.4,1114.1 204.6,1113.4 204.9,1112.7 204.9,1111.9 205.1,1111.2 205.4,1110.5 205.5,1109.8 
				205.4,1109 205.6,1108.3 205.6,1107.6 205.8,1106.9 205.2,1106.9 			"/>
			<path class="st7" d="M197.4,1096.9c0-0.4,0.1-0.4,0.1-0.8c0-0.4,0.1-0.4,0-0.8c0-0.4-0.2-0.4-0.2-0.8c0-0.4,0-0.4,0-0.8
				c0-0.4,0.2-0.4,0.2-0.8c0-0.4-0.1-0.4-0.2-0.8c0-0.4-0.2-0.4-0.2-0.8c0-0.4,0.1-0.4,0.1-0.8c0-0.4,0-0.4,0-0.8
				c0-0.4,0.1-0.4,0.1-0.8c0-0.4,0.2-0.5-0.1-0.8c-0.3-0.3-0.4-0.1-0.8-0.1c-0.4,0-0.4-0.1-0.8-0.1c-0.4,0-0.4,0.1-0.8,0.1
				c-0.4,0-0.4-0.1-0.8-0.1c-0.4,0-0.4,0.3-0.8,0.3c-0.4,0-0.4-0.1-0.8-0.1c-0.4,0-0.4-0.1-0.8-0.1c-0.4,0-0.4,0.2-0.8,0.2
				c-0.4,0-0.4-0.1-0.8-0.1c-0.4,0-0.4-0.1-0.8-0.1c-0.4,0-0.4,0.1-0.8,0.1c-0.4,0-0.4-0.1-0.8-0.1c-0.4,0-0.4,0.1-0.8,0.1
				c-0.4,0-0.4,0-0.8,0c-0.4,0-0.4-0.3-0.8-0.3c-0.4,0-0.4,0.3-0.8,0.3c-0.4,0-0.4-0.2-0.8-0.2c-0.4,0-0.4,0-0.8,0
				c-0.4,0-0.4,0.2-0.8,0.2c-0.4,0-0.4-0.2-0.8-0.2c-0.4,0-0.4,0.4-0.8,0.4c-0.4,0-0.4-0.3-0.8-0.3c-0.4,0-0.4,0.3-0.8,0.3
				c-0.4,0-0.4-0.3-0.8-0.3c-0.4,0-0.4-0.1-0.8-0.1c-0.4,0-0.4,0.2-0.8,0.2c-0.4,0-0.4-0.1-0.8-0.1c-0.4,0-0.4,0-0.8,0
				c-0.4,0-0.4-0.1-0.8-0.1c-0.4,0-0.4,0.3-0.8,0.3c-0.4,0-0.4-0.2-0.8-0.2c-0.4,0-0.4,0.3-0.8,0.3c-0.4,0-0.4-0.2-0.8-0.2
				c-0.4,0-0.4-0.2-0.8-0.2c-0.4,0-0.4,0-0.7,0.3c-0.3,0.3-0.3,0.3-0.3,0.7c0,0.4,0.3,0.4,0.3,0.8c0,0.4-0.2,0.4-0.2,0.8
				c0,0.4-0.2,0.4-0.2,0.8c0,0.4,0.1,0.4,0.1,0.8c0,0.4,0.1,0.4,0.1,0.8c0,0.4-0.1,0.4-0.1,0.8c0,0.4,0,0.4,0,0.8c0,0.4,0,0.4,0,0.8
				c0,0.4,0.2,0.4,0.2,0.8c0,0.4-0.1,0.4,0,0.8c0.2,0.2,0.5,0.2,0.7,0.4c0.2,0.2,0.3,0.5,0.5,0.7c0.2,0.2,0.5,0.2,0.7,0.4
				s0.4,0.3,0.6,0.5c0.2,0.1,0.3,0.4,0.6,0.6c0.2,0.1,0.5,0.2,0.7,0.3c0.2,0.1,0.4,0.3,0.6,0.5c0.2,0.1,0.6-0.1,0.9,0
				c0.2,0.1,0.5,0.2,0.7,0.3c0.2,0.1,0.4,0.3,0.7,0.4c0.2,0.1,0.5,0.2,0.7,0.3c0.2,0.1,0.5,0.3,0.7,0.3c0.3,0.1,0.5,0.1,0.8,0.2
				c0.3,0.1,0.6-0.1,0.8-0.1c0.3,0.1,0.5,0.1,0.8,0.1c0.3,0,0.5,0.4,0.7,0.5c0.3,0,0.5-0.1,0.8,0c0.3,0,0.5,0.1,0.8,0.1
				c0.3,0,0.5,0,0.8,0.1c0.3,0,0.5,0.2,0.8,0.3c0.3,0,0.5,0,0.8,0c0.3,0,0.5-0.1,0.8-0.1c0.3,0,0.5-0.1,0.8-0.1
				c0.3,0,0.5-0.1,0.8-0.1c0.3,0,0.5,0.1,0.8,0.1c0.3,0,0.5-0.2,0.8-0.2c0.3,0,0.6,0.1,0.8,0c0.3,0,0.5-0.1,0.8-0.1
				c0.3-0.1,0.6,0,0.8-0.1c0.3-0.1,0.5-0.3,0.7-0.4c0.3-0.1,0.6-0.1,0.8-0.2c0.3-0.1,0.6-0.1,0.8-0.2c0.2-0.1,0.4-0.4,0.6-0.6
				c0.2-0.1,0.4-0.4,0.7-0.5c0.2-0.1,0.5-0.2,0.7-0.4c0.2-0.1,0.5-0.3,0.7-0.4c0.2-0.2,0.3-0.4,0.6-0.6c0.2-0.2,0.7-0.2,0.9-0.3
				c0.1-0.4-0.2-0.4-0.3-0.8C197.5,1097.3,197.4,1097.3,197.4,1096.9z"/>
			<path class="st8" d="M204.8,1106.7c-0.4-0.1-0.3-0.4-0.6-0.5c-0.4-0.1-0.4,0-0.8-0.1s-0.3-0.3-0.7-0.4c-0.4-0.1-0.3-0.2-0.7-0.4
				c-0.4-0.1-0.3-0.3-0.7-0.4c-0.4-0.1-0.4-0.1-0.7-0.3s-0.4,0-0.8-0.1c-0.4-0.1-0.4,0-0.8-0.2c-0.4-0.1-0.3-0.3-0.7-0.4
				c-0.4-0.1-0.4-0.1-0.6-0.5c-0.2-0.4,0.1-0.4,0.1-0.8c0-0.4-0.4-0.4-0.4-0.8c0-0.4,0.3-0.4,0.3-0.9c0-0.4-0.1-0.4-0.1-0.8
				c0-0.4,0.1-0.4,0.1-0.8c0-0.4,0.1-0.5-0.1-0.9c-0.2,0.2-0.6,0.2-0.8,0.4c-0.2,0.2-0.2,0.6-0.5,0.8c-0.2,0.2-0.5,0.3-0.7,0.5
				c-0.2,0.1-0.5,0.3-0.7,0.5c-0.2,0.1-0.6,0.1-0.8,0.2c-0.2,0.1-0.4,0.3-0.7,0.5c-0.3,0.1-0.5,0.2-0.8,0.3c-0.3,0.1-0.6,0-0.8,0.1
				c-0.3,0.1-0.5,0.1-0.8,0.2c-0.3,0.1-0.5,0.4-0.7,0.4c-0.3,0.1-0.5,0-0.8,0.1c-0.3,0-0.5,0.3-0.8,0.3c-0.3,0-0.6,0.1-0.8,0.1
				c-0.3,0-0.5,0-0.8,0.1c-0.3,0-0.5-0.2-0.8-0.2c-0.3,0-0.5,0.1-0.8,0.1c-0.3,0-0.5-0.3-0.8-0.3c-0.3,0-0.5,0.2-0.8,0.2
				c-0.3,0-0.5,0.1-0.8,0.1c-0.3,0-0.5-0.3-0.8-0.3c-0.3,0-0.5-0.1-0.8-0.1c-0.3,0-0.5,0-0.8,0c-0.3,0-0.5,0-0.8,0
				c-0.3,0-0.5-0.3-0.7-0.4c-0.3-0.1-0.5-0.3-0.7-0.3c-0.3-0.1-0.5,0-0.8,0c-0.3-0.1-0.6,0.1-0.8,0c-0.2-0.1-0.4-0.5-0.6-0.6
				c-0.2-0.1-0.6,0.1-0.8,0c-0.2-0.1-0.4-0.3-0.7-0.4c-0.2-0.1-0.4-0.3-0.7-0.4c-0.2-0.1-0.6,0-0.8-0.1c-0.2-0.1-0.4-0.3-0.6-0.5
				c-0.2-0.1-0.4-0.4-0.6-0.5c-0.2-0.1-0.6-0.1-0.8-0.2c-0.2-0.1-0.2-0.6-0.4-0.7c-0.2-0.2-0.6-0.1-0.8-0.2
				c-0.2-0.2-0.1-0.4-0.3-0.6c-0.1,0.4-0.2,0.4-0.2,0.8c0,0.4,0,0.4,0,0.8c0,0.4-0.1,0.4-0.1,0.8c0,0.4,0.1,0.4,0.1,0.8
				c0,0.4,0,0.4,0,0.8c0,0.4-0.3,0.4-0.3,0.8c0,0.4,0,0.4,0,0.8c0,0.4,0.3,0.4,0.1,0.8c-0.2,0.3-0.3,0.2-0.7,0.3
				c-0.4,0.1-0.4,0.1-0.7,0.2c-0.4,0.1-0.4,0.1-0.7,0.3c-0.4,0.1-0.3,0.3-0.7,0.4c-0.4,0.1-0.3,0.2-0.7,0.3c-0.4,0.1-0.5-0.2-0.8,0
				c-0.4,0.1-0.4,0-0.8,0.1c-0.4,0.1-0.2,0.5-0.6,0.6c-0.4,0.1-0.4,0-0.8,0.1c-0.4,0.1-0.3,0.3-0.7,0.4c-0.4,0.1-0.4-0.1-0.7,0.2
				c-0.3,0.3,0.1,0.1,0.5,0.4c0.2,0.2,0.3,0.4,0.5,0.6c0.2,0.2,0.5,0.2,0.7,0.4c0.2,0.2,0.3,0.5,0.5,0.7c0.2,0.2,0.4,0.4,0.6,0.5
				c0.2,0.2,0.3,0.4,0.5,0.6c0.2,0.2,0.3,0.4,0.5,0.6c0.2,0.2,0.4,0.3,0.7,0.5c0.2,0.2,0.5,0.2,0.7,0.4c0.2,0.2,0.2,0.5,0.4,0.7
				c0.2,0.2,0.4,0.3,0.6,0.5c0.2,0.2,0.4,0.3,0.6,0.5c0.2,0.2,0.4,0.3,0.6,0.5c0.2,0.2,0.4,0.3,0.6,0.5c0.2,0.2,0.4,0.3,0.6,0.5
				c0.2,0.2,0.6,0,0.8,0.2c0.2,0.2,0.2,0.7,0.4,0.8c0.2,0.2,0.5,0.3,0.7,0.4c0.2,0.2,0.4,0.4,0.6,0.5c0.2,0.2,0.6,0,0.8,0.2
				c0.2,0.2,0.4,0.4,0.6,0.5c0.2,0.1,0.4,0.4,0.6,0.6c0.2,0.1,0.6,0.1,0.8,0.2c0.2,0.1,0.4,0.3,0.7,0.4c0.2,0.1,0.5,0.2,0.7,0.3
				c0.2,0.1,0.4,0.3,0.7,0.4c0.2,0.1,0.4,0.3,0.7,0.4c0.2,0.1,0.4,0.3,0.7,0.4c0.2,0.1,0.4,0.3,0.7,0.4c0.2,0.1,0.5,0.1,0.8,0.2
				c0.3,0.1,0.5,0.3,0.7,0.3c0.3,0.1,0.5,0.1,0.8,0.2c0.3,0.1,0.6-0.1,0.8-0.1c0.3,0,0.5,0,0.8,0c0.3,0,0.5,0,0.8,0
				c0.3,0,0.6,0.1,0.8,0.1c0.3-0.1,0.5-0.3,0.7-0.4c0.3-0.1,0.6,0.2,0.9,0.1c0.2-0.1,0.5-0.2,0.8-0.3c0.2-0.1,0.4-0.4,0.6-0.6
				c0.2-0.1,0.5-0.2,0.7-0.3c0.2-0.1,0.6,0,0.8-0.2c0.2-0.1,0.4-0.3,0.7-0.4c0.2-0.1,0.4-0.4,0.7-0.5c0.2-0.1,0.4-0.4,0.6-0.5
				c0.2-0.1,0.6-0.1,0.8-0.2c0.2-0.1,0.3-0.5,0.5-0.7c0.2-0.1,0.6-0.1,0.8-0.3c0.2-0.2,0.4-0.4,0.6-0.6c0.2-0.2,0.4-0.4,0.6-0.6
				c0.2-0.2,0.5-0.2,0.8-0.3c0.2-0.2,0.5-0.2,0.7-0.4c0.2-0.2,0.3-0.5,0.5-0.7c0.2-0.2,0.6-0.1,0.8-0.3c0.2-0.2,0.3-0.5,0.5-0.7
				c0.2-0.2,0.4-0.3,0.6-0.5c0.2-0.2,0.5-0.2,0.7-0.4c0.2-0.2,0.3-0.5,0.5-0.7c0.2-0.2,0.4-0.4,0.6-0.5c0.2-0.2,0.3-0.5,0.5-0.6
				c0.2-0.2,0.6-0.1,0.8-0.3c0.2-0.2,0.3-0.5,0.5-0.7c0.2-0.2,0.5-0.2,0.7-0.4c0.2-0.2,0.4-0.4,0.6-0.6c0.2-0.2,0.5-0.2,0.7-0.4
				c0.2-0.2,0.2-0.6,0.4-0.8c0.4-0.4,1-0.3,0.8-0.6C205.4,1106.5,205.2,1106.9,204.8,1106.7z"/>
			<g>
				<path class="st9" d="M216.6,1124.1c0,0,0,0.1,0,0.1c0,0,0,0,0,0.1C216.7,1124.4,216.6,1123.8,216.6,1124.1z"/>
				<path class="st9" d="M217.2,1126.6C217.2,1126.6,217.2,1126.6,217.2,1126.6C217.2,1126.6,217.1,1126.5,217.2,1126.6z"/>
				<path class="st9" d="M216.4,1123.7c0,0,0,0.1,0.1,0.1c0,0,0,0,0,0C216.4,1123.8,216.4,1123.8,216.4,1123.7z"/>
				<path class="st9" d="M218.1,1128.3c-0.1-0.3-0.2-0.5-0.3-0.8c0,0.1,0,0.3,0,0.4C217.9,1128.1,218,1128.2,218.1,1128.3z"/>
				<path class="st9" d="M212.3,1136.4C212.3,1136.4,212.3,1136.4,212.3,1136.4C212.3,1136.4,212.3,1136.4,212.3,1136.4
					c-0.1,0-0.1,0-0.2,0c0,0,0,0,0,0C212,1136.5,212.2,1136.4,212.3,1136.4z"/>
				<path class="st9" d="M212.3,1136.4C212.3,1136.4,212.3,1136.4,212.3,1136.4C212.3,1136.4,212.4,1136.4,212.3,1136.4
					C212.4,1136.4,212.3,1136.4,212.3,1136.4z"/>
				<path class="st9" d="M214.4,1135.3c0,0-0.1,0.1-0.1,0.1C214.1,1135.6,214.5,1135.3,214.4,1135.3z"/>
				<path class="st9" d="M214,1135.5C214,1135.5,214,1135.5,214,1135.5c-0.1,0-0.1,0-0.1,0.1C213.6,1135.7,214.2,1135.5,214,1135.5z
					"/>
				<path class="st9" d="M212.4,1136.4C212.4,1136.4,212.3,1136.4,212.4,1136.4c-0.1,0-0.1,0.1-0.1,0.1c0.2-0.1,0.3-0.2,0.5-0.3
					c-0.1,0-0.2,0.1-0.3,0.1C212.4,1136.3,212.4,1136.4,212.4,1136.4C212.3,1136.4,212.4,1136.4,212.4,1136.4z"/>
				<path class="st9" d="M212.3,1136.4c0,0,0.1-0.1,0.1-0.1c-0.1,0-0.2,0.1-0.3,0.1C212.2,1136.4,212.2,1136.4,212.3,1136.4
					C212.3,1136.4,212.3,1136.4,212.3,1136.4z"/>
				<path class="st9" d="M217.2,1133.8C217.2,1133.8,217.2,1133.8,217.2,1133.8c-0.1,0-0.1,0.1-0.2,0.1
					C216.9,1134,217.4,1133.8,217.2,1133.8z"/>
				<path class="st9" d="M216,1134.5c-0.1,0-0.2,0.1-0.3,0.1c-0.1,0.1-0.2,0.1-0.3,0.2C215.6,1134.7,215.8,1134.6,216,1134.5z"/>
				<path class="st9" d="M219.6,1133.4c0.3-0.5,0.5-1,0.8-1.4c-0.2,0.1-0.4,0.1-0.7,0.2c-0.2,0.1-0.3,0.2-0.5,0.3
					c0,0.1,0,0.2,0.1,0.2C219.4,1133,219.5,1133.2,219.6,1133.4z"/>
				<path class="st9" d="M219.2,1132.1C219.2,1132.1,219.2,1132.1,219.2,1132.1c0,0.1,0.1,0.1,0.1,0.2
					C219.3,1132.5,219.1,1131.9,219.2,1132.1z"/>
				<path class="st9" d="M218.8,1132.9C218.8,1132.9,218.8,1132.9,218.8,1132.9C218.8,1132.9,218.8,1132.9,218.8,1132.9
					C218.5,1133.2,219,1132.8,218.8,1132.9z"/>
				<path class="st9" d="M218.7,1130.7C218.7,1130.7,218.7,1130.7,218.7,1130.7c0,0.1,0.1,0.2,0.1,0.2
					C218.8,1131.1,218.6,1130.5,218.7,1130.7z"/>
				<path class="st9" d="M214.1,1111.5c0-0.1,0-0.2,0-0.2c-0.1-0.1-0.1-0.2-0.2-0.3C214,1111.2,214.1,1111.3,214.1,1111.5z"/>
				<path class="st9" d="M219.5,1126.6c0-0.1,0-0.2,0-0.3c-0.1-0.1-0.2-0.2-0.3-0.3C219.3,1126.2,219.4,1126.4,219.5,1126.6z"/>
				<path class="st9" d="M220.1,1128.1C220.1,1128.4,220.1,1128.2,220.1,1128.1C220.1,1128.1,220.1,1128.1,220.1,1128.1
					C220.1,1128.1,220.1,1128.1,220.1,1128.1C220,1128,220,1127.9,220.1,1128.1z"/>
				<path class="st9" d="M218.9,1124.9c0,0,0.1,0.4,0.1,0.2c0,0,0,0,0,0c0,0,0,0,0-0.1C219,1125,219,1125,218.9,1124.9z"/>
				<path class="st9" d="M218.9,1124.7C218.9,1124.7,218.9,1124.7,218.9,1124.7c0-0.1,0-0.2,0-0.2
					C218.9,1124.4,218.9,1124.8,218.9,1124.7z"/>
				<path class="st9" d="M220.5,1129.3c0,0,0-0.1-0.1-0.1c0,0,0,0,0,0C220.4,1129.1,220.6,1129.5,220.5,1129.3z"/>
				<path class="st9" d="M218.1,1122.1c0,0,0.1,0.3,0.1,0.2c0,0,0,0,0-0.1C218.1,1122.2,218.1,1122.1,218.1,1122.1z"/>
				<path class="st9" d="M216.5,1142.7C216.5,1142.7,216.5,1142.7,216.5,1142.7L216.5,1142.7z"/>
				<path class="st9" d="M213.9,1137.9c0.1,0,0.2,0,0.3-0.1c0.1-0.1,0.2-0.2,0.3-0.2C214.3,1137.7,214.1,1137.8,213.9,1137.9z"/>
				<path class="st9" d="M220.4,1134.5c0.1,0,0.2-0.1,0.3-0.1c0.1-0.1,0.1-0.1,0.2-0.2C220.7,1134.3,220.5,1134.4,220.4,1134.5z"/>
				<path class="st9" d="M217.2,1120.9c0-0.2,0.1-0.4,0.1-0.5c-0.1-0.1-0.2-0.2-0.2-0.3C217.2,1120.4,217.2,1120.7,217.2,1120.9z"/>
				<path class="st9" d="M215.8,1122.3C215.8,1122.3,215.8,1122.3,215.8,1122.3c0,0.1,0,0.1,0,0.1
					C215.8,1122.3,215.8,1122.3,215.8,1122.3z"/>
				<path class="st9" d="M217.2,1136.2c0.1,0,0.1,0,0.2,0c0.1-0.1,0.2-0.2,0.3-0.3C217.5,1136,217.3,1136.1,217.2,1136.2z"/>
				<path class="st9" d="M215.9,1137c0.1,0,0.2-0.1,0.3-0.1c0.1-0.1,0.2-0.1,0.3-0.2C216.2,1136.8,216.1,1136.9,215.9,1137z"/>
				<path class="st9" d="M212.5,1113.2c0,0.1,0.1,0.1,0.1,0.2C212.6,1113.6,212.5,1113.1,212.5,1113.2z"/>
				<path class="st9" d="M213.3,1115.3c0,0,0,0.1,0.1,0.2c0,0,0,0,0,0C213.4,1115.4,213.3,1115.3,213.3,1115.3z"/>
				<path class="st9" d="M213.9,1116.3c0,0.1,0,0.2,0,0.3c0.1,0.1,0.1,0.2,0.2,0.3C214,1116.7,213.9,1116.5,213.9,1116.3z"/>
				<path class="st9" d="M214.3,1117.7c0,0.1,0,0.2,0,0.4c0,0.1,0.1,0.2,0.1,0.2C214.4,1118.1,214.3,1117.9,214.3,1117.7z"/>
				<path class="st9" d="M215.1,1119.5c0,0.2-0.1,0.5-0.1,0.7c0.1,0.1,0.3,0.3,0.4,0.4C215.3,1120.3,215.2,1119.9,215.1,1119.5z"/>
				<path class="st9" d="M216.6,1118.4C216.6,1118.4,216.6,1118.4,216.6,1118.4c0-0.1,0-0.1,0-0.1
					C216.5,1118,216.6,1118.7,216.6,1118.4z"/>
				<path class="st9" d="M216.2,1117.1c0-0.1,0-0.2,0-0.3c-0.1-0.1-0.1-0.2-0.2-0.2C216.1,1116.7,216.2,1116.9,216.2,1117.1z"/>
				<path class="st9" d="M216.8,1118.9c0-0.1,0-0.2-0.1-0.3c-0.1-0.1-0.2-0.1-0.2-0.2C216.6,1118.6,216.7,1118.8,216.8,1118.9z"/>
				<path class="st9" d="M211.1,1137.1c-0.2,0-0.4,0-0.6,0.1c-0.1,0.1-0.2,0.2-0.2,0.3C210.5,1137.3,210.8,1137.2,211.1,1137.1z"/>
				<path class="st9" d="M214.7,1113.1C214.8,1113.1,214.8,1113.1,214.7,1113.1C214.8,1113.1,214.8,1113.1,214.7,1113.1
					C214.8,1113.1,214.8,1113.1,214.7,1113.1z"/>
				<path class="st9" d="M215.8,1115.3c0,0,0-0.1-0.1-0.1c0,0,0,0,0,0C215.7,1114.9,215.9,1115.5,215.8,1115.3z"/>
				<path class="st9" d="M221.1,1130.7C221.1,1130.7,221,1130.6,221.1,1130.7C220.9,1130.3,221.1,1130.8,221.1,1130.7z"/>
				<path class="st9" d="M219.4,1148.3c0.1-0.1,0.1-0.2,0.2-0.2c0-0.1,0.1-0.2,0.1-0.3C219.6,1148,219.5,1148.1,219.4,1148.3z"/>
				<polygon class="st9" points="215,1156 215,1156 215,1156 				"/>
				<path class="st9" d="M216.5,1153.1c0-0.1,0.1-0.1,0.1-0.2c0-0.1,0-0.3,0-0.4C216.6,1152.7,216.6,1152.9,216.5,1153.1z"/>
				<path class="st9" d="M214.2,1157.1C214.2,1157,214.2,1157,214.2,1157.1C214.3,1156.9,214,1157.3,214.2,1157.1z"/>
				<path class="st9" d="M216.8,1152.7C216.8,1152.7,216.8,1152.7,216.8,1152.7c0.1-0.1,0.1-0.1,0.1-0.1
					C217,1152.4,216.7,1152.8,216.8,1152.7z"/>
				<path class="st9" d="M218.3,1150.2C218.3,1150.2,218.3,1150.2,218.3,1150.2c0.1-0.1,0.1-0.1,0.1-0.1
					C218.5,1149.8,218.2,1150.2,218.3,1150.2z"/>
				<path class="st9" d="M215.8,1154.7c0.1-0.1,0.1-0.1,0.2-0.2c0-0.1,0.1-0.2,0.1-0.3C216,1154.4,215.9,1154.6,215.8,1154.7z"/>
				<path class="st9" d="M210.2,1159.7c0,0,0,0.1-0.1,0.1C210,1160.1,210.2,1159.7,210.2,1159.7z"/>
				<path class="st9" d="M209,1162.1c-0.1,0.1-0.2,0.2-0.3,0.3c0,0.1,0,0.2,0,0.2C208.8,1162.4,208.9,1162.3,209,1162.1z"/>
				<path class="st9" d="M212.1,1160.6c0.1-0.1,0.2-0.2,0.4-0.3c0.1-0.1,0.1-0.3,0.2-0.4C212.4,1160.1,212.3,1160.4,212.1,1160.6z"
					/>
				<path class="st9" d="M213.5,1158.2c0,0,0.1-0.1,0.1-0.1c0,0,0-0.1,0-0.1C213.6,1157.8,213.6,1158.2,213.5,1158.2z"/>
				<path class="st9" d="M211,1162.6C211,1162.6,211.1,1162.6,211,1162.6C211.1,1162.6,211.1,1162.6,211,1162.6
					C211.1,1162.2,210.9,1162.8,211,1162.6z"/>
				<path class="st9" d="M214.5,1139.4C214.5,1139.4,214.5,1139.3,214.5,1139.4C214.5,1139.4,214.5,1139.4,214.5,1139.4
					C214.5,1139.4,214.5,1139.4,214.5,1139.4z"/>
				<path class="st9" d="M211.3,1138.9c-0.2,0.1-0.3,0.2-0.5,0.3c0,0.1,0.1,0.2,0.1,0.3C211.1,1139.2,211.2,1139.1,211.3,1138.9z"/>
				<path class="st9" d="M211.6,1138.8c0.2,0,0.4,0,0.6,0c0.1-0.1,0.2-0.2,0.2-0.3C212.1,1138.5,211.9,1138.7,211.6,1138.8z"/>
				<path class="st9" d="M211.7,1138.4c-0.1-0.1-0.1-0.1-0.2-0.2c-0.1,0-0.2,0-0.4,0C211.3,1138.3,211.5,1138.3,211.7,1138.4z"/>
				<path class="st9" d="M220.6,1145.9c0.2-0.1,0.3-0.2,0.5-0.3c0-0.1,0-0.2,0-0.4C220.9,1145.4,220.7,1145.7,220.6,1145.9z"/>
				<path class="st9" d="M211.9,1138.2c-0.1,0-0.3,0-0.4,0c0.1,0.1,0.1,0.1,0.2,0.2c-0.2-0.1-0.4-0.1-0.6-0.2c0.1,0,0.2,0,0.4,0
					c-0.1-0.1-0.3-0.2-0.4-0.3c-0.3-0.2-0.6-0.2-0.9-0.2c0.2,0.5,0.4,1,0.6,1.5c0.2-0.1,0.3-0.2,0.5-0.3c-0.1,0.2-0.2,0.4-0.4,0.5
					c0-0.1-0.1-0.2-0.1-0.3c-0.2,0.1-0.4,0.2-0.5,0.3c0.4,0,0.9,0,1.2-0.2c0.3-0.1,0.5-0.3,0.6-0.5c-0.2,0-0.4,0-0.6,0
					c0.3-0.1,0.5-0.2,0.8-0.3c-0.1,0.1-0.2,0.2-0.2,0.3c0.3,0,0.6-0.1,0.9-0.2c0,0,0,0,0.1,0c-0.1,0-0.1-0.1-0.2-0.1
					C212.6,1138.3,212.2,1138.2,211.9,1138.2z"/>
				<path class="st9" d="M214.2,1137.9c-0.1,0-0.2,0-0.3,0.1c0.2-0.1,0.3-0.2,0.5-0.3C214.4,1137.7,214.3,1137.8,214.2,1137.9
					c0.4-0.1,0.7-0.2,1.1-0.4c0.3-0.2,0.6-0.4,0.9-0.6c-0.1,0-0.2,0.1-0.3,0.1c0.2-0.1,0.3-0.2,0.5-0.3c-0.1,0.1-0.2,0.1-0.3,0.2
					c0.2-0.1,0.5-0.2,0.7-0.3c0.2-0.1,0.4-0.3,0.5-0.4c-0.1,0-0.1,0-0.2,0c0.2-0.1,0.3-0.2,0.5-0.3c-0.1,0.1-0.2,0.2-0.3,0.3
					c0.6-0.1,1.2-0.4,1.8-0.7c0.3-0.2,0.6-0.4,0.8-0.5c0.2-0.1,0.5-0.3,0.7-0.5c-0.1,0-0.2,0.1-0.3,0.1c0.2-0.1,0.3-0.2,0.5-0.3
					c-0.1,0.1-0.1,0.1-0.2,0.2c0.1,0,0.2-0.1,0.4-0.1c0.6-0.2,1-0.8,0.8-1.4c-0.2-0.4-0.3-0.9-0.4-1.3c-0.1-0.3-0.2-0.5-0.3-0.8
					c0,0.1-0.2-0.4,0-0.1c0,0,0,0,0,0.1c0,0,0,0,0,0c0-0.2-0.1-0.3-0.1-0.5c-0.1-0.3-0.2-0.5-0.3-0.8c0-0.1-0.1-0.2-0.2-0.3
					c0,0,0,0.1,0.1,0.1c0.1,0.2-0.1-0.2-0.1-0.2c0,0,0,0,0,0c0,0,0,0,0-0.1c-0.1-0.2-0.2-0.4-0.2-0.6c0-0.1-0.1-0.2-0.1-0.4
					c0,0,0,0,0,0c0,0.1,0,0.3,0,0c0-0.3,0-0.1,0-0.1c0,0,0,0,0,0c0.1-0.5,0.1-1-0.3-1.5c-0.1-0.1-0.2-0.2-0.3-0.3c0,0.1,0,0.2,0,0.3
					c-0.1-0.2-0.2-0.3-0.3-0.5c0.1,0.1,0.2,0.2,0.3,0.3c0-0.1-0.1-0.3-0.1-0.4c-0.1-0.3-0.2-0.5-0.4-0.8c0,0,0,0,0,0
					c0,0.2-0.1-0.2-0.1-0.2c0,0,0,0.1,0.1,0.1c0,0,0,0,0,0.1c0-0.1-0.1-0.3-0.1-0.4c0,0,0,0,0,0c0,0,0,0,0,0.1c0,0.1-0.1-0.3,0-0.2
					c0,0.1,0,0.1,0,0.2c0-0.1,0-0.3,0-0.4c0-0.6-0.2-1.2-0.5-1.6c-0.1-0.1-0.2-0.3-0.3-0.4c0,0,0,0,0,0c0,0,0,0,0,0.1
					c0,0.1-0.1-0.2-0.1-0.2c0,0,0.1,0.1,0.1,0.1c0-0.3-0.1-0.7-0.2-0.9c-0.2-0.3-0.4-0.6-0.6-0.9c0,0.2-0.1,0.4-0.1,0.5
					c0-0.3-0.1-0.6-0.1-0.9c0.1,0.1,0.1,0.2,0.2,0.3c0.1-0.3,0.1-0.6,0-0.9c-0.1-0.4-0.4-0.6-0.7-0.9c0,0.1,0,0.2,0.1,0.3
					c-0.1-0.2-0.2-0.3-0.3-0.5c0.1,0.1,0.2,0.1,0.2,0.2c0-0.1,0-0.2-0.1-0.3c0,0,0,0,0,0.1c0,0.3-0.1-0.4,0-0.1c0,0,0,0,0,0.1
					c0-0.1,0-0.2,0-0.3c0-0.3,0-0.6-0.2-0.9c-0.1-0.1-0.1-0.2-0.2-0.3c0,0.1,0,0.2,0,0.3c-0.1-0.2-0.1-0.4-0.2-0.6
					c0.1,0.1,0.1,0.2,0.2,0.2c0-0.1,0-0.3,0-0.4c0-0.4-0.3-0.8-0.5-1.2c0,0,0,0.1,0.1,0.1c0.1,0.2-0.2-0.3-0.1-0.2c0,0,0,0,0,0
					c0,0,0-0.1,0-0.1c0-0.1-0.1-0.2-0.1-0.4c-0.1-0.3-0.3-0.6-0.4-0.9c-0.1-0.2-0.2-0.4-0.3-0.6c0,0,0,0,0,0c0.1,0.1,0,0.2,0,0
					c0,0,0,0,0,0c0,0,0-0.1-0.1-0.1c0,0,0.1,0.1,0.1,0.1c0-0.1,0-0.1,0-0.2c0-0.1,0-0.3-0.1-0.4c-0.1-0.4-0.3-0.9-0.6-1.3
					c0,0.1,0,0.2,0,0.2c-0.1-0.2-0.1-0.4-0.2-0.6c0.1,0.1,0.1,0.2,0.2,0.3c0-0.2,0-0.4,0-0.6c0-0.6-0.6-1.2-1.2-1.2
					c-0.7,0-1.1,0.5-1.2,1.2c0,0.3-0.1,0.5-0.1,0.8c0,0.4,0.3,0.8,0.5,1.2c0.1,0.2,0.1,0.3,0.2,0.5c0-0.1,0.1,0.3,0.1,0.2
					c0-0.1-0.1-0.1-0.1-0.2c0,0,0,0,0,0c0,0.1,0,0.2,0,0.3c0,0.1,0,0.3,0.1,0.4c0.1,0.3,0.3,0.6,0.5,0.9c0.1,0.1,0.1,0.3,0.2,0.4
					c0,0,0,0,0.1,0.1c0,0,0,0.1,0,0.1c0,0,0,0,0,0.1c0,0,0,0,0,0c0,0.1,0,0.1,0.1,0.2c0,0.1,0.1,0.2,0.1,0.3
					c0.1,0.2,0.2,0.4,0.3,0.6c0-0.1,0-0.2,0-0.3c0.1,0.2,0.1,0.4,0.2,0.6c-0.1-0.1-0.1-0.2-0.2-0.3c0,0.2,0,0.4,0,0.7
					c0,0.3,0.2,0.6,0.4,0.9c0-0.1,0-0.2,0-0.4c0.1,0.2,0.1,0.4,0.2,0.6c0-0.1-0.1-0.2-0.1-0.2c0,0.4,0.1,0.8,0.2,1.2
					c0.1,0.3,0.2,0.6,0.5,0.9c0,0,0.1,0.1,0.1,0.1c0-0.2,0.1-0.5,0.1-0.7c0.1,0.4,0.2,0.8,0.3,1.1c-0.1-0.1-0.3-0.3-0.4-0.4
					c0,0,0,0.1,0,0.1c-0.1,0.7,0.2,1,0.5,1.5c0.1,0.1,0.1,0.2,0.2,0.3c0,0.1,0.1,0.1,0.1,0.2c0,0,0,0,0-0.1c0,0,0,0.1,0,0.1
					c0,0,0,0,0,0c0.1,0.2,0,0.1,0,0c0,0,0,0,0,0c0,0.3,0.1,0.7,0.3,1c0.1,0.2,0.2,0.3,0.3,0.4c0,0,0,0,0,0c0-0.1,0-0.2,0-0.1
					c0,0,0,0.1,0.1,0.1c0,0,0,0,0,0.1c0,0,0,0,0,0c0,0,0,0,0,0c0,0.1,0.1,0.2,0.1,0.4c0,0,0-0.1,0-0.1c0-0.2,0.1,0.3,0,0.2
					c0,0,0,0,0-0.1c0,0.1,0,0.1,0,0.2c0,0.4,0.1,0.7,0.1,1.1c0.1,0.4,0.2,0.7,0.4,1c0,0,0,0,0,0c0-0.1,0,0,0,0.1c0,0,0,0.1,0,0.1
					c0,0,0-0.1,0-0.1c0,0,0-0.1,0-0.1c0,0,0,0,0,0.1c0,0.2,0.1,0.4,0.1,0.6c0.1,0.3,0.3,0.5,0.5,0.7c0-0.1,0-0.3,0-0.4
					c0.1,0.3,0.2,0.5,0.3,0.8c-0.1-0.1-0.3-0.2-0.4-0.4c0,0.1,0,0.2,0,0.4c0,0.3,0.2,0.7,0.3,1c0.2,0.5,0.4,1,0.6,1.5
					c0,0,0-0.1,0-0.1c0-0.2,0.2,0.4,0.1,0.2c0,0,0-0.1-0.1-0.1c0,0,0,0.1,0,0.1c0,0.1,0.1,0.3,0.1,0.4c0.1,0.3,0.2,0.5,0.3,0.8
					c0,0,0,0,0,0c0-0.2,0.2,0.4,0.1,0.2c0-0.1,0-0.1-0.1-0.2c0,0.1,0,0.1,0.1,0.2c0,0.1,0,0.1,0.1,0.2c0.1-0.1,0.3-0.2,0.5-0.3
					c0.2-0.1,0.4-0.2,0.7-0.2c-0.3,0.5-0.5,1-0.8,1.4c-0.1-0.2-0.2-0.5-0.2-0.7c0-0.1,0-0.2-0.1-0.2c-0.2,0.1-0.3,0.3-0.5,0.4
					c0,0,0,0,0,0c0.2-0.1-0.3,0.3-0.1,0.1c0,0,0,0,0,0c-0.1,0.1-0.3,0.1-0.4,0.2c-0.2,0.1-0.3,0.2-0.5,0.3c-0.2,0.1-0.3,0.2-0.5,0.3
					c-0.1,0-0.1,0.1-0.2,0.1c0,0,0,0,0,0c0.2,0-0.3,0.2-0.2,0.1c0.1,0,0.1-0.1,0.2-0.1c0,0-0.1,0-0.1,0c-0.4,0.1-0.7,0.1-1.1,0.4
					c-0.1,0.1-0.2,0.2-0.3,0.3c0.1,0,0.2-0.1,0.3-0.1c-0.2,0.1-0.3,0.2-0.5,0.3c0.1-0.1,0.2-0.1,0.3-0.2c-0.3,0.1-0.7,0.2-1,0.5
					c-0.1,0.1-0.2,0.2-0.4,0.3c0.2-0.1-0.3,0.3-0.1,0.1c0,0,0.1-0.1,0.1-0.1c0,0,0,0,0,0c-0.1,0-0.2,0.1-0.3,0.1c0,0-0.1,0-0.1,0.1
					c0,0,0,0,0,0c0.2,0-0.3,0.2-0.1,0.1c0,0,0.1,0,0.1-0.1c-0.2,0-0.4,0.1-0.6,0.1c-0.4,0.1-0.6,0.4-0.9,0.6c0.1,0,0.2-0.1,0.3-0.1
					c-0.2,0.1-0.3,0.2-0.5,0.3c0,0,0.1,0,0.1-0.1c-0.1,0-0.3,0.1-0.2,0c0,0,0,0,0,0c-0.1,0-0.2,0-0.3,0c-0.4,0-0.8,0.1-1.1,0.4
					c-0.1,0.1-0.1,0.2-0.2,0.3c0.2,0,0.4,0,0.6-0.1c-0.3,0.1-0.5,0.2-0.8,0.3c0.1-0.1,0.2-0.2,0.2-0.3c-0.1,0-0.2,0-0.3,0
					c-0.6,0.1-0.9,0.6-1.2,1.1c-0.4,0.6,0,1.6,0.7,1.7c0.1,0,0.3,0.1,0.4,0.1c0,0-0.1,0-0.1-0.1c-0.2-0.1,0.3,0.1,0.2,0.1
					c0,0-0.1,0-0.1,0c0.1,0,0.1,0.1,0.2,0.1c0.1,0.1,0.2,0.2,0.3,0.2c0.3,0.2,0.6,0.2,1,0.2c0.1,0,0.1,0,0.2,0c0,0,0,0,0,0
					c0,0,0,0-0.1,0c0,0,0,0,0.1,0c0,0,0,0,0,0c0,0,0,0,0.1,0c0.2,0,0.1,0-0.1,0c0,0,0,0,0,0c0.1,0.1,0.3,0.1,0.4,0.1c0,0,0,0,0.1,0
					c0,0,0,0,0,0c0.1,0,0.1,0.1,0.2,0.1c-0.1,0-0.1,0-0.1,0c0.2,0.1,0.3,0.2,0.5,0.3c0.2,0.1,0.5,0.3,0.7,0.4
					c0.2,0.1,0.5,0.2,0.7,0.2c0,0,0.1,0,0.1,0c0,0,0,0,0,0c-0.2-0.2,0.4,0.1,0.1,0.1c0,0-0.1,0-0.1,0c0.5,0.5,1.2,0.7,1.8,0.9
					c0.1,0,0.2,0.1,0.3,0.1c0,0,0.1,0,0.1,0c0,0-0.1-0.1-0.2-0.1c0.2,0.1,0.4,0.2,0.6,0.3c0.3,0.1,0.6,0.2,0.9,0.3
					c-0.1-0.1-0.2-0.1-0.3-0.2c0.2,0.1,0.3,0.2,0.5,0.3c-0.1,0-0.2-0.1-0.3-0.1c0.3,0.2,0.6,0.5,0.9,0.6c0.2,0.1,0.4,0.2,0.6,0.2
					c0.1-0.1,0.1-0.1,0.2-0.2c0,0,0.1-0.1,0.1-0.1c0-0.1,0-0.1,0-0.2c0,0,0,0.1,0,0.1c0.2-0.1,0.3-0.2,0.5-0.3
					c-0.1,0.2-0.2,0.4-0.3,0.6c0,0.1,0,0.1,0.1,0.2c0.1,0,0.1,0.1,0.2,0.1c-0.1,0-0.1,0-0.2,0c0,0.1,0.1,0.1,0.1,0.2
					c-0.1-0.1-0.1-0.2-0.2-0.2c0,0,0,0-0.1,0c0,0.1-0.1,0.2-0.1,0.2c0-0.1,0-0.2,0-0.3c-0.1,0-0.2-0.1-0.3-0.1
					c-0.3,0.3-0.4,0.6-0.4,1c0,0.1-0.1,0.3,0,0.3c0.1-0.1,0.2-0.3,0.1-0.1c0,0.1,0,0.1-0.1,0.1c0,0,0,0.1,0,0.1
					c0,0.1-0.2,0.2-0.2,0.3c0,0,0,0,0,0c0-0.1,0.3-0.3,0.1-0.1c0,0-0.1,0.1-0.1,0.1c0,0,0,0,0,0c0,0,0,0,0,0c0,0,0,0,0,0
					c-0.4,0.5-0.8,0.9-1.1,1.4c-0.1,0.3-0.2,0.6-0.4,1c0.1,0,0.1-0.1,0.2-0.1c-0.1,0.2-0.2,0.3-0.3,0.5c0-0.1,0.1-0.3,0.1-0.4
					c-0.1,0.1-0.3,0.2-0.4,0.4c-0.2,0.2-0.4,0.5-0.5,0.8c-0.2,0.4-0.4,0.8-0.5,1.2c0,0.1-0.1,0.1-0.1,0.2c0,0,0.1-0.1,0.1-0.1
					c0,0-0.1,0.1-0.1,0.1c0,0.1-0.1,0.1-0.1,0.1c0,0,0,0.1-0.1,0.1c-0.2,0.2-0.4,0.4-0.5,0.7c-0.3,0.4-0.4,0.6-0.5,1.1
					c0,0.1,0,0.2,0,0.3c0.1-0.1,0.2-0.2,0.3-0.3c-0.1,0.3-0.2,0.5-0.3,0.8c0-0.2,0-0.3,0-0.5c-0.1,0.2-0.3,0.3-0.4,0.5
					c-0.1,0.2-0.2,0.5-0.3,0.7c0.1-0.1,0.1-0.2,0.2-0.3c-0.1,0.2-0.2,0.3-0.3,0.5c0-0.1,0.1-0.2,0.1-0.3c-0.3,0.3-0.5,0.6-0.8,0.9
					c0.1-0.1-0.3,0.3-0.1,0.1c0,0,0.1-0.1,0.1-0.1c0,0,0,0-0.1,0.1c-0.1,0.1-0.2,0.2-0.3,0.4c-0.2,0.2-0.3,0.5-0.5,0.7
					c-0.2,0.4-0.6,0.8-0.7,1.3c-0.1,0.3-0.2,0.7-0.3,1c0.1-0.1,0.3-0.2,0.4-0.3c-0.2,0.2-0.4,0.5-0.5,0.7c0-0.1,0.1-0.3,0.1-0.4
					c0,0-0.1,0.1-0.1,0.1c-0.2,0.1-0.4,0.3-0.5,0.5c-0.1,0.1-0.1,0.3-0.2,0.5c0,0.1-0.1,0.2-0.1,0.3c0,0-0.2,0.4-0.1,0.1
					c0,0,0-0.1,0.1-0.1c0,0,0,0,0,0c-0.1,0.2-0.2,0.4-0.4,0.6c-0.2,0.3-0.4,0.6-0.6,1c-0.1,0.2-0.3,0.4-0.3,0.7c0,0.1,0,0.3-0.1,0.4
					c0.1-0.1,0.2-0.2,0.3-0.3c-0.1,0.2-0.2,0.3-0.3,0.5c0-0.1,0-0.2,0-0.2c-0.1,0.1-0.2,0.2-0.3,0.3c-0.4,0.4-0.4,1.2,0,1.6
					c0.4,0.4,1.2,0.4,1.6,0c0.4-0.4,0.8-0.7,0.9-1.3c0-0.1,0-0.3,0.1-0.4c0,0,0,0.1-0.1,0.1c-0.1,0.2,0.1-0.4,0.1-0.1c0,0,0,0,0,0
					c0.1-0.1,0.2-0.3,0.3-0.5c0.2-0.3,0.4-0.6,0.6-0.9c0.2-0.3,0.3-0.6,0.4-0.9c-0.1,0.1-0.2,0.2-0.4,0.3c0.2-0.2,0.4-0.5,0.5-0.7
					c-0.1,0.1-0.1,0.3-0.2,0.4c0.1-0.1,0.2-0.1,0.2-0.2c0.3-0.2,0.5-0.4,0.6-0.7c0.1-0.1,0.1-0.3,0.1-0.4c0.1-0.2,0.1-0.4,0.2-0.6
					c0-0.1,0.1-0.2,0.1-0.3c0,0.1-0.1,0.1-0.1,0.1c0,0,0.1-0.3,0.1-0.2c0,0,0,0.1,0,0.1c0,0,0,0,0-0.1c0.1-0.2,0.2-0.4,0.3-0.5
					c0.1-0.1,0.1-0.3,0.2-0.4c0,0,0-0.1,0-0.1c0,0,0,0.1-0.1,0.1c-0.2,0.2,0.1-0.2,0.1-0.1c0.2-0.2,0.3-0.4,0.5-0.7
					c0.1-0.1,0.2-0.2,0.2-0.3c0,0,0,0,0,0c0,0,0,0,0,0c0,0,0,0,0,0c0,0,0.1-0.1,0.1-0.1c0.2-0.2,0,0.1-0.1,0.1c0,0,0,0,0,0
					c0.2-0.2,0.5-0.6,0.7-0.8c0.1-0.2,0.2-0.5,0.3-0.7c-0.1,0.1-0.1,0.1-0.2,0.2c0.1-0.2,0.2-0.3,0.3-0.5c0,0.1-0.1,0.2-0.1,0.3
					c0.3-0.3,0.5-0.5,0.6-0.9c0.1-0.2,0.1-0.5,0.1-0.7c0,0.1-0.1,0.1-0.1,0.2c0.1-0.2,0.1-0.4,0.2-0.6c0,0.1,0,0.3,0,0.4
					c0,0,0.1-0.1,0.1-0.1c0,0,0-0.1,0.1-0.1c0,0,0,0,0,0c-0.1,0.1,0.2-0.3,0.1-0.1c0,0,0,0.1-0.1,0.1c0.2-0.2,0.5-0.5,0.6-0.7
					c0.3-0.4,0.4-0.9,0.6-1.3c0.1-0.1,0.2-0.3,0.2-0.4c0,0,0,0,0,0c0,0,0,0,0,0c-0.1,0,0.2-0.4,0.1-0.1c0,0,0,0.1-0.1,0.1
					c0.1-0.1,0.2-0.2,0.3-0.3c0.1-0.1,0.3-0.2,0.4-0.4c0.2-0.4,0.4-0.9,0.5-1.4c-0.1,0.1-0.1,0.2-0.2,0.2c0.1-0.2,0.2-0.3,0.3-0.5
					c0,0.1-0.1,0.2-0.1,0.3c0.3-0.4,0.7-0.8,0.9-1.2c0.2-0.3,0.4-0.6,0.4-0.9c0-0.1,0.1-0.3,0.1-0.4c-0.2,0.1-0.3,0.2-0.5,0.3
					c0.2-0.2,0.4-0.5,0.5-0.7c0,0.1,0,0.2,0,0.4c0,0,0,0,0.1,0c0.2-0.1,0.4-0.3,0.5-0.5c0.1-0.2,0.2-0.5,0.2-0.8
					c0-0.3,0.1-0.6,0-0.9c-0.1-0.3-0.4-0.7-0.7-0.9c-0.3-0.3-0.6-0.3-1-0.4c-0.1,0-0.2-0.1-0.2-0.1c0.1,0,0.3,0.1,0.1,0.1
					c-0.1,0-0.1-0.1-0.2-0.1c0,0,0,0,0,0c0,0,0,0,0,0c0,0,0,0-0.1,0c-0.1,0-0.2-0.1-0.3-0.2c0,0,0,0,0,0c0.1,0.1,0.3,0.2,0,0
					c0,0,0,0,0,0c0,0,0,0,0,0c0,0,0,0,0,0c-0.3-0.2-0.6-0.5-0.9-0.7c-0.2-0.1-0.4-0.2-0.7-0.2c0,0,0.1,0,0.1,0
					c0.3,0.2-0.3-0.1-0.1,0c0,0,0,0,0,0c-0.1-0.1-0.2-0.1-0.4-0.2c-0.4-0.2-0.8-0.3-1.2-0.4c-0.1,0-0.3-0.1-0.4-0.1c0,0,0,0,0,0
					c0,0,0,0,0,0c0,0,0,0,0,0c-0.1,0-0.1,0-0.2-0.1c-0.2-0.1,0.1,0,0.2,0.1c0,0,0,0,0,0c-0.1-0.2-0.4-0.3-0.6-0.4
					c-0.2-0.1-0.5-0.2-0.8-0.3c0,0,0,0,0,0c0,0,0,0,0.1,0c0,0,0,0-0.1-0.1c0,0-0.1,0-0.1,0c-0.1,0,0-0.1,0.1,0
					c-0.1,0-0.2-0.1-0.2-0.1c-0.4-0.2-0.7-0.5-1.1-0.7c0,0,0,0-0.1,0c-0.3,0.1-0.6,0.2-0.9,0.2c-0.2,0.2-0.4,0.4-0.6,0.5
					c-0.4,0.2-0.8,0.1-1.2,0.2c0.2-0.1,0.4-0.2,0.5-0.3c-0.2-0.5-0.4-1-0.6-1.5c0.3,0,0.6,0.1,0.9,0.2c0.1,0.1,0.3,0.2,0.4,0.3
					c0.1,0,0.3,0,0.4,0c0.3,0,0.6,0.1,0.9,0.2c0.1,0,0.1,0.1,0.2,0.1c0.3-0.1,0.6-0.2,0.8-0.4C214,1138,214.1,1137.9,214.2,1137.9z"
					/>
				<path class="st9" d="M211.5,1158.1c-0.1,0.1-0.3,0.2-0.4,0.3c0,0.1-0.1,0.2-0.1,0.4C211.2,1158.6,211.4,1158.3,211.5,1158.1z"/>
				<path class="st9" d="M219.5,1141.7C219.5,1141.7,219.5,1141.7,219.5,1141.7C219.5,1141.7,219.5,1141.7,219.5,1141.7
					C219.5,1141.7,219.5,1141.7,219.5,1141.7z"/>
				<path class="st9" d="M219.9,1141.9C219.9,1141.9,219.9,1141.9,219.9,1141.9C219.9,1141.9,219.9,1141.9,219.9,1141.9
					C219.9,1141.9,219.9,1141.9,219.9,1141.9z"/>
				<path class="st9" d="M218,1140.9C218,1140.8,217.9,1140.8,218,1140.9C217.9,1140.8,217.9,1140.8,218,1140.9
					C217.6,1140.8,218.3,1141,218,1140.9z"/>
				<path class="st9" d="M215.9,1140.1C215.9,1140.1,215.9,1140.1,215.9,1140.1C215.9,1140.1,215.9,1140.1,215.9,1140.1
					C215.9,1140.1,215.9,1140.1,215.9,1140.1z"/>
				<path class="st9" d="M219.5,1143.6c0,0.1,0,0.1,0,0.2c0,0,0,0,0.1,0C219.6,1143.7,219.6,1143.7,219.5,1143.6z"/>
				<path class="st9" d="M219.5,1144c0,0,0,0.1,0,0.1c0,0,0.1,0,0.1,0c0,0,0,0,0,0C219.6,1144.1,219.5,1144.1,219.5,1144z"/>
				<path class="st9" d="M219.5,1144.4c0-0.1,0.1-0.2,0.1-0.2c0,0-0.1,0-0.1,0C219.5,1144.2,219.5,1144.3,219.5,1144.4z"/>
				<path class="st9" d="M220,1144.3c-0.1,0-0.1-0.1-0.2-0.1c0,0,0,0,0,0.1C219.9,1144.3,219.9,1144.3,220,1144.3z"/>
				<path class="st9" d="M219.7,1144.1c0,0-0.1-0.1-0.1-0.1c0,0,0,0,0,0C219.5,1144.1,219.6,1144.1,219.7,1144.1
					C219.6,1144.1,219.6,1144.1,219.7,1144.1z"/>
				<path class="st9" d="M220,1143.4c-0.2,0.1-0.3,0.2-0.5,0.3c0,0.1,0.1,0.2,0.1,0.3C219.8,1143.8,219.9,1143.6,220,1143.4z"/>
				<path class="st9" d="M219.5,1144C219.5,1144,219.5,1144,219.5,1144C219.5,1144,219.5,1144,219.5,1144
					C219.5,1144,219.5,1144,219.5,1144z"/>
				<path class="st9" d="M219.9,1144.4c0-0.1-0.1-0.1-0.1-0.2c0,0-0.1,0-0.1,0C219.7,1144.3,219.8,1144.4,219.9,1144.4z"/>
				<path class="st9" d="M210,1140C210,1140,210,1140,210,1140c0.1,0.1,0.1,0.1,0.2,0.1C210.3,1140,209.8,1139.8,210,1140z"/>
				<path class="st9" d="M212.2,1140.7C212.2,1140.7,212.1,1140.7,212.2,1140.7C212.1,1140.7,212.2,1140.7,212.2,1140.7
					C212.2,1140.7,212.2,1140.7,212.2,1140.7C212.2,1140.7,212.2,1140.7,212.2,1140.7z"/>
				<path class="st9" d="M211.7,1140.5C211.7,1140.5,211.7,1140.5,211.7,1140.5C211.7,1140.5,211.7,1140.5,211.7,1140.5
					C211.7,1140.5,211.7,1140.5,211.7,1140.5z"/>
				<path class="st9" d="M217.4,1143c0.1,0.1,0.2,0.1,0.3,0.2c0.1,0,0.2,0.1,0.3,0.1C217.8,1143.2,217.6,1143.1,217.4,1143z"/>
				<path class="st9" d="M212.9,1155C212.9,1155,212.9,1155,212.9,1155C212.6,1155.3,213,1154.9,212.9,1155z"/>
				<path class="st9" d="M214.2,1141.7C214.2,1141.7,214.2,1141.7,214.2,1141.7c0.1,0,0.1,0,0.1,0.1
					C214.6,1141.8,214,1141.5,214.2,1141.7z"/>
				<path class="st9" d="M218.5,1145.7C218.5,1145.7,218.5,1145.7,218.5,1145.7C218.5,1145.7,218.5,1145.7,218.5,1145.7
					C218.5,1145.7,218.5,1145.7,218.5,1145.7z"/>
				<path class="st9" d="M219.6,1144.2C219.6,1144.2,219.7,1144.2,219.6,1144.2C219.7,1144.2,219.6,1144.2,219.6,1144.2
					C219.6,1144.2,219.6,1144.2,219.6,1144.2z"/>
				<path class="st9" d="M217.2,1148.1c0,0-0.1,0.1-0.2,0.1c0,0.1-0.1,0.3-0.1,0.4C217,1148.4,217.1,1148.2,217.2,1148.1z"/>
				<path class="st9" d="M214.6,1152.5c-0.1,0.1-0.2,0.2-0.3,0.3c0,0.2,0,0.3,0,0.5C214.4,1153.1,214.5,1152.8,214.6,1152.5z"/>
				<path class="st9" d="M213.9,1153.8c-0.1,0.1-0.1,0.2-0.2,0.3c0,0.1-0.1,0.2-0.1,0.3C213.7,1154.1,213.8,1154,213.9,1153.8z"/>
				<path class="st9" d="M215.5,1150.7C215.5,1150.7,215.5,1150.6,215.5,1150.7C215.5,1150.7,215.5,1150.7,215.5,1150.7
					C215.5,1150.7,215.5,1150.7,215.5,1150.7C215.5,1150.7,215.5,1150.7,215.5,1150.7z"/>
				<path class="st9" d="M219.6,1144.2C219.6,1144.2,219.7,1144.2,219.6,1144.2c0.1,0.1,0.1,0.1,0.2,0.1c0,0,0,0,0-0.1
					C219.7,1144.1,219.7,1144.1,219.6,1144.2C219.6,1144.1,219.6,1144.1,219.6,1144.2z"/>
				<path class="st9" d="M219.8,1144.2c0-0.1,0-0.1-0.1-0.2c0,0,0,0.1-0.1,0.1C219.7,1144.1,219.7,1144.1,219.8,1144.2z"/>
				<path class="st9" d="M218.7,1145.3C218.7,1145.3,218.8,1145.3,218.7,1145.3C218.9,1145,218.8,1145.2,218.7,1145.3z"/>
				<path class="st9" d="M219.5,1144C219.5,1144,219.5,1144,219.5,1144C219.5,1144,219.5,1144,219.5,1144c0-0.1,0-0.2,0-0.3
					c0,0-0.1,0.1-0.1,0.1c-0.1,0.1-0.2,0.1-0.2,0.2c0.1,0,0.2,0.1,0.3,0.1C219.5,1144.1,219.5,1144.1,219.5,1144z"/>
				<path class="st9" d="M219.7,1144.1C219.7,1144.1,219.7,1144,219.7,1144.1c0-0.2,0-0.3-0.1-0.4c0,0,0,0-0.1,0c0,0.1,0,0.2,0,0.2
					C219.6,1144,219.6,1144.1,219.7,1144.1z"/>
			</g>
			<g>
				<path class="st9" d="M150.4,1134.4c-0.1-0.1-0.1-0.2-0.2-0.3c-0.1,0-0.1-0.1-0.2-0.1C150.1,1134.1,150.3,1134.3,150.4,1134.4z"
					/>
				<path class="st9" d="M147.8,1132C147.8,1131.9,147.8,1131.9,147.8,1132c0-0.1,0-0.1,0-0.1C147.9,1131.5,147.8,1132.1,147.8,1132
					z"/>
				<path class="st9" d="M148.1,1132.8c-0.1,0-0.1-0.1-0.2-0.1C147.8,1132.7,148.2,1132.8,148.1,1132.8z"/>
				<path class="st9" d="M146.4,1132.1c0.2,0.6,0.5,1.1,0.7,1.7c0.1-0.2,0.3-0.4,0.4-0.6c0.1-0.2,0.2-0.4,0.2-0.6
					c-0.1,0-0.2-0.1-0.2-0.1C147.2,1132.4,146.8,1132.2,146.4,1132.1z"/>
				<path class="st9" d="M152.8,1135.5c0-0.1-0.1-0.1-0.1-0.2c-0.1,0-0.3-0.1-0.4-0.1C152.5,1135.3,152.6,1135.4,152.8,1135.5z"/>
				<path class="st9" d="M155.4,1140.5C155.4,1140.5,155.4,1140.5,155.4,1140.5c0.1,0,0.1,0,0.2-0.1
					C155.7,1140.4,155.3,1140.5,155.4,1140.5z"/>
				<path class="st9" d="M154.6,1136.2c0,0-0.1,0-0.1-0.1c0,0-0.1,0-0.1,0C154.2,1136.1,154.7,1136.2,154.6,1136.2z"/>
				<path class="st9" d="M156.9,1137.7c-0.1-0.1-0.2-0.3-0.3-0.4c-0.1,0-0.3-0.1-0.4-0.1C156.4,1137.3,156.7,1137.5,156.9,1137.7z"
					/>
				<path class="st9" d="M151.3,1122.2C151.3,1122.2,151.3,1122.2,151.3,1122.2c0-0.1,0-0.1,0-0.1
					C151.3,1122.1,151.3,1122.2,151.3,1122.2z"/>
				<path class="st9" d="M151.2,1122.1C151.2,1122.1,151.3,1122,151.2,1122.1c0.1-0.1,0.1-0.1,0.1-0.1
					C151.3,1122,151.2,1122,151.2,1122.1z"/>
				<path class="st9" d="M151.3,1122C151.3,1122,151.3,1122,151.3,1122C151.3,1122,151.3,1122,151.3,1122
					C151.3,1122,151.3,1122,151.3,1122C151.3,1122,151.3,1122,151.3,1122z"/>
				<path class="st9" d="M150.7,1123.9C150.7,1123.9,150.7,1123.9,150.7,1123.9C150.7,1123.9,150.7,1123.9,150.7,1123.9
					C150.7,1123.9,150.7,1123.9,150.7,1123.9z"/>
				<path class="st9" d="M149.1,1128.5c0-0.1,0-0.1,0-0.2C149.1,1128.1,149,1128.6,149.1,1128.5z"/>
				<path class="st9" d="M148.6,1129.6c-0.1,0.3-0.2,0.5-0.3,0.8c0.1-0.1,0.2-0.2,0.3-0.4C148.6,1129.9,148.6,1129.8,148.6,1129.6z"
					/>
				<path class="st9" d="M149.1,1128.1c0,0,0.1-0.1,0.1-0.1c0,0,0,0,0,0C149.2,1127.7,149.2,1128,149.1,1128.1z"/>
				<path class="st9" d="M147.7,1131.8c0.1-0.1,0.2-0.2,0.2-0.3c0-0.1,0-0.2,0.1-0.2C147.9,1131.5,147.8,1131.7,147.7,1131.8z"/>
				<path class="st9" d="M147.8,1144C147.8,1144,147.8,1144,147.8,1144c0.1,0,0.2-0.1,0.2-0.1c0.1-0.1,0.2-0.1,0.3-0.2
					C148.1,1143.9,147.9,1143.9,147.8,1144z"/>
				<path class="st9" d="M152.7,1153.4c0-0.2,0-0.3,0-0.5c-0.1-0.1-0.2-0.2-0.3-0.4C152.4,1152.8,152.6,1153.1,152.7,1153.4z"/>
				<path class="st9" d="M151.6,1151.4c0-0.2,0-0.3,0-0.5c-0.1-0.1-0.2-0.2-0.3-0.3C151.4,1150.9,151.5,1151.2,151.6,1151.4z"/>
				<path class="st9" d="M150.7,1149.6c0-0.1-0.1-0.2-0.1-0.2c-0.1-0.1-0.2-0.1-0.3-0.2C150.4,1149.3,150.5,1149.4,150.7,1149.6z"/>
				<path class="st9" d="M148.3,1145.2C148.3,1145.2,148.3,1145.2,148.3,1145.2c0-0.1-0.1-0.1-0.1-0.2
					C148.3,1145.1,148.4,1145.4,148.3,1145.2z"/>
				<path class="st9" d="M155.6,1158.1c0-0.1-0.1-0.2-0.1-0.3c-0.1-0.1-0.1-0.1-0.2-0.2C155.4,1157.8,155.5,1158,155.6,1158.1z"/>
				<path class="st9" d="M148.9,1146.6C148.9,1146.6,148.9,1146.5,148.9,1146.6c0-0.1-0.1-0.1-0.1-0.2
					C148.8,1146.4,149,1146.8,148.9,1146.6z"/>
				<path class="st9" d="M158,1161.9c0-0.2-0.1-0.3-0.1-0.4c-0.1-0.1-0.3-0.2-0.4-0.2C157.6,1161.5,157.8,1161.7,158,1161.9z"/>
				<path class="st9" d="M156.3,1158.8c-0.1,0,0.2,0.3,0.1,0.2C156.4,1159,156.4,1158.9,156.3,1158.8
					C156.3,1158.9,156.3,1158.8,156.3,1158.8z"/>
				<path class="st9" d="M150.5,1134.2C150.6,1134.3,150.7,1134.3,150.5,1134.2L150.5,1134.2z"/>
				<path class="st9" d="M157.3,1160.5c0,0,0-0.1,0-0.1c0,0,0,0,0,0c0,0,0,0,0,0C157.2,1160.2,157.4,1160.7,157.3,1160.5z"/>
				<path class="st9" d="M147.5,1143.8c-0.1,0.1-0.1,0.2-0.2,0.3c0.1,0.1,0.1,0.2,0.2,0.3c0,0,0,0,0,0
					C147.5,1144.2,147.5,1144,147.5,1143.8C147.5,1143.8,147.5,1143.8,147.5,1143.8z"/>
				<path class="st9" d="M147.7,1144.1C147.8,1144.1,147.8,1144,147.7,1144.1c0-0.1-0.1-0.1-0.2-0.2c0,0-0.1,0-0.1-0.1
					c0,0.2,0,0.3,0,0.5C147.6,1144.2,147.7,1144.2,147.7,1144.1C147.8,1144.1,147.8,1144.1,147.7,1144.1
					C147.8,1144.1,147.8,1144.1,147.7,1144.1z"/>
				<path class="st9" d="M147.8,1144.1c0.1,0,0.1-0.1,0.2-0.1C147.9,1144,147.8,1144,147.8,1144.1
					C147.8,1144.1,147.8,1144.1,147.8,1144.1z"/>
				<path class="st9" d="M147.8,1144C147.8,1144,147.8,1144,147.8,1144C147.8,1144,147.8,1144.1,147.8,1144
					C147.8,1144.1,147.8,1144.1,147.8,1144z"/>
				<path class="st9" d="M153.1,1141.5c0.1-0.1-0.2,0.2-0.2,0.2c0,0,0,0,0,0c0,0,0,0,0,0C153,1141.6,153,1141.6,153.1,1141.5z"/>
				<path class="st9" d="M149.8,1142.9c0.1,0,0.2-0.1,0.3-0.1c0.1-0.1,0.1-0.1,0.2-0.2C150.1,1142.7,149.9,1142.8,149.8,1142.9z"/>
				<path class="st9" d="M146.9,1144.8c0.2-0.1,0.4-0.3,0.6-0.4c-0.1-0.1-0.1-0.2-0.2-0.3C147.2,1144.3,147.1,1144.5,146.9,1144.8z"
					/>
				<path class="st9" d="M147.5,1144.4C147.5,1144.4,147.5,1144.4,147.5,1144.4C147.5,1144.3,147.5,1144.3,147.5,1144.4
					C147.5,1144.4,147.5,1144.4,147.5,1144.4z"/>
				<path class="st9" d="M153.3,1141.4c0,0,0.1,0,0.1,0c0,0,0,0,0.1,0C153.7,1141.2,153.2,1141.5,153.3,1141.4z"/>
				<path class="st9" d="M146.9,1143.4c0.1,0.2,0.3,0.4,0.4,0.7c0.1-0.1,0.1-0.2,0.2-0.3C147.3,1143.7,147.1,1143.5,146.9,1143.4z"
					/>
				<path class="st9" d="M147.5,1143.8C147.5,1143.8,147.5,1143.8,147.5,1143.8C147.5,1143.8,147.5,1143.8,147.5,1143.8
					C147.5,1143.8,147.5,1143.8,147.5,1143.8z"/>
				<path class="st9" d="M151.3,1122C151.3,1122,151.3,1122,151.3,1122c0,0,0.1-0.1,0.1-0.1c0-0.1,0.1-0.2,0.1-0.3
					C151.4,1121.7,151.4,1121.8,151.3,1122z"/>
				<path class="st9" d="M151.4,1140c-0.1,0-0.2,0.1-0.3,0.1c-0.1,0.1-0.2,0.1-0.3,0.2C151,1140.2,151.2,1140.1,151.4,1140z"/>
				<path class="st9" d="M146.6,1146.6C146.6,1146.7,146.6,1146.7,146.6,1146.6C146.8,1147,146.5,1146.4,146.6,1146.6z"/>
				<path class="st9" d="M154.5,1138.4c-0.1,0-0.1,0.1-0.2,0.1c0.1,0,0.2,0.1,0.4,0.1C154.6,1138.5,154.6,1138.4,154.5,1138.4z"/>
				<polygon class="st9" points="146.2,1142.4 146.2,1142.4 146.2,1142.4 				"/>
				<path class="st9" d="M145.9,1145.2c0,0.1,0.1,0.3,0.1,0.4c0.1,0.1,0.3,0.2,0.4,0.3C146.2,1145.7,146.1,1145.4,145.9,1145.2z"/>
				<path class="st9" d="M148.6,1141.2c-0.1,0-0.2,0.1-0.3,0.1c-0.1,0.1-0.1,0.1-0.2,0.2C148.2,1141.4,148.4,1141.3,148.6,1141.2z"
					/>
				<path class="st9" d="M156.3,1138C156.2,1138,156.2,1138,156.3,1138C156.3,1138,156.3,1138,156.3,1138z"/>
				<path class="st9" d="M156.2,1138C156.2,1138,156.2,1138,156.2,1138c-0.1,0-0.1,0.1-0.2,0.1
					C156.1,1138.1,156.1,1138.1,156.2,1138z"/>
				<path class="st9" d="M155.1,1138.7c-0.2-0.1-0.3-0.3-0.5-0.4c0,0,0,0-0.1,0c0.1,0.1,0.1,0.2,0.2,0.2
					C154.8,1138.6,155,1138.7,155.1,1138.7z"/>
				<path class="st9" d="M154.7,1138.6c0,0.1,0.1,0.1,0.1,0.2c0.3,0.4,0.6,0.6,1,0.7c0.4,0.1,0.8,0.3,1.2,0.4
					c-0.1-0.7-0.2-1.4-0.3-2.1c-0.2,0.1-0.4,0.2-0.5,0.2c0,0,0,0,0,0c-0.1,0-0.1,0.1-0.2,0.1c0.1,0,0.2-0.1,0.2-0.1c0,0,0,0-0.1,0
					c-0.1,0-0.2,0-0.3,0.1c-0.1,0-0.2,0-0.3,0.1c-0.3,0-0.5,0-0.8,0.1c-0.1,0-0.1,0-0.2,0.1c0.2,0.1,0.3,0.3,0.5,0.4
					C155,1138.7,154.8,1138.6,154.7,1138.6z"/>
				<path class="st9" d="M154,1159.7c0,0,0.1,0.1,0.1,0.1c0,0,0,0,0,0C154.1,1159.7,154.1,1159.7,154,1159.7z"/>
				<path class="st9" d="M156.4,1163c0,0.1,0.1,0.3,0.1,0.4c0.1,0.1,0.3,0.2,0.4,0.3C156.7,1163.5,156.6,1163.2,156.4,1163z"/>
				<path class="st9" d="M155.5,1161.9c0,0,0,0.1,0,0.1c0,0,0,0,0,0.1C155.7,1162.2,155.5,1161.7,155.5,1161.9z"/>
				<path class="st9" d="M154.9,1160.5c0,0.1,0.1,0.2,0.1,0.3c0.1,0.1,0.1,0.1,0.2,0.2C155.1,1160.8,155,1160.6,154.9,1160.5z"/>
				<path class="st9" d="M158.3,1161.9c-0.1-0.1-0.3-0.3-0.5-0.4c0.1,0.1,0.1,0.3,0.1,0.4c-0.2-0.2-0.4-0.5-0.5-0.7
					c0.1,0.1,0.3,0.2,0.4,0.2c-0.1-0.3-0.2-0.6-0.4-0.8c-0.1-0.1-0.1-0.2-0.2-0.3c0,0,0,0,0,0c0,0,0,0.1,0,0.1
					c0,0.1-0.2-0.3-0.1-0.2c0,0,0,0,0,0c-0.1-0.3-0.2-0.6-0.3-0.8c-0.1-0.2-0.4-0.4-0.6-0.6c0,0,0,0-0.1-0.1c0,0,0.1,0.1,0.1,0.1
					c0,0.1-0.2-0.2-0.1-0.2c0,0,0,0,0.1,0.1c0-0.1-0.1-0.1-0.1-0.2c-0.2-0.3-0.5-0.6-0.7-0.9c0,0.1,0.1,0.2,0.1,0.3
					c-0.1-0.2-0.2-0.3-0.3-0.5c0.1,0.1,0.1,0.1,0.2,0.2c-0.1-0.1-0.1-0.2-0.1-0.4c-0.1-0.3-0.1-0.7-0.3-1c-0.2-0.4-0.5-0.9-0.8-1.3
					c-0.1-0.2-0.3-0.4-0.4-0.6c-0.1-0.2-0.2-0.5-0.3-0.7c-0.2-0.3-0.5-0.5-0.7-0.8c-0.1-0.1-0.1-0.1-0.2-0.2c0,0.2,0,0.3,0,0.5
					c-0.1-0.3-0.2-0.5-0.3-0.8c0.1,0.1,0.2,0.2,0.3,0.4c0-0.1,0-0.1,0-0.2c0-0.4-0.2-0.8-0.5-1.1c-0.2-0.2-0.4-0.4-0.6-0.6
					c0,0.2,0,0.3,0,0.5c-0.1-0.3-0.2-0.5-0.3-0.8c0.1,0.1,0.2,0.2,0.3,0.3c0-0.3-0.1-0.7-0.2-0.9c-0.2-0.3-0.5-0.5-0.8-0.7
					c0,0.1,0.1,0.1,0.1,0.2c-0.1-0.1-0.3-0.3-0.4-0.4c0.1,0.1,0.2,0.1,0.3,0.2c-0.4-0.7-0.8-1.4-1.2-2.1c-0.1-0.2-0.2-0.3-0.3-0.5
					c0-0.1-0.1-0.1-0.1-0.2c0,0,0,0,0,0.1c0,0.2-0.1-0.2-0.1-0.2c0,0,0.1,0.1,0.1,0.1c0-0.1,0-0.1,0-0.2c-0.1-0.3-0.1-0.6-0.3-0.8
					c-0.1-0.1-0.2-0.2-0.3-0.4c0,0,0,0,0,0c0,0,0,0.1,0,0.1c0.1,0.2,0-0.1-0.1-0.2c0,0,0,0,0.1,0.1c-0.1-0.4-0.2-0.7-0.5-1
					c-0.1,0.1-0.2,0.2-0.3,0.2c0,0,0,0.1,0,0.1c0,0,0,0,0-0.1c-0.2,0.1-0.4,0.3-0.6,0.4c0.1-0.2,0.3-0.5,0.4-0.7
					c-0.1-0.2-0.3-0.4-0.4-0.7c0.2,0.1,0.4,0.3,0.5,0.4c0,0,0,0,0,0c0,0,0,0,0,0c0,0,0.1,0,0.1,0.1c0.1,0,0.1,0.1,0.2,0.2
					c0.2-0.1,0.3-0.2,0.5-0.3c-0.1,0.1-0.2,0.1-0.3,0.2c0.3-0.1,0.6-0.2,0.9-0.4c0.3-0.1,0.6-0.3,0.9-0.5c0.1-0.1,0.2-0.2,0.3-0.3
					c-0.1,0-0.2,0.1-0.3,0.1c0.2-0.1,0.3-0.2,0.5-0.3c-0.1,0.1-0.1,0.1-0.2,0.2c0.1-0.1,0.3-0.1,0.4-0.1c0.3-0.1,0.5-0.1,0.8-0.2
					c0.4-0.1,0.9-0.3,1.2-0.6c0.1-0.1,0.2-0.2,0.4-0.3c0,0,0,0,0,0c0,0,0.3-0.2,0.2-0.2c-0.1,0-0.1,0.1-0.2,0.1c0,0,0,0,0,0
					c0,0,0.1,0,0.1-0.1c0.1-0.1,0.3-0.1,0.4-0.2c0,0-0.1,0-0.1,0c-0.1,0,0.4-0.2,0.2-0.1c0,0,0,0-0.1,0c0,0,0.1,0,0.1-0.1
					c0.3-0.1,0.5-0.2,0.8-0.3c0.3-0.1,0.7-0.3,1-0.5c0,0,0,0,0.1,0c0,0,0,0,0,0c-0.1,0,0.3-0.2,0.2-0.1c0,0-0.1,0.1-0.1,0.1
					c0.1,0,0.4-0.1,0.5-0.1c0.3,0,0.6-0.1,0.9-0.2c0.4-0.1,0.7-0.3,1.1-0.5c0.4-0.2,0.6-0.7,0.6-1.2c-0.1-0.5-0.4-0.8-0.8-1
					c-0.4-0.1-0.7-0.3-1.1-0.4c0.1,0.1,0.2,0.3,0.3,0.4c-0.2-0.2-0.5-0.4-0.7-0.5c0.1,0,0.3,0.1,0.4,0.1c0,0-0.1-0.1-0.1-0.1
					c-0.3-0.3-0.5-0.5-0.9-0.7c-0.4-0.1-0.8-0.3-1.2-0.4c0,0,0,0,0,0c0,0,0.1,0,0.1,0c0,0,0.1,0,0.1,0.1c0.1,0.1-0.3-0.1-0.2-0.1
					c-0.1,0-0.2-0.1-0.3-0.1c-0.2-0.1-0.3-0.1-0.4-0.2c-0.3-0.2-0.6-0.3-0.9-0.4c0,0.1,0.1,0.1,0.1,0.2c-0.2-0.1-0.3-0.2-0.5-0.3
					c0.1,0,0.3,0.1,0.4,0.1c-0.1-0.2-0.2-0.3-0.4-0.4c-0.3-0.3-0.8-0.3-1.2-0.5c-0.2-0.1-0.5-0.2-0.7-0.3c0,0,0.1,0,0.1,0
					c0,0-0.1,0-0.2-0.1c-0.1,0-0.1,0-0.2-0.1c0.1,0.1,0.1,0.2,0.2,0.3c-0.1-0.1-0.3-0.3-0.4-0.4c0.1,0,0.1,0.1,0.2,0.1
					c-0.2-0.4-0.5-0.7-0.9-0.9c-0.3-0.1-0.6-0.2-0.9-0.3c-0.1,0-0.2-0.1-0.3-0.1c0,0-0.1,0-0.1,0c0.1,0,0.1,0.1,0.2,0.1
					c0.1,0-0.3-0.1-0.2-0.1c0,0-0.1,0-0.1-0.1c0,0.2-0.1,0.4-0.2,0.6c-0.1,0.2-0.3,0.4-0.4,0.6c-0.2-0.6-0.5-1.1-0.7-1.7
					c0.4,0.2,0.7,0.3,1.1,0.5c0.1,0,0.2,0.1,0.2,0.1c0-0.1,0-0.2,0-0.3c0-0.1,0-0.2,0-0.4c0,0,0,0,0,0c-0.1,0.2,0-0.4,0-0.1
					c0,0,0,0,0,0.1c0-0.1,0.1-0.2,0.1-0.4c-0.1,0.1-0.2,0.2-0.2,0.3c0.1-0.2,0.2-0.3,0.3-0.5c0,0.1,0,0.2-0.1,0.2
					c0.2-0.2,0.4-0.5,0.5-0.7c0.1-0.2,0.1-0.5,0.1-0.8c-0.1,0.1-0.2,0.2-0.3,0.4c0.1-0.3,0.2-0.5,0.3-0.8c0,0.1,0,0.3,0,0.5
					c0.2-0.2,0.4-0.5,0.5-0.7c0.1-0.2,0-0.5,0-0.7c0-0.1,0-0.2,0-0.3c0,0,0,0,0,0c0,0.1,0,0.1,0,0.2c0,0.1,0-0.4,0-0.2
					c0-0.1,0-0.3,0.1-0.4c0,0.1-0.1,0.1-0.1,0.1c0.1-0.1,0.1-0.4,0.1-0.1c0,0,0,0,0,0c0,0,0-0.1,0-0.1c0.2-0.4,0.4-0.7,0.5-1.1
					c0.1-0.3,0.1-0.6,0.2-0.9c0.1-0.3,0.2-0.5,0.3-0.8c-0.2,0.6,0,0,0.1-0.2c0.1-0.2,0.2-0.4,0.2-0.5c0.1-0.1,0.1-0.3,0.2-0.4
					c0,0,0,0,0,0c0,0,0,0,0,0c0,0,0-0.1,0.1-0.1c0.1-0.2,0,0.1-0.1,0.1c0,0,0,0,0,0c0.1,0,0.1-0.2,0.1-0.2c0.2-0.2,0.3-0.4,0.4-0.7
					c0.1-0.2,0-0.5,0.1-0.8c0,0,0-0.1,0-0.1c0,0,0,0,0,0c0,0,0,0,0,0c0,0,0-0.1,0-0.1c0,0,0-0.1,0-0.1c0,0,0,0.1-0.1,0.1
					c0,0,0-0.1,0.1-0.1c0,0,0,0,0,0c0,0,0,0,0,0c0.1-0.1,0.2-0.3,0.2-0.4c0,0.1-0.1,0.2-0.1,0.3c0.1-0.2,0.3-0.3,0.4-0.5
					c0.2-0.3,0.3-0.8,0.3-1.2c0,0,0,0,0-0.3c0,0.1,0,0.2,0,0.3c0-0.1,0-0.3,0-0.4c0-0.1,0-0.2,0.1-0.4c0.1-0.3,0.1-0.5,0.2-0.8
					c0-0.1,0.1-0.3,0.1-0.4c0,0,0,0-0.1,0.1c0,0,0-0.1,0.1-0.1c0,0,0,0,0,0c0-0.1,0.1-0.1,0-0.1c0.1-0.2,0.3-0.5,0.4-0.7
					c0.3-0.5,0.6-1.2,0.8-1.8c0.2-0.5,0.3-1.1,0.3-1.6c0,0.1-0.1,0.1-0.1,0.2c0.1-0.2,0.1-0.4,0.2-0.6c0,0.1,0,0.3,0,0.4
					c0.1-0.1,0.2-0.2,0.2-0.4c0.2-0.3,0.2-0.6,0.2-0.9c0-0.1,0-0.2,0-0.2c-0.1,0.1,0-0.1,0-0.2c0,0,0,0-0.1,0.1
					c0.1-0.2,0.2-0.3,0.3-0.5c0,0.1-0.1,0.2-0.1,0.3c0.1-0.1,0.2-0.2,0.3-0.4c0.4-0.5,0.5-1.2,0-1.6c-0.4-0.4-1.2-0.5-1.6,0
					c-0.2,0.2-0.3,0.3-0.5,0.5c-0.2,0.3-0.4,0.6-0.5,0.9c-0.1,0.4-0.2,0.7-0.2,1.1c0-0.1,0.1-0.1,0.1-0.2c-0.1,0.2-0.1,0.4-0.2,0.6
					c0-0.1,0-0.3,0-0.4c-0.2,0.3-0.4,0.6-0.4,0.9c0,0.2,0,0.3,0,0.5c0,0.1,0,0.1,0,0.2c0,0,0,0,0,0c0,0,0,0.4,0,0.2c0,0,0-0.1,0-0.1
					c-0.1,0.1-0.1,0.4-0.1,0.4c0,0.1-0.1,0.2-0.1,0.3c-0.1,0.3-0.2,0.5-0.3,0.7c0,0.1-0.1,0.2-0.1,0.3c0,0-0.2,0.4-0.1,0.2
					c0-0.1,0-0.1,0.1-0.2c0,0,0,0,0,0c-0.1,0-0.1,0.2-0.1,0.2c-0.1,0.2-0.3,0.5-0.4,0.7c-0.3,0.6-0.5,1.2-0.6,1.8
					c-0.1,0.5-0.2,1.1-0.2,1.6c0.1-0.1,0.2-0.2,0.3-0.4c-0.1,0.3-0.2,0.5-0.3,0.8c0-0.2,0-0.3,0.1-0.5c0,0.1-0.1,0.1-0.1,0.2
					c-0.2,0.3-0.4,0.6-0.5,0.9c-0.1,0.4-0.2,0.7-0.2,1.1c0-0.1,0.1-0.1,0.1-0.2c-0.1,0.2-0.1,0.4-0.2,0.6c0-0.1,0-0.3,0-0.4
					c-0.1,0.1-0.2,0.3-0.3,0.4c-0.1,0.2-0.2,0.6-0.3,0.8c0,0,0,0,0,0c0.1-0.3-0.1,0.4,0,0.1c0,0,0,0,0,0c-0.1,0.1-0.1,0.3-0.2,0.4
					c-0.1,0.3-0.2,0.5-0.3,0.8c-0.2,0.4-0.2,0.8-0.3,1.2c0,0.1-0.1,0.3-0.1,0.4c0,0,0,0,0,0c0.2-0.3-0.1,0.4,0,0c0,0,0,0,0,0
					c-0.2,0.2-0.4,0.5-0.4,0.8c-0.1,0.4-0.1,0.9-0.2,1.3c0.1-0.1,0.2-0.2,0.3-0.4c-0.1,0.3-0.2,0.5-0.3,0.8c0-0.2,0-0.3,0-0.5
					c-0.2,0.2-0.4,0.4-0.4,0.6c-0.1,0.3-0.1,0.5-0.1,0.8c0.1-0.1,0.2-0.3,0.3-0.4c-0.1,0.3-0.2,0.5-0.3,0.8c0-0.1,0-0.3,0-0.4
					c0,0-0.1,0.1-0.1,0.1c-0.2,0.3-0.4,0.6-0.5,0.9c-0.1,0.4-0.1,0.7-0.2,1.1c0-0.1,0.1-0.1,0.1-0.2c-0.1,0.2-0.1,0.4-0.2,0.6
					c0-0.1,0-0.3,0-0.4c-0.1,0.2-0.3,0.4-0.4,0.5c-0.2,0.3-0.2,0.7-0.1,1c0.2,0.4,0.4,0.5,0.8,0.7c0.3,0.1,0.5,0.2,0.8,0.3
					c-0.6-0.2-0.1,0,0,0c0.1,0.1,0.2,0.1,0.4,0.2c0.4,0.2,0.8,0.3,1.2,0.4c-0.1-0.1-0.2-0.2-0.2-0.4c0.2,0.2,0.5,0.4,0.7,0.5
					c-0.1-0.1-0.3-0.1-0.4-0.2c0.1,0.1,0.1,0.2,0.2,0.3c0.3,0.4,0.6,0.5,1.1,0.7c0.5,0.2,0.9,0.4,1.4,0.5c-0.1-0.1-0.1-0.1-0.2-0.2
					c0.2,0.1,0.3,0.2,0.5,0.3c-0.1,0-0.2-0.1-0.3-0.1c0.1,0.1,0.2,0.2,0.2,0.3c0.2,0.2,0.5,0.4,0.8,0.5c0.1,0,0.2,0.1,0.4,0.1
					c0,0,0,0,0,0c-0.2-0.1,0.4,0.1,0.1,0c0,0,0,0,0,0c0.2,0.1,0.4,0.2,0.5,0.3c0.5,0.2,1,0.4,1.6,0.6c0.1,0,0.1-0.1,0.2-0.1
					c0-0.1-0.1-0.1-0.1-0.2c0.1,0,0.1,0.1,0.2,0.1c0.1,0,0.1,0,0.2-0.1c0.2-0.1,0.5-0.1,0.8-0.1c0.1,0,0.2,0,0.3-0.1
					c0.1,0,0.2,0,0.3-0.1c0,0,0,0,0.1,0c0,0,0,0,0.1,0c0.2-0.1,0.4-0.2,0.5-0.2c0.1,0.7,0.2,1.4,0.3,2.1c-0.4-0.2-0.8-0.3-1.2-0.4
					c-0.4-0.1-0.7-0.3-1-0.7c0-0.1-0.1-0.1-0.1-0.2c-0.1,0-0.2-0.1-0.4-0.1c-0.1,0-0.1,0.1-0.1,0.1c-0.1,0-0.5,0.3-0.2,0.1
					c0.3-0.1-0.2,0.1-0.2,0.1c-0.1,0-0.2,0.1-0.3,0.1c-0.3,0.1-0.7,0.2-1,0.4c-0.5,0.2-0.9,0.5-1.3,0.8c0.1,0,0.2-0.1,0.3-0.1
					c-0.2,0.1-0.3,0.2-0.5,0.3c0.1-0.1,0.2-0.1,0.3-0.2c-0.2,0.1-0.3,0.1-0.5,0.2c-0.3,0.1-0.5,0.1-0.8,0.1
					c-0.4,0.1-0.9,0.3-1.2,0.6c-0.1,0.1-0.3,0.3-0.4,0.4c0.1,0,0.2-0.1,0.3-0.1c-0.2,0.1-0.3,0.2-0.5,0.3c0.1-0.1,0.1-0.1,0.2-0.2
					c-0.3,0.1-0.6,0.2-0.8,0.3c-0.3,0.1-0.6,0.3-0.9,0.5c-0.1,0.1-0.2,0.2-0.3,0.2c0,0,0,0,0,0c0,0,0,0,0,0c0,0,0,0,0,0
					c-0.2,0.1-0.3,0.2,0,0c0,0,0,0,0,0c-0.2,0.2-0.5,0.3-0.7,0.5c-0.4,0.4-0.3,0.8-0.3,1.3c0,0.3,0,0.5,0.2,0.7
					c0.1,0.2,0.3,0.3,0.5,0.5c0,0,0.1,0.1,0.1,0.1c0-0.1-0.1-0.3-0.1-0.4c0.2,0.2,0.4,0.5,0.5,0.7c-0.1-0.1-0.3-0.2-0.4-0.3
					c0.1,0.4,0.3,0.8,0.6,1.1c0,0,0,0,0,0c0,0,0,0,0-0.1c0-0.3,0.2,0.3,0,0.1c0,0.1,0.1,0.3,0.1,0.4c0.1,0.3,0.2,0.5,0.4,0.8
					c0.2,0.4,0.4,0.7,0.6,1.1c0.2,0.4,0.5,0.7,0.7,1.1c0.2,0.4,0.3,0.8,0.7,1c0.1,0,0.1,0.1,0.2,0.1c0-0.2,0-0.4-0.1-0.7
					c0.2,0.3,0.4,0.7,0.6,1c-0.2-0.1-0.3-0.2-0.5-0.4c0,0,0,0,0,0c0.1,0.5,0.2,0.8,0.5,1.1c0.2,0.2,0.4,0.4,0.5,0.6
					c0-0.2,0-0.3,0-0.5c0.1,0.3,0.2,0.5,0.3,0.8c-0.1-0.1-0.2-0.2-0.3-0.4c0,0.2,0,0.5,0.1,0.7c0.1,0.4,0.5,0.8,0.8,1.1
					c0.1,0.1,0.2,0.2,0.3,0.3c0,0,0.1,0,0.1,0c0,0,0,0,0,0.1c0,0,0.1,0.1,0.1,0.1c0,0-0.1,0-0.1-0.1c0,0,0,0,0,0
					c0.1,0.3,0.3,0.6,0.5,0.8c0.2,0.3,0.3,0.5,0.5,0.8c0.1,0.2,0.2,0.5,0.4,0.7c0,0,0,0,0,0c-0.1-0.1-0.1-0.2,0,0c0,0,0,0,0,0
					c0,0,0,0.1,0.1,0.1c0,0,0,0-0.1-0.1c0,0.1,0,0.2,0.1,0.3c0,0.1,0.1,0.2,0.1,0.3c0.2,0.4,0.3,0.9,0.6,1.2
					c0.1,0.1,0.2,0.2,0.2,0.3c0-0.1,0-0.1,0,0c0,0,0,0.1,0.1,0.1c0,0,0,0,0,0c0,0,0,0,0.1,0.1c0,0,0,0-0.1,0
					c0.1,0.1,0.1,0.2,0.2,0.3c0.2,0.3,0.4,0.5,0.7,0.7c0-0.1-0.1-0.2-0.1-0.3c0.1,0.2,0.2,0.3,0.3,0.5c-0.1-0.1-0.1-0.1-0.2-0.2
					c0.1,0.2,0.1,0.4,0.3,0.7c0.1,0.1,0.1,0.2,0.2,0.3c0,0.1,0.1,0.1,0.1,0.2c0,0,0-0.1,0-0.1c0-0.2,0.2,0.4,0.1,0.2c0,0,0,0,0-0.1
					c0.1,0.5,0.3,1,0.7,1.3c0.1,0.1,0.2,0.1,0.3,0.2c0-0.1-0.1-0.3-0.1-0.4c0.2,0.2,0.4,0.5,0.5,0.7c-0.1-0.1-0.3-0.2-0.4-0.3
					c0,0.1,0.1,0.2,0.1,0.3c0.2,0.6,0.8,1,1.4,0.8c0.6-0.2,1-0.8,0.8-1.4C158.7,1162.7,158.6,1162.2,158.3,1161.9z"/>
				<path class="st9" d="M149.2,1150.6c0,0.2,0,0.4,0.1,0.7c0.2,0.1,0.3,0.2,0.5,0.4C149.6,1151.3,149.4,1151,149.2,1150.6z"/>
				<path class="st9" d="M150.3,1152.5c0,0.2,0,0.3,0,0.5c0.1,0.1,0.2,0.2,0.3,0.4C150.5,1153.1,150.4,1152.8,150.3,1152.5z"/>
				<path class="st9" d="M151.6,1155.1c0,0-0.1-0.1-0.1-0.1C151.5,1155.1,151.5,1155.1,151.6,1155.1
					C151.6,1155.2,151.6,1155.2,151.6,1155.1C151.6,1155.1,151.6,1155.1,151.6,1155.1z"/>
				<path class="st9" d="M154.4,1138.2c0,0.1,0.1,0.1,0.1,0.2c0,0,0,0,0.1,0C154.5,1138.3,154.5,1138.3,154.4,1138.2z"/>
				<path class="st9" d="M153,1157.5C153,1157.5,153,1157.5,153,1157.5C153,1157.5,153,1157.6,153,1157.5
					C153,1157.6,153,1157.5,153,1157.5z"/>
				<path class="st9" d="M150.7,1136.5c0.1,0.1,0.1,0.1,0.2,0.2c0.1,0,0.2,0.1,0.3,0.1C151,1136.7,150.8,1136.6,150.7,1136.5z"/>
				<path class="st9" d="M154.6,1112.3C154.6,1112.2,154.6,1112.2,154.6,1112.3C154.6,1112.2,154.6,1112.2,154.6,1112.3
					c0.1-0.1,0.2-0.2,0.2-0.2c0-0.1,0.1-0.2,0.1-0.3C154.8,1111.9,154.7,1112.1,154.6,1112.3z"/>
				<path class="st9" d="M152.2,1137.6C152.2,1137.6,152.2,1137.6,152.2,1137.6C152.2,1137.6,152.2,1137.6,152.2,1137.6
					C152.6,1137.7,152,1137.5,152.2,1137.6z"/>
				<path class="st9" d="M154.6,1112.2C154.6,1112.2,154.6,1112.2,154.6,1112.2c0,0.1-0.1,0.3,0,0.2
					C154.6,1112.3,154.6,1112.3,154.6,1112.2C154.6,1112.2,154.6,1112.2,154.6,1112.2z"/>
				<path class="st9" d="M152.4,1112.3c0,0.1-0.1,0.1-0.1,0.2c0,0.1,0,0.3,0,0.4C152.3,1112.7,152.4,1112.5,152.4,1112.3z"/>
				<path class="st9" d="M151.8,1114C151.8,1114,151.8,1114,151.8,1114c0,0.1,0,0.1,0,0.2C151.8,1114.5,151.8,1114,151.8,1114z"/>
				<path class="st9" d="M154.6,1112.2C154.6,1112.2,154.6,1112.2,154.6,1112.2C154.6,1112.2,154.6,1112.2,154.6,1112.2z"/>
				<path class="st9" d="M151.2,1115.8c0,0.1,0,0.1-0.1,0.2C151.1,1116.2,151.3,1115.8,151.2,1115.8z"/>
				<path class="st9" d="M152.5,1118.2C152.5,1118.2,152.5,1118.2,152.5,1118.2c0,0,0.1-0.1,0.1-0.1
					C152.6,1118.1,152.6,1118.1,152.5,1118.2C152.6,1118.1,152.6,1118.1,152.5,1118.2z"/>
				<path class="st9" d="M152.1,1120.2c0-0.1,0-0.2,0-0.3C152.1,1120.2,152.1,1120.2,152.1,1120.2z"/>
				<path class="st9" d="M154,1114.1c0-0.1,0.1-0.1,0.1-0.2c0-0.1,0-0.3,0-0.4C154.1,1113.7,154.1,1113.9,154,1114.1z"/>
				<path class="st9" d="M154.6,1112.2c0,0,0,0.1,0,0.1c0,0,0,0,0,0c0.1-0.1,0.1-0.2,0.1-0.3
					C154.7,1112.1,154.7,1112.1,154.6,1112.2C154.6,1112.2,154.6,1112.2,154.6,1112.2z"/>
				<path class="st9" d="M147.9,1134.9c0.1,0.1,0.2,0.2,0.2,0.4c0.2,0.1,0.3,0.1,0.4,0.2C148.4,1135.2,148.2,1135.1,147.9,1134.9z"
					/>
				<path class="st9" d="M150.1,1119.8c-0.1,0.1-0.2,0.2-0.3,0.4c0,0.2,0,0.3-0.1,0.5C149.8,1120.4,149.9,1120.1,150.1,1119.8z"/>
				<path class="st9" d="M146.2,1130.4c0.1-0.3,0.2-0.5,0.3-0.8c-0.1,0.1-0.2,0.3-0.3,0.4C146.2,1130.1,146.2,1130.3,146.2,1130.4z"
					/>
				<path class="st9" d="M151.3,1122.1C151.3,1122.1,151.3,1122.1,151.3,1122.1C151.3,1122.1,151.3,1122.1,151.3,1122.1
					c0.1-0.1,0.1-0.2,0.1-0.2C151.4,1121.9,151.3,1121.9,151.3,1122.1C151.3,1122,151.3,1122.1,151.3,1122.1z"/>
				<path class="st9" d="M145.6,1131.9c0,0.1-0.1,0.1-0.1,0.2c0,0.1,0,0.3,0,0.4C145.5,1132.3,145.6,1132.1,145.6,1131.9z"/>
				<path class="st9" d="M148.3,1123.5C148.3,1123.5,148.3,1123.6,148.3,1123.5C148.3,1123.6,148.3,1123.6,148.3,1123.5
					C148.2,1123.9,148.5,1123.3,148.3,1123.5z"/>
				<path class="st9" d="M149.1,1122.1c0,0.1-0.1,0.1-0.1,0.2c0,0.1,0,0.3,0,0.4C149,1122.5,149,1122.3,149.1,1122.1z"/>
				<path class="st9" d="M147.1,1128.2c-0.1,0.1-0.2,0.2-0.3,0.4c0,0.2,0,0.3,0,0.5C146.9,1128.7,147,1128.5,147.1,1128.2z"/>
				<path class="st9" d="M147.4,1126.4C147.4,1126.4,147.4,1126.4,147.4,1126.4C147.4,1126.4,147.4,1126.4,147.4,1126.4
					C147.3,1126.7,147.6,1126.1,147.4,1126.4z"/>
			</g>
			<path class="st8" d="M163.8,1072c0-0.4-0.2-0.4-0.2-0.8c0-0.4,0-0.4,0-0.8c0-0.4,0.1-0.4,0.1-0.8c0-0.4-0.2-0.4-0.3-0.8
				c0-0.4,0.2-0.4,0.2-0.8c0-0.4-0.3-0.4-0.3-0.8c0-0.4,0-0.4,0-0.8c0-0.4,0.3-0.4,0.3-0.8c0-0.4-0.4-0.4-0.4-0.8c0-0.4,0-0.4,0-0.8
				c0-0.4,0.2-0.4,0.1-0.8c0-0.4-0.2-0.4-0.3-0.8c0-0.4,0.1-0.4,0.1-0.8c0-0.4,0-0.4,0-0.8c0-0.4-0.3-0.4-0.3-0.8
				c0-0.4,0.2-0.4,0.2-0.8c0-0.4,0-0.4,0-0.8c0-0.4,0.1-0.4-0.1-0.8c-0.3,0-0.6,0-0.9,0.1c-0.3,0-0.5,0.2-0.8,0.3
				c-0.3,0.1-0.5,0.2-0.8,0.2c-0.3,0.1-0.6,0-0.8,0.1c-0.3,0.1-0.5,0.2-0.7,0.4c-0.2,0.1-0.6,0.1-0.8,0.3c-0.2,0.2-0.4,0.4-0.6,0.6
				c-0.2,0.2-0.3,0.4-0.5,0.6c-0.2,0.2-0.4,0.4-0.5,0.6c-0.2,0.2-0.3,0.5-0.4,0.7c-0.1,0.2-0.2,0.5-0.3,0.7
				c-0.1,0.2-0.3,0.4-0.4,0.7c-0.1,0.3-0.4,0.4-0.5,0.7c-0.1,0.3,0.1,0.6,0,0.8c0,0.3-0.3,0.5-0.3,0.8c0,0.3,0.3,0.5,0.3,0.8
				c0,0.3-0.1,0.5-0.1,0.8c0,0.3,0.2,0.5,0.3,0.7c0.1,0.3,0.1,0.5,0.3,0.7c0.1,0.2,0.3,0.4,0.5,0.6c0.1,0.2,0.2,0.5,0.4,0.7
				c0.2,0.2,0.2,0.5,0.4,0.7c0.2,0.2,0.4,0.4,0.6,0.6c0.2,0.2,0.3,0.5,0.5,0.6c0.2,0.2,0.6,0,0.9,0.2c0.2,0.1,0.3,0.6,0.5,0.7
				c0.2,0.1,0.5,0.2,0.8,0.3c0.2,0.1,0.5,0.3,0.7,0.4c0.3,0.1,0.6-0.2,0.9-0.1c0.3,0.1,0.5,0.2,0.7,0.3c0.3,0.1,0.5,0.2,0.8,0.3
				c0.3,0,0.5,0,0.8,0c0.1-0.4,0.1-0.4,0-0.8C163.8,1072.4,163.8,1072.4,163.8,1072z"/>
			<path class="st8" d="M211.9,1065.2c0-0.3,0.1-0.6,0-0.8c-0.1-0.3-0.3-0.5-0.4-0.7c-0.1-0.3,0-0.6-0.1-0.9
				c-0.1-0.3-0.2-0.5-0.3-0.8c-0.2-0.2-0.4-0.4-0.6-0.6c-0.2-0.2-0.4-0.4-0.6-0.5c-0.2-0.2-0.4-0.3-0.7-0.5
				c-0.2-0.1-0.5-0.2-0.8-0.3c-0.2-0.1-0.5-0.1-0.8-0.2c-0.3-0.1-0.5-0.3-0.7-0.4c-0.3-0.1-0.5-0.1-0.8-0.1c-0.3,0-0.5-0.3-0.8-0.3
				c-0.3,0-0.7,0.1-1,0.1c-0.1,0.4,0.2,0.5,0.2,0.9c0,0.4,0.1,0.4,0.1,0.8c0,0.4,0,0.4,0,0.8c0,0.4-0.1,0.4-0.1,0.8
				c0,0.4-0.2,0.4-0.2,0.8c0,0.4,0.2,0.4,0.2,0.8c0,0.4,0,0.4,0,0.8c0,0.4-0.2,0.4-0.2,0.8c0,0.4,0.2,0.4,0.2,0.8
				c0,0.4-0.2,0.4-0.2,0.8c0,0.4-0.1,0.4-0.1,0.8c0,0.4,0.3,0.4,0.3,0.8c0,0.4-0.3,0.4-0.3,0.8c0,0.4,0,0.4,0,0.8
				c0,0.4,0.3,0.4,0.3,0.8c0,0.4-0.2,0.4-0.2,0.8c0,0.4,0.2,0.4,0.2,0.8c0,0.4-0.1,0.4-0.2,0.8c-0.1,0.4-0.1,0.4,0,0.8
				c0.3,0,0.6-0.1,0.8-0.1c0.3,0,0.6,0.1,0.8,0c0.3-0.1,0.6,0,0.8-0.1c0.2-0.1,0.3-0.6,0.6-0.7c0.2-0.1,0.5-0.2,0.7-0.3
				c0.2-0.1,0.4-0.4,0.6-0.5c0.2-0.2,0.6-0.1,0.8-0.3c0.2-0.2,0.1-0.6,0.3-0.8c0.2-0.2,0.5-0.3,0.6-0.5c0.2-0.2,0.3-0.4,0.4-0.7
				c0.1-0.2,0.4-0.4,0.5-0.6c0.1-0.2,0.3-0.5,0.4-0.7c0.1-0.3,0-0.6,0.1-0.8c0.1-0.3,0.1-0.5,0.2-0.8c0-0.3-0.1-0.5-0.1-0.8
				c0-0.3,0.1-0.6,0.1-0.8C212.2,1065.7,211.9,1065.4,211.9,1065.2z"/>
			<path class="st8" d="M205.1,1055.1c0-0.4-0.1-0.4-0.1-0.8c0-0.4-0.2-0.4-0.2-0.8c0-0.4,0.2-0.4,0.2-0.8c0-0.4,0-0.4,0-0.8
				c0-0.4-0.1-0.4-0.1-0.8c0-0.4,0.2-0.4,0.2-0.8c0-0.4-0.1-0.4-0.1-0.8c0-0.4,0-0.4-0.1-0.8c-0.2-0.2-0.4-0.3-0.6-0.5
				c-0.2-0.2-0.1-0.6-0.2-0.9c-0.1-0.2-0.5-0.4-0.6-0.7c-0.1-0.3,0.3-0.6,0.3-0.9c0-0.3-0.1-0.5-0.1-0.8c0-0.3,0-0.5,0.1-0.8
				c0-0.3-0.2-0.6-0.2-0.8c0-0.3,0.5-0.4,0.6-0.7c0.1-0.3-0.1-0.6-0.1-0.8c0.1-0.3,0.3-0.5,0.3-0.8c0.1-0.3-0.1-0.6-0.1-0.8
				c0-0.3,0-0.5,0.1-0.8c0-0.3,0.2-0.5,0.2-0.8c0-0.3-0.2-0.5-0.2-0.8c0-0.3,0.1-0.6,0-0.8c-0.1-0.3-0.2-0.3-0.3-0.6
				c0,0.3,0.1,0.4,0,0.6c0,0.3-0.3,0.4-0.4,0.7c-0.1,0.2-0.2,0.5-0.3,0.7c-0.1,0.2-0.2,0.5-0.4,0.7c-0.2,0.2-0.2,0.5-0.4,0.7
				c-0.2,0.2-0.5,0.2-0.7,0.3c-0.2,0.1-0.4,0.4-0.6,0.5c-0.2,0.1-0.6,0-0.8,0.1c-0.2,0.1-0.4,0.5-0.6,0.6c-0.2,0.1-0.5,0.2-0.8,0.2
				c-0.2,0.1-0.5,0.1-0.8,0.2c-0.2,0.1-0.5,0.1-0.8,0.2c-0.2,0.1-0.6-0.1-0.8,0c-0.3,0.1-0.5,0.3-0.7,0.4c-0.3,0.1-0.5,0.1-0.8,0.1
				c-0.3,0.1-0.5,0.2-0.7,0.3c-0.3,0.1-0.5,0.2-0.8,0.2c-0.3,0.1-0.6-0.2-0.8-0.2c-0.3,0-0.5,0.3-0.7,0.3c-0.3,0-0.5-0.1-0.8,0
				c-0.3,0-0.5,0.3-0.7,0.3c-0.3,0-0.5,0.2-0.7,0.3c-0.3,0-0.5,0-0.8,0.1c-0.3,0.1-0.5,0.1-0.8,0.1c-0.3,0.1-0.6-0.1-0.8-0.1
				c-0.3,0-0.5,0.2-0.8,0.3c-0.3,0-0.5,0.3-0.7,0.3c-0.3,0-0.5,0-0.8,0.1c-0.3,0-0.5,0.2-0.8,0.3c-0.3,0-0.6-0.1-0.8-0.1
				c-0.3,0-0.5,0.3-0.8,0.3c-0.3,0-0.6-0.3-0.8-0.3c-0.3,0-0.5,0-0.8,0c-0.3,0-0.5,0.3-0.8,0.3c-0.3,0-0.5-0.2-0.8-0.2
				c-0.3,0-0.5,0.2-0.8,0.2c-0.3,0-0.5,0.1-0.8,0.1c-0.3,0-0.5,0-0.8,0c-0.3,0-0.5,0-0.8,0c-0.3,0-0.5,0-0.8,0
				c-0.3,0-0.5-0.3-0.8-0.3c-0.3,0-0.5,0.2-0.8,0.2c-0.3,0-0.5-0.2-0.8-0.2c-0.3,0-0.5,0.1-0.8,0.1c-0.3,0-0.5,0-0.8,0
				c-0.3,0-0.5-0.1-0.8-0.1c-0.2,0.1-0.5,0-0.8,0.1c-0.2,0.1-0.3,0.5-0.6,0.7c-0.2,0.1-0.6-0.1-0.9,0.1c-0.2,0.1-0.4,0.4-0.7,0.5
				c-0.3,0.1-0.5,0.3-0.7,0.4c-0.3,0.1-0.6,0.1-0.8,0.2c-0.3,0.1-0.6,0.1-0.8,0.3c-0.3,0.1-0.4,0.6-0.6,0.7
				c-0.1,0.1-0.3,0.2-0.5,0.5c-0.1,0.2-0.3,0.4-0.4,0.7c-0.1,0.2,0.1,0.6,0,0.8c-0.1,0.2-0.5,0.4-0.6,0.6c-0.1,0.2,0.1,0.6,0,0.9
				c-0.1,0.3-0.3,0.5-0.4,0.7c-0.1,0.3-0.1,0.6-0.2,0.8c-0.1,0.3-0.5,0.4-0.7,0.5c-0.2,0.3-0.5,0.5-0.6,0.5
				c-0.1,0.4,0.2,0.4,0.2,0.8c0,0.4-0.2,0.4-0.2,0.8c0,0.4,0.3,0.4,0.3,0.8c0,0.4-0.1,0.4,0,0.8c0,0.4,0.2,0.4,0.2,0.8
				c0,0.4-0.3,0.4-0.3,0.8c0,0.4,0.2,0.4,0.2,0.8c0,0.4,0.2,0.4,0.2,0.8c0,0.4-0.4,0.4-0.3,0.8c0,0.4,0.1,0.4,0.1,0.8
				c0,0.4,0,0.4,0,0.8c0,0.4,0.1,0.4,0.1,0.8c0,0.4,0.1,0.4,0.1,0.8c0,0.4,0.2,0.4,0.2,0.8c0,0.4-0.2,0.4-0.2,0.8
				c0,0.4,0.2,0.4,0.3,0.8c0,0.4-0.2,0.4-0.2,0.8c0,0.4,0.3,0.4,0.3,0.8c0,0.4-0.3,0.4-0.2,0.8c0,0.4,0.1,0.4,0.1,0.8
				c0,0.4,0.2,0.4,0.2,0.8c0,0.4-0.1,0.4-0.1,0.8c0,0.4,0.1,0.4,0.1,0.8c0,0.4-0.2,0.4-0.2,0.8c0,0.4,0.2,0.4,0.2,0.8
				c0,0.3,0.2,0.5,0.3,0.8c0,0.3-0.3,0.6-0.3,0.8c0,0.3,0.3,0.5,0.4,0.8c0,0.3,0.1,0.5,0.1,0.8c0,0.3-0.1,0.6-0.1,0.8
				c0,0.3,0,0.5,0.1,0.8c0.1,0.3,0.4,0.4,0.5,0.7c0.1,0.3,0.1,0.5,0.2,0.8c0.1,0.3,0.2,0.5,0.3,0.7c0.1,0.3-0.2,0.6-0.1,0.9
				c0.1,0.2,0.4,0.4,0.5,0.7c0.1,0.2,0.1,0.5,0.2,0.8c0.1,0.2,0.2,0.5,0.3,0.8c0.1,0.2,0.6,0.3,0.7,0.5c0.1,0.2,0,0.6,0.1,0.8
				c0.1,0.2,0.5,0.3,0.6,0.5c0.1,0.2,0.3,0.5,0.4,0.7c0.2,0.2,0.1,0.6,0.3,0.8c0.2,0.2,0.4,0.3,0.6,0.5c0.2,0.2,0.4,0.3,0.6,0.5
				c0.2,0.2,0.3,0.4,0.5,0.6c0.2,0.2,0.3,0.4,0.5,0.6c0.2,0.2,0.4,0.3,0.6,0.5c0.2,0.2,0.3,0.5,0.5,0.6c0.2,0.2,0.6,0.1,0.8,0.2
				c0.2,0.2,0.3,0.5,0.5,0.7c0.2,0.2,0.6,0.1,0.8,0.3c0.2,0.1,0.3,0.4,0.6,0.6c0.2,0.1,0.5,0.2,0.7,0.4c0.2,0.1,0.5,0.2,0.7,0.3
				c0.2,0.1,0.5,0.2,0.7,0.3c0.2,0.1,0.4,0.3,0.7,0.4c0.2,0.1,0.5,0.3,0.7,0.4c0.3,0.1,0.5,0.2,0.8,0.3c0.3,0.1,0.5,0.1,0.8,0.1
				c0.3,0.1,0.5,0.2,0.7,0.3c0.3,0.1,0.6-0.1,0.8-0.1c0.3,0.1,0.5,0.3,0.8,0.3c0.3,0,0.5,0.3,0.8,0.3c0.3,0,0.5-0.1,0.8,0
				c0.3,0,0.5,0.1,0.8,0.1c0.3,0,0.5-0.1,0.8-0.1c0.3,0,0.5,0.1,0.8,0.1c0.3,0,0.5-0.2,0.8-0.2c0.3,0,0.5-0.2,0.8-0.2
				c0.3,0,0.5-0.1,0.8-0.1c0.3,0,0.6,0.1,0.8,0c0.3-0.1,0.5-0.3,0.7-0.3c0.3-0.1,0.6,0,0.8,0c0.3-0.1,0.5-0.3,0.7-0.4
				c0.3-0.1,0.5-0.2,0.7-0.3c0.2-0.1,0.6,0.1,0.8,0c0.2-0.1,0.3-0.5,0.6-0.7c0.2-0.1,0.6,0,0.9-0.1c0.2-0.1,0.5-0.3,0.7-0.4
				c0.2-0.1,0.4-0.3,0.7-0.5c0.2-0.1,0.4-0.4,0.6-0.6c0.2-0.1,0.6-0.1,0.8-0.3c0.2-0.2,0.5-0.3,0.7-0.4s0.3-0.5,0.5-0.7
				c0.2-0.2,0.3-0.5,0.5-0.7c0.2-0.2,0.7-0.1,0.9-0.2c0.2-0.2,0.3-0.4,0.5-0.6c0.2-0.2,0.3-0.5,0.4-0.7c0.2-0.2,0.4-0.3,0.6-0.6
				c0.2-0.2,0.1-0.6,0.2-0.8c0.2-0.2,0.6-0.2,0.7-0.5c0.2-0.2,0.3-0.4,0.4-0.7c0.1-0.2,0.1-0.6,0.2-0.8c0.1-0.2,0.4-0.4,0.5-0.6
				c0.1-0.2,0.1-0.5,0.2-0.8c0.1-0.2,0.5-0.3,0.6-0.6c0.1-0.2,0-0.6,0.1-0.8c0.1-0.2,0.4-0.4,0.5-0.7c0.1-0.2,0.1-0.5,0.2-0.8
				c0.1-0.3,0.3-0.5,0.4-0.7c0.1-0.3-0.1-0.6,0-0.8c0.1-0.3,0.4-0.5,0.4-0.7c0.1-0.3,0.1-0.5,0.1-0.8c0-0.3,0.1-0.5,0.1-0.8
				c0-0.3,0.1-0.5,0.1-0.8c0-0.3-0.2-0.6-0.2-0.8c0-0.3,0-0.5,0-0.8c0-0.3,0-0.5,0-0.8c0-0.4,0.2-0.4,0.2-0.8c0-0.4-0.3-0.4-0.3-0.8
				c0-0.4,0.1-0.4,0.1-0.8c0-0.4,0.1-0.4,0.1-0.8c0-0.4,0-0.4,0-0.8c0-0.4,0.1-0.4,0.1-0.8c0-0.4-0.1-0.4-0.1-0.8
				c0-0.4,0.2-0.4,0.2-0.8c0-0.4-0.1-0.4,0-0.8c0-0.4-0.1-0.4-0.1-0.8c0-0.4-0.1-0.4-0.1-0.8c0-0.4,0.2-0.4,0.2-0.8
				c0-0.4-0.3-0.4-0.3-0.8c0-0.4,0-0.4,0-0.8c0-0.4,0.2-0.4,0.2-0.8c0-0.4-0.2-0.4-0.2-0.8c0-0.4,0-0.4,0-0.8c0-0.4,0.3-0.4,0.3-0.8
				c0-0.4-0.2-0.4-0.2-0.8c0-0.4,0.3-0.4,0.3-0.8c0-0.4-0.2-0.4-0.2-0.8c0-0.4,0.1-0.4,0.1-0.8
				C205,1055.5,205.1,1055.5,205.1,1055.1z"/>
			<polygon class="st4" points="207.2,1041.8 207.1,1041 206.7,1040.4 206.4,1039.7 206.4,1038.9 206,1038.2 205.6,1037.6 
				205.3,1036.9 205.1,1036.1 204.8,1035.4 204.4,1034.8 203.7,1034.4 203.5,1033.6 202.9,1033.1 202.2,1032.8 201.8,1032.1 
				201.3,1031.5 200.6,1031.2 200.1,1030.6 199.3,1030.6 198.7,1030 197.9,1029.8 197.1,1030 196.5,1030.1 196,1029.4 195.9,1028.5 
				195.4,1027.9 194.7,1027.6 194.2,1027 193.6,1026.6 193.1,1026.1 192.6,1025.5 191.8,1025.4 191.2,1024.9 190.5,1024.5 
				189.8,1024.4 189.1,1024 188.4,1023.8 187.7,1023.8 186.9,1023.8 186.2,1023.8 185.5,1023.6 184.7,1023.4 184,1023.4 
				183.3,1023.3 182.5,1023.4 181.8,1023.7 181.1,1023.7 180.3,1023.7 179.6,1024 178.9,1024 178.2,1024.3 177.4,1024.3 
				176.8,1024.7 176,1024.7 175.4,1025.2 174.7,1025.5 174,1025.7 173.3,1026.1 172.6,1026.3 172,1026.6 171.4,1027.1 170.7,1027.4 
				170.2,1028 169.6,1028.4 169.1,1028.9 168.5,1029.4 167.9,1029.8 167.3,1030.2 166.8,1030.8 166.4,1031.4 165.6,1031.6 
				165.2,1032.3 164.8,1033 164.1,1033.3 163.6,1033.9 163.3,1034.5 162.9,1035.2 162.4,1035.7 162.3,1036.5 161.9,1037.2 
				161.3,1037.7 161.1,1038.4 161,1039.1 160.5,1039.8 160.3,1040.5 160,1041.1 160,1041.9 159.7,1042.6 159.5,1043.3 159.3,1044 
				159.2,1044.8 159.5,1045.5 159.4,1046.3 159.5,1047 159.4,1047.7 159.3,1048.5 159.5,1049.2 159.5,1049.9 159.5,1050.7 
				159.6,1051.4 159.6,1052.2 160,1052.8 160.2,1053.5 160.4,1054.3 160.7,1054.9 160.6,1055.7 160.8,1056.4 161.3,1057.2 
				161.5,1056.4 162,1055.7 162.2,1055 162.7,1054.3 163.1,1053.7 163.5,1053 163.9,1052.4 164.2,1051.6 164.8,1051.1 165.1,1050.3 
				165.8,1050.4 166.5,1050.2 167.3,1050.3 168,1050.5 168.7,1050.5 169.5,1050.3 170.2,1050.6 171,1050.4 171.7,1050.3 
				172.4,1050.6 173.2,1050.5 173.9,1050.8 174.7,1050.4 175.4,1050.8 176.2,1050.5 176.9,1050.5 177.6,1050.8 178.4,1050.7 
				179.1,1050.7 179.9,1050.7 180.6,1050.5 181.3,1050.8 182.1,1050.5 182.8,1050.5 183.6,1050.7 184.3,1050.8 185.1,1050.6 
				185.8,1050.6 186.6,1050.7 187.3,1050.7 188,1050.7 188.8,1050.6 189.5,1050.4 190.3,1050.6 191,1050.8 191.8,1050.8 
				192.5,1050.5 193.2,1050.4 194,1050.3 194.7,1050.5 195.4,1050.1 196.2,1050.3 196.9,1049.9 197.7,1050 198.3,1049.5 
				198.8,1048.9 199.2,1048.3 199.6,1047.7 200,1047 200.3,1046.4 200.9,1045.8 200.8,1045 201.3,1044.3 201.6,1043.6 201.5,1042.8 
				201.7,1042.1 201.9,1041.4 202.1,1040.7 202.1,1040.1 202.1,1039.9 202.1,1039.2 202.2,1039.9 202.1,1040.1 202.2,1040.6 
				202.5,1041.4 202.6,1042.1 202.6,1042.8 203.1,1043.5 203.1,1044.3 203.1,1045 203.2,1045.7 203.4,1046.5 203.5,1047.2 
				203.6,1047.9 203.9,1048.6 203.9,1049.4 203.9,1050.1 204,1050.9 204.4,1051.6 204.4,1052.3 204.4,1053.1 204.6,1053.8 
				204.8,1054.5 205.1,1055.2 205.1,1056 205,1056.7 205.3,1057.4 205.5,1056.7 205.7,1056 205.8,1055.2 206.2,1054.5 206.5,1053.8 
				206.6,1053.1 206.7,1052.3 206.7,1051.6 206.7,1050.8 207,1050.1 207.2,1049.3 207.2,1048.6 207.2,1047.8 207.3,1047.1 
				207.4,1046.3 207.4,1045.6 207.4,1044.8 207.3,1044.1 207.3,1043.3 207.5,1042.5 			"/>
			<polygon class="st4" points="202.1,1039.2 202.1,1039.9 202.1,1040.1 202.2,1039.9 			"/>
			<path class="st4" d="M193.6,1060.1c-0.1-0.2-0.1-0.6-0.4-0.7c-0.2-0.1-0.5-0.1-0.8-0.1c-0.3,0-0.7-0.2-0.9-0.1
				c-0.2,0.1-0.3,0.6-0.4,0.8c-0.1,0.2-0.5,0.5-0.5,0.7s0.3,0.5,0.4,0.8c0.1,0.2,0.3,0.4,0.6,0.5c0.2,0.1,0.4,0.4,0.7,0.4
				c0.3,0,0.7,0.1,0.9-0.1c0.2-0.1,0.4-0.5,0.6-0.7c0.1-0.2-0.1-0.6-0.1-0.9C193.8,1060.5,193.8,1060.3,193.6,1060.1z"/>
			<path class="st4" d="M176.5,1059.5c-0.2-0.1-0.5-0.2-0.8-0.2c-0.3,0-0.6,0-0.8,0.1c-0.2,0.1-0.5,0.3-0.7,0.6
				c-0.1,0.2,0,0.6,0,0.9s0,0.6,0.2,0.8c0.1,0.2,0.4,0.4,0.6,0.5c0.2,0.1,0.5,0.5,0.7,0.5c0.3,0,0.6-0.2,0.9-0.3
				c0.2-0.1,0.3-0.5,0.4-0.8c0.1-0.2,0.5-0.4,0.5-0.7s-0.3-0.5-0.4-0.7C176.8,1059.9,176.7,1059.7,176.5,1059.5z"/>
			<g>
				<path class="st10" d="M180.7,1079C180.6,1078.9,180.8,1079,180.7,1079L180.7,1079z"/>
				<path class="st10" d="M183.8,1080.5C183.8,1080.5,183.8,1080.5,183.8,1080.5c0-0.1-0.1-0.1-0.1-0.1c-0.6,0,0.9,0.7,0.6,0.2
					c0-0.1-0.1-0.1-0.2-0.2c0,0-0.1,0-0.1,0C183.6,1080.6,183.6,1080.6,183.8,1080.5z"/>
				<path class="st10" d="M184,1080.5C184,1080.5,184,1080.5,184,1080.5C184,1080.4,183.9,1080.4,184,1080.5c-0.1,0-0.1,0-0.1,0
					C183.9,1080.5,184,1080.5,184,1080.5z"/>
				<path class="st10" d="M183.8,1080.5c-0.2,0.1-0.1,0.1,0.1,0c0.1,0,0.1,0,0.1,0c0,0,0,0,0,0
					C184,1080.5,183.9,1080.5,183.8,1080.5C183.8,1080.5,183.8,1080.5,183.8,1080.5z"/>
				<path class="st10" d="M187.2,1079.6c0.1-0.1,0.1-0.1,0.2-0.2C187.4,1079.5,187.3,1079.5,187.2,1079.6
					C187.2,1079.6,187.2,1079.6,187.2,1079.6C187.2,1079.7,187.1,1079.7,187.2,1079.6z"/>
				<path class="st10" d="M188.8,1078.5C188.8,1078.5,188.8,1078.5,188.8,1078.5C188.6,1078.6,189.1,1078.5,188.8,1078.5z"/>
				<path class="st10" d="M186.4,1080.1c0.3,0,0.6-0.1,0.8-0.1c-0.1-0.1-0.2-0.1-0.3-0.1c-0.1,0-0.1,0-0.2,0c0,0-0.1,0-0.1,0.1
					C186.5,1080,186.5,1080.1,186.4,1080.1z"/>
				<path class="st10" d="M184,1080.5C184,1080.5,184,1080.5,184,1080.5C184,1080.5,184,1080.5,184,1080.5
					C184.2,1080.5,184.2,1080.5,184,1080.5z"/>
				<path class="st10" d="M188.8,1078.5C189.1,1078.5,188.6,1078.6,188.8,1078.5C188.8,1078.5,188.8,1078.5,188.8,1078.5
					C188.8,1078.5,188.8,1078.5,188.8,1078.5c-0.2,0-0.3,0-0.4,0.1c-0.5,0.2-0.8,0.5-1.1,0.9c0,0-0.1,0.1-0.1,0.1c0,0,0,0,0,0
					c0.1-0.1,0.1-0.1,0.2-0.1c-0.1,0.1-0.2,0.1-0.2,0.2c-0.1,0.1-0.1,0,0,0c-0.2,0.1-0.3,0.2-0.5,0.3c0.1,0,0.1,0,0.2,0
					c0.1,0,0.3,0,0.3,0.1c-0.3,0-0.6,0.1-0.8,0.1c0.1,0,0.1-0.1,0.2-0.1c0,0,0.1,0,0.1-0.1c-0.4-0.1-0.8,0-1.2,0.1
					c-0.3,0.1-0.6,0.1-0.8,0.2c-0.2,0.1-0.6,0.1-0.8,0.2c0,0,0,0,0,0c0,0,0,0,0,0c0,0,0,0,0,0c0.2,0,0.2,0,0,0
					c0.1,0,0.1,0.1,0.2,0.2c0.4,0.4-1.1-0.2-0.6-0.2c0.1,0,0.1,0,0.2,0c0,0,0,0,0.1,0c-0.6-0.5-1.3-0.5-2-0.8
					c-0.1,0-0.2-0.1-0.4-0.1c-0.1,0-0.1,0-0.2-0.1c-0.1,0-0.1,0,0.1,0c-0.1,0-0.6-0.4-0.7-0.5c0,0,0,0-0.1,0c0.1,0.1-0.1-0.1,0,0
					c0,0,0,0-0.1-0.1c-0.3-0.2-0.4-0.3-0.8-0.4c-0.1,0-0.2,0-0.3-0.1c0,0-0.1,0-0.1,0c0,0,0,0,0.1,0c0.1,0.1,0.1,0.1-0.1,0
					c-0.3,0-0.3,0,0,0c0,0,0,0,0,0c0,0,0,0,0.1,0c-0.7-0.4-1.7-0.1-2.1,0.6c-0.4,0.8-0.1,1.6,0.6,2.1c0.2,0.1,0.4,0.2,0.6,0.3
					c0.1,0,0.2,0,0.2,0c-0.1-0.1-0.2-0.1-0.3-0.2c0.3,0.1,0.4,0.2,0.5,0.2c0,0,0.1,0,0.1,0c0,0-0.1,0-0.1,0c0,0,0,0-0.1,0
					c0,0,0.1,0,0.1,0c0,0,0,0,0,0c-0.1,0-0.1,0-0.2,0c0.1,0,0.1,0.1,0.2,0.1c0.1,0.1,0.2,0.2,0.3,0.2c0.6,0.4,1.1,0.7,1.8,0.9
					c0.3,0.1,0.6,0.2,1,0.3c0,0,0,0,0,0c-0.1-0.1-0.1-0.1-0.2-0.2c-0.2-0.2-0.1-0.1,0.4,0.2c-0.1,0-0.2,0-0.3-0.1c0,0,0,0,0,0
					c0.6,0.6,1.7,0.8,2.6,0.6c0.2,0,0.4-0.1,0.6-0.2c0,0,0,0,0,0c0,0-0.1,0-0.1,0c0.2-0.1,0.2-0.1,0.1,0c0,0,0.1,0,0.1,0
					c0.3-0.1,0.6-0.2,0.9-0.2c0,0,0.1,0,0.1,0c-0.1,0-0.1,0-0.2,0c-0.3-0.1-0.1-0.1,0.5,0c-0.1,0-0.2,0.1-0.3,0.1c0,0,0,0,0,0
					c0.6,0.1,1.1,0.1,1.6-0.2c0.5-0.3,1.2-0.7,1.6-1.1c0.1-0.1,0.1-0.1,0.2-0.2c-0.1,0-0.2,0-0.3,0c-0.2,0,0.8-0.9,0.5-0.3
					c-0.1,0.1-0.1,0.2-0.2,0.3c0.2-0.1,0.4-0.2,0.6-0.3c0.7-0.5,1-1.4,0.6-2.1C190.5,1078.4,189.5,1078,188.8,1078.5z"/>
				<path class="st10" d="M186.2,1082.9c0.1,0,0.1,0,0.2,0c0.1,0,0.2,0,0.3-0.1C186.1,1082.9,185.9,1082.9,186.2,1082.9z"/>
				<path class="st10" d="M179.5,1078.4C179.5,1078.4,179.5,1078.4,179.5,1078.4c-0.1,0-0.1,0-0.1,0
					C179.6,1078.5,179.7,1078.5,179.5,1078.4z"/>
				<path class="st10" d="M185.2,1083.3C185.2,1083.3,185.2,1083.3,185.2,1083.3C185.4,1083.2,185.4,1083.2,185.2,1083.3z"/>
				<path class="st10" d="M189.4,1081.5c0.1,0,0.2,0,0.3,0c0.1-0.1,0.1-0.2,0.2-0.3C190.2,1080.6,189.2,1081.5,189.4,1081.5z"/>
				<path class="st10" d="M178.5,1081.2c0.1,0.1,0.2,0.1,0.3,0.2c0.1,0,0.1,0,0.2,0C179,1081.4,178.8,1081.3,178.5,1081.2z"/>
				<path class="st10" d="M181.9,1082.8c0,0.1,0.1,0.1,0.2,0.2c0.1,0,0.2,0,0.3,0.1C181.8,1082.6,181.7,1082.6,181.9,1082.8z"/>
				<path class="st10" d="M179,1081.4c0,0-0.1,0-0.1,0C178.9,1081.4,179,1081.4,179,1081.4z"/>
			</g>
			<g>
				<path class="st10" d="M186.5,1070.5c-0.1-0.1-0.2-0.2-0.3-0.2c-0.2-0.1-0.5-0.2-0.8-0.2c-0.2,0-0.5,0-0.7,0c-0.2,0-0.5,0-0.7,0
					c-0.2,0-0.4,0-0.6,0.1c-0.2,0.1-0.4,0.2-0.5,0.3c-0.2,0.1-0.3,0.3-0.3,0.5c-0.1,0.2-0.1,0.4-0.1,0.6c0,0.1,0,0.3,0.1,0.4
					c0.1,0.3,0.2,0.5,0.4,0.7c0.1,0.1,0.2,0.2,0.3,0.2c0.2,0.1,0.5,0.2,0.8,0.2c0.2,0,0.5,0,0.7,0c0.2,0,0.5,0,0.7,0
					c0.2,0,0.4,0,0.6-0.1c0.2-0.1,0.4-0.2,0.5-0.3c0.2-0.1,0.3-0.3,0.3-0.5c0.1-0.2,0.1-0.4,0.1-0.6c0-0.1,0-0.3-0.1-0.4
					C186.8,1070.9,186.7,1070.7,186.5,1070.5z"/>
			</g>
		</g>
	</g>
	<circle class="st14" cx="184.2" cy="1079.8" r="69.8"/>
	<g>
		<defs>
			<rect id="SVGID_5_" x="29.3" y="965.7" width="377.4" height="263.3"/>
		</defs>
		<clipPath id="SVGID_4_">
			<use xlink:href="#SVGID_5_"  style="overflow:visible;"/>
		</clipPath>
		<g class="st13">
			<path class="st8" d="M316.9,1158.7c0-0.7-0.5-0.7-0.5-1.3c0-0.7,0.1-0.7,0.1-1.3c0-0.7-0.3-0.7-0.3-1.3c0-0.7,0.4-0.7,0.4-1.3
				c0-0.7-0.2-0.7-0.2-1.3c0-0.7-0.2-0.7-0.2-1.3c0-0.7,0-0.7,0-1.3c0-0.7,0.4-0.7,0.4-1.3c0-0.7,0.2-0.7-0.2-1.2
				c-0.5-0.5-0.5,0.2-1.2,0.2c-0.7,0-0.7-0.6-1.4-0.6c-0.7,0-0.7,0.1-1.4,0.1c-0.7,0-0.7,0.6-1.4,0.6c-0.7,0-0.7-0.2-1.4-0.2
				c-0.7,0-0.7-0.1-1.4-0.1c-0.7,0-0.7,0.1-1.4,0.1c-0.7,0-0.7-0.2-1.4-0.2c-0.7,0-0.7,0.3-1.4,0.3c-0.7,0-0.7,0-1.4,0
				c-0.7,0-0.7-0.1-1.4-0.1c-0.7,0-0.7,0.2-1.4,0.2c-0.7,0-0.7-0.2-1.4-0.2c-0.7,0-0.7-0.4-1.4-0.4c-0.7,0-0.7-0.1-1.4-0.1
				c-0.7,0-0.7,0.7-1.4,0.7c-0.7,0-0.7-0.5-1.4-0.5c-0.7,0-0.7-0.1-1.4-0.1c-0.7,0-0.7,0.1-1.4,0.1c-0.7,0-0.7,0.4-1.4,0.4
				c-0.7,0-0.7-0.5-1.4-0.5c-0.7,0-0.7,0.4-1.4,0.4c-0.7,0-0.7-0.5-1.4-0.5c-0.7,0-0.7,0.2-1.4,0.2c-0.7,0-0.7,0.2-1.4,0.2
				c-0.7,0-0.7,0.2-1.4,0.2c-0.7,0-0.7-0.1-1.4-0.1c-0.7,0-0.7-0.2-1.4-0.2c-0.7,0-0.7-0.1-1.4-0.1c-0.7,0-0.7,0.2-1.4,0.2
				c-0.7,0-0.7,0-1.4,0c-0.7,0-0.7-0.2-1.4-0.2c-0.7,0-0.7,0.2-1.4,0.2c-0.7,0-0.7,0.3-1.4,0.3c-0.7,0-0.8-0.7-1.3-0.2
				c-0.5,0.5-0.4,0.6-0.4,1.3c0,0.7,0.2,0.7,0.2,1.4c0,0.7,0.3,0.7,0.3,1.4c0,0.7,0.2,0.7,0.2,1.4c0,0.7-0.1,0.7-0.1,1.4
				c0,0.7,0.2,0.7,0.2,1.4c0,0.7-0.4,0.7-0.4,1.4c0,0.7-0.1,0.7-0.1,1.4c0,0.7,0.3,0.7,0.3,1.4c0,0.7-0.5,0.7-0.5,1.4
				c0,0.7,0.1,0.7,0.1,1.4c0,0.7,0,0.7,0,1.4c0,0.7-0.1,0.7-0.1,1.4c0,0.7,0,0.7,0.2,1.4c0.4,0.3,1,0.3,1.4,0.5
				c0.4,0.3,0.5,0.9,0.9,1.2c0.4,0.3,1,0.1,1.4,0.3c0.4,0.2,0.5,1,0.9,1.3c0.4,0.2,0.9,0.2,1.4,0.4c0.4,0.2,0.7,0.6,1.2,0.8
				c0.4,0.2,0.9,0.2,1.4,0.4c0.4,0.2,0.9,0.1,1.4,0.3c0.4,0.1,0.8,0.6,1.2,0.7c0.4,0.1,1-0.2,1.5-0.1c0.4,0.1,0.8,0.7,1.3,0.7
				c0.5,0.1,0.9,0.1,1.4,0.2c0.5,0.1,0.9,0.1,1.4,0.1c0.5,0.1,0.9-0.2,1.4-0.1c0.5,0,0.9,0.3,1.4,0.3c0.5,0,0.9,0.3,1.4,0.3
				c0.5,0,0.9,0.1,1.4,0.1c0.5,0,0.9,0.1,1.4,0.1c0.5,0,0.9-0.2,1.4-0.2c0.5,0,0.9,0,1.4,0c0.5,0,0.9-0.1,1.4-0.2
				c0.5,0,0.9-0.4,1.3-0.4c0.5-0.1,0.9,0,1.4-0.1c0.5-0.1,0.9-0.2,1.4-0.3c0.5-0.1,0.9,0,1.4-0.1c0.5-0.1,0.8-0.7,1.2-0.8
				c0.4-0.1,1,0.3,1.5,0.1c0.4-0.1,0.8-0.6,1.2-0.7c0.4-0.1,0.9-0.1,1.4-0.3c0.4-0.1,0.8-0.5,1.3-0.6c0.4-0.2,0.8-0.4,1.3-0.6
				c0.4-0.2,1,0.1,1.5-0.1c0.4-0.2,0.6-0.9,1-1.1c0.4-0.2,1,0,1.5-0.2c0.4-0.2,0.9-0.3,1.3-0.5c0.4-0.2,0.4-0.7,0.8-1
				c0.2-0.6,0.4-0.6,0.4-1.3c0-0.7-0.4-0.7-0.4-1.3c0-0.7,0.5-0.7,0.5-1.3c0-0.7-0.5-0.7-0.5-1.3c0-0.7,0.5-0.7,0.5-1.3
				C316.9,1159.4,316.9,1159.4,316.9,1158.7z"/>
			<path class="st8" d="M330.3,1181c-0.5-0.4-0.4-0.7-1-0.9c-0.6-0.2-0.8,0.1-1.4-0.1c-0.6-0.2-0.7,0.1-1.4-0.2
				c-0.6-0.2-0.5-0.5-1.2-0.7c-0.6-0.2-0.7-0.1-1.3-0.3c-0.6-0.2-0.6-0.4-1.2-0.6c-0.6-0.2-0.7-0.2-1.3-0.4c-0.6-0.2-0.7,0-1.3-0.2
				c-0.6-0.2-0.6-0.2-1.3-0.4c-0.6-0.2-0.5-0.7-1.1-0.8c-0.6-0.1-0.7,0.1-1.1-0.5c-0.4-0.5-0.2-0.5-0.2-1.2c0-0.7,0-0.7,0-1.3
				c0-0.7-0.1-0.7-0.1-1.3c0-0.7,0-0.7,0-1.3c0-0.7,0-0.7,0-1.3c0-0.7,0.2-0.7,0.2-1.3c0-0.7,0.5-0.8,0.3-1.5
				c-0.4,0.2-1.2,0.5-1.6,0.7c-0.4,0.2-0.7,0.6-1.1,0.8c-0.4,0.2-0.8,0.4-1.3,0.6c-0.4,0.2-1,0.1-1.4,0.3c-0.4,0.2-0.9,0.3-1.3,0.5
				c-0.4,0.2-0.7,0.7-1.2,0.8c-0.4,0.2-1,0.1-1.4,0.2c-0.4,0.1-0.9,0.3-1.3,0.5c-0.4,0.1-0.9,0.1-1.4,0.2c-0.4,0.1-0.9,0.1-1.4,0.2
				c-0.4,0.1-0.8,0.7-1.2,0.8c-0.5,0.1-0.9,0.1-1.4,0.2c-0.5,0.1-0.9,0.3-1.4,0.3c-0.5,0.1-1-0.1-1.4-0.1c-0.5,0.1-0.9,0.5-1.3,0.5
				c-0.5,0-0.9,0-1.4,0c-0.5,0-0.9-0.3-1.4-0.3c-0.5,0-0.9,0.5-1.4,0.5c-0.5,0-0.9,0-1.4,0c-0.5,0-0.9,0-1.4,0
				c-0.5,0-0.9-0.1-1.4-0.1c-0.5,0-0.9-0.3-1.4-0.3c-0.5,0-0.9-0.2-1.4-0.3c-0.5-0.1-0.9-0.3-1.3-0.3c-0.5-0.1-0.9-0.3-1.3-0.4
				c-0.5-0.1-1,0.3-1.5,0.2c-0.4-0.1-0.9-0.2-1.4-0.3c-0.4-0.1-0.8-0.7-1.2-0.9c-0.4-0.1-0.8-0.4-1.3-0.6c-0.4-0.2-1,0.1-1.4-0.1
				c-0.4-0.2-0.8-0.5-1.2-0.7c-0.4-0.2-1,0-1.4-0.2c-0.4-0.2-0.8-0.5-1.2-0.7c-0.4-0.2-0.7-0.7-1-1c-0.4-0.3-0.5-0.8-0.9-1.1
				c-0.4-0.3-0.7-0.2-1.1-0.5c-0.2,0.6-0.4,0.6-0.4,1.3c0,0.7,0.3,0.7,0.3,1.3c0,0.7-0.4,0.7-0.4,1.3c0,0.7,0.5,0.7,0.6,1.3
				c0,0.7-0.3,0.7-0.3,1.3c0,0.7,0.3,0.7,0.3,1.3c0,0.7,0.3,0.9-0.1,1.4c-0.4,0.6-0.8-0.2-1.5,0c-0.7,0.2-0.6,0.4-1.3,0.6
				c-0.7,0.2-0.7,0.2-1.4,0.4c-0.7,0.2-0.7,0.2-1.3,0.4c-0.7,0.2-0.7,0.2-1.3,0.4c-0.7,0.2-0.7,0-1.4,0.1c-0.7,0.2-0.6,0.3-1.3,0.5
				c-0.7,0.2-0.7,0.2-1.3,0.4c-0.7,0.2-0.7,0-1.4,0.2c-0.7,0.2-0.6,0.3-1.3,0.5c-0.7,0.2-0.7,0.3-1.2,0.7c-0.6,0.4,0,0.4,0.3,1.2
				c0.2,0.3,0.4,0.7,0.7,1.2c0.2,0.4,0.3,0.8,0.6,1.3c0.2,0.4,0.4,0.8,0.6,1.2c0.2,0.4,0.7,0.6,0.9,1.1c0.2,0.4,0,1,0.2,1.4
				c0.2,0.4,0.8,0.6,1,1c0.2,0.4,0,1,0.2,1.4c0.2,0.4,0.8,0.6,1,1c0.2,0.4,0.1,1,0.4,1.4c0.2,0.4,0.3,0.9,0.6,1.3
				c0.2,0.4,0.7,0.7,0.9,1.1c0.2,0.4,0.3,0.9,0.5,1.3c0.2,0.4,0.7,0.6,0.9,1c0.2,0.4,0.5,0.8,0.7,1.2c0.2,0.4,0.4,0.8,0.6,1.2
				c0.2,0.4,0.3,0.9,0.6,1.3c0.2,0.4,0.8,0.6,1,1c0.2,0.4,0.4,0.8,0.7,1.2c0.2,0.4,0.2,1,0.4,1.4c0.2,0.4,0.6,0.7,0.8,1.1
				c0.3,0.4,0.8,0.6,1.1,0.9c0.3,0.4,0.2,1,0.4,1.4c0.3,0.4,0.7,0.6,1,1c0.3,0.4,0.7,0.6,1,1c0.3,0.4,0.2,1,0.5,1.4
				c0.3,0.4,0.9,0.4,1.2,0.8c0.3,0.4,0.1,1.1,0.4,1.4c0.3,0.4,0.7,0.6,1,1c0.3,0.4,1,0.4,1.2,0.8c0.3,0.4,0.5,0.8,0.8,1.1
				c0.3,0.3,0.4,0.9,0.7,1.2c0.3,0.3,0.6,0.7,0.9,1c0.3,0.3,0.9,0.4,1.2,0.7c0.3,0.3,0.2,1.1,0.5,1.4c0.3,0.3,1.1,0.2,1.4,0.5
				c0.3,0.3,0.7,0.6,1.1,0.9c0.4,0.3,0.3,1.1,0.7,1.4c0.4,0.3,1,0.2,1.4,0.5c0.4,0.3,0.8,0.5,1.2,0.7c0.4,0.2,0.7,0.7,1.1,0.9
				c0.4,0.2,0.8,0.4,1.2,0.6c0.4,0.2,0.8,0.6,1.2,0.7c0.4,0.2,1,0.1,1.4,0.2c0.5,0.1,1-0.2,1.4-0.2c0.5,0.1,0.9,0.5,1.3,0.5
				c0.5,0,0.9,0.3,1.4,0.2c0.4-0.1,0.9-0.2,1.4-0.3c0.4-0.1,0.8-0.6,1.2-0.8c0.4-0.1,0.8-0.5,1.2-0.7c0.4-0.2,1-0.1,1.4-0.3
				c0.4-0.2,0.9-0.3,1.2-0.6c0.4-0.2,0.7-0.6,1.1-0.8c0.4-0.3,0.8-0.4,1.2-0.7c0.4-0.3,0.6-0.7,1-1c0.3-0.3,0.8-0.5,1.1-0.8
				c0.3-0.3,0.6-0.7,0.9-1c0.3-0.3,0.4-0.9,0.7-1.2c0.3-0.3,0.9-0.4,1.2-0.7c0.3-0.3,0.6-0.6,0.9-1c0.3-0.3,0.2-1,0.5-1.4
				c0.3-0.3,0.8-0.5,1.1-0.9c0.3-0.3,0.5-0.8,0.7-1.2c0.3-0.4,1-0.4,1.2-0.8c0.3-0.4,0.3-0.9,0.6-1.3c0.3-0.4,0.6-0.7,0.9-1.1
				c0.3-0.4,0.2-0.9,0.5-1.3c0.3-0.4,0.9-0.5,1.2-0.8c0.3-0.4,0.4-0.8,0.6-1.2c0.2-0.4,0.3-0.9,0.5-1.3c0.2-0.4,0.8-0.6,1-0.9
				c0.2-0.4,0.3-0.9,0.6-1.3c0.2-0.4,0.6-0.7,0.8-1.1c0.2-0.4,0.3-0.9,0.5-1.3c0.2-0.4,0.6-0.7,0.9-1.1c0.2-0.4,0.5-0.8,0.7-1.2
				c0.2-0.4,0.4-0.8,0.6-1.2c0.2-0.4,0.6-0.7,0.8-1.1c0.2-0.4,0.1-1,0.3-1.4c0.2-0.4,0.7-0.7,0.9-1.1c0.2-0.4,0.5-0.8,0.7-1.1
				c0.2-0.4-0.2-1.1,0-1.5c0.2-0.4,0.6-0.7,0.8-1.1c0.2-0.4,0.2-0.9,0.4-1.3c0.2-0.4,0.6-0.7,0.8-1.1c0.2-0.4,0.3-0.9,0.5-1.3
				c0.2-0.4,0.9-0.6,1-1c0.2-0.4,0.1-1,0.3-1.4c0.2-0.4,0.1-1,0.3-1.4c0.2-0.5,0.7-0.8,0.9-1.1
				C330.3,1181.3,330.9,1181.5,330.3,1181z"/>
			<path class="st8" d="M327.6,1068.6c-0.7,0-0.6-0.3-1.3-0.5c-0.7-0.1-0.7,0.1-1.4,0c-0.7-0.1-0.7,0-1.4-0.1
				c-0.7-0.1-0.7-0.1-1.4-0.3c-0.7-0.1-0.7,0-1.4-0.2c-0.7-0.1-0.7-0.2-1.3-0.3c-0.7-0.1-0.7,0-1.4-0.1c-0.7-0.1-0.7-0.2-1.3-0.4
				c-0.7-0.1-0.6-0.3-1.3-0.4c-0.7-0.1-0.6-0.5-1.3-0.6c-0.7-0.1-0.8,0.2-1.4,0.1c-0.7-0.1-0.6-0.6-1.2-0.8
				c-0.7-0.1-0.7-0.1-1.4-0.3c-0.7-0.1-0.8,0.5-1.5,0.3c-0.7-0.1-0.6-0.6-1.2-0.8c-0.7-0.1-0.7,0.1-1.4,0c-0.7-0.1-0.7-0.1-1.4-0.2
				c-0.7-0.1-0.7-0.1-1.4-0.2c-0.7-0.1-0.6-0.4-1.3-0.6c-0.7-0.1-0.7,0.2-1.4,0c-0.7-0.1-0.6-0.4-1.3-0.6c-0.7-0.1-0.7-0.1-1.4-0.2
				c-0.7-0.1-0.7-0.1-1.4-0.3c-0.7-0.1-0.6-0.3-1.3-0.5c-0.7-0.1-0.7,0-1.4-0.1c-0.7-0.1-0.7-0.1-1.4-0.3c-0.7-0.1-0.6-0.4-1.3-0.5
				c-0.7-0.1-0.8,0.4-1.5,0.3c-0.7-0.1-0.6-0.4-1.3-0.5c-0.7-0.1-0.7,0-1.4-0.1c-0.7-0.1-0.6-0.5-1.3-0.7c-0.7-0.1-0.6-0.3-1.3-0.5
				c-0.7-0.1-0.8,0.3-1.5,0.2c-0.7-0.1-0.6-0.4-1.3-0.6c-0.7-0.1-0.7,0.1-1.4-0.1c-0.7-0.1-0.6-0.5-1.3-0.4
				c-0.7,0.1-0.7,0.2-1.3,0.5c-0.6,0.3-0.6,0.4-1.1,0.7c-0.6,0.3-0.5,0.5-1.1,0.8c-0.6,0.3-0.5,0.6-1,0.9c-0.6,0.3-0.6,0.3-1.2,0.7
				c-0.6,0.3-0.7,0.2-1.2,0.6c-0.6,0.3-0.6,0.3-1.2,0.7c-0.6,0.3-0.6,0.2-1.2,0.6c-0.6,0.3-0.7,0.1-1.3,0.4
				c-0.6,0.3-0.5,0.4-1.1,0.8c-0.6,0.3-0.4,0.6-1,1c-0.6,0.3-0.6,0.3-1.2,0.7c-0.6,0.3-0.8,0-1.3,0.4c-0.6,0.3-0.6,0.3-1.2,0.6
				c-0.6,0.3-0.4,0.7-0.9,1.1c-0.6,0.3-0.7,0.2-1.2,0.6c-0.6,0.3-0.5,0.5-1.1,0.9c-0.6,0.3-0.6,0.4-1.1,0.7
				c-0.6,0.3-0.6,0.3-1.2,0.7c-0.6,0.3-1-0.1-1.3,0.5c-0.3,0.6-0.1,0.7-0.1,1.4c0,0.7,0.1,0.7,0.1,1.4c0,0.7-0.1,0.7-0.1,1.4
				c0,0.7,0.3,0.7,0.3,1.4c0,0.7-0.2,0.7-0.2,1.4c0,0.7,0.6,0.7,0.6,1.4c0,0.7-0.3,0.7-0.2,1.4c0,0.7-0.4,0.7-0.4,1.4
				c0,0.7,0.3,0.7,0.3,1.4c0,0.7,0,0.7,0,1.4c0,0.7,0.2,0.7,0.2,1.4c0,0.7,0,0.7,0,1.4c0,0.7-0.3,0.7-0.3,1.4c0,0.7,0.7,0.7,0.7,1.3
				c0,0.7-0.7,0.7-0.7,1.4c0,0.7,0.3,0.7,0.3,1.4c0,0.7,0.4,0.7,0.4,1.4c0,0.7-0.5,0.7-0.5,1.4c0,0.7,0.2,0.7,0.2,1.4
				c0,0.7,0.4,0.7,0.4,1.4c0,0.7-0.1,0.7-0.1,1.4c0,0.7,0.2,0.7,0.3,1.4c0,0.7-0.6,0.7-0.5,1.4c0,0.7,0.6,0.7,0.6,1.4
				c0,0.7-0.2,0.7-0.2,1.4c0,0.7,0.2,0.7,0.3,1.4c0,0.7-0.2,0.7-0.2,1.4c0,0.7-0.3,0.7-0.3,1.4c0,0.7,0,0.7,0,1.4
				c0,0.7-0.1,0.7-0.1,1.4c0,0.7,0.2,0.7,0.2,1.4c0,0.7,0.3,0.7,0.3,1.4c0,0.7-0.2,0.7-0.2,1.4c0,0.7,0.5,0.7,0.5,1.4
				c0,0.7-0.5,0.7-0.5,1.4c0,0.7,0.2,0.7,0.2,1.4c0,0.7,0.2,0.7,0.3,1.4c0,0.7-0.5,0.7-0.5,1.4c0,0.7,0.5,0.7,0.5,1.4
				c0,0.7-0.1,0.7-0.1,1.4c0,0.5,0,0.9,0,1.4c0,0.5,0.4,0.9,0.4,1.3c0,0.5,0.1,0.9,0.2,1.3c0.1,0.5,0.1,0.9,0.1,1.4
				c0.1,0.5,0,0.9,0.1,1.4c0.1,0.4,0.4,0.8,0.5,1.3c0.1,0.4-0.1,1,0,1.4c0.1,0.4,0.5,0.8,0.6,1.2c0.1,0.4-0.3,1.1-0.1,1.5
				c0.2,0.4,0.7,0.7,0.9,1.1c0.2,0.4,0.4,0.8,0.6,1.2c0.2,0.4,0.2,0.9,0.4,1.3c0.2,0.4,0.6,0.7,0.8,1.1c0.2,0.4,0.5,0.8,0.7,1.2
				c0.2,0.4,0.5,0.8,0.7,1.2c0.2,0.4,0.1,1,0.4,1.4c0.3,0.4,0.7,0.6,0.9,1c0.3,0.4,0.9,0.5,1.1,0.8c0.3,0.4,0.6,0.7,0.8,1.1
				c0.3,0.3,0.6,0.7,0.9,1c0.3,0.3,0.3,0.9,0.7,1.3c0.3,0.3,0.8,0.5,1.1,0.8c0.3,0.3,0.4,0.9,0.7,1.2c0.3,0.3,1.1,0.1,1.5,0.3
				c0.4,0.3,0.7,0.5,1.1,0.8c0.4,0.3,0.5,0.9,0.9,1.1c0.4,0.3,0.9,0.3,1.3,0.6c0.4,0.2,0.8,0.3,1.2,0.6c0.4,0.2,0.6,0.8,1,1
				c0.4,0.2,0.7,0.6,1.1,0.8c0.4,0.2,1-0.1,1.5,0.1c0.4,0.2,0.8,0.3,1.3,0.5c0.4,0.2,0.7,0.7,1.2,0.8c0.4,0.1,1-0.1,1.4,0
				c0.4,0.1,0.8,0.5,1.2,0.6c0.4,0.1,0.8,0.5,1.3,0.6c0.4,0.1,0.9,0.2,1.4,0.3c0.4,0.1,0.9-0.1,1.4,0c0.5,0.1,0.9-0.3,1.4-0.2
				c0.5,0,0.9,0.2,1.3,0.3c0.5,0,0.9,0.1,1.4,0.1c0,0,0,0.2,0,0.2c0.5,0,0.9-0.4,1.4-0.4c0.5,0,0.9-0.1,1.4-0.2c0.5,0,1,0.4,1.4,0.3
				c0.5-0.1,0.8-0.7,1.3-0.8c0.5-0.1,0.9-0.1,1.3-0.2c0.4-0.1,0.9-0.2,1.3-0.3c0.4-0.1,1,0.1,1.4,0c0.4-0.1,0.8-0.4,1.3-0.5
				c0.4-0.1,0.8-0.4,1.3-0.5c0.4-0.2,1,0.1,1.4-0.1c0.4-0.2,0.7-0.7,1.1-0.9c0.4-0.2,0.9-0.3,1.3-0.5c0.4-0.2,0.7-0.7,1.1-0.9
				c0.4-0.2,1-0.2,1.3-0.4c0.4-0.2,0.8-0.5,1.2-0.7c0.4-0.3,0.8-0.4,1.2-0.7c0.4-0.3,0.6-0.7,0.9-1c0.4-0.3,0.8-0.5,1.2-0.8
				c0.3-0.3,0.6-0.7,1-1c0.3-0.3,0.4-0.9,0.7-1.2c0.3-0.3,0.6-0.6,1-1c0.3-0.3,0.6-0.6,0.9-1c0.3-0.3,0.7-0.6,1-1
				c0.3-0.4,0.5-0.7,0.8-1.1c0.3-0.4,0.7-0.6,1-1c0.3-0.4,0.5-0.8,0.7-1.2c0.2-0.4,0.5-0.8,0.7-1.2c0.2-0.4,0.3-0.9,0.5-1.3
				c0.2-0.4,0.2-0.9,0.4-1.3c0.2-0.4,0.5-0.7,0.7-1.2c0.2-0.4,0.2-0.9,0.4-1.3c0.2-0.4,0.9-0.6,1-1.1c0.2-0.4,0.2-0.9,0.4-1.3
				c0.1-0.4,0.4-0.8,0.5-1.3c0.1-0.4-0.2-1-0.1-1.4c0.1-0.4,0.3-0.9,0.4-1.3c0.1-0.4,0.1-0.9,0.2-1.4c0.1-0.4,0.3-0.9,0.4-1.3
				c0.1-0.5,0.1-0.9,0.2-1.4c0-0.5-0.1-0.9-0.1-1.4c0-0.5,0.2-0.9,0.2-1.4c0-0.7,0.1-0.7,0.1-1.4s-0.4-0.7-0.4-1.4
				c0-0.7,0-0.7,0-1.4c0-0.7,0.4-0.7,0.4-1.4c0-0.7-0.1-0.7,0-1.4c0-0.7-0.5-0.7-0.5-1.4c0-0.7,0.5-0.7,0.5-1.4
				c0-0.7-0.1-0.7-0.1-1.4c0-0.7,0.2-0.7,0.2-1.4c0-0.7,0-0.7,0-1.4c0-0.7-0.3-0.7-0.2-1.4c0-0.7,0.4-0.7,0.4-1.4
				c0-0.7-0.4-0.7-0.4-1.4c0-0.7,0.1-0.7,0.1-1.4c0-0.7,0-0.7,0-1.4c0-0.7,0.1-0.7,0.2-1.4c0-0.7-0.1-0.7-0.1-1.4c0-0.7,0-0.7,0-1.4
				c0-0.7-0.1-0.7-0.1-1.4c0-0.7,0.3-0.7,0.3-1.4c0-0.7-0.6-0.7-0.6-1.4c0-0.7,0.4-0.7,0.4-1.4c0-0.7,0.2-0.7,0.2-1.4
				c0-0.7-0.3-0.7-0.3-1.4c0-0.7-0.2-0.7-0.2-1.4c0-0.7,0-0.7,0-1.4c0-0.7,0.5-0.7,0.6-1.4c0-0.7-0.2-0.7-0.2-1.4
				c0-0.7-0.3-0.7-0.3-1.4c0-0.7,0.3-0.7,0.3-1.4c0-0.7-0.1-0.7-0.1-1.4c0-0.7,0.4-0.7,0.4-1.4c0-0.7-0.5-0.7-0.5-1.4
				c0-0.7,0.6-0.7,0.7-1.4c0-0.7,0-0.7,0.1-1.4c0-0.7-0.2-0.7-0.2-1.4c0-0.7-0.4-0.7-0.4-1.4c0-0.7,0.1-0.7,0.1-1.4
				c0-0.7,0.1-0.7,0.1-1.4c0-0.7-0.1-0.7-0.1-1.4c0-0.7,0.6-0.7,0.6-1.4c0-0.7,0.4-1.1,0-1.6
				C328.8,1068.3,328.5,1068.5,327.6,1068.6z"/>
			<path class="st8" d="M258.1,1120.7c0-0.7-0.3-0.7-0.3-1.4c0-0.7,0-0.7,0-1.4c0-0.7,0.2-0.7,0.2-1.4c0-0.7-0.4-0.7-0.4-1.3
				c0-0.7,0.3-0.7,0.3-1.4c0-0.7-0.5-0.7-0.6-1.3c0-0.7,0-0.7-0.1-1.4c0-0.7,0.5-0.7,0.5-1.4c0-0.7-0.6-0.6-0.7-1.3
				c0-0.7,0.1-0.7,0-1.4c0-0.7,0.3-0.7,0.2-1.4c0-0.7-0.4-0.7-0.4-1.3c0-0.7,0.2-0.7,0.2-1.4c0-0.7,0-0.7-0.1-1.4
				c0-0.7-0.4-0.7-0.5-1.3c0-0.7,0.3-0.7,0.3-1.4c0-0.7,0.1-0.7,0-1.4c0-0.7,0.2-0.8-0.1-1.4c-0.5,0-1,0.1-1.5,0.1
				c-0.5,0-0.9,0.4-1.3,0.5c-0.5,0.1-0.9,0.3-1.3,0.4c-0.4,0.1-1-0.1-1.4,0.1c-0.4,0.2-0.8,0.4-1.3,0.6c-0.4,0.2-1,0.3-1.3,0.5
				c-0.4,0.3-0.7,0.7-1,1c-0.4,0.3-0.6,0.7-0.9,1.1c-0.3,0.3-0.6,0.7-0.9,1.1c-0.3,0.4-0.4,0.8-0.7,1.2c-0.2,0.4-0.3,0.8-0.5,1.3
				c-0.2,0.4-0.5,0.8-0.7,1.2c-0.2,0.4-0.7,0.8-0.8,1.2c-0.1,0.4,0.1,1,0,1.4c-0.1,0.5-0.4,0.9-0.5,1.4c0,0.5,0.4,0.9,0.4,1.4
				c0,0.5-0.2,0.9-0.1,1.4c0.1,0.5,0.4,0.8,0.5,1.3c0.1,0.4,0.2,0.9,0.4,1.3c0.2,0.4,0.6,0.7,0.8,1.1c0.2,0.4,0.4,0.8,0.6,1.2
				c0.3,0.4,0.4,0.9,0.7,1.2c0.3,0.3,0.7,0.6,1,0.9c0.3,0.3,0.5,0.8,0.9,1.1c0.4,0.3,1.1,0,1.5,0.3c0.4,0.2,0.5,1,0.9,1.2
				c0.4,0.2,0.9,0.3,1.3,0.5c0.4,0.2,0.8,0.5,1.2,0.7c0.4,0.2,1.1-0.4,1.5-0.2c0.4,0.1,0.8,0.4,1.3,0.5c0.5,0.1,0.9,0.4,1.3,0.5
				c0.5,0,0.9-0.1,1.3-0.1c0.2-0.7,0.2-0.7,0.1-1.4C258.1,1121.4,258.2,1121.4,258.1,1120.7z"/>
			<path class="st8" d="M339.9,1111.1c-0.1-0.5-0.6-0.8-0.7-1.3c-0.1-0.5,0.1-1-0.1-1.4c-0.2-0.5-0.6-0.8-0.8-1.2
				c-0.2-0.4-0.1-1-0.3-1.4c-0.3-0.4-0.4-0.9-0.7-1.2c-0.3-0.4-0.7-0.6-1.1-0.9c-0.4-0.3-0.8-0.5-1.2-0.8c-0.4-0.3-0.8-0.5-1.2-0.7
				c-0.4-0.2-0.9-0.2-1.4-0.4c-0.4-0.2-0.9-0.1-1.4-0.2c-0.4-0.1-0.9-0.4-1.3-0.5c-0.5-0.1-0.9-0.1-1.4-0.1c-0.5,0-1.3-0.2-1.7-0.2
				c-0.3,0.6,0,0.8,0,1.5c0,0.7,0.2,0.7,0.2,1.4c0,0.7,0.1,0.7,0,1.4c0,0.7,0,0.7-0.1,1.4c0,0.7-0.1,0.7-0.2,1.4
				c0,0.7-0.4,0.7-0.4,1.3c0,0.7,0.4,0.7,0.3,1.4c0,0.7,0,0.7-0.1,1.4c0,0.7-0.3,0.7-0.4,1.3c0,0.7,0.3,0.7,0.3,1.4
				c0,0.7-0.4,0.7-0.4,1.3c0,0.7-0.1,0.7-0.2,1.4c0,0.7,0.5,0.7,0.5,1.4c0,0.7-0.6,0.6-0.6,1.3c0,0.7,0,0.7-0.1,1.4
				c0,0.7,0.5,0.8,0.4,1.4c-0.1,0.7-0.6,0.7-0.4,1.3c0.5,0,1-0.1,1.5-0.2c0.5,0,1,0.2,1.4,0.1c0.5-0.1,1,0.1,1.4,0
				c0.5-0.1,0.8-0.9,1.2-1c0.5-0.1,0.9-0.1,1.4-0.2c0.4-0.2,0.8-0.5,1.2-0.6c0.4-0.2,1.1,0.2,1.5-0.1c0.4-0.2,0.5-1,0.8-1.3
				c0.4-0.3,0.9-0.4,1.2-0.7c0.3-0.3,0.6-0.7,0.9-1.1c0.3-0.4,0.8-0.6,1-1c0.2-0.4,0.6-0.8,0.7-1.3c0.1-0.4,0.1-1,0.1-1.5
				c0.1-0.4,0.2-0.9,0.2-1.4c0-0.5-0.2-0.9-0.3-1.4C339.7,1112,339.9,1111.5,339.9,1111.1z"/>
			<polygon class="st4" points="342,1071.4 341.9,1070.1 341.8,1068.8 341.6,1067.6 340.8,1066.5 340.3,1065.3 339.9,1064.1 
				338.8,1063.3 338.2,1062.2 337.6,1061 336.9,1060 336,1059.1 335.2,1058.1 333.9,1057.6 333.1,1056.6 332.3,1055.6 331.2,1055 
				330.4,1053.9 329.2,1053.4 328.2,1052.6 327.4,1051.6 326.4,1050.8 325.2,1050.3 324.5,1049.1 323.1,1048.8 322.5,1047.6 
				321.6,1046.7 320.6,1045.8 319.4,1045.3 318.5,1044.4 317.2,1044 316.6,1042.7 315.3,1042.3 314.4,1041.4 313.2,1040.8 
				311.9,1040.6 310.9,1039.7 309.8,1039 308.7,1038.4 307.4,1038.3 306.2,1037.8 305,1037.2 303.8,1036.8 302.6,1036.3 
				301.2,1036.6 300.1,1035.9 298.8,1035.8 297.5,1036 296.3,1035.3 295,1035.2 293.7,1035.5 292.4,1035.5 291.2,1035.3 
				289.9,1035.7 288.6,1035.7 287.3,1035.4 286.1,1036.1 284.8,1035.8 283.6,1036.3 282.3,1036.2 281.2,1037.1 279.9,1037.1 
				278.6,1037.4 277.4,1037.9 276.3,1038.6 275.2,1039.2 273.9,1039.4 272.8,1040 271.7,1040.8 270.6,1041.4 269.7,1042.3 
				268.7,1043 267.4,1043.5 266.5,1044.4 265.7,1045.4 264.5,1046 264,1047.3 263.1,1048.2 262.3,1049.2 261.5,1050.1 260.7,1051.2 
				259.7,1052 259.5,1053.4 258.4,1054.4 258.9,1054.5 257.6,1055 256.7,1055.9 255.5,1056.4 254.4,1057.1 253.7,1058.2 
				252.9,1059.2 252.3,1060.3 251.1,1061.1 250.9,1062.5 250.3,1063.6 249.2,1064.5 249.1,1065.8 248.5,1067 248,1068.2 247,1069.1 
				246.8,1070.4 246.5,1071.7 246,1072.9 245.2,1074 245.1,1075.3 244.7,1076.5 244.6,1077.8 243.8,1079 243.7,1080.2 243.6,1081.6 
				243.9,1082.8 243.6,1084.2 244.3,1085.3 244.4,1086.7 244.9,1087.9 245.7,1088.9 246.5,1089.9 247.2,1091 247.7,1092.2 
				248.7,1093.2 248.9,1094.6 250,1095.4 250.6,1096.6 251.7,1097.4 252.2,1098.6 253,1099.7 253.8,1100.6 254.4,1101.8 
				255.2,1102.9 255.4,1104.2 255.9,1105.4 256.3,1104.1 256.7,1102.8 256.7,1101.4 256.5,1100 257.2,1098.8 257,1097.4 
				257.6,1096.1 257.7,1094.8 258.6,1093.9 259.5,1092.9 260.8,1092.5 261.6,1091.5 262.5,1090.6 262.9,1089.3 263.9,1088.4 
				264.9,1087.6 265.1,1086.2 265.8,1085.2 267,1084.4 267.5,1083.2 268.2,1082.2 268.8,1081 268.9,1079.7 269.7,1078.6 
				270.3,1077.5 270.6,1076.2 271.4,1075.2 271.3,1073.8 271.9,1072.7 272.6,1071.6 272.7,1070.2 273.2,1069.1 273.8,1068 
				274.3,1066.8 274.7,1065.6 274.8,1064.4 276.1,1064.5 277.3,1064.9 278.4,1065.6 279.7,1065.8 280.7,1066.6 282.1,1066.7 
				283.1,1067.4 284.4,1067.6 285.7,1067.8 286.8,1068.5 288,1068.8 289.2,1069.3 290.3,1070 291.5,1070.3 292.6,1071.1 
				293.9,1071.2 295.2,1071.4 296.2,1072.2 297.4,1072.8 298.7,1072.9 299.9,1073.3 301,1073.9 302.2,1074.5 303.5,1074.7 
				304.7,1075.1 305.9,1075.4 307.1,1075.8 308.3,1076 309.5,1076.6 310.6,1077.1 311.7,1077.5 312.9,1077.8 314.2,1078.1 
				315,1079.1 316,1079.9 317.2,1080.4 317.9,1081.5 318.4,1082.7 319.3,1083.7 319.6,1085 320.5,1086 321.3,1087 321.7,1088.3 
				322.2,1089.5 323.2,1090.4 323.9,1091.5 324,1093 324.5,1094.1 325.5,1095.1 325.6,1096.5 326.7,1097.4 326.8,1098.8 327.4,1100 
				327.9,1101.2 329,1102.1 329,1103.5 329.8,1104.8 330.4,1103.4 330.4,1102 331.2,1100.9 332.1,1100 332.3,1098.6 332.8,1097.5 
				333.8,1096.6 334.1,1095.2 335.1,1094.4 335.4,1093 335.9,1091.9 336.8,1090.9 337.5,1089.8 338.3,1088.8 338.7,1087.5 
				339.4,1086.4 339.5,1085.1 339.9,1083.9 340.5,1082.7 340.7,1081.5 341.6,1080.4 341.6,1079 342.2,1077.8 341.8,1076.5 
				342.3,1075.3 342.3,1074 342.1,1072.7 			"/>
			<polygon class="st0" points="393.3,1272.1 393.4,1270.8 393.6,1269.5 393.4,1268.2 393.3,1266.9 393.4,1265.6 394,1264.3 
				393.8,1263.1 393.4,1261.8 393.9,1260.5 393.8,1259.2 393.8,1257.9 393.9,1256.6 393.4,1255.3 393.4,1254 393.4,1252.8 
				393.5,1251.5 393.8,1250.2 393.6,1248.9 393.9,1247.6 393.8,1246.3 393.7,1245 393.9,1243.7 393.6,1242.5 393.6,1241.2 
				393.7,1239.9 393.9,1238.6 393.5,1237.3 394,1236 393.3,1234.7 393.5,1233.4 393.8,1232.2 393.6,1230.9 393.9,1229.6 
				393.9,1228.3 393.5,1227 393.8,1225.7 393.3,1224.4 394,1223.2 393.5,1221.9 393.5,1220.6 393.2,1219.4 393.8,1218.1 
				393.1,1216.9 393.4,1215.5 393,1214.3 392.5,1213.1 391.9,1212 391.9,1210.6 391.2,1209.5 390.6,1208.4 390.4,1207.1 
				389.4,1206.2 388.6,1205.2 388.1,1204 387.5,1202.9 386.5,1202 386.1,1200.7 385,1200 384.4,1198.8 383.6,1197.8 382.4,1197.2 
				381.7,1196.1 380.7,1195.2 379.4,1194.8 378.6,1193.8 377.4,1193.2 376.3,1192.7 375.2,1192.1 374.2,1191.2 373,1190.8 372,1190 
				370.8,1189.5 369.7,1188.8 368.6,1188.2 367.2,1188.2 366.1,1187.5 364.9,1187.1 363.7,1186.8 362.3,1186.8 361.1,1186.3 
				359.9,1185.9 358.7,1185.6 357.6,1184.9 356.2,1185 355.1,1184.4 353.8,1184.2 352.7,1183.5 351.3,1183.6 350.2,1182.8 
				348.9,1182.8 347.7,1182.3 346.4,1182.4 345.1,1182.1 344,1181.3 342.6,1181.6 341.4,1181.2 340.1,1181.2 338.8,1181 
				337.7,1180.1 336.4,1180.1 335.1,1180.2 333.9,1179.9 332.7,1179.3 331.4,1179.3 330.1,1179.2 328.9,1179 327.7,1178.3 
				326.3,1178.7 325.1,1178 323.9,1177.8 322.6,1177.9 321.4,1177.4 320.1,1177.4 318.8,1177 317.6,1177 316.3,1177.2 315,1177.5 
				313.7,1177.3 312.5,1177.5 311.2,1177.3 309.9,1177.5 308.7,1177.2 307.4,1176.9 306.1,1177.4 304.9,1177.2 303.6,1177.3 
				302.3,1177.3 301.1,1177.2 299.8,1177.1 298.5,1177.1 297.3,1177.3 296,1177.3 294.7,1177 293.5,1177.4 292.2,1177 291,1177.5 
				289.7,1177.3 288.4,1177.4 287.2,1177.3 285.9,1177.1 284.6,1177.3 283.4,1177.5 282.1,1177.1 280.8,1177 279.6,1177.4 
				278.3,1176.9 277,1177.6 275.8,1177.5 274.5,1177.3 273.2,1177.6 272,1176.9 270.7,1177 269.4,1177 268.2,1177.7 266.9,1177.7 
				265.6,1177.5 264.4,1177.7 263.2,1178.4 261.8,1178 260.6,1178.7 259.4,1179.1 258.1,1179 256.9,1179.3 255.6,1179.3 
				254.4,1179.8 253.1,1180.1 251.8,1179.9 250.6,1180.5 249.3,1180.4 248.1,1181.1 246.8,1180.9 245.6,1181.4 244.4,1181.8 
				243.1,1182.2 241.9,1182.4 240.7,1182.8 239.3,1182.5 238.1,1183.1 236.9,1183.6 235.5,1183.3 234.4,1183.9 233.1,1184.1 
				232,1184.9 230.7,1184.9 229.5,1185.6 228.3,1185.9 226.9,1185.7 225.8,1186.3 224.5,1186.5 223.5,1187.4 222.1,1187.3 
				221,1188.2 219.8,1188.4 218.5,1188.7 217.6,1189.8 216.4,1190.2 215.1,1190.5 214,1191.2 213.1,1192.1 211.7,1192.3 211,1193.5 
				209.7,1193.9 208.6,1194.6 207.7,1195.4 206.8,1196.4 205.7,1197.1 205.1,1198.2 203.9,1198.8 203,1199.7 202.2,1200.7 
				201.4,1201.7 200.7,1202.8 200.2,1204 199.3,1204.9 199.1,1206.3 198.4,1207.3 197.3,1208.2 197.1,1209.5 196.3,1210.6 
				196.2,1211.9 195.7,1213.1 195.6,1214.4 195.6,1215.6 195,1216.8 194.7,1218.1 194.4,1219.3 194.6,1220.6 194.9,1221.9 
				194.7,1223.1 195,1224.4 194.4,1225.7 194.6,1227 194.8,1228.3 194.7,1229.6 195,1230.9 194.6,1232.2 194.5,1233.5 194.4,1234.8 
				194.3,1236 194.7,1237.3 194.3,1238.6 194.6,1239.9 194.3,1241.2 194.7,1242.5 194.8,1243.8 194.8,1245.1 194.4,1246.3 
				194.3,1247.6 194.4,1248.9 194.7,1250.2 195,1251.5 194.4,1252.8 194.4,1254.1 195,1255.4 194.9,1256.6 194.7,1257.9 195,1259.2 
				194.9,1260.5 194.5,1261.8 194.4,1263.1 194.5,1264.4 194.5,1265.7 194.3,1266.9 194.5,1268.2 194.5,1269.5 194.5,1270.8 
				194.7,1272.1 194.7,1273.4 194.4,1274.7 194.7,1276 394,1276 393.9,1274.7 394,1273.4 			"/>
			<path class="st4" d="M255.9,1105.4l14.7,41.7l4.5-5.6l7.7,5.6l5.7-5.6l5.7,5.6l5.9-5.6l4.7,5.6l5.7-5.6l4.7,5.6
				c0,0,10.3-32.6,10.6-34c0.4-1.3,3.2-9.7,3.2-9.7l1.3-39.7l-43.6-9.1c0,0-16.9-0.9-19.4,2.6s-15.6,25.1-15.6,25.1L255.9,1105.4z"
				/>
		</g>
	</g>
</g>
</svg>
