<?xml version="1.0" encoding="utf-8"?>
<!-- Generator: Adobe Illustrator 24.1.3, SVG Export Plug-In . SVG Version: 6.00 Build 0)  -->
<svg version="1.1" id="レイヤー_1" xmlns="http://www.w3.org/2000/svg" xmlns:xlink="http://www.w3.org/1999/xlink" x="0px"
	 y="0px" viewBox="0 0 1440 1440" style="enable-background:new 0 0 1440 1440;" xml:space="preserve">
<style type="text/css">
	.st0{fill:#B2E2F8;}
	.st1{fill:#FFFFFF;stroke:#FFFFFF;stroke-miterlimit:10;}
	.st2{fill:#FFFFFF;}
	.st3{opacity:0.3;fill:#B2E2F8;}
	.st4{fill:#514F50;}
	.st5{fill:#E0F4FC;}
	.st6{fill:#57C0F0;}
	.st7{fill:#00A0E9;}
	.st8{clip-path:url(#SVGID_2_);}
	.st9{fill:#FFAF9B;}
	.st10{fill:#FFCFBA;}
	.st11{fill:#505050;}
	.st12{fill:#E7EFF9;}
	.st13{fill:#C9DCF1;}
	.st14{fill:#8BB9E3;}
	.st15{fill:#F76E57;}
	.st16{fill:#CEDFF3;}
	.st17{clip-path:url(#SVGID_4_);fill:#FFFFFF;}
	.st18{clip-path:url(#SVGID_4_);}
	.st19{fill:#9DC3E7;}
	.st20{fill:#B5D1ED;}
	.st21{clip-path:url(#SVGID_6_);fill:#FFFFFF;}
	.st22{clip-path:url(#SVGID_6_);}
	.st23{fill:none;stroke:#B2E2F8;stroke-miterlimit:10;}
	.st24{clip-path:url(#SVGID_8_);}
	.st25{clip-path:url(#SVGID_10_);fill:#FFFFFF;}
	.st26{clip-path:url(#SVGID_10_);}
	.st27{clip-path:url(#SVGID_12_);fill:#FFFFFF;}
	.st28{clip-path:url(#SVGID_12_);}
	.st29{clip-path:url(#SVGID_14_);}
	.st30{clip-path:url(#SVGID_16_);}
</style>
<g>
	<path class="st2" d="M985,507.4c0,2.7,0.1,6.3,0.1,7.5c0,1.8-0.5,2.1-2.5,2.1h-4.3c-2,0-2.5-0.3-2.5-2.1c0-1.1,0.1-4.7,0.1-7.5
		v-6.4c0-2.1-0.4-2.6-2.6-2.6h-7c-2.7,0-6.3,0.1-7.4,0.1c-1.8,0-2.1-0.5-2.1-2.5v-3.8c0-2,0.3-2.5,2.1-2.5c1.1,0,4.7,0.1,7.4,0.1h7
		c2.1,0,2.6-0.4,2.6-2.6v-6.4c0-2.7-0.1-6.3-0.1-7.4c0-1.8,0.5-2.1,2.5-2.1h4.3c2,0,2.5,0.3,2.5,2.1c0,1.1-0.1,4.7-0.1,7.4v6.4
		c0,2.1,0.4,2.6,2.6,2.6h7.1c2.7,0,6.3-0.1,7.4-0.1c1.8,0,2.1,0.5,2.1,2.5v3.8c0,2-0.3,2.5-2.1,2.5c-1.1,0-4.7-0.1-7.4-0.1h-7.1
		c-2.1,0-2.6,0.4-2.6,2.6V507.4z"/>
</g>
</svg>
