<?xml version="1.0" encoding="utf-8"?>
<!-- Generator: Adobe Illustrator 24.1.3, SVG Export Plug-In . SVG Version: 6.00 Build 0)  -->
<svg version="1.1" id="レイヤー_1" xmlns="http://www.w3.org/2000/svg" xmlns:xlink="http://www.w3.org/1999/xlink" x="0px"
	 y="0px" viewBox="0 0 1440 1440" style="enable-background:new 0 0 1440 1440;" xml:space="preserve">
<style type="text/css">
	.st0{fill:#B2E2F8;}
	.st1{fill:#FFFFFF;stroke:#FFFFFF;stroke-miterlimit:10;}
	.st2{fill:#FFFFFF;}
	.st3{opacity:0.3;fill:#B2E2F8;}
	.st4{fill:#514F50;}
	.st5{fill:#E0F4FC;}
	.st6{fill:#57C0F0;}
	.st7{fill:#00A0E9;}
	.st8{clip-path:url(#SVGID_2_);}
	.st9{fill:#FFAF9B;}
	.st10{fill:#FFCFBA;}
	.st11{fill:#505050;}
	.st12{fill:#E7EFF9;}
	.st13{fill:#C9DCF1;}
	.st14{fill:#8BB9E3;}
	.st15{fill:#F76E57;}
	.st16{fill:#CEDFF3;}
	.st17{clip-path:url(#SVGID_4_);fill:#FFFFFF;}
	.st18{clip-path:url(#SVGID_4_);}
	.st19{fill:#9DC3E7;}
	.st20{fill:#B5D1ED;}
	.st21{clip-path:url(#SVGID_6_);fill:#FFFFFF;}
	.st22{clip-path:url(#SVGID_6_);}
	.st23{fill:none;stroke:#B2E2F8;stroke-miterlimit:10;}
	.st24{clip-path:url(#SVGID_8_);}
	.st25{clip-path:url(#SVGID_10_);fill:#FFFFFF;}
	.st26{clip-path:url(#SVGID_10_);}
	.st27{clip-path:url(#SVGID_12_);fill:#FFFFFF;}
	.st28{clip-path:url(#SVGID_12_);}
	.st29{clip-path:url(#SVGID_14_);}
	.st30{clip-path:url(#SVGID_16_);}
</style>
<g>
	<path class="st2" d="M416.2,799.2L416.2,799.2c-1.3,1.3-3.4,1.3-4.7,0l0,0c-1.3-1.3-1.3-3.4,0-4.7l0,0c1.3-1.3,3.4-1.3,4.7,0
		C417.5,795.8,417.5,797.9,416.2,799.2z M404.4,787.4L404.4,787.4c-1.3,1.3-3.4,1.3-4.7,0l0,0c-1.3-1.3-1.3-3.4,0-4.7l0,0
		c1.3-1.3,3.4-1.3,4.7,0C405.7,784,405.7,786.1,404.4,787.4z M392.7,775.7L392.7,775.7c-1.3,1.3-3.4,1.3-4.7,0l0,0
		c-1.3-1.3-1.3-3.4,0-4.7l0,0c1.3-1.3,3.4-1.3,4.7,0C394,772.3,394,774.4,392.7,775.7z M380.9,764L380.9,764c-1.3,1.3-3.4,1.3-4.7,0
		l0,0c-1.3-1.3-1.3-3.4,0-4.7l0,0c1.3-1.3,3.4-1.3,4.7,0C382.2,760.6,382.2,762.7,380.9,764z M369.2,752.2L369.2,752.2
		c-1.3,1.3-3.4,1.3-4.7,0l0,0c-1.3-1.3-1.3-3.4,0-4.7l0,0c1.3-1.3,3.4-1.3,4.7,0C370.5,748.8,370.5,750.9,369.2,752.2z M357.5,740.5
		L357.5,740.5c-1.3,1.3-3.4,1.3-4.7,0l0,0c-1.3-1.3-1.3-3.4,0-4.7l0,0c1.3-1.3,3.4-1.3,4.7,0C358.8,737.1,358.8,739.2,357.5,740.5z
		 M345.7,728.7L345.7,728.7c-1.3,1.3-3.4,1.3-4.7,0l0,0c-1.3-1.3-1.3-3.4,0-4.7l0,0c1.3-1.3,3.4-1.3,4.7,0
		C347,725.3,347,727.4,345.7,728.7z M334,717L334,717c-1.3,1.3-3.4,1.3-4.7,0l0,0c-1.3-1.3-1.3-3.4,0-4.7l0,0c1.3-1.3,3.4-1.3,4.7,0
		C335.3,713.6,335.3,715.7,334,717z M322.2,705.3L322.2,705.3c-1.3,1.3-3.4,1.3-4.7,0l0,0c-1.3-1.3-1.3-3.4,0-4.7l0,0
		c1.3-1.3,3.4-1.3,4.7,0C323.5,701.9,323.5,704,322.2,705.3z M310.5,693.5L310.5,693.5c-1.3,1.3-3.4,1.3-4.7,0l0,0
		c-1.3-1.3-1.3-3.4,0-4.7l0,0c1.3-1.3,3.4-1.3,4.7,0S311.8,692.2,310.5,693.5z M298.8,681.8L298.8,681.8c-1.3,1.3-3.4,1.3-4.7,0l0,0
		c-1.3-1.3-1.3-3.4,0-4.7l0,0c1.3-1.3,3.4-1.3,4.7,0C300.1,678.4,300.1,680.5,298.8,681.8z"/>
</g>
</svg>
