<?xml version="1.0" encoding="utf-8"?>
<!-- Generator: Adobe Illustrator 24.1.3, SVG Export Plug-In . SVG Version: 6.00 Build 0)  -->
<svg version="1.1" id="レイヤー_1" xmlns="http://www.w3.org/2000/svg" xmlns:xlink="http://www.w3.org/1999/xlink" x="0px"
	 y="0px" viewBox="0 0 1440 1440" style="enable-background:new 0 0 1440 1440;" xml:space="preserve">
<style type="text/css">
	.st0{fill:#B2E2F8;}
	.st1{fill:#FFFFFF;stroke:#FFFFFF;stroke-miterlimit:10;}
	.st2{fill:#FFFFFF;}
	.st3{opacity:0.3;fill:#B2E2F8;}
	.st4{fill:#514F50;}
	.st5{fill:#E0F4FC;}
	.st6{fill:#57C0F0;}
	.st7{fill:#00A0E9;}
	.st8{clip-path:url(#SVGID_2_);}
	.st9{fill:#FFAF9B;}
	.st10{fill:#FFCFBA;}
	.st11{fill:#505050;}
	.st12{fill:#E7EFF9;}
	.st13{fill:#C9DCF1;}
	.st14{fill:#8BB9E3;}
	.st15{fill:#F76E57;}
	.st16{fill:#CEDFF3;}
	.st17{clip-path:url(#SVGID_4_);fill:#FFFFFF;}
	.st18{clip-path:url(#SVGID_4_);}
	.st19{fill:#9DC3E7;}
	.st20{fill:#B5D1ED;}
	.st21{clip-path:url(#SVGID_6_);fill:#FFFFFF;}
	.st22{clip-path:url(#SVGID_6_);}
	.st23{fill:none;stroke:#B2E2F8;stroke-miterlimit:10;}
	.st24{clip-path:url(#SVGID_8_);}
	.st25{clip-path:url(#SVGID_10_);fill:#FFFFFF;}
	.st26{clip-path:url(#SVGID_10_);}
	.st27{clip-path:url(#SVGID_12_);fill:#FFFFFF;}
	.st28{clip-path:url(#SVGID_12_);}
	.st29{clip-path:url(#SVGID_14_);}
	.st30{clip-path:url(#SVGID_16_);}
</style>
<g>
	<defs>
		<circle id="SVGID_9_" cx="199.7" cy="502.4" r="179.7"/>
	</defs>
	<clipPath id="SVGID_2_">
		<use xlink:href="#SVGID_9_"  style="overflow:visible;"/>
	</clipPath>
	<circle style="clip-path:url(#SVGID_2_);fill:#FFFFFF;" cx="199.7" cy="502.4" r="179.7"/>
	<g class="st8">
		<polygon class="st11" points="194,559.8 193.4,557.9 193.6,555.9 194,554 193,552.1 193.3,550.2 193,548.3 192.9,546.4 
			192.6,544.5 192.7,542.6 192.5,540.7 192.5,538.7 191.8,536.9 192.3,534.9 191.8,533 191.6,531.1 191.8,529.2 191.5,527.3 
			192.2,525.3 191.3,523.4 191.1,521.5 191.5,519.6 191.3,517.7 190.6,515.8 190.6,513.9 190.8,511.9 190.4,510.2 188.7,509.7 
			187,508.9 185.1,508.4 183.3,507.8 181.3,507.9 179.5,507.2 177.6,506.7 176,505.4 174.1,505 172.3,504.3 170.3,504.1 
			168.4,503.9 166.6,503.4 164.7,502.9 162.9,502.1 161.1,501.6 159.2,500.9 157.4,500.3 155.6,499.8 153.6,499.8 151.7,499.4 
			149.9,498.6 147.9,498.5 146.1,497.8 144.3,497.2 142.5,496.2 142.5,496.3 140.5,496 138.6,496.4 136.6,496.5 134.9,497.9 
			132.7,497.4 130.8,497.9 129,498.7 127.1,499.4 125.8,501.1 123.7,501.4 122.1,502.5 120.7,504 119.2,505.2 117.8,506.6 
			116.3,507.8 114.9,509.2 113.5,510.5 112.1,512 111.8,514.1 110.5,515.6 109.4,517.2 108.5,519 108.3,521 107.4,522.8 
			106.9,524.7 106.2,526.5 106,528.4 106,530.3 105.5,532.2 106.4,534.2 105.6,536.1 105.9,538 106,539.9 105.7,541.8 105.8,543.7 
			105.5,545.6 105,547.5 105.5,549.4 104.8,551.2 104.3,553.1 104.8,555.1 104.2,557 103.3,558.8 102.1,560.3 101.1,562 
			100.6,563.9 99.2,565.3 98,566.8 96.6,568.1 95.4,569.6 94,570.9 92.9,572.5 91.4,573.8 89.8,574.9 88.1,575.8 86.4,576.8 
			84.3,576.8 82.5,577.5 80.7,578.4 78.7,578.2 76.7,579 74.8,578.5 72.9,578 71,577.2 69,577.2 67.1,576.5 65.3,575.9 63.7,574.4 
			62,573.7 59.8,573.5 58.2,572.3 56.3,571.8 54.7,570.5 52.9,569 53.5,571.2 53.8,573 54.2,574.8 54.7,576.6 55.6,578.3 
			55.9,580.2 56.9,581.8 58.5,583 59.2,584.8 60.2,586.3 61.8,587.3 63,588.7 64.1,590.3 66.1,590.6 67.5,591.8 69.3,592.5 71,593 
			72.9,593.4 74.3,594.6 76.2,595.2 78.2,595 80.1,595.4 82,595 83.9,595.2 85.8,595.5 87.8,595.3 89.7,595.3 91.6,595.6 
			93.6,595.1 95.5,596 97.4,595.3 99.3,595.4 101.3,595.4 103.2,595.5 105.1,596.5 107,596.2 108.9,596.2 110.8,596.5 112.8,596.2 
			114.7,596 116.6,596.8 118.6,596.2 120.5,596.4 122.4,596.7 124.3,597.2 126.2,596.8 128.2,597 130.1,597.1 132,597.6 
			133.9,597.2 135.8,597.6 137.8,597 139.7,597.4 141.7,597.1 143.6,597.7 145.5,597.3 147.4,597.7 149.3,597.3 150.8,596.2 
			152.1,594.7 153.6,593.5 155.4,592.8 156.5,591.1 158.6,590.7 159.6,588.9 161.4,588.2 163.3,587.6 164.7,586.3 166.2,585.1 
			167.7,583.9 169.2,582.8 170.5,581.3 172.1,580.2 174.2,579.9 175.6,578.7 177.3,577.7 178.9,576.7 180.1,575.1 181.5,573.8 
			183.1,572.7 185.2,572.4 186.3,570.7 188.2,570.1 189.6,568.9 191.4,568.1 192.7,566.6 193.9,565.4 194.6,563.6 194.5,561.6 		"/>
		<polygon class="st19" points="349.5,711.9 349.8,710 349.8,708 349.3,706.1 348.8,704.1 349.7,702.2 349.8,700.3 349.2,698.3 
			349.7,696.4 349.9,694.5 348.9,692.5 349.5,690.6 349.9,688.6 349.4,686.7 349.4,684.8 348.9,682.8 348.9,680.9 349.8,679 
			349.8,677 348.8,675.1 349.5,673.2 349.4,671.2 349.7,669.3 349.4,667.4 348.8,665.4 349.7,663.5 349,661.6 349.5,659.6 
			349,657.7 349.2,655.7 348.9,653.8 348.9,651.9 349.5,649.9 349.3,648 349.3,646.1 348.8,644.1 349.2,642.2 349.1,640.3 
			349,638.3 349.4,636.4 348.8,634.6 348.9,632.7 348.5,630.8 349.3,628.8 348.3,627 347.5,625.2 347.1,623.4 346.4,621.6 
			346,619.8 345.6,617.9 345.3,615.9 343.6,614.6 342.6,613 341.9,611.2 341.3,609.3 340.2,607.8 339.3,606 338.1,604.5 
			336.5,603.3 334.9,602.2 333.6,600.9 332.3,599.4 331.2,597.8 329.9,596.4 328.4,595.2 326.5,594.6 325.1,593.1 323.4,592.2 
			321.5,591.7 320.3,590 318.4,589.5 316.5,589.1 315.1,587.5 313.3,586.8 311.6,586 309.6,585.8 308,584.6 306.1,584.2 
			304.3,583.6 302.5,583 300.7,582.4 299,581.5 297.2,580.9 295.1,580.9 293.3,580.2 291.7,579 289.7,579 287.9,578.4 286.1,577.5 
			284.3,576.8 282.4,576.6 280.6,576.1 278.9,575.1 276.9,574.8 275.2,573.9 273.5,572.9 271.5,572.8 269.6,572.6 267.9,571.6 
			266.1,571.2 264.4,570 262.4,570.2 260.6,569.5 258.8,568.6 256.8,568.8 255.1,567.8 253.4,566.9 251.4,566.7 249.7,565.8 
			247.6,566 246,564.7 244.3,563.9 242.3,563.9 240.4,563.7 238.7,562.4 236.7,562.6 234.9,562.1 233.1,561.3 231.2,561.4 
			229.3,561.4 227.4,561.4 225.5,561 223.6,561 221.7,561.1 219.8,561.4 217.9,561.4 216,561.4 214.1,561.1 212.2,561.9 
			210.3,561.7 208.4,561.8 206.5,561.6 204.6,561.8 202.7,561.7 200.8,561.3 198.9,561.8 197,561.6 195.1,561.2 193.2,561.1 
			191.3,561.1 189.4,561.1 187.5,562.1 185.6,561.2 183.7,561.7 181.8,561.6 179.9,561.7 178,561.6 176.1,562 174.2,561.9 
			172.3,562.1 170.3,561.8 168.5,562.3 166.5,561.7 164.6,561.4 162.7,561.7 160.8,561.5 158.9,561.7 157.3,563 155.4,563.5 
			153.5,563.6 151.5,563.8 149.8,564.7 147.8,565 146.2,566.2 144.3,566.7 142.3,566.8 140.7,568 138.9,568.7 137.2,569.5 
			135,569.2 133.2,569.8 131.5,571 129.9,572 128,572.6 126,572.6 124.3,573.7 122.4,574.1 120.5,574.5 118.9,575.6 117,576.1 
			115,576.2 113.3,577.1 111.5,577.7 109.8,578.7 108,579.5 106,579.6 104.4,580.7 102.3,580.7 100.6,581.7 98.8,582.3 96.8,582.5 
			95,583.2 93.2,583.8 91.7,585.3 89.6,585.2 88.1,586.5 86,586.6 84.5,587.9 82.6,588.3 81,589.4 79.2,590.2 77.5,590.9 76,592.2 
			74.6,593.6 73.2,594.9 71,595.2 69.7,596.6 68.6,598.3 67,599.3 65.5,600.5 64.2,601.9 62.5,603 61.4,604.5 60.2,606.1 
			59.5,607.9 58.4,609.5 57,610.9 56.4,612.7 55.8,614.5 54.9,616.2 53.8,617.8 53.5,619.7 52,621.3 51.7,623.2 51.8,625.2 
			50.7,626.9 50.3,628.8 51,630.8 50.1,632.6 50.6,634.5 49.8,636.4 50.4,638.3 50.2,640.3 50.7,642.2 50.3,644.1 49.6,646.1 
			50.1,648 50.3,650 50.6,651.9 50.2,653.8 50.2,655.8 50.2,657.7 50.3,659.7 50.6,661.6 49.7,663.5 49.6,665.5 50.2,667.4 
			50.1,669.3 50,671.3 50.2,673.2 50,675.1 50.5,677.1 50.2,679 50.6,680.9 50.2,682.9 50,684.8 49.6,686.8 50.6,688.7 50.2,690.6 
			50.6,692.6 49.9,694.5 50.3,696.4 49.6,698.4 49.6,700.3 50.4,702.2 50,704.2 50.5,706.1 50.1,708 50.2,710 50.2,711.9 
			50.3,713.9 50,715.8 49.8,717.7 349.8,717.7 349.7,715.8 349.9,713.8 		"/>
		<polygon class="st2" points="251.7,572.1 249.8,571.8 247.9,572 246,571.9 244,572.2 242.1,571.7 240.2,572.1 238.3,572.2 
			236.4,572 234.5,572.2 232.6,572 230.7,572.1 228.7,571.6 226.8,572.3 224.9,572.3 223,572.2 221.1,571.9 219.2,572.3 
			217.3,571.2 215.4,571.8 213.5,572.1 211.6,571.5 209.6,571.6 207.7,571.7 205.8,571.4 203.9,571.4 202,571.1 200.1,572 
			198.2,571.8 196.3,572.1 194.4,571.9 192.5,571.6 190.5,571.3 188.6,571.2 186.7,571 184.8,571.4 182.9,572 181,571.1 
			179.1,571.2 177.2,571.6 175.3,571.1 173.4,570.9 171.5,571.5 169.5,571.8 167.6,571.9 165.7,571.4 163.8,571.7 161.9,571 
			160,571.2 158.1,571.7 156.2,571.9 154.3,571.7 152.4,571 150.5,571.3 148.6,571.7 146.6,571.6 144.7,571.2 143,571.4 
			143.4,573.1 142.9,575.1 144.2,576.8 144.4,578.8 144.2,580.7 144.6,582.6 144.8,584.5 144.9,586.4 145.5,588.3 145.8,590.1 
			146.4,592 146,594 146.2,595.9 146.9,597.7 147.1,599.6 147.4,601.5 147.7,603.4 148.4,605.2 148.8,607.1 148.8,609 148.8,611 
			149.2,612.8 149.9,614.7 149.9,616.6 150.5,618.4 150.8,620.3 150.9,622.2 150.9,624.2 150.9,626.1 151.6,627.9 152.2,629.8 
			151.5,631.8 152.2,633.6 152.3,635.6 153,637.4 153.3,639.3 154,641.1 153.7,643.1 153.8,645 154.7,646.8 155.2,648.6 
			155.3,650.6 154.9,652.6 155.4,654.4 156.1,656.2 156.3,658.1 156.3,660.1 157,661.9 157,663.8 157.2,665.7 157.2,667.7 
			158,669.5 158.1,671.4 158.8,673.2 158.4,675.2 159.3,677 159.1,679 159.1,680.9 159.8,682.7 159.7,684.6 160.8,686.4 
			161.1,688.3 160.5,690.3 161.8,692 162.2,693.9 162.3,695.8 162.7,697.7 162.3,699.7 162.7,701.6 162.8,703.5 163.7,705.3 
			163.7,707.2 163.8,709.1 164.5,710.9 164.3,712.9 164.3,714.8 164.8,716.7 165.4,718.5 228.8,718.4 229.4,716.6 229.6,714.7 
			229.9,712.8 230.8,711 230.9,709.1 231.6,707.3 231.5,705.3 232.1,703.5 232.3,701.6 232.4,699.6 233.2,697.8 233.3,695.9 
			233.8,694.1 234.5,692.2 233.9,690.2 234.6,688.4 235.2,686.6 235.8,684.7 235.6,682.7 235.6,680.8 235.9,678.9 237.1,677.2 
			237.3,675.3 237,673.3 237.7,671.5 237.9,669.6 238.6,667.8 238.9,665.9 239.1,664 238.9,662 240,660.3 240.5,658.4 240.1,656.4 
			240.3,654.5 241,652.7 241.6,650.8 241.6,648.9 241.9,647 242.6,645.2 242.4,643.2 243.4,641.5 243.2,639.5 244.3,637.8 
			243.7,635.7 244.2,633.9 244.8,632 245.3,630.2 245.9,628.3 245.8,626.4 246.2,624.5 246.6,622.7 246.6,620.7 247.7,619 
			247.3,617 247.6,615.1 248.1,613.2 247.9,611.3 248.3,609.4 248.9,607.6 249.2,605.7 250.3,604 249.8,601.9 250.6,600.1 
			251.1,598.3 251.5,596.4 251.3,594.5 252.2,592.7 251.7,590.6 252.3,588.8 253,587 253,585.1 253.4,583.2 254.2,581.4 
			254.4,579.5 254.3,577.6 254.9,575.7 254.9,573.8 255.3,572.2 253.6,572.2 		"/>
		<path class="st9" d="M233.7,546.4c0-1,0.4-1,0.3-2.1c0-1,0.1-1,0.1-2.1c0-1-0.4-1-0.4-2.1c0-1,0.1-1,0.1-2.1c0-1,0.5-1,0.5-2.1
			c0-1-0.4-1-0.4-2.1c0-1-0.6-1-0.6-2.1c0-1,0.2-1,0.2-2.1c0-1,0-1,0-2.1c0-1,0.3-1,0.2-2.1c0-1,0.6-1.4-0.1-2.1
			c-0.7-0.7-1-0.1-2-0.1c-1,0-1-0.2-2-0.2c-1,0-1,0.2-2,0.2c-1,0-1-0.3-2-0.3c-1,0-1,0.8-2,0.8c-1,0-1-0.2-2-0.2c-1,0-1-0.2-2-0.2
			c-1,0-1,0.4-2,0.4c-1,0-1-0.2-2-0.2c-1,0-1-0.1-2-0.1c-1,0-1,0.3-2,0.3c-1,0-1-0.3-2-0.3c-1,0-1,0.4-2,0.4c-1,0-1-0.1-2-0.1
			c-1,0-1-0.8-2-0.8c-1,0-1,0.7-2,0.7c-1,0-1-0.6-2-0.6c-1,0-1,0.1-2,0.1c-1,0-1,0.5-2,0.5c-1,0-1-0.6-2-0.6c-1,0-1,1-2,1
			c-1,0-1-0.8-2-0.8c-1,0-1,0.7-2,0.7c-1,0-1-0.7-2-0.7c-1,0-1-0.2-2-0.2c-1,0-1,0.5-2,0.5c-1,0-1-0.4-2-0.4c-1,0-1-0.1-2-0.1
			c-1,0-1-0.2-2-0.2c-1,0-1,0.9-2,0.9c-1,0-1-0.6-2-0.6c-1,0-1,0.7-2,0.7c-1,0-1-0.5-2-0.5c-1,0-1-0.4-2-0.4c-1,0-1.1-0.1-1.8,0.7
			c-0.7,0.8-0.7,0.8-0.7,1.8c0,1.1,0.8,1.1,0.8,2.1c0,1.1-0.4,1-0.4,2.1c0,1.1-0.5,1-0.5,2.1c0,1,0.3,1.1,0.3,2.1
			c0,1.1,0.2,1.1,0.2,2.1c0,1.1-0.4,1.1-0.4,2.1c0,1.1-0.1,1.1-0.1,2.1c0,1.1,0,1.1,0,2.1c0,1.1,0.4,1.1,0.4,2.1
			c0,1.1-0.2,1.1,0,2.1c0.5,0.5,1.3,0.5,1.9,0.9c0.5,0.4,0.6,1.3,1.2,1.7c0.5,0.4,1.3,0.5,1.8,0.9c0.6,0.4,1,0.8,1.6,1.2
			c0.6,0.4,0.9,1.1,1.5,1.5c0.6,0.3,1.3,0.5,1.9,0.8c0.6,0.3,1.1,0.9,1.7,1.2c0.6,0.3,1.6-0.3,2.2,0c0.6,0.3,1.2,0.6,1.8,0.8
			c0.6,0.2,1.1,0.9,1.7,1.1c0.6,0.2,1.3,0.4,1.9,0.7c0.6,0.2,1.2,0.7,1.8,0.9c0.6,0.2,1.3,0.3,2,0.4c0.7,0.2,1.4-0.3,2.1-0.2
			c0.7,0.1,1.3,0.1,2,0.3c0.7,0.1,1.2,1.1,1.8,1.2c0.7,0.1,1.4-0.2,2.1-0.1c0.7,0.1,1.3,0.1,2,0.2c0.7,0.1,1.3,0.1,2,0.2
			c0.7,0.1,1.3,0.6,2,0.7c0.7,0,1.4,0,2,0.1c0.7,0,1.4-0.1,2-0.1c0.7,0,1.3-0.2,2-0.2c0.7,0,1.3-0.3,2-0.3c0.7,0,1.4,0.3,2,0.3
			c0.7,0,1.4-0.5,2.1-0.6c0.7-0.1,1.4,0.1,2.1,0c0.7-0.1,1.4-0.1,2.1-0.3c0.7-0.2,1.5,0,2.1-0.2c0.7-0.2,1.2-0.8,1.9-1
			c0.7-0.2,1.4-0.2,2.1-0.4c0.7-0.3,1.5-0.2,2.1-0.5c0.6-0.3,1-1.2,1.7-1.5c0.6-0.3,1.1-0.9,1.7-1.3c0.6-0.4,1.3-0.6,1.9-0.9
			c0.6-0.4,1.2-0.7,1.8-1.1c0.6-0.4,0.9-1.1,1.4-1.6c0.6-0.4,1.8-0.4,2.4-0.9c0.2-1-0.6-1.1-0.7-2.1
			C233.9,547.4,233.7,547.4,233.7,546.4z"/>
		<path class="st10" d="M252.8,571.6c-0.9-0.4-0.7-0.9-1.6-1.3c-0.9-0.4-1.1,0.1-2-0.3c-0.9-0.4-0.8-0.7-1.7-1.1
			c-0.9-0.4-0.8-0.6-1.7-1c-0.9-0.4-0.8-0.7-1.7-1.1c-0.9-0.4-1-0.3-1.9-0.7c-0.9-0.4-1.1,0.1-2-0.3c-0.9-0.4-1.1,0-2-0.4
			c-0.9-0.4-0.8-0.7-1.7-0.9c-0.9-0.3-1-0.3-1.6-1.2c-0.6-0.9,0.3-1,0.3-2.1c0-1.1-1.1-1.1-1.1-2.1c0-1.1,0.7-1.1,0.7-2.2
			c0-1.1-0.3-1.1-0.3-2.2c0-1.1,0.3-1.1,0.3-2.2c0-1.1,0.2-1.2-0.1-2.2c-0.5,0.5-1.6,0.5-2.2,1c-0.6,0.4-0.6,1.6-1.2,2
			c-0.6,0.4-1.2,0.8-1.8,1.2c-0.6,0.4-1.2,0.8-1.8,1.2c-0.6,0.4-1.5,0.2-2.1,0.5c-0.6,0.3-1.1,0.9-1.8,1.2c-0.6,0.3-1.3,0.6-1.9,0.9
			c-0.7,0.3-1.5,0-2.2,0.2c-0.7,0.2-1.4,0.3-2,0.5c-0.7,0.2-1.2,0.9-1.9,1.1c-0.7,0.2-1.4,0.1-2.1,0.2c-0.7,0.1-1.3,0.7-2,0.7
			c-0.7,0.1-1.4,0.1-2.1,0.2c-0.7,0-1.3,0.1-2,0.1c-0.7,0-1.4-0.4-2-0.4c-0.7,0-1.3,0.2-2,0.2c-0.7,0-1.3-0.7-2-0.7
			c-0.7,0-1.4,0.5-2,0.5c-0.7,0-1.4,0.3-2,0.2c-0.7-0.1-1.3-0.7-2-0.8c-0.7-0.1-1.3-0.2-2-0.3c-0.7-0.1-1.4,0-2-0.1
			c-0.7-0.1-1.4,0-2-0.1c-0.7-0.1-1.2-0.8-1.9-0.9c-0.7-0.1-1.2-0.7-1.9-0.8c-0.7-0.2-1.4,0.1-2.1-0.1c-0.6-0.2-1.5,0.2-2.1,0
			c-0.6-0.2-1-1.4-1.6-1.6c-0.6-0.2-1.5,0.2-2.1-0.1c-0.6-0.2-1.1-0.9-1.7-1.1c-0.6-0.3-1.1-0.7-1.7-1c-0.6-0.3-1.5,0-2.1-0.3
			c-0.6-0.3-1.1-0.9-1.6-1.2c-0.6-0.3-1-0.9-1.6-1.3c-0.6-0.4-1.5-0.2-2.1-0.5c-0.6-0.4-0.6-1.4-1.2-1.8c-0.5-0.4-1.6-0.2-2.1-0.6
			c-0.5-0.4-0.2-1.1-0.7-1.6c-0.3,1-0.5,0.9-0.5,2c0,1.1,0.1,1.1,0.1,2.1c0,1.1-0.2,1.1-0.2,2.1c0,1.1,0.3,1.1,0.3,2.2
			c0,1.1,0,1.1,0,2.1c0,1.1-0.7,1.1-0.7,2.1c0,1.1,0,1.1,0,2.2c0,1.1,0.9,1.1,0.3,2c-0.6,0.8-0.7,0.5-1.7,0.8
			c-0.9,0.3-1,0.3-1.9,0.6c-0.9,0.3-0.9,0.3-1.9,0.7c-0.9,0.3-0.8,0.7-1.8,1c-0.9,0.3-0.9,0.5-1.8,0.8c-0.9,0.3-1.2-0.4-2.1-0.1
			c-0.9,0.3-1.1,0-2,0.3c-0.9,0.3-0.6,1.3-1.6,1.6c-0.9,0.3-1.1,0-2,0.3c-0.9,0.3-0.8,0.8-1.7,1.1c-0.9,0.3-1.1-0.2-1.9,0.4
			c-0.8,0.7,0.3,0.2,1.3,1.1c0.4,0.4,0.8,0.9,1.4,1.5c0.4,0.4,1.3,0.5,1.9,1c0.5,0.4,0.7,1.2,1.2,1.7c0.5,0.4,1,0.9,1.5,1.4
			c0.5,0.4,0.8,1.1,1.3,1.6c0.5,0.4,0.8,1.1,1.3,1.6c0.5,0.4,1.2,0.7,1.7,1.2c0.5,0.4,1.3,0.6,1.8,1c0.5,0.4,0.6,1.4,1.1,1.8
			c0.5,0.4,1,0.9,1.6,1.3c0.5,0.4,1.1,0.8,1.6,1.2c0.5,0.4,1,0.9,1.6,1.3c0.5,0.4,1.1,0.9,1.6,1.3c0.5,0.4,1.1,0.8,1.7,1.2
			c0.5,0.4,1.6,0.1,2.2,0.5c0.5,0.4,0.4,1.7,1,2.1c0.5,0.4,1.2,0.7,1.8,1.1c0.5,0.4,1,0.9,1.6,1.3c0.6,0.4,1.6,0,2.2,0.4
			c0.6,0.4,1,1,1.5,1.3c0.6,0.4,0.9,1.1,1.5,1.5c0.6,0.4,1.5,0.2,2.1,0.6c0.6,0.4,1.1,0.8,1.7,1.1c0.6,0.4,1.2,0.6,1.8,0.9
			c0.6,0.3,1.1,0.7,1.7,1c0.6,0.3,1.1,0.8,1.7,1.1c0.6,0.3,1.1,0.8,1.7,1.1c0.6,0.3,1.1,0.8,1.7,1.1c0.6,0.3,1.3,0.3,2,0.6
			c0.7,0.2,1.2,0.7,1.9,0.9c0.7,0.2,1.3,0.3,2,0.5c0.7,0.2,1.4-0.3,2.1-0.2c0.7,0.1,1.3,0,2,0c0.7,0,1.3,0,2-0.1
			c0.7-0.1,1.4,0.4,2.1,0.2c0.7-0.1,1.2-0.9,1.8-1.1c0.6-0.2,1.6,0.4,2.2,0.1c0.6-0.2,1.3-0.4,2-0.7c0.6-0.3,1-1.1,1.6-1.4
			c0.6-0.3,1.3-0.5,1.9-0.9c0.6-0.3,1.5-0.1,2.1-0.4c0.6-0.3,1.2-0.8,1.8-1.1c0.6-0.3,1.1-0.9,1.7-1.3c0.6-0.4,1-1,1.6-1.4
			c0.6-0.4,1.5-0.3,2.1-0.6c0.6-0.4,0.8-1.3,1.4-1.7c0.6-0.4,1.5-0.3,2.1-0.7c0.6-0.4,1-1,1.5-1.4c0.6-0.4,0.9-1.1,1.5-1.5
			c0.6-0.4,1.4-0.5,1.9-0.9c0.6-0.4,1.4-0.5,1.9-0.9c0.6-0.4,0.7-1.4,1.3-1.8c0.6-0.4,1.6-0.2,2.1-0.7c0.6-0.4,0.7-1.3,1.3-1.8
			c0.5-0.4,1.1-0.8,1.7-1.3c0.5-0.4,1.4-0.5,1.9-1c0.5-0.4,0.7-1.3,1.2-1.8c0.5-0.5,1.1-0.9,1.6-1.3c0.5-0.5,0.9-1.2,1.4-1.6
			c0.5-0.5,1.6-0.3,2.1-0.7c0.5-0.5,0.7-1.4,1.2-1.8c0.5-0.5,1.4-0.6,1.9-1c0.5-0.5,1-1.1,1.4-1.5c0.6-0.5,1.4-0.6,1.9-1
			c0.6-0.5,0.5-1.6,1-2c1-0.9,2.7-0.8,2-1.5C254.3,571,253.7,572,252.8,571.6z"/>
		<g>
			<path class="st20" d="M283.1,616.4c0,0.1,0,0.2,0,0.4c0,0,0,0.1,0.1,0.1C283.3,617.2,283.1,615.7,283.1,616.4z"/>
			<path class="st20" d="M284.5,622.8c0,0.1,0.1,0.2,0.1,0.2C284.5,622.8,284.5,622.5,284.5,622.8z"/>
			<path class="st20" d="M282.5,615.5c0,0.1,0.1,0.2,0.2,0.3c0,0,0,0,0,0C282.7,615.7,282.6,615.6,282.5,615.5z"/>
			<path class="st20" d="M287.1,627.3c-0.3-0.7-0.6-1.4-0.9-2.1c0,0.4-0.1,0.8-0.1,1.1C286.4,626.6,286.8,627,287.1,627.3z"/>
			<path class="st20" d="M272.1,648.1C272.1,648.1,272.1,648.1,272.1,648.1c0,0-0.1,0-0.2,0c-0.1,0-0.2,0-0.3,0c0,0,0,0,0,0
				C271.3,648.4,271.8,648.2,272.1,648.1z"/>
			<path class="st20" d="M272.1,648.1C272.1,648.1,272.1,648.1,272.1,648.1c0,0,0.1,0,0.1,0C272.2,648.1,272.2,648.1,272.1,648.1z"
				/>
			<path class="st20" d="M277.4,645.3c-0.1,0.1-0.2,0.2-0.3,0.3C276.6,646,277.8,645.2,277.4,645.3z"/>
			<path class="st20" d="M276.3,645.9C276.3,645.9,276.3,645.9,276.3,645.9c-0.1,0.1-0.2,0.1-0.3,0.2
				C275.5,646.3,276.9,645.8,276.3,645.9z"/>
			<path class="st20" d="M272.2,648.1c0,0-0.1,0-0.1,0c-0.1,0.1-0.1,0.1-0.2,0.2c0.4-0.3,0.9-0.5,1.3-0.8c-0.2,0.1-0.5,0.2-0.7,0.2
				c-0.1,0.1-0.2,0.2-0.3,0.3C272.2,648.1,272.2,648.1,272.2,648.1z"/>
			<path class="st20" d="M272.1,648.1c0.1-0.1,0.2-0.2,0.3-0.3c-0.3,0.1-0.6,0.2-0.8,0.3c0.1,0,0.2,0,0.3,0
				C272,648.1,272,648.1,272.1,648.1z"/>
			<path class="st20" d="M284.8,641.5C284.8,641.5,284.7,641.5,284.8,641.5c-0.2,0.1-0.4,0.2-0.5,0.2
				C283.9,642,285.2,641.5,284.8,641.5z"/>
			<path class="st20" d="M281.5,643.1c-0.2,0.1-0.4,0.2-0.7,0.2c-0.2,0.2-0.4,0.4-0.7,0.5C280.6,643.6,281,643.4,281.5,643.1z"/>
			<path class="st20" d="M290.8,640.5c0.7-1.2,1.4-2.5,2.1-3.7c-0.6,0.2-1.1,0.4-1.7,0.6c-0.4,0.2-0.8,0.4-1.2,0.7
				c0.1,0.2,0.1,0.4,0.2,0.6C290.4,639.3,290.6,639.9,290.8,640.5z"/>
			<path class="st20" d="M289.7,637c0,0,0,0.1,0,0.1c0.1,0.1,0.1,0.3,0.2,0.4C290.1,638,289.6,636.6,289.7,637z"/>
			<path class="st20" d="M288.8,639C288.8,639.1,288.8,639.1,288.8,639c-0.1,0.1-0.1,0.1-0.2,0.1C288,639.8,289.4,638.8,288.8,639z"
				/>
			<path class="st20" d="M288.4,633.4c0,0.1,0,0.1,0,0.2c0.1,0.1,0.1,0.2,0.2,0.3C288.9,634.3,288.3,633,288.4,633.4z"/>
			<path class="st20" d="M276.8,584.1c0-0.2,0-0.4,0-0.6c-0.2-0.3-0.3-0.6-0.5-0.9C276.5,583.1,276.6,583.6,276.8,584.1z"/>
			<path class="st20" d="M290.6,622.8c0-0.2-0.1-0.4-0.1-0.7c-0.2-0.2-0.4-0.4-0.7-0.7C290.1,622,290.4,622.4,290.6,622.8z"/>
			<path class="st20" d="M292,626.8C292.1,627.6,292,627,292,626.8C292.1,626.8,292.1,626.8,292,626.8c0.1-0.1,0.1-0.1,0-0.1
				C291.9,626.5,291.9,626.1,292,626.8z"/>
			<path class="st20" d="M289.1,618.6c0,0,0.3,1,0.2,0.5c0,0,0,0,0,0c0,0,0-0.1-0.1-0.1C289.2,618.8,289.2,618.7,289.1,618.6z"/>
			<path class="st20" d="M289.1,618.1c0,0,0-0.1,0-0.1c0-0.1,0-0.3-0.1-0.5C288.9,617.2,289.1,618.3,289.1,618.1z"/>
			<path class="st20" d="M293.2,629.8c0-0.1-0.1-0.2-0.1-0.4c0,0,0-0.1-0.1-0.1C292.9,629.3,293.4,630.3,293.2,629.8z"/>
			<path class="st20" d="M286.9,611.3c-0.1-0.1,0.2,0.8,0.2,0.5c0-0.1,0-0.1,0-0.2C287.1,611.5,287,611.4,286.9,611.3z"/>
			<path class="st20" d="M282.7,664.4C282.9,664.5,282.9,664.4,282.7,664.4L282.7,664.4z"/>
			<path class="st20" d="M276.3,652.1c0.2-0.1,0.4-0.1,0.6-0.2c0.2-0.2,0.5-0.4,0.7-0.6C277.1,651.6,276.7,651.8,276.3,652.1z"/>
			<path class="st20" d="M292.8,643.1c0.3-0.1,0.5-0.2,0.8-0.3c0.2-0.2,0.4-0.3,0.6-0.5C293.6,642.6,293.2,642.9,292.8,643.1z"/>
			<path class="st20" d="M284.8,608.3c0.1-0.4,0.2-0.9,0.3-1.4c-0.2-0.3-0.4-0.6-0.6-0.9C284.6,606.8,284.7,607.5,284.8,608.3z"/>
			<path class="st20" d="M281,611.7c0,0.1,0,0.1,0,0.2c0,0,0,0.1,0.1,0.1C281.1,611.9,281,611.8,281,611.7z"/>
			<path class="st20" d="M284.6,647.7c0.2,0,0.4-0.1,0.6-0.1c0.3-0.2,0.5-0.4,0.7-0.6C285.4,647.2,285,647.4,284.6,647.7z"/>
			<path class="st20" d="M281.3,649.5c0.2-0.1,0.4-0.1,0.7-0.2c0.2-0.2,0.4-0.4,0.7-0.6C282.2,649,281.7,649.3,281.3,649.5z"/>
			<path class="st20" d="M272.5,588.5c0.1,0.2,0.2,0.4,0.2,0.5C272.9,589.3,272.6,588.2,272.5,588.5z"/>
			<path class="st20" d="M274.6,593.7c0,0,0.1,0.2,0.3,0.6c0,0,0,0,0,0C274.8,594,274.7,593.9,274.6,593.7z"/>
			<path class="st20" d="M276.1,596.4c0,0.2,0,0.5,0,0.7c0.1,0.3,0.3,0.5,0.4,0.8C276.4,597.4,276.2,596.9,276.1,596.4z"/>
			<path class="st20" d="M277.2,600c0,0.3,0,0.6,0,0.9c0.1,0.2,0.3,0.4,0.4,0.6C277.4,601,277.3,600.5,277.2,600z"/>
			<path class="st20" d="M279.3,604.6c-0.1,0.6-0.2,1.3-0.3,1.9c0.4,0.3,0.7,0.7,1.1,1C279.8,606.5,279.6,605.5,279.3,604.6z"/>
			<path class="st20" d="M283.2,601.8c0-0.1,0-0.1,0-0.2c0-0.1,0-0.1,0-0.2C283,600.8,283.2,602.5,283.2,601.8z"/>
			<path class="st20" d="M282.1,598.4c0-0.3,0-0.6,0-0.9c-0.1-0.2-0.3-0.4-0.4-0.6C281.9,597.4,282,597.9,282.1,598.4z"/>
			<path class="st20" d="M283.6,603.1c-0.1-0.3-0.1-0.5-0.2-0.8c-0.2-0.2-0.4-0.4-0.6-0.5C283,602.2,283.3,602.7,283.6,603.1z"/>
			<path class="st20" d="M268.9,649.8c-0.5,0.1-1,0.1-1.5,0.2c-0.2,0.2-0.4,0.5-0.6,0.7C267.5,650.4,268.2,650.1,268.9,649.8z"/>
			<path class="st20" d="M278.3,588c0.1,0.1,0.2,0.2,0.2,0.3c0,0,0,0,0,0C278.5,588.1,278.4,588,278.3,588z"/>
			<path class="st20" d="M281.1,593.7c0-0.1-0.1-0.2-0.1-0.3c0,0,0-0.1-0.1-0.1C280.7,592.8,281.3,594.3,281.1,593.7z"/>
			<path class="st20" d="M294.6,633.4c0-0.1-0.1-0.1-0.1-0.2C294.1,632.4,294.6,633.8,294.6,633.4z"/>
			<path class="st20" d="M290.3,678.8c0.2-0.2,0.3-0.4,0.5-0.6c0.1-0.2,0.2-0.5,0.3-0.7C290.8,677.9,290.6,678.3,290.3,678.8z"/>
			<polygon class="st20" points="279.1,698.6 279.1,698.6 279.1,698.6 			"/>
			<path class="st20" d="M282.9,691.2c0.1-0.2,0.2-0.3,0.3-0.5c0-0.3,0-0.7,0.1-1C283.2,690.2,283.1,690.7,282.9,691.2z"/>
			<path class="st20" d="M276.9,701.4c0.1-0.1,0.1-0.1,0.2-0.2C277.2,700.8,276.4,702,276.9,701.4z"/>
			<path class="st20" d="M283.6,690.1c0,0,0.1-0.1,0.1-0.1c0.1-0.1,0.1-0.2,0.2-0.3C284.2,689.3,283.3,690.4,283.6,690.1z"/>
			<path class="st20" d="M287.5,683.6c0,0,0.1,0,0.1-0.1c0.1-0.1,0.1-0.2,0.2-0.3C288.1,682.7,287.2,683.8,287.5,683.6z"/>
			<path class="st20" d="M281,695.3c0.2-0.2,0.3-0.4,0.5-0.6c0.1-0.3,0.2-0.5,0.2-0.8C281.5,694.4,281.2,694.9,281,695.3z"/>
			<path class="st20" d="M266.6,708.2c0,0.1-0.1,0.2-0.1,0.3C266.1,709.2,266.7,708.1,266.6,708.2z"/>
			<path class="st20" d="M263.6,714.3c-0.2,0.2-0.5,0.5-0.7,0.7c0,0.2-0.1,0.4-0.1,0.6C263.1,715.2,263.4,714.7,263.6,714.3z"/>
			<path class="st20" d="M271.4,710.4c0.3-0.2,0.6-0.5,0.9-0.7c0.2-0.4,0.3-0.7,0.5-1.1C272.4,709.2,271.9,709.8,271.4,710.4z"/>
			<path class="st20" d="M275.2,704.2c0,0,0.1-0.2,0.2-0.3c0-0.1,0-0.2,0-0.2C275.5,703.4,275.3,704.2,275.2,704.2z"/>
			<path class="st20" d="M268.7,715.7c0.1-0.1,0.1-0.1,0.1-0.2c0,0,0,0,0,0C268.9,714.7,268.4,716.1,268.7,715.7z"/>
			<path class="st20" d="M277.7,655.8c-0.1-0.1-0.1-0.1-0.2-0.1C277.6,655.7,277.7,655.8,277.7,655.8
				C277.7,655.8,277.7,655.8,277.7,655.8z"/>
			<path class="st20" d="M269.5,654.5c-0.4,0.2-0.8,0.5-1.2,0.7c0.1,0.2,0.2,0.4,0.3,0.7C268.8,655.4,269.2,655,269.5,654.5z"/>
			<path class="st20" d="M270.2,654.2c0.5,0,1-0.1,1.5-0.1c0.2-0.3,0.4-0.5,0.6-0.8C271.6,653.6,270.9,653.9,270.2,654.2z"/>
			<path class="st20" d="M270.6,653.2c-0.2-0.1-0.4-0.3-0.6-0.4c-0.3,0-0.6,0-1,0C269.6,652.9,270.1,653,270.6,653.2z"/>
			<path class="st20" d="M293.3,672.6c0.4-0.3,0.8-0.6,1.3-0.9c0-0.3,0.1-0.6,0.1-0.9C294.2,671.4,293.8,672,293.3,672.6z"/>
			<path class="st20" d="M271,652.8c-0.3,0-0.7,0-1,0c0.2,0.1,0.4,0.3,0.6,0.4c-0.5-0.1-1-0.3-1.5-0.4c0.3,0,0.6,0,1,0
				c-0.3-0.2-0.7-0.5-1-0.7c-0.7-0.4-1.4-0.5-2.2-0.6c0.5,1.2,1,2.5,1.5,3.7c0.4-0.2,0.8-0.5,1.2-0.7c-0.3,0.5-0.6,0.9-0.9,1.4
				c-0.1-0.2-0.2-0.4-0.3-0.7c-0.5,0.3-0.9,0.5-1.4,0.8c1-0.1,2.3-0.1,3.2-0.5c0.7-0.3,1.2-0.8,1.6-1.4c-0.5,0-1,0.1-1.5,0.1
				c0.7-0.3,1.4-0.6,2.1-0.9c-0.2,0.3-0.4,0.5-0.6,0.8c0.8-0.1,1.5-0.2,2.2-0.5c0,0,0.1,0,0.1,0c-0.2-0.1-0.4-0.2-0.6-0.2
				C272.7,653.1,271.9,652.8,271,652.8z"/>
			<path class="st20" d="M276.9,651.9c-0.2,0.1-0.4,0.1-0.6,0.2c0.4-0.3,0.9-0.5,1.3-0.8C277.4,651.5,277.1,651.7,276.9,651.9
				c1-0.3,1.9-0.6,2.8-1c0.8-0.4,1.6-1,2.3-1.6c-0.2,0.1-0.4,0.1-0.7,0.2c0.4-0.3,0.9-0.5,1.3-0.8c-0.2,0.2-0.4,0.4-0.7,0.6
				c0.6-0.2,1.3-0.4,1.8-0.7c0.5-0.3,0.9-0.7,1.3-1c-0.2,0-0.4,0.1-0.6,0.1c0.4-0.3,0.9-0.5,1.3-0.8c-0.2,0.2-0.5,0.4-0.7,0.6
				c1.6-0.4,3.1-0.9,4.5-1.9c0.7-0.5,1.4-0.9,2.2-1.4c0.6-0.4,1.2-0.9,1.7-1.4c-0.3,0.1-0.5,0.2-0.8,0.3c0.4-0.3,0.9-0.5,1.3-0.8
				c-0.2,0.2-0.4,0.3-0.6,0.5c0.3-0.1,0.6-0.2,0.9-0.3c1.5-0.5,2.6-2.1,2.1-3.7c-0.4-1.1-0.7-2.3-1.1-3.5c-0.2-0.7-0.6-1.3-0.9-2
				c0,0.3-0.5-1-0.1-0.2c0,0.1,0.1,0.1,0.1,0.2c0,0,0,0,0,0c-0.1-0.4-0.2-0.8-0.3-1.2c-0.2-0.7-0.5-1.3-0.8-2
				c-0.1-0.2-0.2-0.5-0.4-0.8c0,0.1,0.1,0.2,0.1,0.4c0.2,0.5-0.3-0.6-0.2-0.5c0,0,0,0.1,0.1,0.1c0-0.1,0-0.1-0.1-0.2
				c-0.2-0.5-0.4-1-0.6-1.5c-0.1-0.3-0.2-0.6-0.3-0.9c0,0,0,0,0,0c0,0.2,0,0.7-0.1,0c-0.1-0.7,0-0.3,0-0.1c0,0,0,0.1,0,0.1
				c0.2-1.4,0.3-2.7-0.8-3.8c-0.3-0.3-0.5-0.6-0.8-0.8c0,0.2,0.1,0.4,0.1,0.7c-0.3-0.4-0.5-0.9-0.8-1.3c0.2,0.2,0.4,0.4,0.7,0.7
				c-0.1-0.4-0.1-0.8-0.2-1.1c-0.2-0.7-0.6-1.4-0.9-2c0,0,0,0,0,0c0,0.5-0.2-0.5-0.2-0.5c0.1,0.1,0.1,0.2,0.2,0.3c0,0,0,0.1,0.1,0.1
				c0-0.4-0.2-0.7-0.2-1.1c0,0,0,0,0,0c0,0,0,0.1,0,0.1c-0.1,0.3-0.2-0.9-0.1-0.6c0.1,0.1,0.1,0.3,0.1,0.5c0-0.3,0-0.7-0.1-1
				c-0.1-1.4-0.5-3-1.2-4.2c-0.2-0.3-0.4-0.7-0.7-1c0,0,0,0,0,0c0,0.1,0,0.1,0,0.2c0,0.3-0.3-0.6-0.2-0.5c0.1,0.1,0.2,0.2,0.2,0.3
				c0-0.7-0.3-1.7-0.6-2.3c-0.4-0.8-1-1.6-1.5-2.4c-0.1,0.5-0.2,1-0.3,1.4c-0.1-0.8-0.2-1.5-0.3-2.3c0.2,0.3,0.4,0.6,0.6,0.9
				c0.2-0.8,0.3-1.7,0.1-2.3c-0.2-0.9-1-1.6-1.7-2.3c0.1,0.3,0.1,0.5,0.2,0.8c-0.3-0.4-0.5-0.9-0.8-1.3c0.2,0.2,0.4,0.4,0.6,0.5
				c-0.1-0.2-0.1-0.5-0.2-0.7c0,0.1,0,0.1,0,0.2c0,0.7-0.2-1-0.1-0.4c0,0.1,0,0.1,0,0.2c0-0.3,0-0.6,0-0.9c0-0.9-0.1-1.6-0.5-2.4
				c-0.2-0.3-0.3-0.6-0.5-0.8c0,0.3,0,0.6,0,0.9c-0.1-0.5-0.3-1-0.4-1.5c0.1,0.2,0.3,0.4,0.4,0.6c0-0.4,0-0.8,0-1.1
				c-0.1-1-0.7-2.1-1.2-3.1c0,0.1,0.1,0.2,0.1,0.3c0.2,0.6-0.4-0.8-0.2-0.4c0,0,0,0.1,0.1,0.1c0-0.1-0.1-0.2-0.1-0.3
				c-0.1-0.3-0.2-0.6-0.4-1c-0.3-0.8-0.7-1.6-1.1-2.4c-0.2-0.4-0.5-1.1-0.8-1.5c0,0,0,0,0,0c0.2,0.3,0.1,0.6,0,0.1c0,0,0-0.1,0-0.1
				c0-0.1-0.1-0.2-0.2-0.3c0.1,0.1,0.1,0.1,0.2,0.2c0-0.1,0-0.3-0.1-0.4c-0.1-0.3-0.1-0.7-0.2-1c-0.3-1.1-0.9-2.2-1.5-3.3
				c0,0.2,0,0.4,0,0.6c-0.1-0.5-0.3-1-0.4-1.5c0.1,0.3,0.3,0.6,0.5,0.9c0-0.5,0.1-1,0.1-1.4c0.1-1.6-1.5-3.1-3-3
				c-1.7,0.1-2.9,1.3-3,3c-0.1,0.7-0.2,1.4-0.2,2.1c0,1.1,0.8,2.2,1.2,3.1c0.2,0.4,0.4,0.8,0.5,1.2c0-0.3,0.4,0.9,0.2,0.5
				c-0.1-0.2-0.2-0.4-0.2-0.5c0,0,0,0.1,0,0.1c0,0.2,0.1,0.4,0.1,0.7c0.1,0.3,0.1,0.7,0.2,1c0.2,0.9,0.9,1.6,1.3,2.4
				c0.2,0.3,0.3,0.7,0.5,1.1c0,0,0.1,0.1,0.2,0.3c0,0.1,0.1,0.2,0.1,0.2c0,0,0,0.1,0.1,0.1c0,0,0-0.1-0.1-0.1
				c0.1,0.1,0.1,0.3,0.2,0.4c0.1,0.3,0.2,0.5,0.3,0.8c0.2,0.6,0.5,1.1,0.8,1.6c0-0.2,0-0.5,0-0.7c0.1,0.5,0.3,1,0.4,1.5
				c-0.1-0.3-0.3-0.5-0.4-0.8c0,0.6,0,1.1,0.1,1.7c0.1,0.8,0.6,1.5,1,2.2c0-0.3,0-0.6,0-0.9c0.1,0.5,0.3,1,0.4,1.5
				c-0.1-0.2-0.2-0.4-0.4-0.6c0.1,1,0.2,2,0.4,3c0.2,0.9,0.5,1.6,1.2,2.3c0.1,0.1,0.2,0.2,0.2,0.2c0.1-0.6,0.2-1.3,0.3-1.9
				c0.3,1,0.5,1.9,0.8,2.9c-0.4-0.3-0.7-0.7-1.1-1c0,0.1,0,0.2,0,0.3c-0.3,1.7,0.5,2.6,1.3,3.9c0.1,0.2,0.3,0.5,0.4,0.7
				c0.1,0.2,0.2,0.3,0.3,0.5c0-0.1,0-0.1,0-0.2c0,0.1,0,0.2,0.1,0.3c0,0,0,0.1,0,0.1c0.3,0.4,0.1,0.2,0-0.1c0,0,0-0.1-0.1-0.1
				c0,0.8,0.4,1.9,0.7,2.5c0.2,0.4,0.5,0.8,0.8,1.1c0,0,0,0,0,0c-0.1-0.2-0.1-0.4,0-0.2c0,0.1,0.1,0.3,0.1,0.4c0,0.1,0,0.1,0.1,0.2
				c0,0,0,0.1,0.1,0.1c0,0,0,0-0.1-0.1c0.1,0.3,0.2,0.6,0.3,0.9c0-0.1,0-0.2,0-0.4c0-0.6,0.3,0.8,0.1,0.5c0,0,0-0.1-0.1-0.1
				c0,0.1,0,0.3,0,0.4c0,1,0.2,1.9,0.4,2.8c0.2,1,0.6,1.8,1,2.7c0,0,0,0.1,0.1,0.1c0-0.3,0,0,0.1,0.2c0,0.1,0.1,0.2,0.1,0.2
				c0-0.1-0.1-0.1-0.1-0.2c0-0.1-0.1-0.2-0.1-0.2c0,0,0,0.1,0,0.2c0.1,0.5,0.2,1,0.3,1.5c0.2,0.7,0.7,1.3,1.2,1.9
				c0-0.4,0.1-0.8,0.1-1.1c0.3,0.7,0.6,1.4,0.9,2.1c-0.3-0.3-0.7-0.6-1-1c0,0.3-0.1,0.6-0.1,0.9c0,0.9,0.4,1.7,0.7,2.5
				c0.5,1.3,1,2.6,1.7,3.9c0-0.1,0-0.1,0-0.2c-0.1-0.4,0.5,0.9,0.2,0.5c-0.1-0.1-0.1-0.2-0.2-0.3c0,0.1,0.1,0.2,0.1,0.4
				c0.1,0.4,0.2,0.8,0.3,1.1c0.2,0.7,0.5,1.3,0.9,2c0,0,0-0.1,0-0.1c-0.1-0.4,0.4,1,0.2,0.5c-0.1-0.1-0.1-0.3-0.2-0.4
				c0,0.2,0.1,0.3,0.1,0.5c0,0.2,0.1,0.3,0.1,0.5c0.4-0.3,0.8-0.5,1.2-0.7c0.6-0.2,1.1-0.4,1.7-0.6c-0.7,1.2-1.4,2.5-2.1,3.7
				c-0.2-0.6-0.4-1.2-0.6-1.8c-0.1-0.2-0.1-0.4-0.2-0.6c-0.4,0.3-0.8,0.7-1.2,1c0,0,0,0,0.1,0c0.6-0.3-0.8,0.7-0.2,0.1
				c0,0,0.1-0.1,0.1-0.1c-0.3,0.2-0.7,0.4-1,0.6c-0.5,0.3-0.8,0.6-1.3,0.9c-0.4,0.3-0.8,0.6-1.3,0.8c-0.2,0.1-0.3,0.2-0.5,0.2
				c0,0,0,0,0,0c0.4,0-0.9,0.4-0.5,0.2c0.2-0.1,0.3-0.2,0.5-0.2c-0.1,0-0.3,0.1-0.4,0.1c-1.1,0.2-1.8,0.3-2.8,1.1
				c-0.3,0.2-0.5,0.4-0.8,0.7c0.2-0.1,0.4-0.2,0.7-0.2c-0.4,0.3-0.9,0.5-1.3,0.8c0.2-0.2,0.4-0.4,0.7-0.5c-0.9,0.3-1.8,0.6-2.5,1.2
				c-0.3,0.2-0.6,0.5-0.9,0.8c0.4-0.1-0.8,0.7-0.3,0.3c0.1-0.1,0.2-0.2,0.3-0.3c0,0,0,0,0,0c-0.2,0.1-0.5,0.2-0.7,0.4
				c-0.1,0.1-0.2,0.1-0.3,0.2c0,0,0,0,0,0c0.6-0.1-0.9,0.4-0.3,0.2c0.1-0.1,0.2-0.1,0.3-0.2c-0.5,0.1-1,0.2-1.5,0.4
				c-0.9,0.3-1.6,0.9-2.3,1.6c0.3-0.1,0.5-0.2,0.7-0.2c-0.4,0.3-0.9,0.5-1.3,0.8c0.1-0.1,0.1-0.1,0.2-0.2c-0.3,0.1-0.8,0.2-0.5,0
				c0,0,0,0,0,0c-0.3,0-0.6,0-0.9,0c-1.1,0.1-2.1,0.2-2.8,1.1c-0.2,0.2-0.4,0.4-0.5,0.6c0.5-0.1,1-0.1,1.5-0.2
				c-0.7,0.3-1.4,0.6-2.1,0.9c0.2-0.2,0.4-0.5,0.6-0.7c-0.3,0-0.6,0.1-0.9,0.1c-1.6,0.2-2.3,1.6-3.1,2.8c-1,1.5-0.1,4.1,1.8,4.4
				c0.3,0.1,0.7,0.2,1.1,0.2c-0.1-0.1-0.1-0.1-0.2-0.2c-0.4-0.4,0.8,0.2,0.4,0.2c-0.1,0-0.1,0-0.2,0c0.2,0.1,0.3,0.2,0.5,0.3
				c0.3,0.2,0.5,0.4,0.8,0.6c0.8,0.4,1.6,0.4,2.5,0.4c0.2,0,0.4,0,0.6,0c0,0,0,0,0,0c-0.1,0-0.1,0-0.2-0.1c0.1,0,0.1,0.1,0.2,0.1
				c0,0,0,0,0,0c0.1,0,0.1,0,0.2,0c0.6,0,0.2,0.1-0.2,0c0,0,0,0,0,0c0.3,0.1,0.7,0.2,1,0.3c0,0,0,0,0.1,0c0,0,0,0,0,0
				c0.1,0,0.3,0.1,0.5,0.1c-0.2,0-0.3,0-0.4-0.1c0.4,0.3,0.8,0.6,1.2,0.8c0.6,0.4,1.2,0.8,1.8,1.1c0.6,0.3,1.2,0.4,1.8,0.6
				c0.1,0,0.2,0.1,0.3,0.1c0,0,0,0,0,0c-0.4-0.4,1,0.3,0.4,0.1c-0.1,0-0.2-0.1-0.3-0.1c1.2,1.2,3,1.8,4.6,2.2
				c0.3,0.1,0.6,0.1,0.9,0.2c0.1,0,0.2,0.1,0.3,0.1c-0.1-0.1-0.3-0.1-0.5-0.3c0.5,0.2,1,0.5,1.5,0.7c0.7,0.3,1.5,0.6,2.3,0.8
				c-0.2-0.2-0.4-0.4-0.6-0.6c0.4,0.3,0.9,0.5,1.3,0.8c-0.2-0.1-0.5-0.1-0.7-0.2c0.7,0.6,1.5,1.2,2.4,1.6c0.5,0.2,1,0.4,1.5,0.6
				c0.2-0.2,0.3-0.3,0.6-0.5c0.1-0.1,0.2-0.1,0.3-0.2c0-0.1,0-0.3,0-0.4c0,0.1,0.1,0.2,0.1,0.3c0.4-0.3,0.8-0.5,1.2-0.8
				c-0.3,0.5-0.6,1-0.9,1.5c0.1,0.1,0.1,0.3,0.2,0.4c0.2,0.1,0.4,0.2,0.5,0.3c-0.2,0-0.3-0.1-0.5-0.1c0.1,0.2,0.1,0.3,0.2,0.5
				c-0.2-0.2-0.4-0.4-0.6-0.6c-0.1,0-0.1,0-0.2-0.1c-0.1,0.2-0.2,0.4-0.3,0.6c0-0.2,0-0.5,0.1-0.7c-0.3-0.1-0.5-0.2-0.8-0.3
				c-0.7,0.7-0.9,1.5-1.1,2.5c0,0.2-0.2,0.8-0.1,0.7c0.2-0.3,0.4-0.9,0.1-0.3c-0.1,0.2-0.1,0.2-0.1,0.3c0,0.1-0.1,0.1-0.1,0.2
				c-0.1,0.2-0.4,0.6-0.4,0.9c0,0,0,0,0,0c0.1-0.2,0.7-0.8,0.3-0.3c-0.1,0.1-0.2,0.2-0.3,0.3c0,0,0,0,0,0c0,0,0,0,0,0
				c0,0-0.1,0.1-0.1,0.1c-1,1.2-2.2,2.3-2.7,3.7c-0.3,0.8-0.6,1.7-0.9,2.5c0.1-0.1,0.3-0.2,0.4-0.3c-0.3,0.4-0.5,0.9-0.8,1.3
				c0.1-0.3,0.3-0.7,0.4-1c-0.4,0.3-0.7,0.6-1.1,0.9c-0.6,0.6-0.9,1.3-1.3,2c-0.5,0.9-0.9,2-1.4,3c-0.1,0.1-0.1,0.3-0.2,0.4
				c0.1-0.1,0.2-0.2,0.3-0.2c-0.1,0.1-0.2,0.2-0.3,0.3c-0.1,0.2-0.2,0.3-0.1,0.2c-0.1,0.1-0.1,0.1-0.2,0.2c-0.5,0.6-1,1.1-1.4,1.7
				c-0.6,0.9-1.1,1.6-1.2,2.8c0,0.2,0,0.4-0.1,0.7c0.3-0.3,0.5-0.5,0.8-0.8c-0.3,0.7-0.6,1.4-0.9,2.1c0-0.4,0.1-0.9,0.1-1.3
				c-0.4,0.4-0.8,0.8-1,1.3c-0.3,0.6-0.5,1.3-0.7,1.9c0.2-0.2,0.4-0.4,0.6-0.7c-0.3,0.4-0.5,0.9-0.8,1.3c0.1-0.2,0.1-0.4,0.2-0.7
				c-0.7,0.8-1.3,1.6-2,2.4c0.1-0.2-0.7,0.9-0.2,0.3c0.1-0.1,0.1-0.2,0.2-0.3c0,0-0.1,0.1-0.1,0.2c-0.2,0.3-0.5,0.6-0.7,0.9
				c-0.5,0.6-0.9,1.2-1.2,1.9c-0.6,1.1-1.5,2.1-1.8,3.4c-0.2,0.9-0.4,1.7-0.7,2.5c0.4-0.3,0.7-0.5,1.1-0.8c-0.5,0.6-0.9,1.2-1.4,1.8
				c0.1-0.3,0.2-0.6,0.3-1c-0.1,0.1-0.2,0.1-0.3,0.2c-0.5,0.4-1,0.7-1.3,1.3c-0.2,0.3-0.3,0.8-0.5,1.2c-0.1,0.2-0.2,0.5-0.3,0.7
				c0.1-0.1-0.4,1-0.1,0.3c0-0.1,0.1-0.2,0.1-0.3c0,0,0,0,0,0c-0.4,0.4-0.6,1-0.9,1.5c-0.5,0.8-1.1,1.6-1.7,2.5
				c-0.4,0.6-0.7,1.1-0.8,1.7c-0.1,0.4-0.1,0.7-0.2,1.1c0.2-0.2,0.5-0.5,0.7-0.7c-0.3,0.4-0.5,0.9-0.8,1.3c0-0.2,0.1-0.4,0.1-0.6
				c-0.2,0.2-0.5,0.5-0.7,0.7c-1.2,1.1-1.1,3.1,0,4.2c1.2,1.2,3.1,1.1,4.2,0c1-1,2-1.9,2.2-3.3c0-0.3,0.1-0.7,0.1-1.1
				c0,0.1-0.1,0.1-0.1,0.2c-0.4,0.4,0.2-1,0.1-0.2c0,0,0,0,0,0c0.3-0.4,0.5-0.8,0.8-1.2c0.5-0.8,1.1-1.6,1.6-2.4
				c0.4-0.7,0.8-1.4,1.1-2.2c-0.3,0.2-0.6,0.5-0.9,0.7c0.5-0.6,0.9-1.2,1.4-1.8c-0.2,0.4-0.3,0.7-0.5,1.1c0.2-0.2,0.4-0.3,0.6-0.5
				c0.7-0.5,1.2-1,1.5-1.9c0.1-0.4,0.2-0.7,0.4-1.1c0.2-0.5,0.3-1,0.4-1.5c0.1-0.2,0.2-0.5,0.2-0.8c-0.1,0.1-0.2,0.3-0.2,0.3
				c0,0,0.2-0.9,0.2-0.5c0,0.1,0,0.2,0,0.2c0-0.1,0.1-0.1,0.1-0.1c0.3-0.5,0.6-0.9,0.9-1.4c0.2-0.3,0.4-0.7,0.5-1
				c0.1-0.1,0.1-0.2,0.1-0.2c-0.1,0.1-0.1,0.1-0.2,0.2c-0.5,0.6,0.3-0.6,0.2-0.2c0.4-0.6,0.9-1.1,1.3-1.7c0.2-0.3,0.4-0.5,0.6-0.8
				c0,0,0.1-0.1,0.1-0.1c0,0,0,0,0,0c0,0,0,0,0,0c0.1-0.1,0.2-0.2,0.2-0.3c0.4-0.5-0.1,0.2-0.2,0.3c0,0,0,0,0,0
				c0.6-0.4,1.4-1.4,1.7-2c0.3-0.5,0.5-1.2,0.7-1.8c-0.2,0.2-0.4,0.4-0.5,0.6c0.3-0.4,0.5-0.9,0.8-1.3c-0.1,0.2-0.2,0.5-0.2,0.8
				c0.6-0.7,1.4-1.4,1.5-2.2c0.1-0.6,0.2-1.2,0.2-1.9c-0.1,0.2-0.2,0.3-0.3,0.5c0.1-0.5,0.3-1,0.4-1.5c0,0.3,0,0.7-0.1,1
				c0.1-0.1,0.2-0.2,0.3-0.4c0.1-0.1,0.1-0.2,0.2-0.3c0,0-0.1,0.1-0.1,0.1c-0.3,0.3,0.6-0.9,0.3-0.4c-0.1,0.1-0.1,0.2-0.2,0.3
				c0.6-0.5,1.2-1.2,1.6-1.9c0.7-1.1,1-2.3,1.6-3.5c0.2-0.4,0.4-0.7,0.6-1c0,0,0-0.1,0.1-0.1c0,0-0.1,0.1-0.1,0.1
				c-0.3,0.1,0.6-0.9,0.3-0.4c-0.1,0.1-0.1,0.2-0.2,0.3c0.3-0.2,0.6-0.6,0.9-0.8c0.4-0.3,0.7-0.6,0.9-1c0.6-1.1,1-2.4,1.4-3.6
				c-0.2,0.2-0.4,0.4-0.5,0.6c0.3-0.4,0.5-0.9,0.8-1.3c-0.1,0.2-0.2,0.5-0.3,0.7c0.8-1,1.8-1.9,2.4-3c0.4-0.7,0.9-1.7,1.1-2.4
				c0.1-0.4,0.1-0.7,0.2-1.1c-0.4,0.3-0.8,0.6-1.3,0.9c0.5-0.6,0.9-1.2,1.4-1.8c0,0.3-0.1,0.6-0.1,0.9c0.1,0,0.1-0.1,0.2-0.1
				c0.5-0.4,1-0.7,1.3-1.3c0.4-0.6,0.4-1.3,0.5-2c0.1-0.8,0.3-1.6,0-2.4c-0.2-0.9-1.1-1.8-1.8-2.4c-0.7-0.7-1.6-0.9-2.5-1.1
				c-0.2,0-0.4-0.1-0.6-0.2c0.4,0.1,0.7,0.4,0.4,0.2c-0.2-0.1-0.3-0.1-0.5-0.2c0,0,0,0,0,0c0,0,0,0,0,0c-0.1,0-0.1,0-0.2-0.1
				c-0.3-0.1-0.6-0.3-0.9-0.4c0,0,0,0,0,0c0.2,0.1,0.7,0.6,0.1,0.1c0,0-0.1,0-0.1-0.1c0,0-0.1,0-0.1-0.1c0,0,0,0,0,0
				c-0.7-0.6-1.5-1.3-2.4-1.7c-0.6-0.2-1.1-0.4-1.7-0.5c0.1,0,0.1,0.1,0.2,0.1c0.8,0.4-0.9-0.3-0.2-0.1c0,0,0,0,0,0
				c-0.3-0.2-0.6-0.3-1-0.4c-1-0.5-2.1-0.6-3.2-1c-0.3-0.1-0.6-0.2-1-0.4c0,0,0,0,0,0c0,0,0,0,0,0c0,0,0,0,0,0
				c-0.2-0.1-0.3-0.1-0.5-0.2c-0.5-0.2,0.3,0,0.5,0.2c0,0,0,0,0,0c-0.2-0.4-1.1-0.9-1.5-1.1c-0.6-0.4-1.4-0.5-2-0.7c0,0-0.1,0-0.1,0
				c0,0,0.1,0.1,0.1,0.1c0,0-0.1-0.1-0.2-0.1c-0.1,0-0.2-0.1-0.3-0.1c-0.3-0.1-0.1-0.1,0.2,0c-0.2-0.1-0.4-0.2-0.6-0.3
				c-1-0.6-1.9-1.3-2.9-1.7c0,0-0.1,0-0.1,0c-0.7,0.3-1.5,0.4-2.2,0.5c-0.5,0.6-1,1.1-1.6,1.4c-0.9,0.4-2.2,0.4-3.2,0.5
				c0.5-0.3,0.9-0.5,1.4-0.8c-0.5-1.2-1-2.5-1.5-3.7c0.8,0.1,1.5,0.2,2.2,0.6c0.4,0.2,0.7,0.5,1,0.7c0.3,0,0.7,0,1,0
				c0.9,0,1.6,0.3,2.4,0.6c0.2,0.1,0.4,0.2,0.6,0.2c0.8-0.3,1.5-0.6,2.2-1.2C276.5,652.3,276.7,652.1,276.9,651.9z"/>
			<path class="st20" d="M270.1,704c-0.4,0.3-0.7,0.5-1.1,0.8c-0.1,0.3-0.2,0.6-0.3,1C269.1,705.2,269.6,704.6,270.1,704z"/>
			<path class="st20" d="M290.6,661.7C290.6,661.7,290.5,661.7,290.6,661.7C290.5,661.7,290.5,661.7,290.6,661.7
				C290.5,661.7,290.5,661.7,290.6,661.7z"/>
			<path class="st20" d="M291.7,662.2c0,0-0.1,0-0.1,0c0,0,0,0,0,0C291.6,662.2,291.6,662.2,291.7,662.2z"/>
			<path class="st20" d="M286.7,659.6c-0.1,0-0.1-0.1-0.2-0.1c0,0,0,0,0,0C285.8,659.3,287.5,660,286.7,659.6z"/>
			<path class="st20" d="M281.4,657.7C281.4,657.7,281.4,657.7,281.4,657.7C281.4,657.7,281.3,657.7,281.4,657.7
				C281.4,657.7,281.4,657.7,281.4,657.7z"/>
			<path class="st20" d="M290.7,666.7c0,0.1,0,0.3,0,0.4c0.1,0,0.1-0.1,0.2-0.1C290.8,666.9,290.7,666.8,290.7,666.7z"/>
			<path class="st20" d="M290.6,667.8c0,0.1,0,0.2,0,0.3c0.1,0,0.2,0.1,0.3,0.1c0,0,0-0.1,0-0.1C290.8,668,290.7,667.9,290.6,667.8z
				"/>
			<path class="st20" d="M290.5,668.8c0.1-0.2,0.2-0.4,0.3-0.6c-0.1,0-0.2-0.1-0.3-0.1C290.5,668.3,290.5,668.5,290.5,668.8z"/>
			<path class="st20" d="M291.8,668.4c-0.2-0.1-0.4-0.2-0.5-0.3c0,0.1,0.1,0.1,0.1,0.2C291.5,668.4,291.7,668.4,291.8,668.4z"/>
			<path class="st20" d="M291,667.9c-0.1-0.1-0.2-0.1-0.4-0.2c0,0,0,0,0,0c0.1,0.1,0.2,0.2,0.3,0.3C290.9,668,290.9,668,291,667.9z"
				/>
			<path class="st20" d="M292,666.2c-0.4,0.3-0.8,0.5-1.2,0.8c0.1,0.2,0.2,0.5,0.3,0.7C291.4,667.2,291.7,666.7,292,666.2z"/>
			<path class="st20" d="M290.5,667.7C290.5,667.7,290.6,667.7,290.5,667.7C290.6,667.8,290.6,667.7,290.5,667.7
				C290.6,667.7,290.5,667.7,290.5,667.7z"/>
			<path class="st20" d="M291.6,668.8c-0.1-0.2-0.1-0.3-0.2-0.5c-0.1,0-0.2-0.1-0.3-0.1C291.2,668.4,291.4,668.6,291.6,668.8z"/>
			<path class="st20" d="M266,657.3c0.1,0.1,0.1,0.1,0.2,0.2c0.1,0,0.1,0,0.2,0C266.9,657.5,265.6,656.9,266,657.3z"/>
			<path class="st20" d="M271.7,659.1c0,0-0.1,0-0.1,0c0,0,0.1,0.1,0.3,0.1c0,0,0,0,0,0C271.8,659.2,271.7,659.1,271.7,659.1z"/>
			<path class="st20" d="M270.5,658.8C270.5,658.8,270.5,658.8,270.5,658.8C270.6,658.8,270.6,658.8,270.5,658.8
				C270.6,658.8,270.5,658.8,270.5,658.8z"/>
			<path class="st20" d="M285.2,665c0.2,0.2,0.4,0.4,0.6,0.6c0.2,0.1,0.5,0.1,0.7,0.2C286.1,665.6,285.7,665.3,285.2,665z"/>
			<path class="st20" d="M273.6,696c-0.1,0.1-0.1,0.2-0.2,0.3C272.9,696.9,273.7,695.8,273.6,696z"/>
			<path class="st20" d="M276.9,661.8C276.9,661.8,276.9,661.8,276.9,661.8c0.2,0.1,0.3,0.1,0.4,0.1
				C277.9,662.1,276.5,661.4,276.9,661.8z"/>
			<path class="st20" d="M288.1,672.1C288.1,672.1,288.1,672.1,288.1,672.1C288.1,672.1,288.1,672.2,288.1,672.1
				C288.1,672.2,288.1,672.1,288.1,672.1z"/>
			<path class="st20" d="M290.8,668.2c0.1,0,0.1,0,0.2,0.1C291,668.2,290.9,668.1,290.8,668.2C290.9,668.1,290.9,668.1,290.8,668.2z
				"/>
			<path class="st20" d="M284.7,678.1c-0.1,0.1-0.3,0.2-0.4,0.3c-0.1,0.3-0.3,0.7-0.4,1C284.2,679,284.5,678.6,284.7,678.1z"/>
			<path class="st20" d="M278,689.6c-0.2,0.3-0.5,0.5-0.8,0.8c0,0.4-0.1,0.9-0.1,1.3C277.5,691,277.8,690.3,278,689.6z"/>
			<path class="st20" d="M276.1,692.9c-0.2,0.2-0.4,0.4-0.6,0.7c-0.1,0.2-0.1,0.4-0.2,0.7C275.6,693.8,275.9,693.4,276.1,692.9z"/>
			<path class="st20" d="M280.3,684.8C280.3,684.8,280.3,684.8,280.3,684.8c-0.1,0.1-0.1,0.2-0.2,0.2
				C280.2,685,280.2,684.9,280.3,684.8C280.3,684.9,280.3,684.9,280.3,684.8z"/>
			<path class="st20" d="M290.9,668.1c0,0,0.1,0.1,0.1,0.1c0.1,0,0.2,0.1,0.3,0.1c0-0.1-0.1-0.1-0.1-0.2c-0.1-0.1-0.2-0.1-0.3-0.2
				C290.9,668,290.9,668,290.9,668.1z"/>
			<path class="st20" d="M291.3,668.1c-0.1-0.1-0.1-0.3-0.2-0.4c0,0.1-0.1,0.2-0.1,0.2C291.1,668,291.2,668.1,291.3,668.1z"/>
			<path class="st20" d="M288.6,671.1c0,0,0.1-0.1,0.1-0.3C289,670.2,288.8,670.8,288.6,671.1z"/>
			<path class="st20" d="M290.6,667.8C290.6,667.7,290.5,667.7,290.6,667.8C290.5,667.7,290.6,667.7,290.6,667.8
				c0-0.2,0-0.4,0.1-0.7c-0.1,0.1-0.2,0.1-0.3,0.2c-0.2,0.2-0.4,0.3-0.6,0.5c0.3,0.1,0.5,0.2,0.8,0.3
				C290.6,668,290.6,667.9,290.6,667.8z"/>
			<path class="st20" d="M291,667.9c0-0.1,0.1-0.2,0.1-0.2c-0.1-0.2-0.2-0.5-0.3-0.7c-0.1,0-0.1,0.1-0.2,0.1c0,0.2,0,0.4-0.1,0.6
				C290.7,667.8,290.8,667.9,291,667.9z"/>
		</g>
		<g>
			<path class="st20" d="M112.6,642.9c-0.2-0.3-0.4-0.6-0.6-0.9c-0.2-0.1-0.3-0.1-0.5-0.2C111.9,642.2,112.2,642.6,112.6,642.9z"/>
			<path class="st20" d="M106,636.7C106,636.6,106,636.6,106,636.7c0-0.1,0-0.2,0-0.3C106,635.5,105.8,637.2,106,636.7z"/>
			<path class="st20" d="M106.7,638.8c-0.2-0.1-0.3-0.1-0.5-0.2C105.8,638.5,106.8,638.9,106.7,638.8z"/>
			<path class="st20" d="M102.3,637c0.6,1.5,1.2,2.9,1.8,4.4c0.4-0.5,0.7-1,1.1-1.4c0.3-0.5,0.5-1,0.6-1.5c-0.2-0.1-0.4-0.2-0.6-0.3
				C104.3,637.7,103.3,637.4,102.3,637z"/>
			<path class="st20" d="M118.8,645.8c-0.1-0.1-0.2-0.3-0.3-0.4c-0.3-0.1-0.7-0.2-1-0.3C117.9,645.3,118.4,645.5,118.8,645.8z"/>
			<path class="st20" d="M125.5,658.7C125.5,658.7,125.6,658.7,125.5,658.7c0.2-0.1,0.3-0.1,0.5-0.2
				C126.2,658.3,125.3,658.6,125.5,658.7z"/>
			<path class="st20" d="M123.3,647.5c-0.1-0.1-0.2-0.1-0.4-0.2c-0.1,0-0.1-0.1-0.2-0.1C122.5,647.3,123.7,647.7,123.3,647.5z"/>
			<path class="st20" d="M129.3,651.5c-0.3-0.4-0.5-0.7-0.8-1.1c-0.3-0.1-0.7-0.2-1-0.3C128.1,650.5,128.7,651,129.3,651.5z"/>
			<path class="st20" d="M114.8,611.5C114.8,611.5,114.9,611.5,114.8,611.5c0-0.2,0-0.2,0-0.3C114.9,611.3,114.8,611.4,114.8,611.5z
				"/>
			<path class="st20" d="M114.7,611.2c0.1-0.1,0.1-0.1,0.2-0.2c0,0,0-0.1,0-0.1C114.8,611,114.8,611.1,114.7,611.2z"/>
			<path class="st20" d="M114.9,610.9C114.9,610.9,114.9,610.9,114.9,610.9C114.9,611,114.9,611,114.9,610.9
				C114.9,611,114.9,611,114.9,610.9C114.9,611,114.9,611,114.9,610.9z"/>
			<path class="st20" d="M113.2,616C113.2,616,113.3,616,113.2,616C113.3,615.9,113.3,615.9,113.2,616
				C113.3,615.9,113.2,616,113.2,616z"/>
			<path class="st20" d="M109.1,627.8c0-0.2,0.1-0.3,0.1-0.5C109.2,626.8,109.1,628,109.1,627.8z"/>
			<path class="st20" d="M107.8,630.6c-0.3,0.7-0.6,1.4-0.9,2.1c0.3-0.3,0.6-0.6,0.9-0.9C107.8,631.4,107.8,631,107.8,630.6z"/>
			<path class="st20" d="M109.1,626.7c0.1-0.1,0.2-0.2,0.2-0.3c0,0,0,0,0,0C109.4,625.6,109.4,626.5,109.1,626.7z"/>
			<path class="st20" d="M105.6,636.3c0.2-0.2,0.4-0.5,0.6-0.7c0-0.2,0.1-0.4,0.1-0.6C106.2,635.4,105.9,635.9,105.6,636.3z"/>
			<path class="st20" d="M105.8,667.8C105.8,667.8,105.8,667.8,105.8,667.8c0.2-0.1,0.4-0.2,0.6-0.2c0.2-0.2,0.4-0.3,0.7-0.5
				C106.7,667.3,106.2,667.6,105.8,667.8z"/>
			<path class="st20" d="M118.4,691.8c0-0.4,0-0.8-0.1-1.2c-0.3-0.3-0.6-0.6-0.8-0.9C117.8,690.4,118.1,691.1,118.4,691.8z"/>
			<path class="st20" d="M115.7,686.8c0-0.4-0.1-0.8-0.1-1.3c-0.3-0.3-0.5-0.6-0.8-0.8C115.1,685.4,115.4,686.1,115.7,686.8z"/>
			<path class="st20" d="M113.3,682.1c-0.1-0.2-0.2-0.4-0.3-0.6c-0.3-0.2-0.5-0.3-0.8-0.5C112.6,681.3,113,681.7,113.3,682.1z"/>
			<path class="st20" d="M107.2,670.8c0-0.1,0-0.2-0.1-0.2c0-0.1-0.1-0.1-0.1-0.2C107.1,670.5,107.3,671.4,107.2,670.8z"/>
			<path class="st20" d="M126.1,704.1c-0.1-0.3-0.2-0.6-0.4-0.9c-0.1-0.2-0.3-0.3-0.4-0.5C125.6,703.2,125.8,703.7,126.1,704.1z"/>
			<path class="st20" d="M108.8,674.4c0-0.1,0-0.1,0-0.2c-0.1-0.1-0.1-0.2-0.2-0.3C108.6,673.9,108.9,674.9,108.8,674.4z"/>
			<path class="st20" d="M132.1,713.9c-0.1-0.4-0.2-0.8-0.4-1.2c-0.3-0.2-0.7-0.4-1-0.6C131.1,712.7,131.6,713.3,132.1,713.9z"/>
			<path class="st20" d="M127.7,705.9c-0.2-0.1,0.4,0.7,0.3,0.5c0-0.1-0.1-0.2-0.2-0.3C127.8,706,127.8,705.9,127.7,705.9z"/>
			<path class="st20" d="M112.9,642.4C113.2,642.6,113.4,642.6,112.9,642.4L112.9,642.4z"/>
			<path class="st20" d="M130.5,710.3c0-0.1-0.1-0.2-0.1-0.3c0,0,0-0.1,0-0.1c0,0-0.1-0.1-0.1-0.1
				C130,709.4,130.6,710.6,130.5,710.3z"/>
			<path class="st20" d="M105.1,667.2c-0.1,0.2-0.3,0.5-0.4,0.7c0.1,0.2,0.3,0.5,0.4,0.7c0,0,0.1,0,0.1-0.1
				C105.2,668.1,105.1,667.7,105.1,667.2C105.1,667.2,105.1,667.2,105.1,667.2z"/>
			<path class="st20" d="M105.8,667.8C105.8,667.8,105.8,667.8,105.8,667.8c-0.1-0.2-0.2-0.3-0.4-0.4c-0.1-0.1-0.2-0.1-0.2-0.2
				c0,0.4,0,0.9,0.1,1.3c0.3-0.2,0.5-0.4,0.8-0.6C105.9,667.9,105.9,667.9,105.8,667.8C105.8,667.8,105.8,667.8,105.8,667.8z"/>
			<path class="st20" d="M105.9,667.9c0.2-0.1,0.3-0.2,0.5-0.4c-0.2,0.1-0.4,0.2-0.6,0.2C105.9,667.9,105.9,667.9,105.9,667.9z"/>
			<path class="st20" d="M105.8,667.8C105.8,667.8,105.8,667.8,105.8,667.8C105.8,667.8,105.8,667.8,105.8,667.8
				C105.8,667.8,105.8,667.8,105.8,667.8z"/>
			<path class="st20" d="M119.5,661.3c0.2-0.2-0.6,0.4-0.5,0.4c0,0,0,0,0,0c0,0,0,0,0.1-0.1C119.2,661.5,119.4,661.4,119.5,661.3z"
				/>
			<path class="st20" d="M110.9,665c0.3-0.1,0.6-0.2,0.9-0.3c0.2-0.1,0.3-0.3,0.5-0.4C111.8,664.5,111.4,664.7,110.9,665z"/>
			<path class="st20" d="M103.6,669.7c0.5-0.4,1-0.7,1.4-1.1c-0.1-0.2-0.3-0.5-0.4-0.7C104.3,668.5,104,669.1,103.6,669.7z"/>
			<path class="st20" d="M105.2,668.8c0-0.1,0-0.2,0-0.3c0,0-0.1,0-0.1,0.1C105.1,668.7,105.1,668.7,105.2,668.8z"/>
			<path class="st20" d="M120.1,661.1c0.1,0,0.2-0.1,0.3-0.1c0.1,0,0.1-0.1,0.2-0.1C121,660.6,119.8,661.1,120.1,661.1z"/>
			<path class="st20" d="M103.7,666.2c0.3,0.6,0.7,1.1,1,1.7c0.1-0.2,0.3-0.5,0.4-0.7C104.6,666.9,104.2,666.5,103.7,666.2z"/>
			<path class="st20" d="M105.1,667.1C105.1,667.1,105.1,667.2,105.1,667.1c0,0.1,0,0.1,0,0.1C105.1,667.2,105.1,667.2,105.1,667.1z
				"/>
			<path class="st20" d="M114.9,610.9C114.9,611,114.9,611,114.9,610.9c0.1-0.1,0.2-0.2,0.3-0.3c0.1-0.2,0.2-0.5,0.3-0.7
				C115.3,610.2,115.1,610.6,114.9,610.9z"/>
			<path class="st20" d="M115.1,657.5c-0.2,0.1-0.4,0.2-0.7,0.3c-0.2,0.2-0.4,0.3-0.7,0.5C114.2,658,114.6,657.7,115.1,657.5z"/>
			<path class="st20" d="M102.7,674.5c0,0.1,0,0.1,0,0.2C103.2,675.3,102.5,673.8,102.7,674.5z"/>
			<path class="st20" d="M123.2,653.2c-0.2,0.1-0.4,0.2-0.5,0.3c0.3,0.1,0.6,0.2,1,0.3C123.5,653.6,123.3,653.4,123.2,653.2z"/>
			<path class="st20" d="M101.8,663.6C101.8,663.6,101.8,663.6,101.8,663.6C101.8,663.6,101.8,663.6,101.8,663.6
				C101.8,663.6,101.8,663.6,101.8,663.6z"/>
			<path class="st20" d="M101,670.8c0.1,0.3,0.2,0.7,0.3,1c0.4,0.3,0.7,0.5,1.1,0.8C101.9,672,101.4,671.4,101,670.8z"/>
			<path class="st20" d="M107.8,660.6c-0.3,0.1-0.6,0.2-0.9,0.3c-0.1,0.1-0.3,0.3-0.4,0.4C107,661.1,107.4,660.9,107.8,660.6z"/>
			<path class="st20" d="M127.7,652.3C127.6,652.3,127.6,652.3,127.7,652.3C127.7,652.3,127.7,652.3,127.7,652.3z"/>
			<path class="st20" d="M127.6,652.3C127.6,652.3,127.5,652.3,127.6,652.3c-0.2,0.1-0.3,0.1-0.6,0.3
				C127.2,652.5,127.4,652.4,127.6,652.3z"/>
			<path class="st20" d="M124.7,654.2c-0.4-0.3-0.9-0.7-1.3-1c0,0-0.1,0-0.1,0.1c0.1,0.2,0.3,0.4,0.4,0.6
				C124,653.9,124.3,654,124.7,654.2z"/>
			<path class="st20" d="M123.6,653.8c0.1,0.2,0.2,0.3,0.3,0.5c0.7,0.9,1.5,1.5,2.6,1.8c1.1,0.3,2.1,0.7,3.2,1.1
				c-0.2-1.8-0.5-3.7-0.7-5.5c-0.5,0.2-0.9,0.4-1.4,0.6c0.1,0,0,0-0.1,0c-0.2,0.1-0.4,0.2-0.6,0.3c0.2-0.1,0.4-0.2,0.5-0.3
				c0,0-0.1,0-0.2,0c-0.2,0-0.5,0.1-0.7,0.1c-0.3,0.1-0.6,0.1-0.9,0.2c-0.7,0.1-1.3,0.1-2,0.3c-0.1,0-0.3,0.1-0.4,0.2
				c0.4,0.3,0.9,0.7,1.3,1C124.3,654,124,653.9,123.6,653.8z"/>
			<path class="st20" d="M121.9,708c0.1,0.1,0.2,0.2,0.3,0.3c0,0,0,0,0,0C122.1,708.2,122,708.1,121.9,708z"/>
			<path class="st20" d="M128,716.6c0.1,0.4,0.2,0.7,0.3,1.1c0.4,0.2,0.7,0.5,1.1,0.7C128.9,717.8,128.5,717.2,128,716.6z"/>
			<path class="st20" d="M125.7,713.7c0,0.1,0,0.2,0.1,0.3c0,0.1,0.1,0.1,0.1,0.2C126.2,714.6,125.6,713.3,125.7,713.7z"/>
			<path class="st20" d="M124.1,710.1c0.1,0.3,0.2,0.6,0.3,0.9c0.2,0.2,0.3,0.3,0.5,0.5C124.6,711,124.3,710.6,124.1,710.1z"/>
			<path class="st20" d="M133,713.7c-0.4-0.4-0.9-0.7-1.3-1c0.1,0.4,0.3,0.8,0.4,1.2c-0.5-0.6-0.9-1.2-1.4-1.8
				c0.3,0.2,0.7,0.4,1,0.6c-0.3-0.7-0.5-1.5-1-2.2c-0.1-0.2-0.3-0.5-0.4-0.7c0,0,0,0.1,0,0.1c0,0.1,0.1,0.2,0.1,0.3
				c0.1,0.3-0.5-0.9-0.2-0.6c0,0,0.1,0.1,0.1,0.1c-0.2-0.7-0.4-1.4-0.8-2c-0.4-0.6-1-1.1-1.5-1.6c0,0-0.1-0.1-0.1-0.1
				c0.1,0.1,0.1,0.2,0.2,0.3c0.1,0.2-0.5-0.6-0.3-0.5c0.1,0,0.1,0.1,0.2,0.1c-0.1-0.2-0.2-0.3-0.3-0.5c-0.5-0.8-1.2-1.6-1.8-2.3
				c0.1,0.3,0.2,0.6,0.4,0.9c-0.3-0.4-0.5-0.9-0.8-1.3c0.1,0.2,0.3,0.3,0.4,0.5c-0.1-0.3-0.3-0.6-0.4-1c-0.3-0.9-0.3-1.8-0.7-2.6
				c-0.6-1.1-1.3-2.2-1.9-3.3c-0.3-0.5-0.8-1-1.1-1.5c-0.3-0.5-0.5-1.2-0.8-1.7c-0.4-0.8-1.3-1.3-1.9-2c-0.2-0.2-0.3-0.4-0.5-0.5
				c0,0.4,0,0.8,0.1,1.2c-0.3-0.7-0.6-1.4-0.9-2.1c0.3,0.3,0.5,0.6,0.8,0.9c0-0.2,0-0.4,0-0.6c-0.1-1.2-0.5-2-1.2-2.9
				c-0.5-0.5-1-1.1-1.5-1.6c0,0.5,0.1,0.9,0.1,1.3c-0.3-0.7-0.6-1.4-0.9-2.1c0.3,0.3,0.5,0.6,0.8,0.8c-0.1-0.8-0.2-1.7-0.5-2.3
				c-0.4-0.7-1.3-1.3-2-1.8c0.1,0.2,0.2,0.4,0.3,0.6c-0.4-0.4-0.7-0.7-1.1-1.1c0.2,0.2,0.5,0.3,0.8,0.5c-1-1.8-2.2-3.6-3.2-5.4
				c-0.2-0.4-0.5-0.9-0.7-1.3c-0.1-0.2-0.2-0.4-0.3-0.6c0,0.1,0,0.1,0,0.2c0.1,0.5-0.2-0.5-0.2-0.5c0.1,0.1,0.1,0.2,0.2,0.3
				c0-0.1-0.1-0.3-0.1-0.4c-0.2-0.8-0.3-1.5-0.8-2.1c-0.2-0.3-0.4-0.6-0.7-0.9c0,0,0-0.1-0.1-0.1c0,0.1,0,0.2,0.1,0.2
				c0.1,0.6-0.1-0.3-0.2-0.4c0.1,0,0.1,0.1,0.1,0.2c-0.3-1-0.5-1.9-1.2-2.7c-0.3,0.2-0.5,0.4-0.8,0.6c0,0.1,0,0.2,0,0.3
				c0-0.1-0.1-0.1-0.1-0.2c-0.5,0.4-1,0.7-1.4,1.1c0.3-0.6,0.7-1.2,1-1.8c-0.3-0.6-0.7-1.1-1-1.7c0.5,0.3,0.9,0.7,1.4,1
				c0,0,0-0.1,0-0.1c0,0,0,0.1,0,0.1c0.1,0.1,0.2,0.1,0.2,0.2c0.2,0.1,0.3,0.3,0.5,0.4c0.4-0.2,0.8-0.5,1.3-0.7
				c-0.2,0.2-0.4,0.3-0.7,0.5c0.8-0.3,1.6-0.6,2.4-0.9c0.8-0.3,1.5-0.6,2.2-1.2c0.3-0.2,0.5-0.5,0.8-0.7c-0.3,0.1-0.6,0.2-0.9,0.3
				c0.4-0.3,0.9-0.5,1.3-0.8c-0.2,0.1-0.3,0.3-0.5,0.4c0.4-0.1,0.7-0.3,1.1-0.4c0.7-0.2,1.4-0.2,2.1-0.4c1.1-0.3,2.2-0.8,3.1-1.5
				c0.3-0.2,0.6-0.5,0.9-0.7c0,0,0,0,0,0c0,0,0.7-0.6,0.5-0.4c-0.1,0.1-0.3,0.2-0.4,0.3c0,0,0,0-0.1,0.1c0.1,0,0.2-0.1,0.3-0.1
				c0.4-0.2,0.8-0.4,1.1-0.6c-0.1,0-0.2,0.1-0.3,0.1c-0.2,0.1,0.9-0.5,0.4-0.2c0,0-0.1,0.1-0.2,0.1c0.1,0,0.2-0.1,0.4-0.1
				c0.7-0.3,1.4-0.5,2.1-0.8c0.9-0.4,1.7-0.8,2.6-1.2c0.1,0,0.1-0.1,0.2-0.1c0,0-0.1,0-0.1,0c-0.3-0.1,0.7-0.4,0.5-0.2
				c-0.1,0.1-0.2,0.2-0.4,0.2c0.4,0.1,1-0.2,1.3-0.2c0.8-0.1,1.6-0.2,2.4-0.4c0.9-0.3,1.9-0.8,2.8-1.3c1.1-0.5,1.6-1.9,1.4-3
				c-0.2-1.3-1-2-2.1-2.5c-0.9-0.4-1.8-0.7-2.8-1c0.3,0.4,0.5,0.7,0.8,1.1c-0.6-0.5-1.2-0.9-1.8-1.4c0.4,0.1,0.7,0.2,1,0.3
				c-0.1-0.1-0.2-0.3-0.3-0.4c-0.6-0.9-1.4-1.4-2.4-1.8c-1-0.4-2.1-0.8-3.2-1c0,0,0,0,0,0c0.1,0,0.1,0.1,0.2,0.1
				c0.1,0.1,0.2,0.1,0.4,0.2c0.4,0.2-0.8-0.3-0.6-0.2c-0.2-0.1-0.5-0.2-0.7-0.3c-0.4-0.2-0.7-0.4-1.1-0.6c-0.8-0.4-1.6-0.8-2.4-1.1
				c0.1,0.1,0.2,0.3,0.3,0.4c-0.4-0.3-0.9-0.5-1.3-0.8c0.3,0.1,0.7,0.2,1,0.3c-0.3-0.4-0.6-0.8-1-1.1c-0.9-0.9-2-0.9-3.1-1.2
				c-0.6-0.2-1.2-0.5-1.8-0.7c0.1,0,0.2,0.1,0.3,0.1c-0.1,0-0.3-0.1-0.4-0.2c-0.1-0.1-0.3-0.1-0.4-0.2c0.2,0.3,0.4,0.6,0.6,0.9
				c-0.4-0.4-0.7-0.7-1.1-1.1c0.2,0.1,0.3,0.1,0.5,0.2c-0.6-1-1.3-1.8-2.4-2.3c-0.8-0.3-1.6-0.6-2.4-0.9c-0.3-0.1-0.6-0.2-0.9-0.3
				c-0.1,0-0.1,0-0.2,0c0.2,0.1,0.3,0.1,0.5,0.2c0.2,0.1-0.8-0.3-0.5-0.2c-0.1-0.1-0.2-0.1-0.4-0.2c-0.1,0.5-0.3,1-0.6,1.5
				c-0.4,0.5-0.7,1-1.1,1.4c-0.6-1.5-1.2-2.9-1.8-4.4c1,0.4,1.9,0.8,2.9,1.2c0.2,0.1,0.4,0.2,0.6,0.3c0.1-0.3,0.1-0.6,0.1-0.9
				c0-0.3,0-0.6,0.1-0.9c0,0,0,0,0,0.1c-0.2,0.5,0.1-1.1,0-0.3c0,0.1,0,0.1,0,0.2c0.1-0.3,0.2-0.6,0.3-1c-0.2,0.2-0.4,0.5-0.6,0.7
				c0.3-0.4,0.5-0.9,0.8-1.3c-0.1,0.2-0.1,0.4-0.1,0.6c0.5-0.6,1-1.2,1.3-1.8c0.2-0.6,0.3-1.3,0.3-2c-0.3,0.3-0.6,0.6-0.9,0.9
				c0.3-0.7,0.6-1.4,0.9-2.1c0,0.4,0,0.8,0,1.2c0.6-0.6,1.1-1.2,1.3-1.9c0.2-0.6,0.1-1.2,0.1-1.8c0-0.2,0-0.5,0-0.7c0,0,0-0.1,0-0.1
				c0,0.2-0.1,0.3-0.1,0.5c0,0.2,0.1-1,0.1-0.5c0.1-0.3,0.1-0.7,0.1-1c-0.1,0.1-0.1,0.3-0.2,0.3c0.2-0.1,0.3-1,0.2-0.4c0,0,0,0,0,0
				c0-0.1,0.1-0.2,0.1-0.2c0.6-0.9,1-1.8,1.2-2.8c0.2-0.8,0.3-1.6,0.5-2.4c0.2-0.7,0.5-1.4,0.7-2.1c-0.5,1.5,0,0,0.2-0.4
				c0.2-0.5,0.4-0.9,0.6-1.4c0.1-0.3,0.3-0.7,0.4-1c0,0,0,0,0,0c0,0,0,0,0,0c0-0.1,0.1-0.2,0.1-0.3c0.2-0.6,0,0.2-0.1,0.3
				c0,0,0,0,0,0c0.1-0.1,0.3-0.4,0.4-0.5c0.4-0.6,0.9-1.1,1.1-1.8c0.2-0.6,0.1-1.3,0.1-2c0-0.1,0-0.2,0-0.3c0,0,0,0.1,0,0.1
				c0,0.1,0,0.1,0,0c0-0.1,0-0.2,0-0.3c0-0.1,0-0.1,0-0.2c-0.1,0.1-0.1,0.1-0.2,0.2c0.1-0.1,0.1-0.2,0.2-0.3c0,0,0,0,0,0
				c0,0,0,0,0,0c0.2-0.3,0.4-0.7,0.6-1c-0.1,0.2-0.2,0.5-0.3,0.7c0.3-0.4,0.7-0.8,1-1.3c0.6-0.8,0.7-2,0.8-3c0,0.1,0,0,0.1-0.7
				c0,0.2,0,0.5-0.1,0.7c0-0.1,0.1-0.8,0.1-1c0-0.3,0.1-0.6,0.1-0.9c0.1-0.7,0.3-1.3,0.5-2c0.1-0.4,0.2-0.7,0.3-1.1
				c0,0.1-0.1,0.1-0.1,0.2c0.1-0.1,0.1-0.2,0.2-0.3c0,0,0-0.1,0-0.1c0.1-0.3,0.1-0.3,0.1-0.2c0.3-0.6,0.7-1.2,1.1-1.8
				c0.9-1.4,1.5-3,2-4.6c0.5-1.4,0.7-2.8,0.9-4.2c-0.1,0.2-0.2,0.3-0.3,0.5c0.1-0.5,0.3-1,0.4-1.5c0,0.3,0,0.7-0.1,1
				c0.2-0.3,0.4-0.6,0.6-0.9c0.5-0.8,0.5-1.6,0.6-2.4c0-0.2,0-0.4,0.1-0.6c-0.2,0.3-0.1-0.3,0-0.5c-0.1,0.1-0.1,0.1-0.2,0.2
				c0.3-0.4,0.5-0.9,0.8-1.3c-0.1,0.2-0.2,0.5-0.2,0.7c0.3-0.3,0.6-0.6,0.8-0.9c1.1-1.2,1.2-3.1,0-4.2c-1.1-1.1-3.2-1.2-4.2,0
				c-0.4,0.4-0.8,0.9-1.2,1.3c-0.6,0.7-0.9,1.4-1.2,2.3c-0.3,0.9-0.5,1.8-0.6,2.8c0.1-0.2,0.2-0.3,0.3-0.5c-0.1,0.5-0.3,1-0.4,1.5
				c0-0.4,0.1-0.7,0.1-1.1c-0.5,0.7-1,1.4-1.1,2.3c-0.1,0.4-0.1,0.9-0.1,1.3c0,0.1,0,0.3,0,0.4c0,0,0-0.1,0.1-0.1
				c-0.1,0-0.1,1.1-0.1,0.4c0-0.1,0-0.2,0-0.3c-0.1,0.2-0.2,1-0.3,1.2c-0.1,0.3-0.1,0.5-0.2,0.8c-0.2,0.6-0.4,1.3-0.7,1.9
				c-0.1,0.3-0.2,0.5-0.3,0.8c0.1-0.1-0.4,0.9-0.2,0.5c0.1-0.2,0.1-0.3,0.2-0.5c0,0,0,0,0,0c-0.1,0.1-0.3,0.4-0.4,0.6
				c-0.4,0.6-0.7,1.2-1.1,1.8c-0.8,1.5-1.2,3-1.6,4.6c-0.3,1.4-0.5,2.8-0.6,4.1c0.2-0.3,0.5-0.6,0.7-0.9c-0.3,0.7-0.6,1.4-0.9,2.1
				c0-0.4,0.1-0.8,0.1-1.2c-0.1,0.1-0.2,0.3-0.3,0.4c-0.6,0.7-0.9,1.5-1.2,2.3c-0.4,0.9-0.5,1.8-0.5,2.7c0.1-0.2,0.3-0.3,0.4-0.5
				c-0.1,0.5-0.3,1-0.4,1.5c0-0.4,0-0.7,0-1c-0.3,0.3-0.6,0.7-0.8,1.1c-0.4,0.6-0.6,1.4-0.9,2.1c0,0,0,0,0-0.1
				c0.4-0.7-0.4,1-0.1,0.2c0,0,0-0.1,0-0.1c-0.2,0.3-0.3,0.7-0.5,1.1c-0.3,0.7-0.6,1.4-0.9,2.1c-0.4,1-0.5,2.1-0.8,3.1
				c-0.1,0.4-0.2,0.7-0.3,1.1c0,0,0,0,0,0c0.5-0.7-0.2,0.9,0,0.1c0,0,0,0,0-0.1c-0.4,0.6-1,1.4-1.2,2.1c-0.3,1.1-0.4,2.3-0.4,3.5
				c0.3-0.3,0.6-0.6,0.9-0.9c-0.3,0.7-0.6,1.4-0.9,2.1c0-0.4,0-0.8,0-1.2c-0.5,0.5-0.9,1-1.1,1.6c-0.3,0.7-0.3,1.4-0.3,2.1
				c0.3-0.4,0.6-0.7,0.9-1.1c-0.3,0.7-0.6,1.4-0.9,2.1c0-0.3,0-0.7,0-1.1c-0.1,0.1-0.1,0.2-0.2,0.3c-0.6,0.7-0.9,1.4-1.2,2.3
				c-0.3,0.9-0.4,1.9-0.5,2.8c0.1-0.1,0.2-0.3,0.3-0.4c-0.1,0.5-0.3,1-0.4,1.5c0-0.4,0-0.7,0.1-1.1c-0.3,0.5-0.7,0.9-1,1.4
				c-0.6,0.7-0.5,1.9-0.2,2.7c0.4,0.9,1,1.4,1.9,1.7c0.7,0.3,1.3,0.5,2,0.8c-1.5-0.6-0.2-0.1,0.1,0c0.3,0.1,0.6,0.3,0.9,0.4
				c1,0.4,2.1,0.8,3.1,1.1c-0.2-0.3-0.4-0.6-0.6-0.9c0.6,0.5,1.2,0.9,1.8,1.4c-0.4-0.2-0.8-0.3-1.2-0.4c0.2,0.3,0.4,0.5,0.6,0.8
				c0.7,1,1.6,1.3,2.8,1.8c1.2,0.5,2.3,0.9,3.6,1.2c-0.2-0.2-0.3-0.4-0.5-0.6c0.4,0.3,0.9,0.5,1.3,0.8c-0.3-0.1-0.6-0.1-0.9-0.2
				c0.2,0.3,0.4,0.5,0.6,0.8c0.5,0.6,1.2,0.9,2,1.2c0.3,0.1,0.6,0.2,0.9,0.3c0,0-0.1,0-0.1-0.1c-0.5-0.3,1,0.4,0.2,0.1
				c0,0-0.1,0-0.1,0c0.4,0.3,0.9,0.5,1.4,0.7c1.3,0.6,2.7,1.1,4.1,1.5c0.2-0.1,0.3-0.2,0.5-0.3c-0.1-0.1-0.2-0.3-0.3-0.4
				c0.1,0.1,0.3,0.2,0.4,0.3c0.1-0.1,0.3-0.1,0.4-0.2c0.6-0.2,1.3-0.2,2-0.3c0.3,0,0.6-0.1,0.9-0.2c0.2,0,0.5-0.1,0.7-0.1
				c0.1,0,0.1,0,0.2,0c0.1,0,0.1-0.1,0.1-0.1c0.5-0.2,0.9-0.4,1.4-0.6c0.2,1.8,0.5,3.7,0.7,5.5c-1.1-0.4-2.1-0.8-3.2-1.1
				c-1.1-0.3-1.9-0.8-2.6-1.8c-0.1-0.2-0.2-0.3-0.3-0.5c-0.3-0.1-0.6-0.2-1-0.3c-0.1,0.1-0.3,0.1-0.4,0.2c-0.2,0.1-1.4,0.7-0.6,0.4
				c0.8-0.3-0.4,0.2-0.6,0.3c-0.3,0.1-0.6,0.2-0.8,0.3c-0.8,0.3-1.7,0.6-2.6,1c-1.2,0.6-2.2,1.3-3.3,2.1c0.2-0.1,0.4-0.2,0.7-0.3
				c-0.4,0.3-0.9,0.5-1.3,0.8c0.2-0.2,0.4-0.3,0.7-0.5c-0.4,0.2-0.8,0.3-1.2,0.4c-0.7,0.2-1.4,0.2-2,0.4c-1,0.3-2.4,0.8-3.2,1.5
				c-0.4,0.3-0.7,0.6-1.1,1c0.3-0.1,0.6-0.2,0.9-0.3c-0.4,0.3-0.9,0.5-1.3,0.8c0.1-0.1,0.3-0.3,0.4-0.4c-0.7,0.3-1.4,0.6-2.1,0.9
				c-0.8,0.3-1.5,0.7-2.2,1.2c-0.3,0.2-0.5,0.4-0.8,0.6c0,0,0,0,0,0c0,0,0,0,0,0c0,0,0,0-0.1,0c-0.4,0.3-0.8,0.5,0.1,0c0,0,0,0,0,0
				c-0.6,0.4-1.3,0.9-1.8,1.4c-1,1-0.9,2.2-0.8,3.4c0,0.7,0.1,1.3,0.4,1.9c0.3,0.5,0.8,0.9,1.3,1.3c0.1,0.1,0.2,0.2,0.3,0.2
				c-0.1-0.3-0.2-0.7-0.3-1c0.5,0.6,0.9,1.2,1.4,1.8c-0.4-0.3-0.7-0.5-1.1-0.8c0.3,1,0.7,2,1.5,2.9c0,0,0,0,0,0c0-0.1,0-0.1,0-0.2
				c-0.1-0.7,0.6,0.8,0,0.2c0.1,0.4,0.2,0.7,0.3,1.1c0.2,0.7,0.5,1.4,0.9,2c0.5,0.9,1,1.9,1.6,2.8c0.6,1,1.3,1.9,1.8,2.9
				c0.6,1,0.9,1.9,1.9,2.7c0.1,0.1,0.3,0.2,0.4,0.3c-0.1-0.6-0.1-1.1-0.2-1.7c0.5,0.9,1,1.7,1.5,2.6c-0.4-0.3-0.9-0.6-1.3-0.9
				c0,0,0,0,0,0.1c0.1,1.2,0.5,2,1.3,2.9c0.5,0.5,0.9,1,1.4,1.5c0-0.4,0-0.8,0-1.2c0.3,0.7,0.6,1.4,0.9,2.1
				c-0.3-0.3-0.6-0.6-0.8-0.9c0,0.6,0,1.2,0.2,1.7c0.2,1,1.4,2.1,2.1,2.8c0.2,0.2,0.5,0.5,0.8,0.7c0-0.1,0.2,0,0.2,0.1
				c0,0.1,0,0.1,0.1,0.2c0.1,0.1,0.2,0.2,0.3,0.3c-0.1-0.1-0.2-0.1-0.3-0.2c0,0,0,0,0,0c0.4,0.8,0.7,1.4,1.2,2.1
				c0.5,0.7,0.9,1.3,1.3,2.1c0.3,0.5,0.6,1.3,1,1.7c0,0,0-0.1,0-0.1c-0.2-0.3-0.1-0.6,0,0c0,0,0,0,0,0c0,0.1,0.1,0.2,0.2,0.2
				c-0.1,0-0.1-0.1-0.2-0.2c0.1,0.2,0.1,0.5,0.2,0.7c0.1,0.3,0.1,0.6,0.2,0.9c0.4,1.1,0.8,2.3,1.6,3.2c0.2,0.2,0.4,0.5,0.6,0.7
				c-0.1-0.2,0-0.2,0.1,0c0.1,0.1,0.1,0.2,0.2,0.3c0,0,0,0,0,0c0.1,0,0.1,0.1,0.2,0.1c-0.1,0-0.1-0.1-0.1-0.1
				c0.2,0.2,0.3,0.5,0.5,0.7c0.5,0.7,1.1,1.3,1.7,1.9c-0.1-0.3-0.2-0.6-0.3-0.9c0.3,0.4,0.5,0.9,0.8,1.3c-0.2-0.2-0.3-0.3-0.5-0.5
				c0.2,0.6,0.4,1.2,0.7,1.7c0.2,0.3,0.4,0.6,0.5,0.9c0.1,0.1,0.2,0.3,0.2,0.4c0-0.1,0-0.2-0.1-0.3c-0.1-0.4,0.5,1,0.2,0.5
				c0-0.1-0.1-0.1-0.1-0.2c0.3,1.2,0.8,2.5,1.9,3.3c0.2,0.2,0.4,0.3,0.7,0.4c-0.1-0.4-0.2-0.7-0.3-1.1c0.5,0.6,0.9,1.2,1.4,1.8
				c-0.4-0.2-0.7-0.5-1.1-0.7c0.1,0.3,0.2,0.5,0.2,0.8c0.5,1.6,2.1,2.5,3.7,2.1c1.5-0.4,2.6-2.1,2.1-3.7
				C134,715.9,133.8,714.5,133,713.7z"/>
			<path class="st20" d="M109.4,684.8c0.1,0.6,0.1,1.1,0.2,1.7c0.4,0.3,0.9,0.6,1.3,0.9C110.4,686.5,109.9,685.6,109.4,684.8z"/>
			<path class="st20" d="M112.3,689.7c0,0.4,0,0.8,0,1.2c0.3,0.3,0.6,0.6,0.8,0.9C112.9,691.1,112.6,690.4,112.3,689.7z"/>
			<path class="st20" d="M115.7,696.4c-0.1-0.1-0.2-0.2-0.3-0.3c0,0.1,0,0.2,0.4,0.4C115.7,696.5,115.7,696.5,115.7,696.4
				C115.7,696.4,115.7,696.4,115.7,696.4z"/>
			<path class="st20" d="M122.9,652.8c0.1,0.1,0.2,0.3,0.3,0.4c0,0,0.1,0,0.1-0.1C123.2,653,123.1,652.9,122.9,652.8z"/>
			<path class="st20" d="M119.2,702.4C119.3,702.5,119.3,702.5,119.2,702.4c0.1,0.1,0.1,0.2,0.2,0.2
				C119.4,702.6,119.3,702.5,119.2,702.4z"/>
			<path class="st20" d="M113.3,648.5c0.2,0.2,0.3,0.4,0.5,0.6c0.3,0.1,0.6,0.1,0.9,0.2C114.1,649,113.7,648.7,113.3,648.5z"/>
			<path class="st20" d="M123.3,585.9c0.1-0.1,0.1-0.1,0.2-0.2c0-0.1,0-0.1,0,0c0.1-0.1,0.2-0.2,0.3-0.4c0.1-0.2,0.2-0.5,0.2-0.7
				C123.8,585.1,123.6,585.5,123.3,585.9z"/>
			<path class="st20" d="M117.1,651.2c0,0,0.1,0,0.1,0.1c0,0,0.1,0,0.1,0C118.2,651.6,116.6,650.9,117.1,651.2z"/>
			<path class="st20" d="M123.5,585.7C123.5,585.7,123.5,585.7,123.5,585.7c-0.1,0.3-0.2,0.9,0,0.5c0-0.1,0-0.2,0-0.4
				C123.5,585.8,123.5,585.7,123.5,585.7z"/>
			<path class="st20" d="M117.8,586.1c-0.1,0.2-0.2,0.3-0.3,0.5c0,0.3-0.1,0.7-0.1,1.1C117.5,587.1,117.6,586.6,117.8,586.1z"/>
			<path class="st20" d="M116.3,590.5C116.2,590.5,116.2,590.5,116.3,590.5c-0.1,0.2-0.1,0.3-0.1,0.4
				C116.2,591.6,116.2,590.5,116.3,590.5z"/>
			<path class="st20" d="M123.5,585.8C123.5,585.7,123.5,585.7,123.5,585.8C123.5,585.7,123.5,585.7,123.5,585.8z"/>
			<path class="st20" d="M114.7,595.2c-0.1,0.2-0.1,0.3-0.2,0.5C114.3,596.1,114.8,595.1,114.7,595.2z"/>
			<path class="st20" d="M118.1,601.2c0,0,0,0.1,0,0.1c0.1-0.2,0.2-0.3,0.2-0.4c0,0,0,0.1,0,0.1C118.2,601,118.1,601.1,118.1,601.2z
				"/>
			<path class="st20" d="M117,606.3c0-0.2,0-0.5,0.1-0.7C117,606.3,117,606.4,117,606.3z"/>
			<path class="st20" d="M121.9,590.7c0.1-0.2,0.2-0.3,0.3-0.5c0-0.3,0.1-0.7,0.1-1C122.1,589.7,122,590.2,121.9,590.7z"/>
			<path class="st20" d="M123.5,585.9c0,0.1,0,0.2,0,0.4c0,0,0,0,0,0c0.1-0.3,0.2-0.6,0.3-0.9c-0.1,0.1-0.2,0.2-0.3,0.4
				C123.5,585.7,123.5,585.8,123.5,585.9z"/>
			<path class="st20" d="M106.2,644.2c0.2,0.3,0.4,0.6,0.6,0.9c0.4,0.1,0.8,0.3,1.2,0.4C107.4,645.1,106.8,644.7,106.2,644.2z"/>
			<path class="st20" d="M111.7,605.4c-0.2,0.3-0.5,0.6-0.7,0.9c0,0.4-0.1,0.8-0.1,1.2C111.1,606.8,111.4,606.1,111.7,605.4z"/>
			<path class="st20" d="M101.8,632.6c0.3-0.7,0.6-1.4,0.9-2.1c-0.3,0.4-0.6,0.7-0.9,1.1C101.8,631.9,101.8,632.3,101.8,632.6z"/>
			<path class="st20" d="M114.9,611.2c0,0.1,0,0.1,0,0.2C114.9,611.4,114.9,611.3,114.9,611.2c0.1-0.2,0.2-0.4,0.3-0.6
				c-0.1,0.1-0.2,0.3-0.3,0.4C114.9,611.1,114.9,611.2,114.9,611.2z"/>
			<path class="st20" d="M100.3,636.5c-0.1,0.1-0.2,0.3-0.3,0.4c0,0.4-0.1,0.7-0.1,1.1C100,637.5,100.2,637,100.3,636.5z"/>
			<path class="st20" d="M107.2,615C107.2,615,107.2,615,107.2,615c0,0.1-0.1,0.1-0.1,0.2C106.9,616,107.6,614.3,107.2,615z"/>
			<path class="st20" d="M109.2,611.4c-0.1,0.2-0.2,0.3-0.4,0.5c0,0.3,0,0.7,0,1C109,612.4,109.1,611.9,109.2,611.4z"/>
			<path class="st20" d="M104.1,627c-0.3,0.3-0.6,0.6-0.9,0.9c0,0.4,0,0.8,0,1.2C103.5,628.4,103.8,627.7,104.1,627z"/>
			<path class="st20" d="M104.8,622.3C104.8,622.3,104.8,622.3,104.8,622.3c0,0.1,0,0.1,0,0.1C104.6,623.2,105.3,621.6,104.8,622.3z
				"/>
		</g>
		<path class="st10" d="M147.1,482.3c-0.1-1-0.4-1-0.5-2c-0.1-1,0-1,0-2.1c-0.1-1,0.4-1.1,0.3-2.1c-0.1-1-0.6-1-0.7-2
			c-0.1-1,0.5-1.1,0.4-2.1c-0.1-1-0.8-1-0.9-2c-0.1-1-0.1-1-0.1-2.1c-0.1-1,0.7-1.1,0.7-2.1c-0.1-1-0.9-1-1-2c-0.1-1,0.1-1,0-2.1
			c-0.1-1,0.4-1.1,0.3-2.1c-0.1-1-0.6-1-0.7-2c-0.1-1,0.4-1.1,0.3-2.1c-0.1-1-0.1-1-0.1-2.1c-0.1-1-0.7-1-0.7-2
			c-0.1-1,0.5-1.1,0.4-2.1c-0.1-1,0.1-1,0-2.1c-0.1-1,0.2-1.2-0.1-2.1c-0.7,0-1.6,0.1-2.3,0.1c-0.7,0.1-1.3,0.6-2,0.7
			c-0.7,0.1-1.3,0.4-2,0.6c-0.7,0.2-1.5-0.1-2.2,0.2c-0.7,0.3-1.3,0.6-1.9,1c-0.6,0.3-1.4,0.4-2,0.8c-0.6,0.4-1,1.1-1.5,1.5
			c-0.5,0.5-0.9,1.1-1.4,1.6c-0.5,0.5-0.9,1-1.3,1.6c-0.4,0.6-0.7,1.2-1,1.8c-0.4,0.6-0.5,1.2-0.8,1.9c-0.3,0.6-0.7,1.2-1,1.8
			c-0.2,0.7-1.1,1.1-1.2,1.8c-0.2,0.7,0.1,1.5,0,2.2c-0.1,0.7-0.7,1.3-0.7,2.1c0,0.7,0.7,1.4,0.7,2.1c0,0.7-0.3,1.4-0.2,2.1
			c0.1,0.7,0.6,1.3,0.8,1.9c0.2,0.7,0.4,1.3,0.7,1.9c0.3,0.6,0.9,1,1.2,1.6c0.4,0.6,0.5,1.3,1,1.8c0.4,0.5,0.6,1.3,1.1,1.8
			c0.5,0.5,1,1,1.5,1.4c0.5,0.5,0.8,1.2,1.4,1.6c0.6,0.4,1.6,0.1,2.2,0.4c0.6,0.4,0.7,1.5,1.3,1.9c0.6,0.3,1.4,0.4,2,0.7
			c0.6,0.3,1.2,0.8,1.9,1c0.7,0.2,1.6-0.5,2.3-0.3c0.7,0.2,1.2,0.6,1.9,0.8c0.7,0.1,1.3,0.6,2,0.7c0.7,0.1,1.3-0.1,2-0.1
			c0.3-1,0.2-1,0.1-2.1C147,483.4,147.2,483.4,147.1,482.3z"/>
		<path class="st10" d="M270.9,464.7c-0.1-0.7,0.2-1.5,0.1-2.1c-0.2-0.7-0.8-1.2-1-1.9c-0.2-0.7,0.1-1.6-0.2-2.2
			c-0.3-0.6-0.5-1.4-0.9-2c-0.4-0.6-1-1.1-1.4-1.6c-0.5-0.5-1.1-0.9-1.6-1.4c-0.5-0.5-1.1-0.9-1.7-1.3c-0.6-0.4-1.3-0.5-2-0.8
			c-0.6-0.3-1.4-0.3-2-0.5c-0.7-0.2-1.2-0.8-1.9-0.9c-0.7-0.2-1.4-0.2-2.1-0.3c-0.7-0.1-1.3-0.7-2-0.8c-0.7,0-1.8,0.3-2.5,0.3
			c-0.3,1,0.4,1.2,0.4,2.2c0,1,0.2,1,0.2,2.1c0,1,0,1,0,2.1c0,1-0.2,1-0.1,2.1c0,1-0.5,1-0.5,2.1c0,1,0.6,1,0.6,2.1c0,1,0,1,0,2.1
			c0,1-0.4,1-0.4,2.1c0,1,0.5,1,0.5,2.1c0,1-0.5,1-0.5,2.1c0,1-0.1,1-0.1,2.1c0,1,0.9,1,0.9,2.1c0,1-0.8,1-0.8,2.1c0,1,0,1,0,2.1
			c0,1,0.7,1,0.7,2.1c0,1-0.6,1-0.6,2.1c0,1,0.5,1,0.5,2.1c0,1-0.3,1-0.4,2.1c-0.1,1.1-0.3,1.1,0,2.1c0.7,0,1.5-0.2,2.1-0.3
			c0.7-0.1,1.4,0.2,2.1,0c0.7-0.2,1.5-0.1,2.1-0.3c0.6-0.2,0.9-1.5,1.5-1.8c0.6-0.3,1.3-0.4,1.9-0.8c0.6-0.4,1-0.9,1.5-1.4
			c0.5-0.4,1.7-0.2,2.2-0.6c0.5-0.5,0.3-1.6,0.7-2.1c0.4-0.5,1.2-0.8,1.6-1.4c0.4-0.6,0.7-1.2,1.1-1.8c0.3-0.6,1-1,1.3-1.7
			c0.3-0.6,0.8-1.2,1-1.9c0.2-0.7,0.1-1.4,0.3-2.1c0.1-0.7,0.4-1.4,0.4-2.1c0.1-0.7-0.2-1.4-0.2-2.1c0-0.7,0.3-1.4,0.3-2.1
			C271.8,466,271,465.3,270.9,464.7z"/>
		<path class="st10" d="M253.6,438.7c0-1-0.3-1-0.3-2.1c0-1-0.6-1.1-0.6-2.1c0-1,0.6-1,0.6-2.1c0-1-0.1-1-0.1-2.1c0-1-0.4-1-0.4-2.1
			c0-1,0.6-1,0.6-2.1c0-1-0.2-1-0.2-2.1c0-1,0-1-0.2-2c-0.6-0.5-1.1-0.7-1.5-1.2c-0.4-0.6-0.1-1.6-0.4-2.2c-0.3-0.6-1.3-1-1.5-1.7
			c-0.2-0.7,0.8-1.5,0.7-2.2c-0.1-0.7-0.4-1.3-0.3-2c0-0.7,0.1-1.3,0.2-2c0.1-0.7-0.6-1.5-0.4-2.2c0.1-0.7,1.3-1.1,1.4-1.8
			c0.1-0.7-0.4-1.5-0.2-2.2c0.1-0.7,0.7-1.3,0.8-1.9c0.1-0.7-0.3-1.5-0.2-2.1c0.1-0.7,0.1-1.4,0.2-2c0.1-0.7,0.6-1.4,0.6-2
			c0-0.7-0.5-1.3-0.6-2c-0.1-0.7,0.2-1.4,0-2.1c-0.2-0.7-0.5-0.8-0.8-1.4c0,0.7,0.2,1,0.1,1.6c-0.1,0.7-0.9,1.2-1.1,1.8
			c-0.2,0.6-0.5,1.2-0.9,1.7c-0.4,0.6-0.6,1.2-1.1,1.7c-0.4,0.5-0.5,1.4-1.1,1.8c-0.5,0.4-1.3,0.5-1.9,0.9c-0.5,0.4-0.9,1.1-1.5,1.4
			c-0.6,0.3-1.5,0-2.1,0.3c-0.6,0.3-1,1.2-1.6,1.4c-0.6,0.2-1.3,0.4-1.9,0.6c-0.6,0.2-1.3,0.3-2,0.5c-0.6,0.2-1.3,0.2-2,0.4
			c-0.6,0.2-1.4-0.2-2.1,0c-0.6,0.2-1.2,0.8-1.8,0.9c-0.7,0.2-1.3,0.2-2,0.3c-0.7,0.1-1.2,0.6-1.9,0.8c-0.7,0.1-1.3,0.5-1.9,0.6
			c-0.7,0.1-1.5-0.6-2.1-0.4c-0.7,0.1-1.3,0.7-1.9,0.8c-0.7,0.1-1.4-0.1-2.1,0c-0.7,0.1-1.2,0.7-1.9,0.8c-0.7,0.1-1.3,0.6-1.9,0.7
			c-0.7,0.1-1.4,0.1-2,0.2c-0.7,0.1-1.4,0.1-2,0.3c-0.7,0.1-1.5-0.3-2.1-0.2c-0.7,0.1-1.3,0.6-1.9,0.7c-0.7,0.1-1.3,0.7-1.9,0.8
			c-0.7,0.1-1.4,0-2,0.1c-0.7,0.1-1.3,0.6-2,0.7c-0.7,0.1-1.4-0.3-2.1-0.3c-0.7,0.1-1.3,0.7-2,0.8c-0.7,0.1-1.5-0.7-2.1-0.7
			c-0.7,0.1-1.4,0-2,0.1c-0.7,0.1-1.3,0.8-2,0.9c-0.7,0-1.4-0.4-2.1-0.4c-0.7,0-1.3,0.5-2,0.5c-0.7,0-1.4,0.2-2,0.2
			c-0.7,0-1.4-0.1-2-0.1c-0.7,0-1.4,0-2,0c-0.7,0-1.3,0-2-0.1c-0.7,0-1.3-0.7-2-0.8c-0.7,0-1.4,0.5-2.1,0.5c-0.7,0-1.3-0.5-2-0.5
			c-0.7,0-1.4,0.2-2.1,0.2c-0.7,0-1.4,0-2,0c-0.7,0-1.3-0.2-2-0.3c-0.5,0.3-1.4,0-2.1,0.4c-0.6,0.3-0.8,1.4-1.5,1.7
			c-0.6,0.3-1.6-0.2-2.3,0.1c-0.6,0.3-1.1,1.1-1.7,1.3c-0.7,0.3-1.2,0.8-1.9,1.1c-0.7,0.3-1.5,0.2-2.1,0.4c-0.7,0.3-1.5,0.4-2.1,0.7
			c-0.8,0.4-1,1.4-1.5,1.7c-0.3,0.2-0.8,0.5-1.2,1.3c-0.3,0.5-0.8,1-1.1,1.7c-0.2,0.6,0.1,1.5-0.1,2.1c-0.2,0.6-1.3,1-1.5,1.6
			c-0.2,0.6,0.3,1.6,0,2.2c-0.2,0.7-0.8,1.2-1.1,1.8c-0.3,0.7-0.2,1.5-0.4,2.1c-0.3,0.7-1.4,0.9-1.7,1.4c-0.5,0.8-1.2,1.4-1.7,1.3
			c-0.2,1,0.5,1.1,0.6,2.1c0,1-0.4,1.1-0.4,2.1c0,1,0.7,1,0.8,2.1c0,1-0.2,1-0.1,2.1c0,1,0.5,1,0.5,2.1c0,1-0.9,1.1-0.9,2.1
			c0,1,0.4,1,0.5,2.1c0,1,0.5,1,0.5,2.1c0,1-0.9,1.1-0.9,2.1c0,1,0.2,1,0.3,2.1c0,1,0,1,0,2.1c0,1,0.2,1,0.2,2.1c0,1,0.3,1,0.3,2.1
			c0,1,0.5,1,0.5,2.1c0,1-0.6,1.1-0.6,2.1c0,1,0.6,1,0.7,2.1c0,1-0.5,1.1-0.5,2.1c0,1,0.7,1,0.7,2.1c0,1-0.7,1.1-0.6,2.1
			c0,1,0.1,1,0.2,2.1c0,1,0.4,1,0.4,2.1c0,1-0.2,1.1-0.2,2.1c0,1,0.2,1,0.2,2.1c0,1-0.5,1.1-0.5,2.1c0,1,0.4,1,0.5,2.1
			c0,0.7,0.6,1.4,0.7,2c0,0.7-0.8,1.4-0.7,2.1c0.1,0.7,0.8,1.3,0.9,2c0.1,0.7,0.2,1.3,0.3,2c0.1,0.7-0.3,1.4-0.2,2.1
			c0.1,0.7,0,1.4,0.1,2.1c0.2,0.7,1.1,1.2,1.2,1.8c0.2,0.7,0.3,1.3,0.5,2c0.2,0.7,0.6,1.2,0.8,1.9c0.2,0.7-0.5,1.6-0.3,2.3
			c0.2,0.6,0.9,1.1,1.2,1.7c0.3,0.6,0.3,1.4,0.6,2c0.3,0.6,0.4,1.3,0.7,2c0.3,0.6,1.5,0.7,1.9,1.3c0.3,0.6,0,1.6,0.4,2.2
			c0.4,0.6,1.3,0.8,1.6,1.4c0.4,0.6,0.7,1.2,1.1,1.7c0.4,0.6,0.3,1.5,0.7,2.1c0.4,0.5,1.1,0.9,1.5,1.4c0.4,0.5,1.1,0.9,1.5,1.4
			c0.5,0.5,0.8,1.1,1.3,1.6c0.5,0.5,0.8,1.2,1.3,1.6c0.5,0.5,1.1,0.8,1.6,1.3c0.5,0.5,0.8,1.2,1.4,1.6c0.5,0.4,1.6,0.2,2.1,0.6
			c0.5,0.4,0.7,1.3,1.3,1.7c0.6,0.4,1.4,0.3,2,0.7c0.6,0.4,0.9,1.2,1.5,1.5c0.6,0.4,1.2,0.6,1.8,0.9c0.6,0.3,1.3,0.5,1.9,0.8
			c0.6,0.3,1.3,0.5,1.9,0.8c0.6,0.3,1.2,0.8,1.8,1c0.6,0.3,1.2,0.7,1.9,0.9c0.6,0.2,1.3,0.4,2,0.7c0.7,0.2,1.4,0.2,2,0.4
			c0.7,0.2,1.3,0.6,1.9,0.8c0.7,0.2,1.5-0.4,2.2-0.3c0.7,0.1,1.3,0.7,1.9,0.8c0.7,0.1,1.3,0.6,2,0.7c0.7,0.1,1.4-0.2,2.1-0.1
			c0.7,0,1.4,0.3,2.1,0.3c0.7,0,1.4-0.2,2.1-0.2c0.7,0,1.4,0.3,2.1,0.3c0.7,0,1.3-0.6,2-0.6c0.7-0.1,1.3-0.4,2-0.5
			c0.7-0.1,1.4-0.2,2-0.3c0.7-0.1,1.4,0.1,2.1,0c0.7-0.1,1.2-0.7,1.9-0.8c0.7-0.2,1.4,0.1,2.1-0.1c0.7-0.2,1.2-0.7,1.9-0.9
			c0.7-0.2,1.3-0.5,1.9-0.7c0.6-0.2,1.5,0.1,2.2-0.1c0.6-0.3,0.9-1.4,1.5-1.7c0.6-0.3,1.6,0.1,2.2-0.2c0.6-0.3,1.2-0.7,1.8-1
			c0.6-0.3,1.1-0.8,1.7-1.2c0.6-0.4,0.9-1.1,1.5-1.5c0.6-0.4,1.4-0.3,2-0.7c0.6-0.4,1.2-0.6,1.8-1.1c0.5-0.4,0.7-1.3,1.3-1.7
			c0.5-0.4,0.7-1.2,1.2-1.7c0.5-0.5,1.7-0.2,2.2-0.6c0.5-0.5,0.9-1.1,1.4-1.6c0.5-0.5,0.7-1.2,1.1-1.8c0.5-0.5,1.1-0.9,1.5-1.4
			c0.4-0.5,0.2-1.6,0.6-2.1c0.4-0.5,1.5-0.6,1.9-1.2c0.4-0.6,0.8-1.1,1.1-1.7c0.4-0.6,0.2-1.5,0.6-2.1c0.3-0.6,1-1,1.3-1.6
			c0.3-0.6,0.3-1.4,0.6-2c0.3-0.6,1.3-0.9,1.6-1.5c0.3-0.6,0-1.5,0.2-2.2c0.3-0.6,1-1.1,1.3-1.7c0.2-0.6,0.3-1.3,0.6-2
			c0.2-0.7,0.7-1.2,0.9-1.9c0.2-0.7-0.2-1.5-0.1-2.2c0.2-0.7,0.9-1.2,1.1-1.9c0.1-0.7,0.2-1.4,0.3-2.1c0.1-0.7,0.2-1.4,0.3-2
			c0.1-0.7,0.3-1.4,0.4-2c0.1-0.7-0.4-1.4-0.4-2.1c0-0.7,0-1.4,0-2.1c0-0.7-0.1-1.4-0.1-2.1c0-1,0.5-1,0.5-2.1c0-1-0.7-1.1-0.6-2.1
			c0-1,0.2-1,0.2-2.1c0-1,0.2-1,0.2-2.1c0-1,0-1,0-2.1c0-1,0.3-1,0.3-2.1c0-1-0.3-1-0.3-2.1c0-1,0.6-1,0.6-2.1c0-1-0.1-1-0.1-2.1
			c0-1-0.2-1-0.2-2.1c0-1-0.3-1-0.3-2.1c0-1,0.5-1,0.6-2.1c0-1-0.7-1.1-0.7-2.1c0-1,0.1-1,0.1-2.1c0-1,0.5-1,0.5-2.1
			c0-1-0.4-1-0.4-2.1c0-1,0.1-1,0.1-2.1c0-1,0.7-1,0.7-2.1c0-1-0.6-1.1-0.6-2.1c0-1,0.8-1,0.8-2.1c0-1-0.4-1-0.4-2.1
			c0-1,0.3-1,0.3-2.1C253.3,439.7,253.6,439.8,253.6,438.7z"/>
		<polygon class="st11" points="259,404.4 258.6,402.5 257.5,400.8 256.7,399 256.9,396.9 255.9,395.2 254.8,393.5 253.9,391.8 
			253.5,389.9 252.8,388 251.7,386.4 250,385.3 249.3,383.4 247.9,382.1 246.1,381.1 244.9,379.6 243.8,377.9 241.9,377.2 
			240.6,375.6 238.5,375.5 236.9,374.2 235,373.6 233,374.1 231.2,374.4 230.2,372.4 229.9,370.1 228.5,368.6 226.6,367.8 
			225.3,366.4 223.9,365.2 222.5,363.9 221.2,362.4 219.1,362.2 217.7,360.9 216,359.9 214.1,359.6 212.4,358.7 210.5,358.2 
			208.6,358.1 206.7,358 204.8,358.1 202.9,357.6 201,357.1 199.1,357 197.2,356.9 195.3,357.1 193.5,357.8 191.6,357.8 
			189.6,357.7 187.8,358.6 185.9,358.5 184.1,359.3 182.2,359.4 180.5,360.4 178.5,360.4 176.9,361.8 175.1,362.4 173.3,362.9 
			171.7,364 169.9,364.6 168.1,365.3 166.6,366.6 164.9,367.3 163.7,368.9 162.1,370 160.8,371.3 159.3,372.5 157.6,373.4 
			156.1,374.6 155,376.1 153.7,377.5 151.6,378.2 150.8,380 149.8,381.7 147.9,382.6 146.7,384.1 145.8,385.7 144.7,387.3 
			143.5,388.8 143.1,390.8 142.3,392.5 140.6,393.8 140.2,395.7 139.8,397.6 138.7,399.2 138,401 137.2,402.7 137.3,404.7 
			136.5,406.5 136,408.3 135.5,410.2 135.3,412.1 136,414.1 135.9,416 135.9,417.9 135.6,419.8 135.6,421.6 136.1,423.5 
			136.1,425.4 136.1,427.3 136.2,429.2 136.2,431.2 137.4,432.9 137.9,434.7 138.3,436.5 139,438.3 138.8,440.3 139.4,442.2 
			140.8,444.2 141.3,442 142.5,440.4 143.1,438.4 144.2,436.7 145.3,435 146.2,433.2 147.5,431.6 148.1,429.7 149.7,428.3 
			150.3,426.3 152.2,426.5 154.1,426 156,426.2 157.9,427 159.8,427 161.7,426.4 163.6,427.2 165.5,426.6 167.5,426.4 169.4,427.2 
			171.3,426.9 173.2,427.6 175.1,426.5 177,427.6 178.9,426.9 180.8,426.9 182.7,427.5 184.7,427.3 186.6,427.2 188.5,427.2 
			190.4,426.8 192.3,427.6 194.2,426.8 196.1,426.8 198,427.4 200,427.6 201.9,427 203.8,427.1 205.7,427.5 207.6,427.2 
			209.5,427.3 211.5,427.1 213.4,426.7 215.3,427.1 217.2,427.6 219.1,427.5 221,426.8 222.9,426.5 224.8,426.4 226.8,426.9 
			228.6,425.9 230.6,426.2 232.3,425.4 234.5,425.6 235.9,424.2 237.3,422.8 238.3,421.1 239.4,419.6 240.3,417.9 241.2,416.3 
			242.6,414.7 242.5,412.6 243.6,411 244.4,409.2 244.1,407.1 244.7,405.3 245.1,403.4 245.7,401.5 245.9,400.2 245.8,399.6 
			245.9,397.6 245.9,399.6 245.9,400.2 246,401.5 246.8,403.3 247,405.2 247,407.1 248.3,408.8 248.4,410.8 248.4,412.7 
			248.5,414.6 249.1,416.4 249.4,418.3 249.7,420.2 250.4,422 250.4,424 250.3,425.9 250.7,427.8 251.8,429.6 251.6,431.6 
			251.8,433.5 252.3,435.3 252.7,437.2 253.4,439 253.6,440.9 253.2,442.9 254.1,444.7 254.4,442.8 254.9,440.9 255.2,439 
			256.2,437.2 257,435.4 257.5,433.5 257.5,431.5 257.7,429.6 257.6,427.6 258.3,425.7 259,423.9 258.8,421.9 259,419.9 259.1,418 
			259.4,416.1 259.4,414.1 259.4,412.2 259.2,410.3 259.2,408.3 259.5,406.3 		"/>
		<polygon class="st11" points="245.9,397.6 245.8,399.6 245.9,400.2 245.9,399.6 		"/>
		<path class="st11" d="M224,451.5c-0.4-0.6-0.4-1.5-1-1.8c-0.6-0.4-1.4-0.2-2.1-0.2s-1.7-0.5-2.3-0.2c-0.6,0.4-0.7,1.5-1,2.1
			c-0.4,0.6-1.2,1.2-1.2,1.9c0,0.8,0.8,1.3,1.1,2c0.4,0.6,0.8,1,1.5,1.3c0.6,0.4,1.2,0.9,1.9,0.9c0.8,0,1.7,0.2,2.3-0.2
			c0.6-0.4,1.1-1.2,1.5-1.8c0.4-0.6-0.3-1.5-0.3-2.2S224.3,452.1,224,451.5z"/>
		<path class="st11" d="M179.8,450.1c-0.6-0.4-1.3-0.5-2-0.5c-0.8,0-1.6-0.1-2.2,0.3c-0.6,0.4-1.4,0.8-1.8,1.5
			c-0.4,0.6-0.1,1.5-0.1,2.3c0,0.8,0.1,1.5,0.4,2.1c0.4,0.6,1,0.9,1.6,1.3c0.6,0.4,1.2,1.3,1.9,1.3c0.8,0,1.6-0.4,2.2-0.8
			c0.6-0.4,0.7-1.3,1-2c0.4-0.6,1.2-1.1,1.2-1.9c0-0.8-0.8-1.3-1.1-1.9C180.7,451.1,180.4,450.5,179.8,450.1z"/>
		<g>
			<path class="st15" d="M190.6,500.2C190.4,500,190.8,500.3,190.6,500.2L190.6,500.2z"/>
			<path class="st15" d="M198.5,504.2c0.1-0.1,0.1-0.1,0.2-0.2c-0.2,0-0.4,0-0.6,0c-1.5-0.1,2.4,1.7,1.4,0.6
				c-0.1-0.1-0.3-0.3-0.4-0.4c-0.1,0-0.2,0-0.3,0.1C198.2,504.4,198.1,504.4,198.5,504.2z"/>
			<path class="st15" d="M199.1,504C199.1,504,199.1,504,199.1,504c-0.1-0.1-0.1-0.1-0.2-0.1c-0.1,0-0.1,0.1-0.2,0.1
				C198.9,504,199,504,199.1,504z"/>
			<path class="st15" d="M198.5,504.2c-0.5,0.2-0.3,0.2,0.3,0c0.1,0,0.3,0,0.3-0.1c0,0-0.1-0.1-0.1-0.1c-0.1,0-0.2,0-0.4,0
				C198.7,504.1,198.6,504.1,198.5,504.2z"/>
			<path class="st15" d="M207.5,501.9c0.1-0.2,0.3-0.4,0.5-0.5c-0.2,0.1-0.3,0.3-0.5,0.4C207.5,501.7,207.4,501.7,207.5,501.9
				C207.3,501.9,207.2,502.1,207.5,501.9z"/>
			<path class="st15" d="M211.5,498.9c0,0-0.1,0-0.1,0.1C210.9,499.3,212.2,498.9,211.5,498.9z"/>
			<path class="st15" d="M205.3,503.1c0.7-0.1,1.4-0.2,2.1-0.3c-0.2-0.1-0.6-0.2-0.8-0.2c-0.1,0-0.3,0-0.4-0.1
				c-0.1,0.1-0.2,0.1-0.3,0.2C205.7,502.9,205.5,503,205.3,503.1z"/>
			<path class="st15" d="M199.2,504C199.2,504,199.1,504,199.2,504C199.2,504.1,199.2,504.1,199.2,504
				C199.6,504.1,199.6,504,199.2,504z"/>
			<path class="st15" d="M211.5,498.9c0.6,0-0.6,0.4-0.1,0.1C211.4,499,211.5,498.9,211.5,498.9c0,0-0.1,0-0.1,0
				c-0.3,0-0.5,0.1-0.8,0.2c-1.2,0.4-2.2,1.2-2.9,2.3c0,0.1-0.2,0.2-0.3,0.4c0,0,0,0,0.1,0c0.2-0.1,0.3-0.3,0.5-0.4
				c-0.2,0.1-0.4,0.3-0.5,0.5c-0.3,0.2-0.2,0.1,0-0.1c-0.4,0.3-0.8,0.5-1.2,0.8c0.1,0,0.3,0,0.4,0.1c0.2,0,0.7,0.1,0.8,0.2
				c-0.7,0.1-1.4,0.2-2.1,0.3c0.2-0.1,0.4-0.2,0.6-0.3c0.1-0.1,0.2-0.1,0.3-0.2c-1-0.1-2,0-3,0.2c-0.7,0.2-1.4,0.3-2.1,0.5
				c-0.6,0.2-1.5,0.3-2.1,0.6c0,0,0.1,0.1,0.1,0.1c0,0,0,0,0.1,0.1c0,0,0,0,0.1,0c0.4,0,0.4,0,0.1,0.1c0.1,0.1,0.3,0.3,0.4,0.4
				c1,1.1-2.9-0.6-1.4-0.6c0.2,0,0.4,0,0.6,0c0.1,0,0.1-0.1,0.2-0.1c-1.5-1.2-3.4-1.3-5.2-2c-0.3-0.1-0.6-0.2-0.9-0.4
				c-0.1,0-0.3-0.1-0.4-0.2c-0.3-0.1-0.2-0.1,0.2,0.1c-0.4,0.1-1.6-1.1-1.8-1.3c-0.1,0-0.1-0.1-0.1-0.1c0.2,0.2-0.3-0.2,0,0
				c0,0-0.1-0.1-0.2-0.2c-0.8-0.6-1-0.8-1.9-1.1c-0.2-0.1-0.5-0.1-0.7-0.2c-0.1,0-0.2,0-0.3,0c0,0,0.1,0.1,0.1,0.1
				c0.3,0.2,0.2,0.2-0.3-0.1c-0.8-0.1-0.8-0.1,0,0c0,0,0,0,0,0c0.1,0,0.1,0,0.2,0c-1.7-1.1-4.4-0.2-5.3,1.5
				c-1.1,2.1-0.4,4.1,1.4,5.5c0.4,0.3,1,0.5,1.6,0.7c0.2,0,0.4,0.1,0.6,0.1c-0.2-0.2-0.5-0.3-0.7-0.5c0.8,0.3,1.2,0.5,1.2,0.6
				c0.1,0,0.2,0,0.2,0c-0.1,0-0.2,0-0.2,0c0,0-0.1,0-0.3,0c0.1,0,0.2,0,0.3,0c0,0,0,0,0,0c-0.2,0-0.3,0-0.5-0.1
				c0.1,0.1,0.3,0.2,0.4,0.3c0.3,0.2,0.6,0.4,0.9,0.6c1.4,1,2.9,1.7,4.6,2.3c0.8,0.3,1.6,0.5,2.5,0.7c0,0,0,0,0,0
				c-0.1-0.1-0.3-0.3-0.4-0.4c-0.5-0.5-0.2-0.3,1.1,0.6c-0.2,0-0.5-0.1-0.7-0.1c0,0,0.1,0.1,0.1,0.1c1.6,1.5,4.5,2,6.6,1.4
				c0.5-0.1,1.1-0.3,1.5-0.6c0,0,0,0,0.1,0c-0.1,0-0.2,0-0.2,0c0.5-0.2,0.5-0.2,0.2,0c0.1,0,0.2,0,0.3-0.1c0.7-0.2,1.5-0.4,2.2-0.6
				c0.1,0,0.2,0,0.3-0.1c-0.1,0-0.3-0.1-0.4-0.1c-0.7-0.2-0.3-0.2,1.2-0.1c-0.2,0.1-0.5,0.1-0.8,0.2c0,0,0,0,0.1,0
				c1.4,0.3,2.7,0.1,4-0.5c1.4-0.7,3.1-1.7,4.1-2.9c0.1-0.2,0.3-0.3,0.4-0.5c-0.3,0.1-0.6,0.1-0.8,0.1c-0.5,0,2.2-2.2,1.3-0.8
				c-0.1,0.2-0.3,0.5-0.5,0.7c0.6-0.1,1.2-0.4,1.6-0.7c1.7-1.2,2.7-3.5,1.4-5.5C215.8,498.8,213.3,497.7,211.5,498.9z"/>
			<path class="st15" d="M204.8,510.4c0.1,0,0.3,0.1,0.4,0.1c0.3,0,0.6-0.1,0.8-0.2C204.5,510.2,204.1,510.2,204.8,510.4z"/>
			<path class="st15" d="M187.6,498.8c0,0-0.1-0.1-0.1-0.1c-0.1,0-0.1,0-0.2,0C187.8,498.9,187.9,499,187.6,498.8z"/>
			<path class="st15" d="M202.2,511.3c0.1,0,0.2,0,0.2,0C202.7,511.1,202.6,511.1,202.2,511.3z"/>
			<path class="st15" d="M213,506.7c0.3,0,0.5-0.1,0.8-0.1c0.2-0.2,0.3-0.5,0.5-0.7C215.2,504.5,212.5,506.7,213,506.7z"/>
			<path class="st15" d="M185.1,505.9c0.2,0.2,0.5,0.3,0.7,0.5c0.2,0,0.3,0,0.5,0.1C186.2,506.4,185.8,506.2,185.1,505.9z"/>
			<path class="st15" d="M193.7,509.9c0.1,0.1,0.3,0.3,0.4,0.4c0.2,0.1,0.5,0.1,0.7,0.1C193.6,509.6,193.2,509.5,193.7,509.9z"/>
			<path class="st15" d="M186.2,506.5c-0.1,0-0.2,0-0.3,0C186.1,506.5,186.2,506.5,186.2,506.5z"/>
		</g>
		<g>
			<path class="st15" d="M205.5,478.3c-0.3-0.2-0.5-0.4-0.8-0.6c-0.6-0.4-1.3-0.5-2-0.5c-0.6,0-1.2,0.1-1.8,0.1
				c-0.6,0-1.2-0.1-1.8-0.1c-0.6,0-1.1,0.1-1.5,0.3c-0.5,0.2-0.9,0.4-1.3,0.8c-0.4,0.4-0.7,0.8-0.8,1.3c-0.3,0.5-0.4,1-0.3,1.5
				c0,0.4,0.1,0.7,0.1,1.1c0.2,0.7,0.5,1.3,1,1.8c0.3,0.2,0.5,0.4,0.8,0.6c0.6,0.4,1.3,0.5,2,0.5c0.6,0,1.2,0.1,1.8,0.1
				c0.6,0,1.2-0.1,1.8-0.1c0.6,0,1.1-0.1,1.5-0.3c0.5-0.2,0.9-0.4,1.3-0.8c0.4-0.4,0.7-0.8,0.8-1.3c0.3-0.5,0.4-1,0.3-1.5
				c0-0.4-0.1-0.7-0.1-1.1C206.3,479.4,206,478.8,205.5,478.3z"/>
		</g>
	</g>
</g>
</svg>
