<?xml version="1.0" encoding="utf-8"?>
<!-- Generator: Adobe Illustrator 24.1.3, SVG Export Plug-In . SVG Version: 6.00 Build 0)  -->
<svg version="1.1" id="レイヤー_1" xmlns="http://www.w3.org/2000/svg" xmlns:xlink="http://www.w3.org/1999/xlink" x="0px"
	 y="0px" viewBox="0 0 1440 1440" style="enable-background:new 0 0 1440 1440;" xml:space="preserve">
<style type="text/css">
	.st0{fill:#FFFFFF;}
	.st1{opacity:0.3;}
	.st2{fill:#B2E2F8;}
	.st3{fill:#FF7A44;}
	.st4{fill:#00A0E9;}
	.st5{clip-path:url(#SVGID_2_);fill:#FFFFFF;}
	.st6{clip-path:url(#SVGID_2_);}
	.st7{fill:#CBDDF2;}
	.st8{fill:#C0D7EF;}
	.st9{fill:#D8E5F5;}
	.st10{fill:#B5D1ED;}
	.st11{fill:#8AB9E3;}
	.st12{clip-path:url(#SVGID_4_);fill:#FFFFFF;}
	.st13{clip-path:url(#SVGID_4_);}
	.st14{fill:#9DC3E7;}
	.st15{clip-path:url(#SVGID_6_);fill:#FFFFFF;}
	.st16{clip-path:url(#SVGID_6_);}
	.st17{fill:#E9F0F9;}
	.st18{clip-path:url(#SVGID_8_);fill:#FFFFFF;}
	.st19{clip-path:url(#SVGID_8_);}
	.st20{fill:#505050;}
	.st21{fill:#FFAF9B;}
	.st22{fill:#FFCFBA;}
	.st23{fill:#F76E57;}
	.st24{clip-path:url(#SVGID_10_);fill:none;}
	.st25{clip-path:url(#SVGID_10_);}
	.st26{fill:#47C9DE;}
	.st27{clip-path:url(#SVGID_12_);fill:none;}
	.st28{clip-path:url(#SVGID_12_);}
	.st29{fill:#FFDA65;}
	.st30{clip-path:url(#SVGID_14_);fill:#FFFFFF;}
	.st31{clip-path:url(#SVGID_14_);}
	.st32{clip-path:url(#SVGID_16_);fill:none;}
	.st33{clip-path:url(#SVGID_16_);}
	.st34{clip-path:url(#SVGID_18_);fill:none;}
	.st35{clip-path:url(#SVGID_18_);}
	.st36{clip-path:url(#SVGID_20_);}
	.st37{clip-path:url(#SVGID_22_);}
	.st38{clip-path:url(#SVGID_24_);}
	.st39{clip-path:url(#SVGID_26_);fill:#FFFFFF;}
	.st40{clip-path:url(#SVGID_26_);fill:#505050;}
	.st41{clip-path:url(#SVGID_26_);fill:#9DC3E7;}
	.st42{clip-path:url(#SVGID_26_);fill:#FFAF9B;}
	.st43{clip-path:url(#SVGID_26_);fill:#FFCFBA;}
	.st44{clip-path:url(#SVGID_26_);}
	.st45{clip-path:url(#SVGID_28_);fill:none;}
	.st46{clip-path:url(#SVGID_28_);}
	.st47{clip-path:url(#SVGID_30_);fill:none;}
	.st48{clip-path:url(#SVGID_30_);}
	.st49{clip-path:url(#SVGID_32_);fill:none;}
	.st50{clip-path:url(#SVGID_32_);}
	.st51{clip-path:url(#SVGID_34_);fill:#FFCFBA;}
	.st52{clip-path:url(#SVGID_34_);fill:#505050;}
	.st53{clip-path:url(#SVGID_34_);fill:#B2E2F8;}
	.st54{clip-path:url(#SVGID_36_);fill:#FFFFFF;}
	.st55{clip-path:url(#SVGID_36_);fill:#505050;}
	.st56{clip-path:url(#SVGID_36_);fill:#9DC3E7;}
	.st57{clip-path:url(#SVGID_36_);fill:#FFAF9B;}
	.st58{clip-path:url(#SVGID_36_);fill:#FFCFBA;}
	.st59{clip-path:url(#SVGID_36_);}
	.st60{clip-path:url(#SVGID_38_);fill:#FFCFBA;}
	.st61{clip-path:url(#SVGID_38_);fill:#505050;}
	.st62{clip-path:url(#SVGID_38_);fill:#B2E2F8;}
	.st63{clip-path:url(#SVGID_40_);fill:none;}
	.st64{clip-path:url(#SVGID_40_);}
	.st65{clip-path:url(#SVGID_42_);fill:#FFCFBA;}
	.st66{clip-path:url(#SVGID_42_);fill:#505050;}
	.st67{clip-path:url(#SVGID_42_);fill:#B2E2F8;}
</style>
<g>
	<path class="st0" d="M1076.8,1321c0,1.5,0,3.8,0.1,5.5c0,1,0,1.8,0,2c0,0.9-0.3,1.1-1.3,1.1h-1.4c-1,0-1.3-0.2-1.3-1.1
		c0-0.2,0-1.1,0-2.2c0.1-1.6,0.1-3.8,0.1-5.3v-16.2c0-1.1-0.2-1.3-1.3-1.3h-1.5c-2,0-5,0.1-5.9,0.1c-0.8,0-0.9-0.3-0.9-1.2v-1.2
		c0-1,0.2-1.3,1.1-1.3c0.6,0,4,0.1,6,0.1h9c2,0,5.5-0.1,6-0.1c0.9,0,1.1,0.3,1.1,1.3v1.2c0,1-0.2,1.2-0.9,1.2c-0.9,0-4-0.1-5.9-0.1
		h-1.6c-1.1,0-1.3,0.2-1.3,1.3V1321z"/>
	<path class="st0" d="M1119.4,1314.3c0,9.8-7,15.5-14.9,15.5c-8.6,0-14.1-6.5-14.1-14.8c0-9.1,6-15.3,14.8-15.3
		C1113.8,1299.7,1119.4,1306,1119.4,1314.3z M1094.3,1315c0,6.5,4.1,11.2,10.4,11.2c5.9,0,10.9-4.4,10.9-11.7c0-6.5-4.2-11-10.4-11
		C1098.4,1303.4,1094.3,1308.5,1094.3,1315z"/>
	<path class="st0" d="M1129,1321c0,1.2,0,2.8,0,4.2c0,1.5,0.1,2.9,0.1,3.2c0,0.9-0.3,1.1-1.3,1.1h-1.4c-1,0-1.3-0.2-1.3-1.1
		c0-0.3,0-1.7,0.1-3.2c0-1.5,0-3.1,0-4.3v-12.5c0-1.2,0-2.7,0-4.1c0-1.7-0.1-3.1-0.1-3.4c0-0.9,0.3-1.1,1.3-1.1h1.4
		c1,0,1.3,0.2,1.3,1.1c0,0.3,0,1.8-0.1,3.4c0,1.4,0,2.9,0,4.1v4.4c0,0.5,0.1,0.7,0.3,0.7c0.2,0,0.3-0.1,0.6-0.3l5.7-6.1
		c1.8-1.9,3.6-3.8,5.7-6.2c0.7-0.8,1.1-1,2.2-1h2.4c0.6,0,0.9,0.1,0.9,0.4c0,0.2-0.1,0.3-0.4,0.6c-2.9,2.8-5,5-7.3,7.4l-2,2.1
		c-0.4,0.4-0.6,0.7-0.6,1.1c0,0.3,0.2,0.5,0.4,0.9l4.6,7.2c1.8,2.7,3.6,5.3,5.8,8.7c0.2,0.3,0.3,0.6,0.3,0.7c0,0.3-0.3,0.4-0.9,0.4
		h-2.1c-1.1,0-1.4-0.2-2-1.2c-1.7-2.9-3.2-5.2-4.9-7.7l-3.6-5.5c-0.3-0.5-0.5-0.7-0.8-0.7c-0.2,0-0.5,0.2-0.8,0.6l-3,3.2
		c-0.5,0.6-0.6,1.1-0.6,1.8V1321z"/>
	<path class="st0" d="M1164.8,1321c0,1.3,0,3.2,0,4.7c0,1.4,0.1,2.5,0.1,2.7c0,0.9-0.3,1.1-1.3,1.1h-1.5c-1,0-1.3-0.2-1.3-1.1
		c0-0.3,0-1.3,0.1-2.6c0-1.6,0-3.5,0-4.8v-2.5c0-1-0.1-1.5-0.7-2.3l-4.6-6.9c-1.7-2.6-3.6-5.2-5.8-8.2c-0.2-0.3-0.3-0.6-0.3-0.7
		c0-0.3,0.3-0.4,0.9-0.4h2.1c1.1,0,1.4,0.2,2,1.1c1.5,2.4,3,4.8,4.6,7.2l3.1,4.6c0.3,0.4,0.5,0.6,0.7,0.6c0.2,0,0.4-0.2,0.7-0.6
		l3.1-4.7c1.5-2.4,3-4.6,4.6-7.1c0.6-0.9,0.9-1.1,2-1.1h2c0.6,0,0.9,0.1,0.9,0.4c0,0.2-0.1,0.4-0.3,0.8c-2.1,2.9-3.8,5.4-5.7,8.1
		l-4.7,7c-0.6,0.9-0.7,1.3-0.7,2.3V1321z"/>
	<path class="st0" d="M1208,1314.3c0,9.8-7,15.5-14.9,15.5c-8.6,0-14.1-6.5-14.1-14.8c0-9.1,6-15.3,14.8-15.3
		C1202.5,1299.7,1208,1306,1208,1314.3z M1182.9,1315c0,6.5,4.1,11.2,10.4,11.2c5.9,0,10.9-4.4,10.9-11.7c0-6.5-4.2-11-10.4-11
		C1187.1,1303.4,1182.9,1308.5,1182.9,1315z"/>
</g>
</svg>
