<?xml version="1.0" encoding="utf-8"?>
<!-- Generator: Adobe Illustrator 24.1.3, SVG Export Plug-In . SVG Version: 6.00 Build 0)  -->
<svg version="1.1" id="レイヤー_1" xmlns="http://www.w3.org/2000/svg" xmlns:xlink="http://www.w3.org/1999/xlink" x="0px"
	 y="0px" viewBox="0 0 1440 1440" style="enable-background:new 0 0 1440 1440;" xml:space="preserve">
<style type="text/css">
	.st0{fill:#FFFFFF;}
	.st1{opacity:0.3;}
	.st2{fill:#B2E2F8;}
	.st3{fill:#FF7A44;}
	.st4{fill:#00A0E9;}
	.st5{clip-path:url(#SVGID_2_);fill:#FFFFFF;}
	.st6{clip-path:url(#SVGID_2_);}
	.st7{fill:#CBDDF2;}
	.st8{fill:#C0D7EF;}
	.st9{fill:#D8E5F5;}
	.st10{fill:#B5D1ED;}
	.st11{fill:#8AB9E3;}
	.st12{clip-path:url(#SVGID_4_);fill:#FFFFFF;}
	.st13{clip-path:url(#SVGID_4_);}
	.st14{fill:#9DC3E7;}
	.st15{clip-path:url(#SVGID_6_);fill:#FFFFFF;}
	.st16{clip-path:url(#SVGID_6_);}
	.st17{fill:#E9F0F9;}
	.st18{clip-path:url(#SVGID_8_);fill:#FFFFFF;}
	.st19{clip-path:url(#SVGID_8_);}
	.st20{fill:#505050;}
	.st21{fill:#FFAF9B;}
	.st22{fill:#FFCFBA;}
	.st23{fill:#F76E57;}
	.st24{clip-path:url(#SVGID_10_);fill:none;}
	.st25{clip-path:url(#SVGID_10_);}
	.st26{fill:#47C9DE;}
	.st27{clip-path:url(#SVGID_12_);fill:none;}
	.st28{clip-path:url(#SVGID_12_);}
	.st29{fill:#FFDA65;}
	.st30{clip-path:url(#SVGID_14_);fill:#FFFFFF;}
	.st31{clip-path:url(#SVGID_14_);}
	.st32{clip-path:url(#SVGID_16_);fill:none;}
	.st33{clip-path:url(#SVGID_16_);}
	.st34{clip-path:url(#SVGID_18_);fill:none;}
	.st35{clip-path:url(#SVGID_18_);}
	.st36{clip-path:url(#SVGID_20_);}
	.st37{clip-path:url(#SVGID_22_);}
	.st38{clip-path:url(#SVGID_24_);}
	.st39{clip-path:url(#SVGID_26_);fill:#FFFFFF;}
	.st40{clip-path:url(#SVGID_26_);fill:#505050;}
	.st41{clip-path:url(#SVGID_26_);fill:#9DC3E7;}
	.st42{clip-path:url(#SVGID_26_);fill:#FFAF9B;}
	.st43{clip-path:url(#SVGID_26_);fill:#FFCFBA;}
	.st44{clip-path:url(#SVGID_26_);}
	.st45{clip-path:url(#SVGID_28_);fill:none;}
	.st46{clip-path:url(#SVGID_28_);}
	.st47{clip-path:url(#SVGID_30_);fill:none;}
	.st48{clip-path:url(#SVGID_30_);}
	.st49{clip-path:url(#SVGID_32_);fill:none;}
	.st50{clip-path:url(#SVGID_32_);}
	.st51{clip-path:url(#SVGID_34_);fill:#FFCFBA;}
	.st52{clip-path:url(#SVGID_34_);fill:#505050;}
	.st53{clip-path:url(#SVGID_34_);fill:#B2E2F8;}
	.st54{clip-path:url(#SVGID_36_);fill:#FFFFFF;}
	.st55{clip-path:url(#SVGID_36_);fill:#505050;}
	.st56{clip-path:url(#SVGID_36_);fill:#9DC3E7;}
	.st57{clip-path:url(#SVGID_36_);fill:#FFAF9B;}
	.st58{clip-path:url(#SVGID_36_);fill:#FFCFBA;}
	.st59{clip-path:url(#SVGID_36_);}
	.st60{clip-path:url(#SVGID_38_);fill:#FFCFBA;}
	.st61{clip-path:url(#SVGID_38_);fill:#505050;}
	.st62{clip-path:url(#SVGID_38_);fill:#B2E2F8;}
	.st63{clip-path:url(#SVGID_40_);fill:none;}
	.st64{clip-path:url(#SVGID_40_);}
	.st65{clip-path:url(#SVGID_42_);fill:#FFCFBA;}
	.st66{clip-path:url(#SVGID_42_);fill:#505050;}
	.st67{clip-path:url(#SVGID_42_);fill:#B2E2F8;}
</style>
<g>
	<path class="st0" d="M133.2,1227.2c0,1.2,0,2.7,0,4.1c0,1.5,0.1,3,0.1,3.3c0,0.9-0.3,1.1-1.3,1.1h-1.4c-1,0-1.3-0.2-1.3-1.1
		c0-0.3,0-1.6,0.1-3.2c0-1.5,0-3.1,0-4.3v-12.6c0-2.5-0.1-7-0.1-7.2c0-0.9,0.3-1.2,1.2-1.2c0.3,0,3.5,0.1,5.5,0.1h1.8
		c2,0,5.4-0.1,6-0.1c0.9,0,1.1,0.3,1.1,1.3v1.2c0,1-0.2,1.2-1.1,1.2c-0.6,0-3.9-0.1-6-0.1h-3.5c-1.1,0-1.3,0.2-1.3,1.3v6.1
		c0,1.1,0.2,1.3,1.3,1.3h2.6c2,0,5.4-0.1,6-0.1c0.9,0,1.1,0.3,1.1,1.3v1c0,1-0.2,1.2-0.9,1.2c-0.9,0-4.1-0.1-6.1-0.1h-2.6
		c-1.1,0-1.3,0.2-1.3,1.3V1227.2z"/>
	<path class="st0" d="M174.2,1225.9c0,6.4-5,10.3-12.2,10.3c-7.1,0-11.3-3.9-11.3-10.2v-11.3c0-1.3,0-3.1,0-4.6
		c0-1.3-0.1-2.6-0.1-2.9c0-0.9,0.3-1.1,1.3-1.1h1.5c1,0,1.3,0.2,1.3,1.1c0,0.3,0,1.5-0.1,3c0,1.5,0,3.2,0,4.4v10.7
		c0,4.4,2.9,7.2,7.8,7.2c4.8,0,8.2-2.7,8.2-7.2v-10.7c0-1.4,0-3.5,0-4.8c0-1.3-0.1-2.4-0.1-2.6c0-0.9,0.3-1.1,1.3-1.1h1.4
		c1,0,1.3,0.2,1.3,1.1c0,0.3,0,1.3-0.1,2.6c0,1.6,0,3.5,0,4.9V1225.9z"/>
	<path class="st0" d="M185,1227.2c0,1.2,0,2.8,0,4.2c0,1.5,0.1,2.9,0.1,3.2c0,0.9-0.3,1.1-1.3,1.1h-1.4c-1,0-1.3-0.2-1.3-1.1
		c0-0.3,0-1.7,0.1-3.2c0-1.5,0-3.1,0-4.3v-12.5c0-1.2,0-2.7,0-4.1c0-1.7-0.1-3.1-0.1-3.4c0-0.9,0.3-1.1,1.3-1.1h1.4
		c1,0,1.3,0.2,1.3,1.1c0,0.3,0,1.8-0.1,3.4c0,1.4,0,2.9,0,4.1v4.4c0,0.5,0.1,0.7,0.3,0.7c0.2,0,0.3-0.1,0.6-0.3l5.7-6.1
		c1.8-1.9,3.6-3.8,5.7-6.2c0.7-0.8,1.1-1,2.2-1h2.4c0.6,0,0.9,0.1,0.9,0.4c0,0.2-0.1,0.3-0.4,0.6c-2.9,2.8-5,5-7.3,7.4l-2,2.1
		c-0.4,0.4-0.6,0.7-0.6,1.1c0,0.3,0.2,0.5,0.4,0.9l4.6,7.2c1.8,2.7,3.6,5.3,5.8,8.7c0.2,0.3,0.3,0.6,0.3,0.7c0,0.3-0.3,0.4-0.9,0.4
		h-2.1c-1.1,0-1.4-0.2-2-1.2c-1.7-2.9-3.2-5.2-4.9-7.7l-3.6-5.5c-0.3-0.5-0.5-0.7-0.8-0.7c-0.2,0-0.5,0.2-0.8,0.6l-3,3.2
		c-0.5,0.6-0.6,1.1-0.6,1.8V1227.2z"/>
	<path class="st0" d="M231.7,1225.9c0,6.4-5,10.3-12.2,10.3c-7.1,0-11.3-3.9-11.3-10.2v-11.3c0-1.3,0-3.1,0-4.6
		c0-1.3-0.1-2.6-0.1-2.9c0-0.9,0.3-1.1,1.3-1.1h1.5c1,0,1.3,0.2,1.3,1.1c0,0.3,0,1.5-0.1,3c0,1.5,0,3.2,0,4.4v10.7
		c0,4.4,2.9,7.2,7.8,7.2c4.8,0,8.2-2.7,8.2-7.2v-10.7c0-1.4,0-3.5,0-4.8c0-1.3-0.1-2.4-0.1-2.6c0-0.9,0.3-1.1,1.3-1.1h1.4
		c1,0,1.3,0.2,1.3,1.1c0,0.3,0,1.3-0.1,2.6c0,1.6,0,3.5,0,4.9V1225.9z"/>
	<path class="st0" d="M266.3,1220.5c0,9.8-7,15.5-14.9,15.5c-8.6,0-14.1-6.5-14.1-14.8c0-9.1,6-15.3,14.8-15.3
		C260.7,1205.9,266.3,1212.2,266.3,1220.5z M241.2,1221.2c0,6.5,4.1,11.2,10.4,11.2c5.9,0,10.9-4.4,10.9-11.7c0-6.5-4.2-11-10.4-11
		C245.3,1209.6,241.2,1214.7,241.2,1221.2z"/>
	<path class="st0" d="M275.9,1227.2c0,1.2,0,2.8,0,4.2c0,1.5,0.1,2.9,0.1,3.2c0,0.9-0.3,1.1-1.3,1.1h-1.4c-1,0-1.3-0.2-1.3-1.1
		c0-0.3,0-1.7,0.1-3.2c0-1.5,0-3.1,0-4.3v-12.5c0-1.2,0-2.7,0-4.1c0-1.7-0.1-3.1-0.1-3.4c0-0.9,0.3-1.1,1.3-1.1h1.4
		c1,0,1.3,0.2,1.3,1.1c0,0.3,0,1.8-0.1,3.4c0,1.4,0,2.9,0,4.1v4.4c0,0.5,0.1,0.7,0.3,0.7c0.2,0,0.3-0.1,0.6-0.3l5.7-6.1
		c1.8-1.9,3.6-3.8,5.7-6.2c0.7-0.8,1.1-1,2.2-1h2.4c0.6,0,0.9,0.1,0.9,0.4c0,0.2-0.1,0.3-0.4,0.6c-2.9,2.8-5,5-7.3,7.4l-2,2.1
		c-0.4,0.4-0.6,0.7-0.6,1.1c0,0.3,0.2,0.5,0.4,0.9l4.6,7.2c1.8,2.7,3.6,5.3,5.8,8.7c0.2,0.3,0.3,0.6,0.3,0.7c0,0.3-0.3,0.4-0.9,0.4
		h-2.1c-1.1,0-1.4-0.2-2-1.2c-1.7-2.9-3.2-5.2-4.9-7.7l-3.6-5.5c-0.3-0.5-0.5-0.7-0.8-0.7c-0.2,0-0.5,0.2-0.8,0.6l-3,3.2
		c-0.5,0.6-0.6,1.1-0.6,1.8V1227.2z"/>
	<path class="st0" d="M303.3,1229.4c-0.7,1.7-1.3,3.1-2,5.2c-0.4,1.1-0.6,1.2-1.7,1.2h-1.7c-0.7,0-1-0.1-1-0.4c0-0.2,0-0.4,0.2-0.8
		c1.2-2.6,2.2-4.9,3.2-7.2l6-14.3c0.7-1.7,1.5-3.6,2.3-5.6c0.4-1.1,0.6-1.2,1.8-1.2h0.9c1.2,0,1.4,0.2,1.8,1.2
		c0.7,2,1.5,3.8,2.3,5.6l6.1,14.3c1,2.3,2,4.6,3.2,7.2c0.2,0.4,0.2,0.6,0.2,0.8c0,0.3-0.3,0.4-1,0.4h-1.9c-1.2,0-1.4-0.2-1.7-1.2
		c-0.7-2.1-1.2-3.3-1.9-5l-0.3-0.7c-0.2-0.6-0.6-0.9-1.5-0.9H305c-0.9,0-1.2,0.3-1.5,0.9L303.3,1229.4z M305.7,1223.4
		c-0.1,0.3-0.2,0.6-0.2,0.7c0,0.4,0.3,0.5,1,0.5h8.5c0.7,0,1-0.1,1-0.5c0-0.2,0-0.4-0.2-0.7l-4.6-11.1c-0.2-0.5-0.3-0.7-0.5-0.7
		c-0.1,0-0.3,0.2-0.5,0.7L305.7,1223.4z"/>
</g>
</svg>
