<?xml version="1.0" encoding="utf-8"?>
<!-- Generator: Adobe Illustrator 24.1.3, SVG Export Plug-In . SVG Version: 6.00 Build 0)  -->
<svg version="1.1" id="レイヤー_1" xmlns="http://www.w3.org/2000/svg" xmlns:xlink="http://www.w3.org/1999/xlink" x="0px"
	 y="0px" viewBox="0 0 1440 1440" style="enable-background:new 0 0 1440 1440;" xml:space="preserve">
<style type="text/css">
	.st0{fill:#B2E2F8;}
	.st1{fill:#FFFFFF;stroke:#FFFFFF;stroke-miterlimit:10;}
	.st2{fill:#FFFFFF;}
	.st3{opacity:0.3;fill:#B2E2F8;}
	.st4{fill:#514F50;}
	.st5{fill:#E0F4FC;}
	.st6{fill:#57C0F0;}
	.st7{fill:#00A0E9;}
	.st8{clip-path:url(#SVGID_2_);}
	.st9{fill:#FFAF9B;}
	.st10{fill:#FFCFBA;}
	.st11{fill:#505050;}
	.st12{fill:#E7EFF9;}
	.st13{fill:#C9DCF1;}
	.st14{fill:#8BB9E3;}
	.st15{fill:#F76E57;}
	.st16{fill:#CEDFF3;}
	.st17{clip-path:url(#SVGID_4_);fill:#FFFFFF;}
	.st18{clip-path:url(#SVGID_4_);}
	.st19{fill:#9DC3E7;}
	.st20{fill:#B5D1ED;}
	.st21{clip-path:url(#SVGID_6_);fill:#FFFFFF;}
	.st22{clip-path:url(#SVGID_6_);}
	.st23{fill:none;stroke:#B2E2F8;stroke-miterlimit:10;}
	.st24{clip-path:url(#SVGID_8_);}
	.st25{clip-path:url(#SVGID_10_);fill:#FFFFFF;}
	.st26{clip-path:url(#SVGID_10_);}
	.st27{clip-path:url(#SVGID_12_);fill:#FFFFFF;}
	.st28{clip-path:url(#SVGID_12_);}
	.st29{clip-path:url(#SVGID_14_);}
	.st30{clip-path:url(#SVGID_16_);}
</style>
<g>
	<path class="st2" d="M492.1,799.2L492.1,799.2c-1.3-1.3-1.3-3.4,0-4.7l0,0c1.3-1.3,3.4-1.3,4.7,0l0,0c1.3,1.3,1.3,3.4,0,4.7
		C495.5,800.5,493.4,800.5,492.1,799.2z M503.8,787.4L503.8,787.4c-1.3-1.3-1.3-3.4,0-4.7l0,0c1.3-1.3,3.4-1.3,4.7,0l0,0
		c1.3,1.3,1.3,3.4,0,4.7C507.2,788.7,505.1,788.7,503.8,787.4z M515.6,775.7L515.6,775.7c-1.3-1.3-1.3-3.4,0-4.7l0,0
		c1.3-1.3,3.4-1.3,4.7,0l0,0c1.3,1.3,1.3,3.4,0,4.7C519,777,516.9,777,515.6,775.7z M527.3,764L527.3,764c-1.3-1.3-1.3-3.4,0-4.7
		l0,0c1.3-1.3,3.4-1.3,4.7,0l0,0c1.3,1.3,1.3,3.4,0,4.7C530.7,765.3,528.6,765.3,527.3,764z M539.1,752.2L539.1,752.2
		c-1.3-1.3-1.3-3.4,0-4.7l0,0c1.3-1.3,3.4-1.3,4.7,0l0,0c1.3,1.3,1.3,3.4,0,4.7C542.4,753.5,540.3,753.5,539.1,752.2z M550.8,740.5
		L550.8,740.5c-1.3-1.3-1.3-3.4,0-4.7l0,0c1.3-1.3,3.4-1.3,4.7,0l0,0c1.3,1.3,1.3,3.4,0,4.7C554.2,741.8,552.1,741.8,550.8,740.5z
		 M562.5,728.7L562.5,728.7c-1.3-1.3-1.3-3.4,0-4.7l0,0c1.3-1.3,3.4-1.3,4.7,0l0,0c1.3,1.3,1.3,3.4,0,4.7
		C565.9,730,563.8,730,562.5,728.7z M574.3,717L574.3,717c-1.3-1.3-1.3-3.4,0-4.7l0,0c1.3-1.3,3.4-1.3,4.7,0l0,0
		c1.3,1.3,1.3,3.4,0,4.7C577.7,718.3,575.6,718.3,574.3,717z M586,705.3L586,705.3c-1.3-1.3-1.3-3.4,0-4.7l0,0
		c1.3-1.3,3.4-1.3,4.7,0l0,0c1.3,1.3,1.3,3.4,0,4.7C589.4,706.6,587.3,706.6,586,705.3z M597.8,693.5L597.8,693.5
		c-1.3-1.3-1.3-3.4,0-4.7l0,0c1.3-1.3,3.4-1.3,4.7,0l0,0c1.3,1.3,1.3,3.4,0,4.7S599,694.8,597.8,693.5z M609.5,681.8L609.5,681.8
		c-1.3-1.3-1.3-3.4,0-4.7l0,0c1.3-1.3,3.4-1.3,4.7,0l0,0c1.3,1.3,1.3,3.4,0,4.7C612.9,683.1,610.8,683.1,609.5,681.8z M621.2,670
		L621.2,670c-1.3-1.3-1.3-3.4,0-4.7l0,0c1.3-1.3,3.4-1.3,4.7,0l0,0c1.3,1.3,1.3,3.4,0,4.7C624.6,671.3,622.5,671.3,621.2,670z"/>
</g>
</svg>
