<?xml version="1.0" encoding="utf-8"?>
<!-- Generator: Adobe Illustrator 24.1.3, SVG Export Plug-In . SVG Version: 6.00 Build 0)  -->
<svg version="1.1" id="レイヤー_1" xmlns="http://www.w3.org/2000/svg" xmlns:xlink="http://www.w3.org/1999/xlink" x="0px"
	 y="0px" viewBox="0 0 1440 1440" style="enable-background:new 0 0 1440 1440;" xml:space="preserve">
<style type="text/css">
	.st0{fill:#FFFFFF;}
	.st1{opacity:0.3;}
	.st2{fill:#B2E2F8;}
	.st3{fill:#FF7A44;}
	.st4{fill:#00A0E9;}
	.st5{clip-path:url(#SVGID_2_);fill:#FFFFFF;}
	.st6{clip-path:url(#SVGID_2_);}
	.st7{fill:#CBDDF2;}
	.st8{fill:#C0D7EF;}
	.st9{fill:#D8E5F5;}
	.st10{fill:#B5D1ED;}
	.st11{fill:#8AB9E3;}
	.st12{clip-path:url(#SVGID_4_);fill:#FFFFFF;}
	.st13{clip-path:url(#SVGID_4_);}
	.st14{fill:#9DC3E7;}
	.st15{clip-path:url(#SVGID_6_);fill:#FFFFFF;}
	.st16{clip-path:url(#SVGID_6_);}
	.st17{fill:#E9F0F9;}
	.st18{clip-path:url(#SVGID_8_);fill:#FFFFFF;}
	.st19{clip-path:url(#SVGID_8_);}
	.st20{fill:#505050;}
	.st21{fill:#FFAF9B;}
	.st22{fill:#FFCFBA;}
	.st23{fill:#F76E57;}
	.st24{clip-path:url(#SVGID_10_);fill:none;}
	.st25{clip-path:url(#SVGID_10_);}
	.st26{fill:#47C9DE;}
	.st27{clip-path:url(#SVGID_12_);fill:none;}
	.st28{clip-path:url(#SVGID_12_);}
	.st29{fill:#FFDA65;}
	.st30{clip-path:url(#SVGID_14_);fill:#FFFFFF;}
	.st31{clip-path:url(#SVGID_14_);}
	.st32{clip-path:url(#SVGID_16_);fill:none;}
	.st33{clip-path:url(#SVGID_16_);}
	.st34{clip-path:url(#SVGID_18_);fill:none;}
	.st35{clip-path:url(#SVGID_18_);}
	.st36{clip-path:url(#SVGID_20_);}
	.st37{clip-path:url(#SVGID_22_);}
	.st38{clip-path:url(#SVGID_24_);}
	.st39{clip-path:url(#SVGID_26_);fill:#FFFFFF;}
	.st40{clip-path:url(#SVGID_26_);fill:#505050;}
	.st41{clip-path:url(#SVGID_26_);fill:#9DC3E7;}
	.st42{clip-path:url(#SVGID_26_);fill:#FFAF9B;}
	.st43{clip-path:url(#SVGID_26_);fill:#FFCFBA;}
	.st44{clip-path:url(#SVGID_26_);}
	.st45{clip-path:url(#SVGID_28_);fill:none;}
	.st46{clip-path:url(#SVGID_28_);}
	.st47{clip-path:url(#SVGID_30_);fill:none;}
	.st48{clip-path:url(#SVGID_30_);}
	.st49{clip-path:url(#SVGID_32_);fill:none;}
	.st50{clip-path:url(#SVGID_32_);}
	.st51{clip-path:url(#SVGID_34_);fill:#FFCFBA;}
	.st52{clip-path:url(#SVGID_34_);fill:#505050;}
	.st53{clip-path:url(#SVGID_34_);fill:#B2E2F8;}
	.st54{clip-path:url(#SVGID_36_);fill:#FFFFFF;}
	.st55{clip-path:url(#SVGID_36_);fill:#505050;}
	.st56{clip-path:url(#SVGID_36_);fill:#9DC3E7;}
	.st57{clip-path:url(#SVGID_36_);fill:#FFAF9B;}
	.st58{clip-path:url(#SVGID_36_);fill:#FFCFBA;}
	.st59{clip-path:url(#SVGID_36_);}
	.st60{clip-path:url(#SVGID_38_);fill:#FFCFBA;}
	.st61{clip-path:url(#SVGID_38_);fill:#505050;}
	.st62{clip-path:url(#SVGID_38_);fill:#B2E2F8;}
	.st63{clip-path:url(#SVGID_40_);fill:none;}
	.st64{clip-path:url(#SVGID_40_);}
	.st65{clip-path:url(#SVGID_42_);fill:#FFCFBA;}
	.st66{clip-path:url(#SVGID_42_);fill:#505050;}
	.st67{clip-path:url(#SVGID_42_);fill:#B2E2F8;}
</style>
<g>
	<path class="st0" d="M1349.9,1269.6c0,3.1-2.6,5.7-5.7,5.7H935.8c-3.1,0-5.7-2.6-5.7-5.7V980.5c0-3.1,2.6-5.7,5.7-5.7h408.5
		c3.1,0,5.7,2.6,5.7,5.7V1269.6z"/>
</g>
<path class="st2" d="M1282.8,998H992.9c-4.9,0-8.9,4-8.9,8.9v192.9c0,4.9,4,8.9,8.9,8.9h289.9c4.9,0,8.9-4,8.9-8.9v-192.9
	C1291.7,1002,1287.7,998,1282.8,998z"/>
<path class="st0" d="M1267.4,1014.4h-259.3c-5,0-9.1,4-9.1,8.9v160c0,4.9,4.1,8.9,9.1,8.9h259.3c5,0,9.1-4,9.1-8.9v-160
	C1276.5,1018.4,1272.4,1014.4,1267.4,1014.4z"/>
<path class="st2" d="M1099.2,1177.2c-40.1,0-72.8-32.7-72.8-72.8s32.7-72.8,72.8-72.8c40.1,0,72.8,32.7,72.8,72.8
	S1139.4,1177.2,1099.2,1177.2z M1099.2,1033.6c-39,0-70.8,31.8-70.8,70.8s31.8,70.8,70.8,70.8s70.8-31.8,70.8-70.8
	S1138.3,1033.6,1099.2,1033.6z"/>
<polygon class="st0" points="975,1158.6 867.9,1196.2 971.6,1206.3 "/>
<circle class="st0" cx="1099.2" cy="1104.4" r="71.8"/>
<g>
	<defs>
		<circle id="SVGID_39_" cx="1099.2" cy="1104.4" r="71.8"/>
	</defs>
	<use xlink:href="#SVGID_39_"  style="overflow:visible;fill:#FFFFFF;"/>
	<clipPath id="SVGID_2_">
		<use xlink:href="#SVGID_39_"  style="overflow:visible;"/>
	</clipPath>
	<circle style="clip-path:url(#SVGID_2_);fill:none;" cx="1099.2" cy="1104.4" r="71.8"/>
	<g class="st6">
		<polygon class="st26" points="1036.5,1191.2 1036.5,1191.1 1036.4,1191.1 		"/>
		<polygon class="st14" points="1163.4,1158.6 1163.2,1157.8 1163.3,1157 1162.8,1156.3 1163.1,1155.5 1162.8,1154.7 1162.5,1154 
			1162.4,1153.2 1162.1,1152.5 1161.6,1151.9 1161.4,1151.1 1161,1150.5 1160.6,1149.9 1160.3,1149.1 1159.7,1148.6 1159.2,1148 
			1158.9,1147.3 1158.2,1146.8 1157.8,1146.1 1157.2,1145.6 1156.6,1145.2 1155.9,1144.7 1155.3,1144.3 1154.8,1143.6 
			1154.1,1143.4 1153.4,1143 1152.8,1142.4 1152,1142.3 1151.3,1142 1150.7,1141.6 1150,1141.1 1149.3,1140.8 1148.6,1140.5 
			1147.9,1140.2 1147.1,1140.2 1146.4,1139.7 1145.7,1139.4 1145,1139.1 1144.2,1139.2 1143.5,1139 1142.7,1138.8 1142.1,1138.4 
			1141.3,1138.4 1140.6,1138.1 1139.8,1138 1139.2,1137.4 1138.4,1137.2 1137.7,1137.1 1137,1136.8 1136.2,1136.6 1135.5,1136.4 
			1134.7,1136.5 1134,1136.2 1133.3,1135.8 1132.6,1135.6 1131.8,1135.5 1131,1135.5 1130.3,1135.1 1129.6,1134.9 1128.8,1135.1 
			1128.1,1134.8 1127.3,1134.7 1126.6,1134.3 1125.9,1134.2 1125.1,1134 1124.4,1133.9 1123.7,1133.4 1123,1133.2 1122.1,1133.4 
			1121.5,1132.9 1120.7,1132.7 1119.9,1132.8 1119.2,1132.4 1118.5,1132.3 1117.8,1131.9 1117.1,1131.8 1116.3,1131.7 
			1115.5,1131.7 1114.8,1131.8 1114,1131.6 1113.2,1131.5 1112.5,1131.8 1111.7,1131.7 1110.9,1131.6 1110.2,1131.6 1109.4,1131.5 
			1108.6,1131.8 1107.9,1131.6 1107.1,1131.7 1106.3,1131.5 1105.6,1131.7 1104.8,1131.6 1104,1131.9 1103.3,1131.6 1102.5,1131.6 
			1101.7,1131.6 1101,1131.6 1100.2,1131.6 1099.4,1131.8 1098.7,1131.5 1097.9,1131.7 1097.1,1131.6 1096.4,1131.5 1095.6,1131.5 
			1094.8,1131.5 1094,1131.7 1093.3,1131.6 1092.5,1131.8 1091.7,1131.7 1091,1131.6 1090.2,1131.6 1089.4,1131.5 1088.7,1131.5 
			1087.9,1131.8 1087.1,1131.8 1086.4,1131.5 1085.6,1131.4 1084.8,1131.8 1084,1131.4 1083.4,1132 1082.6,1132.2 1081.8,1132.1 
			1081.1,1132.2 1080.4,1132.5 1079.6,1132.5 1078.9,1132.8 1078.2,1133.1 1077.4,1133.1 1076.6,1133.3 1075.9,1133.5 
			1075.2,1133.6 1074.5,1134 1073.7,1133.9 1073,1134.4 1072.2,1134.4 1071.6,1134.9 1070.7,1134.7 1070,1135 1069.3,1135.4 
			1068.6,1135.6 1067.8,1135.5 1067,1135.6 1066.3,1135.8 1065.6,1136.1 1064.9,1136.4 1064.1,1136.5 1063.4,1136.7 1062.6,1136.8 
			1061.9,1137.1 1061.2,1137.4 1060.5,1137.6 1059.7,1137.8 1059,1138 1058.2,1138.1 1057.5,1138.3 1056.8,1138.5 1056.1,1138.8 
			1055.4,1139.1 1054.6,1139.2 1053.9,1139.4 1053.2,1139.8 1052.4,1139.8 1051.8,1140.4 1051,1140.6 1050.3,1140.8 1049.7,1141.3 
			1048.8,1141.4 1048.2,1141.8 1047.4,1142 1046.9,1142.7 1046.2,1142.9 1045.4,1143.2 1044.8,1143.7 1044.3,1144.3 1043.5,1144.6 
			1042.9,1145.1 1042.4,1145.6 1041.9,1146.3 1041.5,1146.9 1040.7,1147.3 1040.3,1147.9 1040,1148.7 1039.5,1149.2 1039.1,1149.9 
			1038.7,1150.5 1038.1,1151.1 1038,1151.9 1037.5,1152.5 1037.3,1153.3 1037.1,1154 1036.9,1154.8 1036.8,1155.5 1036.6,1156.3 
			1036.4,1157 1036.2,1157.8 1036.2,1158.6 1036.4,1159.3 1036.5,1160.1 1036.5,1160.8 1036.3,1161.6 1036.3,1162.4 1036.2,1163.1 
			1036.2,1163.9 1036.3,1164.6 1036.2,1165.4 1036.5,1166.1 1036.4,1166.9 1036.4,1167.7 1036.5,1168.4 1036.4,1169.2 
			1036.5,1169.9 1036.3,1170.7 1036.2,1171.5 1036.3,1172.2 1036.2,1173 1036.2,1173.7 1036.2,1174.5 1036.2,1175.2 1036.6,1176 
			1036.5,1176.8 1036.3,1177.5 1036.3,1178.3 1036.5,1179 1036.3,1179.8 1036.2,1180.6 1036.3,1181.3 1036.3,1182.1 1036.2,1182.8 
			1036.4,1183.6 1036.5,1184.3 1036.2,1185.1 1036.3,1185.9 1036.6,1186.6 1036.4,1187.4 1036.6,1188.1 1036.5,1188.9 
			1036.2,1189.7 1036.4,1190.4 1036.5,1191.1 1163.2,1191.3 1163.4,1191.2 1163.3,1190.4 1163.3,1189.7 1163.4,1188.9 
			1163.3,1188.2 1163.3,1187.4 1163.4,1186.6 1163,1185.9 1163,1185.1 1163,1184.4 1163,1183.6 1163.1,1182.8 1163.4,1182.1 
			1163.3,1181.3 1163.3,1180.6 1163.4,1179.8 1163.4,1179.1 1163,1178.3 1163.2,1177.5 1163,1176.8 1163.4,1176 1163.2,1175.3 
			1163,1174.5 1163.2,1173.8 1163,1173 1163.3,1172.2 1163.1,1171.5 1163.1,1170.7 1163.4,1170 1163.3,1169.2 1163.1,1168.4 
			1163,1167.7 1163.1,1166.9 1163.4,1166.2 1163.1,1165.4 1163,1164.7 1163,1163.9 1163.2,1163.1 1163.3,1162.4 1163.4,1161.6 
			1163.1,1160.9 1163.1,1160.1 1163.1,1159.3 		"/>
		<path class="st21" d="M1118.1,1113.6c-0.3-0.3-0.3-0.3-0.7-0.3c-0.4,0-0.4,0.3-0.8,0.3c-0.4,0-0.4,0.1-0.8,0.1c-0.4,0-0.4,0-0.8,0
			c-0.4,0-0.4-0.2-0.8-0.2c-0.4,0-0.4,0-0.8,0c-0.4,0-0.4-0.1-0.8-0.1c-0.4,0-0.4,0.2-0.8,0.2c-0.4,0-0.4,0-0.8,0
			c-0.4,0-0.4-0.3-0.8-0.3c-0.4,0-0.4,0.3-0.8,0.3c-0.4,0-0.4,0.1-0.8,0.1c-0.4,0-0.4-0.1-0.8-0.1c-0.4,0-0.4,0-0.8,0
			c-0.4,0-0.4-0.2-0.8-0.2c-0.4,0-0.4,0.2-0.8,0.2c-0.4,0-0.4-0.1-0.8-0.1c-0.4,0-0.4,0.2-0.8,0.2c-0.4,0-0.4-0.2-0.8-0.2
			c-0.4,0-0.4,0.1-0.8,0.1c-0.4,0-0.4,0.1-0.8,0.1c-0.4,0-0.4,0-0.8,0c-0.4,0-0.4-0.1-0.8,0c-0.4,0-0.4,0-0.8,0
			c-0.4,0-0.4,0.1-0.8,0.1c-0.4,0-0.4,0-0.8,0c-0.4,0-0.4-0.2-0.8-0.2c-0.4,0-0.4,0-0.8,0c-0.4,0-0.4-0.1-0.8-0.1
			c-0.4,0-0.4,0.2-0.8,0.2c-0.4,0-0.4-0.3-0.8-0.3c-0.4,0-0.4,0.3-0.8,0.3c-0.4,0-0.4,0.1-0.8,0.1c-0.4,0-0.4-0.1-0.8-0.1
			c-0.4,0-0.4-0.1-0.8-0.1c-0.4,0-0.4-0.1-0.8-0.1c-0.4,0-0.4,0-0.8,0c-0.4,0-0.4-0.1-0.8-0.1c-0.4,0-0.4,0.1-0.8,0.1
			c-0.4,0-0.4,0.1-0.8,0.1c-0.4,0-0.4,0.1-0.8,0.1c-0.4,0-0.6-0.5-0.8-0.2c-0.3,0.3,0.2,0.4,0.2,0.9c0,0.4-0.3,0.4-0.3,0.8
			c0,0.4,0.2,0.4,0.3,0.8c0,0.4-0.2,0.4-0.2,0.8c0,0.4,0,0.4,0,0.8c0,0.4,0,0.4,0,0.8c0,0.4,0,0.4,0,0.8c0,0.4,0.3,0.4,0.3,0.8
			c0,0.4-0.3,0.4-0.3,0.9c0,0.4,0.2,0.4,0.3,0.8c0.2,0.2,0.3,0.4,0.4,0.6c0.2,0.2,0.5,0.3,0.7,0.5c0.2,0.2,0.2,0.6,0.4,0.8
			c0.2,0.2,0.4,0.4,0.6,0.5c0.2,0.2,0.6,0.1,0.8,0.3c0.2,0.2,0.3,0.5,0.5,0.6c0.2,0.2,0.6,0.1,0.8,0.2c0.2,0.1,0.4,0.4,0.6,0.6
			c0.2,0.1,0.6,0,0.8,0.2c0.2,0.1,0.4,0.5,0.6,0.6c0.2,0.1,0.6,0.1,0.8,0.2c0.3,0.1,0.4,0.4,0.7,0.5c0.3,0.1,0.6,0,0.8,0.1
			c0.3,0.1,0.5,0.1,0.8,0.2c0.3,0.1,0.5,0.3,0.8,0.3c0.3,0.1,0.5,0.1,0.8,0.1c0.3,0.1,0.5,0.3,0.8,0.3c0.3,0,0.6,0,0.8,0
			c0.3,0,0.5,0.2,0.8,0.2c0.3,0,0.5,0,0.8,0.1c0.3,0,0.6-0.2,0.8-0.2c0.3,0,0.5,0.3,0.8,0.3c0.3,0,0.5,0,0.8,0c0.3,0,0.5,0,0.8,0
			c0.3,0,0.5,0,0.8,0c0.3,0,0.5-0.4,0.8-0.4c0.3,0,0.5-0.1,0.8-0.1c0.3,0,0.6,0.2,0.8,0.2c0.3,0,0.5-0.1,0.8-0.1
			c0.3,0,0.6,0.1,0.8,0c0.3,0,0.5-0.1,0.8-0.1c0.3,0,0.5-0.2,0.8-0.2c0.3-0.1,0.5-0.4,0.7-0.4c0.3-0.1,0.5,0,0.8-0.1
			c0.3-0.1,0.6,0.2,0.9,0.1c0.3-0.1,0.4-0.5,0.7-0.6c0.3-0.1,0.6,0.1,0.8,0c0.3-0.1,0.5-0.3,0.7-0.4c0.3-0.1,0.6,0.1,0.9,0
			c0.3-0.1,0.3-0.5,0.6-0.7c0.2-0.1,0.6,0,0.8-0.2c0.2-0.2,0.3-0.5,0.5-0.6c0.2-0.2,0.6-0.2,0.7-0.4c0.2-0.2,0.3-0.5,0.4-0.7
			c0.2-0.2,0.2-0.5,0.4-0.7c0.1-0.2,0.2-0.5,0.3-0.8c0.1-0.2,0.4-0.4,0.5-0.7c0-0.4,0.1-0.4,0.1-0.8c0-0.4-0.1-0.4-0.1-0.8
			c0-0.4-0.2-0.4-0.1-0.8c0-0.4,0.4-0.4,0.4-0.8c0-0.4-0.3-0.4-0.3-0.8c0-0.4,0.2-0.4,0.2-0.8c0-0.4-0.1-0.4-0.1-0.8
			c0-0.4,0.2-0.4,0.2-0.8c0-0.4-0.1-0.4-0.1-0.8c0-0.4,0-0.4,0-0.8C1118.1,1113.9,1118.4,1113.9,1118.1,1113.6z"/>
		<path class="st22" d="M1122.1,1133c-0.3-0.2-0.4-0.1-0.7-0.3c-0.3-0.2-0.1-0.5-0.4-0.7c-0.3-0.2-0.4-0.1-0.7-0.4
			c-0.3-0.2-0.4-0.1-0.7-0.3c-0.3-0.2-0.3-0.3-0.6-0.5c-0.3-0.2-0.2-0.3-0.6-0.5c-0.4-0.2-0.5-0.2-0.6-0.6c-0.2-0.4,0.1-0.5,0.1-0.9
			c0-0.4-0.1-0.4-0.1-0.8c0-0.4,0.1-0.4,0.1-0.8c0-0.4-0.1-0.4-0.1-0.8c0-0.4,0-0.4,0-0.8c0-0.4,0.3-0.4,0.3-0.8
			c0-0.4-0.1-0.4-0.1-0.8c0-0.4,0.3-0.4,0.3-0.8c0-0.4-0.2-0.4-0.3-0.8c-0.1,0.2-0.3,0.4-0.4,0.6c-0.1,0.2,0,0.6-0.1,0.9
			c-0.1,0.2-0.5,0.3-0.6,0.5c-0.2,0.2-0.1,0.6-0.3,0.8c-0.2,0.2-0.4,0.4-0.6,0.6c-0.2,0.2-0.6,0.2-0.8,0.4c-0.2,0.2-0.5,0.3-0.7,0.4
			c-0.2,0.1-0.5,0.1-0.8,0.2c-0.3,0.1-0.4,0.4-0.7,0.5c-0.3,0.1-0.6,0-0.8,0.1c-0.3,0.1-0.5,0.2-0.8,0.3c-0.3,0.1-0.5,0.1-0.8,0.1
			c-0.3,0.1-0.6,0-0.8,0c-0.3,0.1-0.5,0.3-0.7,0.4c-0.3,0.1-0.6-0.1-0.8,0c-0.3,0.1-0.5,0.5-0.7,0.5c-0.3,0-0.6,0-0.8,0
			c-0.3,0-0.5,0-0.8,0.1c-0.3,0-0.5,0.1-0.8,0.1c-0.3,0-0.5,0.1-0.8,0.2s-0.5,0-0.8,0c-0.3,0-0.5-0.1-0.8-0.1
			c-0.3,0-0.5,0.3-0.8,0.3c-0.3,0-0.5-0.3-0.8-0.3c-0.3,0-0.5-0.1-0.8-0.1c-0.3,0-0.6,0.2-0.8,0.2c-0.3,0-0.5-0.1-0.8-0.1
			c-0.3,0-0.6,0.1-0.8,0.1c-0.3,0-0.5-0.1-0.8-0.1c-0.3,0-0.5-0.2-0.8-0.3c-0.3,0-0.5-0.3-0.8-0.4c-0.3-0.1-0.5-0.2-0.8-0.2
			c-0.3-0.1-0.6,0.3-0.9,0.2c-0.3-0.1-0.5-0.3-0.7-0.4c-0.3-0.1-0.5-0.2-0.8-0.3c-0.3-0.1-0.5-0.1-0.8-0.2c-0.3-0.1-0.5-0.3-0.7-0.4
			c-0.2-0.1-0.5-0.1-0.8-0.2c-0.2-0.1-0.5-0.3-0.7-0.4c-0.2-0.1-0.4-0.4-0.7-0.5c-0.2-0.1-0.5-0.3-0.7-0.4c-0.2-0.1-0.4-0.4-0.6-0.6
			c-0.2-0.2-0.5-0.2-0.7-0.4c-0.2-0.2-0.4-0.4-0.6-0.6c-0.2-0.2-0.2-0.5-0.4-0.7c-0.2-0.2-0.6-0.1-0.8-0.3c-0.2-0.2-0.2-0.5-0.3-0.7
			c-0.1,0.4,0,0.4,0,0.8c0,0.4,0,0.4,0,0.8s-0.1,0.4-0.1,0.8c0,0.4,0,0.4,0,0.8c0,0.4,0,0.4,0,0.8c0,0.4,0,0.4,0,0.8
			c0,0.4,0.1,0.4,0.1,0.8c0,0.4,0.1,0.4,0.1,0.8c0,0.4,0.2,0.4,0.2,0.8c0,0.4-0.1,0.4-0.1,0.8c0,0.4,0,0.4-0.2,0.7
			c-0.2,0.3-0.3,0.2-0.6,0.4c-0.4,0.1-0.5-0.1-0.8,0c-0.4,0.1-0.3,0.3-0.7,0.5c-0.4,0.1-0.4,0-0.8,0.2c-0.4,0.1-0.3,0.4-0.6,0.6
			c-0.4,0.1-0.5-0.2-0.9-0.1c-0.4,0.1-0.5,0-0.8,0.3c-0.3,0.3,0.4,0.1,0.9,0.4c0.2,0.1,0.3,0.5,0.5,0.7c0.2,0.1,0.6-0.1,0.9,0.1
			c0.2,0.1,0.5,0.3,0.7,0.4c0.2,0.1,0.5,0.2,0.8,0.3c0.2,0.1,0.5,0.3,0.7,0.4c0.2,0.1,0.5,0.2,0.7,0.4c0.2,0.1,0.5,0.3,0.7,0.4
			c0.2,0.1,0.5,0.2,0.8,0.3c0.2,0.1,0.4,0.5,0.6,0.6c0.3,0.1,0.6,0,0.9,0.1c0.3,0.1,0.4,0.4,0.7,0.5c0.3,0.1,0.6-0.2,0.9-0.1
			c0.3,0.1,0.5,0.3,0.7,0.4c0.3,0.1,0.6,0,0.8,0.1c0.3,0.1,0.4,0.5,0.7,0.5c0.3,0.1,0.5,0.1,0.8,0.2c0.3,0.1,0.6-0.1,0.9,0
			c0.3,0.1,0.5,0.1,0.8,0.1c0.3,0.1,0.5,0.1,0.8,0.1c0.3,0.1,0.5,0.1,0.8,0.2c0.3,0.1,0.5,0.2,0.8,0.3c0.3,0,0.5,0.1,0.8,0.1
			c0.3,0,0.5,0.2,0.8,0.2c0.3,0,0.6-0.1,0.8,0c0.3,0,0.5,0.1,0.8,0.1c0.3,0,0.5,0.1,0.8,0.1c0.3,0,0.5,0.2,0.8,0.2
			c0.3,0,0.6-0.2,0.8-0.2c0.3,0,0.6,0.2,0.8,0.1c0.3,0,0.6,0,0.8,0c0.3,0,0.5-0.3,0.8-0.3c0.3,0,0.6,0.1,0.8,0
			c0.3,0,0.6,0.2,0.8,0.2c0.3,0,0.5-0.2,0.8-0.2c0.3,0,0.5-0.1,0.8-0.1c0.3,0,0.5-0.3,0.8-0.4c0.3,0,0.6,0.1,0.8,0
			c0.3-0.1,0.6,0,0.8-0.1c0.3-0.1,0.5-0.2,0.8-0.2c0.3-0.1,0.5-0.1,0.8-0.2c0.3-0.1,0.5-0.1,0.8-0.2c0.3-0.1,0.6-0.1,0.8-0.2
			c0.3-0.1,0.5-0.2,0.8-0.3c0.3-0.1,0.5-0.3,0.7-0.4c0.3-0.1,0.6,0.1,0.9,0c0.3-0.1,0.5-0.1,0.8-0.2c0.3-0.1,0.5-0.3,0.7-0.4
			c0.3-0.1,0.4-0.5,0.6-0.6c0.3-0.1,0.6,0,0.8-0.1c0.3-0.1,0.4-0.5,0.6-0.6c0.3-0.1,0.7,0.1,0.9-0.1c0.3-0.1,0.4-0.4,0.7-0.5
			c0.3-0.1,0.5-0.3,0.7-0.4c0.3-0.2,0.5-0.2,0.7-0.4c0.5-0.3,0.8-0.1,0.6-0.4C1122.4,1133.3,1122.4,1133.3,1122.1,1133z"/>
		<path class="st22" d="M1122.5,1073.4c0-0.3,0.1-0.6,0-0.8c0-0.3,0-0.6,0-0.8c0-0.3-0.2-0.5-0.3-0.8c-0.1-0.3,0.1-0.6,0-0.9
			c-0.1-0.3-0.4-0.5-0.5-0.7c-0.1-0.3-0.2-0.5-0.3-0.8c-0.1-0.3,0-0.6-0.2-0.8c-0.1-0.2-0.6-0.3-0.7-0.5c-0.1-0.2-0.2-0.5-0.4-0.7
			c-0.2-0.2-0.4-0.4-0.6-0.6c-0.2-0.2-0.2-0.5-0.4-0.7c-0.2-0.2-0.5-0.3-0.7-0.5c-0.2-0.2-0.3-0.5-0.5-0.7c-0.2-0.2-0.5-0.3-0.7-0.5
			c-0.2-0.2-0.5-0.2-0.7-0.4c-0.2-0.2-0.3-0.5-0.5-0.7c-0.2-0.1-0.5-0.2-0.8-0.3c-0.2-0.1-0.4-0.5-0.6-0.6c-0.2-0.1-0.7,0.1-0.9,0
			c-0.2-0.1-0.4-0.4-0.7-0.5c-0.3-0.1-0.4-0.4-0.7-0.5c-0.3-0.1-0.6,0-0.8-0.1c-0.3-0.1-0.5-0.2-0.8-0.2c-0.3-0.1-0.5-0.2-0.8-0.3
			c-0.3-0.1-0.5-0.2-0.8-0.3c-0.3-0.1-0.5-0.3-0.8-0.4c-0.3-0.1-0.6,0.1-0.9,0.1c-0.3-0.1-0.5-0.3-0.8-0.3c-0.3,0-0.6,0.1-0.9,0.1
			c-0.3,0-0.5-0.3-0.8-0.4c-0.3,0-0.5-0.2-0.8-0.2c-0.3,0-0.6,0.3-0.9,0.3c-0.3,0-0.5-0.3-0.8-0.3c-0.3,0-0.6,0-0.8,0
			c-0.3,0-0.6,0.1-0.8,0.1c-0.3,0-0.6-0.1-0.8-0.1c-0.3,0-0.5,0.1-0.8,0.1c-0.3,0-0.5,0.1-0.8,0.2c-0.3,0-0.6-0.1-0.8,0
			c-0.3,0-0.6-0.2-0.8-0.2c-0.3,0-0.5,0.2-0.8,0.2c-0.3,0-0.5,0.4-0.8,0.4c-0.3,0-0.6-0.3-0.9-0.2c-0.3,0-0.5,0.5-0.7,0.5
			c-0.3,0.1-0.6-0.1-0.8,0c-0.3,0.1-0.5,0.1-0.8,0.2c-0.3,0.1-0.5,0.1-0.8,0.2c-0.3,0.1-0.6,0.1-0.8,0.2c-0.3,0.1-0.5,0.2-0.8,0.3
			c-0.3,0.1-0.5,0.3-0.7,0.4c-0.3,0.1-0.5,0.2-0.8,0.3c-0.3,0.1-0.5,0.1-0.8,0.2c-0.2,0.1-0.4,0.5-0.6,0.6c-0.2,0.1-0.5,0.2-0.7,0.3
			c-0.2,0.1-0.6,0.1-0.8,0.2c-0.2,0.1-0.3,0.5-0.6,0.6c-0.2,0.2-0.4,0.3-0.7,0.5c-0.2,0.2-0.7,0-0.9,0.2c-0.2,0.2-0.3,0.5-0.5,0.7
			c-0.2,0.2-0.5,0.2-0.7,0.4c-0.2,0.2-0.1,0.7-0.3,0.9c-0.2,0.2-0.7,0.1-0.8,0.4c-0.2,0.2-0.1,0.6-0.3,0.8c-0.2,0.2-0.3,0.4-0.5,0.7
			c-0.1,0.2-0.4,0.4-0.5,0.6c-0.1,0.2-0.1,0.5-0.3,0.8c-0.1,0.2-0.2,0.5-0.3,0.8c-0.1,0.3-0.3,0.5-0.4,0.7c-0.1,0.3-0.3,0.5-0.4,0.7
			c-0.1,0.3,0.1,0.6,0,0.9c0,0.3,0.1,0.6,0.1,0.8c0,0.3-0.3,0.5-0.3,0.8c0,0.3,0.1,0.5,0.1,0.8c0,0.4,0,0.4,0,0.8
			c0,0.4-0.1,0.4-0.1,0.8c0,0.4-0.1,0.4-0.1,0.8c0,0.4-0.1,0.4-0.1,0.8c0,0.4,0.4,0.4,0.4,0.8c0,0.4,0,0.4,0.1,0.8
			c0,0.4-0.3,0.4-0.3,0.8c0,0.4,0.4,0.4,0.4,0.8c0,0.4-0.1,0.4-0.1,0.8c0,0.4,0.2,0.4,0.2,0.8c0,0.4-0.4,0.4-0.3,0.8
			c0,0.4,0,0.4,0,0.8c0,0.4,0,0.4,0,0.8c0,0.4,0,0.4,0,0.8c0,0.4,0.3,0.4,0.3,0.8c0,0.4,0.1,0.4,0.1,0.8c0,0.4-0.2,0.4-0.2,0.8
			c0,0.4,0.1,0.4,0.1,0.8c0,0.4,0,0.4,0,0.8c0,0.4-0.2,0.4-0.2,0.8c0,0.4,0.2,0.4,0.2,0.8c0,0.4-0.2,0.4-0.2,0.8c0,0.4,0,0.4,0,0.8
			c0,0.4,0.2,0.4,0.2,0.8c0,0.4-0.1,0.4-0.1,0.8s0.2,0.4,0.2,0.8c0,0.4,0.2,0.4,0.2,0.8c0,0.4-0.4,0.4-0.3,0.8s0.1,0.4,0.1,0.8
			c0,0.4,0,0.4,0,0.8c0,0.4,0,0.4,0,0.8c0,0.4,0,0.4,0,0.8c0,0.4,0.2,0.4,0.2,0.8c0,0.4,0.1,0.4,0.1,0.8c0,0.4,0,0.4,0.1,0.8
			c0,0.3-0.1,0.6,0,0.8c0,0.3-0.1,0.6-0.1,0.8c0,0.3,0.1,0.5,0.1,0.8c0,0.3-0.2,0.6-0.1,0.9c0,0.3,0.1,0.6,0.1,0.8
			c0.1,0.3,0.3,0.5,0.3,0.8c0.1,0.3,0.2,0.5,0.3,0.8c0.1,0.3,0.1,0.5,0.2,0.8c0.1,0.3,0.2,0.5,0.3,0.8c0.1,0.3,0.3,0.5,0.4,0.7
			c0.1,0.3,0,0.6,0.1,0.8c0.1,0.3,0.5,0.4,0.6,0.6c0.1,0.2-0.1,0.7,0,0.9c0.1,0.2,0.4,0.4,0.6,0.6c0.1,0.2,0.4,0.4,0.6,0.6
			c0.2,0.2,0,0.7,0.2,0.9c0.2,0.2,0.6,0.2,0.8,0.4c0.2,0.2,0,0.7,0.2,0.9s0.4,0.4,0.6,0.6c0.2,0.2,0.4,0.4,0.6,0.6
			c0.2,0.2,0.5,0.3,0.7,0.5c0.2,0.2,0.4,0.4,0.6,0.6c0.2,0.2,0.3,0.5,0.5,0.6c0.2,0.2,0.6,0.1,0.8,0.3c0.2,0.2,0.2,0.6,0.4,0.8
			c0.2,0.2,0.5,0.2,0.7,0.4c0.2,0.2,0.4,0.3,0.7,0.5c0.2,0.1,0.7,0,0.9,0.1c0.2,0.1,0.3,0.6,0.5,0.7c0.2,0.1,0.5,0.1,0.8,0.3
			c0.3,0.1,0.5,0.2,0.8,0.3c0.3,0.1,0.5,0.2,0.8,0.3c0.3,0.1,0.5,0.4,0.7,0.4c0.3,0.1,0.6,0.1,0.8,0.1c0.3,0.1,0.5,0.1,0.8,0.2
			c0.3,0.1,0.6-0.2,0.9-0.1c0.3,0.1,0.5,0.3,0.8,0.3c0.3,0,0.5,0.2,0.8,0.2c0.3,0,0.6,0,0.8,0c0.3,0,0.5,0.3,0.8,0.3
			c0.3,0,0.6,0,0.8,0c0,0,0,0,0,0c0.3,0,0.6,0.1,0.8,0.1c0.3,0,0.6-0.1,0.8-0.1c0.3,0,0.5-0.4,0.8-0.4c0.3,0,0.6,0,0.8,0
			c0.3,0,0.6,0,0.8-0.1c0.3-0.1,0.6,0.1,0.8,0c0.3-0.1,0.5-0.3,0.8-0.4c0.3-0.1,0.5-0.3,0.7-0.4c0.3-0.1,0.5-0.1,0.8-0.2
			c0.3-0.1,0.6,0.1,0.9,0c0.3-0.1,0.4-0.4,0.7-0.6c0.3-0.1,0.5-0.2,0.8-0.3c0.2-0.1,0.6-0.1,0.8-0.3c0.2-0.1,0.3-0.5,0.6-0.7
			c0.2-0.1,0.6-0.1,0.8-0.3c0.2-0.2,0.4-0.5,0.6-0.6c0.2-0.2,0.5-0.2,0.7-0.4c0.2-0.2,0.5-0.2,0.7-0.4c0.2-0.2,0.5-0.3,0.7-0.5
			c0.2-0.2,0.5-0.3,0.6-0.5c0.2-0.2,0.4-0.4,0.6-0.6c0.2-0.2,0.2-0.5,0.4-0.7s0.4-0.4,0.6-0.6c0.2-0.2,0.3-0.4,0.5-0.7
			c0.2-0.2,0.6-0.3,0.7-0.5c0.2-0.2-0.1-0.7,0.1-0.9c0.2-0.2,0.5-0.3,0.7-0.6c0.1-0.2,0.2-0.5,0.3-0.8c0.1-0.2,0.3-0.5,0.4-0.7
			c0.1-0.2,0.2-0.5,0.3-0.8c0.1-0.3,0.3-0.5,0.4-0.7c0.1-0.3,0-0.6,0.1-0.9c0.1-0.3,0.4-0.5,0.4-0.7c0.1-0.3,0-0.6,0-0.8
			c0.1-0.3,0.2-0.5,0.3-0.8c0.1-0.3,0-0.6,0.1-0.8c0.1-0.3,0.3-0.5,0.3-0.8c0-0.3,0.1-0.5,0.2-0.8c0-0.3,0-0.6,0-0.8
			c0-0.3,0-0.5,0-0.8c0-0.3,0.3-0.5,0.3-0.8c0-0.4-0.1-0.4-0.1-0.8c0-0.4-0.1-0.4-0.1-0.8c0-0.4,0.2-0.4,0.2-0.8
			c0-0.4,0.1-0.4,0.1-0.8c0-0.4-0.3-0.4-0.3-0.8c0-0.4,0.2-0.4,0.2-0.8c0-0.4-0.2-0.4-0.2-0.8c0-0.4,0.3-0.4,0.3-0.8
			c0-0.4-0.2-0.4-0.2-0.8c0-0.4-0.1-0.4-0.1-0.8c0-0.4,0-0.4,0-0.8c0-0.4,0.1-0.4,0.1-0.8c0-0.4,0.2-0.4,0.2-0.8
			c0-0.4-0.1-0.4,0-0.8c0-0.4,0.1-0.4,0.1-0.8c0-0.4,0-0.4,0-0.8c0-0.4,0.1-0.4,0.1-0.8c0-0.4-0.4-0.4-0.4-0.8c0-0.4,0-0.4,0-0.8
			c0-0.4,0.1-0.4,0.1-0.8c0-0.4,0.2-0.4,0.2-0.8c0-0.4-0.1-0.4-0.1-0.8c0-0.4-0.1-0.4-0.1-0.8c0-0.4,0.1-0.4,0.1-0.8
			c0-0.4-0.1-0.4-0.1-0.8c0-0.4,0-0.4,0.1-0.8c0-0.4,0.1-0.4,0.1-0.8c0-0.4,0.2-0.4,0.2-0.8c0-0.4-0.2-0.4-0.2-0.8
			c0-0.4,0.2-0.4,0.2-0.8c0-0.4-0.1-0.4-0.1-0.8c0-0.4-0.2-0.4-0.1-0.8s0.1-0.4,0.2-0.8c0-0.4-0.1-0.4-0.1-0.8
			c0-0.4-0.1-0.4-0.1-0.8c0-0.4,0.4-0.4,0.4-0.8C1122.9,1073.9,1122.5,1073.6,1122.5,1073.4z"/>
		<polygon class="st0" points="1124.2,1134.6 1124.4,1133.8 1123.4,1133.6 1122.7,1133.1 1121.8,1133 1121.1,1133.4 1120.3,1133.4 
			1119.6,1133.6 1119,1134.2 1118.2,1134.4 1117.4,1134.5 1116.8,1135 1116,1135.2 1115.2,1135.2 1114.5,1135.4 1113.8,1136 
			1113,1135.9 1112.3,1136.1 1111.6,1136.6 1110.8,1136.7 1110.1,1136.9 1109.3,1137 1108.6,1137.4 1107.8,1137.4 1107.1,1137.7 
			1106.3,1137.8 1105.5,1137.7 1104.7,1137.7 1104,1138 1103.2,1138 1102.5,1138.3 1101.7,1138.2 1100.9,1138.1 1100.1,1138.3 
			1099.4,1138.4 1098.6,1138.3 1097.9,1137.9 1097.1,1138 1096.3,1137.7 1095.6,1137.6 1094.8,1137.6 1094,1137.4 1093.3,1137.2 
			1092.6,1136.6 1091.9,1136.4 1091.1,1136.3 1090.4,1136 1089.6,1136.1 1088.8,1135.9 1088.2,1135.4 1087.5,1135.1 1086.7,1135 
			1086,1134.8 1085.2,1134.6 1084.6,1134.1 1083.9,1133.8 1083.1,1133.6 1082.4,1133.4 1081.6,1133.3 1081,1132.7 1080.2,1132.6 
			1079.5,1132.3 1078.8,1132.7 1078.1,1132.5 1077.4,1132.8 1076.7,1132.9 1076.8,1133.7 1076.6,1134.5 1076.7,1135.3 1077,1136 
			1076.9,1136.8 1077,1137.6 1076.9,1138.3 1077.2,1139.1 1076.9,1139.9 1077.2,1140.6 1077.1,1141.4 1077,1142.2 1077.2,1142.9 
			1077.3,1143.7 1077.4,1144.5 1077.1,1145.3 1077.2,1146 1077.4,1146.8 1077.1,1147.6 1077.5,1148.3 1077.3,1149.1 1077.4,1149.8 
			1077.4,1150.6 1077.4,1151.4 1077.3,1152.1 1077.4,1152.9 1077.5,1153.7 1077.4,1154.4 1077.8,1155.2 1077.7,1156 1077.8,1156.7 
			1077.6,1157.5 1077.6,1158.3 1077.9,1159 1078,1159.8 1077.7,1160.6 1077.8,1161.3 1078,1162.1 1077.7,1162.9 1078,1163.6 
			1078,1164.4 1077.8,1165.2 1078,1165.9 1077.9,1166.7 1077.9,1167.5 1078.2,1168.2 1078.2,1169 1078.2,1169.8 1078.2,1170.5 
			1078.3,1171.3 1078.4,1172.1 1078.4,1172.8 1078.4,1173.6 1078.2,1174.4 1078.1,1175.1 1078.2,1175.9 1078.2,1176.7 
			1078.7,1177.4 1078.6,1178.2 1078.5,1178.9 1078.6,1179.7 1078.7,1180.5 1078.7,1181.2 1078.4,1182 1078.6,1182.8 1078.8,1183.5 
			1078.5,1184.3 1078.6,1185.1 1078.6,1185.8 1078.6,1186.6 1079,1187.4 1079,1188.1 1079,1188.9 1079,1189.7 1078.8,1190.4 
			1079,1191.2 1121.2,1191.2 1121.2,1190.4 1121.2,1189.6 1121.4,1188.9 1121.4,1188.1 1121.4,1187.4 1121.1,1186.6 1121.3,1185.8 
			1121.4,1185.1 1121.4,1184.3 1121.7,1183.5 1121.7,1182.8 1121.7,1182 1121.8,1181.2 1121.8,1180.5 1121.5,1179.7 1121.9,1178.9 
			1122,1178.2 1121.8,1177.4 1122,1176.6 1121.9,1175.9 1121.9,1175.1 1121.8,1174.3 1122.2,1173.6 1122.1,1172.8 1122,1172 
			1122,1171.3 1122.3,1170.5 1122.3,1169.7 1122.5,1169 1122.2,1168.2 1122.6,1167.5 1122.3,1166.7 1122.4,1165.9 1122.7,1165.2 
			1122.6,1164.4 1122.7,1163.6 1122.7,1162.9 1122.9,1162.1 1122.8,1161.3 1122.9,1160.6 1122.8,1159.8 1122.7,1159 1122.8,1158.3 
			1123,1157.5 1123,1156.7 1123.2,1156 1123.2,1155.2 1123,1154.4 1123.1,1153.7 1123.2,1152.9 1123.1,1152.2 1123.1,1151.4 
			1123.5,1150.6 1123.4,1149.9 1123.4,1149.1 1123.4,1148.3 1123.4,1147.6 1123.4,1146.8 1123.5,1146 1123.7,1145.3 1123.7,1144.5 
			1123.6,1143.8 1123.6,1143 1123.8,1142.2 1124,1141.5 1124.1,1140.7 1123.8,1139.9 1124,1139.2 1124,1138.4 1124,1137.7 
			1124.2,1136.9 1124,1136.1 1124.1,1135.4 		"/>
		<polygon class="st20" points="1130.4,1065.9 1130,1065.1 1129.5,1064.6 1128.9,1064.1 1128.3,1063.6 1127.7,1063.1 1127,1062.7 
			1126.6,1062.1 1125.8,1061.8 1125.2,1061.3 1124.9,1060.5 1124.2,1060.1 1123.8,1059.4 1123.1,1059 1122.6,1058.4 1122,1058 
			1121.3,1057.5 1121,1056.8 1120.5,1056.2 1120.1,1055.6 1119.4,1055.1 1118.7,1054.7 1118.3,1054.1 1117.6,1053.7 1117.2,1052.9 
			1116.6,1052.5 1115.9,1052.1 1115.3,1051.6 1114.6,1051.3 1114.1,1050.7 1113.5,1050.2 1112.9,1049.8 1112.2,1049.3 
			1111.4,1049.2 1110.8,1048.6 1110.1,1048.4 1109.4,1048 1108.6,1047.9 1107.9,1047.7 1107.1,1047.5 1106.5,1047 1105.7,1046.7 
			1105,1046.6 1104.2,1046.7 1103.4,1046.7 1102.7,1046.3 1101.9,1046.2 1101.1,1046.6 1100.4,1046.6 1099.6,1046.5 1098.9,1046.8 
			1098.1,1046.9 1097.3,1047 1096.6,1047.2 1095.9,1047.6 1095.2,1048 1094.5,1048.3 1094,1048.9 1093.3,1048.7 1092.5,1048.7 
			1091.8,1048.7 1091,1048.5 1090.2,1048.7 1089.5,1048.7 1088.7,1048.7 1087.9,1048.6 1087.2,1048.9 1086.4,1048.8 1085.7,1049.3 
			1085,1049.4 1084.2,1049.4 1083.5,1049.8 1082.7,1050 1082.1,1050.3 1081.5,1050.9 1080.8,1051.2 1080.4,1051.9 1079.5,1052.1 
			1079.2,1052.9 1078.7,1053.5 1078.4,1054.2 1077.6,1054.6 1077.5,1055.4 1076.9,1056 1076.7,1056.7 1076.5,1057.5 1076.3,1058.2 
			1075.8,1058.9 1075.7,1059.7 1075.5,1060.4 1075,1061 1074.9,1061.8 1074.7,1062.6 1074.3,1063.3 1073.8,1063.9 1073.6,1064.7 
			1073,1065.2 1072.9,1066 1072.3,1066.7 1072,1067.4 1071.9,1068.2 1071.4,1068.9 1071.1,1069.6 1071,1070.4 1070.5,1071.1 
			1070.4,1071.9 1070.2,1072.7 1070.1,1073.4 1070,1074.2 1070.3,1074.9 1070.4,1075.7 1070.7,1076.4 1070.9,1077.2 1071.2,1077.9 
			1071.8,1078.4 1072,1079.2 1072.5,1079.8 1073,1080.5 1073.6,1081 1074,1081.6 1074.4,1082.2 1074.9,1082.8 1075.1,1083.5 
			1075.7,1083.9 1076.1,1084.5 1076.7,1084.9 1077.4,1085.3 1078,1084.7 1078.6,1084.2 1078.8,1083.4 1079.1,1082.6 1079,1081.8 
			1079.1,1081 1079.6,1080.3 1079.3,1079.5 1079.5,1078.7 1079.5,1077.9 1079.6,1077.1 1080.2,1076.5 1080.2,1075.7 1080.3,1074.9 
			1080.7,1074.2 1081.2,1073.6 1081.4,1072.8 1081.7,1072.1 1082.1,1071.4 1082.8,1070.9 1083,1070.1 1083.7,1069.6 1084.1,1069 
			1084.5,1068.3 1085.2,1067.9 1085.6,1067.2 1086.2,1066.7 1086.8,1066.2 1087.3,1065.6 1087.7,1064.9 1088.4,1064.4 
			1088.9,1063.9 1089.5,1063.4 1090,1062.8 1090.8,1062.4 1091.5,1062.1 1092,1061.4 1092.7,1061.1 1093.3,1060.6 1094,1060.2 
			1094.8,1060 1095.6,1059.9 1096.3,1059.8 1097.1,1059.8 1097.9,1060.1 1098.3,1060.8 1098.8,1061.4 1098.9,1062.2 1099.4,1062.8 
			1099.6,1063.6 1099.9,1064.2 1100.2,1065 1100.4,1065.7 1100.9,1066.3 1101.4,1066.9 1101.6,1067.7 1102,1068.3 1102.6,1068.8 
			1102.8,1069.6 1103.6,1070 1104,1070.6 1104.4,1071.3 1105,1071.7 1105.2,1072.5 1105.8,1073.1 1106.3,1073.6 1107.1,1073.9 
			1107.6,1074.5 1108,1075.2 1108.6,1075.7 1109.3,1076 1109.7,1076.7 1110.4,1077 1111.1,1077.4 1111.6,1078 1112.2,1078.4 
			1112.8,1079 1113.5,1079.3 1114.1,1079.7 1114.6,1080.4 1115.4,1080.6 1115.9,1081.2 1116.7,1081.3 1117.2,1082 1117.9,1082.2 
			1118.6,1082.5 1119.3,1082.8 1120,1083.1 1120.7,1083.4 1121.2,1084.1 1122,1084.2 1122.8,1084.2 1123.6,1084.3 1124.1,1083.7 
			1124.6,1083.1 1124.8,1082.4 1125.4,1081.8 1125.5,1081 1125.9,1080.4 1126.5,1079.8 1126.7,1079 1127.1,1078.4 1127.1,1077.6 
			1127.7,1077 1127.7,1076.2 1128.1,1075.5 1128.5,1074.9 1128.4,1074 1128.7,1073.3 1129.2,1072.7 1129.4,1072 1129.4,1071.2 
			1130,1070.6 1129.9,1069.7 1130.5,1069.1 1130.8,1068.5 1131.2,1067.8 1131.2,1067.1 1131,1066.3 		"/>
		<path class="st22" d="M1079.3,1101.4c0-0.4-0.2-0.4-0.2-0.8s0-0.4,0-0.8c0-0.4,0.1-0.4,0.1-0.8c0-0.4-0.2-0.4-0.3-0.8
			c0-0.4,0.2-0.4,0.2-0.8c0-0.4-0.3-0.4-0.3-0.8c0-0.4,0-0.4,0-0.8c0-0.4,0.3-0.4,0.3-0.8c0-0.4-0.4-0.4-0.4-0.8c0-0.4,0-0.4,0-0.8
			c0-0.4,0.2-0.4,0.1-0.8c0-0.4-0.2-0.4-0.3-0.8c0-0.4,0.1-0.4,0.1-0.8c0-0.4,0-0.4,0-0.8c0-0.4-0.3-0.4-0.3-0.8
			c0-0.4,0.2-0.4,0.2-0.8c0-0.4,0-0.4,0-0.8c0-0.4,0.1-0.5-0.1-0.8c-0.3,0-0.6,0-0.9,0.1c-0.3,0-0.5,0.2-0.8,0.3
			c-0.3,0.1-0.5,0.2-0.8,0.3c-0.3,0.1-0.6,0-0.9,0.1c-0.3,0.1-0.5,0.3-0.8,0.4c-0.2,0.1-0.6,0.2-0.8,0.3c-0.2,0.2-0.4,0.4-0.6,0.6
			c-0.2,0.2-0.3,0.4-0.5,0.6c-0.2,0.2-0.4,0.4-0.5,0.6c-0.2,0.2-0.3,0.5-0.4,0.7c-0.1,0.2-0.2,0.5-0.3,0.8c-0.1,0.3-0.3,0.5-0.4,0.7
			c-0.1,0.3-0.4,0.5-0.5,0.7c-0.1,0.3,0.1,0.6,0,0.9c0,0.3-0.3,0.5-0.3,0.8c0,0.3,0.3,0.6,0.3,0.9c0,0.3-0.1,0.6-0.1,0.8
			c0,0.3,0.2,0.5,0.3,0.8c0.1,0.3,0.1,0.5,0.3,0.8c0.1,0.2,0.3,0.4,0.5,0.7c0.1,0.2,0.2,0.5,0.4,0.7c0.2,0.2,0.2,0.5,0.4,0.7
			c0.2,0.2,0.4,0.4,0.6,0.6c0.2,0.2,0.3,0.5,0.5,0.7c0.2,0.2,0.7,0,0.9,0.2c0.2,0.1,0.3,0.6,0.5,0.7c0.2,0.1,0.5,0.2,0.8,0.3
			c0.3,0.1,0.5,0.3,0.7,0.4c0.3,0.1,0.7-0.2,0.9-0.1c0.3,0.1,0.5,0.3,0.8,0.3c0.3,0.1,0.5,0.3,0.8,0.3c0.3,0,0.5,0,0.8,0
			c0.1-0.4,0.1-0.4,0-0.8C1079.2,1101.8,1079.3,1101.8,1079.3,1101.4z"/>
		<path class="st22" d="M1129.7,1092.4c0-0.3,0.1-0.6,0-0.9c-0.1-0.3-0.3-0.5-0.4-0.8c-0.1-0.3,0-0.6-0.1-0.9
			c-0.1-0.3-0.2-0.6-0.3-0.8c-0.2-0.2-0.4-0.4-0.6-0.7c-0.2-0.2-0.4-0.4-0.7-0.6c-0.2-0.2-0.5-0.3-0.7-0.5c-0.2-0.2-0.5-0.2-0.8-0.3
			c-0.3-0.1-0.5-0.1-0.8-0.2c-0.3-0.1-0.5-0.3-0.8-0.4c-0.3-0.1-0.6-0.1-0.8-0.1c-0.3,0-0.5-0.3-0.8-0.3c-0.3,0-0.7,0.1-1,0.1
			c-0.1,0.4,0.2,0.5,0.2,0.9c0,0.4,0.1,0.4,0.1,0.8c0,0.4,0,0.4,0,0.8c0,0.4-0.1,0.4-0.1,0.8c0,0.4-0.2,0.4-0.2,0.8
			c0,0.4,0.2,0.4,0.2,0.8c0,0.4,0,0.4,0,0.8c0,0.4-0.2,0.4-0.2,0.8c0,0.4,0.2,0.4,0.2,0.8c0,0.4-0.2,0.4-0.2,0.8
			c0,0.4-0.1,0.4-0.1,0.8c0,0.4,0.4,0.4,0.4,0.8c0,0.4-0.3,0.4-0.3,0.8c0,0.4,0,0.4,0,0.8c0,0.4,0.3,0.4,0.3,0.8
			c0,0.4-0.2,0.4-0.2,0.8s0.2,0.4,0.2,0.8c0,0.4-0.1,0.4-0.2,0.8c-0.1,0.4-0.1,0.5,0,0.9c0.3,0,0.6-0.1,0.9-0.1c0.3,0,0.6,0.1,0.8,0
			c0.3-0.1,0.6,0,0.8-0.1c0.3-0.1,0.3-0.6,0.6-0.7c0.2-0.1,0.5-0.2,0.8-0.3c0.2-0.1,0.4-0.4,0.6-0.5c0.2-0.2,0.7-0.1,0.9-0.3
			c0.2-0.2,0.1-0.6,0.3-0.9c0.2-0.2,0.5-0.3,0.6-0.5c0.2-0.2,0.3-0.5,0.4-0.7c0.1-0.2,0.4-0.4,0.5-0.7c0.1-0.3,0.3-0.5,0.4-0.7
			c0.1-0.3,0.1-0.6,0.1-0.8c0.1-0.3,0.1-0.5,0.2-0.8c0-0.3-0.1-0.6-0.1-0.8c0-0.3,0.1-0.6,0.1-0.8
			C1130.1,1092.9,1129.8,1092.6,1129.7,1092.4z"/>
		<path class="st20" d="M1110.5,1085.6c-0.2-0.1-0.4-0.4-0.7-0.4s-0.5,0.3-0.7,0.4c-0.3,0.1-0.4,0.3-0.5,0.5
			c-0.1,0.2-0.4,0.4-0.4,0.7s0,0.6,0.1,0.9c0.1,0.3,0.5,0.3,0.8,0.4c0.2,0.1,0.4,0.5,0.7,0.5c0.3,0,0.5-0.4,0.7-0.5
			c0.3-0.1,0.7-0.1,0.9-0.3c0.1-0.2,0.2-0.6,0.2-0.9s-0.1-0.7-0.2-0.9C1111.2,1085.7,1110.7,1085.7,1110.5,1085.6z"/>
		<path class="st20" d="M1092.9,1085.3c-0.2-0.1-0.6-0.2-0.9-0.2c-0.3,0-0.6,0-0.9,0.2c-0.3,0.1-0.4,0.5-0.5,0.7
			c-0.1,0.2-0.3,0.5-0.3,0.8s0.1,0.6,0.2,0.9c0.1,0.3,0.4,0.5,0.6,0.6c0.2,0.1,0.6,0.1,0.9,0.1c0.3,0,0.5-0.1,0.8-0.2
			c0.3-0.1,0.4-0.3,0.6-0.6c0.1-0.2,0.2-0.5,0.2-0.8s0.1-0.6,0-0.9C1093.4,1085.7,1093.1,1085.5,1092.9,1085.3z"/>
		<g>
			<path class="st23" d="M1103.4,1109.8c-0.1,0-0.3,0-0.3,0c0,0-0.1,0-0.1,0c-0.1,0.1-0.1,0.1-0.2,0.2
				C1102.4,1110.4,1103.3,1109.7,1103.4,1109.8z"/>
			<path class="st23" d="M1103.9,1109.4c0.1-0.1,0.2-0.2,0.3-0.2c0,0-0.1,0-0.1,0c-0.1,0-0.1,0-0.2,0
				C1103.9,1109.2,1103.9,1109.3,1103.9,1109.4C1103.7,1109.6,1103.7,1109.5,1103.9,1109.4z"/>
			<path class="st23" d="M1102,1110.2c0,0-0.1,0-0.1,0c-0.1,0-0.1,0-0.2,0c-0.1,0-0.1,0.1-0.2,0.2
				C1101.7,1110.2,1101.8,1110.2,1102,1110.2z"/>
			<path class="st23" d="M1106.6,1111C1106.5,1111.1,1106.5,1111.1,1106.6,1111C1106.6,1111,1106.6,1111,1106.6,1111
				C1106.7,1110.8,1106.7,1110.8,1106.6,1111z"/>
			<path class="st23" d="M1105.1,1112.1c0.2-0.2,0-0.1-0.4,0.2c0.1,0,0.2,0,0.3,0c0,0,0,0,0.1-0.1
				C1105.1,1112.1,1105.1,1112.1,1105.1,1112.1z"/>
			<path class="st23" d="M1103.2,1113C1103.2,1113,1103.2,1113,1103.2,1113C1103.2,1113,1103.2,1113,1103.2,1113z"/>
			<path class="st23" d="M1101.9,1110C1101.9,1110,1101.9,1110.1,1101.9,1110C1101.9,1110.1,1101.9,1110.1,1101.9,1110z"/>
			<path class="st23" d="M1101.4,1110.4C1101.4,1110.4,1101.4,1110.5,1101.4,1110.4C1101.4,1110.4,1101.4,1110.4,1101.4,1110.4z"/>
			<path class="st23" d="M1098.8,1113C1098.5,1112.9,1098.5,1112.9,1098.8,1113C1098.7,1113,1098.7,1113,1098.8,1113
				c0.1,0,0.1,0,0.1,0C1099,1113,1098.9,1113,1098.8,1113z"/>
			<path class="st23" d="M1100.3,1110.2C1100.3,1110.2,1100.3,1110.2,1100.3,1110.2c-0.1,0-0.2,0-0.2,0
				C1099.8,1110.2,1100.8,1110.5,1100.3,1110.2z"/>
			<path class="st23" d="M1103,1112.9c0.1,0,0.2,0,0.2,0c0,0,0,0,0,0c0.1,0,0.1-0.1,0.2-0.1
				C1103.4,1112.9,1103.2,1112.9,1103,1112.9z"/>
			<path class="st23" d="M1098.1,1112.9C1098.4,1112.9,1097.8,1112.9,1098.1,1112.9L1098.1,1112.9z"/>
			<path class="st23" d="M1104.8,1108.3c-0.2,0.2-0.4,0.4-0.6,0.5c-0.1,0.1-0.2,0.2-0.3,0.3c0.1,0,0.1,0,0.2,0c0,0,0.1,0,0.1,0
				c0.1-0.1,0.1,0,0,0c-0.1,0-0.2,0.1-0.3,0.2c-0.2,0.1-0.2,0.2,0,0c0-0.1,0.1-0.1,0.1-0.2c-0.1,0-0.1,0-0.2,0
				c-0.3,0.1-0.6,0.3-0.8,0.5c0,0,0.1,0,0.1,0c0.1,0,0.3,0,0.3,0c-0.1-0.1-1,0.6-0.6,0.2c0.1-0.1,0.1-0.1,0.2-0.2
				c-0.4,0-0.7,0.1-1.1,0.3c0,0-0.1,0.1-0.2,0.1c0.1,0,0.1,0,0.2,0c0,0,0.1,0,0.1,0c-0.2,0-0.4,0-0.5,0.1c-0.1,0-0.1,0.1-0.1,0.1
				c0,0,0,0,0,0c0,0,0,0,0,0c0,0,0.1-0.1,0.1-0.1c0.1,0,0.1-0.1,0.2-0.2c-0.2,0-0.5,0-0.7,0c-0.2,0-0.5,0-0.7,0c0,0,0,0,0.1,0
				c0.4,0.3-0.5,0-0.2,0c0.1,0,0.1,0,0.2,0c-0.1-0.1-0.2-0.1-0.4-0.2c-0.3-0.1-0.8-0.2-1.2-0.2c0,0,0,0,0,0c0,0,0.1,0,0.1,0
				c-0.2,0-0.2,0-0.1,0c-0.1,0-0.1,0-0.2,0c0,0-0.1,0-0.1,0c0,0,0.1,0.1,0.1,0.1c0,0,0.1,0.1,0.1,0.1c-0.1-0.2-0.3-0.3-0.5-0.3
				c-0.1,0-0.1,0,0.1,0c0.1,0,0.2,0,0.2,0c0,0-0.1-0.1-0.1-0.1c-0.3-0.3-0.6-0.4-0.9-0.6c-0.1-0.1-0.2-0.2-0.4-0.2
				c-0.1,0-0.1-0.1-0.2-0.1c0.1,0.1,0.1,0.1-0.1-0.1c-0.1-0.1-0.2-0.2-0.4-0.3c-0.1-0.1-0.4-0.3-0.1,0c-0.6-0.5-1.6-0.7-2.3,0
				c-0.6,0.6-0.7,1.7,0,2.3c0.3,0.2,0.6,0.4,0.9,0.6c-0.4-0.2,0.3,0.2,0.4,0.3c0.1,0.1,0.3,0.2,0.4,0.3c0.1,0.1,0.3,0.2,0.4,0.2
				c0,0,0,0,0,0c0,0,0,0,0-0.1c0.2,0.1,0.2,0.2,0,0.1c0,0,0.1,0.1,0.1,0.1c0.3,0.3,0.6,0.5,1,0.7c0.3,0.1,0.5,0.1,0.8,0.1
				c0,0,0,0,0,0c-0.3-0.1,0.3,0,0,0c0,0,0,0,0.1,0c0.1,0,0.4,0.1,0.7,0.1c0,0-0.1,0-0.1-0.1c-0.2-0.1-0.1-0.1,0.1,0
				c0.2,0,0.2,0,0.1,0c0,0-0.1,0-0.1,0c0.6,0.4,1.5,0.4,2.2,0.4c0.8,0,1.5,0.1,2.2-0.4c0,0,0,0,0.1-0.1c0,0,0,0,0,0
				c-0.1,0-0.2,0-0.2,0c0.2,0,0.3-0.1,0.4-0.1c0.1-0.1,0.2-0.2,0.2-0.2c-0.1,0.1-0.1,0.1-0.2,0.2c-0.1,0-0.1,0.1-0.2,0.1
				c0.5,0,1-0.1,1.4-0.4c0.1-0.1,0.2-0.2,0.3-0.3c-0.1,0-0.2,0-0.3,0c0.4-0.3,0.6-0.4,0.4-0.2c0,0-0.1,0.1-0.1,0.1c0,0,0,0-0.1,0.1
				c0.3-0.1,0.6-0.2,0.8-0.3c0.4-0.2,0.6-0.5,0.8-0.9c-0.1,0,0,0,0-0.1c0.1-0.1,0.1-0.1,0,0c0,0,0,0,0,0.1c0,0,0,0,0.1-0.1
				c0.2-0.1,0.3-0.3,0.4-0.4c0.6-0.6,0.6-1.7,0-2.3C1106.4,1107.7,1105.5,1107.7,1104.8,1108.3z"/>
			<path class="st23" d="M1098.8,1109.8c0,0-0.1,0-0.1,0C1098.6,1109.8,1098.7,1109.8,1098.8,1109.8z"/>
			<path class="st23" d="M1096.1,1112C1096.1,1112,1096.1,1112,1096.1,1112C1096.3,1112.1,1096.3,1112.1,1096.1,1112z"/>
			<path class="st23" d="M1098.1,1109.7c0.2,0,0.4,0.1,0.5,0.3c0,0-0.1-0.1-0.1-0.1c0-0.1-0.1-0.1-0.1-0.1
				C1098.3,1109.7,1098.3,1109.7,1098.1,1109.7C1098,1109.7,1098,1109.7,1098.1,1109.7z"/>
		</g>
		<g>
			<path class="st23" d="M1100.6,1099.7c0,0-0.1,0-0.1,0c0,0-0.1,0-0.1,0c-0.1,0-0.1,0-0.2,0
				C1100.3,1099.7,1100.4,1099.7,1100.6,1099.7z"/>
			<path class="st23" d="M1100.9,1102.7c0.1,0,0.1,0,0.2,0c0,0,0,0,0.1,0C1101.1,1102.7,1101,1102.7,1100.9,1102.7z"/>
			<path class="st23" d="M1103,1100.1c-0.1-0.1-0.2-0.2-0.3-0.2c-0.2-0.1-0.5-0.2-0.8-0.2c0.1,0,0.1,0,0.2,0c-0.1,0-0.3,0-0.4-0.1
				c0.1,0,0.1,0,0.2,0c0,0,0,0,0,0c0,0,0,0-0.1,0c-0.2,0-0.4-0.1-0.6-0.1c-0.1,0-0.1,0-0.2,0c-0.1,0-0.2,0-0.3,0c-0.1,0-0.2,0-0.3,0
				c0,0-0.1,0-0.1,0c0,0-0.1,0-0.1,0c0,0,0.1,0,0.1,0c0,0,0.1,0,0.1,0c-0.1,0-0.3,0-0.4,0.1c0.1,0,0.1,0,0.2,0
				c-0.2,0-0.3,0.1-0.5,0.1c-0.2,0.1-0.4,0.2-0.5,0.3c-0.2,0.1-0.3,0.3-0.3,0.5c-0.1,0.2-0.1,0.4-0.1,0.6c0,0.1,0,0.3,0.1,0.4
				c0.1,0.3,0.2,0.5,0.4,0.7c0.1,0.1,0.2,0.2,0.3,0.2c0.2,0.1,0.5,0.2,0.8,0.2c0,0,0.1,0,0.1,0c0.2,0,0.3,0,0.5-0.1c0,0,0.1,0,0.1,0
				c0,0,0,0,0.1,0c0,0,0,0,0,0c0,0,0,0,0,0c0,0-0.1,0-0.1,0c0,0,0.1,0,0.1,0c-0.1,0-0.1,0-0.2,0c0.1,0,0.2,0,0.2,0
				c0.1,0,0.2,0,0.3,0c-0.1,0-0.1,0-0.2,0c0,0,0.1,0,0.1,0c0,0-0.1,0-0.1,0c0,0,0,0,0,0c0.2,0,0.5,0.1,0.7,0.1c0.2,0,0.4,0,0.6-0.1
				c0.2-0.1,0.4-0.2,0.5-0.3c0.2-0.1,0.3-0.3,0.3-0.5c0.1-0.2,0.1-0.4,0.1-0.6c0-0.1,0-0.3-0.1-0.4
				C1103.4,1100.5,1103.2,1100.3,1103,1100.1z"/>
			<path class="st23" d="M1101.7,1099.6c0.1,0,0.3,0,0.4,0.1c-0.1,0-0.1,0-0.2,0c0,0,0,0,0,0
				C1101.8,1099.6,1101.8,1099.6,1101.7,1099.6z"/>
			<path class="st23" d="M1101,1102.7c0,0,0.1,0,0.1,0C1101.1,1102.7,1101.1,1102.7,1101,1102.7
				C1101.1,1102.7,1101.1,1102.7,1101,1102.7z"/>
			<path class="st23" d="M1101.2,1102.7C1101.2,1102.7,1101.2,1102.7,1101.2,1102.7C1101.2,1102.7,1101.2,1102.7,1101.2,1102.7
				c0.1,0,0.1,0,0.1,0C1101.2,1102.7,1101.2,1102.7,1101.2,1102.7z"/>
			<path class="st23" d="M1101.3,1102.7C1101.3,1102.7,1101.3,1102.7,1101.3,1102.7C1101.2,1102.7,1101.2,1102.7,1101.3,1102.7
				c-0.1,0-0.1,0-0.1,0c0,0,0,0,0,0C1101.2,1102.7,1101.2,1102.7,1101.3,1102.7z"/>
			<path class="st23" d="M1101.4,1102.7c-0.1,0-0.2,0-0.3,0c0,0,0.1,0,0.1,0C1101.3,1102.7,1101.4,1102.7,1101.4,1102.7z"/>
			<path class="st23" d="M1101.4,1102.7C1101.3,1102.7,1101.3,1102.7,1101.4,1102.7c-0.1,0-0.1,0-0.1,0
				C1101.3,1102.7,1101.3,1102.7,1101.4,1102.7z"/>
		</g>
	</g>
</g>
<g>
	<defs>
		<rect id="SVGID_41_" x="939.7" y="986.9" width="388.4" height="271"/>
	</defs>
	<clipPath id="SVGID_4_">
		<use xlink:href="#SVGID_41_"  style="overflow:visible;"/>
	</clipPath>
	<path style="clip-path:url(#SVGID_4_);fill:#FFCFBA;" d="M1235.8,1185.6c0-0.7-0.5-0.7-0.5-1.4c0-0.7,0.1-0.7,0.1-1.4
		c0-0.7-0.3-0.7-0.3-1.4c0-0.7,0.4-0.7,0.4-1.4c0-0.7-0.2-0.7-0.2-1.4c0-0.7-0.2-0.7-0.2-1.4c0-0.7,0-0.7,0-1.4
		c0-0.7,0.4-0.7,0.4-1.4c0-0.7,0.2-0.7-0.2-1.2c-0.5-0.5-0.6,0.2-1.2,0.2c-0.7,0-0.7-0.6-1.4-0.6c-0.7,0-0.7,0.1-1.4,0.1
		c-0.7,0-0.7,0.6-1.4,0.6c-0.7,0-0.7-0.2-1.4-0.2c-0.7,0-0.7-0.1-1.4-0.1c-0.7,0-0.7,0.1-1.4,0.1c-0.7,0-0.7-0.3-1.4-0.3
		c-0.7,0-0.7,0.3-1.4,0.3c-0.7,0-0.7-0.1-1.4-0.1c-0.7,0-0.7-0.1-1.4-0.1c-0.7,0-0.7,0.2-1.4,0.2c-0.7,0-0.7-0.2-1.4-0.2
		s-0.7-0.4-1.4-0.4c-0.7,0-0.7-0.1-1.4-0.1c-0.7,0-0.7,0.7-1.4,0.7c-0.7,0-0.7-0.5-1.4-0.5c-0.7,0-0.7-0.1-1.4-0.1
		c-0.7,0-0.7,0.1-1.4,0.1c-0.7,0-0.7,0.4-1.4,0.4c-0.7,0-0.7-0.6-1.4-0.6c-0.7,0-0.7,0.4-1.4,0.4c-0.7,0-0.7-0.5-1.4-0.5
		c-0.7,0-0.7,0.2-1.4,0.2c-0.7,0-0.7,0.2-1.4,0.2c-0.7,0-0.7,0.2-1.4,0.2c-0.7,0-0.7-0.1-1.4-0.1c-0.7,0-0.7-0.2-1.4-0.2
		c-0.7,0-0.7-0.1-1.4-0.1c-0.7,0-0.7,0.2-1.4,0.2c-0.7,0-0.7,0-1.4,0s-0.7-0.2-1.4-0.2c-0.7,0-0.7,0.2-1.4,0.2
		c-0.7,0-0.7,0.3-1.4,0.3s-0.9-0.8-1.3-0.3c-0.5,0.5-0.4,0.7-0.4,1.4c0,0.7,0.2,0.7,0.2,1.4c0,0.7,0.3,0.7,0.3,1.4
		c0,0.7,0.2,0.7,0.2,1.4c0,0.7-0.1,0.7-0.1,1.4c0,0.7,0.2,0.7,0.2,1.4c0,0.7-0.4,0.7-0.4,1.4c0,0.7-0.1,0.7-0.1,1.4
		c0,0.7,0.3,0.7,0.3,1.4c0,0.7-0.5,0.7-0.5,1.4c0,0.7,0.1,0.7,0.1,1.4c0,0.7,0,0.7,0,1.4c0,0.7-0.1,0.7-0.1,1.4c0,0.7,0,0.7,0.2,1.4
		c0.4,0.3,1.1,0.3,1.4,0.5c0.4,0.3,0.5,0.9,0.9,1.2c0.4,0.3,1.1,0.1,1.5,0.3c0.4,0.2,0.5,1.1,0.9,1.3c0.4,0.2,1,0.2,1.4,0.4
		c0.4,0.2,0.8,0.7,1.2,0.8c0.4,0.2,0.9,0.2,1.4,0.4c0.4,0.2,1,0.1,1.4,0.3c0.5,0.1,0.8,0.6,1.3,0.8c0.5,0.1,1-0.2,1.5-0.1
		c0.5,0.1,0.8,0.7,1.3,0.8c0.5,0.1,1,0.1,1.4,0.2c0.5,0.1,1,0.1,1.4,0.1c0.5,0.1,1-0.2,1.5-0.1c0.5,0,0.9,0.3,1.4,0.3
		c0.5,0,0.9,0.3,1.4,0.3c0.5,0,1,0.1,1.4,0.1c0.5,0,1,0.1,1.4,0.1c0.5,0,1-0.2,1.4-0.2c0.5,0,1,0,1.4,0c0.5,0,0.9-0.1,1.4-0.2
		c0.5-0.1,0.9-0.4,1.4-0.5c0.5-0.1,1,0,1.4-0.1c0.5-0.1,0.9-0.2,1.4-0.3c0.5-0.1,1,0,1.4-0.1c0.5-0.1,0.8-0.7,1.3-0.8
		c0.5-0.1,1.1,0.3,1.5,0.2c0.5-0.1,0.8-0.6,1.3-0.7c0.5-0.1,1-0.1,1.4-0.3c0.5-0.1,0.8-0.5,1.3-0.6c0.4-0.2,0.9-0.4,1.3-0.6
		c0.4-0.2,1.1,0.1,1.5-0.1c0.4-0.2,0.6-0.9,1.1-1.1c0.4-0.2,1.1,0.1,1.5-0.2c0.4-0.2,0.9-0.3,1.3-0.5c0.4-0.2,0.4-0.8,0.8-1
		c0.2-0.7,0.4-0.6,0.4-1.3c0-0.7-0.4-0.7-0.4-1.4c0-0.7,0.6-0.7,0.6-1.4c0-0.7-0.5-0.7-0.5-1.4c0-0.7,0.5-0.7,0.5-1.4
		C1235.7,1186.3,1235.8,1186.3,1235.8,1185.6z"/>
	<path style="clip-path:url(#SVGID_4_);fill:#FFCFBA;" d="M1249.6,1208.5c-0.5-0.4-0.4-0.7-1-1c-0.6-0.2-0.8,0.1-1.4-0.1
		c-0.6-0.2-0.7,0.1-1.4-0.2c-0.6-0.2-0.5-0.5-1.2-0.8c-0.6-0.2-0.7-0.1-1.3-0.3c-0.6-0.2-0.6-0.4-1.2-0.6c-0.6-0.2-0.7-0.2-1.3-0.4
		c-0.6-0.2-0.7,0-1.4-0.2c-0.6-0.2-0.7-0.2-1.3-0.4c-0.7-0.2-0.5-0.7-1.2-0.9c-0.6-0.2-0.7,0.1-1.1-0.5c-0.4-0.6-0.2-0.5-0.2-1.2
		c0-0.7,0-0.7,0-1.4c0-0.7-0.1-0.7-0.1-1.4s0-0.7,0-1.4c0-0.7,0-0.7,0-1.4c0-0.7,0.2-0.7,0.2-1.4c0-0.7,0.6-0.9,0.3-1.5
		c-0.4,0.2-1.2,0.5-1.6,0.8c-0.4,0.2-0.7,0.7-1.2,0.9c-0.4,0.2-0.9,0.4-1.3,0.6c-0.4,0.2-1,0.1-1.4,0.3c-0.4,0.2-0.9,0.3-1.3,0.5
		c-0.4,0.2-0.8,0.7-1.2,0.8c-0.4,0.2-1,0.1-1.4,0.2c-0.5,0.1-0.9,0.4-1.3,0.5c-0.5,0.1-1,0.1-1.4,0.2c-0.5,0.1-1,0.1-1.4,0.2
		c-0.5,0.1-0.8,0.7-1.3,0.8c-0.5,0.1-0.9,0.1-1.4,0.2c-0.5,0.1-0.9,0.3-1.4,0.3c-0.5,0.1-1-0.2-1.5-0.1c-0.5,0.1-0.9,0.5-1.4,0.6
		c-0.5,0.1-1,0-1.4,0c-0.5,0-1-0.3-1.4-0.3c-0.5,0-0.9,0.5-1.4,0.5c-0.5,0-1,0-1.4,0c-0.5,0-1,0-1.4,0c-0.5,0-1-0.1-1.4-0.1
		c-0.5,0-0.9-0.3-1.4-0.3c-0.5,0-0.9-0.2-1.4-0.3c-0.5-0.1-0.9-0.3-1.4-0.3c-0.5-0.1-0.9-0.3-1.4-0.4c-0.5-0.1-1,0.3-1.5,0.2
		c-0.5-0.1-0.9-0.2-1.4-0.3c-0.5-0.1-0.8-0.7-1.2-0.9c-0.5-0.1-0.8-0.4-1.3-0.6c-0.4-0.2-1.1,0.1-1.5-0.1c-0.4-0.2-0.8-0.6-1.2-0.8
		c-0.4-0.2-1.1,0-1.5-0.2c-0.4-0.2-0.8-0.5-1.3-0.7c-0.4-0.2-0.7-0.7-1.1-1c-0.4-0.3-0.6-0.9-0.9-1.1c-0.4-0.3-0.8-0.2-1.1-0.5
		c-0.2,0.6-0.4,0.6-0.4,1.3c0,0.7,0.4,0.7,0.4,1.4c0,0.7-0.5,0.7-0.4,1.4c0,0.7,0.6,0.7,0.6,1.4c0,0.7-0.3,0.7-0.3,1.4
		c0,0.7,0.3,0.7,0.4,1.4c0,0.7,0.3,0.9-0.1,1.4c-0.4,0.6-0.9-0.2-1.6,0c-0.7,0.2-0.6,0.4-1.3,0.6c-0.7,0.2-0.7,0.2-1.4,0.4
		c-0.7,0.2-0.7,0.2-1.4,0.4c-0.7,0.2-0.7,0.2-1.4,0.4c-0.7,0.2-0.8,0-1.5,0.2c-0.7,0.2-0.7,0.3-1.4,0.5s-0.7,0.2-1.4,0.4
		c-0.7,0.2-0.8,0-1.5,0.2c-0.7,0.2-0.7,0.3-1.4,0.5c-0.7,0.2-0.7,0.3-1.3,0.7c-0.6,0.4,0,0.4,0.4,1.2c0.2,0.4,0.5,0.7,0.7,1.2
		c0.2,0.4,0.4,0.8,0.6,1.3c0.2,0.4,0.4,0.8,0.6,1.3c0.2,0.4,0.7,0.7,1,1.1c0.2,0.4,0,1,0.2,1.5c0.2,0.4,0.8,0.6,1,1.1
		c0.2,0.4,0,1.1,0.2,1.5c0.2,0.4,0.8,0.6,1.1,1c0.2,0.4,0.2,1,0.4,1.4c0.2,0.4,0.3,0.9,0.6,1.3c0.2,0.4,0.7,0.7,1,1.1
		c0.2,0.4,0.3,0.9,0.5,1.3c0.2,0.4,0.7,0.7,1,1.1c0.2,0.4,0.5,0.8,0.7,1.2c0.2,0.4,0.4,0.9,0.6,1.3c0.2,0.4,0.3,0.9,0.6,1.3
		c0.2,0.4,0.8,0.6,1,1c0.2,0.4,0.4,0.8,0.7,1.2c0.3,0.4,0.2,1,0.4,1.4c0.3,0.4,0.6,0.7,0.9,1.1c0.3,0.4,0.8,0.6,1.1,1
		c0.3,0.4,0.2,1,0.4,1.4c0.3,0.4,0.7,0.6,1,1c0.3,0.4,0.7,0.7,1,1c0.3,0.4,0.2,1,0.5,1.4c0.3,0.4,1,0.4,1.3,0.8
		c0.3,0.4,0.1,1.1,0.4,1.5c0.3,0.4,0.7,0.7,1,1c0.3,0.4,1,0.4,1.3,0.8c0.3,0.4,0.5,0.8,0.8,1.1c0.3,0.4,0.4,0.9,0.7,1.2
		c0.3,0.4,0.6,0.7,0.9,1.1c0.3,0.3,0.9,0.4,1.3,0.7c0.3,0.3,0.2,1.1,0.5,1.5c0.3,0.3,1.1,0.2,1.4,0.5c0.4,0.3,0.7,0.6,1.1,0.9
		c0.4,0.3,0.3,1.1,0.7,1.4c0.4,0.3,1,0.2,1.4,0.5c0.4,0.3,0.8,0.5,1.2,0.8c0.4,0.3,0.7,0.7,1.1,1c0.4,0.2,0.9,0.4,1.3,0.6
		c0.4,0.2,0.8,0.6,1.2,0.8c0.5,0.2,1,0.1,1.4,0.2c0.5,0.1,1-0.2,1.5-0.2c0.5,0.1,0.9,0.5,1.4,0.5c0.5,0,1,0.3,1.4,0.2
		c0.5-0.1,0.9-0.2,1.4-0.3c0.4-0.1,0.8-0.6,1.2-0.8c0.4-0.2,0.8-0.5,1.2-0.7c0.4-0.2,1-0.1,1.4-0.3c0.4-0.2,0.9-0.3,1.3-0.6
		c0.4-0.2,0.7-0.6,1.1-0.9c0.4-0.3,0.8-0.4,1.2-0.7c0.4-0.3,0.6-0.7,1-1c0.3-0.3,0.8-0.5,1.2-0.8c0.3-0.3,0.6-0.8,0.9-1.1
		c0.3-0.3,0.4-0.9,0.7-1.3c0.3-0.3,1-0.4,1.3-0.7c0.3-0.3,0.7-0.7,1-1c0.3-0.3,0.2-1.1,0.5-1.4c0.3-0.4,0.8-0.5,1.1-0.9
		c0.3-0.4,0.5-0.8,0.8-1.2c0.3-0.4,1-0.4,1.3-0.8c0.3-0.4,0.3-0.9,0.6-1.3c0.3-0.4,0.6-0.7,0.9-1.1c0.3-0.4,0.2-1,0.5-1.4
		c0.3-0.4,0.9-0.5,1.2-0.9c0.3-0.4,0.4-0.9,0.7-1.2c0.3-0.4,0.3-0.9,0.6-1.3c0.3-0.4,0.8-0.6,1.1-1c0.2-0.4,0.3-0.9,0.6-1.3
		c0.2-0.4,0.6-0.7,0.8-1.1c0.2-0.4,0.3-0.9,0.5-1.3c0.2-0.4,0.7-0.7,0.9-1.1c0.2-0.4,0.5-0.8,0.7-1.2c0.2-0.4,0.4-0.8,0.6-1.2
		c0.2-0.4,0.6-0.7,0.8-1.2c0.2-0.4,0.1-1,0.3-1.4c0.2-0.4,0.7-0.7,0.9-1.1c0.2-0.4,0.6-0.8,0.8-1.2c0.2-0.4-0.2-1.2,0-1.6
		c0.2-0.4,0.7-0.7,0.9-1.1c0.2-0.4,0.3-0.9,0.5-1.3c0.2-0.4,0.6-0.8,0.8-1.2c0.2-0.4,0.3-0.9,0.5-1.3c0.2-0.4,0.9-0.6,1.1-1
		c0.2-0.4,0.1-1,0.3-1.4c0.2-0.5,0.1-1,0.3-1.4c0.2-0.5,0.7-0.8,0.9-1.1C1249.6,1208.8,1250.2,1209,1249.6,1208.5z"/>
	<path style="clip-path:url(#SVGID_4_);fill:#FFCFBA;" d="M1246.8,1092.8c-0.7,0-0.6-0.3-1.3-0.5c-0.7-0.2-0.8,0.1-1.4,0
		c-0.7-0.2-0.7,0-1.4-0.1c-0.7-0.2-0.7-0.1-1.4-0.3c-0.7-0.2-0.7,0-1.4-0.2c-0.7-0.2-0.7-0.2-1.4-0.4c-0.7-0.2-0.7,0-1.4-0.1
		c-0.7-0.2-0.7-0.2-1.4-0.4c-0.7-0.2-0.7-0.3-1.4-0.4c-0.7-0.2-0.6-0.5-1.3-0.6c-0.7-0.2-0.8,0.2-1.5,0.1c-0.7-0.2-0.6-0.6-1.3-0.8
		c-0.7-0.1-0.7-0.1-1.4-0.3c-0.7-0.2-0.8,0.5-1.5,0.3c-0.7-0.2-0.6-0.6-1.3-0.8c-0.7-0.1-0.8,0.1-1.5,0c-0.7-0.2-0.7-0.1-1.4-0.2
		c-0.7-0.2-0.7-0.1-1.4-0.2c-0.7-0.1-0.6-0.4-1.3-0.6c-0.7-0.1-0.8,0.2-1.5,0c-0.7-0.2-0.6-0.5-1.3-0.6c-0.7-0.2-0.7-0.1-1.4-0.2
		c-0.7-0.2-0.7-0.1-1.4-0.3c-0.7-0.1-0.7-0.3-1.3-0.5c-0.7-0.2-0.7,0-1.4-0.1c-0.7-0.2-0.7-0.1-1.4-0.3c-0.7-0.2-0.6-0.4-1.3-0.5
		c-0.7-0.2-0.8,0.4-1.5,0.3c-0.7-0.2-0.6-0.4-1.3-0.5c-0.7-0.2-0.7,0-1.4-0.1c-0.7-0.2-0.6-0.5-1.3-0.7c-0.7-0.1-0.7-0.3-1.4-0.5
		c-0.7-0.2-0.8,0.3-1.5,0.2s-0.6-0.5-1.3-0.6c-0.7-0.2-0.7,0.1-1.4-0.1c-0.7-0.1-0.7-0.5-1.4-0.4c-0.7,0.1-0.7,0.2-1.3,0.5
		c-0.6,0.4-0.6,0.4-1.2,0.7c-0.6,0.4-0.5,0.5-1.1,0.9c-0.6,0.4-0.5,0.6-1.1,0.9c-0.6,0.4-0.6,0.3-1.2,0.7c-0.6,0.4-0.7,0.2-1.3,0.6
		c-0.6,0.4-0.6,0.3-1.2,0.7c-0.6,0.4-0.7,0.2-1.3,0.6c-0.6,0.4-0.7,0.1-1.3,0.5c-0.6,0.4-0.5,0.4-1.1,0.8c-0.6,0.4-0.4,0.7-1,1
		c-0.6,0.4-0.6,0.3-1.2,0.7c-0.6,0.4-0.8,0-1.4,0.4c-0.6,0.4-0.6,0.3-1.2,0.6c-0.6,0.4-0.4,0.7-1,1.1c-0.6,0.4-0.7,0.2-1.3,0.6
		c-0.6,0.4-0.5,0.5-1.1,0.9c-0.6,0.4-0.6,0.4-1.2,0.7c-0.6,0.4-0.6,0.3-1.2,0.7c-0.6,0.4-1-0.1-1.4,0.5c-0.3,0.6-0.1,0.8-0.1,1.5
		c0,0.7,0.1,0.7,0.1,1.4c0,0.7-0.2,0.7-0.1,1.4c0,0.7,0.3,0.7,0.3,1.4c0,0.7-0.2,0.7-0.2,1.4c0,0.7,0.6,0.7,0.6,1.4
		c0,0.7-0.3,0.7-0.2,1.4c0,0.7-0.4,0.7-0.4,1.4c0,0.7,0.3,0.7,0.3,1.4c0,0.7,0,0.7,0,1.4c0,0.7,0.2,0.7,0.2,1.4c0,0.7,0,0.7,0,1.4
		c0,0.7-0.4,0.7-0.3,1.4c0,0.7,0.8,0.7,0.8,1.4c0,0.7-0.7,0.7-0.7,1.4c0,0.7,0.3,0.7,0.3,1.4c0,0.7,0.4,0.7,0.4,1.4
		c0,0.7-0.5,0.7-0.5,1.4c0,0.7,0.2,0.7,0.2,1.4c0,0.7,0.4,0.7,0.4,1.4c0,0.7-0.1,0.7-0.1,1.4c0,0.7,0.2,0.7,0.3,1.4
		c0,0.7-0.6,0.7-0.6,1.4c0,0.7,0.6,0.7,0.6,1.4c0,0.7-0.2,0.7-0.2,1.4c0,0.7,0.3,0.7,0.3,1.4c0,0.7-0.2,0.7-0.2,1.4
		c0,0.7-0.3,0.7-0.3,1.4c0,0.7,0,0.7,0,1.4c0,0.7-0.1,0.7-0.1,1.4c0,0.7,0.2,0.7,0.2,1.4c0,0.7,0.3,0.7,0.3,1.4
		c0,0.7-0.2,0.7-0.2,1.4c0,0.7,0.5,0.7,0.5,1.4s-0.5,0.7-0.5,1.4c0,0.7,0.2,0.7,0.2,1.4c0,0.7,0.2,0.7,0.3,1.4
		c0,0.7-0.6,0.7-0.5,1.4c0,0.7,0.5,0.7,0.5,1.4c0,0.7-0.1,0.7-0.1,1.4c0,0.5,0,0.9,0,1.4c0,0.5,0.4,0.9,0.4,1.4
		c0,0.5,0.1,0.9,0.2,1.4c0.1,0.5,0.1,0.9,0.1,1.4c0.1,0.5,0,0.9,0.1,1.4c0.1,0.5,0.4,0.9,0.5,1.3c0.1,0.5-0.1,1,0,1.4
		c0.1,0.5,0.5,0.8,0.6,1.3c0.1,0.4-0.3,1.1-0.1,1.5c0.2,0.4,0.7,0.7,0.9,1.2c0.2,0.4,0.4,0.8,0.6,1.3c0.2,0.4,0.2,1,0.4,1.4
		c0.2,0.4,0.6,0.7,0.8,1.2c0.2,0.4,0.5,0.8,0.8,1.2c0.2,0.4,0.5,0.8,0.7,1.2c0.3,0.4,0.1,1,0.4,1.4c0.3,0.4,0.7,0.7,1,1
		c0.3,0.4,0.9,0.5,1.2,0.9c0.3,0.4,0.6,0.7,0.9,1.1c0.3,0.4,0.6,0.7,0.9,1.1c0.3,0.3,0.4,1,0.7,1.3c0.3,0.3,0.8,0.5,1.2,0.8
		c0.3,0.3,0.4,1,0.8,1.3c0.4,0.3,1.2,0.1,1.5,0.3c0.4,0.3,0.7,0.6,1.1,0.8c0.4,0.3,0.5,0.9,0.9,1.1c0.4,0.3,0.9,0.3,1.3,0.6
		c0.4,0.2,0.9,0.3,1.3,0.6c0.4,0.2,0.6,0.8,1,1c0.4,0.2,0.7,0.6,1.2,0.8c0.4,0.2,1.1-0.1,1.5,0.1c0.4,0.2,0.9,0.3,1.3,0.5
		c0.4,0.2,0.7,0.7,1.2,0.8c0.4,0.1,1-0.1,1.5,0c0.4,0.1,0.8,0.5,1.3,0.6c0.5,0.1,0.8,0.6,1.3,0.6c0.5,0.1,0.9,0.2,1.4,0.3
		c0.5,0.1,1-0.1,1.4,0c0.5,0.1,1-0.3,1.4-0.2c0.5,0,0.9,0.3,1.4,0.3c0.5,0,0.9,0.1,1.4,0.1c0,0,0,0.2,0,0.2c0.5,0,0.9-0.4,1.4-0.4
		c0.5,0,0.9-0.1,1.4-0.2c0.5,0,1,0.4,1.4,0.3c0.5-0.1,0.8-0.7,1.3-0.8c0.5-0.1,0.9-0.1,1.4-0.2c0.5-0.1,0.9-0.2,1.4-0.3
		c0.5-0.1,1,0.1,1.4,0c0.5-0.1,0.9-0.4,1.3-0.6c0.4-0.1,0.9-0.4,1.3-0.5c0.4-0.2,1.1,0.1,1.5-0.1c0.4-0.2,0.7-0.7,1.1-0.9
		c0.4-0.2,0.9-0.3,1.3-0.5c0.4-0.2,0.7-0.7,1.1-0.9c0.4-0.2,1-0.2,1.4-0.4c0.4-0.2,0.8-0.5,1.2-0.8c0.4-0.3,0.9-0.4,1.2-0.7
		c0.4-0.3,0.6-0.8,1-1.1c0.4-0.3,0.8-0.5,1.2-0.8c0.4-0.3,0.6-0.7,1-1c0.3-0.3,0.4-0.9,0.8-1.2c0.3-0.3,0.7-0.6,1-1
		c0.3-0.3,0.7-0.7,1-1c0.3-0.4,0.7-0.6,1-1c0.3-0.4,0.6-0.8,0.8-1.1c0.3-0.4,0.7-0.6,1-1c0.3-0.4,0.5-0.8,0.7-1.2
		c0.2-0.4,0.5-0.8,0.7-1.2c0.2-0.4,0.3-0.9,0.5-1.3c0.2-0.4,0.2-0.9,0.4-1.4c0.2-0.4,0.5-0.8,0.7-1.2c0.2-0.4,0.3-0.9,0.4-1.3
		c0.2-0.4,0.9-0.7,1.1-1.1c0.2-0.4,0.3-0.9,0.4-1.4c0.1-0.4,0.4-0.9,0.5-1.3c0.1-0.5-0.2-1-0.1-1.5c0.1-0.5,0.3-0.9,0.4-1.4
		c0.1-0.5,0.1-0.9,0.2-1.4c0.1-0.5,0.3-0.9,0.4-1.4c0.1-0.5,0.1-0.9,0.2-1.4c0-0.5-0.1-0.9-0.1-1.4c0-0.5,0.2-0.9,0.2-1.4
		c0-0.7,0.1-0.7,0.1-1.4c0-0.7-0.4-0.7-0.4-1.4c0-0.7,0-0.7,0-1.4c0-0.7,0.4-0.7,0.4-1.4c0-0.7-0.1-0.7,0-1.4c0-0.7-0.5-0.7-0.5-1.4
		c0-0.7,0.6-0.7,0.6-1.4c0-0.7-0.1-0.7-0.1-1.4c0-0.7,0.2-0.7,0.2-1.4c0-0.7-0.1-0.7,0-1.4c0-0.7-0.3-0.7-0.2-1.4
		c0-0.7,0.4-0.7,0.5-1.4c0-0.7-0.4-0.7-0.4-1.4c0-0.7,0.1-0.7,0.2-1.4c0-0.7,0-0.7,0-1.4c0-0.7,0.1-0.7,0.2-1.4
		c0-0.7-0.1-0.7-0.1-1.4c0-0.7,0-0.7,0-1.4c0-0.7-0.1-0.7-0.1-1.4c0-0.7,0.3-0.7,0.3-1.4c0-0.7-0.6-0.7-0.6-1.4
		c0-0.7,0.4-0.7,0.4-1.4c0-0.7,0.2-0.7,0.2-1.4c0-0.7-0.3-0.7-0.3-1.4c0-0.7-0.2-0.7-0.2-1.4c0-0.7,0-0.7,0-1.4
		c0-0.7,0.6-0.7,0.6-1.4c0-0.7-0.2-0.7-0.2-1.4c0-0.7-0.3-0.7-0.3-1.4c0-0.7,0.3-0.7,0.3-1.4c0-0.7-0.1-0.7-0.1-1.4
		c0-0.7,0.4-0.7,0.4-1.4s-0.5-0.7-0.5-1.4c0-0.7,0.7-0.7,0.7-1.4s0-0.7,0.1-1.4c0-0.7-0.2-0.7-0.2-1.4c0-0.7-0.4-0.7-0.4-1.4
		c0-0.7,0.1-0.7,0.1-1.4c0-0.7,0.1-0.7,0.1-1.4c0-0.7-0.1-0.7-0.1-1.4c0-0.7,0.6-0.7,0.7-1.4c0-0.7,0.4-1.1,0-1.6
		C1248,1092.5,1247.7,1092.7,1246.8,1092.8z"/>
	<path style="clip-path:url(#SVGID_4_);fill:#FFCFBA;" d="M1175.3,1146.5c0-0.7-0.3-0.7-0.3-1.4c0-0.7,0-0.7,0-1.4
		c0-0.7,0.3-0.7,0.2-1.4c0-0.7-0.4-0.7-0.4-1.4c0-0.7,0.3-0.7,0.3-1.4c0-0.7-0.5-0.7-0.6-1.4c0-0.7,0-0.7-0.1-1.4
		c0-0.7,0.5-0.7,0.5-1.4c0-0.7-0.7-0.7-0.7-1.4c0-0.7,0.1-0.7,0-1.4c0-0.7,0.3-0.7,0.2-1.4c0-0.7-0.4-0.7-0.5-1.4
		c0-0.7,0.2-0.7,0.2-1.4c0-0.7,0-0.7-0.1-1.4c0-0.7-0.5-0.7-0.5-1.4c0-0.7,0.3-0.7,0.3-1.4c0-0.7,0.1-0.7,0-1.4
		c0-0.7,0.2-0.8-0.1-1.4c-0.5,0-1.1,0.1-1.6,0.1c-0.5,0-0.9,0.4-1.4,0.5c-0.5,0.1-0.9,0.3-1.4,0.4c-0.5,0.1-1-0.1-1.5,0.1
		c-0.4,0.2-0.9,0.4-1.3,0.7c-0.4,0.2-1,0.3-1.4,0.5c-0.4,0.3-0.7,0.7-1,1c-0.4,0.3-0.6,0.8-0.9,1.1c-0.3,0.3-0.6,0.7-0.9,1.1
		c-0.3,0.4-0.5,0.8-0.7,1.2c-0.2,0.4-0.4,0.9-0.6,1.3c-0.2,0.4-0.5,0.8-0.7,1.3c-0.2,0.4-0.7,0.8-0.8,1.3c-0.1,0.5,0.1,1,0,1.5
		c-0.1,0.5-0.5,0.9-0.5,1.4c0,0.5,0.5,1,0.5,1.5c0,0.5-0.2,0.9-0.1,1.4c0.1,0.5,0.4,0.9,0.5,1.3c0.1,0.5,0.2,0.9,0.4,1.3
		c0.2,0.4,0.6,0.7,0.8,1.1c0.2,0.4,0.4,0.9,0.7,1.2c0.3,0.4,0.4,0.9,0.7,1.2c0.3,0.3,0.7,0.7,1,1c0.4,0.3,0.6,0.8,0.9,1.1
		c0.4,0.3,1.1,0,1.5,0.3c0.4,0.3,0.5,1,0.9,1.3c0.4,0.2,0.9,0.3,1.4,0.5c0.4,0.2,0.8,0.5,1.3,0.7c0.4,0.2,1.1-0.4,1.6-0.2
		c0.5,0.1,0.9,0.4,1.3,0.5c0.5,0.1,0.9,0.4,1.4,0.5c0.5,0.1,0.9-0.1,1.4-0.1c0.2-0.7,0.2-0.7,0.1-1.4
		C1175.3,1147.2,1175.4,1147.2,1175.3,1146.5z"/>
	<path style="clip-path:url(#SVGID_4_);fill:#FFCFBA;" d="M1259.4,1136.5c-0.1-0.5-0.7-0.9-0.8-1.3c-0.1-0.5,0.1-1-0.1-1.5
		c-0.2-0.5-0.6-0.8-0.8-1.2c-0.2-0.4-0.1-1.1-0.3-1.5c-0.3-0.4-0.5-0.9-0.8-1.3c-0.3-0.4-0.8-0.7-1.1-1c-0.4-0.3-0.8-0.5-1.2-0.8
		c-0.4-0.3-0.8-0.5-1.3-0.7c-0.4-0.2-0.9-0.2-1.4-0.4c-0.4-0.2-1-0.1-1.4-0.2c-0.5-0.1-0.9-0.5-1.4-0.5c-0.5-0.1-1-0.1-1.4-0.1
		c-0.5,0-1.3-0.2-1.8-0.2c-0.3,0.6,0,0.8,0,1.5c0,0.7,0.2,0.7,0.2,1.4c0,0.7,0.1,0.7,0,1.4c0,0.7,0,0.7-0.1,1.4
		c0,0.7-0.1,0.7-0.2,1.4c0,0.7-0.4,0.7-0.5,1.4c0,0.7,0.4,0.7,0.3,1.4c0,0.7,0,0.7-0.1,1.4c0,0.7-0.3,0.7-0.4,1.4
		c0,0.7,0.3,0.7,0.3,1.4c0,0.7-0.4,0.7-0.4,1.4c0,0.7-0.1,0.7-0.2,1.4c0,0.7,0.6,0.7,0.5,1.4c0,0.7-0.6,0.7-0.6,1.4
		c0,0.7-0.1,0.7-0.1,1.4c0,0.7,0.5,0.8,0.4,1.5c-0.1,0.7-0.6,0.7-0.4,1.4c0.5,0,1-0.1,1.5-0.2c0.5,0,1,0.2,1.5,0.1
		c0.5-0.1,1,0.1,1.5,0c0.5-0.1,0.8-0.9,1.3-1c0.5-0.1,1-0.1,1.4-0.2c0.5-0.2,0.8-0.5,1.3-0.7c0.4-0.2,1.2,0.2,1.6-0.1
		c0.4-0.2,0.5-1,0.9-1.3c0.4-0.3,0.9-0.4,1.3-0.7c0.3-0.3,0.6-0.7,0.9-1.1c0.3-0.4,0.8-0.7,1-1.1c0.2-0.4,0.6-0.8,0.7-1.3
		c0.1-0.4,0.1-1,0.1-1.5c0.1-0.5,0.2-1,0.2-1.5c0-0.5-0.2-1-0.3-1.4C1259.3,1137.5,1259.5,1137,1259.4,1136.5z"/>
	<polygon style="clip-path:url(#SVGID_4_);fill:#505050;" points="1261.7,1095.7 1261.5,1094.4 1261.4,1093.1 1261.2,1091.8 
		1260.4,1090.7 1259.9,1089.5 1259.5,1088.2 1258.3,1087.4 1257.8,1086.2 1257.1,1085 1256.4,1083.9 1255.4,1083.1 1254.6,1082 
		1253.3,1081.5 1252.5,1080.5 1251.6,1079.5 1250.5,1078.8 1249.7,1077.7 1248.4,1077.2 1247.4,1076.3 1246.6,1075.3 1245.5,1074.5 
		1244.3,1074 1243.6,1072.8 1242.2,1072.4 1241.5,1071.2 1240.6,1070.3 1239.6,1069.4 1238.4,1068.8 1237.4,1067.9 1236.1,1067.5 
		1235.4,1066.2 1234.2,1065.7 1233.2,1064.8 1232,1064.2 1230.7,1064 1229.6,1063.1 1228.5,1062.3 1227.3,1061.8 1226,1061.6 
		1224.8,1061.1 1223.6,1060.6 1222.3,1060.1 1221.1,1059.6 1219.7,1059.9 1218.5,1059.2 1217.2,1059.1 1215.8,1059.3 1214.6,1058.5 
		1213.2,1058.5 1211.9,1058.8 1210.6,1058.7 1209.3,1058.6 1208,1059 1206.7,1059 1205.3,1058.6 1204.1,1059.4 1202.7,1059.1 
		1201.5,1059.6 1200.1,1059.5 1199,1060.4 1197.7,1060.4 1196.4,1060.8 1195.2,1061.2 1194,1062 1192.9,1062.6 1191.5,1062.7 
		1190.4,1063.4 1189.3,1064.2 1188.1,1064.8 1187.2,1065.7 1186.1,1066.5 1184.9,1067 1183.9,1068 1183.1,1069 1181.9,1069.6 
		1181.3,1070.9 1180.4,1071.8 1179.6,1072.9 1178.7,1073.8 1177.9,1074.9 1176.9,1075.8 1176.7,1077.2 1175.6,1078.2 1176.1,1078.4 
		1174.8,1078.8 1173.8,1079.7 1172.6,1080.2 1171.5,1081 1170.8,1082.1 1169.9,1083.2 1169.3,1084.3 1168,1085.1 1167.8,1086.5 
		1167.3,1087.7 1166.1,1088.6 1166,1090 1165.3,1091.1 1164.9,1092.4 1163.9,1093.4 1163.6,1094.7 1163.3,1096 1162.9,1097.3 
		1162,1098.4 1161.8,1099.7 1161.5,1101 1161.3,1102.3 1160.6,1103.5 1160.4,1104.8 1160.3,1106.2 1160.6,1107.5 1160.3,1108.9 
		1161.1,1110.1 1161.1,1111.4 1161.7,1112.7 1162.5,1113.8 1163.4,1114.8 1164.1,1115.9 1164.6,1117.2 1165.5,1118.1 1165.8,1119.5 
		1166.9,1120.4 1167.5,1121.6 1168.7,1122.4 1169.2,1123.7 1170,1124.8 1170.9,1125.8 1171.4,1127 1172.3,1128.1 1172.5,1129.5 
		1173,1130.7 1173.4,1129.4 1173.8,1128 1173.9,1126.6 1173.6,1125.2 1174.4,1123.9 1174.1,1122.5 1174.7,1121.1 1174.8,1119.8 
		1175.8,1118.8 1176.7,1117.9 1178.1,1117.5 1178.8,1116.4 1179.8,1115.5 1180.2,1114.1 1181.2,1113.2 1182.2,1112.4 1182.5,1111 
		1183.2,1109.9 1184.5,1109.1 1185,1107.9 1185.7,1106.8 1186.3,1105.6 1186.4,1104.2 1187.2,1103.1 1187.8,1102 1188.1,1100.7 
		1188.9,1099.6 1188.9,1098.2 1189.4,1097 1190.2,1095.9 1190.2,1094.5 1190.8,1093.3 1191.4,1092.2 1192,1091 1192.4,1089.7 
		1192.5,1088.5 1193.8,1088.6 1195,1089 1196.2,1089.8 1197.5,1090 1198.5,1090.8 1199.9,1090.9 1201,1091.6 1202.3,1091.8 
		1203.7,1092 1204.8,1092.8 1206.1,1093 1207.3,1093.5 1208.4,1094.3 1209.7,1094.6 1210.8,1095.4 1212.1,1095.5 1213.4,1095.7 
		1214.5,1096.5 1215.7,1097.1 1217.1,1097.2 1218.3,1097.6 1219.5,1098.3 1220.6,1098.9 1221.9,1099.1 1223.2,1099.5 1224.5,1099.8 
		1225.7,1100.2 1227,1100.4 1228.1,1101 1229.3,1101.5 1230.5,1102 1231.7,1102.3 1233,1102.6 1233.8,1103.7 1234.9,1104.4 
		1236.1,1105 1236.8,1106.1 1237.3,1107.4 1238.3,1108.3 1238.6,1109.7 1239.5,1110.7 1240.3,1111.8 1240.7,1113.1 1241.3,1114.3 
		1242.3,1115.3 1243,1116.4 1243.1,1117.9 1243.6,1119.1 1244.7,1120.1 1244.8,1121.5 1245.9,1122.5 1245.9,1123.9 1246.6,1125.1 
		1247.1,1126.3 1248.2,1127.3 1248.2,1128.8 1249.1,1130.1 1249.7,1128.6 1249.7,1127.2 1250.5,1126.1 1251.4,1125.1 1251.6,1123.7 
		1252.2,1122.6 1253.2,1121.6 1253.5,1120.3 1254.5,1119.3 1254.8,1118 1255.3,1116.8 1256.3,1115.8 1257,1114.7 1257.8,1113.6 
		1258.2,1112.3 1258.9,1111.2 1259.1,1109.8 1259.5,1108.5 1260.1,1107.4 1260.3,1106.1 1261.2,1105 1261.2,1103.6 1261.8,1102.3 
		1261.4,1101 1261.9,1099.7 1262,1098.4 1261.7,1097 	"/>
	<polygon style="clip-path:url(#SVGID_4_);fill:#B2E2F8;" points="1314.4,1302.3 1314.6,1300.9 1314.7,1299.6 1314.6,1298.3 
		1314.5,1297 1314.5,1295.6 1315.1,1294.3 1314.9,1293 1314.5,1291.6 1315.1,1290.3 1315,1289 1315,1287.7 1315.1,1286.3 
		1314.5,1285 1314.6,1283.7 1314.5,1282.4 1314.6,1281 1314.9,1279.7 1314.7,1278.4 1315,1277.1 1314.9,1275.7 1314.8,1274.4 
		1315,1273.1 1314.7,1271.8 1314.7,1270.4 1314.8,1269.1 1315,1267.8 1314.6,1266.5 1315.1,1265.1 1314.4,1263.8 1314.7,1262.5 
		1315,1261.2 1314.7,1259.8 1315,1258.5 1315,1257.2 1314.6,1255.9 1314.9,1254.5 1314.4,1253.2 1315.1,1251.9 1314.7,1250.6 
		1314.6,1249.3 1314.3,1248 1314.9,1246.6 1314.2,1245.4 1314.5,1244 1314.1,1242.8 1313.6,1241.6 1313,1240.4 1312.9,1239 
		1312.2,1237.9 1311.6,1236.7 1311.4,1235.4 1310.4,1234.4 1309.6,1233.4 1309,1232.2 1308.4,1231 1307.4,1230.1 1307,1228.8 
		1305.9,1228.1 1305.3,1226.8 1304.4,1225.8 1303.2,1225.2 1302.5,1224 1301.5,1223.2 1300.2,1222.7 1299.3,1221.7 1298.1,1221.1 
		1296.9,1220.5 1295.7,1219.9 1294.8,1219 1293.5,1218.6 1292.5,1217.8 1291.3,1217.2 1290.1,1216.6 1289,1216 1287.6,1215.9 
		1286.5,1215.2 1285.2,1214.8 1283.9,1214.5 1282.6,1214.4 1281.3,1214 1280.1,1213.6 1278.8,1213.3 1277.6,1212.5 1276.3,1212.6 
		1275.1,1212 1273.8,1211.8 1272.6,1211.1 1271.2,1211.2 1270,1210.4 1268.7,1210.3 1267.5,1209.8 1266.1,1209.9 1264.8,1209.7 
		1263.7,1208.8 1262.3,1209.1 1261,1208.7 1259.7,1208.7 1258.4,1208.5 1257.2,1207.5 1255.9,1207.6 1254.5,1207.7 1253.3,1207.3 
		1252,1206.7 1250.7,1206.8 1249.4,1206.7 1248.1,1206.5 1246.9,1205.7 1245.5,1206.1 1244.3,1205.5 1243,1205.3 1241.6,1205.3 
		1240.4,1204.8 1239.1,1204.8 1237.8,1204.4 1236.5,1204.4 1235.2,1204.6 1233.8,1204.9 1232.5,1204.7 1231.2,1204.9 1229.9,1204.7 
		1228.6,1204.9 1227.3,1204.6 1226,1204.3 1224.7,1204.8 1223.4,1204.6 1222.1,1204.7 1220.8,1204.8 1219.5,1204.6 1218.2,1204.5 
		1216.9,1204.5 1215.6,1204.7 1214.3,1204.8 1213,1204.4 1211.7,1204.8 1210.4,1204.4 1209.1,1204.9 1207.8,1204.7 1206.5,1204.8 
		1205.2,1204.7 1203.9,1204.5 1202.6,1204.7 1201.3,1204.9 1200,1204.5 1198.7,1204.4 1197.4,1204.8 1196,1204.3 1194.7,1205 
		1193.4,1204.9 1192.1,1204.7 1190.8,1205 1189.5,1204.3 1188.2,1204.4 1186.9,1204.4 1185.7,1205.1 1184.4,1205.1 1183,1204.9 
		1181.7,1205.1 1180.5,1205.8 1179.1,1205.5 1177.9,1206.1 1176.6,1206.6 1175.3,1206.4 1174,1206.8 1172.7,1206.8 1171.4,1207.3 
		1170.1,1207.6 1168.8,1207.4 1167.6,1208 1166.2,1207.9 1165,1208.6 1163.6,1208.4 1162.4,1208.9 1161.1,1209.4 1159.9,1209.7 
		1158.6,1210 1157.3,1210.4 1155.9,1210.1 1154.7,1210.6 1153.5,1211.2 1152,1210.9 1150.8,1211.5 1149.5,1211.7 1148.4,1212.5 
		1147,1212.5 1145.9,1213.2 1144.6,1213.5 1143.2,1213.3 1142,1214 1140.7,1214.2 1139.6,1215.1 1138.2,1215 1137.1,1215.9 
		1135.8,1216.2 1134.5,1216.5 1133.6,1217.5 1132.3,1217.9 1131,1218.2 1129.9,1219 1129,1220 1127.6,1220.2 1126.8,1221.4 
		1125.5,1221.8 1124.4,1222.5 1123.4,1223.4 1122.5,1224.4 1121.4,1225.1 1120.7,1226.2 1119.4,1226.8 1118.6,1227.8 1117.7,1228.8 
		1116.9,1229.8 1116.2,1231 1115.7,1232.2 1114.7,1233.1 1114.5,1234.5 1113.8,1235.6 1112.7,1236.5 1112.5,1237.9 1111.7,1239 
		1111.5,1240.3 1111,1241.5 1111,1242.9 1110.9,1244.2 1110.3,1245.4 1110,1246.7 1109.7,1248 1109.9,1249.3 1110.2,1250.6 
		1110,1251.9 1110.3,1253.2 1109.7,1254.5 1109.9,1255.9 1110.1,1257.2 1110,1258.5 1110.3,1259.9 1109.9,1261.2 1109.8,1262.5 
		1109.7,1263.8 1109.6,1265.2 1110.1,1266.5 1109.6,1267.8 1109.9,1269.1 1109.6,1270.5 1110,1271.8 1110.2,1273.1 1110.2,1274.4 
		1109.7,1275.8 1109.6,1277.1 1109.8,1278.4 1110,1279.7 1110.3,1281.1 1109.7,1282.4 1109.7,1283.7 1110.3,1285 1110.2,1286.4 
		1110,1287.7 1110.3,1289 1110.2,1290.3 1109.8,1291.7 1109.7,1293 1109.8,1294.3 1109.8,1295.6 1109.6,1297 1109.8,1298.3 
		1109.8,1299.6 1109.8,1300.9 1110,1302.3 1110,1303.6 1109.7,1304.9 1110,1306.2 1315.1,1306.2 1315.1,1304.9 1315.1,1303.6 	"/>
	<path style="clip-path:url(#SVGID_4_);fill:#505050;" d="M1173,1130.7l15.1,43l4.6-5.8l8,5.8l5.8-5.8l5.9,5.8l6.1-5.8l4.9,5.8
		l5.9-5.8l4.8,5.8c0,0,10.6-33.6,10.9-35c0.4-1.4,3.3-9.9,3.3-9.9l1.4-40.8l-44.9-9.3c0,0-17.3-0.9-20,2.7c-2.7,3.6-16,25.8-16,25.8
		L1173,1130.7z"/>
</g>
</svg>
