<?xml version="1.0" encoding="utf-8"?>
<!-- Generator: Adobe Illustrator 24.1.3, SVG Export Plug-In . SVG Version: 6.00 Build 0)  -->
<svg version="1.1" id="レイヤー_1" xmlns="http://www.w3.org/2000/svg" xmlns:xlink="http://www.w3.org/1999/xlink" x="0px"
	 y="0px" viewBox="0 0 1440 1440" style="enable-background:new 0 0 1440 1440;" xml:space="preserve">
<style type="text/css">
	.st0{fill:#B2E2F8;}
	.st1{fill:#FFFFFF;stroke:#FFFFFF;stroke-miterlimit:10;}
	.st2{clip-path:url(#SVGID_2_);fill:#FFFFFF;}
	.st3{clip-path:url(#SVGID_2_);}
	.st4{fill:#505050;}
	.st5{fill:#9DC3E7;}
	.st6{fill:#FFFFFF;}
	.st7{fill:#FFAF9B;}
	.st8{fill:#FFCFBA;}
	.st9{fill:#B5D1ED;}
	.st10{fill:#F76E57;}
	.st11{fill:#00A0E9;}
	.st12{clip-path:url(#SVGID_4_);fill:#FFFFFF;}
	.st13{clip-path:url(#SVGID_4_);}
	.st14{fill:none;stroke:#B2E2F8;stroke-width:2;stroke-miterlimit:10;}
	.st15{clip-path:url(#SVGID_6_);}
	.st16{clip-path:url(#SVGID_8_);}
	.st17{fill:#F3BF9B;}
	.st18{fill:#D8E5F5;}
	.st19{fill:#FDE2A4;}
	.st20{fill:#231815;}
	.st21{fill:#C0D7EF;}
	.st22{clip-path:url(#SVGID_10_);}
</style>
<g>
	<path class="st6" d="M520.3,850.3c-1.5,1.5-3.8,1.5-5.3,0l0,0c-1.5-1.5-1.5-3.8,0-5.3l0,0c1.5-1.5,3.8-1.5,5.3,0l0,0
		C521.8,846.4,521.8,848.8,520.3,850.3z M454.2,916.4c-1.5,1.5-3.8,1.5-5.3,0l0,0c-1.5-1.5-1.5-3.8,0-5.3l0,0c1.5-1.5,3.8-1.5,5.3,0
		l0,0C455.7,912.5,455.7,914.9,454.2,916.4z M441,929.6c-1.5,1.5-3.8,1.5-5.3,0l0,0c-1.5-1.5-1.5-3.8,0-5.3l0,0
		c1.5-1.5,3.8-1.5,5.3,0l0,0C442.4,925.8,442.4,928.1,441,929.6z"/>
	<path class="st6" d="M507.1,863.5c-1.5,1.5-3.8,1.5-5.3,0l0,0c-1.5-1.5-1.5-3.8,0-5.3l0,0c1.5-1.5,3.8-1.5,5.3,0l0,0
		C508.5,859.7,508.5,862,507.1,863.5z"/>
	<path class="st6" d="M467.4,903.1c-1.5,1.5-3.8,1.5-5.3,0l0,0c-1.5-1.5-1.5-3.8,0-5.3l0,0c1.5-1.5,3.8-1.5,5.3,0l0,0
		C468.9,899.3,468.9,901.7,467.4,903.1z"/>
	<path class="st6" d="M480.6,889.9c-1.5,1.5-3.8,1.5-5.3,0l0,0c-1.5-1.5-1.5-3.8,0-5.3l0,0c1.5-1.5,3.8-1.5,5.3,0l0,0
		C482.1,886.1,482.1,888.5,480.6,889.9z"/>
	<path class="st6" d="M493.9,876.7c-1.5,1.5-3.8,1.5-5.3,0l0,0c-1.5-1.5-1.5-3.8,0-5.3l0,0c1.5-1.5,3.8-1.5,5.3,0l0,0
		C495.3,872.9,495.3,875.2,493.9,876.7z"/>
</g>
</svg>
