<?xml version="1.0" encoding="utf-8"?>
<!-- Generator: Adobe Illustrator 24.1.3, SVG Export Plug-In . SVG Version: 6.00 Build 0)  -->
<svg version="1.1" id="レイヤー_1" xmlns="http://www.w3.org/2000/svg" xmlns:xlink="http://www.w3.org/1999/xlink" x="0px"
	 y="0px" viewBox="0 0 1440 1440" style="enable-background:new 0 0 1440 1440;" xml:space="preserve">
<style type="text/css">
	.st0{fill:#FFFFFF;}
	.st1{opacity:0.3;}
	.st2{fill:#B2E2F8;}
	.st3{fill:#FF7A44;}
	.st4{fill:#00A0E9;}
	.st5{clip-path:url(#SVGID_2_);fill:#FFFFFF;}
	.st6{clip-path:url(#SVGID_2_);}
	.st7{fill:#CBDDF2;}
	.st8{fill:#C0D7EF;}
	.st9{fill:#D8E5F5;}
	.st10{fill:#B5D1ED;}
	.st11{fill:#8AB9E3;}
	.st12{clip-path:url(#SVGID_4_);fill:#FFFFFF;}
	.st13{clip-path:url(#SVGID_4_);}
	.st14{fill:#9DC3E7;}
	.st15{clip-path:url(#SVGID_6_);fill:#FFFFFF;}
	.st16{clip-path:url(#SVGID_6_);}
	.st17{fill:#E9F0F9;}
	.st18{clip-path:url(#SVGID_8_);fill:#FFFFFF;}
	.st19{clip-path:url(#SVGID_8_);}
	.st20{fill:#505050;}
	.st21{fill:#FFAF9B;}
	.st22{fill:#FFCFBA;}
	.st23{fill:#F76E57;}
	.st24{clip-path:url(#SVGID_10_);fill:none;}
	.st25{clip-path:url(#SVGID_10_);}
	.st26{fill:#47C9DE;}
	.st27{clip-path:url(#SVGID_12_);fill:none;}
	.st28{clip-path:url(#SVGID_12_);}
	.st29{fill:#FFDA65;}
	.st30{clip-path:url(#SVGID_14_);fill:#FFFFFF;}
	.st31{clip-path:url(#SVGID_14_);}
	.st32{clip-path:url(#SVGID_16_);fill:none;}
	.st33{clip-path:url(#SVGID_16_);}
	.st34{clip-path:url(#SVGID_18_);fill:none;}
	.st35{clip-path:url(#SVGID_18_);}
	.st36{clip-path:url(#SVGID_20_);}
	.st37{clip-path:url(#SVGID_22_);}
	.st38{clip-path:url(#SVGID_24_);}
	.st39{clip-path:url(#SVGID_26_);fill:#FFFFFF;}
	.st40{clip-path:url(#SVGID_26_);fill:#505050;}
	.st41{clip-path:url(#SVGID_26_);fill:#9DC3E7;}
	.st42{clip-path:url(#SVGID_26_);fill:#FFAF9B;}
	.st43{clip-path:url(#SVGID_26_);fill:#FFCFBA;}
	.st44{clip-path:url(#SVGID_26_);}
	.st45{clip-path:url(#SVGID_28_);fill:none;}
	.st46{clip-path:url(#SVGID_28_);}
	.st47{clip-path:url(#SVGID_30_);fill:none;}
	.st48{clip-path:url(#SVGID_30_);}
	.st49{clip-path:url(#SVGID_32_);fill:none;}
	.st50{clip-path:url(#SVGID_32_);}
	.st51{clip-path:url(#SVGID_34_);fill:#FFCFBA;}
	.st52{clip-path:url(#SVGID_34_);fill:#505050;}
	.st53{clip-path:url(#SVGID_34_);fill:#B2E2F8;}
	.st54{clip-path:url(#SVGID_36_);fill:#FFFFFF;}
	.st55{clip-path:url(#SVGID_36_);fill:#505050;}
	.st56{clip-path:url(#SVGID_36_);fill:#9DC3E7;}
	.st57{clip-path:url(#SVGID_36_);fill:#FFAF9B;}
	.st58{clip-path:url(#SVGID_36_);fill:#FFCFBA;}
	.st59{clip-path:url(#SVGID_36_);}
	.st60{clip-path:url(#SVGID_38_);fill:#FFCFBA;}
	.st61{clip-path:url(#SVGID_38_);fill:#505050;}
	.st62{clip-path:url(#SVGID_38_);fill:#B2E2F8;}
	.st63{clip-path:url(#SVGID_40_);fill:none;}
	.st64{clip-path:url(#SVGID_40_);}
	.st65{clip-path:url(#SVGID_42_);fill:#FFCFBA;}
	.st66{clip-path:url(#SVGID_42_);fill:#505050;}
	.st67{clip-path:url(#SVGID_42_);fill:#B2E2F8;}
</style>
<g>
	<path class="st0" d="M731.9,1037.2c2.2,0,4,1.8,4,4l0,0c0,2.2-1.8,4-4,4l0,0c-2.2,0-4-1.8-4-4l0,0
		C727.9,1039,729.7,1037.2,731.9,1037.2z M751.9,1037.2c2.2,0,4,1.8,4,4l0,0c0,2.2-1.8,4-4,4l0,0c-2.2,0-4-1.8-4-4l0,0
		C747.9,1039,749.7,1037.2,751.9,1037.2z M772,1037.2c2.2,0,4,1.8,4,4l0,0c0,2.2-1.8,4-4,4l0,0c-2.2,0-4-1.8-4-4l0,0
		C768,1039,769.8,1037.2,772,1037.2z M792,1037.2c2.2,0,4,1.8,4,4l0,0c0,2.2-1.8,4-4,4l0,0c-2.2,0-4-1.8-4-4l0,0
		C788,1039,789.8,1037.2,792,1037.2z M812.1,1037.2c2.2,0,4,1.8,4,4l0,0c0,2.2-1.8,4-4,4l0,0c-2.2,0-4-1.8-4-4l0,0
		C808.1,1039,809.9,1037.2,812.1,1037.2z M832.1,1037.2c2.2,0,4,1.8,4,4l0,0c0,2.2-1.8,4-4,4l0,0c-2.2,0-4-1.8-4-4l0,0
		C828.1,1039,829.9,1037.2,832.1,1037.2z M852.2,1037.2c2.2,0,4,1.8,4,4l0,0c0,2.2-1.8,4-4,4l0,0c-2.2,0-4-1.8-4-4l0,0
		C848.2,1039,850,1037.2,852.2,1037.2z M872.3,1037.2c2.2,0,4,1.8,4,4l0,0c0,2.2-1.8,4-4,4l0,0c-2.2,0-4-1.8-4-4l0,0
		C868.2,1039,870,1037.2,872.3,1037.2z M892.3,1037.2c2.2,0,4,1.8,4,4l0,0c0,2.2-1.8,4-4,4l0,0c-2.2,0-4-1.8-4-4l0,0
		C888.3,1039,890.1,1037.2,892.3,1037.2z M912.4,1037.2c2.2,0,4,1.8,4,4l0,0c0,2.2-1.8,4-4,4l0,0c-2.2,0-4-1.8-4-4l0,0
		C908.4,1039,910.2,1037.2,912.4,1037.2z M952.5,1037.2c2.2,0,4,1.8,4,4l0,0c0,2.2-1.8,4-4,4l0,0c-2.2,0-4-1.8-4-4l0,0
		C948.5,1039,950.3,1037.2,952.5,1037.2z M1012.7,1037.2c2.2,0,4,1.8,4,4l0,0c0,2.2-1.8,4-4,4l0,0c-2.2,0-4-1.8-4-4l0,0
		C1008.6,1039,1010.4,1037.2,1012.7,1037.2z"/>
</g>
<g>
	<path class="st0" d="M713.4,760.5c0,2.2-1.8,4-4,4l0,0c-2.2,0-4-1.8-4-4l0,0c0-2.2,1.8-4,4-4l0,0
		C711.6,756.4,713.4,758.2,713.4,760.5z M713.4,780.5c0,2.2-1.8,4-4,4l0,0c-2.2,0-4-1.8-4-4l0,0c0-2.2,1.8-4,4-4l0,0
		C711.6,776.5,713.4,778.3,713.4,780.5z M713.4,800.6c0,2.2-1.8,4-4,4l0,0c-2.2,0-4-1.8-4-4l0,0c0-2.2,1.8-4,4-4l0,0
		C711.6,796.6,713.4,798.4,713.4,800.6z M713.4,880.8c0,2.2-1.8,4-4,4l0,0c-2.2,0-4-1.8-4-4l0,0c0-2.2,1.8-4,4-4l0,0
		C711.6,876.8,713.4,878.6,713.4,880.8z M713.4,900.9c0,2.2-1.8,4-4,4l0,0c-2.2,0-4-1.8-4-4l0,0c0-2.2,1.8-4,4-4l0,0
		C711.6,896.8,713.4,898.6,713.4,900.9z M713.4,920.9c0,2.2-1.8,4-4,4l0,0c-2.2,0-4-1.8-4-4l0,0c0-2.2,1.8-4,4-4l0,0
		C711.6,916.9,713.4,918.7,713.4,920.9z M713.4,941c0,2.2-1.8,4-4,4l0,0c-2.2,0-4-1.8-4-4l0,0c0-2.2,1.8-4,4-4l0,0
		C711.6,937,713.4,938.7,713.4,941z M713.4,961c0,2.2-1.8,4-4,4l0,0c-2.2,0-4-1.8-4-4l0,0c0-2.2,1.8-4,4-4l0,0
		C711.6,957,713.4,958.8,713.4,961z M713.4,981.1c0,2.2-1.8,4-4,4l0,0c-2.2,0-4-1.8-4-4l0,0c0-2.2,1.8-4,4-4l0,0
		C711.6,977.1,713.4,978.9,713.4,981.1z M713.4,1001.1c0,2.2-1.8,4-4,4l0,0c-2.2,0-4-1.8-4-4l0,0c0-2.2,1.8-4,4-4l0,0
		C711.6,997.1,713.4,998.9,713.4,1001.1z M713.4,1021.2c0,2.2-1.8,4-4,4l0,0c-2.2,0-4-1.8-4-4l0,0c0-2.2,1.8-4,4-4l0,0
		C711.6,1017.2,713.4,1019,713.4,1021.2z M713.4,1041.2c0,2.2-1.8,4-4,4l0,0c-2.2,0-4-1.8-4-4l0,0c0-2.2,1.8-4,4-4l0,0
		C711.6,1037.2,713.4,1039,713.4,1041.2z"/>
</g>
</svg>
