<?xml version="1.0" encoding="utf-8"?>
<!-- Generator: Adobe Illustrator 24.1.3, SVG Export Plug-In . SVG Version: 6.00 Build 0)  -->
<svg version="1.1" id="レイヤー_1" xmlns="http://www.w3.org/2000/svg" xmlns:xlink="http://www.w3.org/1999/xlink" x="0px"
	 y="0px" viewBox="0 0 1440 1440" style="enable-background:new 0 0 1440 1440;" xml:space="preserve">
<style type="text/css">
	.st0{fill:#FFFFFF;}
	.st1{opacity:0.3;}
	.st2{fill:#B2E2F8;}
	.st3{fill:#FF7A44;}
	.st4{fill:#00A0E9;}
	.st5{clip-path:url(#SVGID_2_);fill:#FFFFFF;}
	.st6{clip-path:url(#SVGID_2_);}
	.st7{fill:#CBDDF2;}
	.st8{fill:#C0D7EF;}
	.st9{fill:#D8E5F5;}
	.st10{fill:#B5D1ED;}
	.st11{fill:#8AB9E3;}
	.st12{clip-path:url(#SVGID_4_);fill:#FFFFFF;}
	.st13{clip-path:url(#SVGID_4_);}
	.st14{fill:#9DC3E7;}
	.st15{clip-path:url(#SVGID_6_);fill:#FFFFFF;}
	.st16{clip-path:url(#SVGID_6_);}
	.st17{fill:#E9F0F9;}
	.st18{clip-path:url(#SVGID_8_);fill:#FFFFFF;}
	.st19{clip-path:url(#SVGID_8_);}
	.st20{fill:#505050;}
	.st21{fill:#FFAF9B;}
	.st22{fill:#FFCFBA;}
	.st23{fill:#F76E57;}
	.st24{clip-path:url(#SVGID_10_);fill:none;}
	.st25{clip-path:url(#SVGID_10_);}
	.st26{fill:#47C9DE;}
	.st27{clip-path:url(#SVGID_12_);fill:none;}
	.st28{clip-path:url(#SVGID_12_);}
	.st29{fill:#FFDA65;}
	.st30{clip-path:url(#SVGID_14_);fill:#FFFFFF;}
	.st31{clip-path:url(#SVGID_14_);}
	.st32{clip-path:url(#SVGID_16_);fill:none;}
	.st33{clip-path:url(#SVGID_16_);}
	.st34{clip-path:url(#SVGID_18_);fill:none;}
	.st35{clip-path:url(#SVGID_18_);}
	.st36{clip-path:url(#SVGID_20_);}
	.st37{clip-path:url(#SVGID_22_);}
	.st38{clip-path:url(#SVGID_24_);}
	.st39{clip-path:url(#SVGID_26_);fill:#FFFFFF;}
	.st40{clip-path:url(#SVGID_26_);fill:#505050;}
	.st41{clip-path:url(#SVGID_26_);fill:#9DC3E7;}
	.st42{clip-path:url(#SVGID_26_);fill:#FFAF9B;}
	.st43{clip-path:url(#SVGID_26_);fill:#FFCFBA;}
	.st44{clip-path:url(#SVGID_26_);}
	.st45{clip-path:url(#SVGID_28_);fill:none;}
	.st46{clip-path:url(#SVGID_28_);}
	.st47{clip-path:url(#SVGID_30_);fill:none;}
	.st48{clip-path:url(#SVGID_30_);}
	.st49{clip-path:url(#SVGID_32_);fill:none;}
	.st50{clip-path:url(#SVGID_32_);}
	.st51{clip-path:url(#SVGID_34_);fill:#FFCFBA;}
	.st52{clip-path:url(#SVGID_34_);fill:#505050;}
	.st53{clip-path:url(#SVGID_34_);fill:#B2E2F8;}
	.st54{clip-path:url(#SVGID_36_);fill:#FFFFFF;}
	.st55{clip-path:url(#SVGID_36_);fill:#505050;}
	.st56{clip-path:url(#SVGID_36_);fill:#9DC3E7;}
	.st57{clip-path:url(#SVGID_36_);fill:#FFAF9B;}
	.st58{clip-path:url(#SVGID_36_);fill:#FFCFBA;}
	.st59{clip-path:url(#SVGID_36_);}
	.st60{clip-path:url(#SVGID_38_);fill:#FFCFBA;}
	.st61{clip-path:url(#SVGID_38_);fill:#505050;}
	.st62{clip-path:url(#SVGID_38_);fill:#B2E2F8;}
	.st63{clip-path:url(#SVGID_40_);fill:none;}
	.st64{clip-path:url(#SVGID_40_);}
	.st65{clip-path:url(#SVGID_42_);fill:#FFCFBA;}
	.st66{clip-path:url(#SVGID_42_);fill:#505050;}
	.st67{clip-path:url(#SVGID_42_);fill:#B2E2F8;}
</style>
<path class="st2" d="M739.7,831.8v-37h0.2v-41.2h-73.6l-0.2,41.2l0,0v37c-0.4,3.4-7.8,9.1-11.7,9.7h97.5
	C749.2,841.1,740.4,835.8,739.7,831.8z"/>
<path class="st2" d="M739.7,831.8v-37h0.2v-41.2h-73.6l-0.2,41.2l0,0v37c-0.4,3.4-7.8,9.1-11.7,9.7h97.5
	C749.2,841.1,740.4,835.8,739.7,831.8z"/>
<g>
	<rect x="516.9" y="515" class="st0" width="381.2" height="235.7"/>
	<path class="st0" d="M898.6,751.2H516.4V514.5h382.2V751.2z M517.4,750.2h380.2V515.5H517.4V750.2z"/>
</g>
<path class="st2" d="M910.4,491.6c-3.2-2.6-7-4-11.1-4c-11.4,0-22.8,0-34.2,0c-2.6,0-5.3,0-7.9,0c-6,0-12,0-18.1,0
	c-9.7,0-19.4,0-29.1,0c-12.5,0-25,0-37.6,0c-14.4,0-28.7,0-43.1,0c-15.2,0-30.4,0-45.7,0c-15.3,0-30.6,0-45.8,0
	c-14.3,0-28.5,0-42.8,0c-12.5,0-24.9,0-37.4,0c-9.6,0-19.2,0-28.8,0c-5.9,0-11.8,0-17.7,0c-1.3,0-2.5,0-3.8,0
	c-6,0-11.5,2.7-14.9,7.7c-3.7,5.3-3,11.9-3,18c0,9.1,0,18.2,0,27.4c0,13.3,0,26.5,0,39.8c0,15.2,0,30.4,0,45.6c0,14.7,0,29.5,0,44.2
	c0,12.1,0,24.2,0,36.3c0,7.1,0,14.2,0,21.2c0,0.9,0,1.9,0,2.8c0,1.7,1.5,3.2,3.2,3.2c7,0,14,0,21.1,0c1.7,0,3.2-1.5,3.2-3.2
	c0-7.3,0-14.5,0-21.8c0-17.5,0-34.9,0-52.4c0-21,0-42.1,0-63.1c0-18.2,0-36.4,0-54.5c0-6,0-12,0-18c0-1.9,0.1-3.8,0.1-5.8
	c2.8,0,5.6,0,8.3,0c10.4,0,20.7,0,31.1,0c15,0,29.9,0,44.9,0c17.6,0,35.2,0,52.7,0c18.4,0,36.9,0,55.3,0c17.3,0,34.7,0,52,0
	c14.3,0,28.5,0,42.8,0c9.4,0,18.8,0,28.3,0c3.4,0,6.8,0,10.2,0c15.3,0,30.6,0,45.9,0c0.3,0,0.6,0,0.9,0c0,6.2,0,12.4,0,18.6
	c0,17.5,0,34.9,0,52.4c0,21,0,42.1,0,63.1c0,18.2,0,36.4,0,54.5c0,8.8-0.3,17.7,0,26.5c0,0.1,0,0.3,0,0.4c0,1.7,1.5,3.2,3.2,3.2
	c7,0,14,0,21.1,0c1.7,0,3.2-1.5,3.2-3.2c0-8.3,0-16.6,0-24.9c0-19.6,0-39.2,0-58.7c0-22.9,0-45.8,0-68.8c0-18.3,0-36.7,0-55
	c0-5,0-9.9,0-14.9c0-1,0-2,0-3C916.8,500.1,914.6,495,910.4,491.6z"/>
<path class="st2" d="M489.4,755.8c0,7.9,6.4,14.3,14.3,14.3h172.6h53.5h172.6c7.9,0,14.3-6.4,14.3-14.3v-25.2H489.4V755.8z"/>
<path class="st2" d="M787.6,835.7H617.1c-0.9,0-1.7,1-1.7,2.2v14.6c0,1.2,0.7,2.2,1.7,2.2h170.4c0.9,0,1.7-1,1.7-2.2v-14.6
	C789.2,836.7,788.5,835.7,787.6,835.7z"/>
</svg>
