<?xml version="1.0" encoding="utf-8"?>
<!-- Generator: Adobe Illustrator 24.1.3, SVG Export Plug-In . SVG Version: 6.00 Build 0)  -->
<svg version="1.1" id="レイヤー_1" xmlns="http://www.w3.org/2000/svg" xmlns:xlink="http://www.w3.org/1999/xlink" x="0px"
	 y="0px" viewBox="0 0 1440 1440" style="enable-background:new 0 0 1440 1440;" xml:space="preserve">
<style type="text/css">
	.st0{fill:#FFFFFF;}
	.st1{opacity:0.3;}
	.st2{fill:#B2E2F8;}
	.st3{fill:#FF7A44;}
	.st4{fill:#00A0E9;}
	.st5{clip-path:url(#SVGID_2_);fill:#FFFFFF;}
	.st6{clip-path:url(#SVGID_2_);}
	.st7{fill:#CBDDF2;}
	.st8{fill:#C0D7EF;}
	.st9{fill:#D8E5F5;}
	.st10{fill:#B5D1ED;}
	.st11{fill:#8AB9E3;}
	.st12{clip-path:url(#SVGID_4_);fill:#FFFFFF;}
	.st13{clip-path:url(#SVGID_4_);}
	.st14{fill:#9DC3E7;}
	.st15{clip-path:url(#SVGID_6_);fill:#FFFFFF;}
	.st16{clip-path:url(#SVGID_6_);}
	.st17{fill:#E9F0F9;}
	.st18{clip-path:url(#SVGID_8_);fill:#FFFFFF;}
	.st19{clip-path:url(#SVGID_8_);}
	.st20{fill:#505050;}
	.st21{fill:#FFAF9B;}
	.st22{fill:#FFCFBA;}
	.st23{fill:#F76E57;}
	.st24{clip-path:url(#SVGID_10_);fill:none;}
	.st25{clip-path:url(#SVGID_10_);}
	.st26{fill:#47C9DE;}
	.st27{clip-path:url(#SVGID_12_);fill:none;}
	.st28{clip-path:url(#SVGID_12_);}
	.st29{fill:#FFDA65;}
	.st30{clip-path:url(#SVGID_14_);fill:#FFFFFF;}
	.st31{clip-path:url(#SVGID_14_);}
	.st32{clip-path:url(#SVGID_16_);fill:none;}
	.st33{clip-path:url(#SVGID_16_);}
	.st34{clip-path:url(#SVGID_18_);fill:none;}
	.st35{clip-path:url(#SVGID_18_);}
	.st36{clip-path:url(#SVGID_20_);}
	.st37{clip-path:url(#SVGID_22_);}
	.st38{clip-path:url(#SVGID_24_);}
	.st39{clip-path:url(#SVGID_26_);fill:#FFFFFF;}
	.st40{clip-path:url(#SVGID_26_);fill:#505050;}
	.st41{clip-path:url(#SVGID_26_);fill:#9DC3E7;}
	.st42{clip-path:url(#SVGID_26_);fill:#FFAF9B;}
	.st43{clip-path:url(#SVGID_26_);fill:#FFCFBA;}
	.st44{clip-path:url(#SVGID_26_);}
	.st45{clip-path:url(#SVGID_28_);fill:none;}
	.st46{clip-path:url(#SVGID_28_);}
	.st47{clip-path:url(#SVGID_30_);fill:none;}
	.st48{clip-path:url(#SVGID_30_);}
	.st49{clip-path:url(#SVGID_32_);fill:none;}
	.st50{clip-path:url(#SVGID_32_);}
	.st51{clip-path:url(#SVGID_34_);fill:#FFCFBA;}
	.st52{clip-path:url(#SVGID_34_);fill:#505050;}
	.st53{clip-path:url(#SVGID_34_);fill:#B2E2F8;}
	.st54{clip-path:url(#SVGID_36_);fill:#FFFFFF;}
	.st55{clip-path:url(#SVGID_36_);fill:#505050;}
	.st56{clip-path:url(#SVGID_36_);fill:#9DC3E7;}
	.st57{clip-path:url(#SVGID_36_);fill:#FFAF9B;}
	.st58{clip-path:url(#SVGID_36_);fill:#FFCFBA;}
	.st59{clip-path:url(#SVGID_36_);}
	.st60{clip-path:url(#SVGID_38_);fill:#FFCFBA;}
	.st61{clip-path:url(#SVGID_38_);fill:#505050;}
	.st62{clip-path:url(#SVGID_38_);fill:#B2E2F8;}
	.st63{clip-path:url(#SVGID_40_);fill:none;}
	.st64{clip-path:url(#SVGID_40_);}
	.st65{clip-path:url(#SVGID_42_);fill:#FFCFBA;}
	.st66{clip-path:url(#SVGID_42_);fill:#505050;}
	.st67{clip-path:url(#SVGID_42_);fill:#B2E2F8;}
</style>
<g>
	<path class="st4" d="M669.5,625.3c-0.4-0.5-0.2-1.1,0.3-1.3c2.4-0.7,4.3-2,5.6-3.7c1.5-1.9,2.3-4.5,2.3-7.6c0-1.7-0.3-3.4-0.8-4.9
		c-0.6-1.5-1.4-2.9-2.5-4c-1.1-1.2-2.5-2.1-4.2-2.7c-1.7-0.7-3.7-1-6-1h-15.9c-0.4,0-0.7,0.3-0.7,0.7v39.3c0,0.5,0.5,1,1,1h8.9
		c0.4,0,0.7-0.3,0.7-0.7v-12.4c0-0.8,1.1-1,1.6-0.2l8.3,12.8c0.2,0.3,0.5,0.5,0.9,0.5h11.2c0.7,0,0.9-0.7,0.5-1.3L669.5,625.3z
		 M665.1,617.2c-1.1,0.9-2.7,1.3-4.8,1.3h-1c-0.5,0-1-0.5-1-1v-8.4c0-0.4,0.3-0.7,0.7-0.7h1.3c2.1,0,3.7,0.4,4.8,1.3
		c1.1,0.9,1.7,2.1,1.7,3.8C666.8,615.1,666.2,616.3,665.1,617.2z"/>
	<path class="st4" d="M718.7,600.1h-8.9c-0.4,0-0.7,0.3-0.7,0.7v21.6c0,1.2,0,2.4-0.1,3.7c-0.1,1.3-0.4,2.4-0.8,3.4
		c-0.5,1-1.2,1.8-2.1,2.5c-1,0.6-2.3,1-4.1,1c-1.8,0-3.2-0.3-4.1-1c-1-0.6-1.7-1.5-2.1-2.5c-0.5-1-0.7-2.2-0.8-3.4
		c-0.1-1.3-0.1-2.5-0.1-3.7v-21.3c0-0.5-0.5-1-1-1h-8.9c-0.4,0-0.7,0.3-0.7,0.7v23.1c0,6.4,1.5,11,4.4,14s7.4,4.4,13.5,4.4
		c6.1,0,10.6-1.5,13.5-4.4c2.9-2.9,4.4-7.6,4.4-14v-22.8C719.7,600.6,719.2,600.1,718.7,600.1z"/>
	<path class="st4" d="M748.1,625.3c-0.4-0.5-0.2-1.1,0.3-1.3c2.4-0.7,4.3-2,5.6-3.7c1.5-1.9,2.3-4.5,2.3-7.6c0-1.7-0.3-3.4-0.8-4.9
		c-0.6-1.5-1.4-2.9-2.5-4c-1.1-1.2-2.5-2.1-4.2-2.7c-1.7-0.7-3.7-1-6-1h-15.9c-0.4,0-0.7,0.3-0.7,0.7v39.3c0,0.5,0.5,1,1,1h8.9
		c0.4,0,0.7-0.3,0.7-0.7v-12.4c0-0.8,1.1-1,1.6-0.2l8.3,12.8c0.2,0.3,0.5,0.5,0.9,0.5h11.2c0.7,0,0.9-0.7,0.5-1.3L748.1,625.3z
		 M743.7,617.2c-1.1,0.9-2.7,1.3-4.8,1.3h-1c-0.5,0-1-0.5-1-1v-8.4c0-0.4,0.3-0.7,0.7-0.7h1.3c2.1,0,3.7,0.4,4.8,1.3
		c1.1,0.9,1.7,2.1,1.7,3.8C745.4,615.1,744.8,616.3,743.7,617.2z"/>
	<path class="st4" d="M805.2,639.9l-14.8-38.8c-0.2-0.4-0.6-0.7-1-0.7h-10.3c-0.3,0-0.6,0.2-0.7,0.4l-14.8,38.8
		c-0.2,0.6,0.3,1.3,1,1.3h9.2c0.3,0,0.6-0.2,0.7-0.5l2.1-6.1c0.1-0.3,0.4-0.5,0.7-0.5h13.8c0.4,0,0.8,0.3,1,0.7l1.9,5.6
		c0.1,0.4,0.6,0.7,1,0.7h9.5C805.1,640.9,805.4,640.4,805.2,639.9z M788.2,625.9h-7c-0.6,0-1.2-0.7-1-1.3l3.5-10
		c0.3-0.7,1.4-0.6,1.6,0.3l3.5,10C789,625.4,788.7,625.9,788.2,625.9z"/>
	<path class="st4" d="M584.3,613.2c0.3,0.8,1,1.2,1.7,1.2c0.2,0,0.4,0,0.6-0.1c0.9-0.3,1.4-1.4,1.1-2.3h0c-1.5-4.2-1.2-7.6,0.7-9.5
		c2.1-2.1,6.1-2.4,11.1-0.7c0.8,0.3,1.5,0.5,2.3,0.8c1.2-0.9,2.4-1.7,3.7-2.4c-1.5-0.7-3.1-1.3-4.8-1.9c-6.3-2.1-11.7-1.5-14.8,1.6
		C582.9,602.8,582.4,607.5,584.3,613.2C584.3,613.2,584.3,613.2,584.3,613.2z"/>
	<path class="st4" d="M612.7,598.3c-1.4,0.5-2.9,1.1-4.4,1.8c-0.5,0.2-0.9,0.5-1.4,0.7c-1.2,0.7-2.5,1.4-3.7,2.3
		c-0.4,0.3-0.8,0.6-1.3,0.9c-2.9,2.1-5.7,4.6-8.2,7.4l0,0c-0.7,0.7-0.6,1.9,0.1,2.6c0.3,0.3,0.8,0.5,1.2,0.5c0.5,0,1-0.2,1.3-0.6h0
		c2.9-3.1,6-5.9,9.3-8c0.4-0.3,0.8-0.5,1.2-0.8l0.1,0.1c0.4,0.2,0.8,0.5,1.2,0.7c3.1,2,5.9,4.6,8.6,7.8c0,0,0,0,0,0
		c0.6,0.8,1.8,0.9,2.6,0.2c0.8-0.6,0.9-1.8,0.2-2.6c0,0,0,0,0,0c-2.5-3-5-5.4-7.7-7.4c-0.4-0.3-0.8-0.6-1.2-0.9
		c0.5-0.2,0.9-0.4,1.4-0.6c0.6-0.3,1.2-0.5,1.8-0.7c4.9-1.6,9-1.4,11.1,0.7c1.9,1.9,2.1,5.3,0.7,9.5l0,0c-0.3,0.9,0.2,2,1.1,2.3
		c0.9,0.3,2-0.2,2.3-1.1c0,0,0,0,0,0c1.9-5.6,1.4-10.3-1.5-13.3C624.4,596.8,619,596.2,612.7,598.3z"/>
	<path class="st4" d="M623.3,624.5c2.4,0,4.3-1.9,4.3-4.3c0-2.4-1.9-4.3-4.3-4.3s-4.3,1.9-4.3,4.3
		C619,622.6,620.9,624.5,623.3,624.5z"/>
	<path class="st4" d="M586.1,620c0,2.4,1.9,4.3,4.3,4.3s4.3-1.9,4.3-4.3s-1.9-4.3-4.3-4.3S586.1,617.7,586.1,620z"/>
	<path class="st4" d="M626.7,626c-1,0.3-1.5,1.3-1.1,2.3c1.6,4.8,1.3,8.8-0.9,10.9c-2.1,2-5.8,2.1-10.3,0.4c-1-0.4-1.9-0.8-2.8-1.2
		c-1.1,0.8-2.3,1.6-3.5,2.3c1.6,0.8,3.2,1.6,5,2.3c2.5,1,4.8,1.4,6.9,1.4c2.9,0,5.4-0.9,7.2-2.6c3.3-3.1,3.9-8.5,1.9-14.7
		C628.7,626.2,627.6,625.7,626.7,626z"/>
	<path class="st4" d="M611.4,637c2.9-2.2,5.6-4.9,8.2-8.1c0,0,0,0,0,0c0.6-0.8,0.5-1.9-0.3-2.6c-0.8-0.6-1.9-0.5-2.6,0.3
		c0,0,0,0,0,0c-2.8,3.4-5.7,6.2-8.9,8.4c-0.4,0.2-0.7,0.5-1.1,0.7l-1.3-0.8l-0.5-0.3c-3.1-2.2-5.8-4.8-8.5-8.1c0,0,0,0,0,0
		c-0.6-0.8-1.8-0.9-2.6-0.3c-0.8,0.6-0.9,1.8-0.3,2.6c0,0,0,0,0,0c2.6,3.2,5.3,5.8,8.2,8.1c0.4,0.3,0.8,0.6,1.2,0.9
		c-0.4,0.2-0.9,0.4-1.4,0.7c-0.9,0.4-1.8,0.8-2.8,1.2c-4.4,1.7-8.2,1.6-10.3-0.4c-2.2-2.1-2.5-6.1-0.9-10.9c0.3-1-0.2-2-1.1-2.3
		c-1-0.3-2,0.2-2.3,1.1c-2.1,6.2-1.4,11.6,1.9,14.7c1.8,1.7,4.3,2.6,7.2,2.6c2.1,0,4.5-0.5,6.9-1.4c1.8-0.7,3.4-1.4,5-2.3
		c0.5-0.2,0.9-0.5,1.4-0.7c1.2-0.7,2.4-1.4,3.5-2.2C610.6,637.5,611,637.3,611.4,637z"/>
</g>
</svg>
