<?xml version="1.0" encoding="utf-8"?>
<!-- Generator: Adobe Illustrator 24.1.3, SVG Export Plug-In . SVG Version: 6.00 Build 0)  -->
<svg version="1.1" id="レイヤー_1" xmlns="http://www.w3.org/2000/svg" xmlns:xlink="http://www.w3.org/1999/xlink" x="0px"
	 y="0px" viewBox="0 0 1440 1440" style="enable-background:new 0 0 1440 1440;" xml:space="preserve">
<style type="text/css">
	.st0{fill:#FFFFFF;}
	.st1{opacity:0.3;}
	.st2{fill:#B2E2F8;}
	.st3{fill:#FF7A44;}
	.st4{fill:#00A0E9;}
	.st5{clip-path:url(#SVGID_2_);fill:#FFFFFF;}
	.st6{clip-path:url(#SVGID_2_);}
	.st7{fill:#CBDDF2;}
	.st8{fill:#C0D7EF;}
	.st9{fill:#D8E5F5;}
	.st10{fill:#B5D1ED;}
	.st11{fill:#8AB9E3;}
	.st12{clip-path:url(#SVGID_4_);fill:#FFFFFF;}
	.st13{clip-path:url(#SVGID_4_);}
	.st14{fill:#9DC3E7;}
	.st15{clip-path:url(#SVGID_6_);fill:#FFFFFF;}
	.st16{clip-path:url(#SVGID_6_);}
	.st17{fill:#E9F0F9;}
	.st18{clip-path:url(#SVGID_8_);fill:#FFFFFF;}
	.st19{clip-path:url(#SVGID_8_);}
	.st20{fill:#505050;}
	.st21{fill:#FFAF9B;}
	.st22{fill:#FFCFBA;}
	.st23{fill:#F76E57;}
	.st24{clip-path:url(#SVGID_10_);fill:none;}
	.st25{clip-path:url(#SVGID_10_);}
	.st26{fill:#47C9DE;}
	.st27{clip-path:url(#SVGID_12_);fill:none;}
	.st28{clip-path:url(#SVGID_12_);}
	.st29{fill:#FFDA65;}
	.st30{clip-path:url(#SVGID_14_);fill:#FFFFFF;}
	.st31{clip-path:url(#SVGID_14_);}
	.st32{clip-path:url(#SVGID_16_);fill:none;}
	.st33{clip-path:url(#SVGID_16_);}
	.st34{clip-path:url(#SVGID_18_);fill:none;}
	.st35{clip-path:url(#SVGID_18_);}
	.st36{clip-path:url(#SVGID_20_);}
	.st37{clip-path:url(#SVGID_22_);}
	.st38{clip-path:url(#SVGID_24_);}
	.st39{clip-path:url(#SVGID_26_);fill:#FFFFFF;}
	.st40{clip-path:url(#SVGID_26_);fill:#505050;}
	.st41{clip-path:url(#SVGID_26_);fill:#9DC3E7;}
	.st42{clip-path:url(#SVGID_26_);fill:#FFAF9B;}
	.st43{clip-path:url(#SVGID_26_);fill:#FFCFBA;}
	.st44{clip-path:url(#SVGID_26_);}
	.st45{clip-path:url(#SVGID_28_);fill:none;}
	.st46{clip-path:url(#SVGID_28_);}
	.st47{clip-path:url(#SVGID_30_);fill:none;}
	.st48{clip-path:url(#SVGID_30_);}
	.st49{clip-path:url(#SVGID_32_);fill:none;}
	.st50{clip-path:url(#SVGID_32_);}
	.st51{clip-path:url(#SVGID_34_);fill:#FFCFBA;}
	.st52{clip-path:url(#SVGID_34_);fill:#505050;}
	.st53{clip-path:url(#SVGID_34_);fill:#B2E2F8;}
	.st54{clip-path:url(#SVGID_36_);fill:#FFFFFF;}
	.st55{clip-path:url(#SVGID_36_);fill:#505050;}
	.st56{clip-path:url(#SVGID_36_);fill:#9DC3E7;}
	.st57{clip-path:url(#SVGID_36_);fill:#FFAF9B;}
	.st58{clip-path:url(#SVGID_36_);fill:#FFCFBA;}
	.st59{clip-path:url(#SVGID_36_);}
	.st60{clip-path:url(#SVGID_38_);fill:#FFCFBA;}
	.st61{clip-path:url(#SVGID_38_);fill:#505050;}
	.st62{clip-path:url(#SVGID_38_);fill:#B2E2F8;}
	.st63{clip-path:url(#SVGID_40_);fill:none;}
	.st64{clip-path:url(#SVGID_40_);}
	.st65{clip-path:url(#SVGID_42_);fill:#FFCFBA;}
	.st66{clip-path:url(#SVGID_42_);fill:#505050;}
	.st67{clip-path:url(#SVGID_42_);fill:#B2E2F8;}
</style>
<g>
	<defs>
		<circle id="SVGID_25_" cx="352.6" cy="247" r="152.1"/>
	</defs>
	<clipPath id="SVGID_2_">
		<use xlink:href="#SVGID_25_"  style="overflow:visible;"/>
	</clipPath>
	<circle class="st5" cx="352.6" cy="247" r="152.1"/>
	<polygon style="clip-path:url(#SVGID_2_);fill:#505050;" points="347.7,295.5 347.2,293.9 347.4,292.3 347.8,290.7 346.9,289.1 
		347.2,287.5 346.9,285.9 346.8,284.2 346.6,282.6 346.6,281 346.5,279.4 346.5,277.8 345.9,276.2 346.3,274.5 345.9,272.9 
		345.7,271.3 345.8,269.7 345.6,268.1 346.2,266.4 345.5,264.8 345.3,263.2 345.6,261.6 345.5,259.9 344.8,258.4 344.9,256.7 
		345,255.1 344.7,253.6 343.3,253.2 341.8,252.5 340.2,252.1 338.7,251.5 337,251.6 335.4,251 333.9,250.7 332.5,249.5 330.9,249.2 
		329.4,248.6 327.7,248.4 326.1,248.3 324.5,247.8 322.9,247.4 321.4,246.7 319.9,246.3 318.3,245.7 316.8,245.2 315.2,244.8 
		313.5,244.8 311.9,244.4 310.4,243.8 308.8,243.7 307.2,243.1 305.7,242.6 304.2,241.8 304.1,241.8 302.5,241.6 300.8,242 
		299.1,242 297.7,243.2 295.9,242.7 294.3,243.2 292.7,243.9 291.2,244.5 290,245.9 288.3,246.1 286.9,247.1 285.7,248.3 
		284.5,249.4 283.3,250.5 282,251.6 280.8,252.7 279.6,253.9 278.5,255.1 278.1,256.9 277.1,258.2 276.1,259.6 275.4,261 
		275.2,262.7 274.5,264.3 274,265.9 273.5,267.4 273.2,269 273.3,270.6 272.8,272.2 273.6,273.9 273,275.5 273.2,277.1 273.3,278.7 
		273,280.3 273.1,282 272.9,283.6 272.4,285.1 272.8,286.8 272.2,288.3 271.8,289.9 272.2,291.6 271.7,293.2 271,294.7 270,296 
		269.1,297.4 268.7,299 267.5,300.3 266.5,301.5 265.3,302.6 264.3,303.8 263.1,305 262.1,306.3 260.9,307.4 259.5,308.4 
		258.1,309.1 256.7,310 254.9,310 253.4,310.5 251.9,311.3 250.2,311.1 248.5,311.8 246.8,311.4 245.2,311 243.7,310.3 241.9,310.3 
		240.4,309.7 238.8,309.2 237.5,308 236,307.3 234.2,307.2 232.8,306.2 231.2,305.7 229.9,304.7 228.3,303.3 228.9,305.2 
		229.1,306.8 229.4,308.3 229.9,309.8 230.6,311.2 230.9,312.8 231.7,314.2 233.1,315.2 233.6,316.7 234.5,318 235.9,318.9 
		236.9,320 237.8,321.4 239.5,321.7 240.7,322.7 242.2,323.2 243.7,323.7 245.2,324 246.5,325.1 248.1,325.5 249.7,325.4 
		251.3,325.7 253,325.4 254.6,325.5 256.2,325.8 257.8,325.7 259.5,325.6 261.1,325.9 262.7,325.4 264.3,326.2 266,325.6 
		267.6,325.7 269.3,325.7 270.9,325.8 272.5,326.7 274.1,326.4 275.7,326.4 277.4,326.6 279,326.4 280.6,326.2 282.2,326.9 
		283.9,326.4 285.5,326.6 287.1,326.8 288.7,327.2 290.4,326.9 292,327.1 293.6,327.1 295.3,327.6 296.9,327.2 298.5,327.6 
		300.2,327.1 301.8,327.4 303.4,327.2 305.1,327.7 306.7,327.3 308.3,327.7 309.9,327.3 311.2,326.4 312.3,325.1 313.5,324.1 
		315.1,323.5 316,322.1 317.8,321.7 318.7,320.2 320.2,319.6 321.8,319.1 323,318 324.2,317 325.5,316 326.8,315 327.9,313.8 
		329.2,312.9 331,312.6 332.2,311.6 333.6,310.8 334.9,309.9 336,308.5 337.1,307.4 338.5,306.5 340.3,306.3 341.2,304.8 
		342.8,304.3 344.1,303.3 345.6,302.6 346.6,301.3 347.7,300.3 348.2,298.8 348.1,297.1 	"/>
	<polygon style="clip-path:url(#SVGID_2_);fill:#9DC3E7;" points="479.3,424.3 479.6,422.7 479.6,421 479.2,419.4 478.7,417.7 
		479.5,416.1 479.6,414.5 479.1,412.8 479.5,411.2 479.7,409.5 478.8,407.9 479.4,406.3 479.7,404.6 479.2,403 479.2,401.4 
		478.8,399.7 478.8,398.1 479.6,396.4 479.6,394.8 478.8,393.2 479.4,391.5 479.2,389.9 479.5,388.3 479.3,386.6 478.8,385 
		479.5,383.3 478.9,381.7 479.4,380.1 478.9,378.4 479.1,376.8 478.8,375.2 478.8,373.5 479.4,371.9 479.2,370.2 479.2,368.6 
		478.8,367 479.1,365.3 479,363.7 478.9,362 479.3,360.4 478.8,358.9 478.8,357.2 478.5,355.7 479.1,353.9 478.3,352.5 477.6,351 
		477.3,349.4 476.7,347.9 476.3,346.3 476,344.7 475.8,343.1 474.3,342 473.5,340.6 472.9,339.1 472.4,337.5 471.4,336.2 
		470.7,334.7 469.7,333.4 468.4,332.4 467,331.5 465.9,330.3 464.8,329.1 463.9,327.8 462.8,326.5 461.5,325.5 459.9,325 
		458.7,323.8 457.3,323 455.6,322.6 454.6,321.1 453,320.7 451.4,320.4 450.2,319 448.7,318.4 447.3,317.7 445.6,317.6 444.2,316.6 
		442.6,316.3 441.1,315.7 439.6,315.2 438,314.7 436.6,314 435,313.4 433.3,313.4 431.8,312.8 430.4,311.8 428.7,311.8 427.2,311.4 
		425.7,310.6 424.2,310 422.6,309.8 421,309.4 419.6,308.5 417.9,308.3 416.5,307.5 415.1,306.6 413.4,306.6 411.7,306.4 
		410.3,305.6 408.7,305.2 407.4,304.2 405.6,304.4 404.1,303.8 402.6,303.1 400.9,303.2 399.4,302.4 398,301.6 396.4,301.4 
		394.9,300.7 393.1,300.8 391.8,299.7 390.3,299.1 388.6,299.1 387,298.9 385.6,297.8 383.9,297.9 382.3,297.5 380.9,296.8 
		379.3,297 377.6,296.9 376,296.9 374.4,296.6 372.8,296.6 371.2,296.7 369.6,296.9 368,296.9 366.4,296.9 364.7,296.7 363.1,297.3 
		361.5,297.2 359.9,297.3 358.3,297.1 356.7,297.3 355.1,297.2 353.5,296.8 351.9,297.2 350.3,297.1 348.6,296.8 347,296.7 
		345.4,296.6 343.8,296.7 342.2,297.5 340.6,296.7 339,297.2 337.4,297.1 335.8,297.2 334.2,297.1 332.6,297.4 330.9,297.4 
		329.3,297.6 327.7,297.2 326.1,297.7 324.5,297.2 322.9,296.9 321.3,297.2 319.7,297 318.1,297.2 316.7,298.3 315.1,298.7 
		313.4,298.8 311.8,299 310.3,299.7 308.7,300 307.3,301 305.7,301.5 304,301.5 302.6,302.5 301.1,303.1 299.6,303.8 297.8,303.5 
		296.3,304 294.9,305 293.5,305.9 291.9,306.4 290.2,306.4 288.8,307.3 287.2,307.7 285.6,308 284.2,308.9 282.6,309.4 280.9,309.5 
		279.4,310.2 277.9,310.7 276.5,311.6 275,312.2 273.3,312.3 271.9,313.3 270.1,313.2 268.7,314.1 267.2,314.6 265.5,314.8 
		264,315.4 262.5,315.9 261.2,317.2 259.4,317.1 258.1,318.1 256.4,318.2 255.1,319.3 253.5,319.7 252.1,320.7 250.6,321.3 
		249.1,321.9 247.9,323 246.7,324.1 245.5,325.3 243.7,325.5 242.6,326.8 241.6,328.1 240.2,329 239,330 237.9,331.2 236.5,332.1 
		235.5,333.4 234.5,334.7 233.9,336.3 233,337.6 231.8,338.8 231.3,340.4 230.8,341.9 230,343.3 229.1,344.7 228.8,346.3 
		227.6,347.6 227.3,349.2 227.4,350.9 226.4,352.3 226.2,353.9 226.7,355.7 226,357.2 226.4,358.8 225.7,360.4 226.2,362 226,363.7 
		226.4,365.3 226.1,367 225.5,368.6 226,370.3 226.1,371.9 226.4,373.5 226,375.2 226.1,376.8 226,378.5 226.1,380.1 226.4,381.7 
		225.6,383.4 225.5,385 226.1,386.6 226,388.3 225.9,389.9 226.1,391.6 225.9,393.2 226.3,394.8 226,396.5 226.4,398.1 226,399.7 
		225.9,401.4 225.5,403 226.4,404.7 226.1,406.3 226.4,407.9 225.8,409.6 226.1,411.2 225.5,412.9 225.6,414.5 226.2,416.1 
		225.9,417.8 226.3,419.4 225.9,421 226,422.7 226,424.3 226.2,426 225.9,427.6 225.7,429.2 479.6,429.2 479.5,427.6 479.7,425.9 	
		"/>
	<polygon class="st5" points="396.6,306 395,305.7 393.3,305.9 391.7,305.8 390.1,306 388.5,305.7 386.9,306 385.2,306.1 
		383.6,305.9 382,306.1 380.4,305.9 378.8,306 377.1,305.6 375.5,306.1 373.9,306.1 372.3,306.1 370.7,305.8 369.1,306.1 
		367.5,305.2 365.8,305.7 364.2,306 362.6,305.5 361,305.6 359.4,305.7 357.8,305.4 356.1,305.4 354.5,305.2 352.9,305.9 
		351.3,305.7 349.7,306 348.1,305.9 346.4,305.6 344.8,305.3 343.2,305.2 341.6,305.1 340,305.4 338.4,305.9 336.7,305.2 
		335.1,305.2 333.5,305.6 331.9,305.2 330.3,305 328.7,305.5 327,305.8 325.4,305.8 323.8,305.4 322.2,305.7 320.6,305 319,305.2 
		317.4,305.7 315.7,305.8 314.1,305.6 312.5,305.1 310.9,305.3 309.3,305.6 307.7,305.6 306.1,305.3 304.6,305.4 304.9,306.8 
		304.5,308.5 305.6,310 305.7,311.6 305.6,313.3 306,314.9 306.1,316.5 306.2,318.1 306.7,319.7 307,321.3 307.4,322.8 307.1,324.5 
		307.2,326.1 307.9,327.7 308,329.3 308.3,330.9 308.6,332.5 309.2,334 309.5,335.6 309.5,337.3 309.5,338.9 309.9,340.5 310.4,342 
		310.4,343.6 310.9,345.2 311.2,346.8 311.3,348.4 311.3,350.1 311.2,351.7 311.9,353.2 312.4,354.8 311.8,356.5 312.3,358.1 
		312.4,359.7 313,361.2 313.3,362.8 313.9,364.4 313.7,366.1 313.7,367.7 314.5,369.2 314.9,370.8 315,372.4 314.6,374.1 
		315.1,375.7 315.7,377.2 315.8,378.8 315.8,380.4 316.4,382 316.4,383.6 316.6,385.2 316.6,386.9 317.3,388.4 317.4,390 318,391.6 
		317.6,393.2 318.4,394.8 318.2,396.4 318.2,398 318.8,399.6 318.7,401.2 319.6,402.7 319.9,404.3 319.4,406 320.5,407.5 
		320.8,409.1 320.9,410.7 321.2,412.3 320.9,414 321.2,415.6 321.3,417.2 322.1,418.7 322.1,420.3 322.2,421.9 322.8,423.5 
		322.6,425.1 322.6,426.8 323,428.3 323.5,429.9 377.2,429.8 377.7,428.3 377.8,426.7 378.1,425.1 378.9,423.5 379,421.9 
		379.6,420.4 379.5,418.7 380,417.2 380.1,415.6 380.3,413.9 381,412.4 381,410.8 381.5,409.2 382,407.7 381.5,405.9 382.1,404.4 
		382.7,402.9 383.1,401.3 383,399.6 382.9,398 383.2,396.4 384.2,394.9 384.4,393.3 384.1,391.6 384.7,390.1 384.9,388.5 385.5,387 
		385.8,385.4 385.9,383.7 385.7,382.1 386.7,380.6 387.1,379 386.8,377.3 386.9,375.7 387.5,374.2 388,372.6 388,371 388.3,369.4 
		388.9,367.9 388.7,366.2 389.5,364.7 389.4,363 390.3,361.6 389.8,359.8 390.2,358.3 390.7,356.7 391.2,355.2 391.6,353.6 
		391.6,351.9 391.9,350.4 392.3,348.8 392.3,347.1 393.1,345.7 392.9,344 393.1,342.4 393.5,340.8 393.4,339.1 393.7,337.6 
		394.2,336 394.4,334.4 395.4,332.9 395,331.2 395.6,329.7 396,328.2 396.4,326.6 396.2,324.9 397,323.4 396.5,321.7 397.1,320.1 
		397.7,318.6 397.7,317 398,315.4 398.7,313.9 398.9,312.3 398.8,310.6 399.2,309.1 399.3,307.4 399.6,306 398.2,306.1 	"/>
	<path style="clip-path:url(#SVGID_2_);fill:#FFAF9B;" d="M381.3,284.2c0-0.9,0.3-0.9,0.3-1.8c0-0.9,0.1-0.9,0.1-1.8
		c0-0.9-0.3-0.9-0.4-1.7c0-0.9,0.1-0.9,0.1-1.8c0-0.9,0.5-0.9,0.4-1.8c0-0.9-0.3-0.9-0.3-1.7c0-0.9-0.5-0.9-0.5-1.7
		c0-0.9,0.2-0.9,0.2-1.8c0-0.9,0-0.9,0-1.8c0-0.9,0.2-0.9,0.2-1.8c0-0.9,0.5-1.1-0.1-1.8c-0.6-0.6-0.9-0.1-1.7-0.1
		c-0.9,0-0.9-0.1-1.7-0.1c-0.9,0-0.9,0.2-1.7,0.2c-0.9,0-0.9-0.2-1.7-0.2c-0.9,0-0.9,0.7-1.7,0.7c-0.9,0-0.9-0.2-1.7-0.2
		c-0.9,0-0.9-0.2-1.7-0.2c-0.9,0-0.9,0.4-1.7,0.4c-0.9,0-0.9-0.2-1.7-0.2c-0.9,0-0.9-0.1-1.7-0.1c-0.9,0-0.9,0.3-1.7,0.3
		c-0.9,0-0.9-0.3-1.7-0.3c-0.9,0-0.9,0.3-1.7,0.3c-0.9,0-0.9-0.1-1.7-0.1c-0.9,0-0.9-0.7-1.7-0.7c-0.9,0-0.9,0.6-1.7,0.6
		c-0.9,0-0.9-0.5-1.7-0.5c-0.9,0-0.9,0.1-1.7,0.1c-0.9,0-0.9,0.4-1.7,0.4c-0.9,0-0.9-0.5-1.7-0.5c-0.9,0-0.9,0.8-1.7,0.8
		c-0.9,0-0.9-0.7-1.7-0.7c-0.9,0-0.9,0.6-1.7,0.6c-0.9,0-0.9-0.6-1.7-0.6c-0.9,0-0.9-0.1-1.7-0.1c-0.9,0-0.9,0.4-1.7,0.4
		c-0.9,0-0.9-0.3-1.7-0.3c-0.9,0-0.9-0.1-1.7-0.1c-0.9,0-0.9-0.2-1.7-0.2c-0.9,0-0.9,0.8-1.7,0.8c-0.9,0-0.9-0.5-1.7-0.5
		c-0.9,0-0.9,0.6-1.7,0.6c-0.9,0-0.9-0.4-1.7-0.4c-0.9,0-0.9-0.4-1.7-0.4c-0.9,0-0.9-0.1-1.5,0.6c-0.6,0.6-0.6,0.7-0.6,1.6
		c0,0.9,0.7,0.9,0.7,1.8c0,0.9-0.4,0.9-0.4,1.8c0,0.9-0.5,0.9-0.5,1.8c0,0.9,0.3,0.9,0.3,1.8c0,0.9,0.2,0.9,0.2,1.8
		c0,0.9-0.3,0.9-0.3,1.8c0,0.9-0.1,0.9-0.1,1.8c0,0.9,0,0.9,0,1.8c0,0.9,0.4,0.9,0.3,1.8c0,0.9-0.2,0.9,0,1.8
		c0.4,0.4,1.1,0.4,1.6,0.8c0.4,0.4,0.5,1.1,1,1.5c0.5,0.3,1.1,0.4,1.5,0.8c0.5,0.3,0.9,0.7,1.4,1c0.5,0.3,0.7,1,1.2,1.2
		c0.5,0.3,1.1,0.4,1.6,0.7c0.5,0.3,0.9,0.8,1.4,1c0.5,0.2,1.4-0.3,1.9,0c0.5,0.2,1,0.5,1.5,0.7c0.5,0.2,0.9,0.8,1.5,0.9
		c0.5,0.2,1.1,0.4,1.6,0.6c0.5,0.2,1,0.6,1.6,0.8c0.5,0.2,1.1,0.2,1.7,0.4c0.6,0.1,1.2-0.3,1.8-0.1c0.6,0.1,1.1,0.1,1.7,0.2
		c0.6,0.1,1,0.9,1.6,1c0.6,0.1,1.2-0.2,1.7-0.1c0.6,0.1,1.1,0.1,1.7,0.2c0.6,0.1,1.1,0.1,1.7,0.1c0.6,0,1.1,0.5,1.7,0.6
		c0.6,0,1.1,0,1.7,0c0.6,0,1.1-0.1,1.7-0.1c0.6,0,1.1-0.1,1.7-0.1c0.6,0,1.1-0.2,1.7-0.2c0.6,0,1.1,0.3,1.7,0.2
		c0.6,0,1.2-0.5,1.7-0.5c0.6-0.1,1.2,0.1,1.8,0c0.6-0.1,1.2-0.1,1.8-0.2c0.6-0.1,1.2,0,1.8-0.2c0.6-0.2,1-0.7,1.6-0.9
		c0.6-0.2,1.2-0.1,1.8-0.4c0.6-0.2,1.2-0.2,1.8-0.4c0.5-0.2,0.9-1,1.4-1.2c0.5-0.3,0.9-0.8,1.5-1.1c0.5-0.3,1.1-0.5,1.6-0.8
		c0.5-0.3,1-0.6,1.5-0.9c0.5-0.3,0.8-1,1.2-1.3c0.5-0.4,1.5-0.4,2-0.7c0.2-0.9-0.5-0.9-0.6-1.8C381.5,285.1,381.4,285.1,381.3,284.2
		z"/>
	<path style="clip-path:url(#SVGID_2_);fill:#FFCFBA;" d="M397.5,305.6c-0.8-0.3-0.6-0.8-1.4-1.1c-0.8-0.3-1,0.1-1.7-0.2
		c-0.8-0.3-0.7-0.6-1.4-0.9c-0.8-0.3-0.7-0.5-1.5-0.8c-0.8-0.3-0.7-0.6-1.4-0.9c-0.8-0.3-0.8-0.2-1.6-0.6c-0.8-0.3-0.9,0.1-1.7-0.3
		c-0.8-0.3-0.9,0-1.7-0.4c-0.8-0.3-0.7-0.6-1.5-0.8c-0.8-0.2-0.9-0.3-1.3-1c-0.5-0.8,0.2-0.8,0.2-1.7c0-0.9-0.9-0.9-0.9-1.8
		c0-0.9,0.6-0.9,0.6-1.9c0-0.9-0.3-0.9-0.3-1.8c0-0.9,0.3-0.9,0.2-1.8c0-0.9,0.2-1-0.1-1.9c-0.5,0.4-1.4,0.5-1.8,0.8
		c-0.5,0.4-0.5,1.3-1,1.7c-0.5,0.3-1,0.7-1.5,1c-0.5,0.3-1,0.7-1.5,1c-0.5,0.3-1.3,0.2-1.8,0.4c-0.5,0.3-1,0.8-1.5,1
		c-0.5,0.2-1.1,0.5-1.6,0.7c-0.6,0.2-1.3,0-1.8,0.2c-0.6,0.2-1.2,0.3-1.7,0.4c-0.6,0.2-1,0.8-1.6,0.9c-0.6,0.1-1.2,0.1-1.8,0.2
		c-0.6,0.1-1.1,0.6-1.7,0.6c-0.6,0.1-1.2,0.1-1.8,0.1c-0.6,0-1.1,0.1-1.7,0.1c-0.6,0-1.1-0.4-1.7-0.4c-0.6,0-1.1,0.2-1.7,0.2
		c-0.6,0-1.1-0.6-1.7-0.6c-0.6,0-1.2,0.5-1.7,0.4c-0.6,0-1.2,0.2-1.7,0.2c-0.6,0-1.1-0.6-1.7-0.7c-0.6-0.1-1.1-0.2-1.7-0.2
		c-0.6-0.1-1.2,0-1.7-0.1c-0.6-0.1-1.2,0-1.7-0.1c-0.6-0.1-1-0.7-1.6-0.8c-0.6-0.1-1-0.6-1.6-0.7c-0.6-0.1-1.2,0.1-1.7-0.1
		c-0.5-0.2-1.2,0.2-1.8,0c-0.5-0.2-0.8-1.1-1.4-1.3c-0.5-0.2-1.3,0.2-1.8,0c-0.5-0.2-0.9-0.7-1.5-1c-0.5-0.2-1-0.6-1.5-0.9
		c-0.5-0.2-1.3,0-1.8-0.2c-0.5-0.3-0.9-0.7-1.4-1c-0.5-0.3-0.8-0.8-1.3-1.1c-0.5-0.3-1.3-0.1-1.8-0.5c-0.5-0.3-0.5-1.2-1-1.6
		c-0.4-0.3-1.3-0.2-1.8-0.5c-0.4-0.4-0.2-0.9-0.6-1.3c-0.3,0.9-0.4,0.8-0.4,1.7c0,0.9,0.1,0.9,0.1,1.8c0,0.9-0.2,0.9-0.2,1.8
		c0,0.9,0.3,0.9,0.3,1.8c0,0.9,0,0.9,0,1.8c0,0.9-0.6,0.9-0.6,1.8c0,0.9,0,0.9,0,1.8c0,0.9,0.7,1,0.2,1.7c-0.5,0.7-0.6,0.4-1.4,0.7
		c-0.8,0.3-0.8,0.3-1.6,0.5c-0.8,0.3-0.8,0.3-1.6,0.6c-0.8,0.3-0.7,0.6-1.5,0.9c-0.8,0.3-0.8,0.4-1.6,0.7c-0.8,0.3-1-0.3-1.8,0
		c-0.8,0.3-0.9,0-1.7,0.3c-0.8,0.3-0.5,1.1-1.3,1.4s-0.9,0-1.7,0.3c-0.8,0.3-0.7,0.6-1.5,0.9c-0.8,0.3-0.9-0.2-1.6,0.4
		c-0.7,0.6,0.3,0.2,1.1,0.9c0.3,0.3,0.7,0.8,1.2,1.2c0.4,0.4,1.1,0.4,1.6,0.8c0.4,0.4,0.6,1,1,1.4c0.4,0.4,0.8,0.8,1.2,1.2
		c0.4,0.4,0.7,0.9,1.1,1.3c0.4,0.4,0.7,1,1.1,1.3c0.4,0.4,1,0.6,1.4,1c0.4,0.4,1.1,0.5,1.5,0.9c0.4,0.4,0.5,1.2,0.9,1.5
		c0.4,0.4,0.9,0.7,1.3,1.1c0.4,0.4,0.9,0.7,1.4,1.1c0.4,0.4,0.9,0.7,1.3,1.1c0.4,0.4,0.9,0.7,1.3,1.1c0.4,0.4,1,0.6,1.4,1
		c0.4,0.4,1.4,0.1,1.8,0.4c0.5,0.3,0.3,1.4,0.8,1.8c0.5,0.3,1,0.6,1.5,0.9c0.5,0.3,0.9,0.8,1.3,1.1c0.5,0.3,1.4,0,1.8,0.4
		c0.5,0.3,0.8,0.8,1.3,1.1c0.5,0.3,0.8,0.9,1.2,1.2c0.5,0.3,1.3,0.2,1.7,0.5c0.5,0.3,0.9,0.7,1.4,1c0.5,0.3,1,0.5,1.5,0.8
		c0.5,0.3,1,0.6,1.5,0.9c0.5,0.3,1,0.6,1.5,0.9c0.5,0.3,1,0.7,1.5,0.9c0.5,0.2,1,0.7,1.5,0.9c0.5,0.2,1.1,0.3,1.7,0.5
		c0.6,0.2,1,0.6,1.6,0.8c0.6,0.2,1.1,0.3,1.7,0.4c0.6,0.1,1.2-0.3,1.8-0.2c0.6,0.1,1.1,0,1.7,0c0.6,0,1.1,0,1.7-0.1
		c0.6-0.1,1.2,0.3,1.8,0.2c0.6-0.1,1-0.8,1.6-0.9c0.5-0.2,1.3,0.3,1.9,0.1c0.5-0.2,1.1-0.4,1.7-0.6c0.5-0.2,0.9-1,1.4-1.2
		c0.5-0.2,1.1-0.5,1.6-0.7c0.5-0.3,1.3-0.1,1.8-0.3c0.5-0.3,1-0.7,1.5-1c0.5-0.3,0.9-0.8,1.4-1.1c0.5-0.3,0.8-0.9,1.3-1.2
		c0.5-0.3,1.3-0.2,1.7-0.5c0.5-0.3,0.7-1.1,1.2-1.4c0.5-0.3,1.3-0.2,1.8-0.6c0.5-0.3,0.8-0.9,1.3-1.2c0.5-0.3,0.8-0.9,1.3-1.3
		c0.5-0.3,1.2-0.4,1.6-0.7c0.5-0.4,1.1-0.4,1.6-0.8c0.5-0.4,0.6-1.2,1.1-1.5c0.5-0.4,1.3-0.2,1.8-0.6c0.5-0.4,0.6-1.1,1.1-1.5
		c0.5-0.4,0.9-0.7,1.4-1.1c0.5-0.4,1.2-0.4,1.6-0.8c0.5-0.4,0.6-1.1,1-1.5c0.5-0.4,0.9-0.8,1.3-1.1c0.5-0.4,0.7-1,1.2-1.4
		c0.5-0.4,1.4-0.2,1.8-0.6c0.5-0.4,0.6-1.2,1-1.5c0.5-0.4,1.2-0.5,1.6-0.9c0.5-0.4,0.8-0.9,1.2-1.3c0.5-0.4,1.2-0.5,1.6-0.9
		c0.5-0.5,0.4-1.4,0.8-1.7c0.8-0.8,2.3-0.7,1.7-1.3C398.8,305.1,398.3,305.9,397.5,305.6z"/>
	<g class="st6">
		<path class="st10" d="M423.1,343.5c0,0.1,0,0.2,0,0.3c0,0,0,0.1,0,0.1C423.3,344.2,423.1,342.9,423.1,343.5z"/>
		<path class="st10" d="M424.4,348.9c0,0.1,0.1,0.1,0.1,0.2C424.4,348.9,424.3,348.6,424.4,348.9z"/>
		<path class="st10" d="M422.7,342.7c0,0.1,0.1,0.2,0.2,0.3c0,0,0,0,0,0C422.8,342.9,422.7,342.8,422.7,342.7z"/>
		<path class="st10" d="M426.5,352.7c-0.2-0.6-0.5-1.2-0.7-1.8c0,0.3-0.1,0.6-0.1,1C426,352.1,426.3,352.4,426.5,352.7z"/>
		<path class="st10" d="M413.8,370.4C413.8,370.3,413.8,370.3,413.8,370.4c0,0-0.1,0-0.1,0c-0.1,0-0.2,0-0.2,0c0,0,0,0,0,0
			C413.2,370.5,413.6,370.4,413.8,370.4z"/>
		<path class="st10" d="M413.9,370.3C413.8,370.3,413.8,370.3,413.9,370.3C413.9,370.3,413.9,370.3,413.9,370.3
			C413.9,370.3,413.9,370.3,413.9,370.3z"/>
		<path class="st10" d="M418.3,368c-0.1,0.1-0.2,0.2-0.3,0.2C417.6,368.5,418.7,367.9,418.3,368z"/>
		<path class="st10" d="M417.4,368.4C417.4,368.4,417.4,368.4,417.4,368.4c-0.1,0-0.2,0.1-0.3,0.1
			C416.7,368.8,417.9,368.4,417.4,368.4z"/>
		<path class="st10" d="M413.9,370.3c0,0-0.1,0-0.1,0c-0.1,0.1-0.1,0.1-0.2,0.2c0.4-0.2,0.7-0.4,1.1-0.7c-0.2,0.1-0.4,0.1-0.6,0.2
			C414,370.2,414,370.3,413.9,370.3C413.9,370.3,413.9,370.3,413.9,370.3z"/>
		<path class="st10" d="M413.9,370.3c0.1-0.1,0.2-0.2,0.3-0.3c-0.2,0.1-0.5,0.2-0.7,0.3c0.1,0,0.2,0,0.2,0
			C413.7,370.4,413.8,370.3,413.9,370.3z"/>
		<path class="st10" d="M424.6,364.7C424.6,364.8,424.5,364.8,424.6,364.7c-0.2,0.1-0.3,0.1-0.5,0.2
			C423.8,365.1,424.9,364.7,424.6,364.7z"/>
		<path class="st10" d="M421.8,366.1c-0.2,0.1-0.4,0.1-0.6,0.2c-0.2,0.2-0.4,0.3-0.6,0.5C421,366.5,421.4,366.3,421.8,366.1z"/>
		<path class="st10" d="M429.7,363.8c0.6-1,1.2-2.1,1.8-3.1c-0.5,0.2-1,0.3-1.4,0.5c-0.4,0.1-0.7,0.3-1,0.6c0.1,0.2,0.1,0.4,0.2,0.5
			C429.3,362.8,429.5,363.3,429.7,363.8z"/>
		<path class="st10" d="M428.7,360.9C428.7,360.9,428.7,361,428.7,360.9c0.1,0.2,0.1,0.3,0.2,0.4
			C429.1,361.7,428.6,360.6,428.7,360.9z"/>
		<path class="st10" d="M428,362.7C428,362.7,428,362.7,428,362.7c-0.1,0.1-0.1,0.1-0.2,0.1C427.3,363.3,428.5,362.4,428,362.7z"/>
		<path class="st10" d="M427.6,357.9c0,0.1,0,0.1,0,0.2c0,0.1,0.1,0.2,0.1,0.3C428,358.7,427.6,357.5,427.6,357.9z"/>
		<path class="st10" d="M417.8,316.1c0-0.2,0-0.4,0-0.5c-0.1-0.3-0.3-0.5-0.4-0.7C417.6,315.3,417.7,315.7,417.8,316.1z"/>
		<path class="st10" d="M429.5,348.9c0-0.2-0.1-0.4-0.1-0.6c-0.2-0.2-0.4-0.4-0.6-0.6C429.1,348.2,429.3,348.6,429.5,348.9z"/>
		<path class="st10" d="M430.7,352.3C430.8,352.9,430.7,352.5,430.7,352.3C430.7,352.3,430.7,352.3,430.7,352.3c0.1-0.1,0-0.1,0-0.1
			C430.6,352,430.6,351.7,430.7,352.3z"/>
		<path class="st10" d="M428.3,345.3c0,0,0.2,0.8,0.2,0.4c0,0,0,0,0,0c0,0,0-0.1-0.1-0.1C428.3,345.5,428.3,345.4,428.3,345.3z"/>
		<path class="st10" d="M428.2,344.9c0,0,0-0.1,0-0.1c0-0.1,0-0.3-0.1-0.4C428.1,344.1,428.2,345.1,428.2,344.9z"/>
		<path class="st10" d="M431.7,354.8c0-0.1-0.1-0.2-0.1-0.3c0,0,0-0.1-0.1-0.1C431.5,354.4,431.9,355.3,431.7,354.8z"/>
		<path class="st10" d="M426.4,339.2c-0.1-0.1,0.2,0.7,0.2,0.4c0,0,0-0.1,0-0.1C426.5,339.4,426.5,339.2,426.4,339.2z"/>
		<path class="st10" d="M422.8,384.1C423,384.2,423,384.1,422.8,384.1L422.8,384.1z"/>
		<path class="st10" d="M417.4,373.7c0.2,0,0.4-0.1,0.5-0.1c0.2-0.2,0.4-0.3,0.6-0.5C418.1,373.2,417.7,373.5,417.4,373.7z"/>
		<path class="st10" d="M431.3,366.1c0.2-0.1,0.4-0.1,0.6-0.2c0.2-0.1,0.3-0.3,0.5-0.4C432.1,365.7,431.7,365.9,431.3,366.1z"/>
		<path class="st10" d="M424.6,336.6c0.1-0.4,0.2-0.8,0.2-1.2c-0.2-0.3-0.3-0.5-0.5-0.8C424.4,335.3,424.5,336,424.6,336.6z"/>
		<path class="st10" d="M421.4,339.5c0,0,0,0.1,0,0.1c0,0,0,0.1,0.1,0.1C421.4,339.7,421.4,339.6,421.4,339.5z"/>
		<path class="st10" d="M424.4,370c0.2,0,0.3-0.1,0.5-0.1c0.2-0.2,0.4-0.4,0.6-0.5C425.1,369.5,424.8,369.7,424.4,370z"/>
		<path class="st10" d="M421.6,371.5c0.2-0.1,0.4-0.1,0.6-0.2c0.2-0.2,0.4-0.3,0.6-0.5C422.4,371.1,422,371.3,421.6,371.5z"/>
		<path class="st10" d="M414.2,319.8c0.1,0.2,0.1,0.3,0.2,0.5C414.5,320.6,414.2,319.6,414.2,319.8z"/>
		<path class="st10" d="M416,324.3c0,0,0,0.2,0.2,0.5c0,0,0,0,0,0C416.1,324.6,416,324.4,416,324.3z"/>
		<path class="st10" d="M417.2,326.5c0,0.2,0,0.4,0,0.6c0.1,0.2,0.2,0.5,0.3,0.7C417.5,327.4,417.3,327,417.2,326.5z"/>
		<path class="st10" d="M418.1,329.6c0,0.3,0,0.5,0,0.8c0.1,0.2,0.2,0.3,0.3,0.5C418.4,330.5,418.2,330.1,418.1,329.6z"/>
		<path class="st10" d="M420,333.5c-0.1,0.5-0.2,1.1-0.3,1.6c0.3,0.3,0.6,0.6,0.9,0.9C420.4,335.1,420.2,334.3,420,333.5z"/>
		<path class="st10" d="M423.2,331.1c0,0,0-0.1,0-0.1c0-0.1,0-0.1,0-0.2C423,330.3,423.2,331.7,423.2,331.1z"/>
		<path class="st10" d="M422.3,328.2c0-0.2,0-0.5,0-0.7c-0.1-0.2-0.2-0.4-0.3-0.5C422.1,327.4,422.2,327.8,422.3,328.2z"/>
		<path class="st10" d="M423.5,332.2c-0.1-0.2-0.1-0.4-0.2-0.7c-0.2-0.2-0.3-0.3-0.5-0.5C423.1,331.5,423.3,331.9,423.5,332.2z"/>
		<path class="st10" d="M411.1,371.8c-0.4,0-0.9,0.1-1.3,0.1c-0.2,0.2-0.3,0.4-0.5,0.6C409.9,372.3,410.5,372,411.1,371.8z"/>
		<path class="st10" d="M419.1,319.4c0.1,0.1,0.1,0.1,0.2,0.2c0,0,0,0,0,0C419.2,319.5,419.2,319.5,419.1,319.4z"/>
		<path class="st10" d="M421.4,324.2c0-0.1-0.1-0.2-0.1-0.3c0,0,0-0.1,0-0.1C421.1,323.5,421.6,324.7,421.4,324.2z"/>
		<path class="st10" d="M432.9,357.9c0-0.1,0-0.1-0.1-0.2C432.5,357,432.9,358.2,432.9,357.9z"/>
		<path class="st10" d="M429.3,396.3c0.1-0.2,0.3-0.3,0.4-0.5c0.1-0.2,0.1-0.4,0.2-0.6C429.7,395.5,429.5,395.9,429.3,396.3z"/>
		<polygon class="st10" points="419.7,413 419.8,413 419.8,413 		"/>
		<path class="st10" d="M423,406.8c0.1-0.1,0.2-0.3,0.3-0.4c0-0.3,0-0.6,0.1-0.9C423.2,405.9,423.1,406.3,423,406.8z"/>
		<path class="st10" d="M417.9,415.4c0-0.1,0.1-0.1,0.1-0.2C418.1,414.9,417.5,415.9,417.9,415.4z"/>
		<path class="st10" d="M423.6,405.9C423.6,405.9,423.6,405.8,423.6,405.9c0.1-0.2,0.2-0.2,0.2-0.3
			C424.1,405.1,423.3,406.1,423.6,405.9z"/>
		<path class="st10" d="M426.9,400.4C426.9,400.4,426.9,400.4,426.9,400.4c0.2-0.1,0.2-0.2,0.3-0.3
			C427.4,399.6,426.6,400.5,426.9,400.4z"/>
		<path class="st10" d="M421.3,410.3c0.1-0.1,0.3-0.3,0.5-0.5c0.1-0.2,0.1-0.4,0.2-0.6C421.8,409.5,421.6,409.9,421.3,410.3z"/>
		<path class="st10" d="M409.2,421.2c0,0.1-0.1,0.2-0.1,0.3C408.8,422,409.2,421.1,409.2,421.2z"/>
		<path class="st10" d="M406.7,426.3c-0.2,0.2-0.4,0.4-0.6,0.6c0,0.2,0,0.4-0.1,0.5C406.2,427.1,406.5,426.7,406.7,426.3z"/>
		<path class="st10" d="M413.3,423c0.3-0.2,0.5-0.4,0.8-0.6c0.1-0.3,0.3-0.6,0.4-0.9C414.1,422,413.7,422.5,413.3,423z"/>
		<path class="st10" d="M416.5,417.8c0,0,0.1-0.1,0.2-0.3c0-0.1,0-0.1,0-0.2C416.7,417.1,416.5,417.8,416.5,417.8z"/>
		<path class="st10" d="M411,427.5c0-0.1,0.1-0.1,0.1-0.2c0,0,0,0,0,0C411.2,426.7,410.7,427.9,411,427.5z"/>
		<path class="st10" d="M418.6,376.8c-0.1,0-0.1-0.1-0.2-0.1C418.5,376.8,418.5,376.8,418.6,376.8
			C418.6,376.8,418.6,376.8,418.6,376.8z"/>
		<path class="st10" d="M411.6,375.7c-0.3,0.2-0.7,0.4-1,0.6c0.1,0.2,0.2,0.4,0.2,0.6C411.1,376.5,411.3,376.1,411.6,375.7z"/>
		<path class="st10" d="M412.2,375.5c0.4,0,0.8,0,1.3-0.1c0.2-0.2,0.4-0.4,0.5-0.7C413.4,375,412.8,375.3,412.2,375.5z"/>
		<path class="st10" d="M412.5,374.6c-0.2-0.1-0.3-0.2-0.5-0.3c-0.3,0-0.5,0-0.8,0C411.7,374.4,412.1,374.5,412.5,374.6z"/>
		<path class="st10" d="M431.8,391c0.4-0.3,0.7-0.5,1.1-0.8c0-0.3,0.1-0.5,0.1-0.8C432.6,390,432.2,390.5,431.8,391z"/>
		<path class="st10" d="M412.9,374.3c-0.3,0-0.6,0-0.9,0c0.2,0.1,0.3,0.2,0.5,0.3c-0.4-0.1-0.9-0.2-1.3-0.3c0.3,0,0.5,0,0.8,0
			c-0.3-0.2-0.6-0.4-0.9-0.6c-0.6-0.3-1.2-0.4-1.9-0.5c0.4,1.1,0.9,2.1,1.3,3.2c0.3-0.2,0.7-0.4,1-0.6c-0.3,0.4-0.5,0.8-0.8,1.1
			c-0.1-0.2-0.2-0.4-0.2-0.6c-0.4,0.2-0.8,0.4-1.2,0.7c0.8-0.1,1.9,0,2.7-0.4c0.6-0.3,1-0.7,1.4-1.2c-0.4,0-0.8,0.1-1.3,0.1
			c0.6-0.2,1.2-0.5,1.8-0.7c-0.2,0.2-0.4,0.4-0.5,0.7c0.6-0.1,1.3-0.1,1.9-0.4c0,0,0.1,0,0.1,0c-0.2-0.1-0.3-0.2-0.5-0.2
			C414.3,374.6,413.7,374.3,412.9,374.3z"/>
		<path class="st10" d="M417.9,373.5c-0.2,0-0.4,0.1-0.5,0.1c0.4-0.2,0.7-0.4,1.1-0.7C418.3,373.2,418.1,373.4,417.9,373.5
			c0.8-0.2,1.6-0.5,2.3-0.9c0.7-0.4,1.3-0.8,1.9-1.3c-0.2,0.1-0.4,0.1-0.6,0.2c0.4-0.2,0.7-0.4,1.1-0.7c-0.2,0.2-0.4,0.3-0.6,0.5
			c0.5-0.2,1.1-0.3,1.6-0.6c0.4-0.2,0.8-0.6,1.1-0.9c-0.2,0-0.3,0.1-0.5,0.1c0.4-0.2,0.7-0.4,1.1-0.7c-0.2,0.2-0.4,0.4-0.6,0.5
			c1.4-0.3,2.7-0.8,3.8-1.6c0.6-0.4,1.2-0.8,1.8-1.2c0.5-0.3,1-0.7,1.5-1.2c-0.2,0.1-0.4,0.1-0.6,0.2c0.4-0.2,0.7-0.4,1.1-0.7
			c-0.2,0.1-0.3,0.3-0.5,0.4c0.3-0.1,0.5-0.2,0.8-0.3c1.2-0.4,2.2-1.8,1.8-3.1c-0.3-1-0.6-2-0.9-2.9c-0.2-0.6-0.5-1.1-0.7-1.7
			c0,0.3-0.4-0.9-0.1-0.2c0,0.1,0,0.1,0.1,0.2c0,0,0,0,0,0c-0.1-0.3-0.2-0.7-0.3-1c-0.2-0.6-0.4-1.1-0.7-1.7
			c-0.1-0.2-0.2-0.4-0.3-0.6c0,0.1,0.1,0.2,0.1,0.3c0.2,0.4-0.2-0.5-0.2-0.4c0,0,0,0.1,0.1,0.1c0,0,0-0.1-0.1-0.1
			c-0.2-0.4-0.3-0.9-0.5-1.3c-0.1-0.3-0.2-0.5-0.3-0.8c0,0,0,0,0,0c0,0.2,0,0.6-0.1,0c-0.1-0.6,0-0.3,0-0.1c0,0,0,0.1,0,0.1
			c0.1-1.2,0.2-2.2-0.6-3.2c-0.2-0.2-0.4-0.5-0.7-0.7c0,0.2,0.1,0.4,0.1,0.6c-0.2-0.4-0.4-0.7-0.7-1.1c0.2,0.2,0.4,0.4,0.6,0.6
			c-0.1-0.3-0.1-0.6-0.2-1c-0.2-0.6-0.5-1.2-0.8-1.7c0,0,0,0,0,0c0,0.4-0.2-0.4-0.2-0.4c0.1,0.1,0.1,0.2,0.1,0.3c0,0,0,0.1,0.1,0.1
			c0-0.3-0.1-0.6-0.2-0.9c0,0,0,0,0,0c0,0,0,0.1,0,0.1c0,0.2-0.2-0.7-0.1-0.5c0,0.1,0.1,0.3,0.1,0.4c0-0.3,0-0.6,0-0.9
			c0-1.2-0.4-2.5-1.1-3.6c-0.2-0.3-0.4-0.6-0.6-0.8c0,0,0,0,0,0c0,0.1,0,0.1,0,0.1c0,0.3-0.3-0.5-0.2-0.4c0.1,0,0.1,0.2,0.2,0.3
			c0-0.6-0.3-1.5-0.5-1.9c-0.4-0.7-0.8-1.4-1.2-2c-0.1,0.4-0.2,0.8-0.2,1.2c-0.1-0.7-0.2-1.3-0.3-2c0.2,0.3,0.3,0.5,0.5,0.8
			c0.1-0.7,0.2-1.4,0.1-2c-0.2-0.8-0.9-1.4-1.5-1.9c0.1,0.2,0.1,0.4,0.2,0.7c-0.2-0.4-0.4-0.7-0.7-1.1c0.2,0.1,0.3,0.3,0.5,0.5
			c0-0.2-0.1-0.4-0.2-0.6c0,0,0,0.1,0,0.1c0,0.6-0.2-0.8,0-0.3c0,0.1,0,0.1,0,0.2c0-0.2,0-0.5,0-0.7c0-0.7-0.1-1.4-0.5-2
			c-0.1-0.2-0.3-0.5-0.4-0.7c0,0.2,0,0.5,0,0.7c-0.1-0.4-0.2-0.9-0.3-1.3c0.1,0.2,0.2,0.4,0.3,0.5c0-0.3,0-0.6,0-1
			c-0.1-0.9-0.6-1.8-1-2.6c0,0.1,0.1,0.2,0.1,0.3c0.2,0.5-0.3-0.7-0.2-0.4c0,0,0,0.1,0,0.1c0-0.1-0.1-0.2-0.1-0.2
			c-0.1-0.3-0.2-0.5-0.3-0.8c-0.3-0.7-0.6-1.4-0.9-2c-0.2-0.3-0.4-0.9-0.7-1.2c0,0,0,0,0,0c0.2,0.3,0.1,0.5,0,0.1c0,0,0-0.1,0-0.1
			c0-0.1-0.1-0.1-0.2-0.2c0.1,0.1,0.1,0.1,0.2,0.2c0-0.1,0-0.2-0.1-0.3c0-0.3-0.1-0.6-0.2-0.9c-0.3-0.9-0.8-1.9-1.2-2.8
			c0,0.2,0,0.4,0,0.5c-0.1-0.4-0.2-0.9-0.3-1.3c0.1,0.2,0.3,0.5,0.4,0.7c0-0.4,0.1-0.8,0.1-1.2c0.1-1.3-1.2-2.6-2.5-2.5
			c-1.5,0.1-2.4,1.1-2.5,2.5c0,0.6-0.1,1.2-0.1,1.8c0,0.9,0.6,1.8,1,2.7c0.2,0.3,0.3,0.7,0.5,1c0-0.2,0.3,0.7,0.2,0.5
			c-0.1-0.2-0.1-0.3-0.2-0.5c0,0,0,0,0,0.1c0,0.2,0.1,0.4,0.1,0.6c0,0.3,0.1,0.6,0.1,0.9c0.2,0.7,0.7,1.4,1.1,2
			c0.2,0.3,0.3,0.6,0.4,0.9c0,0,0.1,0.1,0.1,0.2c0,0.1,0.1,0.1,0.1,0.2c0,0,0,0.1,0.1,0.1c0,0,0-0.1-0.1-0.1c0,0.1,0.1,0.2,0.1,0.3
			c0.1,0.2,0.2,0.5,0.3,0.7c0.2,0.5,0.4,0.9,0.6,1.4c0-0.2,0-0.4,0-0.6c0.1,0.4,0.2,0.9,0.3,1.3c-0.1-0.2-0.2-0.5-0.3-0.7
			c0,0.5,0,1,0.1,1.4c0.1,0.7,0.5,1.3,0.8,1.9c0-0.3,0-0.5,0-0.8c0.1,0.4,0.2,0.9,0.3,1.3c-0.1-0.2-0.2-0.3-0.3-0.5
			c0,0.9,0.1,1.7,0.3,2.5c0.2,0.7,0.4,1.4,1,1.9c0.1,0.1,0.1,0.1,0.2,0.2c0.1-0.5,0.2-1.1,0.3-1.6c0.2,0.8,0.4,1.6,0.7,2.5
			c-0.3-0.3-0.6-0.6-0.9-0.9c0,0.1,0,0.1,0,0.2c-0.2,1.4,0.4,2.2,1.1,3.3c0.1,0.2,0.2,0.4,0.4,0.6c0.1,0.1,0.2,0.3,0.3,0.4
			c0-0.1,0-0.1,0-0.1c0,0.1,0,0.2,0.1,0.2c0,0,0,0,0,0.1c0.2,0.4,0.1,0.2,0-0.1c0,0,0-0.1-0.1-0.1c0,0.6,0.3,1.6,0.6,2.1
			c0.2,0.3,0.4,0.6,0.6,1c0,0,0,0,0,0c-0.1-0.2-0.1-0.4,0-0.2c0,0.1,0.1,0.2,0.1,0.3c0,0,0,0.1,0,0.1c0,0,0,0,0.1,0.1c0,0,0,0-0.1,0
			c0.1,0.3,0.2,0.5,0.3,0.8c0-0.1,0-0.2,0-0.3c0-0.5,0.2,0.7,0.1,0.4c0,0,0-0.1,0-0.1c0,0.1,0,0.2,0,0.4c0,0.8,0.1,1.6,0.3,2.4
			c0.2,0.8,0.5,1.5,0.9,2.3c0,0,0,0.1,0,0.1c0-0.3,0,0,0.1,0.2c0,0.1,0.1,0.1,0.1,0.2c0-0.1-0.1-0.1-0.1-0.2c0-0.1-0.1-0.1-0.1-0.2
			c0,0,0,0.1,0,0.1c0.1,0.4,0.1,0.8,0.2,1.2c0.2,0.6,0.6,1.1,1.1,1.6c0-0.3,0.1-0.6,0.1-1c0.2,0.6,0.5,1.2,0.7,1.8
			c-0.3-0.3-0.6-0.5-0.8-0.8c0,0.3,0,0.5,0,0.8c0,0.7,0.4,1.5,0.6,2.1c0.4,1.1,0.8,2.2,1.4,3.3c0-0.1,0-0.1,0-0.2
			c-0.1-0.4,0.4,0.8,0.2,0.4c0-0.1-0.1-0.2-0.1-0.3c0,0.1,0.1,0.2,0.1,0.3c0.1,0.3,0.2,0.6,0.3,1c0.2,0.6,0.5,1.1,0.7,1.7
			c0,0,0-0.1,0-0.1c-0.1-0.4,0.4,0.8,0.2,0.4c-0.1-0.1-0.1-0.2-0.2-0.3c0,0.1,0.1,0.3,0.1,0.4c0,0.1,0.1,0.3,0.1,0.4
			c0.3-0.2,0.6-0.4,1-0.6c0.5-0.2,1-0.3,1.4-0.5c-0.6,1-1.2,2.1-1.8,3.1c-0.2-0.5-0.4-1-0.5-1.5c-0.1-0.2-0.1-0.4-0.2-0.5
			c-0.4,0.3-0.7,0.6-1,0.9c0,0,0,0,0.1,0c0.5-0.2-0.7,0.6-0.2,0.1c0,0,0.1-0.1,0.1-0.1c-0.3,0.1-0.6,0.3-0.8,0.5
			c-0.4,0.2-0.7,0.5-1.1,0.7c-0.4,0.3-0.7,0.5-1.1,0.7c-0.1,0.1-0.3,0.1-0.4,0.2c0,0,0,0,0,0c0.4,0-0.8,0.4-0.5,0.2
			c0.1-0.1,0.3-0.1,0.4-0.2c-0.1,0-0.2,0-0.3,0.1c-0.9,0.2-1.6,0.3-2.3,0.9c-0.2,0.2-0.5,0.4-0.7,0.6c0.2-0.1,0.4-0.1,0.6-0.2
			c-0.4,0.2-0.7,0.4-1.1,0.7c0.2-0.2,0.4-0.3,0.6-0.5c-0.8,0.3-1.5,0.5-2.1,1c-0.3,0.2-0.5,0.4-0.8,0.6c0.4-0.1-0.7,0.6-0.3,0.2
			c0.1-0.1,0.2-0.2,0.3-0.2c0,0,0,0,0,0c-0.2,0.1-0.4,0.2-0.6,0.3c-0.1,0-0.2,0.1-0.3,0.1c0,0,0,0,0,0c0.5-0.1-0.7,0.4-0.3,0.1
			c0.1,0,0.2-0.1,0.3-0.1c-0.4,0.1-0.9,0.2-1.3,0.3c-0.8,0.2-1.4,0.8-2,1.3c0.2-0.1,0.4-0.1,0.6-0.2c-0.4,0.2-0.7,0.4-1.1,0.7
			c0.1-0.1,0.1-0.1,0.2-0.2c-0.2,0-0.7,0.2-0.4,0c0,0,0,0,0,0c-0.3,0-0.5,0-0.8,0c-0.9,0-1.8,0.2-2.4,0.9c-0.2,0.2-0.3,0.4-0.5,0.5
			c0.4,0,0.9-0.1,1.3-0.1c-0.6,0.2-1.2,0.5-1.8,0.7c0.2-0.2,0.3-0.4,0.5-0.6c-0.2,0-0.5,0.1-0.7,0.1c-1.3,0.2-2,1.4-2.6,2.4
			c-0.9,1.3,0,3.5,1.5,3.7c0.3,0,0.6,0.1,0.9,0.2c-0.1,0-0.1-0.1-0.2-0.1c-0.4-0.3,0.7,0.1,0.4,0.1c-0.1,0-0.1,0-0.2,0
			c0.1,0.1,0.3,0.2,0.4,0.3c0.2,0.2,0.5,0.3,0.7,0.5c0.7,0.4,1.4,0.3,2.1,0.4c0.2,0,0.3,0,0.5,0c0,0,0,0,0,0c-0.1,0-0.1,0-0.1-0.1
			c0,0,0.1,0,0.1,0.1c0,0,0,0,0,0c0,0,0.1,0,0.1,0c0.5,0,0.2,0.1-0.1,0c0,0,0,0,0,0c0.3,0.1,0.6,0.2,0.8,0.3c0,0,0,0,0.1,0
			c0,0,0,0,0,0c0.1,0,0.3,0.1,0.4,0.1c-0.1,0-0.2,0-0.3-0.1c0.3,0.2,0.7,0.5,1,0.7c0.5,0.3,1,0.6,1.5,0.9c0.5,0.2,1,0.4,1.5,0.5
			c0.1,0,0.2,0.1,0.3,0.1c0,0,0,0,0,0c-0.4-0.3,0.8,0.2,0.3,0.1c-0.1,0-0.2-0.1-0.3-0.1c1,1,2.5,1.5,3.9,1.9
			c0.2,0.1,0.5,0.1,0.7,0.2c0.1,0,0.2,0.1,0.3,0.1c-0.1,0-0.2-0.1-0.5-0.2c0.4,0.2,0.8,0.4,1.2,0.6c0.6,0.3,1.3,0.5,1.9,0.7
			c-0.2-0.2-0.4-0.3-0.5-0.5c0.4,0.2,0.7,0.4,1.1,0.7c-0.2-0.1-0.4-0.1-0.6-0.2c0.6,0.5,1.3,1,2,1.4c0.4,0.2,0.9,0.4,1.3,0.5
			c0.1-0.1,0.3-0.3,0.5-0.4c0.1-0.1,0.2-0.1,0.3-0.2c0-0.1,0-0.2,0-0.4c0,0.1,0.1,0.2,0.1,0.3c0.3-0.2,0.7-0.5,1-0.7
			c-0.2,0.4-0.5,0.9-0.7,1.3c0.1,0.1,0.1,0.2,0.2,0.4c0.2,0.1,0.3,0.2,0.5,0.3c-0.1,0-0.3-0.1-0.4-0.1c0.1,0.1,0.1,0.3,0.2,0.4
			c-0.2-0.2-0.3-0.3-0.5-0.5c-0.1,0-0.1,0-0.2,0c-0.1,0.2-0.2,0.3-0.3,0.5c0-0.2,0-0.4,0.1-0.6c-0.2-0.1-0.4-0.1-0.7-0.2
			c-0.6,0.6-0.8,1.3-0.9,2.2c0,0.2-0.2,0.7-0.1,0.6c0.1-0.3,0.4-0.8,0.1-0.2c-0.1,0.1-0.1,0.2-0.1,0.2c0,0.1-0.1,0.1-0.1,0.1
			c-0.1,0.2-0.4,0.5-0.4,0.8c0,0,0,0,0,0c0-0.2,0.6-0.7,0.2-0.3c-0.1,0.1-0.2,0.2-0.2,0.3c0,0,0,0,0,0c0,0,0,0,0,0
			c0,0-0.1,0.1-0.1,0.1c-0.8,1-1.8,2-2.3,3.1c-0.3,0.7-0.5,1.4-0.8,2.1c0.1-0.1,0.2-0.2,0.3-0.3c-0.2,0.4-0.4,0.7-0.7,1.1
			c0.1-0.3,0.2-0.6,0.3-0.8c-0.3,0.3-0.6,0.5-0.9,0.8c-0.5,0.5-0.8,1.1-1.1,1.7c-0.5,0.8-0.8,1.7-1.2,2.5c-0.1,0.1-0.1,0.2-0.2,0.4
			c0.1-0.1,0.1-0.1,0.2-0.2c-0.1,0.1-0.2,0.2-0.3,0.3c-0.1,0.2-0.1,0.2-0.1,0.2c0,0.1-0.1,0.1-0.1,0.2c-0.4,0.5-0.8,0.9-1.2,1.5
			c-0.5,0.8-0.9,1.3-1,2.3c0,0.2,0,0.4,0,0.6c0.2-0.2,0.4-0.4,0.6-0.7c-0.2,0.6-0.5,1.2-0.7,1.8c0-0.4,0.1-0.8,0.1-1.1
			c-0.3,0.3-0.6,0.7-0.9,1.1c-0.3,0.5-0.4,1.1-0.6,1.6c0.2-0.2,0.3-0.4,0.5-0.6c-0.2,0.4-0.4,0.7-0.7,1.1c0.1-0.2,0.1-0.4,0.2-0.6
			c-0.6,0.7-1.1,1.3-1.7,2c0.1-0.1-0.6,0.8-0.2,0.2c0.1-0.1,0.1-0.1,0.2-0.2c0,0-0.1,0.1-0.1,0.2c-0.2,0.3-0.4,0.5-0.6,0.8
			c-0.4,0.5-0.7,1-1,1.6c-0.5,1-1.3,1.8-1.6,2.8c-0.2,0.7-0.4,1.4-0.6,2.1c0.3-0.2,0.6-0.5,0.9-0.7c-0.4,0.5-0.8,1-1.2,1.5
			c0.1-0.3,0.2-0.5,0.2-0.8c-0.1,0.1-0.2,0.1-0.2,0.2c-0.4,0.3-0.8,0.6-1.1,1.1c-0.2,0.3-0.3,0.7-0.4,1c-0.1,0.2-0.2,0.4-0.2,0.6
			c0.1,0-0.4,0.9-0.1,0.3c0-0.1,0.1-0.2,0.1-0.3c0,0,0,0,0,0c-0.3,0.3-0.5,0.9-0.8,1.2c-0.5,0.7-0.9,1.4-1.4,2.1
			c-0.3,0.5-0.6,0.9-0.7,1.5c-0.1,0.3-0.1,0.6-0.1,0.9c0.2-0.2,0.4-0.4,0.6-0.6c-0.2,0.4-0.4,0.7-0.7,1.1c0-0.2,0-0.4,0.1-0.5
			c-0.2,0.2-0.4,0.4-0.6,0.6c-1,1-1,2.6,0,3.6c1,1,2.6,1,3.6,0c0.9-0.8,1.7-1.6,1.9-2.8c0-0.3,0.1-0.6,0.1-0.9
			c0,0.1-0.1,0.1-0.1,0.2c-0.3,0.4,0.2-0.9,0.1-0.2c0,0,0,0,0,0c0.2-0.3,0.5-0.7,0.7-1c0.5-0.7,0.9-1.3,1.3-2
			c0.4-0.6,0.7-1.2,0.9-1.9c-0.3,0.2-0.5,0.4-0.8,0.6c0.4-0.5,0.8-1,1.2-1.5c-0.1,0.3-0.3,0.6-0.4,0.9c0.2-0.1,0.3-0.3,0.5-0.4
			c0.6-0.5,1-0.9,1.3-1.6c0.1-0.3,0.2-0.6,0.3-0.9c0.1-0.4,0.3-0.9,0.4-1.3c0-0.2,0.1-0.4,0.2-0.7c-0.1,0.1-0.2,0.3-0.2,0.3
			c0,0,0.2-0.7,0.2-0.5c0,0.1,0,0.1,0,0.2c0-0.1,0.1-0.1,0.1-0.1c0.3-0.4,0.5-0.8,0.8-1.2c0.2-0.3,0.3-0.6,0.5-0.9
			c0-0.1,0.1-0.2,0.1-0.2c0,0.1-0.1,0.1-0.1,0.2c-0.4,0.5,0.2-0.5,0.1-0.2c0.4-0.5,0.8-0.9,1.1-1.4c0.2-0.2,0.3-0.4,0.5-0.7
			c0,0,0-0.1,0.1-0.1c0,0,0,0,0,0c0,0,0,0,0,0c0.1-0.1,0.1-0.2,0.2-0.3c0.3-0.5,0,0.1-0.2,0.3c0,0,0,0,0,0c0.5-0.3,1.2-1.2,1.5-1.7
			c0.3-0.5,0.4-1,0.6-1.5c-0.2,0.2-0.3,0.3-0.5,0.5c0.2-0.4,0.4-0.7,0.7-1.1c-0.1,0.2-0.1,0.4-0.2,0.6c0.5-0.6,1.2-1.2,1.3-1.9
			c0.1-0.5,0.2-1,0.2-1.6c-0.1,0.1-0.2,0.3-0.3,0.4c0.1-0.4,0.2-0.9,0.3-1.3c0,0.3,0,0.6-0.1,0.9c0.1-0.1,0.1-0.2,0.2-0.3
			c0.1-0.1,0.1-0.1,0.2-0.2c0,0-0.1,0.1-0.1,0.1c-0.3,0.2,0.5-0.8,0.2-0.3c-0.1,0.1-0.1,0.2-0.2,0.2c0.5-0.5,1-1,1.4-1.6
			c0.6-0.9,0.9-2,1.4-2.9c0.2-0.3,0.4-0.6,0.5-0.9c0,0,0-0.1,0-0.1c0,0-0.1,0-0.1,0.1c-0.3,0.1,0.5-0.8,0.3-0.3
			c0,0.1-0.1,0.2-0.2,0.3c0.3-0.2,0.5-0.5,0.7-0.7c0.3-0.3,0.6-0.5,0.8-0.9c0.5-0.9,0.8-2,1.2-3c-0.1,0.2-0.3,0.3-0.4,0.5
			c0.2-0.4,0.4-0.7,0.7-1.1c-0.1,0.2-0.1,0.4-0.2,0.6c0.7-0.8,1.5-1.6,2-2.5c0.3-0.6,0.8-1.4,0.9-2.1c0.1-0.3,0.1-0.6,0.2-0.9
			c-0.4,0.3-0.7,0.5-1.1,0.8c0.4-0.5,0.8-1,1.2-1.5c0,0.3-0.1,0.5-0.1,0.8c0.1,0,0.1-0.1,0.2-0.1c0.4-0.3,0.9-0.6,1.1-1.1
			c0.3-0.5,0.3-1.1,0.4-1.7c0.1-0.7,0.2-1.4,0-2c-0.2-0.8-1-1.5-1.5-2.1c-0.6-0.6-1.3-0.7-2.1-0.9c-0.2,0-0.3-0.1-0.5-0.2
			c0.3,0.1,0.6,0.3,0.3,0.2c-0.1-0.1-0.3-0.1-0.4-0.2c0,0,0,0,0,0c0,0,0,0,0,0c0,0-0.1,0-0.1-0.1c-0.2-0.1-0.5-0.3-0.7-0.3
			c0,0,0,0,0,0c0.2,0.1,0.6,0.5,0.1,0.1c0,0,0,0-0.1-0.1c0,0-0.1,0-0.1,0c0,0,0,0,0,0c-0.6-0.5-1.2-1.1-2-1.4
			c-0.5-0.2-1-0.3-1.4-0.5c0.1,0,0.1,0.1,0.2,0.1c0.7,0.3-0.7-0.2-0.2-0.1c0,0,0,0,0,0c-0.3-0.1-0.5-0.3-0.8-0.4
			c-0.9-0.4-1.8-0.5-2.7-0.9c-0.3-0.1-0.5-0.2-0.8-0.3c0,0,0,0,0,0c0,0,0,0,0,0c0,0,0,0,0,0c-0.1,0-0.3-0.1-0.4-0.1
			c-0.4-0.1,0.3,0,0.4,0.2c0,0,0,0,0,0c-0.2-0.3-1-0.7-1.3-0.9c-0.5-0.3-1.1-0.4-1.7-0.6c0,0-0.1,0-0.1,0c0,0,0.1,0.1,0.1,0.1
			c0,0-0.1-0.1-0.1-0.1c-0.1,0-0.2-0.1-0.3-0.1c-0.3-0.1-0.1-0.1,0.1,0c-0.2-0.1-0.4-0.2-0.5-0.3c-0.8-0.5-1.6-1.1-2.4-1.5
			c0,0-0.1,0-0.1,0c-0.6,0.2-1.3,0.3-1.9,0.4c-0.4,0.5-0.8,0.9-1.4,1.2c-0.8,0.3-1.8,0.3-2.7,0.4c0.4-0.2,0.8-0.4,1.2-0.7
			c-0.4-1.1-0.9-2.1-1.3-3.2c0.7,0.1,1.3,0.2,1.9,0.5c0.3,0.2,0.6,0.4,0.9,0.6c0.3,0,0.6,0,0.9,0c0.7,0,1.4,0.3,2.1,0.5
			c0.2,0.1,0.3,0.1,0.5,0.2c0.7-0.3,1.3-0.5,1.9-1C417.5,373.9,417.7,373.7,417.9,373.5z"/>
		<path class="st10" d="M412.1,417.6c-0.3,0.2-0.6,0.5-0.9,0.7c-0.1,0.3-0.2,0.5-0.2,0.8C411.3,418.6,411.7,418.1,412.1,417.6z"/>
		<path class="st10" d="M429.5,381.9C429.5,381.8,429.4,381.8,429.5,381.9C429.4,381.8,429.4,381.8,429.5,381.9
			C429.4,381.8,429.4,381.8,429.5,381.9z"/>
		<path class="st10" d="M430.4,382.2C430.4,382.2,430.3,382.2,430.4,382.2C430.3,382.2,430.3,382.2,430.4,382.2
			C430.3,382.2,430.4,382.2,430.4,382.2z"/>
		<path class="st10" d="M426.2,380c-0.1,0-0.1-0.1-0.2-0.1c0,0,0,0,0,0C425.4,379.8,426.9,380.4,426.2,380z"/>
		<path class="st10" d="M421.7,378.4C421.7,378.4,421.7,378.4,421.7,378.4C421.7,378.4,421.7,378.4,421.7,378.4
			C421.7,378.4,421.7,378.4,421.7,378.4z"/>
		<path class="st10" d="M429.6,386.1c0,0.1,0,0.2,0,0.4c0,0,0.1-0.1,0.1-0.1C429.7,386.2,429.6,386.1,429.6,386.1z"/>
		<path class="st10" d="M429.5,387c0,0.1,0,0.2,0,0.3c0.1,0,0.2,0.1,0.2,0.1c0,0,0,0,0-0.1C429.7,387.1,429.6,387,429.5,387z"/>
		<path class="st10" d="M429.4,387.8c0.1-0.2,0.2-0.3,0.3-0.5c-0.1,0-0.2,0-0.2-0.1C429.5,387.4,429.4,387.6,429.4,387.8z"/>
		<path class="st10" d="M430.5,387.5c-0.2-0.1-0.3-0.2-0.5-0.3c0,0.1,0,0.1,0.1,0.2C430.3,387.5,430.4,387.5,430.5,387.5z"/>
		<path class="st10" d="M429.8,387.1c-0.1-0.1-0.2-0.1-0.3-0.2c0,0,0,0,0,0c0.1,0.1,0.2,0.2,0.3,0.3
			C429.8,387.2,429.8,387.1,429.8,387.1z"/>
		<path class="st10" d="M430.7,385.6c-0.3,0.2-0.7,0.5-1,0.7c0.1,0.2,0.2,0.4,0.2,0.6C430.2,386.5,430.4,386,430.7,385.6z"/>
		<path class="st10" d="M429.4,386.9C429.4,386.9,429.5,386.9,429.4,386.9C429.5,386.9,429.5,386.9,429.4,386.9
			C429.5,386.9,429.4,386.9,429.4,386.9z"/>
		<path class="st10" d="M430.3,387.8c-0.1-0.1-0.1-0.3-0.2-0.4c-0.1,0-0.2-0.1-0.3-0.1C430,387.5,430.2,387.7,430.3,387.8z"/>
		<path class="st10" d="M408.7,378.1c0.1,0,0.1,0.1,0.2,0.1c0.1,0,0.1,0,0.2,0C409.4,378.2,408.3,377.8,408.7,378.1z"/>
		<path class="st10" d="M413.5,379.6c0,0-0.1,0-0.1,0c0,0,0.1,0.1,0.2,0.1c0,0,0,0,0,0C413.6,379.7,413.5,379.7,413.5,379.6z"/>
		<path class="st10" d="M412.5,379.3C412.5,379.3,412.5,379.3,412.5,379.3C412.5,379.3,412.5,379.3,412.5,379.3
			C412.5,379.3,412.5,379.3,412.5,379.3z"/>
		<path class="st10" d="M425,384.7c0.2,0.2,0.4,0.3,0.5,0.5c0.2,0.1,0.4,0.1,0.6,0.2C425.7,385.1,425.3,384.9,425,384.7z"/>
		<path class="st10" d="M415.1,410.8c-0.1,0.1-0.1,0.1-0.2,0.2C414.5,411.6,415.2,410.7,415.1,410.8z"/>
		<path class="st10" d="M417.9,381.9C417.9,381.9,417.9,381.9,417.9,381.9c0.1,0.1,0.2,0.1,0.3,0.1
			C418.7,382.1,417.5,381.5,417.9,381.9z"/>
		<path class="st10" d="M427.4,390.7C427.4,390.7,427.4,390.7,427.4,390.7C427.4,390.7,427.4,390.7,427.4,390.7
			C427.4,390.7,427.4,390.7,427.4,390.7z"/>
		<path class="st10" d="M429.7,387.3c0,0,0.1,0,0.2,0C429.8,387.3,429.8,387.3,429.7,387.3C429.7,387.2,429.7,387.3,429.7,387.3z"/>
		<path class="st10" d="M424.5,395.7c-0.1,0.1-0.2,0.2-0.3,0.3c-0.1,0.3-0.2,0.6-0.3,0.8C424.1,396.5,424.3,396.1,424.5,395.7z"/>
		<path class="st10" d="M418.9,405.5c-0.2,0.2-0.4,0.4-0.6,0.7c0,0.4-0.1,0.8-0.1,1.1C418.4,406.7,418.6,406.1,418.9,405.5z"/>
		<path class="st10" d="M417.2,408.2c-0.2,0.2-0.3,0.4-0.5,0.6c-0.1,0.2-0.1,0.4-0.2,0.6C416.8,409,417,408.6,417.2,408.2z"/>
		<path class="st10" d="M420.8,401.4C420.8,401.4,420.8,401.4,420.8,401.4c-0.1,0.1-0.1,0.1-0.1,0.2
			C420.7,401.5,420.7,401.5,420.8,401.4C420.8,401.4,420.8,401.4,420.8,401.4z"/>
		<path class="st10" d="M429.7,387.2c0,0,0.1,0.1,0.1,0.1c0.1,0,0.2,0.1,0.3,0.1c0-0.1,0-0.1-0.1-0.2c-0.1-0.1-0.2-0.1-0.3-0.2
			C429.8,387.1,429.8,387.2,429.7,387.2z"/>
		<path class="st10" d="M430.1,387.3c-0.1-0.1-0.1-0.2-0.2-0.4c0,0.1-0.1,0.1-0.1,0.2C429.9,387.2,430,387.2,430.1,387.3z"/>
		<path class="st10" d="M427.8,389.8c0,0,0.1-0.1,0.1-0.2C428.2,389,427.9,389.5,427.8,389.8z"/>
		<path class="st10" d="M429.5,387C429.5,386.9,429.4,386.9,429.5,387C429.4,386.9,429.5,386.9,429.5,387c0-0.2,0-0.4,0.1-0.6
			c-0.1,0.1-0.2,0.1-0.3,0.2c-0.2,0.1-0.3,0.3-0.5,0.4c0.2,0.1,0.4,0.1,0.7,0.2C429.5,387.1,429.5,387,429.5,387z"/>
		<path class="st10" d="M429.8,387.1c0-0.1,0.1-0.1,0.1-0.2c-0.1-0.2-0.2-0.4-0.2-0.6c0,0-0.1,0.1-0.1,0.1c0,0.2,0,0.3,0,0.5
			C429.6,387,429.7,387,429.8,387.1z"/>
	</g>
	<g class="st6">
		<path class="st10" d="M278.9,365.9c-0.2-0.2-0.3-0.5-0.5-0.7c-0.1-0.1-0.3-0.1-0.4-0.2C278.2,365.3,278.5,365.6,278.9,365.9z"/>
		<path class="st10" d="M273.2,360.6C273.2,360.6,273.2,360.6,273.2,360.6c0-0.1,0-0.2,0-0.2C273.3,359.7,273.1,361,273.2,360.6z"/>
		<path class="st10" d="M273.8,362.4c-0.1-0.1-0.3-0.1-0.4-0.2C273.1,362.2,274,362.5,273.8,362.4z"/>
		<path class="st10" d="M270.2,360.9c0.5,1.2,1,2.5,1.5,3.7c0.3-0.4,0.6-0.8,0.9-1.2c0.3-0.4,0.4-0.8,0.5-1.3
			c-0.2-0.1-0.3-0.1-0.5-0.2C271.8,361.6,271,361.2,270.2,360.9z"/>
		<path class="st10" d="M284.1,368.4c-0.1-0.1-0.2-0.2-0.3-0.4c-0.3-0.1-0.6-0.2-0.8-0.3C283.3,367.9,283.7,368.1,284.1,368.4z"/>
		<path class="st10" d="M289.8,379.3C289.8,379.3,289.8,379.3,289.8,379.3c0.2-0.1,0.3-0.1,0.4-0.2
			C290.4,379,289.6,379.2,289.8,379.3z"/>
		<path class="st10" d="M287.9,369.8c-0.1,0-0.2-0.1-0.3-0.1c-0.1,0-0.1,0-0.2-0.1C287.2,369.6,288.2,369.9,287.9,369.8z"/>
		<path class="st10" d="M293,373.1c-0.2-0.3-0.4-0.6-0.7-0.9c-0.3-0.1-0.6-0.2-0.9-0.3C292,372.4,292.5,372.8,293,373.1z"/>
		<path class="st10" d="M280.7,339.3C280.7,339.3,280.8,339.3,280.7,339.3c0-0.1,0-0.2,0-0.3C280.8,339.2,280.8,339.3,280.7,339.3z"
			/>
		<path class="st10" d="M280.6,339.1c0-0.1,0.1-0.1,0.1-0.2c0,0,0,0,0-0.1C280.7,338.9,280.7,339,280.6,339.1z"/>
		<path class="st10" d="M280.8,338.9C280.8,338.9,280.8,338.9,280.8,338.9C280.8,338.9,280.8,338.9,280.8,338.9
			C280.8,338.9,280.8,338.9,280.8,338.9C280.8,338.9,280.8,338.9,280.8,338.9z"/>
		<path class="st10" d="M279.4,343.1C279.4,343.1,279.4,343.1,279.4,343.1C279.4,343.1,279.4,343.1,279.4,343.1
			C279.4,343.1,279.4,343.1,279.4,343.1z"/>
		<path class="st10" d="M275.9,353.1c0-0.1,0-0.3,0.1-0.4C276,352.2,275.9,353.3,275.9,353.1z"/>
		<path class="st10" d="M274.8,355.5c-0.2,0.6-0.5,1.2-0.7,1.8c0.2-0.2,0.5-0.5,0.7-0.8C274.8,356.2,274.8,355.9,274.8,355.5z"/>
		<path class="st10" d="M275.9,352.2c0.1,0,0.1-0.2,0.2-0.3c0,0,0,0,0,0C276.2,351.3,276.1,352,275.9,352.2z"/>
		<path class="st10" d="M273,360.4c0.2-0.2,0.3-0.4,0.5-0.6c0-0.2,0.1-0.4,0.1-0.5C273.4,359.6,273.2,360,273,360.4z"/>
		<path class="st10" d="M273.1,387C273.1,387,273.1,387,273.1,387c0.2-0.1,0.3-0.1,0.5-0.2c0.2-0.1,0.4-0.3,0.6-0.4
			C273.8,386.6,273.5,386.8,273.1,387z"/>
		<path class="st10" d="M283.8,407.3c0-0.3,0-0.7,0-1c-0.2-0.3-0.5-0.5-0.7-0.8C283.3,406.1,283.5,406.7,283.8,407.3z"/>
		<path class="st10" d="M281.5,403.1c0-0.3-0.1-0.7-0.1-1.1c-0.2-0.2-0.4-0.5-0.7-0.7C281,401.9,281.2,402.5,281.5,403.1z"/>
		<path class="st10" d="M279.5,399c-0.1-0.2-0.2-0.3-0.3-0.5c-0.2-0.1-0.4-0.3-0.6-0.4C278.9,398.4,279.2,398.7,279.5,399z"/>
		<path class="st10" d="M274.3,389.5c0-0.1,0-0.1,0-0.2c0-0.1-0.1-0.1-0.1-0.1C274.2,389.3,274.4,390.1,274.3,389.5z"/>
		<path class="st10" d="M290.3,417.7c-0.1-0.2-0.2-0.5-0.3-0.7c-0.1-0.1-0.2-0.3-0.4-0.4C289.8,417,290,417.4,290.3,417.7z"/>
		<path class="st10" d="M275.7,392.5c0,0,0-0.1,0-0.1c-0.1-0.1-0.1-0.2-0.2-0.3C275.5,392.1,275.7,393,275.7,392.5z"/>
		<path class="st10" d="M295.3,426c-0.1-0.3-0.2-0.7-0.3-1c-0.3-0.2-0.6-0.4-0.8-0.5C294.5,425,294.9,425.5,295.3,426z"/>
		<path class="st10" d="M291.6,419.2c-0.2-0.1,0.4,0.6,0.3,0.4c0-0.1-0.1-0.2-0.2-0.3C291.7,419.3,291.7,419.3,291.6,419.2z"/>
		<path class="st10" d="M279.1,365.5C279.4,365.6,279.5,365.7,279.1,365.5L279.1,365.5z"/>
		<path class="st10" d="M294,423c0-0.1-0.1-0.2-0.1-0.3c0,0,0-0.1,0-0.1c0,0,0-0.1-0.1-0.1C293.6,422.2,294.1,423.2,294,423z"/>
		<path class="st10" d="M272.5,386.5c-0.1,0.2-0.2,0.4-0.3,0.6c0.1,0.2,0.2,0.4,0.3,0.6c0,0,0.1,0,0.1-0.1
			C272.6,387.2,272.5,386.9,272.5,386.5C272.5,386.5,272.5,386.5,272.5,386.5z"/>
		<path class="st10" d="M273.1,387C273.1,387,273.1,387,273.1,387c-0.1-0.1-0.2-0.3-0.3-0.4c-0.1,0-0.1-0.1-0.2-0.1
			c0,0.4,0,0.7,0,1.1c0.2-0.2,0.4-0.3,0.6-0.5C273.2,387.1,273.1,387,273.1,387C273.1,387,273.1,387,273.1,387z"/>
		<path class="st10" d="M273.2,387.1c0.1-0.1,0.3-0.2,0.4-0.3c-0.2,0.1-0.3,0.1-0.5,0.2C273.1,387,273.2,387.1,273.2,387.1z"/>
		<path class="st10" d="M273.1,387C273.1,387,273.1,387,273.1,387C273.1,387,273.1,387,273.1,387C273.1,387,273.1,387,273.1,387z"/>
		<path class="st10" d="M284.7,381.5c0.2-0.2-0.5,0.3-0.4,0.3c0,0,0,0,0,0c0,0,0,0,0.1,0C284.4,381.7,284.6,381.6,284.7,381.5z"/>
		<path class="st10" d="M277.4,384.6c0.2-0.1,0.5-0.2,0.7-0.3c0.1-0.1,0.3-0.2,0.4-0.4C278.2,384.2,277.8,384.4,277.4,384.6z"/>
		<path class="st10" d="M271.3,388.6c0.4-0.3,0.8-0.6,1.2-0.9c-0.1-0.2-0.2-0.4-0.3-0.6C271.8,387.6,271.6,388.1,271.3,388.6z"/>
		<path class="st10" d="M272.6,387.8c0-0.1,0-0.1,0-0.2c0,0-0.1,0-0.1,0.1C272.5,387.7,272.5,387.8,272.6,387.8z"/>
		<path class="st10" d="M285.2,381.3c0.1,0,0.2,0,0.2-0.1c0,0,0.1,0,0.1-0.1C286,380.9,285,381.3,285.2,381.3z"/>
		<path class="st10" d="M271.3,385.6c0.3,0.5,0.6,1,0.8,1.4c0.1-0.2,0.2-0.4,0.3-0.6C272.1,386.2,271.7,385.9,271.3,385.6z"/>
		<path class="st10" d="M272.5,386.4C272.5,386.4,272.5,386.5,272.5,386.4C272.5,386.5,272.5,386.5,272.5,386.4
			C272.5,386.5,272.5,386.4,272.5,386.4z"/>
		<path class="st10" d="M280.8,338.9C280.8,338.9,280.8,338.9,280.8,338.9c0.1-0.1,0.2-0.2,0.3-0.3c0.1-0.2,0.2-0.4,0.2-0.6
			C281.1,338.3,280.9,338.6,280.8,338.9z"/>
		<path class="st10" d="M280.9,378.2c-0.2,0.1-0.4,0.1-0.6,0.2c-0.2,0.1-0.4,0.3-0.6,0.4C280.2,378.7,280.6,378.5,280.9,378.2z"/>
		<path class="st10" d="M270.5,392.7c0,0.1,0,0.1,0,0.1C270.9,393.3,270.3,392.1,270.5,392.7z"/>
		<path class="st10" d="M287.8,374.6c-0.2,0.1-0.3,0.2-0.4,0.2c0.3,0.1,0.5,0.2,0.8,0.3C288.1,375,287.9,374.8,287.8,374.6z"/>
		<path class="st10" d="M269.7,383.5C269.7,383.5,269.7,383.5,269.7,383.5C269.7,383.5,269.7,383.5,269.7,383.5
			C269.7,383.5,269.7,383.5,269.7,383.5z"/>
		<path class="st10" d="M269,389.5c0.1,0.3,0.2,0.6,0.2,0.8c0.3,0.2,0.6,0.4,0.9,0.7C269.8,390.5,269.4,390,269,389.5z"/>
		<path class="st10" d="M274.8,380.9c-0.2,0.1-0.5,0.2-0.7,0.3c-0.1,0.1-0.2,0.2-0.4,0.4C274.1,381.3,274.4,381.1,274.8,380.9z"/>
		<path class="st10" d="M291.6,373.9C291.6,373.9,291.5,373.9,291.6,373.9C291.6,373.9,291.7,373.8,291.6,373.9z"/>
		<path class="st10" d="M291.5,373.9C291.5,373.9,291.5,373.9,291.5,373.9c-0.1,0.1-0.3,0.1-0.5,0.2
			C291.2,374,291.4,374,291.5,373.9z"/>
		<path class="st10" d="M289.1,375.4c-0.4-0.3-0.8-0.6-1.1-0.9c0,0-0.1,0-0.1,0.1c0.1,0.2,0.2,0.3,0.4,0.5
			C288.5,375.2,288.8,375.3,289.1,375.4z"/>
		<path class="st10" d="M288.2,375.1c0.1,0.1,0.2,0.3,0.3,0.4c0.6,0.8,1.3,1.2,2.2,1.5c0.9,0.3,1.8,0.6,2.7,0.9
			c-0.2-1.5-0.4-3.1-0.6-4.6c-0.4,0.2-0.8,0.3-1.2,0.5c0.1,0,0,0-0.1,0c-0.2,0.1-0.3,0.1-0.5,0.2c0.2-0.1,0.3-0.2,0.4-0.2
			c0,0-0.1,0-0.1,0c-0.2,0-0.4,0.1-0.6,0.1c-0.2,0-0.5,0.1-0.7,0.1c-0.6,0.1-1.1,0.1-1.7,0.2c-0.1,0-0.3,0.1-0.4,0.1
			c0.4,0.3,0.8,0.6,1.1,0.9C288.8,375.3,288.5,375.2,288.2,375.1z"/>
		<path class="st10" d="M286.7,421c0,0.1,0.1,0.2,0.3,0.3c0,0,0,0,0,0C286.9,421.2,286.8,421.1,286.7,421z"/>
		<path class="st10" d="M291.9,428.3c0.1,0.3,0.2,0.6,0.3,0.9c0.3,0.2,0.6,0.4,0.9,0.6C292.7,429.3,292.3,428.8,291.9,428.3z"/>
		<path class="st10" d="M289.9,425.8c0,0.1,0,0.2,0.1,0.2c0,0,0.1,0.1,0.1,0.1C290.4,426.6,289.9,425.5,289.9,425.8z"/>
		<path class="st10" d="M288.6,422.8c0.1,0.2,0.2,0.5,0.2,0.7c0.1,0.1,0.3,0.3,0.4,0.4C289,423.5,288.8,423.2,288.6,422.8z"/>
		<path class="st10" d="M296.1,425.8c-0.3-0.3-0.7-0.6-1.1-0.8c0.1,0.3,0.2,0.6,0.3,1c-0.4-0.5-0.8-1-1.2-1.5
			c0.3,0.2,0.6,0.4,0.8,0.5c-0.2-0.6-0.5-1.2-0.8-1.8c-0.1-0.2-0.2-0.4-0.3-0.6c0,0,0,0.1,0,0.1c0,0.1,0.1,0.2,0.1,0.3
			c0.1,0.3-0.4-0.8-0.2-0.5c0,0,0,0.1,0.1,0.1c-0.2-0.6-0.4-1.2-0.7-1.7c-0.3-0.5-0.9-0.9-1.3-1.4c0,0-0.1-0.1-0.1-0.1
			c0.1,0.1,0.1,0.2,0.2,0.3c0.1,0.2-0.5-0.5-0.3-0.4c0,0,0.1,0.1,0.1,0.1c-0.1-0.1-0.2-0.3-0.3-0.4c-0.5-0.7-1-1.3-1.6-1.9
			c0.1,0.2,0.2,0.5,0.3,0.7c-0.2-0.4-0.4-0.7-0.7-1.1c0.1,0.1,0.2,0.3,0.4,0.4c-0.1-0.3-0.2-0.5-0.3-0.8c-0.2-0.7-0.3-1.5-0.6-2.2
			c-0.5-0.9-1.1-1.9-1.6-2.8c-0.3-0.4-0.7-0.8-1-1.3c-0.3-0.5-0.4-1-0.7-1.5c-0.4-0.7-1.1-1.1-1.6-1.7c-0.1-0.1-0.3-0.3-0.4-0.5
			c0,0.3,0,0.7,0,1c-0.2-0.6-0.5-1.2-0.7-1.8c0.2,0.3,0.5,0.5,0.7,0.8c0-0.2,0-0.3,0-0.5c-0.1-1-0.4-1.7-1.1-2.4
			c-0.4-0.5-0.9-0.9-1.3-1.4c0,0.4,0.1,0.8,0.1,1.1c-0.2-0.6-0.5-1.2-0.7-1.8c0.2,0.2,0.4,0.5,0.7,0.7c-0.1-0.7-0.1-1.4-0.5-1.9
			c-0.4-0.6-1.1-1.1-1.7-1.5c0.1,0.2,0.2,0.3,0.3,0.5c-0.3-0.3-0.6-0.6-0.9-0.9c0.2,0.1,0.4,0.3,0.6,0.4c-0.9-1.5-1.8-3-2.7-4.6
			c-0.2-0.4-0.4-0.8-0.6-1.1c-0.1-0.1-0.2-0.3-0.3-0.5c0,0,0,0.1,0,0.1c0,0.4-0.2-0.4-0.2-0.4c0.1,0.1,0.1,0.2,0.2,0.3
			c0-0.1-0.1-0.2-0.1-0.3c-0.2-0.6-0.3-1.2-0.7-1.8c-0.2-0.3-0.4-0.5-0.6-0.8c0,0,0-0.1-0.1-0.1c0,0.1,0,0.1,0,0.2
			c0.1,0.5-0.1-0.3-0.2-0.3c0,0,0.1,0.1,0.1,0.1c-0.2-0.8-0.5-1.6-1-2.2c-0.2,0.2-0.4,0.3-0.6,0.5c0,0.1,0,0.1,0,0.2
			c0-0.1-0.1-0.1-0.1-0.2c-0.4,0.3-0.8,0.6-1.2,0.9c0.3-0.5,0.6-1,0.9-1.5c-0.3-0.5-0.6-1-0.8-1.4c0.4,0.3,0.8,0.6,1.2,0.9
			c0,0,0,0,0-0.1c0,0,0,0.1,0,0.1c0.1,0,0.1,0.1,0.2,0.1c0.1,0.1,0.3,0.2,0.4,0.3c0.4-0.2,0.7-0.4,1.1-0.6c-0.2,0.1-0.4,0.3-0.6,0.4
			c0.7-0.3,1.3-0.5,2-0.8c0.7-0.3,1.3-0.5,1.9-1.1c0.2-0.2,0.5-0.4,0.7-0.6c-0.2,0.1-0.5,0.2-0.7,0.3c0.4-0.2,0.7-0.4,1.1-0.7
			c-0.1,0.1-0.3,0.2-0.4,0.4c0.3-0.1,0.6-0.2,0.9-0.3c0.6-0.2,1.2-0.2,1.8-0.3c0.9-0.3,1.9-0.7,2.6-1.2c0.3-0.2,0.5-0.4,0.8-0.6
			c0,0,0,0,0,0c0,0,0.6-0.5,0.4-0.3c-0.1,0.1-0.2,0.2-0.4,0.3c0,0,0,0-0.1,0c0.1,0,0.2-0.1,0.2-0.1c0.3-0.1,0.6-0.3,0.9-0.5
			c-0.1,0-0.2,0.1-0.2,0.1c-0.2,0,0.8-0.4,0.4-0.2c0,0-0.1,0-0.1,0.1c0.1,0,0.2-0.1,0.3-0.1c0.6-0.2,1.2-0.4,1.8-0.7
			c0.7-0.3,1.5-0.6,2.2-1c0,0,0.1-0.1,0.2-0.1c0,0,0,0-0.1,0c-0.2-0.1,0.6-0.4,0.4-0.2c-0.1,0.1-0.2,0.1-0.3,0.2
			c0.3,0,0.8-0.1,1.1-0.2c0.7-0.1,1.3-0.2,2-0.4c0.8-0.2,1.6-0.7,2.4-1.1c0.9-0.4,1.3-1.6,1.2-2.5c-0.1-1.1-0.9-1.7-1.8-2.1
			c-0.8-0.3-1.6-0.6-2.4-0.8c0.2,0.3,0.4,0.6,0.7,0.9c-0.5-0.4-1-0.8-1.5-1.2c0.3,0.1,0.6,0.2,0.9,0.3c-0.1-0.1-0.2-0.2-0.2-0.3
			c-0.5-0.7-1.2-1.2-2-1.5c-0.8-0.3-1.8-0.7-2.7-0.8c0,0,0,0,0,0c0.1,0,0.1,0,0.2,0.1c0.1,0,0.2,0.1,0.3,0.1
			c0.3,0.1-0.7-0.2-0.5-0.2c-0.2-0.1-0.4-0.2-0.6-0.3c-0.3-0.1-0.6-0.3-0.9-0.5c-0.7-0.4-1.4-0.6-2.1-0.9c0.1,0.1,0.2,0.2,0.3,0.4
			c-0.4-0.2-0.7-0.4-1.1-0.7c0.3,0.1,0.6,0.2,0.8,0.3c-0.3-0.3-0.5-0.7-0.8-1c-0.7-0.7-1.7-0.7-2.6-1c-0.5-0.1-1-0.4-1.5-0.6
			c0.1,0,0.2,0.1,0.2,0.1c-0.1,0-0.2-0.1-0.3-0.1c-0.1-0.1-0.2-0.1-0.4-0.2c0.2,0.2,0.3,0.5,0.5,0.7c-0.3-0.3-0.6-0.6-0.9-0.9
			c0.1,0.1,0.3,0.1,0.4,0.2c-0.5-0.8-1.1-1.6-2.1-1.9c-0.7-0.3-1.3-0.5-2-0.8c-0.2-0.1-0.5-0.2-0.7-0.2c-0.1,0-0.1,0-0.2,0
			c0.1,0.1,0.3,0.1,0.4,0.2c0.1,0.1-0.7-0.2-0.4-0.2c-0.1,0-0.2-0.1-0.3-0.1c-0.1,0.5-0.2,0.9-0.5,1.3c-0.3,0.4-0.6,0.8-0.9,1.2
			c-0.5-1.2-1-2.5-1.5-3.7c0.8,0.3,1.6,0.7,2.4,1c0.2,0.1,0.3,0.1,0.5,0.2c0-0.2,0.1-0.5,0.1-0.8c0-0.3,0-0.5,0.1-0.8c0,0,0,0,0,0.1
			c-0.2,0.4,0.1-1,0-0.2c0,0.1,0,0.1,0,0.2c0.1-0.3,0.2-0.5,0.2-0.8c-0.2,0.2-0.4,0.4-0.5,0.6c0.2-0.4,0.4-0.7,0.7-1.1
			c0,0.2-0.1,0.3-0.1,0.5c0.4-0.5,0.9-1,1.1-1.5c0.2-0.5,0.2-1.1,0.2-1.7c-0.3,0.3-0.5,0.5-0.7,0.8c0.2-0.6,0.5-1.2,0.7-1.8
			c0,0.3,0,0.7,0,1c0.5-0.5,0.9-1,1.1-1.6c0.1-0.5,0.1-1,0.1-1.5c0-0.2,0-0.4,0-0.6c0,0,0,0,0-0.1c0,0.1-0.1,0.3-0.1,0.4
			c0,0.2,0-0.9,0.1-0.4c0.1-0.3,0.1-0.6,0.1-0.8c-0.1,0.1-0.1,0.2-0.2,0.3c0.2-0.1,0.2-0.9,0.2-0.3c0,0,0,0,0,0
			c0-0.1,0.1-0.1,0.1-0.2c0.5-0.8,0.8-1.5,1-2.4c0.2-0.7,0.3-1.4,0.4-2c0.1-0.6,0.4-1.2,0.6-1.8c-0.4,1.3,0,0,0.2-0.4
			c0.2-0.4,0.4-0.8,0.5-1.2c0.1-0.3,0.2-0.6,0.3-0.9c0,0,0,0,0,0c0,0,0,0,0,0c0-0.1,0.1-0.2,0.1-0.3c0.2-0.5,0,0.1-0.1,0.3
			c0,0,0,0,0,0c0.1-0.1,0.3-0.4,0.3-0.4c0.3-0.5,0.8-0.9,0.9-1.5c0.1-0.5,0.1-1.1,0.1-1.7c0-0.1,0-0.2,0-0.2c0,0,0,0.1,0,0.1
			c0,0.1,0,0.1,0,0c0-0.1,0-0.1,0-0.3c0-0.1,0-0.1,0-0.2c0,0.1-0.1,0.1-0.1,0.2c0-0.1,0.1-0.2,0.1-0.2c0,0,0,0,0,0c0,0,0,0,0,0
			c0.2-0.3,0.3-0.6,0.5-0.9c-0.1,0.2-0.2,0.4-0.2,0.6c0.3-0.4,0.6-0.7,0.8-1.1c0.5-0.7,0.6-1.7,0.7-2.6c0,0.1,0,0,0.1-0.6
			c0,0.2,0,0.4-0.1,0.6c0-0.1,0.1-0.6,0.1-0.8c0-0.3,0.1-0.5,0.1-0.8c0.1-0.6,0.3-1.1,0.4-1.7c0.1-0.3,0.2-0.6,0.3-0.9
			c0,0-0.1,0.1-0.1,0.1c0.1-0.1,0.1-0.2,0.1-0.2c0,0,0,0,0-0.1c0.1-0.2,0.1-0.3,0.1-0.2c0.3-0.5,0.6-1,0.9-1.6
			c0.8-1.2,1.2-2.5,1.7-3.9c0.4-1.2,0.6-2.4,0.7-3.6c-0.1,0.1-0.2,0.3-0.3,0.4c0.1-0.4,0.2-0.9,0.3-1.3c0,0.3,0,0.6-0.1,0.9
			c0.2-0.3,0.4-0.5,0.5-0.8c0.4-0.6,0.5-1.3,0.5-2.1c0-0.2,0-0.4,0-0.5c-0.1,0.3-0.1-0.2,0-0.4c0,0.1-0.1,0.1-0.1,0.2
			c0.2-0.4,0.4-0.7,0.7-1.1c-0.1,0.2-0.1,0.4-0.2,0.6c0.2-0.3,0.5-0.5,0.7-0.8c0.9-1,1-2.6,0-3.6c-0.9-0.9-2.7-1-3.6,0
			c-0.3,0.4-0.7,0.7-1,1.1c-0.5,0.6-0.8,1.2-1.1,1.9c-0.3,0.8-0.4,1.6-0.5,2.3c0.1-0.1,0.2-0.3,0.3-0.4c-0.1,0.4-0.2,0.9-0.3,1.3
			c0-0.3,0.1-0.6,0.1-0.9c-0.4,0.6-0.9,1.2-1,1.9c0,0.4-0.1,0.7-0.1,1.1c0,0.1,0,0.2,0,0.4c0,0,0,0,0-0.1c-0.1,0-0.1,1-0.1,0.3
			c0-0.1,0-0.2,0-0.3c-0.1,0.2-0.2,0.8-0.2,1c-0.1,0.2-0.1,0.4-0.2,0.6c-0.2,0.5-0.4,1.1-0.6,1.6c-0.1,0.2-0.2,0.5-0.3,0.7
			c0.1,0-0.3,0.8-0.2,0.4c0.1-0.1,0.1-0.3,0.2-0.4c0,0,0,0,0,0c-0.1,0.1-0.2,0.4-0.3,0.5c-0.3,0.5-0.6,1-0.9,1.6
			c-0.7,1.2-1,2.5-1.3,3.9c-0.3,1.1-0.4,2.3-0.5,3.5c0.2-0.3,0.4-0.5,0.6-0.8c-0.2,0.6-0.5,1.2-0.7,1.8c0-0.3,0.1-0.7,0.1-1
			c-0.1,0.1-0.2,0.2-0.3,0.4c-0.5,0.6-0.8,1.3-1.1,2c-0.3,0.8-0.4,1.5-0.4,2.3c0.1-0.1,0.2-0.3,0.3-0.4c-0.1,0.4-0.2,0.9-0.3,1.3
			c0-0.3,0-0.6,0-0.9c-0.2,0.3-0.5,0.6-0.7,0.9c-0.3,0.5-0.5,1.2-0.7,1.8c0,0,0,0,0,0c0.3-0.6-0.3,0.8-0.1,0.1c0,0,0-0.1,0-0.1
			c-0.1,0.3-0.3,0.6-0.4,0.9c-0.3,0.6-0.5,1.2-0.7,1.8c-0.3,0.9-0.4,1.7-0.7,2.6c-0.1,0.3-0.2,0.6-0.2,0.9c0,0,0,0,0,0
			c0.4-0.6-0.2,0.8,0,0.1c0,0,0,0,0-0.1c-0.4,0.5-0.8,1.2-1,1.8c-0.3,0.9-0.3,1.9-0.3,2.9c0.3-0.3,0.5-0.5,0.7-0.8
			c-0.2,0.6-0.5,1.2-0.7,1.8c0-0.3,0-0.7,0-1c-0.4,0.4-0.8,0.9-1,1.3c-0.2,0.6-0.2,1.2-0.2,1.8c0.2-0.3,0.5-0.6,0.7-0.9
			c-0.2,0.6-0.5,1.2-0.7,1.8c0-0.3,0-0.6,0-0.9c-0.1,0.1-0.1,0.1-0.2,0.2c-0.5,0.6-0.8,1.2-1,2c-0.2,0.8-0.3,1.6-0.4,2.4
			c0.1-0.1,0.2-0.3,0.3-0.4c-0.1,0.4-0.2,0.9-0.3,1.3c0-0.3,0-0.6,0.1-0.9c-0.3,0.4-0.6,0.8-0.9,1.2c-0.5,0.6-0.4,1.6-0.1,2.3
			c0.3,0.8,0.9,1.2,1.6,1.5c0.6,0.2,1.1,0.5,1.7,0.7c-1.2-0.5-0.2-0.1,0.1,0c0.3,0.1,0.5,0.2,0.8,0.3c0.9,0.4,1.8,0.7,2.6,1
			c-0.2-0.3-0.4-0.5-0.5-0.8c0.5,0.4,1,0.8,1.5,1.2c-0.3-0.1-0.7-0.2-1-0.4c0.2,0.2,0.3,0.5,0.5,0.7c0.6,0.9,1.4,1.1,2.3,1.5
			c1,0.4,2,0.8,3,1c-0.1-0.2-0.3-0.3-0.4-0.5c0.4,0.2,0.7,0.4,1.1,0.7c-0.2-0.1-0.5-0.1-0.7-0.2c0.2,0.2,0.4,0.4,0.5,0.6
			c0.5,0.5,1,0.8,1.7,1c0.3,0.1,0.5,0.2,0.8,0.3c0,0-0.1,0-0.1-0.1c-0.5-0.3,0.9,0.3,0.2,0.1c0,0-0.1,0-0.1,0
			c0.4,0.2,0.8,0.4,1.1,0.6c1.1,0.5,2.3,0.9,3.5,1.3c0.1-0.1,0.3-0.2,0.4-0.2c-0.1-0.1-0.2-0.2-0.3-0.3c0.1,0.1,0.3,0.2,0.4,0.3
			c0.1-0.1,0.3-0.1,0.4-0.1c0.5-0.1,1.1-0.1,1.7-0.2c0.2,0,0.5-0.1,0.7-0.1c0.2,0,0.4-0.1,0.6-0.1c0,0,0.1,0,0.1,0
			c0.1,0,0.1,0,0.1-0.1c0.4-0.2,0.8-0.3,1.2-0.5c0.2,1.5,0.4,3.1,0.6,4.6c-0.9-0.4-1.8-0.7-2.7-0.9c-0.9-0.3-1.6-0.7-2.2-1.5
			c-0.1-0.1-0.2-0.3-0.3-0.4c-0.3-0.1-0.5-0.2-0.8-0.3c-0.1,0.1-0.2,0.1-0.3,0.2c-0.2,0.1-1.2,0.6-0.5,0.3c0.7-0.3-0.4,0.2-0.5,0.2
			c-0.2,0.1-0.5,0.2-0.7,0.3c-0.7,0.3-1.5,0.5-2.2,0.8c-1,0.5-1.9,1.1-2.8,1.8c0.2-0.1,0.4-0.1,0.6-0.2c-0.4,0.2-0.7,0.4-1.1,0.7
			c0.2-0.1,0.4-0.3,0.6-0.4c-0.3,0.1-0.7,0.3-1,0.4c-0.6,0.1-1.2,0.1-1.7,0.3c-0.9,0.2-2,0.7-2.7,1.2c-0.3,0.3-0.6,0.5-0.9,0.8
			c0.2-0.1,0.5-0.2,0.7-0.3c-0.4,0.2-0.7,0.4-1.1,0.7c0.1-0.1,0.3-0.2,0.4-0.4c-0.6,0.2-1.2,0.5-1.8,0.7c-0.7,0.3-1.3,0.6-1.9,1
			c-0.2,0.2-0.5,0.4-0.7,0.5c0,0,0,0,0,0c0,0,0,0,0,0c0,0,0,0,0,0c-0.4,0.3-0.7,0.5,0,0c0,0,0,0,0,0c-0.5,0.3-1.1,0.7-1.5,1.2
			c-0.8,0.8-0.8,1.8-0.7,2.9c0,0.6,0.1,1.1,0.4,1.6c0.3,0.5,0.7,0.8,1.1,1.1c0.1,0.1,0.2,0.1,0.3,0.2c-0.1-0.3-0.2-0.6-0.2-0.8
			c0.4,0.5,0.8,1,1.2,1.5c-0.3-0.2-0.6-0.4-0.9-0.7c0.3,0.9,0.6,1.7,1.2,2.4c0,0,0,0,0,0c0,0,0-0.1,0-0.1c-0.1-0.6,0.5,0.7,0,0.1
			c0.1,0.3,0.1,0.6,0.2,0.9c0.2,0.6,0.5,1.2,0.8,1.7c0.5,0.8,0.9,1.6,1.3,2.4c0.5,0.8,1.1,1.6,1.5,2.4c0.5,0.9,0.7,1.6,1.6,2.3
			c0.1,0.1,0.2,0.2,0.3,0.2c-0.1-0.5-0.1-1-0.2-1.4c0.4,0.7,0.8,1.5,1.3,2.2c-0.4-0.3-0.7-0.5-1.1-0.8c0,0,0,0,0,0
			c0.1,1,0.4,1.7,1.1,2.4c0.4,0.4,0.8,0.8,1.2,1.3c0-0.3,0-0.7,0-1c0.2,0.6,0.5,1.2,0.7,1.8c-0.2-0.3-0.5-0.5-0.7-0.8
			c0,0.5,0,1,0.1,1.5c0.2,0.8,1.2,1.7,1.8,2.4c0.2,0.2,0.4,0.4,0.6,0.6c0,0,0.2,0,0.2,0.1c0,0.1,0,0.1,0.1,0.2
			c0.1,0.1,0.2,0.2,0.3,0.3c-0.1-0.1-0.2-0.1-0.2-0.1c0,0,0,0,0,0c0.3,0.7,0.6,1.2,1,1.8c0.4,0.6,0.7,1.1,1.1,1.7
			c0.2,0.4,0.5,1.1,0.8,1.5c0,0,0,0,0-0.1c-0.1-0.3-0.1-0.5,0,0c0,0,0,0,0,0c0,0.1,0.1,0.2,0.2,0.2c0,0-0.1-0.1-0.1-0.1
			c0,0.2,0.1,0.4,0.1,0.6c0.1,0.3,0.1,0.5,0.2,0.7c0.3,1,0.7,1.9,1.4,2.7c0.2,0.2,0.3,0.4,0.5,0.6c-0.1-0.1,0-0.2,0.1,0
			c0,0.1,0.1,0.2,0.2,0.2c0,0,0,0,0,0c0,0,0.1,0.1,0.1,0.1c0,0-0.1-0.1-0.1-0.1c0.1,0.2,0.3,0.4,0.4,0.6c0.4,0.6,0.9,1.1,1.4,1.6
			c-0.1-0.2-0.2-0.5-0.2-0.7c0.2,0.4,0.4,0.7,0.7,1.1c-0.1-0.1-0.3-0.3-0.4-0.4c0.2,0.5,0.3,1,0.6,1.4c0.1,0.3,0.3,0.5,0.4,0.8
			c0.1,0.1,0.1,0.2,0.2,0.3c0-0.1,0-0.2-0.1-0.2c-0.1-0.3,0.4,0.8,0.1,0.4c0,0-0.1-0.1-0.1-0.1c0.3,1.1,0.7,2.1,1.6,2.8
			c0.2,0.1,0.4,0.3,0.6,0.4c-0.1-0.3-0.2-0.6-0.3-0.9c0.4,0.5,0.8,1,1.2,1.5c-0.3-0.2-0.6-0.4-0.9-0.6c0.1,0.2,0.1,0.5,0.2,0.7
			c0.4,1.3,1.8,2.1,3.1,1.8c1.3-0.4,2.2-1.8,1.8-3.1C297,427.7,296.8,426.5,296.1,425.8z"/>
		<path class="st10" d="M276.2,401.3c0.1,0.5,0.1,1,0.2,1.4c0.4,0.3,0.7,0.5,1.1,0.8C277,402.8,276.6,402.1,276.2,401.3z"/>
		<path class="st10" d="M278.6,405.5c0,0.3,0,0.7,0,1c0.2,0.3,0.5,0.5,0.7,0.8C279.1,406.7,278.9,406.1,278.6,405.5z"/>
		<path class="st10" d="M281.4,411.2c-0.1-0.1-0.2-0.2-0.2-0.2c0,0,0,0.2,0.3,0.4C281.5,411.3,281.5,411.2,281.4,411.2
			C281.5,411.2,281.4,411.2,281.4,411.2z"/>
		<path class="st10" d="M287.6,374.3c0.1,0.1,0.2,0.2,0.3,0.3c0,0,0.1,0,0.1-0.1C287.8,374.5,287.7,374.4,287.6,374.3z"/>
		<path class="st10" d="M284.5,416.3C284.5,416.3,284.5,416.3,284.5,416.3c0.1,0.1,0.1,0.2,0.2,0.2
			C284.6,416.4,284.5,416.4,284.5,416.3z"/>
		<path class="st10" d="M279.4,370.6c0.1,0.2,0.3,0.3,0.4,0.5c0.2,0.1,0.5,0.1,0.7,0.2C280.1,371,279.8,370.8,279.4,370.6z"/>
		<path class="st10" d="M287.9,317.7c0-0.1,0.1-0.1,0.1-0.2c0-0.1,0-0.1,0,0c0.1-0.1,0.2-0.2,0.3-0.3c0.1-0.2,0.1-0.4,0.2-0.6
			C288.3,317,288.1,317.3,287.9,317.7z"/>
		<path class="st10" d="M282.7,372.9C282.7,373,282.8,373,282.7,372.9c0.1,0.1,0.2,0.1,0.2,0.1C283.6,373.2,282.2,372.7,282.7,372.9
			z"/>
		<path class="st10" d="M288.1,317.5C288.1,317.5,288.1,317.5,288.1,317.5c-0.1,0.2-0.2,0.7,0,0.5c0-0.1,0-0.2,0-0.3
			C288.1,317.6,288.1,317.5,288.1,317.5z"/>
		<path class="st10" d="M283.2,317.8c-0.1,0.1-0.2,0.3-0.3,0.4c0,0.3-0.1,0.6-0.1,0.9C283,318.7,283.1,318.2,283.2,317.8z"/>
		<path class="st10" d="M281.9,321.5C281.9,321.5,281.9,321.6,281.9,321.5c-0.1,0.1-0.1,0.2-0.1,0.3
			C281.9,322.5,281.9,321.6,281.9,321.5z"/>
		<path class="st10" d="M288,317.5C288.1,317.5,288.1,317.5,288,317.5C288.1,317.5,288.1,317.5,288,317.5z"/>
		<path class="st10" d="M280.6,325.5c-0.1,0.1-0.1,0.3-0.2,0.4C280.3,326.3,280.7,325.5,280.6,325.5z"/>
		<path class="st10" d="M283.5,330.6C283.5,330.6,283.5,330.6,283.5,330.6c0.1-0.1,0.1-0.2,0.1-0.2c0,0,0,0,0,0.1
			C283.6,330.5,283.5,330.5,283.5,330.6z"/>
		<path class="st10" d="M282.6,334.9c0-0.2,0-0.4,0.1-0.6C282.6,334.9,282.6,335,282.6,334.9z"/>
		<path class="st10" d="M286.7,321.8c0.1-0.1,0.2-0.3,0.3-0.4c0-0.3,0-0.6,0.1-0.9C286.9,320.9,286.8,321.3,286.7,321.8z"/>
		<path class="st10" d="M288.1,317.7c0,0.1,0,0.2,0,0.3c0,0,0,0,0,0c0.1-0.2,0.2-0.5,0.3-0.7c-0.1,0.1-0.2,0.2-0.3,0.3
			C288.1,317.5,288.1,317.6,288.1,317.7z"/>
		<path class="st10" d="M273.5,367c0.2,0.3,0.4,0.5,0.5,0.8c0.3,0.1,0.7,0.2,1,0.4C274.5,367.8,274,367.4,273.5,367z"/>
		<path class="st10" d="M278.1,334.2c-0.2,0.3-0.4,0.5-0.6,0.8c0,0.3-0.1,0.7-0.1,1C277.6,335.4,277.9,334.8,278.1,334.2z"/>
		<path class="st10" d="M269.7,357.2c0.2-0.6,0.5-1.2,0.7-1.8c-0.2,0.3-0.5,0.6-0.7,0.9C269.7,356.6,269.7,356.9,269.7,357.2z"/>
		<path class="st10" d="M280.8,339.1c0,0.1,0,0.1,0,0.2C280.8,339.2,280.8,339.2,280.8,339.1c0.1-0.1,0.2-0.3,0.3-0.5
			c-0.1,0.1-0.2,0.2-0.3,0.4C280.8,339,280.8,339,280.8,339.1z"/>
		<path class="st10" d="M268.4,360.5c-0.1,0.1-0.2,0.3-0.3,0.4c0,0.3,0,0.6-0.1,0.9C268.2,361.4,268.3,360.9,268.4,360.5z"/>
		<path class="st10" d="M274.3,342.3C274.3,342.3,274.3,342.3,274.3,342.3c0,0.1,0,0.1-0.1,0.1C274,343.1,274.6,341.7,274.3,342.3z"
			/>
		<path class="st10" d="M276,339.2c-0.1,0.1-0.2,0.3-0.3,0.4c0,0.3,0,0.6,0,0.9C275.8,340.1,275.9,339.6,276,339.2z"/>
		<path class="st10" d="M271.7,352.4c-0.2,0.2-0.5,0.5-0.7,0.8c0,0.3,0,0.7,0,1C271.2,353.6,271.4,353,271.7,352.4z"/>
		<path class="st10" d="M272.3,348.5C272.3,348.5,272.2,348.5,272.3,348.5C272.2,348.5,272.2,348.5,272.3,348.5
			C272.1,349.3,272.7,347.9,272.3,348.5z"/>
	</g>
	<path style="clip-path:url(#SVGID_2_);fill:#FFCFBA;" d="M308,230c-0.1-0.9-0.4-0.9-0.4-1.7c-0.1-0.9,0-0.9,0-1.8
		c-0.1-0.9,0.3-0.9,0.3-1.8c-0.1-0.9-0.5-0.8-0.6-1.7c-0.1-0.9,0.4-0.9,0.4-1.8c-0.1-0.9-0.7-0.8-0.7-1.7c-0.1-0.9,0-0.9-0.1-1.7
		c-0.1-0.9,0.6-0.9,0.6-1.8c-0.1-0.9-0.8-0.8-0.9-1.7c-0.1-0.9,0.1-0.9,0-1.8c-0.1-0.9,0.3-0.9,0.3-1.8c-0.1-0.9-0.5-0.8-0.6-1.7
		c-0.1-0.9,0.3-0.9,0.2-1.8c-0.1-0.9,0-0.9-0.1-1.7c-0.1-0.9-0.6-0.8-0.6-1.7c-0.1-0.9,0.4-0.9,0.4-1.8c-0.1-0.9,0.1-0.9,0-1.8
		c-0.1-0.9,0.2-1-0.1-1.8c-0.6,0-1.3,0.1-1.9,0.1c-0.6,0.1-1.1,0.5-1.7,0.6c-0.6,0.1-1.1,0.4-1.7,0.5c-0.6,0.2-1.3-0.1-1.8,0.1
		c-0.6,0.2-1.1,0.5-1.6,0.8c-0.5,0.3-1.2,0.3-1.7,0.7c-0.5,0.3-0.8,0.9-1.3,1.3c-0.5,0.4-0.7,0.9-1.2,1.4c-0.4,0.4-0.8,0.9-1.1,1.4
		c-0.4,0.5-0.6,1-0.9,1.5c-0.3,0.5-0.4,1.1-0.7,1.6c-0.2,0.5-0.6,1-0.8,1.6c-0.2,0.6-0.9,1-1,1.6c-0.1,0.6,0.1,1.2,0,1.8
		c-0.1,0.6-0.6,1.1-0.6,1.7c0,0.6,0.6,1.2,0.6,1.8c0,0.6-0.3,1.2-0.2,1.7c0.1,0.6,0.5,1.1,0.7,1.6c0.2,0.6,0.3,1.1,0.6,1.6
		c0.2,0.5,0.7,0.9,1,1.4c0.3,0.5,0.5,1.1,0.8,1.5c0.4,0.5,0.5,1.1,0.9,1.5c0.4,0.4,0.9,0.8,1.3,1.2c0.4,0.4,0.7,1,1.2,1.4
		c0.5,0.3,1.4,0,1.9,0.4c0.5,0.3,0.6,1.3,1.1,1.6c0.5,0.3,1.1,0.4,1.7,0.6c0.5,0.2,1,0.7,1.6,0.9c0.6,0.2,1.4-0.5,1.9-0.3
		c0.6,0.2,1.1,0.5,1.6,0.7c0.6,0.1,1.1,0.5,1.7,0.6c0.6,0.1,1.1-0.1,1.7-0.1c0.2-0.8,0.2-0.9,0.1-1.7C308,230.9,308.1,230.9,308,230
		z"/>
	<path style="clip-path:url(#SVGID_2_);fill:#FFCFBA;" d="M412.8,215.1c-0.1-0.6,0.2-1.3,0.1-1.8c-0.1-0.6-0.7-1.1-0.9-1.6
		c-0.2-0.6,0.1-1.3-0.2-1.9c-0.3-0.5-0.4-1.2-0.7-1.7c-0.3-0.5-0.8-0.9-1.2-1.4c-0.4-0.5-0.9-0.8-1.4-1.2c-0.5-0.4-1-0.7-1.5-1.1
		c-0.5-0.3-1.1-0.4-1.7-0.7c-0.5-0.3-1.2-0.2-1.7-0.4c-0.6-0.2-1-0.7-1.6-0.8c-0.6-0.1-1.2-0.2-1.8-0.3c-0.6-0.1-1.1-0.6-1.7-0.7
		c-0.6,0-1.5,0.3-2.1,0.3c-0.3,0.8,0.3,1,0.3,1.9c0,0.9,0.1,0.9,0.1,1.8c0,0.9,0,0.9,0,1.8c0,0.9-0.1,0.9-0.1,1.8
		c0,0.9-0.5,0.9-0.5,1.8c0,0.9,0.5,0.9,0.5,1.8c0,0.9,0,0.9,0,1.8c0,0.9-0.4,0.9-0.3,1.8c0,0.9,0.5,0.9,0.5,1.8
		c0,0.9-0.4,0.9-0.4,1.8c0,0.9-0.1,0.9-0.1,1.8c0,0.9,0.8,0.9,0.8,1.8c0,0.9-0.7,0.9-0.7,1.8c0,0.9,0,0.9,0,1.8
		c0,0.9,0.6,0.9,0.6,1.8c0,0.9-0.5,0.9-0.5,1.8c0,0.9,0.4,0.9,0.4,1.8c0,0.9-0.2,0.9-0.4,1.8c-0.1,0.9-0.3,1,0,1.8
		c0.6,0,1.2-0.2,1.8-0.3c0.6-0.1,1.2,0.1,1.8,0c0.6-0.1,1.2-0.1,1.8-0.3c0.5-0.2,0.7-1.2,1.2-1.5c0.5-0.3,1.1-0.3,1.6-0.7
		c0.5-0.3,0.8-0.8,1.3-1.2c0.5-0.4,1.4-0.1,1.8-0.5c0.4-0.4,0.3-1.4,0.6-1.8c0.4-0.4,1-0.7,1.3-1.1c0.3-0.5,0.6-1,0.9-1.5
		c0.3-0.5,0.9-0.9,1.1-1.4c0.2-0.5,0.7-1,0.8-1.6c0.2-0.6,0.1-1.2,0.2-1.8c0.1-0.6,0.3-1.2,0.4-1.7c0.1-0.6-0.2-1.2-0.2-1.8
		c0-0.6,0.3-1.2,0.3-1.8C413.6,216.2,412.9,215.6,412.8,215.1z"/>
	<path style="clip-path:url(#SVGID_2_);fill:#FFCFBA;" d="M398.2,193.1c0-0.9-0.2-0.9-0.2-1.8c0-0.9-0.5-0.9-0.5-1.8
		c0-0.9,0.5-0.9,0.5-1.8c0-0.9-0.1-0.9-0.1-1.8c0-0.9-0.3-0.9-0.3-1.8c0-0.9,0.5-0.9,0.5-1.8c0-0.9-0.2-0.9-0.2-1.8
		c0-0.9,0-0.8-0.2-1.7c-0.5-0.4-0.9-0.6-1.3-1c-0.4-0.5-0.1-1.4-0.4-1.9c-0.3-0.5-1.1-0.9-1.2-1.4c-0.1-0.6,0.6-1.3,0.6-1.9
		c0-0.6-0.3-1.1-0.3-1.7c0-0.6,0.1-1.1,0.2-1.7c0.1-0.6-0.5-1.3-0.4-1.8c0.1-0.6,1.1-1,1.2-1.5c0.1-0.6-0.3-1.3-0.2-1.8
		c0.1-0.6,0.6-1.1,0.7-1.6c0.1-0.6-0.2-1.2-0.2-1.8c0.1-0.6,0.1-1.1,0.1-1.7c0-0.6,0.5-1.1,0.5-1.7c0-0.6-0.4-1.1-0.5-1.7
		c-0.1-0.6,0.2-1.2,0-1.8c-0.2-0.6-0.4-0.7-0.7-1.2c0,0.6,0.1,0.8,0.1,1.4c-0.1,0.6-0.8,1-1,1.5c-0.2,0.5-0.4,1-0.8,1.5
		c-0.3,0.5-0.5,1-0.9,1.4c-0.4,0.4-0.5,1.2-0.9,1.6c-0.4,0.4-1.1,0.4-1.6,0.8c-0.5,0.3-0.8,0.9-1.3,1.2c-0.5,0.3-1.3,0-1.8,0.3
		c-0.5,0.2-0.8,1-1.3,1.2c-0.5,0.2-1.1,0.3-1.6,0.5c-0.5,0.2-1.1,0.2-1.7,0.4c-0.5,0.2-1.1,0.2-1.7,0.4c-0.5,0.2-1.2-0.2-1.8,0
		c-0.5,0.1-1,0.6-1.6,0.8c-0.6,0.1-1.1,0.1-1.7,0.3c-0.6,0.1-1.1,0.5-1.6,0.6c-0.6,0.1-1.1,0.4-1.6,0.5c-0.6,0.1-1.3-0.5-1.8-0.4
		c-0.6,0.1-1.1,0.6-1.6,0.7c-0.6,0.1-1.2-0.1-1.7,0c-0.6,0.1-1.1,0.6-1.6,0.7c-0.6,0.1-1.1,0.5-1.6,0.6c-0.6,0.1-1.2,0.1-1.7,0.2
		c-0.6,0.1-1.2,0.1-1.7,0.2c-0.6,0.1-1.2-0.3-1.8-0.2c-0.6,0.1-1.1,0.5-1.6,0.6c-0.6,0.1-1.1,0.6-1.6,0.7c-0.6,0.1-1.2,0-1.7,0.1
		c-0.6,0.1-1.1,0.5-1.7,0.6c-0.6,0.1-1.2-0.3-1.8-0.2c-0.6,0.1-1.1,0.6-1.7,0.6c-0.6,0.1-1.2-0.6-1.8-0.6c-0.6,0.1-1.2,0-1.7,0.1
		c-0.6,0-1.1,0.7-1.7,0.7c-0.6,0-1.2-0.4-1.7-0.3c-0.6,0-1.1,0.4-1.7,0.4c-0.6,0-1.1,0.2-1.7,0.2c-0.6,0-1.1,0-1.7-0.1
		c-0.6,0-1.1,0-1.7,0c-0.6,0-1.1,0-1.7-0.1c-0.6,0-1.1-0.6-1.7-0.7c-0.6,0-1.2,0.4-1.7,0.4c-0.6,0-1.1-0.4-1.7-0.4
		c-0.6,0-1.2,0.2-1.7,0.2c-0.6,0-1.1,0-1.7,0c-0.6,0-1.1-0.2-1.7-0.2c-0.4,0.2-1.1,0-1.8,0.3c-0.5,0.2-0.7,1.2-1.3,1.5
		c-0.5,0.2-1.4-0.1-1.9,0.1c-0.5,0.2-0.9,0.9-1.5,1.1c-0.6,0.2-1,0.7-1.6,0.9c-0.6,0.2-1.3,0.1-1.8,0.4c-0.6,0.3-1.2,0.3-1.7,0.6
		c-0.7,0.3-0.9,1.2-1.3,1.5c-0.3,0.2-0.7,0.4-1,1.1c-0.2,0.5-0.7,0.9-0.9,1.5c-0.2,0.5,0.1,1.2-0.1,1.8c-0.2,0.5-1.1,0.8-1.3,1.4
		c-0.2,0.5,0.2,1.3,0,1.9c-0.2,0.6-0.7,1-0.9,1.5c-0.2,0.6-0.1,1.3-0.4,1.7c-0.3,0.6-1.2,0.8-1.4,1.2c-0.4,0.7-1,1.1-1.4,1.1
		c-0.2,0.9,0.4,0.9,0.5,1.8c0,0.9-0.4,0.9-0.3,1.8c0,0.9,0.6,0.9,0.6,1.7c0,0.9-0.1,0.9-0.1,1.8c0,0.9,0.4,0.9,0.4,1.7
		c0,0.9-0.8,0.9-0.7,1.8c0,0.9,0.4,0.9,0.4,1.7c0,0.9,0.4,0.9,0.4,1.7c0,0.9-0.8,0.9-0.8,1.8c0,0.9,0.2,0.9,0.2,1.8
		c0,0.9,0,0.9,0,1.8c0,0.9,0.2,0.9,0.2,1.8c0,0.9,0.2,0.9,0.2,1.8c0,0.9,0.4,0.9,0.4,1.7c0,0.9-0.5,0.9-0.5,1.8
		c0,0.9,0.5,0.9,0.6,1.7c0,0.9-0.4,0.9-0.4,1.8c0,0.9,0.6,0.9,0.6,1.7c0,0.9-0.6,0.9-0.5,1.8c0,0.9,0.1,0.9,0.1,1.8
		c0,0.9,0.3,0.9,0.4,1.7c0,0.9-0.2,0.9-0.2,1.8c0,0.9,0.2,0.9,0.2,1.8c0,0.9-0.4,0.9-0.4,1.8c0,0.9,0.4,0.9,0.4,1.8
		c0,0.6,0.5,1.1,0.6,1.7c0,0.6-0.7,1.2-0.6,1.8c0,0.6,0.7,1.1,0.8,1.7c0.1,0.6,0.2,1.1,0.3,1.7c0.1,0.6-0.3,1.2-0.2,1.8
		c0.1,0.6,0,1.2,0.1,1.8c0.1,0.6,0.9,1,1,1.5c0.1,0.6,0.3,1.1,0.4,1.7c0.2,0.6,0.5,1.1,0.7,1.6c0.2,0.6-0.4,1.4-0.2,1.9
		c0.2,0.5,0.8,0.9,1,1.5c0.2,0.5,0.3,1.2,0.5,1.7c0.2,0.5,0.4,1.1,0.6,1.7c0.3,0.5,1.3,0.6,1.6,1.1c0.3,0.5,0,1.3,0.3,1.8
		c0.3,0.5,1.1,0.7,1.4,1.2c0.3,0.5,0.6,1,0.9,1.5c0.3,0.5,0.2,1.3,0.6,1.7c0.4,0.5,0.9,0.7,1.3,1.2c0.4,0.4,0.9,0.7,1.3,1.2
		c0.4,0.4,0.7,1,1.1,1.4c0.4,0.4,0.7,1,1.1,1.4c0.4,0.4,0.9,0.7,1.4,1.1c0.4,0.4,0.7,1,1.1,1.4c0.4,0.4,1.3,0.2,1.8,0.5
		c0.5,0.4,0.6,1.1,1.1,1.4c0.5,0.3,1.2,0.3,1.7,0.6c0.5,0.3,0.8,1,1.3,1.3c0.5,0.3,1.1,0.5,1.6,0.8c0.5,0.3,1.1,0.4,1.6,0.6
		c0.5,0.3,1.1,0.4,1.6,0.7c0.5,0.2,1,0.6,1.5,0.9c0.5,0.2,1,0.6,1.6,0.8c0.5,0.2,1.1,0.4,1.7,0.6c0.6,0.2,1.2,0.2,1.7,0.3
		c0.6,0.2,1.1,0.5,1.6,0.7c0.6,0.1,1.3-0.3,1.8-0.2c0.6,0.1,1.1,0.6,1.6,0.7c0.6,0.1,1.1,0.5,1.7,0.6c0.6,0.1,1.2-0.1,1.8-0.1
		c0.6,0,1.2,0.3,1.7,0.3c0.6,0,1.2-0.2,1.8-0.2c0.6,0,1.2,0.2,1.8,0.2c0.6,0,1.1-0.5,1.7-0.5c0.6,0,1.1-0.4,1.7-0.4
		c0.6-0.1,1.1-0.1,1.7-0.2c0.6-0.1,1.2,0.1,1.8,0c0.6-0.1,1.1-0.6,1.6-0.7c0.6-0.1,1.2,0.1,1.8-0.1c0.6-0.2,1-0.6,1.6-0.8
		c0.6-0.2,1.1-0.4,1.6-0.6c0.5-0.2,1.3,0.1,1.8-0.1c0.5-0.2,0.7-1.2,1.3-1.4c0.5-0.2,1.3,0.1,1.9-0.2c0.5-0.3,1-0.6,1.5-0.9
		c0.5-0.3,0.9-0.7,1.4-1c0.5-0.3,0.8-0.9,1.3-1.3c0.5-0.3,1.2-0.3,1.7-0.6c0.5-0.3,1.1-0.5,1.5-0.9c0.5-0.4,0.6-1.1,1.1-1.5
		c0.4-0.4,0.6-1,1-1.4c0.4-0.4,1.5-0.1,1.9-0.5c0.4-0.4,0.7-0.9,1.1-1.3c0.4-0.4,0.6-1.1,1-1.5c0.4-0.4,0.9-0.8,1.3-1.2
		c0.4-0.5,0.2-1.3,0.5-1.8c0.3-0.5,1.2-0.5,1.6-1c0.3-0.5,0.7-1,1-1.5c0.3-0.5,0.2-1.3,0.5-1.8c0.3-0.5,0.8-0.9,1.1-1.4
		c0.3-0.5,0.2-1.2,0.5-1.7c0.3-0.5,1.1-0.8,1.4-1.3c0.2-0.5,0-1.3,0.2-1.8c0.2-0.5,0.9-0.9,1.1-1.4c0.2-0.5,0.3-1.1,0.5-1.7
		c0.2-0.6,0.6-1,0.8-1.6c0.2-0.6-0.2-1.3-0.1-1.8c0.1-0.6,0.8-1,0.9-1.6c0.1-0.6,0.2-1.2,0.3-1.7c0.1-0.6,0.2-1.2,0.3-1.7
		c0.1-0.6,0.2-1.2,0.3-1.7c0.1-0.6-0.4-1.2-0.3-1.8c0-0.6,0-1.2,0-1.7c0-0.6-0.1-1.2-0.1-1.7c0-0.9,0.4-0.9,0.4-1.8
		c0-0.9-0.6-0.9-0.5-1.8c0-0.9,0.2-0.9,0.2-1.8c0-0.9,0.2-0.9,0.2-1.8c0-0.9,0-0.9,0-1.8c0-0.9,0.3-0.9,0.3-1.8
		c0-0.9-0.3-0.9-0.3-1.8c0-0.9,0.5-0.9,0.5-1.8c0-0.9-0.1-0.9-0.1-1.8c0-0.9-0.2-0.9-0.2-1.8c0-0.9-0.3-0.9-0.3-1.8
		c0-0.9,0.5-0.9,0.5-1.7c0-0.9-0.6-0.9-0.6-1.8c0-0.9,0.1-0.9,0.1-1.8c0-0.9,0.4-0.9,0.4-1.8c0-0.9-0.4-0.9-0.3-1.8
		c0-0.9,0.1-0.9,0.1-1.8c0-0.9,0.6-0.9,0.6-1.8c0-0.9-0.5-0.9-0.5-1.8c0-0.9,0.7-0.9,0.7-1.7c0-0.9-0.4-0.9-0.4-1.8
		c0-0.9,0.2-0.9,0.2-1.8C397.9,194,398.2,194,398.2,193.1z"/>
	<polygon style="clip-path:url(#SVGID_2_);fill:#505050;" points="402.7,164.1 402.4,162.4 401.5,161 400.8,159.5 401,157.7 
		400.1,156.3 399.2,154.8 398.4,153.4 398.1,151.8 397.5,150.2 396.6,148.9 395.1,147.9 394.5,146.3 393.3,145.2 391.8,144.4 
		390.8,143 389.9,141.7 388.3,141 387.2,139.7 385.4,139.6 384.1,138.5 382.4,138 380.8,138.4 379.2,138.6 378.4,137 378.1,135.1 
		377,133.8 375.4,133.1 374.2,131.9 373,130.9 371.9,129.8 370.8,128.5 369,128.4 367.8,127.3 366.4,126.4 364.7,126.2 363.3,125.4 
		361.7,124.9 360.1,124.9 358.5,124.8 356.9,124.8 355.3,124.4 353.7,124 352.1,123.9 350.5,123.8 348.9,124 347.3,124.7 
		345.7,124.7 344,124.5 342.5,125.3 340.9,125.3 339.4,125.9 337.7,126 336.3,126.9 334.6,126.9 333.3,128 331.8,128.5 330.2,128.9 
		328.9,129.8 327.3,130.3 325.8,131 324.6,132 323.1,132.7 322.1,134.1 320.8,134.9 319.6,136 318.4,137.1 316.9,137.8 315.7,138.8 
		314.7,140.2 313.6,141.3 311.9,141.9 311.1,143.4 310.3,144.8 308.7,145.6 307.7,146.8 306.9,148.3 306.1,149.6 305,150.9 
		304.7,152.6 304,154 302.6,155.1 302.2,156.7 301.9,158.3 300.9,159.7 300.4,161.2 299.7,162.6 299.8,164.4 299.1,165.8 
		298.6,167.4 298.3,169 298.1,170.6 298.6,172.3 298.5,173.9 298.6,175.5 298.4,177.1 298.3,178.7 298.7,180.2 298.7,181.8 
		298.8,183.5 298.9,185.1 298.8,186.7 299.8,188.1 300.3,189.7 300.6,191.2 301.2,192.7 301.1,194.5 301.5,196 302.7,197.7 
		303.1,195.9 304.1,194.5 304.7,192.8 305.6,191.4 306.5,190 307.3,188.5 308.4,187.1 308.9,185.4 310.3,184.3 310.8,182.6 
		312.3,182.8 314,182.4 315.6,182.5 317.2,183.2 318.8,183.2 320.4,182.7 322,183.4 323.7,182.8 325.3,182.7 326.9,183.3 
		328.5,183.1 330.1,183.7 331.8,182.8 333.4,183.7 335,183.1 336.6,183.1 338.2,183.6 339.8,183.5 341.5,183.4 343.1,183.4 
		344.7,183 346.3,183.7 347.9,183.1 349.5,183 351.2,183.5 352.8,183.7 354.4,183.2 356,183.2 357.7,183.6 359.3,183.4 360.9,183.5 
		362.5,183.3 364.1,182.9 365.8,183.3 367.4,183.7 369,183.6 370.6,183 372.2,182.8 373.8,182.7 375.5,183.1 377,182.3 378.7,182.6 
		380.2,181.8 382,182 383.2,180.8 384.4,179.6 385.2,178.2 386.2,176.9 386.9,175.5 387.7,174.1 388.8,172.8 388.8,171 389.7,169.6 
		390.4,168.1 390.2,166.4 390.7,164.8 391,163.2 391.5,161.6 391.6,160.5 391.6,160 391.6,158.3 391.7,160 391.6,160.5 391.8,161.6 
		392.4,163.1 392.6,164.7 392.6,166.4 393.7,167.8 393.8,169.4 393.8,171.1 393.9,172.7 394.4,174.3 394.6,175.9 394.9,177.5 
		395.5,179 395.5,180.6 395.4,182.3 395.7,183.9 396.7,185.4 396.5,187 396.6,188.7 397.1,190.2 397.4,191.8 398,193.3 398.2,195 
		397.8,196.7 398.6,198.2 398.9,196.6 399.3,195 399.5,193.3 400.4,191.9 401,190.3 401.5,188.7 401.5,187 401.6,185.4 401.6,183.7 
		402.2,182.1 402.8,180.5 402.6,178.8 402.7,177.2 402.9,175.6 403.1,173.9 403.1,172.3 403.1,170.7 402.9,169 402.9,167.4 
		403.2,165.7 	"/>
	<polygon style="clip-path:url(#SVGID_2_);fill:#505050;" points="391.6,158.3 391.6,160 391.6,160.5 391.7,160 	"/>
	<path style="clip-path:url(#SVGID_2_);fill:#505050;" d="M373.1,204c-0.3-0.5-0.3-1.3-0.9-1.6c-0.5-0.3-1.1-0.2-1.8-0.2
		c-0.6,0-1.4-0.4-2-0.1c-0.5,0.3-0.6,1.2-0.9,1.8c-0.3,0.5-1,1-1,1.6c0,0.6,0.7,1.1,1,1.7c0.3,0.5,0.7,0.8,1.2,1.1
		c0.5,0.3,1,0.8,1.6,0.8c0.6,0,1.5,0.1,2-0.2c0.5-0.3,1-1,1.3-1.6c0.3-0.5-0.2-1.2-0.2-1.9S373.4,204.5,373.1,204z"/>
	<path style="clip-path:url(#SVGID_2_);fill:#505050;" d="M335.7,202.8c-0.5-0.3-1.1-0.4-1.7-0.4c-0.6,0-1.3-0.1-1.8,0.2
		c-0.5,0.3-1.2,0.7-1.5,1.2c-0.3,0.5-0.1,1.3-0.1,1.9c0,0.6,0.1,1.2,0.4,1.7c0.3,0.5,0.9,0.8,1.4,1.1c0.5,0.3,1,1.1,1.6,1.1
		c0.6,0,1.4-0.3,1.9-0.6c0.5-0.3,0.6-1.1,0.9-1.7c0.3-0.5,1-1,1-1.6c0-0.6-0.7-1.1-0.9-1.6C336.5,203.6,336.2,203.1,335.7,202.8z"/>
	<g class="st6">
		<path class="st23" d="M344.9,245.1C344.7,245,345.1,245.3,344.9,245.1L344.9,245.1z"/>
		<path class="st23" d="M351.6,248.5c0.1-0.1,0.1-0.1,0.2-0.2c-0.2,0-0.3,0-0.5,0c-1.2,0,2,1.4,1.2,0.5c-0.1-0.1-0.2-0.2-0.3-0.3
			c-0.1,0-0.2,0-0.3,0C351.3,248.7,351.2,248.7,351.6,248.5z"/>
		<path class="st23" d="M352.1,248.4C352.1,248.4,352,248.4,352.1,248.4c-0.1-0.1-0.1-0.1-0.1-0.1c-0.1,0-0.1,0.1-0.2,0.1
			C351.9,248.4,352,248.4,352.1,248.4z"/>
		<path class="st23" d="M351.6,248.5c-0.4,0.2-0.3,0.2,0.3,0c0.1,0,0.2,0,0.3,0c0,0-0.1-0.1-0.1-0.1c-0.1,0-0.2,0-0.3,0
			C351.7,248.4,351.6,248.5,351.6,248.5z"/>
		<path class="st23" d="M359.1,246.5c0.1-0.2,0.3-0.3,0.4-0.4c-0.1,0.1-0.3,0.2-0.4,0.3C359.1,246.4,359.1,246.5,359.1,246.5
			C359,246.6,358.9,246.7,359.1,246.5z"/>
		<path class="st23" d="M362.6,244C362.5,244.1,362.5,244.1,362.6,244C362.1,244.4,363.1,244,362.6,244z"/>
		<path class="st23" d="M357.3,247.6c0.6-0.1,1.2-0.1,1.8-0.2c-0.2-0.1-0.5-0.1-0.7-0.2c-0.1,0-0.2,0-0.3,0
			c-0.1,0.1-0.2,0.1-0.3,0.2C357.6,247.4,357.5,247.5,357.3,247.6z"/>
		<path class="st23" d="M352.1,248.4C352.1,248.4,352.1,248.4,352.1,248.4C352.1,248.4,352.1,248.5,352.1,248.4
			C352.5,248.4,352.5,248.4,352.1,248.4z"/>
		<path class="st23" d="M362.6,244C363.1,244,362.1,244.4,362.6,244C362.5,244.1,362.5,244.1,362.6,244c0,0-0.1,0-0.1,0
			c-0.2,0-0.5,0.1-0.7,0.2c-1.1,0.4-1.8,1-2.4,2c0,0.1-0.1,0.2-0.2,0.3c0,0,0,0,0.1,0c0.1-0.1,0.3-0.2,0.4-0.3
			c-0.2,0.1-0.3,0.3-0.4,0.4c-0.2,0.2-0.2,0.1,0-0.1c-0.3,0.2-0.7,0.5-1.1,0.7c0.1,0,0.2,0,0.3,0c0.2,0,0.6,0.1,0.7,0.2
			c-0.6,0.1-1.2,0.1-1.8,0.2c0.2-0.1,0.3-0.2,0.5-0.3c0.1-0.1,0.2-0.1,0.3-0.2c-0.9-0.1-1.7,0-2.5,0.2c-0.6,0.1-1.2,0.3-1.8,0.4
			c-0.5,0.2-1.3,0.2-1.8,0.5c0,0,0.1,0,0.1,0.1c0,0,0,0,0.1,0.1c0,0,0,0,0,0c0.4,0,0.4,0,0,0.1c0.1,0.1,0.2,0.2,0.3,0.3
			c0.8,0.9-2.4-0.5-1.2-0.5c0.1,0,0.3,0,0.5,0c0,0,0.1-0.1,0.2-0.1c-1.3-1-2.9-1.1-4.4-1.7c-0.3-0.1-0.5-0.2-0.8-0.3
			c-0.1,0-0.2-0.1-0.4-0.1c-0.2-0.1-0.2-0.1,0.2,0.1c-0.3,0.1-1.3-0.9-1.6-1.1c-0.1,0-0.1-0.1-0.1-0.1c0.2,0.1-0.2-0.2,0,0
			c0,0-0.1-0.1-0.2-0.1c-0.6-0.5-0.9-0.7-1.6-1c-0.2-0.1-0.4-0.1-0.6-0.1c-0.1,0-0.2,0-0.3,0c0,0,0.1,0.1,0.1,0.1
			c0.3,0.2,0.2,0.2-0.3-0.1c-0.7-0.1-0.7-0.1,0,0c0,0,0,0,0,0c0,0,0.1,0,0.2,0c-1.4-0.9-3.7-0.2-4.5,1.3c-0.9,1.8-0.3,3.5,1.2,4.6
			c0.4,0.3,0.9,0.5,1.3,0.6c0.2,0,0.3,0,0.5,0.1c-0.2-0.1-0.4-0.3-0.6-0.4c0.6,0.3,1,0.5,1,0.5c0.1,0,0.1,0,0.2,0
			c-0.1,0-0.1,0-0.2,0c0,0-0.1,0-0.3,0c0.1,0,0.2,0,0.3,0c0,0,0,0,0,0c-0.1,0-0.3,0-0.4-0.1c0.1,0.1,0.2,0.2,0.4,0.3
			c0.3,0.2,0.5,0.4,0.8,0.5c1.2,0.9,2.5,1.4,3.9,1.9c0.7,0.2,1.4,0.4,2.1,0.6c0,0,0,0,0,0c-0.1-0.1-0.2-0.2-0.3-0.3
			c-0.4-0.4-0.1-0.3,0.9,0.5c-0.2,0-0.4-0.1-0.6-0.1c0,0,0.1,0.1,0.1,0.1c1.4,1.3,3.8,1.7,5.6,1.2c0.4-0.1,0.9-0.3,1.3-0.5
			c0,0,0,0,0.1,0c-0.1,0-0.1,0-0.2,0c0.4-0.2,0.4-0.2,0.2,0c0.1,0,0.2,0,0.3-0.1c0.6-0.2,1.2-0.4,1.9-0.5c0.1,0,0.2,0,0.2,0
			c-0.1,0-0.2-0.1-0.4-0.1c-0.6-0.1-0.3-0.2,1-0.1c-0.2,0.1-0.4,0.1-0.7,0.2c0,0,0,0,0.1,0c1.2,0.3,2.3,0.1,3.4-0.5
			c1.2-0.6,2.6-1.5,3.5-2.4c0.1-0.1,0.2-0.3,0.4-0.4c-0.2,0.1-0.5,0.1-0.7,0.1c-0.4,0,1.8-1.9,1.1-0.7c-0.1,0.2-0.3,0.4-0.4,0.6
			c0.5-0.1,1-0.3,1.3-0.6c1.4-1,2.3-3,1.2-4.6C366.2,243.9,364.1,243,362.6,244z"/>
		<path class="st23" d="M356.9,253.8c0.1,0,0.2,0.1,0.4,0.1c0.2,0,0.5-0.1,0.7-0.2C356.6,253.6,356.3,253.6,356.9,253.8z"/>
		<path class="st23" d="M342.3,243.9c0,0-0.1-0.1-0.1-0.1c-0.1,0-0.1,0-0.2,0C342.5,244.1,342.6,244.1,342.3,243.9z"/>
		<path class="st23" d="M354.6,254.5c0.1,0,0.1,0,0.2,0C355.1,254.3,355,254.3,354.6,254.5z"/>
		<path class="st23" d="M363.8,250.7c0.2,0,0.5,0,0.7-0.1c0.1-0.2,0.3-0.4,0.4-0.6C365.7,248.8,363.4,250.7,363.8,250.7z"/>
		<path class="st23" d="M340.2,250c0.2,0.1,0.4,0.3,0.6,0.4c0.1,0,0.3,0,0.4,0.1C341.2,250.4,340.8,250.3,340.2,250z"/>
		<path class="st23" d="M347.5,253.4c0.1,0.1,0.2,0.2,0.3,0.3c0.2,0,0.4,0.1,0.6,0.1C347.4,253.1,347.1,253,347.5,253.4z"/>
		<path class="st23" d="M341.2,250.5c-0.1,0-0.2,0-0.3,0C341.1,250.5,341.2,250.5,341.2,250.5z"/>
	</g>
	<g class="st6">
		<path class="st23" d="M357.5,226.6c-0.2-0.2-0.5-0.4-0.7-0.5c-0.5-0.3-1.1-0.5-1.7-0.5c-0.5,0-1,0.1-1.6,0.1c-0.5,0-1-0.1-1.6-0.1
			c-0.5,0-0.9,0.1-1.3,0.3c-0.4,0.1-0.8,0.4-1.1,0.7c-0.3,0.3-0.6,0.7-0.7,1.1c-0.2,0.4-0.3,0.8-0.3,1.3c0,0.3,0.1,0.6,0.1,0.9
			c0.2,0.6,0.5,1.1,0.9,1.5c0.2,0.2,0.5,0.4,0.7,0.5c0.5,0.3,1.1,0.5,1.7,0.5c0.5,0,1,0.1,1.6,0.1c0.5,0,1-0.1,1.6-0.1
			c0.5,0,0.9-0.1,1.3-0.3c0.4-0.1,0.8-0.4,1.1-0.7c0.3-0.3,0.6-0.7,0.7-1.1c0.2-0.4,0.3-0.8,0.3-1.3c0-0.3-0.1-0.6-0.1-0.9
			C358.2,227.5,357.9,227,357.5,226.6z"/>
	</g>
</g>
</svg>
