<?xml version="1.0" encoding="utf-8"?>
<!-- Generator: Adobe Illustrator 24.1.3, SVG Export Plug-In . SVG Version: 6.00 Build 0)  -->
<svg version="1.1" id="レイヤー_1" xmlns="http://www.w3.org/2000/svg" xmlns:xlink="http://www.w3.org/1999/xlink" x="0px"
	 y="0px" viewBox="0 0 1440 1440" style="enable-background:new 0 0 1440 1440;" xml:space="preserve">
<style type="text/css">
	.st0{enable-background:new    ;}
	.st1{fill:#FFFFFF;}
</style>
<g class="st0">
	<path class="st1" d="M1148.4,1290.3c0,1.3,0,3,0,4.4c0,1.4,0.1,2.6,0.1,2.9c0,0.9-0.2,1-1.2,1h-1.4c-1,0-1.2-0.2-1.2-1
		c0-0.2,0-1.3,0.1-2.7c0-1.5,0-3.3,0-4.6v-12.2c0-2.4-0.1-6.8-0.1-7.1c0-0.9,0.3-1.2,1.2-1.2c0.3,0,3.4,0.1,5.3,0.1h2.9
		c5.2,0,8.8,2,8.8,7.7c0,3.9-1.9,6.8-5.4,8.4c-0.5,0.2-0.8,0.4-0.8,0.7c0,0.2,0.1,0.4,0.4,0.8l1.4,1.7c2.1,2.7,3.9,4.9,6.7,8.2
		c0.2,0.3,0.3,0.5,0.3,0.7c0,0.3-0.3,0.4-1,0.4h-2.2c-1.1,0-1.4-0.2-2-1.1c-1.7-2.5-3.4-4.7-5.1-6.9l-1.9-2.5c-0.6-0.8-1-1-2-1h-1.7
		c-1,0-1.2,0.2-1.2,1.2V1290.3z M1148.4,1282.7c0,1,0.2,1.2,1.2,1.2h3c3.4,0,6.6-1.4,6.6-5.9c0-4.2-2.7-4.9-5.4-4.9h-4.2
		c-1,0-1.2,0.2-1.2,1.2V1282.7z"/>
	<path class="st1" d="M1196.1,1283.8c0,9.5-6.8,15-14.5,15c-8.4,0-13.7-6.3-13.7-14.3c0-8.8,5.8-14.9,14.4-14.9
		C1190.7,1269.6,1196.1,1275.8,1196.1,1283.8z M1171.7,1284.5c0,6.3,4,10.9,10.1,10.9c5.8,0,10.6-4.3,10.6-11.4
		c0-6.3-4.1-10.7-10.1-10.7C1175.8,1273.2,1171.7,1278.2,1171.7,1284.5z"/>
	<path class="st1" d="M1208.3,1298.6c-1.9,0-5.1,0.1-5.3,0.1c-0.9,0-1.2-0.3-1.2-1.2c0-0.3,0.1-4.6,0.1-7V1278c0-2.4-0.1-6.8-0.1-7
		c0-0.9,0.3-1.2,1.2-1.2c0.3,0,3.4,0.1,5.3,0.1h2.6c5.7,0,9.1,1.5,9.1,6.4c0,2.4-0.6,4.7-2.9,6.3c-0.3,0.2-0.5,0.4-0.5,0.5
		c0,0.1,0.2,0.2,0.6,0.4c2.6,1,4.1,3.1,4.1,6.5c0,5.9-4.1,8.7-10.3,8.7H1208.3z M1205.4,1280.7c0,1,0.2,1.2,1.2,1.2h3.8
		c3.2,0,5.9-1.2,5.9-5c0-3.2-2.8-3.8-5.4-3.8h-4.3c-1,0-1.2,0.2-1.2,1.2V1280.7z M1205.4,1294.2c0,1,0.2,1.2,1.2,1.2h4.5
		c3.6,0,6.5-1.7,6.5-5.6c0-3.6-2.5-4.8-5.8-4.8h-5.3c-1,0-1.2,0.2-1.2,1.2V1294.2z"/>
	<path class="st1" d="M1253.7,1283.8c0,9.5-6.8,15-14.5,15c-8.4,0-13.7-6.3-13.7-14.3c0-8.8,5.8-14.9,14.4-14.9
		C1248.3,1269.6,1253.7,1275.8,1253.7,1283.8z M1229.3,1284.5c0,6.3,4,10.9,10.1,10.9c5.8,0,10.6-4.3,10.6-11.4
		c0-6.3-4.1-10.7-10.1-10.7C1233.3,1273.2,1229.3,1278.2,1229.3,1284.5z"/>
	<path class="st1" d="M1268.2,1290.3c0,1.5,0,3.7,0.1,5.3c0,1,0,1.7,0,1.9c0,0.9-0.2,1-1.2,1h-1.4c-1,0-1.2-0.2-1.2-1
		c0-0.2,0-1,0-2.1c0.1-1.6,0.1-3.7,0.1-5.1v-15.8c0-1-0.2-1.2-1.2-1.2h-1.5c-1.9,0-4.9,0.1-5.7,0.1c-0.7,0-0.9-0.2-0.9-1.2v-1.1
		c0-1,0.2-1.2,1-1.2c0.5,0,3.9,0.1,5.8,0.1h8.7c1.9,0,5.3-0.1,5.8-0.1c0.9,0,1,0.2,1,1.2v1.1c0,1-0.2,1.2-0.9,1.2
		c-0.8,0-3.9-0.1-5.7-0.1h-1.6c-1,0-1.2,0.2-1.2,1.2V1290.3z"/>
</g>
</svg>
