<?xml version="1.0" encoding="utf-8"?>
<!-- Generator: Adobe Illustrator 24.1.3, SVG Export Plug-In . SVG Version: 6.00 Build 0)  -->
<svg version="1.1" id="レイヤー_1" xmlns="http://www.w3.org/2000/svg" xmlns:xlink="http://www.w3.org/1999/xlink" x="0px"
	 y="0px" viewBox="0 0 1440 1440" style="enable-background:new 0 0 1440 1440;" xml:space="preserve">
<style type="text/css">
	.st0{fill:#B2E2F8;}
	.st1{fill:#FFFFFF;stroke:#FFFFFF;stroke-miterlimit:10;}
	.st2{fill:#FFFFFF;}
	.st3{opacity:0.3;fill:#B2E2F8;}
	.st4{fill:#514F50;}
	.st5{fill:#E0F4FC;}
	.st6{fill:#57C0F0;}
	.st7{fill:#00A0E9;}
	.st8{clip-path:url(#SVGID_2_);}
	.st9{fill:#FFAF9B;}
	.st10{fill:#FFCFBA;}
	.st11{fill:#505050;}
	.st12{fill:#E7EFF9;}
	.st13{fill:#C9DCF1;}
	.st14{fill:#8BB9E3;}
	.st15{fill:#F76E57;}
	.st16{fill:#CEDFF3;}
	.st17{clip-path:url(#SVGID_4_);fill:#FFFFFF;}
	.st18{clip-path:url(#SVGID_4_);}
	.st19{fill:#9DC3E7;}
	.st20{fill:#B5D1ED;}
	.st21{clip-path:url(#SVGID_6_);fill:#FFFFFF;}
	.st22{clip-path:url(#SVGID_6_);}
	.st23{fill:none;stroke:#B2E2F8;stroke-miterlimit:10;}
	.st24{clip-path:url(#SVGID_8_);}
	.st25{clip-path:url(#SVGID_10_);fill:#FFFFFF;}
	.st26{clip-path:url(#SVGID_10_);}
	.st27{clip-path:url(#SVGID_12_);fill:#FFFFFF;}
	.st28{clip-path:url(#SVGID_12_);}
	.st29{clip-path:url(#SVGID_14_);}
	.st30{clip-path:url(#SVGID_16_);}
</style>
<g>
	<path class="st2" d="M909.8,637.9c0,3.1-2.6,5.7-5.7,5.7H521c-3.1,0-5.7-2.6-5.7-5.7V347.5c0-3.1,2.6-5.7,5.7-5.7h383.1
		c3.1,0,5.7,2.6,5.7,5.7V637.9z"/>
</g>
<g>
	<path class="st0" d="M855.9,365.1H564.8c-4.9,0-8.9,4-8.9,8.9v193.7c0,4.9,4,8.9,8.9,8.9h291.1c4.9,0,8.9-4,8.9-8.9V374
		C864.9,369.1,860.8,365.1,855.9,365.1z"/>
	<path class="st2" d="M840.4,381.6H580.1c-5,0-9.2,4-9.2,8.9v160.6c0,4.9,4.1,8.9,9.2,8.9h260.3c5,0,9.2-4,9.2-8.9V390.6
		C849.6,385.7,845.5,381.6,840.4,381.6z"/>
</g>
<g>
	<defs>
		<circle id="SVGID_11_" cx="671.6" cy="472" r="72.1"/>
	</defs>
	<clipPath id="SVGID_2_">
		<use xlink:href="#SVGID_11_"  style="overflow:visible;"/>
	</clipPath>
	<circle style="clip-path:url(#SVGID_2_);fill:#FFFFFF;" cx="671.6" cy="472" r="72.1"/>
	<g class="st8">
		<polygon class="st11" points="669.3,495 669,494.2 669.1,493.4 669.3,492.7 668.9,491.9 669,491.1 668.9,490.4 668.9,489.6 
			668.8,488.8 668.8,488.1 668.7,487.3 668.7,486.5 668.4,485.8 668.6,485 668.4,484.2 668.3,483.5 668.4,482.7 668.3,481.9 
			668.6,481.2 668.2,480.4 668.1,479.6 668.3,478.9 668.2,478.1 667.9,477.3 667.9,476.6 668,475.8 667.9,475.1 667.2,474.9 
			666.5,474.6 665.7,474.4 665,474.1 664.2,474.1 663.5,473.9 662.7,473.7 662.1,473.1 661.3,473 660.6,472.7 659.8,472.6 
			659,472.6 658.3,472.3 657.5,472.2 656.8,471.8 656.1,471.6 655.4,471.4 654.6,471.1 653.9,470.9 653.1,470.9 652.3,470.7 
			651.6,470.4 650.8,470.4 650.1,470.1 649.4,469.9 648.7,469.5 648.6,469.5 647.8,469.4 647.1,469.6 646.3,469.6 645.6,470.1 
			644.7,469.9 644,470.1 643.2,470.5 642.5,470.7 641.9,471.4 641.1,471.5 640.5,472 639.9,472.6 639.3,473.1 638.7,473.6 
			638.1,474.1 637.6,474.7 637,475.2 636.5,475.8 636.3,476.7 635.8,477.3 635.4,477.9 635,478.6 634.9,479.4 634.6,480.1 
			634.4,480.9 634.1,481.6 634,482.4 634,483.2 633.8,483.9 634.2,484.7 633.8,485.5 634,486.2 634,487 633.9,487.8 633.9,488.5 
			633.8,489.3 633.6,490 633.8,490.8 633.5,491.6 633.3,492.3 633.5,493.1 633.3,493.9 632.9,494.6 632.4,495.2 632,495.9 
			631.8,496.6 631.3,497.2 630.8,497.8 630.2,498.3 629.7,498.9 629.2,499.4 628.7,500.1 628.1,500.6 627.5,501 626.8,501.4 
			626.1,501.8 625.3,501.8 624.6,502.1 623.9,502.4 623.1,502.4 622.3,502.7 621.5,502.5 620.7,502.3 620,502 619.1,502 
			618.4,501.7 617.7,501.4 617,500.9 616.3,500.5 615.5,500.5 614.8,500 614.1,499.8 613.4,499.3 612.7,498.7 612.9,499.6 
			613.1,500.3 613.2,501 613.4,501.7 613.8,502.4 613.9,503.2 614.3,503.8 615,504.3 615.2,505 615.6,505.6 616.3,506 616.7,506.6 
			617.2,507.2 618,507.3 618.6,507.8 619.3,508.1 620,508.3 620.7,508.5 621.3,509 622.1,509.2 622.8,509.1 623.6,509.3 
			624.4,509.1 625.1,509.2 625.9,509.3 626.7,509.2 627.5,509.2 628.2,509.4 629,509.1 629.8,509.5 630.6,509.2 631.3,509.3 
			632.1,509.3 632.9,509.3 633.6,509.7 634.4,509.6 635.2,509.6 635.9,509.7 636.7,509.6 637.5,509.5 638.2,509.8 639,509.6 
			639.8,509.7 640.6,509.8 641.3,510 642.1,509.8 642.9,509.9 643.7,509.9 644.4,510.2 645.2,510 646,510.1 646.8,509.9 
			647.5,510.1 648.3,510 649.1,510.2 649.8,510 650.6,510.2 651.4,510 652,509.6 652.5,509 653.1,508.5 653.8,508.2 654.3,507.5 
			655.1,507.4 655.5,506.7 656.2,506.4 657,506.1 657.6,505.6 658.2,505.1 658.7,504.6 659.4,504.2 659.9,503.6 660.5,503.2 
			661.3,503.1 661.9,502.6 662.6,502.2 663.2,501.8 663.7,501.1 664.3,500.6 664.9,500.2 665.8,500 666.2,499.4 667,499.1 
			667.6,498.6 668.3,498.3 668.8,497.7 669.3,497.2 669.5,496.5 669.5,495.7 		"/>
		<polygon class="st19" points="731.7,556 731.8,555.2 731.8,554.4 731.6,553.7 731.4,552.9 731.8,552.1 731.8,551.3 731.6,550.6 
			731.7,549.8 731.8,549 731.4,548.2 731.7,547.5 731.8,546.7 731.6,545.9 731.6,545.1 731.4,544.3 731.4,543.6 731.8,542.8 
			731.8,542 731.4,541.2 731.7,540.5 731.6,539.7 731.7,538.9 731.6,538.1 731.4,537.4 731.8,536.6 731.5,535.8 731.7,535 
			731.5,534.3 731.6,533.5 731.4,532.7 731.4,531.9 731.7,531.1 731.6,530.4 731.6,529.6 731.4,528.8 731.5,528 731.5,527.3 
			731.5,526.5 731.6,525.7 731.4,525 731.4,524.2 731.3,523.5 731.6,522.6 731.2,521.9 730.9,521.2 730.7,520.5 730.4,519.8 
			730.3,519 730.1,518.3 730,517.5 729.3,517 728.9,516.3 728.6,515.6 728.4,514.8 727.9,514.2 727.6,513.5 727.1,512.9 
			726.5,512.5 725.8,512 725.3,511.5 724.8,510.9 724.4,510.2 723.8,509.6 723.2,509.2 722.4,508.9 721.9,508.4 721.2,508 
			720.4,507.8 720,507.1 719.2,506.9 718.4,506.7 717.9,506.1 717.2,505.8 716.5,505.5 715.7,505.4 715,504.9 714.3,504.8 
			713.6,504.5 712.8,504.3 712.1,504 711.4,503.7 710.7,503.4 709.9,503.4 709.2,503.2 708.5,502.7 707.7,502.7 707,502.5 
			706.3,502.1 705.5,501.8 704.8,501.7 704,501.5 703.3,501.1 702.6,501 701.9,500.7 701.2,500.2 700.4,500.2 699.6,500.1 
			699,499.7 698.2,499.5 697.6,499.1 696.7,499.2 696,498.9 695.3,498.5 694.5,498.6 693.8,498.2 693.1,497.8 692.3,497.7 
			691.6,497.4 690.8,497.5 690.2,497 689.5,496.6 688.7,496.6 687.9,496.6 687.3,496 686.4,496.1 685.7,495.9 685,495.6 
			684.2,495.6 683.5,495.6 682.7,495.6 681.9,495.5 681.2,495.5 680.4,495.5 679.7,495.6 678.9,495.6 678.1,495.6 677.4,495.5 
			676.6,495.8 675.8,495.7 675.1,495.8 674.3,495.7 673.5,495.8 672.8,495.7 672,495.6 671.3,495.8 670.5,495.7 669.7,495.5 
			669,495.5 668.2,495.5 667.4,495.5 666.7,495.9 665.9,495.5 665.2,495.8 664.4,495.7 663.6,495.7 662.9,495.7 662.1,495.9 
			661.3,495.8 660.6,495.9 659.8,495.8 659.1,496 658.3,495.7 657.5,495.6 656.8,495.7 656,495.6 655.2,495.8 654.6,496.3 
			653.8,496.5 653,496.5 652.2,496.6 651.6,497 650.8,497.1 650.1,497.5 649.4,497.8 648.6,497.8 647.9,498.3 647.2,498.5 
			646.5,498.9 645.6,498.7 644.9,499 644.2,499.5 643.6,499.9 642.8,500.1 642,500.1 641.3,500.5 640.6,500.7 639.8,500.9 
			639.2,501.3 638.4,501.5 637.6,501.6 636.9,501.9 636.2,502.2 635.5,502.6 634.8,502.9 634,502.9 633.3,503.4 632.5,503.4 
			631.8,503.8 631.1,504 630.3,504.1 629.6,504.4 628.9,504.6 628.3,505.2 627.4,505.2 626.8,505.7 626,505.7 625.4,506.2 
			624.6,506.4 624,506.9 623.3,507.2 622.5,507.5 622,508 621.4,508.5 620.8,509.1 620,509.2 619.5,509.8 619,510.4 618.3,510.8 
			617.8,511.3 617.2,511.9 616.6,512.3 616.1,512.9 615.6,513.5 615.3,514.3 614.9,514.9 614.4,515.5 614.1,516.2 613.9,516.9 
			613.5,517.6 613,518.3 612.9,519 612.4,519.6 612.2,520.4 612.2,521.2 611.8,521.9 611.7,522.6 611.9,523.5 611.6,524.2 
			611.8,525 611.4,525.7 611.7,526.5 611.6,527.3 611.8,528 611.7,528.8 611.4,529.6 611.6,530.4 611.7,531.2 611.8,531.9 
			611.6,532.7 611.6,533.5 611.6,534.3 611.7,535 611.8,535.8 611.4,536.6 611.4,537.4 611.6,538.2 611.6,538.9 611.5,539.7 
			611.6,540.5 611.5,541.3 611.7,542 611.6,542.8 611.8,543.6 611.6,544.4 611.5,545.1 611.4,545.9 611.8,546.7 611.6,547.5 
			611.8,548.2 611.5,549 611.6,549.8 611.4,550.6 611.4,551.4 611.7,552.1 611.5,552.9 611.7,553.7 611.6,554.5 611.6,555.2 
			611.6,556 611.7,556.8 611.5,557.6 611.5,558.3 731.8,558.3 731.8,557.6 731.8,556.8 		"/>
		<polygon class="st2" points="692.4,499.9 691.7,499.8 690.9,499.9 690.1,499.8 689.4,499.9 688.6,499.8 687.8,499.9 687.1,500 
			686.3,499.9 685.5,500 684.8,499.9 684,499.9 683.2,499.7 682.5,500 681.7,500 680.9,500 680.2,499.8 679.4,500 678.6,499.5 
			677.9,499.8 677.1,499.9 676.3,499.7 675.6,499.7 674.8,499.8 674,499.6 673.3,499.7 672.5,499.5 671.7,499.9 671,499.8 
			670.2,499.9 669.4,499.9 668.7,499.7 667.9,499.6 667.1,499.5 666.4,499.5 665.6,499.6 664.8,499.9 664.1,499.5 663.3,499.6 
			662.6,499.7 661.8,499.5 661,499.4 660.3,499.7 659.5,499.8 658.7,499.8 658,499.6 657.2,499.8 656.4,499.5 655.7,499.6 
			654.9,499.8 654.1,499.8 653.4,499.7 652.6,499.5 651.8,499.6 651.1,499.7 650.3,499.7 649.5,499.6 648.8,499.6 649,500.3 
			648.8,501.1 649.3,501.8 649.4,502.6 649.3,503.4 649.5,504.1 649.5,504.9 649.6,505.7 649.8,506.4 650,507.2 650.2,507.9 
			650,508.7 650.1,509.5 650.4,510.2 650.5,511 650.6,511.7 650.7,512.5 651,513.2 651.2,514 651.2,514.7 651.2,515.5 651.3,516.3 
			651.6,517 651.6,517.8 651.9,518.5 652,519.3 652,520 652,520.8 652,521.6 652.3,522.3 652.5,523.1 652.3,523.9 652.5,524.6 
			652.6,525.4 652.8,526.1 653,526.9 653.2,527.6 653.1,528.4 653.2,529.2 653.5,529.9 653.7,530.6 653.8,531.4 653.6,532.2 
			653.8,532.9 654.1,533.7 654.2,534.4 654.2,535.2 654.4,535.9 654.4,536.7 654.5,537.5 654.5,538.3 654.9,539 654.9,539.7 
			655.2,540.5 655,541.3 655.4,542 655.3,542.8 655.3,543.6 655.6,544.3 655.5,545.1 656,545.8 656.1,546.5 655.9,547.3 656.4,548 
			656.5,548.8 656.6,549.6 656.7,550.3 656.6,551.1 656.7,551.9 656.8,552.6 657.2,553.3 657.1,554.1 657.2,554.9 657.5,555.6 
			657.4,556.4 657.4,557.2 657.6,557.9 657.8,558.7 683.3,558.6 683.5,557.9 683.6,557.1 683.7,556.4 684,555.6 684.1,554.9 
			684.4,554.1 684.4,553.4 684.6,552.6 684.7,551.9 684.7,551.1 685,550.4 685.1,549.6 685.3,548.8 685.6,548.1 685.3,547.3 
			685.6,546.6 685.8,545.8 686.1,545.1 686,544.3 686,543.5 686.1,542.8 686.6,542.1 686.7,541.3 686.6,540.5 686.8,539.8 
			686.9,539 687.2,538.3 687.3,537.5 687.4,536.8 687.3,536 687.8,535.3 687.9,534.5 687.8,533.7 687.9,533 688.2,532.2 
			688.4,531.5 688.4,530.7 688.5,530 688.8,529.2 688.7,528.5 689.1,527.7 689,527 689.5,526.3 689.2,525.4 689.4,524.7 689.7,524 
			689.9,523.2 690.1,522.5 690.1,521.7 690.2,521 690.4,520.2 690.4,519.4 690.8,518.7 690.7,517.9 690.8,517.2 691,516.4 
			690.9,515.6 691.1,514.9 691.3,514.1 691.4,513.4 691.9,512.7 691.7,511.9 692,511.2 692.2,510.4 692.4,509.7 692.3,508.9 
			692.7,508.2 692.4,507.4 692.7,506.6 693,505.9 693,505.1 693.1,504.4 693.5,503.7 693.5,502.9 693.5,502.1 693.7,501.4 
			693.7,500.6 693.9,499.9 693.2,500 		"/>
		<path class="st9" d="M685.2,489.6c0-0.4,0.1-0.4,0.1-0.8c0-0.4,0.1-0.4,0-0.8c0-0.4-0.2-0.4-0.2-0.8c0-0.4,0-0.4,0-0.8
			c0-0.4,0.2-0.4,0.2-0.8c0-0.4-0.2-0.4-0.2-0.8c0-0.4-0.2-0.4-0.3-0.8c0-0.4,0.1-0.4,0.1-0.8c0-0.4,0-0.4,0-0.8
			c0-0.4,0.1-0.4,0.1-0.8c0-0.4,0.2-0.5-0.1-0.8c-0.3-0.3-0.4-0.1-0.8-0.1c-0.4,0-0.4-0.1-0.8-0.1c-0.4,0-0.4,0.1-0.8,0.1
			c-0.4,0-0.4-0.1-0.8-0.1c-0.4,0-0.4,0.3-0.8,0.3c-0.4,0-0.4-0.1-0.8-0.1c-0.4,0-0.4-0.1-0.8-0.1s-0.4,0.2-0.8,0.2
			c-0.4,0-0.4-0.1-0.8-0.1c-0.4,0-0.4-0.1-0.8-0.1c-0.4,0-0.4,0.1-0.8,0.1c-0.4,0-0.4-0.1-0.8-0.1c-0.4,0-0.4,0.2-0.8,0.2
			c-0.4,0-0.4,0-0.8,0c-0.4,0-0.4-0.3-0.8-0.3c-0.4,0-0.4,0.3-0.8,0.3c-0.4,0-0.4-0.3-0.8-0.3s-0.4,0-0.8,0c-0.4,0-0.4,0.2-0.8,0.2
			c-0.4,0-0.4-0.3-0.8-0.3c-0.4,0-0.4,0.4-0.8,0.4c-0.4,0-0.4-0.3-0.8-0.3c-0.4,0-0.4,0.3-0.8,0.3c-0.4,0-0.4-0.3-0.8-0.3
			c-0.4,0-0.4-0.1-0.8-0.1c-0.4,0-0.4,0.2-0.8,0.2c-0.4,0-0.4-0.1-0.8-0.1c-0.4,0-0.4,0-0.8,0c-0.4,0-0.4-0.1-0.8-0.1
			c-0.4,0-0.4,0.4-0.8,0.4c-0.4,0-0.4-0.2-0.8-0.2c-0.4,0-0.4,0.3-0.8,0.3c-0.4,0-0.4-0.2-0.8-0.2c-0.4,0-0.4-0.2-0.8-0.2
			s-0.4,0-0.7,0.3c-0.3,0.3-0.3,0.3-0.3,0.7c0,0.4,0.3,0.4,0.3,0.8c0,0.4-0.2,0.4-0.2,0.8c0,0.4-0.2,0.4-0.2,0.8
			c0,0.4,0.1,0.4,0.1,0.8c0,0.4,0.1,0.4,0.1,0.8c0,0.4-0.2,0.4-0.2,0.8c0,0.4,0,0.4,0,0.8c0,0.4,0,0.4,0,0.8c0,0.4,0.2,0.4,0.2,0.8
			c0,0.4-0.1,0.4,0,0.8c0.2,0.2,0.5,0.2,0.7,0.4c0.2,0.2,0.3,0.5,0.5,0.7c0.2,0.2,0.5,0.2,0.7,0.4s0.4,0.3,0.6,0.5
			c0.2,0.1,0.4,0.5,0.6,0.6c0.2,0.1,0.5,0.2,0.8,0.3c0.2,0.1,0.4,0.4,0.7,0.5c0.2,0.1,0.6-0.1,0.9,0c0.2,0.1,0.5,0.2,0.7,0.3
			c0.3,0.1,0.4,0.4,0.7,0.4c0.3,0.1,0.5,0.2,0.8,0.3c0.3,0.1,0.5,0.3,0.7,0.4c0.3,0.1,0.5,0.1,0.8,0.2c0.3,0.1,0.6-0.1,0.8-0.1
			c0.3,0.1,0.5,0.1,0.8,0.1c0.3,0.1,0.5,0.4,0.7,0.5c0.3,0,0.6-0.1,0.8-0.1c0.3,0,0.5,0.1,0.8,0.1c0.3,0,0.5,0,0.8,0.1
			c0.3,0,0.5,0.3,0.8,0.3c0.3,0,0.5,0,0.8,0c0.3,0,0.5-0.1,0.8-0.1c0.3,0,0.5-0.1,0.8-0.1c0.3,0,0.5-0.1,0.8-0.1
			c0.3,0,0.5,0.1,0.8,0.1c0.3,0,0.5-0.2,0.8-0.2c0.3,0,0.6,0.1,0.9,0c0.3,0,0.6-0.1,0.8-0.1c0.3-0.1,0.6,0,0.9-0.1
			c0.3-0.1,0.5-0.3,0.8-0.4c0.3-0.1,0.6-0.1,0.8-0.2c0.3-0.1,0.6-0.1,0.8-0.2c0.3-0.1,0.4-0.5,0.7-0.6c0.3-0.1,0.4-0.4,0.7-0.5
			c0.2-0.1,0.5-0.2,0.8-0.4c0.2-0.2,0.5-0.3,0.7-0.4c0.2-0.2,0.4-0.5,0.6-0.6c0.2-0.2,0.7-0.2,0.9-0.4c0.1-0.4-0.2-0.4-0.3-0.9
			C685.3,490,685.2,490,685.2,489.6z"/>
		<path class="st10" d="M692.9,499.7c-0.4-0.2-0.3-0.4-0.6-0.5c-0.4-0.2-0.5,0-0.8-0.1c-0.4-0.2-0.3-0.3-0.7-0.4
			c-0.4-0.2-0.3-0.2-0.7-0.4c-0.4-0.2-0.3-0.3-0.7-0.4c-0.4-0.2-0.4-0.1-0.8-0.3c-0.4-0.2-0.4,0-0.8-0.1c-0.4-0.2-0.4,0-0.8-0.2
			c-0.4-0.2-0.3-0.3-0.7-0.4c-0.4-0.1-0.4-0.1-0.6-0.5c-0.2-0.4,0.1-0.4,0.1-0.8c0-0.4-0.4-0.4-0.4-0.9c0-0.4,0.3-0.4,0.3-0.9
			c0-0.4-0.1-0.4-0.1-0.9c0-0.4,0.1-0.4,0.1-0.9c0-0.4,0.1-0.5-0.1-0.9c-0.2,0.2-0.7,0.2-0.9,0.4c-0.2,0.2-0.2,0.6-0.5,0.8
			c-0.2,0.2-0.5,0.3-0.7,0.5c-0.2,0.2-0.5,0.3-0.7,0.5c-0.2,0.1-0.6,0.1-0.9,0.2c-0.3,0.1-0.5,0.4-0.7,0.5c-0.3,0.1-0.5,0.2-0.8,0.3
			c-0.3,0.1-0.6,0-0.9,0.1c-0.3,0.1-0.5,0.1-0.8,0.2c-0.3,0.1-0.5,0.4-0.8,0.4c-0.3,0.1-0.6,0-0.8,0.1c-0.3,0-0.5,0.3-0.8,0.3
			c-0.3,0-0.6,0.1-0.9,0.1c-0.3,0-0.5,0.1-0.8,0.1c-0.3,0-0.5-0.2-0.8-0.2c-0.3,0-0.5,0.1-0.8,0.1c-0.3,0-0.5-0.3-0.8-0.3
			c-0.3,0-0.5,0.2-0.8,0.2c-0.3,0-0.6,0.1-0.8,0.1c-0.3,0-0.5-0.3-0.8-0.3c-0.3,0-0.5-0.1-0.8-0.1c-0.3,0-0.5,0-0.8,0
			c-0.3,0-0.6,0-0.8,0c-0.3-0.1-0.5-0.3-0.8-0.4c-0.3-0.1-0.5-0.3-0.8-0.3c-0.3-0.1-0.6,0-0.8,0c-0.3-0.1-0.6,0.1-0.8,0
			c-0.3-0.1-0.4-0.5-0.6-0.6c-0.3-0.1-0.6,0.1-0.9,0c-0.3-0.1-0.4-0.3-0.7-0.5c-0.2-0.1-0.5-0.3-0.7-0.4c-0.2-0.1-0.6,0-0.9-0.1
			c-0.2-0.1-0.4-0.4-0.7-0.5c-0.2-0.1-0.4-0.4-0.6-0.5c-0.2-0.1-0.6-0.1-0.8-0.2c-0.2-0.2-0.2-0.6-0.5-0.7c-0.2-0.2-0.6-0.1-0.8-0.3
			c-0.2-0.2-0.1-0.5-0.3-0.6c-0.1,0.4-0.2,0.4-0.2,0.8c0,0.4,0,0.4,0,0.9c0,0.4-0.1,0.4-0.1,0.9c0,0.4,0.1,0.4,0.1,0.9
			c0,0.4,0,0.4,0,0.9c0,0.4-0.3,0.4-0.3,0.9c0,0.4,0,0.4,0,0.9c0,0.4,0.3,0.5,0.1,0.8c-0.2,0.3-0.3,0.2-0.7,0.3
			c-0.4,0.1-0.4,0.1-0.8,0.3c-0.4,0.1-0.4,0.1-0.8,0.3c-0.4,0.1-0.3,0.3-0.7,0.4c-0.4,0.1-0.4,0.2-0.7,0.3c-0.4,0.1-0.5-0.2-0.9,0
			c-0.4,0.1-0.4,0-0.8,0.1c-0.4,0.1-0.2,0.5-0.6,0.6c-0.4,0.1-0.4,0-0.8,0.1c-0.4,0.1-0.3,0.3-0.7,0.4c-0.4,0.1-0.4-0.1-0.7,0.2
			c-0.3,0.3,0.1,0.1,0.5,0.4c0.2,0.2,0.3,0.4,0.6,0.6c0.2,0.2,0.5,0.2,0.7,0.4c0.2,0.2,0.3,0.5,0.5,0.7c0.2,0.2,0.4,0.4,0.6,0.6
			c0.2,0.2,0.3,0.4,0.5,0.6c0.2,0.2,0.3,0.5,0.5,0.6c0.2,0.2,0.5,0.3,0.7,0.5c0.2,0.2,0.5,0.2,0.7,0.4c0.2,0.2,0.2,0.5,0.4,0.7
			c0.2,0.2,0.4,0.3,0.6,0.5c0.2,0.2,0.4,0.3,0.6,0.5c0.2,0.2,0.4,0.3,0.6,0.5c0.2,0.2,0.4,0.3,0.6,0.5c0.2,0.2,0.5,0.3,0.7,0.5
			c0.2,0.2,0.6,0,0.9,0.2c0.2,0.2,0.2,0.7,0.4,0.8c0.2,0.2,0.5,0.3,0.7,0.4c0.2,0.2,0.4,0.4,0.6,0.5c0.2,0.2,0.7,0,0.9,0.2
			c0.2,0.2,0.4,0.4,0.6,0.5c0.2,0.2,0.4,0.4,0.6,0.6c0.2,0.1,0.6,0.1,0.8,0.2c0.2,0.1,0.4,0.3,0.7,0.5c0.2,0.1,0.5,0.2,0.7,0.4
			c0.2,0.1,0.5,0.3,0.7,0.4c0.2,0.1,0.5,0.3,0.7,0.4c0.2,0.1,0.5,0.3,0.7,0.4c0.3,0.1,0.5,0.3,0.7,0.4c0.3,0.1,0.5,0.1,0.8,0.2
			c0.3,0.1,0.5,0.3,0.7,0.4c0.3,0.1,0.5,0.1,0.8,0.2c0.3,0.1,0.6-0.1,0.8-0.1c0.3,0,0.5,0,0.8,0c0.3,0,0.5,0,0.8,0
			c0.3,0,0.6,0.1,0.9,0.1c0.3-0.1,0.5-0.4,0.7-0.4c0.3-0.1,0.6,0.2,0.9,0.1c0.3-0.1,0.5-0.2,0.8-0.3c0.3-0.1,0.4-0.5,0.7-0.6
			c0.2-0.1,0.5-0.2,0.8-0.3c0.2-0.1,0.6,0,0.9-0.2c0.2-0.1,0.5-0.3,0.7-0.5c0.2-0.1,0.4-0.4,0.7-0.5c0.2-0.1,0.4-0.4,0.6-0.6
			c0.2-0.1,0.6-0.1,0.8-0.3c0.2-0.2,0.3-0.5,0.6-0.7c0.2-0.2,0.6-0.1,0.8-0.3c0.2-0.2,0.4-0.4,0.6-0.6c0.2-0.2,0.4-0.4,0.6-0.6
			c0.2-0.2,0.6-0.2,0.8-0.4c0.2-0.2,0.5-0.2,0.8-0.4c0.2-0.2,0.3-0.6,0.5-0.7c0.2-0.2,0.6-0.1,0.9-0.3c0.2-0.2,0.3-0.5,0.5-0.7
			c0.2-0.2,0.4-0.3,0.7-0.5c0.2-0.2,0.6-0.2,0.8-0.4c0.2-0.2,0.3-0.5,0.5-0.7c0.2-0.2,0.4-0.4,0.6-0.5c0.2-0.2,0.3-0.5,0.5-0.6
			c0.2-0.2,0.7-0.1,0.9-0.3c0.2-0.2,0.3-0.6,0.5-0.7c0.2-0.2,0.5-0.2,0.7-0.4c0.2-0.2,0.4-0.4,0.6-0.6c0.2-0.2,0.6-0.2,0.8-0.4
			c0.2-0.2,0.2-0.7,0.4-0.8c0.4-0.4,1.1-0.3,0.8-0.6C693.5,499.5,693.2,499.9,692.9,499.7z"/>
		<g>
			<path class="st20" d="M705,517.7c0,0,0,0.1,0,0.1c0,0,0,0,0,0.1C705.1,518,705,517.4,705,517.7z"/>
			<path class="st20" d="M705.6,520.3C705.6,520.3,705.7,520.3,705.6,520.3C705.6,520.2,705.6,520.1,705.6,520.3z"/>
			<path class="st20" d="M704.8,517.3c0,0,0,0.1,0.1,0.1c0,0,0,0,0,0C704.9,517.4,704.8,517.4,704.8,517.3z"/>
			<path class="st20" d="M706.6,522.1c-0.1-0.3-0.2-0.6-0.4-0.9c0,0.2,0,0.3,0,0.5C706.4,521.8,706.5,521.9,706.6,522.1z"/>
			<path class="st20" d="M700.6,530.4C700.6,530.4,700.6,530.4,700.6,530.4C700.6,530.4,700.6,530.4,700.6,530.4c-0.1,0-0.1,0-0.2,0
				c0,0,0,0,0,0C700.3,530.5,700.5,530.4,700.6,530.4z"/>
			<path class="st20" d="M700.6,530.4C700.6,530.4,700.6,530.4,700.6,530.4C700.7,530.4,700.7,530.4,700.6,530.4
				C700.7,530.4,700.7,530.4,700.6,530.4z"/>
			<path class="st20" d="M702.7,529.3c0,0-0.1,0.1-0.1,0.1C702.4,529.6,702.9,529.2,702.7,529.3z"/>
			<path class="st20" d="M702.3,529.5C702.3,529.5,702.3,529.5,702.3,529.5c-0.1,0-0.1,0-0.1,0.1C702,529.7,702.6,529.5,702.3,529.5
				z"/>
			<path class="st20" d="M700.7,530.4C700.7,530.4,700.7,530.4,700.7,530.4c-0.1,0-0.1,0.1-0.1,0.1c0.2-0.1,0.4-0.2,0.5-0.3
				c-0.1,0-0.2,0.1-0.3,0.1C700.7,530.3,700.7,530.4,700.7,530.4C700.7,530.4,700.7,530.4,700.7,530.4z"/>
			<path class="st20" d="M700.6,530.4c0,0,0.1-0.1,0.1-0.1c-0.1,0-0.2,0.1-0.3,0.1C700.5,530.4,700.5,530.4,700.6,530.4
				C700.6,530.4,700.6,530.4,700.6,530.4z"/>
			<path class="st20" d="M705.7,527.8C705.7,527.8,705.7,527.8,705.7,527.8c-0.1,0-0.2,0.1-0.2,0.1
				C705.4,527.9,705.9,527.8,705.7,527.8z"/>
			<path class="st20" d="M704.4,528.4c-0.1,0-0.2,0.1-0.3,0.1c-0.1,0.1-0.2,0.1-0.3,0.2C704,528.6,704.2,528.5,704.4,528.4z"/>
			<path class="st20" d="M708.1,527.3c0.3-0.5,0.6-1,0.8-1.5c-0.2,0.1-0.5,0.2-0.7,0.2c-0.2,0.1-0.3,0.2-0.5,0.3
				c0,0.1,0,0.2,0.1,0.3C708,526.9,708,527.1,708.1,527.3z"/>
			<path class="st20" d="M707.7,526C707.7,526,707.7,526,707.7,526c0,0.1,0.1,0.1,0.1,0.2C707.9,526.3,707.7,525.8,707.7,526z"/>
			<path class="st20" d="M707.3,526.8C707.3,526.8,707.3,526.8,707.3,526.8C707.3,526.8,707.3,526.8,707.3,526.8
				C707,527.1,707.6,526.7,707.3,526.8z"/>
			<path class="st20" d="M707.2,524.5C707.2,524.5,707.2,524.6,707.2,524.5c0,0.1,0.1,0.2,0.1,0.2
				C707.4,524.9,707.1,524.3,707.2,524.5z"/>
			<path class="st20" d="M702.5,504.7c0-0.1,0-0.2,0-0.3c-0.1-0.1-0.1-0.2-0.2-0.4C702.4,504.3,702.5,504.5,702.5,504.7z"/>
			<path class="st20" d="M708.1,520.3c0-0.1,0-0.2,0-0.3c-0.1-0.1-0.2-0.2-0.3-0.3C707.9,519.9,708,520.1,708.1,520.3z"/>
			<path class="st20" d="M708.6,521.9C708.7,522.2,708.6,522,708.6,521.9C708.6,521.9,708.6,521.9,708.6,521.9
				C708.6,521.9,708.6,521.8,708.6,521.9C708.6,521.7,708.6,521.6,708.6,521.9z"/>
			<path class="st20" d="M707.5,518.6c0,0,0.1,0.4,0.1,0.2c0,0,0,0,0,0c0,0,0,0,0-0.1C707.5,518.7,707.5,518.6,707.5,518.6z"/>
			<path class="st20" d="M707.5,518.4C707.5,518.3,707.5,518.3,707.5,518.4c0-0.1,0-0.2,0-0.2C707.4,518,707.4,518.5,707.5,518.4z"
				/>
			<path class="st20" d="M709.1,523.1c0,0,0-0.1-0.1-0.1c0,0,0,0,0-0.1C709,522.8,709.2,523.3,709.1,523.1z"/>
			<path class="st20" d="M706.6,515.6c0,0,0.1,0.3,0.1,0.2c0,0,0,0,0-0.1C706.6,515.7,706.6,515.7,706.6,515.6z"/>
			<path class="st20" d="M704.9,536.9C705,537,705,537,704.9,536.9L704.9,536.9z"/>
			<path class="st20" d="M702.3,532c0.1,0,0.2,0,0.3-0.1c0.1-0.1,0.2-0.2,0.3-0.2C702.7,531.8,702.5,531.9,702.3,532z"/>
			<path class="st20" d="M708.9,528.4c0.1,0,0.2-0.1,0.3-0.1c0.1-0.1,0.1-0.1,0.2-0.2C709.3,528.2,709.1,528.3,708.9,528.4z"/>
			<path class="st20" d="M705.7,514.4c0-0.2,0.1-0.4,0.1-0.6c-0.1-0.1-0.2-0.2-0.2-0.4C705.6,513.8,705.7,514.1,705.7,514.4z"/>
			<path class="st20" d="M704.2,515.8C704.2,515.8,704.2,515.9,704.2,515.8c0,0.1,0,0.1,0,0.1C704.2,515.9,704.2,515.8,704.2,515.8z
				"/>
			<path class="st20" d="M705.6,530.2c0.1,0,0.2,0,0.2-0.1c0.1-0.1,0.2-0.2,0.3-0.3C706,530,705.8,530.1,705.6,530.2z"/>
			<path class="st20" d="M704.3,531c0.1,0,0.2-0.1,0.3-0.1c0.1-0.1,0.2-0.1,0.3-0.2C704.7,530.8,704.5,530.9,704.3,531z"/>
			<path class="st20" d="M700.8,506.5c0,0.1,0.1,0.1,0.1,0.2C701,506.8,700.8,506.4,700.8,506.5z"/>
			<path class="st20" d="M701.6,508.6c0,0,0,0.1,0.1,0.2c0,0,0,0,0,0C701.7,508.7,701.7,508.7,701.6,508.6z"/>
			<path class="st20" d="M702.2,509.7c0,0.1,0,0.2,0,0.3c0.1,0.1,0.1,0.2,0.2,0.3C702.3,510.1,702.3,509.9,702.2,509.7z"/>
			<path class="st20" d="M702.7,511.1c0,0.1,0,0.2,0,0.4c0.1,0.1,0.1,0.2,0.1,0.2C702.8,511.5,702.7,511.3,702.7,511.1z"/>
			<path class="st20" d="M703.5,512.9c0,0.3-0.1,0.5-0.1,0.8c0.1,0.1,0.3,0.3,0.4,0.4C703.7,513.7,703.6,513.3,703.5,512.9z"/>
			<path class="st20" d="M705.1,511.8C705.1,511.8,705.1,511.8,705.1,511.8c0-0.1,0-0.1,0-0.1C705,511.4,705.1,512.1,705.1,511.8z"
				/>
			<path class="st20" d="M704.7,510.5c0-0.1,0-0.2,0-0.3c-0.1-0.1-0.1-0.2-0.2-0.3C704.6,510.1,704.6,510.3,704.7,510.5z"/>
			<path class="st20" d="M705.2,512.4c0-0.1,0-0.2-0.1-0.3c-0.1-0.1-0.2-0.1-0.2-0.2C705,512,705.1,512.2,705.2,512.4z"/>
			<path class="st20" d="M699.3,531.1c-0.2,0-0.4,0-0.6,0.1c-0.1,0.1-0.2,0.2-0.2,0.3C698.8,531.3,699.1,531.2,699.3,531.1z"/>
			<path class="st20" d="M703.1,506.3c0,0,0.1,0.1,0.1,0.1C703.2,506.4,703.2,506.4,703.1,506.3
				C703.2,506.3,703.2,506.3,703.1,506.3z"/>
			<path class="st20" d="M704.2,508.6c0,0,0-0.1-0.1-0.1c0,0,0,0,0,0C704.1,508.2,704.3,508.8,704.2,508.6z"/>
			<path class="st20" d="M709.7,524.5C709.7,524.5,709.6,524.5,709.7,524.5C709.5,524.1,709.7,524.7,709.7,524.5z"/>
			<path class="st20" d="M707.9,542.7c0.1-0.1,0.1-0.2,0.2-0.2c0-0.1,0.1-0.2,0.1-0.3C708.1,542.4,708,542.5,707.9,542.7z"/>
			<polygon class="st20" points="703.4,550.7 703.4,550.7 703.4,550.7 			"/>
			<path class="st20" d="M705,547.7c0-0.1,0.1-0.1,0.1-0.2c0-0.1,0-0.3,0-0.4C705.1,547.3,705,547.5,705,547.7z"/>
			<path class="st20" d="M702.6,551.8C702.6,551.7,702.6,551.7,702.6,551.8C702.7,551.6,702.4,552,702.6,551.8z"/>
			<path class="st20" d="M705.3,547.3C705.3,547.3,705.3,547.3,705.3,547.3c0.1-0.1,0.1-0.1,0.1-0.2
				C705.5,546.9,705.1,547.4,705.3,547.3z"/>
			<path class="st20" d="M706.8,544.7C706.8,544.7,706.8,544.6,706.8,544.7c0.1-0.1,0.1-0.1,0.1-0.2
				C707,544.3,706.7,544.7,706.8,544.7z"/>
			<path class="st20" d="M704.2,549.3c0.1-0.1,0.1-0.1,0.2-0.2c0-0.1,0.1-0.2,0.1-0.3C704.4,549,704.3,549.2,704.2,549.3z"/>
			<path class="st20" d="M698.4,554.5c0,0,0,0.1-0.1,0.1C698.2,554.9,698.5,554.5,698.4,554.5z"/>
			<path class="st20" d="M697.2,557c-0.1,0.1-0.2,0.2-0.3,0.3c0,0.1,0,0.2,0,0.3C697,557.3,697.1,557.1,697.2,557z"/>
			<path class="st20" d="M700.4,555.4c0.1-0.1,0.2-0.2,0.4-0.3c0.1-0.1,0.1-0.3,0.2-0.4C700.7,554.9,700.6,555.2,700.4,555.4z"/>
			<path class="st20" d="M701.9,552.9c0,0,0.1-0.1,0.1-0.1c0,0,0-0.1,0-0.1C702,552.6,701.9,552.9,701.9,552.9z"/>
			<path class="st20" d="M699.3,557.5C699.3,557.5,699.3,557.5,699.3,557.5C699.3,557.4,699.3,557.4,699.3,557.5
				C699.4,557.1,699.1,557.7,699.3,557.5z"/>
			<path class="st20" d="M702.9,533.5C702.9,533.5,702.8,533.5,702.9,533.5C702.8,533.5,702.9,533.5,702.9,533.5
				C702.9,533.5,702.9,533.5,702.9,533.5z"/>
			<path class="st20" d="M699.6,533c-0.2,0.1-0.3,0.2-0.5,0.3c0,0.1,0.1,0.2,0.1,0.3C699.3,533.3,699.5,533.2,699.6,533z"/>
			<path class="st20" d="M699.9,532.9c0.2,0,0.4,0,0.6,0c0.1-0.1,0.2-0.2,0.3-0.3C700.4,532.6,700.1,532.8,699.9,532.9z"/>
			<path class="st20" d="M700,532.4c-0.1-0.1-0.2-0.1-0.2-0.2c-0.1,0-0.3,0-0.4,0C699.6,532.3,699.8,532.4,700,532.4z"/>
			<path class="st20" d="M709.1,540.2c0.2-0.1,0.3-0.2,0.5-0.4c0-0.1,0-0.2,0-0.4C709.5,539.7,709.3,540,709.1,540.2z"/>
			<path class="st20" d="M700.2,532.3c-0.1,0-0.3,0-0.4,0c0.1,0.1,0.2,0.1,0.2,0.2c-0.2-0.1-0.4-0.1-0.6-0.2c0.1,0,0.3,0,0.4,0
				c-0.1-0.1-0.3-0.2-0.4-0.3c-0.3-0.2-0.6-0.2-0.9-0.2c0.2,0.5,0.4,1,0.6,1.5c0.2-0.1,0.3-0.2,0.5-0.3c-0.1,0.2-0.2,0.4-0.4,0.5
				c0-0.1-0.1-0.2-0.1-0.3c-0.2,0.1-0.4,0.2-0.6,0.3c0.4,0,0.9,0,1.3-0.2c0.3-0.1,0.5-0.3,0.7-0.6c-0.2,0-0.4,0-0.6,0
				c0.3-0.1,0.6-0.2,0.9-0.4c-0.1,0.1-0.2,0.2-0.3,0.3c0.3,0,0.6-0.1,0.9-0.2c0,0,0,0,0.1,0c-0.1,0-0.1-0.1-0.2-0.1
				C700.9,532.4,700.5,532.3,700.2,532.3z"/>
			<path class="st20" d="M702.6,531.9c-0.1,0-0.2,0-0.3,0.1c0.2-0.1,0.4-0.2,0.5-0.3C702.7,531.8,702.6,531.9,702.6,531.9
				c0.4-0.1,0.7-0.2,1.1-0.4c0.3-0.2,0.6-0.4,0.9-0.6c-0.1,0-0.2,0.1-0.3,0.1c0.2-0.1,0.4-0.2,0.5-0.3c-0.1,0.1-0.2,0.1-0.3,0.2
				c0.3-0.1,0.5-0.2,0.7-0.3c0.2-0.1,0.4-0.3,0.5-0.4c-0.1,0-0.2,0-0.2,0.1c0.2-0.1,0.4-0.2,0.5-0.3c-0.1,0.1-0.2,0.2-0.3,0.3
				c0.7-0.2,1.3-0.4,1.8-0.8c0.3-0.2,0.6-0.4,0.9-0.5c0.3-0.2,0.5-0.4,0.7-0.6c-0.1,0-0.2,0.1-0.3,0.1c0.2-0.1,0.4-0.2,0.5-0.3
				c-0.1,0.1-0.1,0.1-0.2,0.2c0.1,0,0.3-0.1,0.4-0.1c0.6-0.2,1.1-0.8,0.8-1.5c-0.2-0.5-0.3-0.9-0.4-1.4c-0.1-0.3-0.2-0.5-0.3-0.8
				c0,0.1-0.2-0.4,0-0.1c0,0,0,0,0,0.1c0,0,0,0,0,0c0-0.2-0.1-0.3-0.1-0.5c-0.1-0.3-0.2-0.5-0.3-0.8c-0.1-0.1-0.1-0.2-0.2-0.3
				c0,0,0,0.1,0.1,0.1c0.1,0.2-0.1-0.2-0.1-0.2c0,0,0,0,0,0.1c0,0,0,0,0-0.1c-0.1-0.2-0.2-0.4-0.2-0.6c0-0.1-0.1-0.3-0.1-0.4
				c0,0,0,0,0,0c0,0.1,0,0.3,0,0c0-0.3,0-0.1,0-0.1c0,0,0,0,0,0.1c0.1-0.6,0.1-1.1-0.3-1.5c-0.1-0.1-0.2-0.2-0.3-0.3
				c0,0.1,0,0.2,0,0.3c-0.1-0.2-0.2-0.4-0.3-0.5c0.1,0.1,0.2,0.2,0.3,0.3c0-0.2-0.1-0.3-0.1-0.5c-0.1-0.3-0.2-0.6-0.4-0.8
				c0,0,0,0,0,0c0,0.2-0.1-0.2-0.1-0.2c0,0,0,0.1,0.1,0.1c0,0,0,0,0,0.1c0-0.1-0.1-0.3-0.1-0.4c0,0,0,0,0,0c0,0,0,0,0,0.1
				c0,0.1-0.1-0.4,0-0.2c0,0.1,0,0.1,0,0.2c0-0.1,0-0.3,0-0.4c0-0.6-0.2-1.2-0.5-1.7c-0.1-0.1-0.2-0.3-0.3-0.4c0,0,0,0,0,0
				c0,0,0,0,0,0.1c0,0.1-0.1-0.2-0.1-0.2c0,0,0.1,0.1,0.1,0.1c0-0.3-0.1-0.7-0.3-0.9c-0.2-0.3-0.4-0.7-0.6-1c0,0.2-0.1,0.4-0.1,0.6
				c0-0.3-0.1-0.6-0.1-0.9c0.1,0.1,0.2,0.2,0.2,0.4c0.1-0.3,0.1-0.7,0-0.9c-0.1-0.4-0.4-0.6-0.7-0.9c0,0.1,0,0.2,0.1,0.3
				c-0.1-0.2-0.2-0.4-0.3-0.5c0.1,0.1,0.2,0.1,0.2,0.2c0-0.1,0-0.2-0.1-0.3c0,0,0,0,0,0.1c0,0.3-0.1-0.4,0-0.1c0,0,0,0,0,0.1
				c0-0.1,0-0.2,0-0.3c0-0.3,0-0.7-0.2-1c-0.1-0.1-0.1-0.2-0.2-0.3c0,0.1,0,0.2,0,0.3c-0.1-0.2-0.1-0.4-0.2-0.6
				c0.1,0.1,0.1,0.2,0.2,0.3c0-0.2,0-0.3,0-0.5c0-0.4-0.3-0.9-0.5-1.2c0,0,0,0.1,0.1,0.1c0.1,0.2-0.2-0.3-0.1-0.2c0,0,0,0,0,0
				c0,0,0-0.1,0-0.1c0-0.1-0.1-0.3-0.1-0.4c-0.1-0.3-0.3-0.7-0.4-1c-0.1-0.2-0.2-0.4-0.3-0.6c0,0,0,0,0,0c0.1,0.1,0,0.2,0,0
				c0,0,0,0,0,0c0,0,0-0.1-0.1-0.1c0,0,0.1,0.1,0.1,0.1c0-0.1,0-0.1,0-0.2c0-0.1,0-0.3-0.1-0.4c-0.1-0.4-0.4-0.9-0.6-1.3
				c0,0.1,0,0.2,0,0.3c-0.1-0.2-0.1-0.4-0.2-0.6c0.1,0.1,0.1,0.2,0.2,0.4c0-0.2,0-0.4,0-0.6c0-0.6-0.6-1.2-1.2-1.2
				c-0.7,0-1.2,0.5-1.2,1.2c0,0.3-0.1,0.6-0.1,0.8c0,0.4,0.3,0.9,0.5,1.3c0.1,0.2,0.1,0.3,0.2,0.5c0-0.1,0.1,0.3,0.1,0.2
				c0-0.1-0.1-0.1-0.1-0.2c0,0,0,0,0,0c0,0.1,0,0.2,0,0.3c0,0.1,0,0.3,0.1,0.4c0.1,0.3,0.4,0.6,0.5,1c0.1,0.1,0.1,0.3,0.2,0.4
				c0,0,0,0,0.1,0.1c0,0,0,0.1,0,0.1c0,0,0,0,0,0.1c0,0,0,0,0,0c0,0.1,0,0.1,0.1,0.2c0,0.1,0.1,0.2,0.1,0.3c0.1,0.2,0.2,0.4,0.3,0.7
				c0-0.1,0-0.2,0-0.3c0.1,0.2,0.1,0.4,0.2,0.6c-0.1-0.1-0.1-0.2-0.2-0.3c0,0.2,0,0.5,0,0.7c0,0.3,0.2,0.6,0.4,0.9
				c0-0.1,0-0.2,0-0.4c0.1,0.2,0.1,0.4,0.2,0.6c0-0.1-0.1-0.2-0.1-0.2c0,0.4,0.1,0.8,0.2,1.2c0.1,0.4,0.2,0.6,0.5,0.9
				c0,0,0.1,0.1,0.1,0.1c0-0.3,0.1-0.5,0.1-0.8c0.1,0.4,0.2,0.8,0.3,1.2c-0.1-0.1-0.3-0.3-0.4-0.4c0,0,0,0.1,0,0.1
				c-0.1,0.7,0.2,1,0.5,1.6c0.1,0.1,0.1,0.2,0.2,0.3c0,0.1,0.1,0.1,0.1,0.2c0,0,0,0,0-0.1c0,0,0,0.1,0,0.1c0,0,0,0,0,0
				c0.1,0.2,0,0.1,0,0c0,0,0,0,0,0c0,0.3,0.2,0.8,0.3,1c0.1,0.2,0.2,0.3,0.3,0.5c0,0,0,0,0,0c0-0.1,0-0.2,0-0.1c0,0.1,0,0.1,0.1,0.2
				c0,0,0,0,0,0.1c0,0,0,0,0,0c0,0,0,0,0,0c0,0.1,0.1,0.3,0.1,0.4c0,0,0-0.1,0-0.1c0-0.3,0.1,0.3,0,0.2c0,0,0,0,0-0.1
				c0,0.1,0,0.1,0,0.2c0,0.4,0.1,0.8,0.1,1.1c0.1,0.4,0.2,0.7,0.4,1.1c0,0,0,0,0,0.1c0-0.1,0,0,0,0.1c0,0,0,0.1,0.1,0.1
				c0,0,0-0.1-0.1-0.1c0,0,0-0.1,0-0.1c0,0,0,0,0,0.1c0,0.2,0.1,0.4,0.1,0.6c0.1,0.3,0.3,0.5,0.5,0.8c0-0.2,0-0.3,0-0.5
				c0.1,0.3,0.2,0.6,0.4,0.9c-0.1-0.1-0.3-0.3-0.4-0.4c0,0.1,0,0.2,0,0.4c0,0.3,0.2,0.7,0.3,1c0.2,0.5,0.4,1.1,0.7,1.6
				c0,0,0-0.1,0-0.1c0-0.2,0.2,0.4,0.1,0.2c0,0,0-0.1-0.1-0.1c0,0,0,0.1,0,0.1c0,0.2,0.1,0.3,0.1,0.5c0.1,0.3,0.2,0.5,0.3,0.8
				c0,0,0,0,0,0c0-0.2,0.2,0.4,0.1,0.2c0-0.1-0.1-0.1-0.1-0.2c0,0.1,0,0.1,0.1,0.2c0,0.1,0,0.1,0.1,0.2c0.1-0.1,0.3-0.2,0.5-0.3
				c0.2-0.1,0.5-0.2,0.7-0.2c-0.3,0.5-0.6,1-0.8,1.5c-0.1-0.2-0.2-0.5-0.2-0.7c0-0.1-0.1-0.2-0.1-0.3c-0.2,0.1-0.3,0.3-0.5,0.4
				c0,0,0,0,0,0c0.2-0.1-0.3,0.3-0.1,0.1c0,0,0,0,0,0c-0.1,0.1-0.3,0.2-0.4,0.2c-0.2,0.1-0.3,0.2-0.5,0.3c-0.2,0.1-0.3,0.2-0.5,0.3
				c-0.1,0-0.1,0.1-0.2,0.1c0,0,0,0,0,0c0.2,0-0.4,0.2-0.2,0.1c0.1,0,0.1-0.1,0.2-0.1c0,0-0.1,0-0.1,0c-0.4,0.1-0.7,0.1-1.1,0.4
				c-0.1,0.1-0.2,0.2-0.3,0.3c0.1,0,0.2-0.1,0.3-0.1c-0.2,0.1-0.4,0.2-0.5,0.3c0.1-0.1,0.2-0.1,0.3-0.2c-0.4,0.1-0.7,0.3-1,0.5
				c-0.1,0.1-0.2,0.2-0.4,0.3c0.2-0.1-0.3,0.3-0.1,0.1c0,0,0.1-0.1,0.1-0.1c0,0,0,0,0,0c-0.1,0-0.2,0.1-0.3,0.1c0,0-0.1,0-0.1,0.1
				c0,0,0,0,0,0c0.2,0-0.3,0.2-0.1,0.1c0,0,0.1,0,0.1-0.1c-0.2,0-0.4,0.1-0.6,0.2c-0.4,0.1-0.7,0.4-0.9,0.6c0.1,0,0.2-0.1,0.3-0.1
				c-0.2,0.1-0.4,0.2-0.5,0.3c0,0,0.1-0.1,0.1-0.1c-0.1,0-0.3,0.1-0.2,0c0,0,0,0,0,0c-0.1,0-0.2,0-0.4,0c-0.4,0-0.8,0.1-1.1,0.4
				c-0.1,0.1-0.1,0.2-0.2,0.3c0.2,0,0.4,0,0.6-0.1c-0.3,0.1-0.6,0.2-0.9,0.4c0.1-0.1,0.2-0.2,0.2-0.3c-0.1,0-0.2,0-0.4,0
				c-0.6,0.1-0.9,0.6-1.3,1.1c-0.4,0.6,0,1.6,0.7,1.8c0.1,0,0.3,0.1,0.4,0.1c0,0-0.1,0-0.1-0.1c-0.2-0.1,0.3,0.1,0.2,0.1
				c0,0-0.1,0-0.1,0c0.1,0,0.1,0.1,0.2,0.1c0.1,0.1,0.2,0.2,0.3,0.2c0.3,0.2,0.6,0.2,1,0.2c0.1,0,0.1,0,0.2,0c0,0,0,0,0,0
				c0,0,0,0-0.1,0c0,0,0,0,0.1,0c0,0,0,0,0,0c0,0,0,0,0.1,0c0.2,0,0.1,0-0.1,0c0,0,0,0,0,0c0.1,0.1,0.3,0.1,0.4,0.1c0,0,0,0,0.1,0
				c0,0,0,0,0,0c0.1,0,0.1,0.1,0.2,0.1c-0.1,0-0.1,0-0.1,0c0.2,0.1,0.3,0.2,0.5,0.3c0.2,0.2,0.5,0.3,0.7,0.4
				c0.2,0.1,0.5,0.2,0.7,0.2c0,0,0.1,0,0.1,0c0,0,0,0,0,0c-0.2-0.2,0.4,0.1,0.1,0.1c0,0-0.1,0-0.1,0c0.5,0.5,1.2,0.7,1.8,0.9
				c0.1,0,0.2,0.1,0.4,0.1c0,0,0.1,0,0.1,0c0,0-0.1-0.1-0.2-0.1c0.2,0.1,0.4,0.2,0.6,0.3c0.3,0.1,0.6,0.2,0.9,0.3
				c-0.1-0.1-0.2-0.1-0.3-0.2c0.2,0.1,0.4,0.2,0.5,0.3c-0.1,0-0.2-0.1-0.3-0.1c0.3,0.3,0.6,0.5,1,0.7c0.2,0.1,0.4,0.2,0.6,0.2
				c0.1-0.1,0.1-0.1,0.2-0.2c0,0,0.1-0.1,0.1-0.1c0-0.1,0-0.1,0-0.2c0,0,0,0.1,0.1,0.1c0.2-0.1,0.3-0.2,0.5-0.3
				c-0.1,0.2-0.2,0.4-0.3,0.6c0,0.1,0,0.1,0.1,0.2c0.1,0,0.1,0.1,0.2,0.1c-0.1,0-0.1,0-0.2-0.1c0,0.1,0.1,0.1,0.1,0.2
				c-0.1-0.1-0.1-0.2-0.2-0.2c0,0,0,0-0.1,0c0,0.1-0.1,0.2-0.1,0.2c0-0.1,0-0.2,0-0.3c-0.1,0-0.2-0.1-0.3-0.1
				c-0.3,0.3-0.4,0.6-0.4,1c0,0.1-0.1,0.3,0,0.3c0.1-0.1,0.2-0.4,0.1-0.1c0,0.1,0,0.1-0.1,0.1c0,0,0,0.1,0,0.1
				c0,0.1-0.2,0.3-0.2,0.4c0,0,0,0,0,0c0-0.1,0.3-0.3,0.1-0.1c0,0-0.1,0.1-0.1,0.1c0,0,0,0,0,0c0,0,0,0,0,0c0,0,0,0,0,0
				c-0.4,0.5-0.9,0.9-1.1,1.5c-0.1,0.3-0.3,0.7-0.4,1c0.1,0,0.1-0.1,0.2-0.1c-0.1,0.2-0.2,0.4-0.3,0.5c0-0.1,0.1-0.3,0.2-0.4
				c-0.1,0.1-0.3,0.2-0.4,0.4c-0.2,0.2-0.4,0.5-0.5,0.8c-0.2,0.4-0.4,0.8-0.6,1.2c0,0.1-0.1,0.1-0.1,0.2c0,0,0.1-0.1,0.1-0.1
				c0,0-0.1,0.1-0.1,0.1c0,0.1-0.1,0.1-0.1,0.1c0,0,0,0.1-0.1,0.1c-0.2,0.2-0.4,0.4-0.6,0.7c-0.3,0.4-0.4,0.6-0.5,1.1
				c0,0.1,0,0.2,0,0.3c0.1-0.1,0.2-0.2,0.3-0.3c-0.1,0.3-0.2,0.6-0.4,0.9c0-0.2,0-0.4,0-0.5c-0.2,0.2-0.3,0.3-0.4,0.5
				c-0.1,0.2-0.2,0.5-0.3,0.8c0.1-0.1,0.2-0.2,0.2-0.3c-0.1,0.2-0.2,0.4-0.3,0.5c0-0.1,0.1-0.2,0.1-0.3c-0.3,0.3-0.5,0.6-0.8,1
				c0.1-0.1-0.3,0.4-0.1,0.1c0,0,0.1-0.1,0.1-0.1c0,0,0,0-0.1,0.1c-0.1,0.1-0.2,0.2-0.3,0.4c-0.2,0.2-0.3,0.5-0.5,0.7
				c-0.2,0.5-0.6,0.8-0.7,1.3c-0.1,0.3-0.2,0.7-0.3,1c0.1-0.1,0.3-0.2,0.4-0.3c-0.2,0.2-0.4,0.5-0.6,0.7c0-0.1,0.1-0.3,0.1-0.4
				c0,0-0.1,0.1-0.1,0.1c-0.2,0.2-0.4,0.3-0.5,0.5c-0.1,0.1-0.1,0.3-0.2,0.5c0,0.1-0.1,0.2-0.1,0.3c0,0-0.2,0.4-0.1,0.1
				c0,0,0-0.1,0.1-0.1c0,0,0,0,0,0c-0.2,0.2-0.3,0.4-0.4,0.6c-0.2,0.3-0.4,0.7-0.7,1c-0.2,0.2-0.3,0.4-0.3,0.7c0,0.1,0,0.3-0.1,0.4
				c0.1-0.1,0.2-0.2,0.3-0.3c-0.1,0.2-0.2,0.4-0.3,0.5c0-0.1,0-0.2,0-0.3c-0.1,0.1-0.2,0.2-0.3,0.3c-0.5,0.5-0.5,1.2,0,1.7
				c0.5,0.5,1.2,0.5,1.7,0c0.4-0.4,0.8-0.7,0.9-1.3c0-0.1,0-0.3,0.1-0.4c0,0,0,0.1-0.1,0.1c-0.1,0.2,0.1-0.4,0.1-0.1c0,0,0,0,0,0
				c0.1-0.2,0.2-0.3,0.3-0.5c0.2-0.3,0.4-0.6,0.6-1c0.2-0.3,0.3-0.6,0.4-0.9c-0.1,0.1-0.2,0.2-0.4,0.3c0.2-0.2,0.4-0.5,0.6-0.7
				c-0.1,0.1-0.1,0.3-0.2,0.4c0.1-0.1,0.2-0.1,0.2-0.2c0.3-0.2,0.5-0.4,0.6-0.8c0.1-0.1,0.1-0.3,0.1-0.4c0.1-0.2,0.1-0.4,0.2-0.6
				c0-0.1,0.1-0.2,0.1-0.3c0,0.1-0.1,0.1-0.1,0.1c0,0,0.1-0.4,0.1-0.2c0,0,0,0.1,0,0.1c0,0,0,0,0-0.1c0.1-0.2,0.3-0.4,0.4-0.6
				c0.1-0.1,0.2-0.3,0.2-0.4c0,0,0-0.1,0-0.1c0,0,0,0.1-0.1,0.1c-0.2,0.2,0.1-0.2,0.1-0.1c0.2-0.2,0.4-0.4,0.5-0.7
				c0.1-0.1,0.2-0.2,0.2-0.3c0,0,0,0,0,0c0,0,0,0,0,0c0,0,0,0,0,0c0,0,0.1-0.1,0.1-0.1c0.2-0.2,0,0.1-0.1,0.1c0,0,0,0,0,0
				c0.2-0.2,0.6-0.6,0.7-0.8c0.1-0.2,0.2-0.5,0.3-0.7c-0.1,0.1-0.2,0.2-0.2,0.2c0.1-0.2,0.2-0.4,0.3-0.5c0,0.1-0.1,0.2-0.1,0.3
				c0.3-0.3,0.5-0.6,0.6-0.9c0.1-0.2,0.1-0.5,0.1-0.7c0,0.1-0.1,0.1-0.1,0.2c0.1-0.2,0.1-0.4,0.2-0.6c0,0.1,0,0.3,0,0.4
				c0,0,0.1-0.1,0.1-0.1c0,0,0-0.1,0.1-0.1c0,0,0,0,0,0c-0.1,0.1,0.3-0.4,0.1-0.2c0,0-0.1,0.1-0.1,0.1c0.2-0.2,0.5-0.5,0.7-0.8
				c0.3-0.4,0.4-0.9,0.6-1.4c0.1-0.1,0.2-0.3,0.3-0.4c0,0,0,0,0,0c0,0,0,0,0,0c-0.1,0,0.2-0.4,0.1-0.2c0,0,0,0.1-0.1,0.1
				c0.1-0.1,0.2-0.2,0.3-0.3c0.1-0.1,0.3-0.2,0.4-0.4c0.2-0.4,0.4-1,0.6-1.4c-0.1,0.1-0.1,0.2-0.2,0.2c0.1-0.2,0.2-0.4,0.3-0.5
				c0,0.1-0.1,0.2-0.1,0.3c0.3-0.4,0.7-0.8,1-1.2c0.2-0.3,0.4-0.7,0.4-1c0-0.1,0.1-0.3,0.1-0.4c-0.2,0.1-0.3,0.2-0.5,0.4
				c0.2-0.2,0.4-0.5,0.6-0.7c0,0.1,0,0.2,0,0.4c0,0,0,0,0.1-0.1c0.2-0.1,0.4-0.3,0.5-0.5c0.1-0.2,0.2-0.5,0.2-0.8c0-0.3,0.1-0.6,0-1
				c-0.1-0.4-0.5-0.7-0.7-1c-0.3-0.3-0.6-0.3-1-0.4c-0.1,0-0.2-0.1-0.2-0.1c0.1,0,0.3,0.2,0.1,0.1c-0.1,0-0.1-0.1-0.2-0.1
				c0,0,0,0,0,0c0,0,0,0,0,0c0,0,0,0-0.1,0c-0.1,0-0.2-0.1-0.3-0.2c0,0,0,0,0,0c0.1,0.1,0.3,0.2,0,0c0,0,0,0,0,0c0,0,0,0,0,0
				c0,0,0,0,0,0c-0.3-0.3-0.6-0.5-1-0.7c-0.2-0.1-0.5-0.2-0.7-0.2c0,0,0.1,0,0.1,0c0.3,0.2-0.3-0.1-0.1,0c0,0,0,0,0,0
				c-0.1-0.1-0.3-0.1-0.4-0.2c-0.4-0.2-0.8-0.3-1.3-0.4c-0.1,0-0.3-0.1-0.4-0.2c0,0,0,0,0,0c0,0,0,0,0,0c0,0,0,0,0,0
				c-0.1,0-0.1,0-0.2-0.1c-0.2-0.1,0.1,0,0.2,0.1c0,0,0,0,0,0c-0.1-0.2-0.5-0.4-0.6-0.4c-0.2-0.1-0.5-0.2-0.8-0.3c0,0,0,0,0,0
				c0,0,0,0,0.1,0c0,0,0,0-0.1-0.1c0,0-0.1,0-0.1,0c-0.1,0,0-0.1,0.1,0c-0.1,0-0.2-0.1-0.2-0.1c-0.4-0.2-0.8-0.5-1.2-0.7
				c0,0,0,0-0.1,0c-0.3,0.1-0.6,0.2-0.9,0.2c-0.2,0.2-0.4,0.4-0.7,0.6c-0.4,0.2-0.9,0.1-1.3,0.2c0.2-0.1,0.4-0.2,0.6-0.3
				c-0.2-0.5-0.4-1-0.6-1.5c0.3,0.1,0.6,0.1,0.9,0.2c0.1,0.1,0.3,0.2,0.4,0.3c0.1,0,0.3,0,0.4,0c0.3,0,0.7,0.1,1,0.2
				c0.1,0,0.2,0.1,0.2,0.1c0.3-0.1,0.6-0.2,0.9-0.5C702.4,532.1,702.5,532,702.6,531.9z"/>
			<path class="st20" d="M699.8,552.8c-0.1,0.1-0.3,0.2-0.4,0.3c0,0.1-0.1,0.3-0.1,0.4C699.4,553.3,699.6,553.1,699.8,552.8z"/>
			<path class="st20" d="M708,535.9C708,535.9,708,535.9,708,535.9C708,535.9,708,535.9,708,535.9C708,535.9,708,535.9,708,535.9z"
				/>
			<path class="st20" d="M708.5,536.1C708.5,536.1,708.4,536.1,708.5,536.1C708.4,536,708.4,536,708.5,536.1
				C708.4,536.1,708.5,536.1,708.5,536.1z"/>
			<path class="st20" d="M706.5,535C706.4,535,706.4,535,706.5,535C706.4,535,706.4,535,706.5,535
				C706.1,534.9,706.8,535.2,706.5,535z"/>
			<path class="st20" d="M704.4,534.3C704.4,534.2,704.3,534.2,704.4,534.3C704.3,534.2,704.3,534.2,704.4,534.3
				C704.3,534.2,704.4,534.2,704.4,534.3z"/>
			<path class="st20" d="M708.1,537.9c0,0.1,0,0.1,0,0.2c0,0,0,0,0.1,0C708.1,537.9,708.1,537.9,708.1,537.9z"/>
			<path class="st20" d="M708.1,538.3c0,0,0,0.1,0,0.1c0,0,0.1,0,0.1,0c0,0,0,0,0,0C708.1,538.4,708.1,538.3,708.1,538.3z"/>
			<path class="st20" d="M708,538.7c0-0.1,0.1-0.2,0.1-0.2c0,0-0.1,0-0.1,0C708,538.5,708,538.6,708,538.7z"/>
			<path class="st20" d="M708.5,538.6c-0.1,0-0.1-0.1-0.2-0.1c0,0,0,0.1,0,0.1C708.4,538.5,708.5,538.6,708.5,538.6z"/>
			<path class="st20" d="M708.2,538.4c0,0-0.1-0.1-0.1-0.1c0,0,0,0,0,0C708.1,538.3,708.1,538.4,708.2,538.4
				C708.2,538.4,708.2,538.4,708.2,538.4z"/>
			<path class="st20" d="M708.6,537.7c-0.2,0.1-0.3,0.2-0.5,0.3c0,0.1,0.1,0.2,0.1,0.3C708.4,538.1,708.5,537.9,708.6,537.7z"/>
			<path class="st20" d="M708,538.3C708,538.3,708,538.3,708,538.3C708.1,538.3,708.1,538.3,708,538.3
				C708,538.3,708,538.3,708,538.3z"/>
			<path class="st20" d="M708.4,538.7c0-0.1-0.1-0.1-0.1-0.2c0,0-0.1,0-0.1,0C708.3,538.6,708.4,538.6,708.4,538.7z"/>
			<path class="st20" d="M698.2,534.1C698.2,534.1,698.2,534.1,698.2,534.1c0.1,0.1,0.1,0.1,0.2,0.1
				C698.5,534.2,698,533.9,698.2,534.1z"/>
			<path class="st20" d="M700.5,534.8C700.5,534.8,700.4,534.8,700.5,534.8C700.4,534.8,700.5,534.8,700.5,534.8
				C700.5,534.9,700.5,534.9,700.5,534.8C700.5,534.8,700.5,534.8,700.5,534.8z"/>
			<path class="st20" d="M700,534.7C700,534.7,700,534.7,700,534.7C700,534.7,700,534.7,700,534.7C700,534.7,700,534.7,700,534.7z"
				/>
			<path class="st20" d="M705.9,537.2c0.1,0.1,0.2,0.2,0.3,0.2c0.1,0,0.2,0.1,0.3,0.1C706.3,537.4,706.1,537.3,705.9,537.2z"/>
			<path class="st20" d="M701.2,549.6c0,0-0.1,0.1-0.1,0.1C701,550,701.3,549.5,701.2,549.6z"/>
			<path class="st20" d="M702.6,535.9C702.6,535.9,702.6,535.9,702.6,535.9c0.1,0,0.1,0,0.1,0.1C702.9,536,702.4,535.7,702.6,535.9z
				"/>
			<path class="st20" d="M707,540C707,540,707,540.1,707,540C707,540.1,707,540.1,707,540C707,540.1,707,540.1,707,540z"/>
			<path class="st20" d="M708.2,538.5C708.2,538.5,708.2,538.5,708.2,538.5C708.2,538.5,708.2,538.4,708.2,538.5
				C708.2,538.4,708.2,538.4,708.2,538.5z"/>
			<path class="st20" d="M705.7,542.5c-0.1,0-0.1,0.1-0.2,0.1c0,0.1-0.1,0.3-0.2,0.4C705.5,542.8,705.6,542.6,705.7,542.5z"/>
			<path class="st20" d="M703,547.1c-0.1,0.1-0.2,0.2-0.3,0.3c0,0.2,0,0.4,0,0.5C702.8,547.6,702.9,547.4,703,547.1z"/>
			<path class="st20" d="M702.2,548.4c-0.1,0.1-0.2,0.2-0.2,0.3c0,0.1-0.1,0.2-0.1,0.3C702,548.7,702.1,548.6,702.2,548.4z"/>
			<path class="st20" d="M703.9,545.2C703.9,545.1,703.9,545.1,703.9,545.2C703.9,545.2,703.9,545.2,703.9,545.2
				C703.9,545.2,703.9,545.2,703.9,545.2C703.9,545.2,703.9,545.2,703.9,545.2z"/>
			<path class="st20" d="M708.2,538.4C708.2,538.4,708.2,538.5,708.2,538.4c0.1,0.1,0.1,0.1,0.2,0.1c0,0,0-0.1,0-0.1
				C708.3,538.4,708.2,538.4,708.2,538.4C708.2,538.4,708.2,538.4,708.2,538.4z"/>
			<path class="st20" d="M708.3,538.4c0-0.1,0-0.1-0.1-0.2c0,0,0,0.1-0.1,0.1C708.2,538.4,708.3,538.4,708.3,538.4z"/>
			<path class="st20" d="M707.3,539.6c0,0,0,0,0.1-0.1C707.4,539.3,707.3,539.5,707.3,539.6z"/>
			<path class="st20" d="M708.1,538.3C708,538.3,708,538.3,708.1,538.3C708,538.3,708,538.3,708.1,538.3c0-0.1,0-0.2,0-0.3
				c0,0-0.1,0.1-0.1,0.1c-0.1,0.1-0.2,0.1-0.2,0.2c0.1,0,0.2,0.1,0.3,0.1C708,538.4,708,538.3,708.1,538.3z"/>
			<path class="st20" d="M708.2,538.4C708.2,538.3,708.2,538.3,708.2,538.4c0-0.2,0-0.3-0.1-0.4c0,0,0,0-0.1,0c0,0.1,0,0.2,0,0.2
				C708.1,538.3,708.2,538.3,708.2,538.4z"/>
		</g>
		<g>
			<path class="st20" d="M636.6,528.3c-0.1-0.1-0.2-0.2-0.2-0.3c-0.1,0-0.1-0.1-0.2-0.1C636.4,528.1,636.5,528.2,636.6,528.3z"/>
			<path class="st20" d="M634,525.8C634,525.8,634,525.8,634,525.8c0-0.1,0-0.1,0-0.1C634,525.4,633.9,526,634,525.8z"/>
			<path class="st20" d="M634.3,526.7c-0.1,0-0.1-0.1-0.2-0.1C633.9,526.6,634.3,526.7,634.3,526.7z"/>
			<path class="st20" d="M632.5,525.9c0.2,0.6,0.5,1.2,0.7,1.8c0.1-0.2,0.3-0.4,0.4-0.6c0.1-0.2,0.2-0.4,0.2-0.6
				c-0.1,0-0.2-0.1-0.2-0.1C633.3,526.3,632.9,526.1,632.5,525.9z"/>
			<path class="st20" d="M639.1,529.5c0-0.1-0.1-0.1-0.1-0.2c-0.1,0-0.3-0.1-0.4-0.1C638.8,529.3,639,529.4,639.1,529.5z"/>
			<path class="st20" d="M641.8,534.7C641.8,534.7,641.9,534.7,641.8,534.7c0.1,0,0.1-0.1,0.2-0.1
				C642.1,534.5,641.7,534.6,641.8,534.7z"/>
			<path class="st20" d="M640.9,530.2c0,0-0.1,0-0.1-0.1c0,0-0.1,0-0.1,0C640.6,530.1,641.1,530.2,640.9,530.2z"/>
			<path class="st20" d="M643.4,531.8c-0.1-0.1-0.2-0.3-0.3-0.4c-0.1,0-0.3-0.1-0.4-0.1C642.9,531.4,643.1,531.6,643.4,531.8z"/>
			<path class="st20" d="M637.5,515.7C637.5,515.7,637.5,515.7,637.5,515.7c0-0.1,0-0.1,0-0.1C637.6,515.7,637.5,515.7,637.5,515.7z
				"/>
			<path class="st20" d="M637.5,515.6C637.5,515.6,637.5,515.6,637.5,515.6c0.1-0.1,0.1-0.1,0.1-0.1
				C637.5,515.5,637.5,515.6,637.5,515.6z"/>
			<path class="st20" d="M637.6,515.5C637.6,515.5,637.6,515.5,637.6,515.5C637.6,515.5,637.6,515.5,637.6,515.5
				C637.6,515.5,637.6,515.5,637.6,515.5C637.6,515.5,637.6,515.5,637.6,515.5z"/>
			<path class="st20" d="M636.9,517.5C636.9,517.5,636.9,517.5,636.9,517.5C636.9,517.5,636.9,517.5,636.9,517.5
				C636.9,517.5,636.9,517.5,636.9,517.5z"/>
			<path class="st20" d="M635.3,522.3c0-0.1,0-0.1,0-0.2C635.3,521.8,635.2,522.4,635.3,522.3z"/>
			<path class="st20" d="M634.7,523.4c-0.1,0.3-0.2,0.6-0.4,0.9c0.1-0.1,0.2-0.2,0.4-0.4C634.7,523.7,634.7,523.6,634.7,523.4z"/>
			<path class="st20" d="M635.3,521.8c0,0,0.1-0.1,0.1-0.1c0,0,0,0,0,0C635.4,521.4,635.4,521.7,635.3,521.8z"/>
			<path class="st20" d="M633.9,525.7c0.1-0.1,0.2-0.2,0.2-0.3c0-0.1,0-0.2,0.1-0.2C634.1,525.3,634,525.5,633.9,525.7z"/>
			<path class="st20" d="M633.9,538.3C633.9,538.3,633.9,538.3,633.9,538.3c0.1,0,0.2-0.1,0.2-0.1c0.1-0.1,0.2-0.1,0.3-0.2
				C634.3,538.1,634.1,538.2,633.9,538.3z"/>
			<path class="st20" d="M639,547.9c0-0.2,0-0.3,0-0.5c-0.1-0.1-0.2-0.2-0.3-0.4C638.7,547.4,638.9,547.7,639,547.9z"/>
			<path class="st20" d="M637.9,545.9c0-0.2,0-0.3,0-0.5c-0.1-0.1-0.2-0.2-0.3-0.3C637.6,545.4,637.8,545.7,637.9,545.9z"/>
			<path class="st20" d="M636.9,544c0-0.1-0.1-0.2-0.1-0.2c-0.1-0.1-0.2-0.1-0.3-0.2C636.6,543.7,636.8,543.9,636.9,544z"/>
			<path class="st20" d="M634.5,539.5C634.5,539.5,634.5,539.5,634.5,539.5c0-0.1-0.1-0.1-0.1-0.2
				C634.5,539.4,634.5,539.8,634.5,539.5z"/>
			<path class="st20" d="M642,552.9c0-0.1-0.1-0.2-0.1-0.3c-0.1-0.1-0.1-0.1-0.2-0.2C641.8,552.5,641.9,552.7,642,552.9z"/>
			<path class="st20" d="M635.1,540.9C635.1,540.9,635.1,540.9,635.1,540.9c0-0.1-0.1-0.2-0.1-0.2
				C635,540.8,635.1,541.1,635.1,540.9z"/>
			<path class="st20" d="M644.4,556.8c0-0.2-0.1-0.3-0.2-0.5c-0.1-0.1-0.3-0.2-0.4-0.3C644.1,556.3,644.3,556.5,644.4,556.8z"/>
			<path class="st20" d="M642.7,553.6c-0.1,0,0.2,0.3,0.1,0.2C642.8,553.7,642.8,553.7,642.7,553.6
				C642.8,553.6,642.7,553.6,642.7,553.6z"/>
			<path class="st20" d="M636.8,528.1C636.9,528.2,637,528.2,636.8,528.1L636.8,528.1z"/>
			<path class="st20" d="M643.8,555.4c0,0,0-0.1,0-0.1c0,0,0,0,0,0c0,0,0,0,0-0.1C643.6,555,643.8,555.5,643.8,555.4z"/>
			<path class="st20" d="M633.6,538.1c-0.1,0.1-0.1,0.2-0.2,0.3c0.1,0.1,0.1,0.2,0.2,0.3c0,0,0,0,0,0
				C633.7,538.4,633.7,538.3,633.6,538.1C633.6,538.1,633.6,538.1,633.6,538.1z"/>
			<path class="st20" d="M633.9,538.3C633.9,538.3,633.9,538.3,633.9,538.3c0-0.1-0.1-0.1-0.2-0.2c0,0-0.1,0-0.1-0.1
				c0,0.2,0,0.3,0,0.5C633.8,538.5,633.9,538.4,633.9,538.3C634,538.4,633.9,538.3,633.9,538.3C633.9,538.3,633.9,538.3,633.9,538.3
				z"/>
			<path class="st20" d="M634,538.4c0.1,0,0.1-0.1,0.2-0.1C634.1,538.3,634,538.3,634,538.4C633.9,538.3,634,538.4,634,538.4z"/>
			<path class="st20" d="M633.9,538.3C633.9,538.3,633.9,538.3,633.9,538.3C633.9,538.3,633.9,538.3,633.9,538.3
				C633.9,538.3,633.9,538.3,633.9,538.3z"/>
			<path class="st20" d="M639.4,535.7c0.1-0.1-0.2,0.2-0.2,0.2c0,0,0,0,0,0c0,0,0,0,0,0C639.3,535.8,639.4,535.7,639.4,535.7z"/>
			<path class="st20" d="M636,537.2c0.1,0,0.2-0.1,0.3-0.1c0.1-0.1,0.1-0.1,0.2-0.2C636.3,537,636.2,537.1,636,537.2z"/>
			<path class="st20" d="M633,539.1c0.2-0.1,0.4-0.3,0.6-0.4c-0.1-0.1-0.1-0.2-0.2-0.3C633.3,538.6,633.2,538.8,633,539.1z"/>
			<path class="st20" d="M633.7,538.7c0,0,0-0.1,0-0.1C633.7,538.6,633.6,538.6,633.7,538.7C633.6,538.7,633.7,538.7,633.7,538.7z"
				/>
			<path class="st20" d="M639.6,535.6c0,0,0.1,0,0.1,0c0,0,0,0,0.1,0C640,535.4,639.5,535.6,639.6,535.6z"/>
			<path class="st20" d="M633.1,537.7c0.1,0.2,0.3,0.5,0.4,0.7c0.1-0.1,0.1-0.2,0.2-0.3C633.4,537.9,633.3,537.8,633.1,537.7z"/>
			<path class="st20" d="M633.6,538C633.6,538,633.6,538.1,633.6,538C633.6,538.1,633.6,538.1,633.6,538
				C633.6,538.1,633.6,538.1,633.6,538z"/>
			<path class="st20" d="M637.6,515.5C637.6,515.5,637.6,515.5,637.6,515.5c0,0,0.1-0.1,0.1-0.1c0-0.1,0.1-0.2,0.1-0.3
				C637.7,515.2,637.6,515.4,637.6,515.5z"/>
			<path class="st20" d="M637.6,534.2c-0.1,0-0.2,0.1-0.3,0.1c-0.1,0.1-0.2,0.1-0.3,0.2C637.3,534.4,637.5,534.3,637.6,534.2z"/>
			<path class="st20" d="M632.7,541C632.7,541,632.7,541,632.7,541C632.9,541.3,632.6,540.7,632.7,541z"/>
			<path class="st20" d="M640.9,532.5c-0.1,0-0.1,0.1-0.2,0.1c0.1,0,0.3,0.1,0.4,0.1C641,532.6,641,532.5,640.9,532.5z"/>
			<polygon class="st20" points="632.3,536.6 632.3,536.6 632.3,536.6 			"/>
			<path class="st20" d="M632,539.5c0,0.1,0.1,0.3,0.1,0.4c0.1,0.1,0.3,0.2,0.4,0.3C632.3,540,632.2,539.8,632,539.5z"/>
			<path class="st20" d="M634.7,535.4c-0.1,0-0.2,0.1-0.4,0.1c-0.1,0.1-0.1,0.1-0.2,0.2C634.4,535.6,634.6,535.5,634.7,535.4z"/>
			<path class="st20" d="M642.7,532.1C642.7,532.1,642.7,532.1,642.7,532.1C642.7,532.1,642.7,532.1,642.7,532.1z"/>
			<path class="st20" d="M642.6,532.1C642.6,532.1,642.6,532.1,642.6,532.1c-0.1,0-0.1,0.1-0.2,0.1
				C642.5,532.2,642.6,532.1,642.6,532.1z"/>
			<path class="st20" d="M641.5,532.8c-0.2-0.1-0.4-0.3-0.5-0.4c0,0,0,0-0.1,0c0.1,0.1,0.1,0.2,0.2,0.2
				C641.2,532.7,641.4,532.8,641.5,532.8z"/>
			<path class="st20" d="M641.1,532.7c0,0.1,0.1,0.1,0.1,0.2c0.3,0.4,0.6,0.6,1,0.7c0.4,0.1,0.8,0.3,1.3,0.4
				c-0.1-0.7-0.2-1.5-0.3-2.2c-0.2,0.1-0.4,0.2-0.5,0.2c0,0,0,0,0,0c-0.1,0-0.2,0.1-0.2,0.1c0.1-0.1,0.2-0.1,0.2-0.1c0,0,0,0-0.1,0
				c-0.1,0-0.2,0-0.3,0.1c-0.1,0-0.2,0-0.3,0.1c-0.3,0-0.5,0-0.8,0.1c-0.1,0-0.1,0-0.2,0.1c0.2,0.1,0.4,0.3,0.5,0.4
				C641.4,532.8,641.2,532.7,641.1,532.7z"/>
			<path class="st20" d="M640.4,554.4c0,0,0.1,0.1,0.1,0.1c0,0,0,0,0,0C640.5,554.5,640.4,554.5,640.4,554.4z"/>
			<path class="st20" d="M642.8,557.9c0,0.1,0.1,0.3,0.1,0.4c0.1,0.1,0.3,0.2,0.4,0.3C643.2,558.4,643,558.1,642.8,557.9z"/>
			<path class="st20" d="M641.9,556.7c0,0,0,0.1,0,0.1c0,0,0,0,0,0.1C642.1,557.1,641.9,556.6,641.9,556.7z"/>
			<path class="st20" d="M641.2,555.3c0,0.1,0.1,0.2,0.1,0.3c0.1,0.1,0.1,0.1,0.2,0.2C641.5,555.6,641.3,555.5,641.2,555.3z"/>
			<path class="st20" d="M644.8,556.7c-0.2-0.2-0.3-0.3-0.5-0.4c0.1,0.2,0.1,0.3,0.2,0.5c-0.2-0.2-0.4-0.5-0.6-0.7
				c0.1,0.1,0.3,0.2,0.4,0.3c-0.1-0.3-0.2-0.6-0.4-0.9c-0.1-0.1-0.1-0.2-0.2-0.3c0,0,0,0,0,0c0,0,0,0.1,0,0.1c0,0.1-0.2-0.4-0.1-0.2
				c0,0,0,0,0,0.1c-0.1-0.3-0.2-0.6-0.3-0.8c-0.1-0.3-0.4-0.4-0.6-0.6c0,0,0,0-0.1-0.1c0,0,0.1,0.1,0.1,0.1c0,0.1-0.2-0.2-0.1-0.2
				c0,0,0,0,0.1,0.1c0-0.1-0.1-0.1-0.1-0.2c-0.2-0.3-0.5-0.6-0.7-0.9c0,0.1,0.1,0.2,0.1,0.3c-0.1-0.2-0.2-0.4-0.3-0.5
				c0.1,0.1,0.1,0.1,0.2,0.2c-0.1-0.1-0.1-0.3-0.1-0.4c-0.1-0.4-0.1-0.7-0.3-1.1c-0.2-0.4-0.5-0.9-0.8-1.3c-0.1-0.2-0.3-0.4-0.5-0.6
				c-0.1-0.2-0.2-0.5-0.3-0.7c-0.2-0.3-0.5-0.5-0.8-0.8c-0.1-0.1-0.1-0.1-0.2-0.2c0,0.2,0,0.3,0,0.5c-0.1-0.3-0.2-0.6-0.4-0.9
				c0.1,0.1,0.2,0.2,0.3,0.4c0-0.1,0-0.2,0-0.2c0-0.5-0.2-0.8-0.5-1.1c-0.2-0.2-0.4-0.4-0.6-0.7c0,0.2,0,0.4,0,0.5
				c-0.1-0.3-0.2-0.6-0.4-0.9c0.1,0.1,0.2,0.2,0.3,0.3c0-0.3-0.1-0.7-0.2-0.9c-0.2-0.3-0.5-0.5-0.8-0.7c0,0.1,0.1,0.2,0.1,0.2
				c-0.1-0.1-0.3-0.3-0.4-0.4c0.1,0.1,0.2,0.1,0.3,0.2c-0.4-0.7-0.9-1.4-1.3-2.2c-0.1-0.2-0.2-0.4-0.3-0.5c0-0.1-0.1-0.1-0.1-0.2
				c0,0,0,0,0,0.1c0,0.2-0.1-0.2-0.1-0.2c0,0,0.1,0.1,0.1,0.1c0-0.1,0-0.1,0-0.2c-0.1-0.3-0.1-0.6-0.3-0.9c-0.1-0.1-0.2-0.3-0.3-0.4
				c0,0,0,0,0,0c0,0,0,0.1,0,0.1c0.1,0.2,0-0.1-0.1-0.2c0,0,0,0,0.1,0.1c-0.1-0.4-0.2-0.8-0.5-1.1c-0.1,0.1-0.2,0.2-0.3,0.2
				c0,0,0,0.1,0,0.1c0,0,0,0,0-0.1c-0.2,0.1-0.4,0.3-0.6,0.4c0.1-0.2,0.3-0.5,0.4-0.7c-0.1-0.2-0.3-0.5-0.4-0.7
				c0.2,0.1,0.4,0.3,0.6,0.4c0,0,0,0,0,0c0,0,0,0,0,0c0,0,0.1,0,0.1,0.1c0.1,0.1,0.1,0.1,0.2,0.2c0.2-0.1,0.3-0.2,0.5-0.3
				c-0.1,0.1-0.2,0.1-0.3,0.2c0.3-0.1,0.6-0.3,1-0.4c0.3-0.1,0.6-0.3,0.9-0.5c0.1-0.1,0.2-0.2,0.3-0.3c-0.1,0-0.2,0.1-0.3,0.1
				c0.2-0.1,0.4-0.2,0.5-0.3c-0.1,0.1-0.1,0.1-0.2,0.2c0.1-0.1,0.3-0.1,0.4-0.1c0.3-0.1,0.6-0.1,0.8-0.2c0.4-0.1,0.9-0.3,1.2-0.6
				c0.1-0.1,0.3-0.2,0.4-0.3c0,0,0,0,0,0c0,0,0.3-0.2,0.2-0.2c-0.1,0-0.1,0.1-0.2,0.1c0,0,0,0,0,0c0,0,0.1,0,0.1-0.1
				c0.1-0.1,0.3-0.1,0.4-0.2c0,0-0.1,0-0.1,0c-0.1,0,0.4-0.2,0.2-0.1c0,0,0,0-0.1,0c0,0,0.1,0,0.1-0.1c0.3-0.1,0.6-0.2,0.8-0.3
				c0.4-0.1,0.7-0.3,1-0.5c0,0,0,0,0.1,0c0,0,0,0,0,0c-0.1,0,0.3-0.2,0.2-0.1c0,0-0.1,0.1-0.1,0.1c0.1,0,0.4-0.1,0.5-0.1
				c0.3,0,0.6-0.1,0.9-0.2c0.4-0.1,0.8-0.3,1.1-0.5c0.4-0.2,0.6-0.8,0.6-1.2c-0.1-0.5-0.4-0.8-0.9-1c-0.4-0.1-0.7-0.3-1.1-0.4
				c0.1,0.1,0.2,0.3,0.3,0.4c-0.2-0.2-0.5-0.4-0.7-0.6c0.1,0,0.3,0.1,0.4,0.1c0-0.1-0.1-0.1-0.1-0.2c-0.3-0.4-0.5-0.6-1-0.7
				c-0.4-0.2-0.8-0.3-1.3-0.4c0,0,0,0,0,0c0,0,0.1,0,0.1,0c0,0,0.1,0,0.1,0.1c0.1,0.1-0.3-0.1-0.2-0.1c-0.1,0-0.2-0.1-0.3-0.1
				c-0.2-0.1-0.3-0.1-0.5-0.2c-0.3-0.2-0.6-0.3-1-0.4c0,0.1,0.1,0.1,0.1,0.2c-0.2-0.1-0.4-0.2-0.5-0.3c0.1,0,0.3,0.1,0.4,0.1
				c-0.1-0.2-0.2-0.3-0.4-0.5c-0.4-0.4-0.8-0.3-1.3-0.5c-0.2-0.1-0.5-0.2-0.7-0.3c0,0,0.1,0,0.1,0c0,0-0.1,0-0.2-0.1
				c-0.1,0-0.1-0.1-0.2-0.1c0.1,0.1,0.1,0.2,0.2,0.3c-0.1-0.1-0.3-0.3-0.4-0.4c0.1,0,0.1,0.1,0.2,0.1c-0.3-0.4-0.5-0.7-1-0.9
				c-0.3-0.1-0.6-0.3-1-0.4c-0.1,0-0.2-0.1-0.3-0.1c0,0-0.1,0-0.1,0c0.1,0,0.1,0.1,0.2,0.1c0.1,0-0.3-0.1-0.2-0.1c0,0-0.1,0-0.1-0.1
				c0,0.2-0.1,0.4-0.2,0.6c-0.1,0.2-0.3,0.4-0.4,0.6c-0.2-0.6-0.5-1.2-0.7-1.8c0.4,0.2,0.8,0.3,1.2,0.5c0.1,0,0.2,0.1,0.2,0.1
				c0-0.1,0-0.2,0-0.4c0-0.1,0-0.2,0-0.4c0,0,0,0,0,0c-0.1,0.2,0-0.5,0-0.1c0,0,0,0.1,0,0.1c0-0.1,0.1-0.3,0.1-0.4
				c-0.1,0.1-0.2,0.2-0.2,0.3c0.1-0.2,0.2-0.4,0.3-0.5c0,0.1,0,0.2-0.1,0.2c0.2-0.2,0.4-0.5,0.5-0.7c0.1-0.2,0.1-0.5,0.1-0.8
				c-0.1,0.1-0.2,0.3-0.4,0.4c0.1-0.3,0.2-0.6,0.4-0.9c0,0.2,0,0.3,0,0.5c0.2-0.2,0.4-0.5,0.5-0.8c0.1-0.2,0-0.5,0-0.7
				c0-0.1,0-0.2,0-0.3c0,0,0,0,0,0c0,0.1,0,0.1,0,0.2c0,0.1,0-0.4,0-0.2c0-0.1,0-0.3,0.1-0.4c0,0.1-0.1,0.1-0.1,0.1
				c0.1-0.1,0.1-0.4,0.1-0.1c0,0,0,0,0,0c0,0,0-0.1,0-0.1c0.2-0.4,0.4-0.7,0.5-1.1c0.1-0.3,0.1-0.6,0.2-1c0.1-0.3,0.2-0.6,0.3-0.8
				c-0.2,0.6,0,0,0.1-0.2c0.1-0.2,0.2-0.4,0.3-0.6c0.1-0.1,0.1-0.3,0.2-0.4c0,0,0,0,0,0c0,0,0,0,0,0c0,0,0-0.1,0.1-0.1
				c0.1-0.3,0,0.1-0.1,0.1c0,0,0,0,0,0c0.1,0,0.1-0.2,0.2-0.2c0.2-0.2,0.4-0.4,0.4-0.7c0.1-0.2,0-0.5,0.1-0.8c0,0,0-0.1,0-0.1
				c0,0,0,0,0,0c0,0,0,0.1,0,0c0,0,0-0.1,0-0.1c0,0,0-0.1,0-0.1c0,0,0,0.1-0.1,0.1c0,0,0-0.1,0.1-0.1c0,0,0,0,0,0c0,0,0,0,0,0
				c0.1-0.1,0.2-0.3,0.2-0.4c0,0.1-0.1,0.2-0.1,0.3c0.1-0.2,0.3-0.3,0.4-0.5c0.2-0.3,0.3-0.8,0.3-1.2c0,0,0,0,0-0.3
				c0,0.1,0,0.2,0,0.3c0-0.1,0-0.3,0-0.4c0-0.1,0-0.2,0.1-0.4c0.1-0.3,0.1-0.5,0.2-0.8c0-0.2,0.1-0.3,0.1-0.5c0,0,0,0-0.1,0.1
				c0,0,0-0.1,0.1-0.1c0,0,0,0,0,0c0-0.1,0.1-0.1,0-0.1c0.1-0.3,0.3-0.5,0.4-0.7c0.4-0.6,0.6-1.2,0.8-1.8c0.2-0.6,0.3-1.1,0.3-1.7
				c0,0.1-0.1,0.1-0.1,0.2c0.1-0.2,0.1-0.4,0.2-0.6c0,0.1,0,0.3,0,0.4c0.1-0.1,0.2-0.2,0.2-0.4c0.2-0.3,0.2-0.6,0.2-1
				c0-0.1,0-0.2,0-0.3c-0.1,0.1,0-0.1,0-0.2c0,0,0,0.1-0.1,0.1c0.1-0.2,0.2-0.4,0.3-0.5c0,0.1-0.1,0.2-0.1,0.3
				c0.1-0.1,0.2-0.3,0.3-0.4c0.4-0.5,0.5-1.2,0-1.7c-0.4-0.4-1.3-0.5-1.7,0c-0.2,0.2-0.3,0.3-0.5,0.5c-0.2,0.3-0.4,0.6-0.5,0.9
				c-0.1,0.4-0.2,0.7-0.2,1.1c0-0.1,0.1-0.1,0.1-0.2c-0.1,0.2-0.1,0.4-0.2,0.6c0-0.1,0-0.3,0-0.4c-0.2,0.3-0.4,0.6-0.5,0.9
				c0,0.2,0,0.3,0,0.5c0,0.1,0,0.1,0,0.2c0,0,0,0,0,0c0,0,0,0.5,0,0.2c0,0,0-0.1,0-0.1c-0.1,0.1-0.1,0.4-0.1,0.5
				c0,0.1-0.1,0.2-0.1,0.3c-0.1,0.3-0.2,0.5-0.3,0.8c0,0.1-0.1,0.2-0.1,0.3c0.1,0-0.2,0.4-0.1,0.2c0-0.1,0-0.1,0.1-0.2c0,0,0,0,0,0
				c-0.1,0-0.1,0.2-0.1,0.2c-0.2,0.2-0.3,0.5-0.4,0.7c-0.3,0.6-0.5,1.2-0.6,1.8c-0.1,0.5-0.2,1.1-0.3,1.7c0.1-0.1,0.2-0.3,0.3-0.4
				c-0.1,0.3-0.2,0.6-0.4,0.9c0-0.2,0-0.3,0.1-0.5c0,0.1-0.1,0.1-0.1,0.2c-0.2,0.3-0.4,0.6-0.5,0.9c-0.1,0.4-0.2,0.7-0.2,1.1
				c0.1-0.1,0.1-0.1,0.2-0.2c-0.1,0.2-0.1,0.4-0.2,0.6c0-0.1,0-0.3,0-0.4c-0.1,0.1-0.2,0.3-0.3,0.4c-0.1,0.3-0.2,0.6-0.3,0.9
				c0,0,0,0,0,0c0.1-0.3-0.2,0.4,0,0.1c0,0,0,0,0,0c-0.1,0.1-0.1,0.3-0.2,0.4c-0.1,0.3-0.2,0.6-0.3,0.8c-0.2,0.4-0.2,0.8-0.3,1.2
				c0,0.1-0.1,0.3-0.1,0.4c0,0,0,0,0,0c0.2-0.3-0.1,0.4,0,0c0,0,0,0,0,0c-0.2,0.3-0.4,0.5-0.5,0.8c-0.1,0.4-0.1,0.9-0.2,1.4
				c0.1-0.1,0.2-0.2,0.3-0.4c-0.1,0.3-0.2,0.6-0.4,0.9c0-0.2,0-0.3,0-0.5c-0.2,0.2-0.4,0.4-0.5,0.6c-0.1,0.3-0.1,0.6-0.1,0.8
				c0.1-0.1,0.2-0.3,0.4-0.4c-0.1,0.3-0.2,0.6-0.4,0.9c0-0.1,0-0.3,0-0.4c0,0-0.1,0.1-0.1,0.1c-0.2,0.3-0.4,0.6-0.5,0.9
				c-0.1,0.4-0.2,0.7-0.2,1.1c0-0.1,0.1-0.1,0.1-0.2c-0.1,0.2-0.1,0.4-0.2,0.6c0-0.1,0-0.3,0-0.4c-0.1,0.2-0.3,0.4-0.4,0.5
				c-0.2,0.3-0.2,0.7-0.1,1.1c0.2,0.4,0.4,0.5,0.8,0.7c0.3,0.1,0.5,0.2,0.8,0.3c-0.6-0.2-0.1,0,0,0c0.1,0.1,0.3,0.1,0.4,0.2
				c0.4,0.2,0.8,0.3,1.3,0.5c-0.1-0.1-0.2-0.3-0.3-0.4c0.2,0.2,0.5,0.4,0.7,0.6c-0.2-0.1-0.3-0.1-0.5-0.2c0.1,0.1,0.1,0.2,0.2,0.3
				c0.3,0.4,0.7,0.5,1.1,0.7c0.5,0.2,0.9,0.4,1.4,0.5c-0.1-0.1-0.1-0.1-0.2-0.2c0.2,0.1,0.4,0.2,0.5,0.3c-0.1,0-0.2-0.1-0.3-0.1
				c0.1,0.1,0.2,0.2,0.3,0.3c0.2,0.2,0.5,0.4,0.8,0.5c0.1,0,0.2,0.1,0.4,0.1c0,0,0,0,0,0c-0.2-0.1,0.4,0.1,0.1,0c0,0,0,0,0,0
				c0.2,0.1,0.4,0.2,0.5,0.3c0.5,0.3,1.1,0.4,1.6,0.6c0.1,0,0.1-0.1,0.2-0.1c0-0.1-0.1-0.1-0.1-0.2c0.1,0,0.1,0.1,0.2,0.1
				c0.1,0,0.1-0.1,0.2-0.1c0.3-0.1,0.5-0.1,0.8-0.1c0.1,0,0.2,0,0.3-0.1c0.1,0,0.2,0,0.3-0.1c0,0,0,0,0.1,0c0,0,0,0,0.1,0
				c0.2-0.1,0.4-0.2,0.5-0.2c0.1,0.7,0.2,1.5,0.3,2.2c-0.4-0.2-0.8-0.3-1.3-0.4c-0.4-0.1-0.8-0.3-1-0.7c0-0.1-0.1-0.1-0.1-0.2
				c-0.1,0-0.3-0.1-0.4-0.1c-0.1,0-0.1,0.1-0.2,0.1c-0.1,0-0.6,0.3-0.2,0.1c0.3-0.1-0.2,0.1-0.3,0.1c-0.1,0-0.2,0.1-0.3,0.1
				c-0.3,0.1-0.7,0.2-1,0.4c-0.5,0.2-0.9,0.5-1.3,0.8c0.1,0,0.2-0.1,0.3-0.1c-0.2,0.1-0.4,0.2-0.5,0.3c0.1-0.1,0.2-0.1,0.3-0.2
				c-0.2,0.1-0.3,0.1-0.5,0.2c-0.3,0.1-0.5,0.1-0.8,0.1c-0.4,0.1-1,0.3-1.3,0.6c-0.1,0.1-0.3,0.3-0.4,0.4c0.1,0,0.2-0.1,0.4-0.1
				c-0.2,0.1-0.4,0.2-0.5,0.3c0.1-0.1,0.1-0.1,0.2-0.2c-0.3,0.1-0.6,0.2-0.9,0.3c-0.3,0.1-0.6,0.3-0.9,0.5c-0.1,0.1-0.2,0.2-0.3,0.3
				c0,0,0,0,0,0c0,0,0,0,0,0c0,0,0,0,0,0c-0.2,0.1-0.3,0.2,0,0c0,0,0,0,0,0c-0.2,0.2-0.5,0.3-0.7,0.5c-0.4,0.4-0.4,0.9-0.3,1.4
				c0,0.3,0,0.5,0.2,0.8c0.1,0.2,0.3,0.4,0.5,0.5c0,0,0.1,0.1,0.1,0.1c0-0.1-0.1-0.3-0.1-0.4c0.2,0.2,0.4,0.5,0.6,0.7
				c-0.1-0.1-0.3-0.2-0.4-0.3c0.1,0.4,0.3,0.8,0.6,1.2c0,0,0,0,0,0c0,0,0,0,0-0.1c-0.1-0.3,0.2,0.3,0,0.1c0,0.1,0.1,0.3,0.1,0.4
				c0.1,0.3,0.2,0.6,0.4,0.8c0.2,0.4,0.4,0.8,0.6,1.1c0.2,0.4,0.5,0.8,0.7,1.1c0.2,0.4,0.4,0.8,0.8,1.1c0.1,0,0.1,0.1,0.2,0.1
				c0-0.2,0-0.5-0.1-0.7c0.2,0.3,0.4,0.7,0.6,1c-0.2-0.1-0.3-0.2-0.5-0.4c0,0,0,0,0,0c0.1,0.5,0.2,0.8,0.5,1.2
				c0.2,0.2,0.4,0.4,0.6,0.6c0-0.2,0-0.3,0-0.5c0.1,0.3,0.2,0.6,0.4,0.9c-0.1-0.1-0.2-0.2-0.3-0.4c0,0.2,0,0.5,0.1,0.7
				c0.1,0.4,0.6,0.8,0.8,1.1c0.1,0.1,0.2,0.2,0.3,0.3c0,0,0.1,0,0.1,0c0,0,0,0,0,0.1c0,0,0.1,0.1,0.1,0.1c0,0-0.1,0-0.1-0.1
				c0,0,0,0,0,0c0.1,0.3,0.3,0.6,0.5,0.9c0.2,0.3,0.4,0.5,0.5,0.8c0.1,0.2,0.2,0.5,0.4,0.7c0,0,0,0,0,0c-0.1-0.1-0.1-0.2,0,0
				c0,0,0,0,0,0c0,0,0,0.1,0.1,0.1c0,0,0,0-0.1-0.1c0,0.1,0,0.2,0.1,0.3c0,0.1,0.1,0.2,0.1,0.3c0.2,0.5,0.3,0.9,0.7,1.3
				c0.1,0.1,0.2,0.2,0.2,0.3c0-0.1,0-0.1,0,0c0,0,0.1,0.1,0.1,0.1c0,0,0,0,0,0c0,0,0,0,0.1,0.1c0,0,0,0-0.1,0
				c0.1,0.1,0.1,0.2,0.2,0.3c0.2,0.3,0.4,0.5,0.7,0.8c0-0.1-0.1-0.2-0.1-0.3c0.1,0.2,0.2,0.4,0.3,0.5c-0.1-0.1-0.1-0.1-0.2-0.2
				c0.1,0.2,0.2,0.5,0.3,0.7c0.1,0.1,0.1,0.2,0.2,0.4c0,0.1,0.1,0.1,0.1,0.2c0,0,0-0.1,0-0.1c0-0.2,0.2,0.4,0.1,0.2c0,0,0,0,0-0.1
				c0.1,0.5,0.3,1,0.8,1.3c0.1,0.1,0.2,0.1,0.3,0.2c0-0.1-0.1-0.3-0.1-0.4c0.2,0.2,0.4,0.5,0.6,0.7c-0.1-0.1-0.3-0.2-0.4-0.3
				c0,0.1,0.1,0.2,0.1,0.3c0.2,0.6,0.8,1,1.5,0.8c0.6-0.2,1-0.9,0.8-1.5C645.2,557.6,645.2,557,644.8,556.7z"/>
			<path class="st20" d="M635.4,545.1c0,0.2,0,0.5,0.1,0.7c0.2,0.1,0.3,0.2,0.5,0.4C635.8,545.8,635.6,545.5,635.4,545.1z"/>
			<path class="st20" d="M636.5,547.1c0,0.2,0,0.3,0,0.5c0.1,0.1,0.2,0.2,0.3,0.4C636.8,547.7,636.7,547.4,636.5,547.1z"/>
			<path class="st20" d="M637.9,549.8c0,0-0.1-0.1-0.1-0.1C637.7,549.7,637.8,549.8,637.9,549.8
				C637.9,549.8,637.9,549.8,637.9,549.8C637.9,549.8,637.9,549.8,637.9,549.8z"/>
			<path class="st20" d="M640.8,532.3c0,0.1,0.1,0.1,0.1,0.2c0,0,0,0,0.1,0C640.9,532.4,640.8,532.3,640.8,532.3z"/>
			<path class="st20" d="M639.3,552.2C639.3,552.2,639.3,552.2,639.3,552.2C639.3,552.3,639.4,552.3,639.3,552.2
				C639.4,552.3,639.3,552.2,639.3,552.2z"/>
			<path class="st20" d="M636.9,530.6c0.1,0.1,0.1,0.1,0.2,0.2c0.1,0,0.2,0.1,0.3,0.1C637.3,530.8,637.1,530.7,636.9,530.6z"/>
			<path class="st20" d="M640.9,505.5C641,505.4,641,505.4,640.9,505.5C641,505.4,641,505.4,640.9,505.5c0.1-0.1,0.2-0.2,0.2-0.2
				c0-0.1,0.1-0.2,0.1-0.3C641.1,505.1,641,505.3,640.9,505.5z"/>
			<path class="st20" d="M638.5,531.7C638.5,531.7,638.5,531.7,638.5,531.7C638.5,531.7,638.5,531.7,638.5,531.7
				C638.9,531.8,638.2,531.5,638.5,531.7z"/>
			<path class="st20" d="M641,505.4C641,505.4,641,505.4,641,505.4c0,0.1-0.1,0.3,0,0.2C641,505.5,641,505.5,641,505.4
				C641,505.4,641,505.4,641,505.4z"/>
			<path class="st20" d="M638.7,505.5c0,0.1-0.1,0.1-0.1,0.2c0,0.1,0,0.3,0,0.4C638.6,505.9,638.7,505.7,638.7,505.5z"/>
			<path class="st20" d="M638.1,507.3C638.1,507.3,638.1,507.3,638.1,507.3c0,0.1,0,0.1,0,0.2C638.1,507.7,638.1,507.3,638.1,507.3z
				"/>
			<path class="st20" d="M641,505.4C641,505.4,641,505.4,641,505.4C641,505.4,641,505.4,641,505.4z"/>
			<path class="st20" d="M637.5,509.2c0,0.1,0,0.1-0.1,0.2C637.3,509.6,637.5,509.2,637.5,509.2z"/>
			<path class="st20" d="M638.8,511.6C638.8,511.6,638.8,511.6,638.8,511.6c0,0,0.1-0.1,0.1-0.1
				C638.9,511.5,638.9,511.5,638.8,511.6C638.9,511.5,638.9,511.5,638.8,511.6z"/>
			<path class="st20" d="M638.4,513.6c0-0.1,0-0.2,0-0.3C638.4,513.6,638.4,513.7,638.4,513.6z"/>
			<path class="st20" d="M640.4,507.4c0-0.1,0.1-0.1,0.1-0.2c0-0.1,0-0.3,0-0.4C640.5,507,640.4,507.2,640.4,507.4z"/>
			<path class="st20" d="M641,505.5c0,0,0,0.1,0,0.1c0,0,0,0,0,0c0.1-0.1,0.1-0.2,0.1-0.4C641.1,505.3,641.1,505.3,641,505.5
				C641,505.4,641,505.4,641,505.5z"/>
			<path class="st20" d="M634.1,528.8c0.1,0.1,0.2,0.3,0.3,0.4c0.2,0.1,0.3,0.1,0.5,0.2C634.6,529.2,634.3,529,634.1,528.8z"/>
			<path class="st20" d="M636.3,513.3c-0.1,0.1-0.2,0.3-0.3,0.4c0,0.2,0,0.3-0.1,0.5C636.1,513.8,636.2,513.6,636.3,513.3z"/>
			<path class="st20" d="M632.3,524.2c0.1-0.3,0.2-0.6,0.4-0.9c-0.1,0.1-0.2,0.3-0.4,0.4C632.3,523.9,632.3,524.1,632.3,524.2z"/>
			<path class="st20" d="M637.6,515.6C637.6,515.6,637.6,515.7,637.6,515.6C637.6,515.7,637.6,515.7,637.6,515.6
				c0.1-0.1,0.1-0.2,0.1-0.2C637.6,515.4,637.6,515.5,637.6,515.6C637.6,515.6,637.6,515.6,637.6,515.6z"/>
			<path class="st20" d="M631.7,525.8c0,0.1-0.1,0.1-0.1,0.2c0,0.1,0,0.3,0,0.4C631.6,526.2,631.7,526,631.7,525.8z"/>
			<path class="st20" d="M634.5,517.1C634.5,517.1,634.5,517.1,634.5,517.1C634.5,517.2,634.5,517.2,634.5,517.1
				C634.3,517.5,634.6,516.8,634.5,517.1z"/>
			<path class="st20" d="M635.3,515.7c0,0.1-0.1,0.1-0.2,0.2c0,0.1,0,0.3,0,0.4C635.2,516.1,635.2,515.9,635.3,515.7z"/>
			<path class="st20" d="M633.2,521.9c-0.1,0.1-0.2,0.2-0.3,0.4c0,0.2,0,0.3,0,0.5C633,522.5,633.1,522.2,633.2,521.9z"/>
			<path class="st20" d="M633.5,520.1C633.5,520.1,633.5,520.1,633.5,520.1C633.5,520.1,633.5,520.1,633.5,520.1
				C633.4,520.4,633.7,519.8,633.5,520.1z"/>
		</g>
		<path class="st10" d="M650.5,463.9c0-0.4-0.2-0.4-0.2-0.8c0-0.4,0-0.4,0-0.8c0-0.4,0.1-0.4,0.1-0.8c0-0.4-0.2-0.4-0.3-0.8
			c0-0.4,0.2-0.4,0.2-0.8c0-0.4-0.3-0.4-0.3-0.8c0-0.4,0-0.4,0-0.8c0-0.4,0.3-0.4,0.3-0.8c0-0.4-0.4-0.4-0.4-0.8c0-0.4,0-0.4,0-0.8
			c0-0.4,0.2-0.4,0.1-0.8c0-0.4-0.2-0.4-0.3-0.8c0-0.4,0.1-0.4,0.1-0.8c0-0.4,0-0.4,0-0.8c0-0.4-0.3-0.4-0.3-0.8
			c0-0.4,0.2-0.4,0.2-0.8s0-0.4,0-0.8c0-0.4,0.1-0.5-0.1-0.8c-0.3,0-0.6,0-0.9,0.1c-0.3,0-0.5,0.2-0.8,0.3c-0.3,0.1-0.5,0.2-0.8,0.3
			c-0.3,0.1-0.6,0-0.9,0.1c-0.3,0.1-0.5,0.3-0.8,0.4c-0.2,0.1-0.6,0.2-0.8,0.3c-0.2,0.2-0.4,0.4-0.6,0.6c-0.2,0.2-0.4,0.4-0.5,0.7
			c-0.2,0.2-0.4,0.4-0.5,0.6c-0.2,0.2-0.3,0.5-0.4,0.7c-0.1,0.2-0.2,0.5-0.3,0.8c-0.1,0.3-0.3,0.5-0.4,0.7c-0.1,0.3-0.4,0.5-0.5,0.7
			c-0.1,0.3,0.1,0.6,0,0.9c0,0.3-0.3,0.5-0.3,0.8c0,0.3,0.3,0.6,0.3,0.9c0,0.3-0.1,0.6-0.1,0.8c0,0.3,0.2,0.5,0.3,0.8
			c0.1,0.3,0.1,0.5,0.3,0.8c0.1,0.2,0.3,0.4,0.5,0.7c0.1,0.2,0.2,0.5,0.4,0.7c0.2,0.2,0.2,0.5,0.4,0.7c0.2,0.2,0.4,0.4,0.6,0.6
			c0.2,0.2,0.3,0.5,0.6,0.7c0.2,0.2,0.7,0,0.9,0.2c0.2,0.1,0.3,0.6,0.5,0.7c0.2,0.1,0.5,0.2,0.8,0.3c0.3,0.1,0.5,0.3,0.7,0.4
			c0.3,0.1,0.7-0.2,0.9-0.1c0.3,0.1,0.5,0.3,0.8,0.3c0.3,0.1,0.5,0.3,0.8,0.3c0.3,0,0.5,0,0.8,0c0.1-0.4,0.1-0.4,0-0.8
			C650.4,464.3,650.5,464.3,650.5,463.9z"/>
		<path class="st10" d="M700.2,456.8c0-0.3,0.1-0.6,0-0.9c-0.1-0.3-0.3-0.5-0.4-0.8c-0.1-0.3,0-0.6-0.1-0.9
			c-0.1-0.3-0.2-0.6-0.3-0.8c-0.2-0.2-0.4-0.4-0.6-0.7c-0.2-0.2-0.4-0.4-0.7-0.6c-0.2-0.2-0.5-0.4-0.7-0.5c-0.2-0.2-0.5-0.2-0.8-0.3
			c-0.3-0.1-0.5-0.1-0.8-0.2c-0.3-0.1-0.5-0.3-0.8-0.4c-0.3-0.1-0.6-0.1-0.8-0.1c-0.3,0-0.5-0.3-0.8-0.3c-0.3,0-0.7,0.1-1,0.1
			c-0.1,0.4,0.2,0.5,0.2,0.9c0,0.4,0.1,0.4,0.1,0.8c0,0.4,0,0.4,0,0.8c0,0.4-0.1,0.4-0.1,0.8c0,0.4-0.2,0.4-0.2,0.8
			c0,0.4,0.2,0.4,0.2,0.8c0,0.4,0,0.4,0,0.8c0,0.4-0.2,0.4-0.2,0.8c0,0.4,0.2,0.4,0.2,0.8c0,0.4-0.2,0.4-0.2,0.8
			c0,0.4-0.1,0.4-0.1,0.8c0,0.4,0.4,0.4,0.4,0.8c0,0.4-0.3,0.4-0.3,0.8c0,0.4,0,0.4,0,0.8c0,0.4,0.3,0.4,0.3,0.8
			c0,0.4-0.2,0.4-0.2,0.8c0,0.4,0.2,0.4,0.2,0.8c0,0.4-0.1,0.4-0.2,0.8c-0.1,0.4-0.1,0.5,0,0.9c0.3,0,0.6-0.1,0.9-0.1
			c0.3,0,0.6,0.1,0.8,0c0.3-0.1,0.6,0,0.8-0.1c0.3-0.1,0.3-0.6,0.6-0.7c0.2-0.1,0.5-0.2,0.8-0.3c0.2-0.1,0.4-0.4,0.6-0.5
			c0.2-0.2,0.7-0.1,0.9-0.3c0.2-0.2,0.1-0.6,0.3-0.9c0.2-0.2,0.5-0.3,0.6-0.5c0.2-0.2,0.3-0.5,0.4-0.7c0.1-0.2,0.4-0.4,0.5-0.7
			c0.1-0.3,0.3-0.5,0.4-0.8c0.1-0.3,0.1-0.6,0.1-0.8c0.1-0.3,0.1-0.5,0.2-0.8c0-0.3-0.1-0.6-0.1-0.8c0-0.3,0.1-0.6,0.1-0.9
			C700.5,457.3,700.2,457.1,700.2,456.8z"/>
		<path class="st10" d="M693.2,446.4c0-0.4-0.1-0.4-0.1-0.8c0-0.4-0.2-0.4-0.2-0.8c0-0.4,0.2-0.4,0.2-0.8c0-0.4-0.1-0.4,0-0.8
			c0-0.4-0.1-0.4-0.1-0.8c0-0.4,0.2-0.4,0.2-0.8c0-0.4-0.1-0.4-0.1-0.8c0-0.4,0-0.4-0.1-0.8c-0.2-0.2-0.4-0.3-0.6-0.5
			c-0.2-0.2-0.1-0.6-0.2-0.9c-0.1-0.3-0.5-0.4-0.6-0.7c-0.1-0.3,0.3-0.6,0.3-0.9c0-0.3-0.1-0.5-0.1-0.8c0-0.3,0-0.5,0.1-0.8
			c0-0.3-0.2-0.6-0.2-0.9c0.1-0.3,0.5-0.5,0.6-0.7c0.1-0.3-0.1-0.6-0.1-0.9c0.1-0.3,0.3-0.5,0.3-0.8c0.1-0.3-0.1-0.6-0.1-0.9
			c0-0.3,0-0.5,0.1-0.8c0-0.3,0.2-0.5,0.2-0.8c0-0.3-0.2-0.5-0.2-0.8c0-0.3,0.1-0.6,0-0.8c-0.1-0.3-0.2-0.3-0.3-0.6
			c0,0.3,0.1,0.4,0,0.6c0,0.3-0.4,0.5-0.5,0.7c-0.1,0.3-0.2,0.5-0.4,0.7c-0.1,0.2-0.2,0.5-0.4,0.7c-0.2,0.2-0.2,0.6-0.4,0.7
			c-0.2,0.2-0.5,0.2-0.8,0.4c-0.2,0.1-0.4,0.4-0.6,0.6c-0.2,0.1-0.6,0-0.8,0.1c-0.2,0.1-0.4,0.5-0.6,0.6c-0.2,0.1-0.5,0.2-0.8,0.3
			c-0.3,0.1-0.5,0.1-0.8,0.2c-0.3,0.1-0.5,0.1-0.8,0.2c-0.3,0.1-0.6-0.1-0.8,0c-0.3,0.1-0.5,0.3-0.7,0.4c-0.3,0.1-0.5,0.1-0.8,0.1
			c-0.3,0.1-0.5,0.2-0.8,0.3c-0.3,0.1-0.5,0.2-0.8,0.2c-0.3,0.1-0.6-0.2-0.9-0.2c-0.3,0.1-0.5,0.3-0.8,0.3c-0.3,0-0.6-0.1-0.8,0
			c-0.3,0-0.5,0.3-0.8,0.3c-0.3,0-0.5,0.2-0.8,0.3c-0.3,0.1-0.5,0-0.8,0.1c-0.3,0.1-0.5,0.1-0.8,0.1c-0.3,0.1-0.6-0.1-0.8-0.1
			c-0.3,0.1-0.5,0.2-0.8,0.3c-0.3,0-0.5,0.3-0.8,0.3c-0.3,0-0.6,0-0.8,0.1c-0.3,0-0.5,0.2-0.8,0.3c-0.3,0-0.6-0.1-0.8-0.1
			c-0.3,0-0.5,0.3-0.8,0.3c-0.3,0-0.6-0.3-0.9-0.3c-0.3,0-0.5,0-0.8,0c-0.3,0-0.5,0.3-0.8,0.4c-0.3,0-0.6-0.2-0.8-0.2
			c-0.3,0-0.5,0.2-0.8,0.2c-0.3,0-0.5,0.1-0.8,0.1c-0.3,0-0.5,0-0.8,0c-0.3,0-0.5,0-0.8,0c-0.3,0-0.5,0-0.8,0
			c-0.3,0-0.5-0.3-0.8-0.3c-0.3,0-0.6,0.2-0.8,0.2c-0.3,0-0.5-0.2-0.8-0.2c-0.3,0-0.5,0.1-0.8,0.1c-0.3,0-0.5,0-0.8,0
			c-0.3,0-0.5-0.1-0.8-0.1c-0.2,0.1-0.5,0-0.9,0.1c-0.2,0.1-0.3,0.6-0.6,0.7c-0.2,0.1-0.6-0.1-0.9,0.1c-0.3,0.1-0.4,0.4-0.7,0.5
			c-0.3,0.1-0.5,0.3-0.7,0.4c-0.3,0.1-0.6,0.1-0.9,0.2c-0.3,0.1-0.6,0.2-0.8,0.3c-0.3,0.1-0.4,0.6-0.6,0.7c-0.1,0.1-0.3,0.2-0.5,0.5
			c-0.1,0.2-0.3,0.4-0.4,0.7c-0.1,0.2,0.1,0.6,0,0.9c-0.1,0.2-0.5,0.4-0.6,0.7c-0.1,0.3,0.1,0.6,0,0.9c-0.1,0.3-0.3,0.5-0.4,0.7
			c-0.1,0.3-0.1,0.6-0.2,0.8c-0.1,0.3-0.6,0.4-0.7,0.6c-0.2,0.3-0.5,0.5-0.7,0.5c-0.1,0.4,0.2,0.4,0.2,0.9c0,0.4-0.2,0.4-0.2,0.8
			c0,0.4,0.3,0.4,0.3,0.8c0,0.4-0.1,0.4,0,0.8c0,0.4,0.2,0.4,0.2,0.8c0,0.4-0.4,0.4-0.3,0.8c0,0.4,0.2,0.4,0.2,0.8
			c0,0.4,0.2,0.4,0.2,0.8c0,0.4-0.4,0.4-0.4,0.8c0,0.4,0.1,0.4,0.1,0.8c0,0.4,0,0.4,0,0.8c0,0.4,0.1,0.4,0.1,0.8
			c0,0.4,0.1,0.4,0.1,0.8c0,0.4,0.2,0.4,0.2,0.8c0,0.4-0.3,0.4-0.2,0.8c0,0.4,0.3,0.4,0.3,0.8c0,0.4-0.2,0.4-0.2,0.8
			c0,0.4,0.3,0.4,0.3,0.8c0,0.4-0.3,0.4-0.2,0.8c0,0.4,0.1,0.4,0.1,0.8c0,0.4,0.2,0.4,0.2,0.8c0,0.4-0.1,0.4-0.1,0.8
			c0,0.4,0.1,0.4,0.1,0.8c0,0.4-0.2,0.4-0.2,0.8c0,0.4,0.2,0.4,0.2,0.8c0,0.3,0.3,0.5,0.3,0.8c0,0.3-0.3,0.6-0.3,0.8
			c0,0.3,0.3,0.5,0.4,0.8c0,0.3,0.1,0.5,0.1,0.8c0,0.3-0.1,0.6-0.1,0.8c0.1,0.3,0,0.6,0.1,0.8c0.1,0.3,0.4,0.5,0.5,0.7
			c0.1,0.3,0.1,0.5,0.2,0.8c0.1,0.3,0.2,0.5,0.3,0.8c0.1,0.3-0.2,0.7-0.1,0.9c0.1,0.3,0.4,0.4,0.5,0.7c0.1,0.3,0.1,0.6,0.2,0.8
			c0.1,0.2,0.2,0.5,0.3,0.8c0.1,0.2,0.6,0.3,0.7,0.5c0.1,0.2,0,0.6,0.2,0.9c0.1,0.2,0.5,0.3,0.7,0.6c0.2,0.2,0.3,0.5,0.4,0.7
			c0.2,0.2,0.1,0.6,0.3,0.8c0.2,0.2,0.4,0.4,0.6,0.6c0.2,0.2,0.4,0.4,0.6,0.6c0.2,0.2,0.3,0.5,0.5,0.7c0.2,0.2,0.3,0.5,0.5,0.7
			c0.2,0.2,0.4,0.3,0.7,0.5c0.2,0.2,0.3,0.5,0.5,0.6c0.2,0.2,0.6,0.1,0.9,0.3c0.2,0.2,0.3,0.5,0.5,0.7c0.2,0.2,0.6,0.1,0.8,0.3
			c0.2,0.2,0.4,0.5,0.6,0.6c0.2,0.1,0.5,0.2,0.7,0.4c0.2,0.1,0.5,0.2,0.8,0.3c0.2,0.1,0.5,0.2,0.8,0.3c0.3,0.1,0.5,0.3,0.7,0.4
			c0.3,0.1,0.5,0.3,0.7,0.4c0.3,0.1,0.5,0.2,0.8,0.3c0.3,0.1,0.6,0.1,0.8,0.1c0.3,0.1,0.5,0.2,0.8,0.3c0.3,0.1,0.6-0.2,0.9-0.1
			c0.3,0.1,0.5,0.3,0.8,0.3c0.3,0,0.5,0.3,0.8,0.3c0.3,0,0.6-0.1,0.8,0c0.3,0,0.5,0.1,0.8,0.1c0.3,0,0.6-0.1,0.8-0.1
			c0.3,0,0.6,0.1,0.8,0.1c0.3,0,0.5-0.2,0.8-0.2c0.3,0,0.5-0.2,0.8-0.2c0.3,0,0.5-0.1,0.8-0.1c0.3,0,0.6,0.1,0.8,0
			c0.3-0.1,0.5-0.3,0.8-0.3c0.3-0.1,0.6,0,0.8,0c0.3-0.1,0.5-0.3,0.7-0.4c0.3-0.1,0.5-0.2,0.8-0.3c0.3-0.1,0.6,0.1,0.9,0
			c0.3-0.1,0.4-0.6,0.6-0.7c0.2-0.1,0.6,0,0.9-0.1c0.2-0.1,0.5-0.3,0.7-0.4c0.2-0.1,0.4-0.3,0.7-0.5c0.2-0.1,0.4-0.4,0.6-0.6
			c0.2-0.2,0.6-0.1,0.8-0.3c0.2-0.2,0.5-0.3,0.7-0.4c0.2-0.2,0.3-0.5,0.5-0.7c0.2-0.2,0.3-0.5,0.5-0.7c0.2-0.2,0.7-0.1,0.9-0.3
			c0.2-0.2,0.4-0.4,0.5-0.6c0.2-0.2,0.3-0.5,0.5-0.7c0.2-0.2,0.4-0.4,0.6-0.6c0.2-0.2,0.1-0.6,0.2-0.9c0.2-0.2,0.6-0.2,0.7-0.5
			c0.2-0.2,0.3-0.5,0.5-0.7c0.1-0.2,0.1-0.6,0.2-0.8c0.1-0.2,0.4-0.4,0.5-0.6c0.1-0.2,0.1-0.6,0.2-0.8c0.1-0.2,0.5-0.4,0.6-0.6
			c0.1-0.3,0-0.6,0.1-0.9c0.1-0.3,0.4-0.4,0.5-0.7c0.1-0.3,0.1-0.5,0.2-0.8c0.1-0.3,0.3-0.5,0.4-0.8c0.1-0.3-0.1-0.6,0-0.9
			c0.1-0.3,0.4-0.5,0.4-0.8c0.1-0.3,0.1-0.6,0.1-0.8c0-0.3,0.1-0.5,0.1-0.8c0-0.3,0.1-0.5,0.1-0.8c0-0.3-0.2-0.6-0.2-0.8
			c0-0.3,0-0.5,0-0.8c0-0.3,0-0.5,0-0.8c0-0.4,0.2-0.4,0.2-0.8c0-0.4-0.3-0.4-0.3-0.8c0-0.4,0.1-0.4,0.1-0.8c0-0.4,0.1-0.4,0.1-0.8
			c0-0.4,0-0.4,0-0.8s0.1-0.4,0.1-0.8c0-0.4-0.1-0.4-0.1-0.8c0-0.4,0.2-0.4,0.2-0.8c0-0.4-0.1-0.4,0-0.8c0-0.4-0.1-0.4-0.1-0.8
			c0-0.4-0.1-0.4-0.1-0.8c0-0.4,0.2-0.4,0.2-0.8c0-0.4-0.3-0.4-0.3-0.8c0-0.4,0-0.4,0-0.8c0-0.4,0.2-0.4,0.2-0.8
			c0-0.4-0.2-0.4-0.2-0.8c0-0.4,0-0.4,0-0.8c0-0.4,0.3-0.4,0.3-0.8c0-0.4-0.3-0.4-0.2-0.8c0-0.4,0.3-0.4,0.3-0.8
			c0-0.4-0.2-0.4-0.2-0.8c0-0.4,0.1-0.4,0.1-0.8C693.1,446.8,693.2,446.8,693.2,446.4z"/>
		<polygon class="st11" points="695.4,432.6 695.2,431.9 694.8,431.2 694.5,430.5 694.5,429.6 694.1,428.9 693.7,428.3 693.3,427.6 
			693.2,426.8 692.9,426.1 692.5,425.4 691.8,425 691.5,424.2 690.9,423.7 690.2,423.3 689.7,422.7 689.3,422 688.5,421.7 
			688,421.1 687.2,421 686.5,420.5 685.7,420.3 684.9,420.5 684.2,420.6 683.8,419.8 683.7,418.9 683.2,418.3 682.4,417.9 
			681.9,417.4 681.3,416.9 680.7,416.4 680.2,415.8 679.4,415.7 678.8,415.2 678.1,414.8 677.4,414.7 676.7,414.3 675.9,414.1 
			675.2,414.1 674.4,414 673.6,414 672.9,413.9 672.1,413.6 671.4,413.6 670.6,413.6 669.8,413.7 669.1,414 668.3,414 667.5,413.9 
			666.8,414.3 666,414.2 665.3,414.5 664.5,414.6 663.9,415 663.1,415 662.5,415.5 661.7,415.8 661,416 660.4,416.4 659.6,416.7 
			658.9,417 658.3,417.5 657.6,417.8 657.1,418.4 656.5,418.8 656,419.4 655.4,419.8 654.7,420.2 654.1,420.7 653.6,421.3 
			653.1,421.9 652.3,422.1 651.9,422.8 651.6,423.5 650.8,423.9 650.3,424.5 650,425.2 649.5,425.8 649,426.4 648.9,427.2 
			648.6,427.9 647.9,428.4 647.7,429.1 647.6,429.9 647.1,430.6 646.8,431.3 646.5,432 646.6,432.8 646.2,433.5 646,434.2 
			645.8,435 645.8,435.7 646,436.5 646,437.3 646,438 645.9,438.8 645.9,439.6 646.1,440.3 646.1,441.1 646.1,441.8 646.1,442.6 
			646.1,443.4 646.6,444.1 646.8,444.8 647,445.5 647.3,446.2 647.2,447.1 647.4,447.8 647.9,448.6 648.1,447.7 648.6,447.1 
			648.9,446.3 649.3,445.6 649.8,444.9 650.1,444.2 650.6,443.6 650.9,442.8 651.5,442.2 651.8,441.4 652.5,441.5 653.3,441.3 
			654.1,441.4 654.8,441.7 655.6,441.7 656.4,441.5 657.1,441.8 657.9,441.5 658.7,441.5 659.4,441.8 660.2,441.7 660.9,441.9 
			661.7,441.5 662.5,442 663.3,441.7 664,441.7 664.8,441.9 665.6,441.8 666.3,441.8 667.1,441.8 667.9,441.6 668.6,441.9 
			669.4,441.6 670.2,441.6 670.9,441.9 671.7,441.9 672.5,441.7 673.2,441.7 674,441.9 674.8,441.8 675.5,441.8 676.3,441.8 
			677.1,441.6 677.8,441.8 678.6,441.9 679.4,441.9 680.1,441.6 680.9,441.5 681.7,441.5 682.5,441.7 683.2,441.3 684,441.4 
			684.7,441.1 685.5,441.1 686.1,440.6 686.7,440 687.1,439.4 687.5,438.7 687.9,438.1 688.2,437.4 688.8,436.8 688.7,435.9 
			689.2,435.3 689.5,434.6 689.4,433.7 689.6,433 689.8,432.2 690,431.5 690.1,431 690.1,430.7 690.1,429.9 690.1,430.7 690.1,431 
			690.2,431.5 690.5,432.2 690.6,433 690.6,433.7 691.1,434.4 691.1,435.2 691.1,436 691.2,436.7 691.4,437.5 691.5,438.2 
			691.6,439 691.9,439.7 691.9,440.5 691.9,441.3 692,442 692.5,442.7 692.4,443.5 692.5,444.3 692.7,445 692.9,445.8 693.1,446.5 
			693.2,447.3 693,448.1 693.4,448.8 693.5,448.1 693.7,447.3 693.8,446.5 694.2,445.8 694.6,445.1 694.8,444.3 694.8,443.5 
			694.8,442.7 694.8,441.9 695.1,441.2 695.4,440.5 695.3,439.7 695.4,438.9 695.4,438.1 695.5,437.3 695.5,436.5 695.5,435.8 
			695.5,435 695.4,434.2 695.6,433.4 		"/>
		<polygon class="st11" points="690.1,429.9 690.1,430.7 690.1,431 690.1,430.7 		"/>
		<path class="st11" d="M681.3,451.6c-0.1-0.3-0.2-0.6-0.4-0.7c-0.2-0.1-0.5-0.1-0.8-0.1s-0.7-0.2-0.9-0.1c-0.3,0.1-0.3,0.6-0.4,0.8
			c-0.1,0.2-0.5,0.5-0.5,0.8c0,0.3,0.3,0.5,0.5,0.8c0.1,0.3,0.3,0.4,0.6,0.5c0.2,0.1,0.5,0.4,0.8,0.4s0.7,0.1,0.9-0.1
			c0.3-0.1,0.5-0.5,0.6-0.7c0.1-0.2-0.1-0.6-0.1-0.9C681.5,452,681.5,451.8,681.3,451.6z"/>
		<path class="st11" d="M663.6,451c-0.2-0.1-0.5-0.2-0.8-0.2c-0.3,0-0.6,0-0.9,0.1c-0.3,0.1-0.6,0.3-0.7,0.6c-0.1,0.2,0,0.6,0,0.9
			c0,0.3,0,0.6,0.2,0.8c0.1,0.3,0.4,0.4,0.7,0.5c0.2,0.1,0.5,0.5,0.8,0.5c0.3,0,0.7-0.2,0.9-0.3c0.3-0.1,0.3-0.5,0.4-0.8
			c0.1-0.2,0.5-0.5,0.5-0.8c0-0.3-0.3-0.5-0.4-0.8C664,451.4,663.8,451.1,663.6,451z"/>
		<g>
			<path class="st15" d="M668,471.1C667.8,471,668,471.1,668,471.1L668,471.1z"/>
			<path class="st15" d="M671.1,472.7C671.1,472.6,671.2,472.6,671.1,472.7c0-0.1-0.1-0.1-0.1-0.1c-0.6,0,1,0.7,0.6,0.2
				c0-0.1-0.1-0.1-0.2-0.2c0,0-0.1,0-0.1,0C671,472.8,670.9,472.8,671.1,472.7z"/>
			<path class="st15" d="M671.4,472.6C671.3,472.6,671.3,472.6,671.4,472.6C671.3,472.6,671.3,472.6,671.4,472.6c-0.1,0-0.1,0-0.1,0
				C671.3,472.6,671.3,472.6,671.4,472.6z"/>
			<path class="st15" d="M671.1,472.7c-0.2,0.1-0.1,0.1,0.1,0c0.1,0,0.1,0,0.1,0c0,0,0,0,0,0C671.3,472.6,671.3,472.6,671.1,472.7
				C671.2,472.6,671.1,472.6,671.1,472.7z"/>
			<path class="st15" d="M674.7,471.7c0.1-0.1,0.1-0.2,0.2-0.2C674.8,471.6,674.8,471.6,674.7,471.7
				C674.7,471.7,674.7,471.7,674.7,471.7C674.6,471.8,674.6,471.8,674.7,471.7z"/>
			<path class="st15" d="M676.3,470.6C676.3,470.6,676.3,470.6,676.3,470.6C676.1,470.7,676.6,470.5,676.3,470.6z"/>
			<path class="st15" d="M673.8,472.2c0.3,0,0.6-0.1,0.9-0.1c-0.1-0.1-0.2-0.1-0.3-0.1c-0.1,0-0.1,0-0.2,0c0,0-0.1,0.1-0.1,0.1
				C674,472.1,673.9,472.2,673.8,472.2z"/>
			<path class="st15" d="M671.4,472.6C671.4,472.6,671.4,472.6,671.4,472.6C671.4,472.6,671.4,472.6,671.4,472.6
				C671.5,472.6,671.5,472.6,671.4,472.6z"/>
			<path class="st15" d="M676.3,470.6C676.6,470.5,676.1,470.7,676.3,470.6C676.3,470.6,676.3,470.6,676.3,470.6
				C676.3,470.6,676.3,470.6,676.3,470.6c-0.2,0-0.3,0-0.4,0.1c-0.5,0.2-0.9,0.5-1.2,0.9c0,0-0.1,0.1-0.1,0.1c0,0,0,0,0,0
				c0.1-0.1,0.1-0.1,0.2-0.2c-0.1,0.1-0.2,0.1-0.2,0.2c-0.1,0.1-0.1,0,0,0c-0.2,0.1-0.3,0.2-0.5,0.3c0.1,0,0.1,0,0.2,0
				c0.1,0,0.3,0,0.3,0.1c-0.3,0-0.6,0.1-0.9,0.1c0.1,0,0.2-0.1,0.2-0.1c0,0,0.1-0.1,0.1-0.1c-0.4-0.1-0.8,0-1.2,0.1
				c-0.3,0.1-0.6,0.1-0.9,0.2c-0.2,0.1-0.6,0.1-0.8,0.2c0,0,0,0,0,0c0,0,0,0,0,0c0,0,0,0,0,0c0.2,0,0.2,0,0,0
				c0.1,0.1,0.1,0.1,0.2,0.2c0.4,0.4-1.2-0.3-0.6-0.2c0.1,0,0.1,0,0.2,0c0,0,0,0,0.1,0c-0.6-0.5-1.4-0.5-2.1-0.8
				c-0.1,0-0.2-0.1-0.4-0.1c-0.1,0-0.1,0-0.2-0.1c-0.1,0-0.1,0,0.1,0c-0.1,0-0.6-0.4-0.7-0.5c0,0,0,0-0.1,0c0.1,0.1-0.1-0.1,0,0
				c0,0,0,0-0.1-0.1c-0.3-0.2-0.4-0.3-0.8-0.5c-0.1,0-0.2,0-0.3-0.1c0,0-0.1,0-0.1,0c0,0,0,0,0.1,0c0.1,0.1,0.1,0.1-0.1,0
				c-0.3,0-0.3,0,0,0c0,0,0,0,0,0c0,0,0,0,0.1,0c-0.7-0.4-1.8-0.1-2.1,0.6c-0.4,0.8-0.1,1.7,0.6,2.2c0.2,0.1,0.4,0.2,0.6,0.3
				c0.1,0,0.2,0,0.2,0c-0.1-0.1-0.2-0.1-0.3-0.2c0.3,0.1,0.5,0.2,0.5,0.2c0,0,0.1,0,0.1,0c0,0-0.1,0-0.1,0c0,0,0,0-0.1,0
				c0,0,0.1,0,0.1,0c0,0,0,0,0,0c-0.1,0-0.1,0-0.2,0c0.1,0,0.1,0.1,0.2,0.1c0.1,0.1,0.2,0.2,0.4,0.3c0.6,0.4,1.2,0.7,1.8,0.9
				c0.3,0.1,0.7,0.2,1,0.3c0,0,0,0,0,0c-0.1-0.1-0.1-0.1-0.2-0.2c-0.2-0.2-0.1-0.1,0.4,0.2c-0.1,0-0.2,0-0.3-0.1c0,0,0,0,0,0
				c0.6,0.6,1.8,0.8,2.6,0.6c0.2-0.1,0.4-0.1,0.6-0.3c0,0,0,0,0,0c0,0-0.1,0-0.1,0c0.2-0.1,0.2-0.1,0.1,0c0,0,0.1,0,0.1,0
				c0.3-0.1,0.6-0.2,0.9-0.2c0,0,0.1,0,0.1,0c-0.1,0-0.1,0-0.2,0c-0.3-0.1-0.1-0.1,0.5,0c-0.1,0-0.2,0.1-0.3,0.1c0,0,0,0,0,0
				c0.6,0.1,1.1,0.1,1.6-0.2c0.6-0.3,1.2-0.7,1.6-1.2c0.1-0.1,0.1-0.1,0.2-0.2c-0.1,0-0.2,0-0.3,0.1c-0.2,0,0.9-0.9,0.5-0.3
				c-0.1,0.1-0.1,0.2-0.2,0.3c0.2-0.1,0.5-0.2,0.6-0.3c0.7-0.5,1.1-1.4,0.6-2.2C678,470.5,677,470.1,676.3,470.6z"/>
			<path class="st15" d="M673.6,475.2c0.1,0,0.1,0,0.2,0c0.1,0,0.2,0,0.3-0.1C673.5,475.1,673.4,475.1,673.6,475.2z"/>
			<path class="st15" d="M666.7,470.5C666.7,470.5,666.7,470.5,666.7,470.5c-0.1,0-0.1,0-0.1,0C666.8,470.6,666.9,470.6,666.7,470.5
				z"/>
			<path class="st15" d="M672.6,475.5C672.6,475.5,672.6,475.5,672.6,475.5C672.8,475.4,672.8,475.4,672.6,475.5z"/>
			<path class="st15" d="M676.9,473.7c0.1,0,0.2,0,0.3-0.1c0.1-0.1,0.1-0.2,0.2-0.3C677.8,472.8,676.7,473.7,676.9,473.7z"/>
			<path class="st15" d="M665.7,473.4c0.1,0.1,0.2,0.1,0.3,0.2c0.1,0,0.1,0,0.2,0C666.2,473.6,666,473.5,665.7,473.4z"/>
			<path class="st15" d="M669.2,475c0,0.1,0.1,0.1,0.2,0.2c0.1,0,0.2,0,0.3,0.1C669.1,474.9,669,474.8,669.2,475z"/>
			<path class="st15" d="M666.2,473.6c0,0-0.1,0-0.1,0C666.1,473.6,666.2,473.6,666.2,473.6z"/>
		</g>
		<g>
			<path class="st15" d="M673.9,462.3c-0.1-0.1-0.2-0.2-0.3-0.3c-0.3-0.1-0.5-0.2-0.8-0.2c-0.2,0-0.5,0-0.7,0c-0.2,0-0.5,0-0.7,0
				c-0.2,0-0.4,0-0.6,0.1c-0.2,0.1-0.4,0.2-0.5,0.3c-0.2,0.1-0.3,0.3-0.3,0.5c-0.1,0.2-0.1,0.4-0.1,0.6c0,0.1,0,0.3,0.1,0.4
				c0.1,0.3,0.2,0.5,0.4,0.7c0.1,0.1,0.2,0.2,0.3,0.3c0.3,0.1,0.5,0.2,0.8,0.2c0.2,0,0.5,0,0.7,0c0.2,0,0.5,0,0.7,0
				c0.2,0,0.4,0,0.6-0.1c0.2-0.1,0.4-0.2,0.5-0.3c0.2-0.1,0.3-0.3,0.3-0.5c0.1-0.2,0.1-0.4,0.1-0.6c0-0.1,0-0.3-0.1-0.4
				C674.2,462.7,674.1,462.5,673.9,462.3z"/>
		</g>
	</g>
</g>
<circle class="st23" cx="671.6" cy="472" r="72.1"/>
<g>
	<defs>
		<rect id="SVGID_13_" x="511.5" y="354" width="390" height="272.1"/>
	</defs>
	<clipPath id="SVGID_4_">
		<use xlink:href="#SVGID_13_"  style="overflow:visible;"/>
	</clipPath>
	<g class="st18">
		<path class="st10" d="M808.7,553.5c0-0.7-0.5-0.7-0.5-1.4c0-0.7,0.1-0.7,0.1-1.4c0-0.7-0.3-0.7-0.3-1.4c0-0.7,0.4-0.7,0.4-1.4
			c0-0.7-0.2-0.7-0.2-1.4c0-0.7-0.2-0.7-0.2-1.4c0-0.7,0-0.7,0-1.4c0-0.7,0.4-0.7,0.4-1.4c0-0.7,0.2-0.7-0.2-1.2
			c-0.5-0.5-0.6,0.2-1.3,0.2c-0.7,0-0.7-0.6-1.4-0.6c-0.7,0-0.7,0.1-1.4,0.1c-0.7,0-0.7,0.6-1.4,0.6c-0.7,0-0.7-0.2-1.4-0.2
			c-0.7,0-0.7-0.1-1.4-0.1c-0.7,0-0.7,0.1-1.4,0.1c-0.7,0-0.7-0.3-1.4-0.3c-0.7,0-0.7,0.3-1.4,0.3c-0.7,0-0.7-0.1-1.4-0.1
			c-0.7,0-0.7-0.1-1.4-0.1c-0.7,0-0.7,0.2-1.4,0.2c-0.7,0-0.7-0.2-1.4-0.2c-0.7,0-0.7-0.4-1.4-0.4c-0.7,0-0.7-0.1-1.4-0.1
			c-0.7,0-0.7,0.7-1.4,0.7c-0.7,0-0.7-0.5-1.4-0.5c-0.7,0-0.7-0.1-1.4-0.1c-0.7,0-0.7,0.1-1.4,0.1c-0.7,0-0.7,0.4-1.4,0.4
			c-0.7,0-0.7-0.6-1.4-0.6c-0.7,0-0.7,0.4-1.4,0.4c-0.7,0-0.7-0.5-1.4-0.5c-0.7,0-0.7,0.2-1.4,0.2c-0.7,0-0.7,0.2-1.4,0.2
			c-0.7,0-0.7,0.2-1.4,0.2c-0.7,0-0.7-0.1-1.4-0.1c-0.7,0-0.7-0.2-1.4-0.2c-0.7,0-0.7-0.1-1.4-0.1c-0.7,0-0.7,0.2-1.4,0.2
			c-0.7,0-0.7,0-1.4,0c-0.7,0-0.7-0.2-1.4-0.2c-0.7,0-0.7,0.2-1.4,0.2c-0.7,0-0.7,0.3-1.4,0.3c-0.7,0-0.9-0.8-1.3-0.3
			c-0.5,0.5-0.4,0.7-0.4,1.4c0,0.7,0.2,0.7,0.2,1.4c0,0.7,0.3,0.7,0.3,1.4c0,0.7,0.2,0.7,0.2,1.4c0,0.7-0.1,0.7-0.1,1.4
			c0,0.7,0.2,0.7,0.2,1.4c0,0.7-0.4,0.7-0.4,1.4c0,0.7-0.1,0.7-0.1,1.4c0,0.7,0.3,0.7,0.3,1.4c0,0.7-0.5,0.7-0.5,1.4
			c0,0.7,0.1,0.7,0.1,1.4c0,0.7,0,0.7,0,1.4c0,0.7-0.1,0.7-0.1,1.4c0,0.7,0,0.7,0.2,1.4c0.4,0.3,1.1,0.3,1.4,0.5
			c0.4,0.3,0.5,0.9,0.9,1.2c0.4,0.3,1.1,0.1,1.5,0.3c0.4,0.2,0.5,1.1,0.9,1.3c0.4,0.2,1,0.2,1.4,0.4c0.4,0.2,0.8,0.7,1.2,0.9
			c0.4,0.2,0.9,0.2,1.4,0.4c0.4,0.2,1,0.1,1.4,0.3c0.5,0.1,0.8,0.6,1.3,0.8c0.5,0.1,1-0.2,1.5-0.1c0.5,0.1,0.8,0.7,1.3,0.8
			c0.5,0.1,1,0.1,1.4,0.2c0.5,0.1,1,0.1,1.4,0.1c0.5,0.1,1-0.2,1.5-0.1c0.5,0,0.9,0.3,1.4,0.3c0.5,0,0.9,0.3,1.4,0.3
			c0.5,0,1,0.1,1.4,0.1c0.5,0,1,0.1,1.4,0.1c0.5,0,1-0.2,1.4-0.2c0.5,0,1,0,1.4,0c0.5,0,1-0.1,1.4-0.2c0.5-0.1,0.9-0.4,1.4-0.5
			c0.5-0.1,1,0,1.4-0.1c0.5-0.1,0.9-0.2,1.4-0.3c0.5-0.1,1,0,1.4-0.1c0.5-0.1,0.8-0.7,1.3-0.8c0.5-0.1,1.1,0.3,1.5,0.2
			c0.5-0.1,0.8-0.6,1.3-0.7c0.5-0.1,1-0.1,1.4-0.3c0.5-0.2,0.8-0.5,1.3-0.6c0.5-0.2,0.9-0.4,1.3-0.6c0.4-0.2,1.1,0.1,1.5-0.1
			c0.4-0.2,0.6-0.9,1.1-1.1c0.4-0.2,1.1,0.1,1.5-0.2c0.4-0.2,0.9-0.3,1.4-0.5c0.4-0.2,0.4-0.8,0.8-1c0.2-0.7,0.4-0.6,0.4-1.3
			c0-0.7-0.4-0.7-0.4-1.4c0-0.7,0.6-0.7,0.6-1.4c0-0.7-0.5-0.7-0.5-1.4c0-0.7,0.5-0.7,0.5-1.4C808.7,554.2,808.7,554.2,808.7,553.5z
			"/>
		<path class="st10" d="M822.6,576.5c-0.5-0.4-0.4-0.7-1-1c-0.7-0.2-0.8,0.1-1.4-0.1c-0.7-0.2-0.8,0.1-1.4-0.2
			c-0.7-0.2-0.5-0.5-1.2-0.8c-0.7-0.2-0.7-0.1-1.3-0.3c-0.7-0.2-0.6-0.4-1.2-0.6c-0.7-0.2-0.7-0.2-1.3-0.4c-0.7-0.2-0.7,0-1.4-0.2
			c-0.7-0.2-0.7-0.2-1.3-0.4c-0.7-0.2-0.5-0.7-1.2-0.9c-0.6-0.2-0.7,0.1-1.1-0.5c-0.4-0.6-0.2-0.5-0.2-1.2c0-0.7,0-0.7,0-1.4
			c0-0.7-0.1-0.7-0.1-1.4c0-0.7,0-0.7,0-1.4c0-0.7,0-0.7,0-1.4c0-0.7,0.2-0.7,0.2-1.4c0-0.7,0.6-0.9,0.3-1.5
			c-0.4,0.2-1.2,0.5-1.6,0.8c-0.4,0.2-0.7,0.7-1.2,0.9c-0.4,0.2-0.9,0.4-1.3,0.6c-0.4,0.2-1,0.1-1.4,0.3c-0.4,0.2-0.9,0.3-1.3,0.5
			c-0.4,0.2-0.8,0.7-1.2,0.9c-0.4,0.2-1,0.1-1.4,0.2c-0.5,0.1-0.9,0.4-1.3,0.5c-0.5,0.1-1,0.1-1.4,0.2c-0.5,0.1-1,0.1-1.4,0.2
			c-0.5,0.1-0.8,0.7-1.3,0.8c-0.5,0.1-1,0.1-1.4,0.2c-0.5,0.1-0.9,0.3-1.4,0.3c-0.5,0.1-1-0.2-1.5-0.1c-0.5,0.1-0.9,0.5-1.4,0.6
			c-0.5,0.1-1,0-1.4,0c-0.5,0-1-0.3-1.5-0.3c-0.5,0-0.9,0.5-1.4,0.5c-0.5,0-1,0-1.4,0c-0.5,0-1,0-1.4,0c-0.5,0-1-0.1-1.4-0.1
			c-0.5,0-0.9-0.3-1.4-0.3c-0.5,0-0.9-0.2-1.4-0.3c-0.5-0.1-0.9-0.3-1.4-0.3c-0.5-0.1-0.9-0.3-1.4-0.4c-0.5-0.1-1.1,0.3-1.5,0.2
			c-0.5-0.1-1-0.2-1.4-0.3c-0.5-0.1-0.8-0.7-1.2-0.9c-0.5-0.1-0.8-0.4-1.3-0.6c-0.4-0.2-1.1,0.1-1.5-0.1c-0.4-0.2-0.8-0.6-1.2-0.8
			c-0.4-0.2-1.1,0-1.5-0.2c-0.4-0.2-0.9-0.5-1.3-0.7c-0.4-0.2-0.7-0.7-1.1-1c-0.4-0.3-0.6-0.9-1-1.1c-0.4-0.3-0.8-0.2-1.1-0.5
			c-0.2,0.6-0.4,0.6-0.4,1.3c0,0.7,0.4,0.7,0.4,1.4c0,0.7-0.5,0.7-0.5,1.4c0,0.7,0.6,0.7,0.6,1.4c0,0.7-0.3,0.7-0.3,1.4
			c0,0.7,0.4,0.7,0.4,1.4c0,0.7,0.3,0.9-0.1,1.5c-0.4,0.6-0.9-0.2-1.6,0c-0.7,0.2-0.6,0.4-1.3,0.6c-0.7,0.2-0.7,0.2-1.4,0.4
			c-0.7,0.2-0.7,0.2-1.4,0.4c-0.7,0.2-0.7,0.2-1.4,0.4c-0.7,0.2-0.8,0-1.5,0.2c-0.7,0.2-0.7,0.3-1.4,0.5c-0.7,0.2-0.7,0.2-1.4,0.4
			c-0.7,0.2-0.8,0-1.5,0.2c-0.7,0.2-0.7,0.3-1.4,0.5c-0.7,0.2-0.7,0.3-1.3,0.7c-0.6,0.4,0,0.4,0.4,1.2c0.2,0.4,0.5,0.7,0.7,1.2
			c0.2,0.4,0.4,0.8,0.6,1.3c0.2,0.4,0.4,0.8,0.6,1.3c0.2,0.4,0.7,0.7,1,1.1c0.2,0.4,0,1,0.3,1.5c0.2,0.4,0.8,0.6,1,1.1
			c0.2,0.4,0,1.1,0.2,1.5c0.2,0.4,0.8,0.6,1.1,1c0.2,0.4,0.2,1,0.4,1.4c0.2,0.4,0.3,0.9,0.6,1.3c0.2,0.4,0.7,0.7,1,1.1
			c0.2,0.4,0.3,0.9,0.5,1.3c0.2,0.4,0.7,0.7,1,1.1c0.2,0.4,0.5,0.8,0.7,1.2c0.2,0.4,0.4,0.9,0.6,1.3c0.2,0.4,0.3,0.9,0.6,1.3
			c0.2,0.4,0.8,0.6,1,1c0.2,0.4,0.4,0.8,0.7,1.2c0.3,0.4,0.2,1,0.4,1.4c0.3,0.4,0.6,0.7,0.9,1.1c0.3,0.4,0.8,0.6,1.1,1
			c0.3,0.4,0.2,1,0.4,1.4c0.3,0.4,0.7,0.6,1,1c0.3,0.4,0.7,0.7,1,1c0.3,0.4,0.2,1,0.5,1.4c0.3,0.4,1,0.4,1.3,0.8
			c0.3,0.4,0.1,1.1,0.4,1.5c0.3,0.4,0.7,0.7,1,1c0.3,0.4,1,0.4,1.3,0.8c0.3,0.4,0.5,0.8,0.8,1.1c0.3,0.4,0.4,0.9,0.7,1.2
			c0.3,0.4,0.6,0.7,0.9,1.1c0.3,0.3,0.9,0.4,1.3,0.7c0.3,0.3,0.2,1.1,0.5,1.5c0.3,0.3,1.1,0.2,1.4,0.5c0.4,0.3,0.7,0.6,1.1,0.9
			c0.4,0.3,0.3,1.1,0.7,1.4c0.4,0.3,1,0.2,1.4,0.5c0.4,0.3,0.8,0.5,1.2,0.8c0.4,0.3,0.7,0.7,1.1,1c0.4,0.2,0.9,0.4,1.3,0.6
			c0.4,0.2,0.8,0.6,1.2,0.8c0.5,0.2,1,0.1,1.5,0.2c0.5,0.1,1-0.2,1.5-0.2c0.5,0.1,0.9,0.5,1.4,0.5c0.5,0,1,0.3,1.4,0.2
			c0.5-0.1,0.9-0.2,1.4-0.4c0.4-0.1,0.8-0.6,1.2-0.8c0.4-0.2,0.8-0.5,1.2-0.7c0.4-0.2,1-0.1,1.4-0.3c0.4-0.2,0.9-0.3,1.3-0.6
			c0.4-0.2,0.7-0.6,1.1-0.9c0.4-0.3,0.8-0.4,1.2-0.7c0.4-0.3,0.6-0.7,1-1c0.4-0.3,0.8-0.5,1.2-0.8c0.3-0.3,0.6-0.8,0.9-1.1
			c0.3-0.3,0.4-0.9,0.7-1.3c0.3-0.3,1-0.4,1.3-0.7c0.3-0.3,0.7-0.7,1-1c0.3-0.3,0.2-1.1,0.5-1.4c0.3-0.4,0.8-0.5,1.1-0.9
			c0.3-0.4,0.5-0.8,0.8-1.2c0.3-0.4,1-0.4,1.3-0.8c0.3-0.4,0.3-0.9,0.6-1.3c0.3-0.4,0.6-0.7,0.9-1.1c0.3-0.4,0.2-1,0.5-1.4
			c0.3-0.4,0.9-0.5,1.2-0.9c0.3-0.4,0.4-0.9,0.7-1.3c0.3-0.4,0.3-0.9,0.6-1.3c0.3-0.4,0.8-0.6,1.1-1c0.2-0.4,0.3-0.9,0.6-1.3
			c0.2-0.4,0.6-0.7,0.8-1.1c0.2-0.4,0.3-0.9,0.5-1.3c0.2-0.4,0.7-0.7,0.9-1.1c0.2-0.4,0.5-0.8,0.7-1.2c0.2-0.4,0.4-0.8,0.6-1.2
			c0.2-0.4,0.6-0.8,0.8-1.2c0.2-0.4,0.1-1,0.3-1.4c0.2-0.4,0.7-0.7,0.9-1.1c0.2-0.4,0.6-0.8,0.8-1.2c0.2-0.4-0.2-1.2,0-1.6
			c0.2-0.4,0.7-0.7,0.9-1.1c0.2-0.4,0.3-0.9,0.5-1.3c0.2-0.4,0.6-0.8,0.8-1.2c0.2-0.4,0.3-0.9,0.5-1.3c0.2-0.4,0.9-0.6,1.1-1
			c0.2-0.4,0.1-1,0.3-1.4c0.2-0.5,0.1-1,0.3-1.4c0.2-0.5,0.7-0.8,0.9-1.1C822.5,576.8,823.1,577,822.6,576.5z"/>
		<path class="st10" d="M819.8,460.3c-0.7,0-0.6-0.3-1.3-0.5c-0.7-0.2-0.8,0.1-1.5,0c-0.7-0.2-0.7,0-1.4-0.1
			c-0.7-0.2-0.7-0.1-1.4-0.3c-0.7-0.2-0.7,0-1.4-0.2c-0.7-0.2-0.7-0.2-1.4-0.4c-0.7-0.2-0.7,0-1.4-0.1c-0.7-0.2-0.7-0.2-1.4-0.4
			c-0.7-0.2-0.7-0.3-1.4-0.4c-0.7-0.2-0.6-0.5-1.3-0.6c-0.7-0.2-0.8,0.2-1.5,0.1c-0.7-0.2-0.6-0.6-1.3-0.8c-0.7-0.2-0.7-0.1-1.4-0.3
			c-0.7-0.2-0.8,0.5-1.5,0.3c-0.7-0.2-0.6-0.6-1.3-0.8c-0.7-0.2-0.8,0.1-1.5,0c-0.7-0.2-0.7-0.1-1.4-0.2c-0.7-0.2-0.7-0.1-1.4-0.3
			c-0.7-0.2-0.6-0.5-1.3-0.6c-0.7-0.2-0.8,0.2-1.5,0c-0.7-0.2-0.6-0.5-1.3-0.6c-0.7-0.2-0.7-0.1-1.4-0.2c-0.7-0.2-0.7-0.1-1.4-0.3
			c-0.7-0.2-0.7-0.3-1.4-0.5c-0.7-0.2-0.7,0-1.4-0.1c-0.7-0.2-0.7-0.1-1.4-0.3c-0.7-0.2-0.6-0.4-1.3-0.5c-0.7-0.2-0.8,0.4-1.5,0.3
			c-0.7-0.2-0.6-0.4-1.3-0.5c-0.7-0.2-0.7,0-1.4-0.1c-0.7-0.2-0.6-0.5-1.3-0.7c-0.7-0.2-0.7-0.3-1.4-0.5c-0.7-0.2-0.8,0.3-1.5,0.2
			c-0.7-0.2-0.6-0.5-1.3-0.6c-0.7-0.2-0.7,0.1-1.4-0.1c-0.7-0.2-0.7-0.5-1.4-0.4c-0.7,0.1-0.7,0.2-1.3,0.5c-0.6,0.4-0.6,0.4-1.2,0.7
			c-0.6,0.4-0.5,0.5-1.1,0.9c-0.6,0.4-0.5,0.6-1.1,0.9c-0.6,0.4-0.6,0.3-1.2,0.7c-0.6,0.4-0.7,0.2-1.3,0.6c-0.6,0.4-0.6,0.3-1.2,0.7
			c-0.6,0.4-0.7,0.2-1.3,0.6c-0.6,0.4-0.7,0.1-1.3,0.5c-0.6,0.4-0.5,0.5-1.1,0.8c-0.6,0.4-0.4,0.7-1,1c-0.6,0.4-0.6,0.3-1.2,0.7
			c-0.6,0.4-0.8,0-1.4,0.4c-0.6,0.4-0.6,0.3-1.2,0.6c-0.6,0.4-0.4,0.7-1,1.1c-0.6,0.4-0.7,0.2-1.3,0.6c-0.6,0.4-0.5,0.5-1.1,0.9
			c-0.6,0.4-0.6,0.4-1.2,0.7c-0.6,0.4-0.6,0.3-1.2,0.7c-0.6,0.4-1-0.1-1.4,0.5c-0.3,0.6-0.1,0.8-0.1,1.5c0,0.7,0.1,0.7,0.1,1.4
			c0,0.7-0.2,0.7-0.1,1.4c0,0.7,0.3,0.7,0.3,1.4c0,0.7-0.2,0.7-0.2,1.4c0,0.7,0.6,0.7,0.6,1.4c0,0.7-0.3,0.7-0.2,1.4
			c0,0.7-0.4,0.7-0.4,1.4c0,0.7,0.3,0.7,0.3,1.4c0,0.7,0,0.7,0,1.4c0,0.7,0.2,0.7,0.2,1.4c0,0.7,0,0.7,0,1.4c0,0.7-0.4,0.7-0.3,1.4
			c0,0.7,0.8,0.7,0.8,1.4c0,0.7-0.7,0.7-0.7,1.4c0,0.7,0.3,0.7,0.3,1.4c0,0.7,0.4,0.7,0.4,1.4c0,0.7-0.5,0.7-0.5,1.4
			c0,0.7,0.2,0.7,0.2,1.4c0,0.7,0.4,0.7,0.4,1.4c0,0.7-0.1,0.7-0.1,1.4c0,0.7,0.2,0.7,0.3,1.4c0,0.7-0.6,0.7-0.6,1.4
			c0,0.7,0.6,0.7,0.6,1.4c0,0.7-0.2,0.7-0.2,1.4c0,0.7,0.3,0.7,0.3,1.4c0,0.7-0.2,0.7-0.2,1.4c0,0.7-0.3,0.7-0.3,1.4
			c0,0.7,0,0.7,0,1.4c0,0.7-0.1,0.7-0.1,1.4c0,0.7,0.2,0.7,0.2,1.4c0,0.7,0.3,0.7,0.3,1.4c0,0.7-0.2,0.7-0.2,1.4
			c0,0.7,0.5,0.7,0.5,1.4c0,0.7-0.5,0.7-0.5,1.4c0,0.7,0.2,0.7,0.2,1.4c0,0.7,0.2,0.7,0.3,1.4c0,0.7-0.6,0.7-0.5,1.4
			c0,0.7,0.5,0.7,0.5,1.4c0,0.7-0.1,0.7-0.1,1.4c0,0.5,0,0.9,0,1.4c0,0.5,0.4,0.9,0.4,1.4c0,0.5,0.1,0.9,0.2,1.4
			c0.1,0.5,0.1,0.9,0.1,1.4c0.1,0.5,0,0.9,0.1,1.4c0.1,0.5,0.4,0.9,0.5,1.3c0.1,0.5-0.1,1,0,1.4c0.1,0.5,0.5,0.8,0.6,1.3
			c0.1,0.5-0.3,1.1-0.1,1.5c0.2,0.4,0.8,0.7,0.9,1.2c0.2,0.4,0.4,0.8,0.6,1.3c0.2,0.4,0.2,1,0.4,1.4c0.2,0.4,0.6,0.7,0.8,1.2
			c0.2,0.4,0.5,0.8,0.8,1.2c0.2,0.4,0.5,0.8,0.7,1.2c0.3,0.4,0.1,1,0.4,1.4c0.3,0.4,0.7,0.7,1,1c0.3,0.4,0.9,0.5,1.2,0.9
			c0.3,0.4,0.6,0.7,0.9,1.1c0.3,0.4,0.6,0.7,0.9,1.1c0.3,0.3,0.4,1,0.7,1.3c0.3,0.3,0.8,0.5,1.2,0.8c0.3,0.3,0.4,1,0.8,1.3
			c0.4,0.3,1.2,0.1,1.5,0.3c0.4,0.3,0.7,0.6,1.1,0.8c0.4,0.3,0.5,0.9,0.9,1.1c0.4,0.3,0.9,0.3,1.3,0.6c0.4,0.2,0.9,0.3,1.3,0.6
			c0.4,0.2,0.6,0.8,1,1c0.4,0.2,0.7,0.6,1.2,0.8c0.4,0.2,1.1-0.1,1.5,0.1c0.4,0.2,0.9,0.3,1.3,0.5c0.4,0.2,0.7,0.7,1.2,0.8
			c0.4,0.1,1-0.1,1.5,0c0.5,0.1,0.8,0.5,1.3,0.6c0.5,0.1,0.8,0.6,1.3,0.6c0.5,0.1,0.9,0.2,1.4,0.3c0.5,0.1,1-0.1,1.4,0
			c0.5,0.1,1-0.3,1.4-0.2c0.5,0,0.9,0.3,1.4,0.3c0.5,0,0.9,0.1,1.4,0.1c0,0,0,0.2,0,0.2c0.5,0,0.9-0.4,1.4-0.4
			c0.5,0,0.9-0.1,1.4-0.2c0.5,0,1,0.4,1.5,0.3c0.5-0.1,0.9-0.7,1.3-0.8c0.5-0.1,0.9-0.1,1.4-0.2c0.5-0.1,0.9-0.2,1.4-0.3
			c0.5-0.1,1,0.1,1.5,0c0.5-0.1,0.9-0.4,1.3-0.6c0.4-0.1,0.9-0.4,1.3-0.5c0.4-0.2,1.1,0.1,1.5-0.1c0.4-0.2,0.7-0.7,1.1-0.9
			c0.4-0.2,0.9-0.3,1.3-0.5c0.4-0.2,0.7-0.7,1.1-0.9c0.4-0.2,1-0.2,1.4-0.4c0.4-0.2,0.8-0.5,1.2-0.8c0.4-0.3,0.9-0.4,1.2-0.7
			c0.4-0.3,0.6-0.8,1-1.1c0.4-0.3,0.8-0.5,1.2-0.8c0.4-0.3,0.6-0.7,1-1c0.3-0.3,0.4-0.9,0.8-1.2c0.3-0.3,0.7-0.7,1-1
			c0.3-0.3,0.7-0.7,1-1c0.3-0.4,0.7-0.6,1-1c0.3-0.4,0.6-0.8,0.8-1.1c0.3-0.4,0.7-0.6,1-1c0.3-0.4,0.5-0.8,0.7-1.2
			c0.3-0.4,0.5-0.8,0.7-1.2c0.2-0.4,0.3-0.9,0.5-1.3c0.2-0.4,0.2-0.9,0.4-1.4c0.2-0.4,0.5-0.8,0.7-1.2c0.2-0.4,0.3-0.9,0.4-1.3
			c0.2-0.4,0.9-0.7,1.1-1.1c0.2-0.4,0.3-0.9,0.4-1.4c0.1-0.4,0.4-0.9,0.5-1.3c0.1-0.5-0.2-1-0.1-1.5c0.1-0.5,0.3-0.9,0.4-1.4
			c0.1-0.5,0.1-0.9,0.2-1.4c0.1-0.5,0.3-0.9,0.4-1.4c0.1-0.5,0.1-0.9,0.2-1.4c0-0.5-0.1-1-0.1-1.4c0-0.5,0.2-0.9,0.2-1.4
			c0-0.7,0.1-0.7,0.1-1.4c0-0.7-0.4-0.7-0.4-1.4c0-0.7,0-0.7,0-1.4c0-0.7,0.4-0.7,0.4-1.4c0-0.7-0.1-0.7,0-1.4
			c0-0.7-0.5-0.7-0.5-1.4c0-0.7,0.6-0.7,0.6-1.4c0-0.7-0.1-0.7-0.1-1.4c0-0.7,0.2-0.7,0.2-1.4c0-0.7-0.1-0.7,0-1.4
			c0-0.7-0.3-0.7-0.2-1.4c0-0.7,0.4-0.7,0.5-1.4c0-0.7-0.4-0.7-0.4-1.4c0-0.7,0.1-0.7,0.2-1.4c0-0.7,0-0.7,0-1.4
			c0-0.7,0.1-0.7,0.2-1.4c0-0.7-0.1-0.7-0.1-1.4c0-0.7,0-0.7,0-1.4c0-0.7-0.1-0.7-0.1-1.4c0-0.7,0.3-0.7,0.3-1.4
			c0-0.7-0.6-0.7-0.6-1.4c0-0.7,0.4-0.7,0.4-1.4c0-0.7,0.2-0.7,0.3-1.4c0-0.7-0.3-0.7-0.3-1.4c0-0.7-0.2-0.7-0.2-1.4
			c0-0.7,0-0.7,0-1.4c0-0.7,0.6-0.7,0.6-1.4c0-0.7-0.2-0.7-0.2-1.4c0-0.7-0.3-0.7-0.3-1.4c0-0.7,0.3-0.7,0.3-1.4
			c0-0.7-0.1-0.7-0.1-1.4c0-0.7,0.4-0.7,0.4-1.4c0-0.7-0.5-0.7-0.5-1.4c0-0.7,0.7-0.7,0.7-1.4c0-0.7,0-0.7,0.1-1.4
			c0-0.7-0.2-0.7-0.2-1.4c0-0.7-0.4-0.7-0.4-1.4c0-0.7,0.1-0.7,0.1-1.4c0-0.7,0.1-0.7,0.1-1.4c0-0.7-0.1-0.7-0.1-1.4
			c0-0.7,0.6-0.7,0.7-1.4c0-0.7,0.4-1.1,0-1.6C821,460,820.6,460.2,819.8,460.3z"/>
		<path class="st10" d="M748,514.2c0-0.7-0.3-0.7-0.3-1.4c0-0.7,0-0.7,0-1.4c0-0.7,0.3-0.7,0.2-1.4c0-0.7-0.4-0.7-0.4-1.4
			c0-0.7,0.3-0.7,0.3-1.4c0-0.7-0.5-0.7-0.6-1.4c0-0.7,0-0.7-0.1-1.4c0-0.7,0.5-0.7,0.5-1.5c0-0.7-0.7-0.7-0.7-1.4
			c0-0.7,0.1-0.7,0-1.4c0-0.7,0.3-0.7,0.2-1.4c0-0.7-0.4-0.7-0.5-1.4c0-0.7,0.2-0.7,0.2-1.4c0-0.7,0-0.7-0.1-1.4
			c0-0.7-0.5-0.7-0.5-1.4c0-0.7,0.3-0.7,0.3-1.4c0-0.7,0.1-0.7,0-1.4c0-0.7,0.2-0.8-0.1-1.5c-0.5,0-1.1,0.1-1.6,0.1
			c-0.5,0-0.9,0.4-1.4,0.5c-0.5,0.1-0.9,0.3-1.4,0.4c-0.5,0.1-1-0.1-1.5,0.1c-0.4,0.2-0.9,0.4-1.3,0.7c-0.4,0.2-1,0.3-1.4,0.5
			c-0.4,0.3-0.7,0.7-1,1c-0.4,0.3-0.6,0.8-0.9,1.1c-0.3,0.3-0.6,0.7-0.9,1.1c-0.3,0.4-0.5,0.8-0.7,1.2c-0.2,0.4-0.4,0.9-0.6,1.3
			c-0.2,0.4-0.5,0.8-0.7,1.3c-0.2,0.4-0.7,0.8-0.8,1.3c-0.1,0.5,0.1,1,0,1.5c-0.1,0.5-0.5,0.9-0.5,1.4c0,0.5,0.5,1,0.5,1.5
			c0,0.5-0.2,1-0.1,1.4c0.1,0.5,0.4,0.9,0.5,1.3c0.1,0.5,0.2,0.9,0.4,1.3c0.2,0.4,0.6,0.7,0.8,1.1c0.3,0.4,0.4,0.9,0.7,1.2
			c0.3,0.4,0.4,0.9,0.7,1.2c0.3,0.3,0.7,0.7,1.1,1c0.4,0.3,0.6,0.8,0.9,1.1c0.4,0.3,1.1,0,1.5,0.3c0.4,0.3,0.5,1.1,0.9,1.3
			c0.4,0.2,0.9,0.3,1.4,0.5c0.4,0.2,0.8,0.5,1.3,0.7c0.5,0.2,1.1-0.4,1.6-0.2c0.5,0.1,0.9,0.4,1.3,0.5c0.5,0.1,0.9,0.4,1.4,0.5
			c0.5,0.1,0.9-0.1,1.4-0.1c0.2-0.7,0.2-0.7,0.1-1.4C747.9,514.9,748,514.9,748,514.2z"/>
		<path class="st10" d="M832.4,504.2c-0.1-0.5-0.7-0.9-0.8-1.3c-0.1-0.5,0.1-1-0.1-1.5c-0.2-0.5-0.6-0.8-0.8-1.2
			c-0.2-0.4-0.1-1.1-0.3-1.5c-0.3-0.4-0.5-0.9-0.8-1.3c-0.3-0.4-0.8-0.7-1.1-1c-0.4-0.3-0.8-0.5-1.2-0.8c-0.4-0.3-0.8-0.5-1.3-0.7
			c-0.4-0.2-0.9-0.2-1.4-0.4c-0.5-0.2-1-0.1-1.4-0.2c-0.5-0.1-0.9-0.5-1.4-0.5c-0.5-0.1-1-0.1-1.4-0.1c-0.5,0-1.3-0.2-1.8-0.2
			c-0.3,0.7,0,0.8,0,1.5c0,0.7,0.2,0.7,0.2,1.4c0,0.7,0.1,0.7,0,1.4c0,0.7,0,0.7-0.1,1.4c0,0.7-0.1,0.7-0.2,1.4
			c0,0.7-0.4,0.7-0.5,1.4c0,0.7,0.4,0.7,0.3,1.4c0,0.7,0,0.7-0.1,1.4c0,0.7-0.3,0.7-0.4,1.4c0,0.7,0.3,0.7,0.3,1.4
			c0,0.7-0.4,0.7-0.4,1.4c0,0.7-0.1,0.7-0.2,1.4c0,0.7,0.6,0.7,0.5,1.4c0,0.7-0.6,0.7-0.6,1.4c0,0.7-0.1,0.7-0.1,1.4
			c0,0.7,0.5,0.8,0.4,1.5c-0.1,0.7-0.6,0.7-0.4,1.4c0.5,0,1-0.1,1.5-0.2c0.5,0,1,0.2,1.5,0.1c0.5-0.1,1,0.1,1.5,0
			c0.5-0.1,0.8-0.9,1.3-1c0.5-0.1,1-0.1,1.4-0.2c0.5-0.2,0.8-0.5,1.3-0.7c0.4-0.2,1.2,0.2,1.6-0.1c0.4-0.2,0.5-1,0.9-1.3
			c0.4-0.3,0.9-0.4,1.3-0.7c0.4-0.3,0.7-0.7,0.9-1.1c0.3-0.4,0.8-0.7,1-1.1c0.2-0.4,0.6-0.8,0.7-1.3c0.1-0.4,0.1-1,0.1-1.5
			c0.1-0.5,0.2-1,0.2-1.5c0-0.5-0.2-1-0.3-1.4C832.3,505.2,832.5,504.7,832.4,504.2z"/>
		<polygon class="st11" points="834.7,463.3 834.5,461.9 834.4,460.6 834.2,459.3 833.4,458.2 832.9,457 832.5,455.7 831.3,454.9 
			830.8,453.7 830.1,452.5 829.4,451.4 828.4,450.5 827.6,449.5 826.3,449 825.4,447.9 824.6,446.9 823.4,446.3 822.6,445.2 
			821.4,444.6 820.4,443.8 819.5,442.8 818.5,442 817.2,441.4 816.5,440.3 815.1,439.9 814.5,438.6 813.5,437.7 812.6,436.8 
			811.3,436.2 810.3,435.4 809,434.9 808.3,433.6 807.1,433.1 806.1,432.2 804.9,431.6 803.5,431.4 802.5,430.5 801.4,429.7 
			800.2,429.2 798.8,429 797.6,428.5 796.4,427.9 795.2,427.5 793.9,427 792.5,427.3 791.3,426.6 790,426.5 788.6,426.7 
			787.4,425.9 786.1,425.9 784.7,426.2 783.4,426.1 782.1,426 780.8,426.4 779.5,426.3 778.1,426 776.9,426.8 775.5,426.5 
			774.3,427 772.9,426.9 771.8,427.8 770.4,427.8 769.1,428.2 767.9,428.6 766.8,429.4 765.6,430 764.2,430.1 763.1,430.8 
			762,431.6 760.9,432.2 759.9,433.1 758.8,433.9 757.6,434.5 756.6,435.4 755.8,436.4 754.6,437 754,438.3 753.1,439.3 
			752.3,440.3 751.4,441.3 750.6,442.3 749.6,443.2 749.3,444.6 748.2,445.7 748.7,445.8 747.5,446.3 746.5,447.2 745.2,447.7 
			744.1,448.5 743.4,449.6 742.6,450.7 741.9,451.8 740.7,452.6 740.5,454 739.9,455.2 738.8,456.1 738.6,457.5 738,458.7 
			737.5,459.9 736.5,460.9 736.2,462.2 735.9,463.6 735.5,464.8 734.6,465.9 734.4,467.3 734.1,468.5 733.9,469.9 733.2,471.1 
			733,472.4 732.9,473.7 733.2,475.1 732.9,476.5 733.7,477.7 733.8,479 734.3,480.3 735.1,481.4 736,482.4 736.7,483.5 
			737.2,484.8 738.2,485.7 738.5,487.2 739.5,488.1 740.2,489.3 741.3,490.1 741.9,491.3 742.6,492.4 743.5,493.5 744.1,494.7 
			744.9,495.8 745.2,497.1 745.6,498.4 746.1,497 746.4,495.7 746.5,494.3 746.3,492.8 747,491.6 746.8,490.1 747.4,488.8 
			747.5,487.4 748.5,486.5 749.3,485.5 750.7,485.1 751.5,484 752.5,483.1 752.9,481.7 753.9,480.8 754.9,480 755.2,478.6 
			755.9,477.5 757.2,476.7 757.7,475.5 758.4,474.4 759,473.2 759.1,471.8 759.9,470.7 760.5,469.5 760.8,468.3 761.6,467.2 
			761.6,465.7 762.2,464.6 762.9,463.4 763,462.1 763.5,460.9 764.2,459.7 764.7,458.5 765.1,457.2 765.2,456 766.5,456.1 
			767.8,456.5 768.9,457.3 770.2,457.5 771.3,458.3 772.7,458.4 773.8,459.1 775.1,459.4 776.4,459.6 777.6,460.3 778.9,460.5 
			780.1,461.1 781.2,461.8 782.5,462.1 783.6,462.9 784.9,463 786.3,463.2 787.4,464.1 788.5,464.7 789.9,464.7 791.1,465.2 
			792.3,465.8 793.5,466.4 794.8,466.6 796,467.1 797.3,467.4 798.6,467.7 799.8,468 801,468.6 802.2,469.1 803.3,469.6 
			804.6,469.9 805.9,470.2 806.7,471.2 807.8,472 809,472.6 809.7,473.7 810.2,475 811.2,475.9 811.5,477.3 812.4,478.3 
			813.2,479.4 813.7,480.7 814.2,481.9 815.2,482.9 815.9,484.1 816,485.5 816.6,486.7 817.6,487.7 817.7,489.2 818.8,490.1 
			818.9,491.6 819.5,492.8 820.1,494 821.2,494.9 821.2,496.4 822,497.8 822.6,496.3 822.6,494.9 823.4,493.8 824.4,492.8 
			824.6,491.4 825.2,490.2 826.2,489.3 826.4,487.9 827.5,487 827.8,485.6 828.3,484.4 829.3,483.4 830,482.3 830.8,481.2 
			831.2,479.9 831.9,478.8 832.1,477.4 832.5,476.1 833.1,474.9 833.3,473.6 834.2,472.5 834.2,471.1 834.8,469.9 834.4,468.5 
			834.9,467.2 835,465.9 834.7,464.6 		"/>
		<polygon class="st0" points="887.6,670.6 887.8,669.3 887.9,668 887.8,666.6 887.7,665.3 887.7,664 888.4,662.6 888.1,661.3 
			887.7,660 888.3,658.6 888.2,657.3 888.2,656 888.3,654.6 887.7,653.3 887.8,652 887.7,650.7 887.8,649.3 888.1,648 887.9,646.7 
			888.2,645.3 888.2,644 888,642.7 888.3,641.3 888,640 887.9,638.7 888,637.4 888.3,636 887.9,634.7 888.3,633.4 887.6,632 
			887.9,630.7 888.2,629.4 887.9,628 888.3,626.7 888.2,625.4 887.8,624.1 888.1,622.7 887.7,621.4 888.4,620.1 887.9,618.8 
			887.9,617.5 887.6,616.2 888.1,614.8 887.4,613.6 887.7,612.2 887.3,610.9 886.8,609.7 886.2,608.5 886.2,607.1 885.4,606 
			884.8,604.8 884.6,603.5 883.6,602.5 882.8,601.5 882.3,600.3 881.6,599.1 880.6,598.2 880.2,596.8 879,596.1 878.5,594.9 
			877.6,593.9 876.4,593.2 875.7,592.1 874.7,591.2 873.3,590.8 872.5,589.7 871.3,589.2 870.1,588.6 868.9,588 867.9,587 
			866.7,586.6 865.6,585.8 864.4,585.3 863.3,584.6 862.1,584 860.7,583.9 859.6,583.2 858.3,582.8 857,582.5 855.6,582.4 
			854.4,582 853.2,581.6 851.9,581.3 850.7,580.5 849.3,580.6 848.1,580 846.8,579.8 845.6,579.1 844.3,579.2 843.1,578.4 
			841.7,578.3 840.5,577.8 839.1,577.9 837.8,577.7 836.7,576.8 835.3,577.1 834,576.7 832.7,576.7 831.4,576.5 830.2,575.5 
			828.9,575.6 827.5,575.7 826.2,575.3 825,574.7 823.7,574.8 822.3,574.7 821,574.5 819.8,573.7 818.4,574.1 817.2,573.4 
			815.9,573.2 814.6,573.3 813.3,572.7 812,572.8 810.7,572.4 809.4,572.4 808.1,572.6 806.7,572.9 805.4,572.7 804.1,572.9 
			802.8,572.7 801.5,572.9 800.2,572.6 798.9,572.3 797.6,572.8 796.3,572.6 795,572.7 793.6,572.7 792.3,572.6 791,572.4 
			789.7,572.5 788.4,572.7 787.1,572.7 785.8,572.4 784.5,572.8 783.2,572.4 781.9,572.9 780.6,572.7 779.3,572.8 778,572.6 
			776.6,572.5 775.3,572.7 774,572.9 772.7,572.4 771.4,572.4 770.1,572.8 768.8,572.3 767.5,573 766.2,572.8 764.9,572.7 
			763.6,573 762.3,572.3 761,572.4 759.6,572.3 758.4,573.1 757.1,573.1 755.7,572.9 754.4,573.1 753.2,573.8 751.8,573.4 
			750.6,574.1 749.3,574.6 747.9,574.4 746.7,574.8 745.3,574.8 744.1,575.3 742.8,575.6 741.4,575.3 740.2,576 738.8,575.9 
			737.6,576.6 736.2,576.4 735,576.9 733.7,577.4 732.5,577.7 731.2,578 729.9,578.4 728.5,578.1 727.3,578.6 726,579.2 
			724.6,578.9 723.4,579.5 722.1,579.7 721,580.5 719.6,580.5 718.4,581.2 717.1,581.5 715.7,581.3 714.5,582 713.2,582.2 
			712.1,583.1 710.7,583 709.6,583.9 708.3,584.2 707,584.5 706.1,585.6 704.8,586 703.5,586.3 702.4,587 701.4,588 700,588.2 
			699.3,589.5 697.9,589.8 696.8,590.5 695.8,591.4 695,592.4 693.8,593.1 693.1,594.3 691.9,594.9 691,595.9 690.2,596.9 
			689.3,597.9 688.6,599.1 688.1,600.3 687.1,601.2 686.9,602.6 686.3,603.7 685.1,604.7 684.9,606 684.1,607.1 683.9,608.4 
			683.4,609.6 683.4,611 683.3,612.3 682.7,613.5 682.4,614.8 682.1,616.1 682.3,617.4 682.6,618.7 682.4,620 682.7,621.4 
			682.1,622.7 682.3,624.1 682.5,625.4 682.4,626.7 682.7,628.1 682.3,629.4 682.2,630.7 682.1,632.1 682,633.4 682.5,634.7 
			682,636 682.3,637.4 682,638.7 682.4,640 682.6,641.4 682.6,642.7 682.1,644 682,645.4 682.2,646.7 682.4,648 682.7,649.4 
			682.1,650.7 682.1,652 682.7,653.3 682.6,654.7 682.4,656 682.7,657.3 682.6,658.7 682.2,660 682.1,661.3 682.2,662.7 682.2,664 
			682,665.3 682.2,666.7 682.2,668 682.2,669.3 682.4,670.6 682.4,672 682.1,673.3 682.4,674.6 888.3,674.6 888.3,673.3 888.4,672 
					"/>
		<path class="st11" d="M745.6,498.4l15.2,43.1l4.6-5.8l8,5.8l5.9-5.8l5.9,5.8l6.1-5.8l4.9,5.8l5.9-5.8l4.8,5.8
			c0,0,10.6-33.7,11-35.1c0.4-1.4,3.3-10,3.3-10l1.4-41l-45.1-9.4c0,0-17.4-0.9-20.1,2.7c-2.7,3.6-16.1,25.9-16.1,25.9L745.6,498.4z
			"/>
	</g>
</g>
</svg>
