<?xml version="1.0" encoding="utf-8"?>
<!-- Generator: Adobe Illustrator 24.1.3, SVG Export Plug-In . SVG Version: 6.00 Build 0)  -->
<svg version="1.1" id="レイヤー_1" xmlns="http://www.w3.org/2000/svg" xmlns:xlink="http://www.w3.org/1999/xlink" x="0px"
	 y="0px" viewBox="0 0 1440 1440" style="enable-background:new 0 0 1440 1440;" xml:space="preserve">
<style type="text/css">
	.st0{fill:#B2E2F8;}
	.st1{fill:#FFFFFF;stroke:#FFFFFF;stroke-miterlimit:10;}
	.st2{fill:#FFFFFF;}
	.st3{opacity:0.3;fill:#B2E2F8;}
	.st4{fill:#514F50;}
	.st5{fill:#E0F4FC;}
	.st6{fill:#57C0F0;}
	.st7{fill:#00A0E9;}
	.st8{clip-path:url(#SVGID_2_);}
	.st9{fill:#FFAF9B;}
	.st10{fill:#FFCFBA;}
	.st11{fill:#505050;}
	.st12{fill:#E7EFF9;}
	.st13{fill:#C9DCF1;}
	.st14{fill:#8BB9E3;}
	.st15{fill:#F76E57;}
	.st16{fill:#CEDFF3;}
	.st17{clip-path:url(#SVGID_4_);fill:#FFFFFF;}
	.st18{clip-path:url(#SVGID_4_);}
	.st19{fill:#9DC3E7;}
	.st20{fill:#B5D1ED;}
	.st21{clip-path:url(#SVGID_6_);fill:#FFFFFF;}
	.st22{clip-path:url(#SVGID_6_);}
	.st23{fill:none;stroke:#B2E2F8;stroke-miterlimit:10;}
	.st24{clip-path:url(#SVGID_8_);}
	.st25{clip-path:url(#SVGID_10_);fill:#FFFFFF;}
	.st26{clip-path:url(#SVGID_10_);}
	.st27{clip-path:url(#SVGID_12_);fill:#FFFFFF;}
	.st28{clip-path:url(#SVGID_12_);}
	.st29{clip-path:url(#SVGID_14_);}
	.st30{clip-path:url(#SVGID_16_);}
</style>
<path class="st0" d="M484.3,1133.8v-34.7h0.2v-38.6h-68.9l-0.2,38.6l0,0v34.7c-0.4,3.2-7.3,8.6-11,9.1h91.4
	C493.2,1142.5,485,1137.5,484.3,1133.8z"/>
<path class="st0" d="M484.3,1133.8v-34.7h0.2v-38.6h-68.9l-0.2,38.6l0,0v34.7c-0.4,3.2-7.3,8.6-11,9.1h91.4
	C493.2,1142.5,485,1137.5,484.3,1133.8z"/>
<rect x="275.5" y="836.9" class="st1" width="357.3" height="220.9"/>
<path class="st0" d="M644.3,815c-3-2.4-6.6-3.7-10.4-3.8c-10.7,0-21.4,0-32.1,0c-2.5,0-5,0-7.4,0c-5.6,0-11.3,0-16.9,0
	c-9.1,0-18.2,0-27.3,0c-11.7,0-23.5,0-35.2,0c-13.5,0-26.9,0-40.4,0c-14.3,0-28.5,0-42.8,0c-14.3,0-28.6,0-43,0
	c-13.4,0-26.7,0-40.1,0c-11.7,0-23.3,0-35,0c-9,0-18,0-27,0c-5.5,0-11.1,0-16.6,0c-1.2,0-2.4,0-3.5,0c-5.6,0-10.7,2.6-14,7.2
	c-3.5,5-2.9,11.1-2.9,16.9c0,8.6,0,17.1,0,25.7c0,12.4,0,24.8,0,37.3c0,14.3,0,28.5,0,42.8c0,13.8,0,27.6,0,41.4c0,11.3,0,22.7,0,34
	c0,6.6,0,13.3,0,19.9c0,0.9,0,1.8,0,2.6c0,1.6,1.4,3,3,3c6.6,0,13.2,0,19.7,0c1.6,0,3-1.4,3-3c0-6.8,0-13.6,0-20.4
	c0-16.4,0-32.7,0-49.1c0-19.7,0-39.4,0-59.1c0-17,0-34.1,0-51.1c0-5.6,0-11.2,0-16.9c0-1.8,0.1-3.6,0.1-5.4c2.6,0,5.2,0,7.8,0
	c9.7,0,19.4,0,29.2,0c14,0,28.1,0,42.1,0c16.5,0,33,0,49.4,0c17.3,0,34.6,0,51.8,0c16.2,0,32.5,0,48.7,0c13.4,0,26.7,0,40.1,0
	c8.8,0,17.7,0,26.5,0c3.2,0,6.4,0,9.6,0c14.3,0,28.7,0,43,0c0.3,0,0.6,0,0.9,0c0,5.8,0,11.7,0,17.5c0,16.4,0,32.7,0,49.1
	c0,19.7,0,39.4,0,59.1c0,17,0,34.1,0,51.1c0,8.3-0.3,16.6,0,24.9c0,0.1,0,0.2,0,0.4c0,1.6,1.4,3,3,3c6.6,0,13.2,0,19.7,0
	c1.6,0,3-1.4,3-3c0-7.8,0-15.5,0-23.3c0-18.3,0-36.7,0-55c0-21.5,0-43,0-64.5c0-17.2,0-34.4,0-51.5c0-4.7,0-9.3,0-14
	c0-0.9,0-1.9,0-2.8C650.3,822.9,648.2,818.2,644.3,815z"/>
<path class="st0" d="M249.7,1062.6c0,7.4,6,13.4,13.4,13.4h161.8h50.1h161.8c7.4,0,13.4-6,13.4-13.4V1039H249.7V1062.6z"/>
<path class="st0" d="M529.2,1137.5H369.4c-0.9,0-1.5,0.9-1.5,2v13.7c0,1.1,0.7,2,1.5,2h159.7c0.9,0,1.5-0.9,1.5-2v-13.7
	C530.7,1138.4,530,1137.5,529.2,1137.5z"/>
</svg>
