<?xml version="1.0" encoding="utf-8"?>
<!-- Generator: Adobe Illustrator 24.1.3, SVG Export Plug-In . SVG Version: 6.00 Build 0)  -->
<svg version="1.1" id="レイヤー_1" xmlns="http://www.w3.org/2000/svg" xmlns:xlink="http://www.w3.org/1999/xlink" x="0px"
	 y="0px" viewBox="0 0 1440 1440" style="enable-background:new 0 0 1440 1440;" xml:space="preserve">
<style type="text/css">
	.st0{fill:#B2E2F8;}
	.st1{fill:#FFFFFF;stroke:#FFFFFF;stroke-miterlimit:10;}
	.st2{clip-path:url(#SVGID_2_);fill:#FFFFFF;}
	.st3{clip-path:url(#SVGID_2_);}
	.st4{fill:#505050;}
	.st5{fill:#9DC3E7;}
	.st6{fill:#FFFFFF;}
	.st7{fill:#FFAF9B;}
	.st8{fill:#FFCFBA;}
	.st9{fill:#B5D1ED;}
	.st10{fill:#F76E57;}
	.st11{fill:#00A0E9;}
	.st12{clip-path:url(#SVGID_4_);fill:#FFFFFF;}
	.st13{clip-path:url(#SVGID_4_);}
	.st14{fill:none;stroke:#B2E2F8;stroke-width:2;stroke-miterlimit:10;}
	.st15{clip-path:url(#SVGID_6_);}
	.st16{clip-path:url(#SVGID_8_);}
	.st17{fill:#F3BF9B;}
	.st18{fill:#D8E5F5;}
	.st19{fill:#FDE2A4;}
	.st20{fill:#231815;}
	.st21{fill:#C0D7EF;}
	.st22{clip-path:url(#SVGID_10_);}
</style>
<g>
	<path class="st6" d="M727.3,908.2c0,2.1-1.7,3.7-3.7,3.7l0,0c-2.1,0-3.7-1.7-3.7-3.7l0,0c0-2.1,1.7-3.7,3.7-3.7l0,0
		C725.6,904.5,727.3,906.2,727.3,908.2z M727.3,926.9c0,2.1-1.7,3.7-3.7,3.7l0,0c-2.1,0-3.7-1.7-3.7-3.7l0,0c0-2.1,1.7-3.7,3.7-3.7
		l0,0C725.6,923.2,727.3,924.9,727.3,926.9z"/>
	<path class="st6" d="M727.3,889.5c0,2.1-1.7,3.7-3.7,3.7l0,0c-2.1,0-3.7-1.7-3.7-3.7l0,0c0-2.1,1.7-3.7,3.7-3.7l0,0
		C725.6,885.8,727.3,887.5,727.3,889.5z"/>
</g>
</svg>
