<?xml version="1.0" encoding="utf-8"?>
<!-- Generator: Adobe Illustrator 24.1.3, SVG Export Plug-In . SVG Version: 6.00 Build 0)  -->
<svg version="1.1" id="レイヤー_1" xmlns="http://www.w3.org/2000/svg" xmlns:xlink="http://www.w3.org/1999/xlink" x="0px"
	 y="0px" viewBox="0 0 1440 1440" style="enable-background:new 0 0 1440 1440;" xml:space="preserve">
<style type="text/css">
	.st0{fill:#FFFFFF;}
	.st1{opacity:0.3;}
	.st2{fill:#B2E2F8;}
	.st3{fill:#FF7A44;}
	.st4{fill:#00A0E9;}
	.st5{clip-path:url(#SVGID_2_);fill:#FFFFFF;}
	.st6{clip-path:url(#SVGID_2_);}
	.st7{fill:#CBDDF2;}
	.st8{fill:#C0D7EF;}
	.st9{fill:#D8E5F5;}
	.st10{fill:#B5D1ED;}
	.st11{fill:#8AB9E3;}
	.st12{clip-path:url(#SVGID_4_);fill:#FFFFFF;}
	.st13{clip-path:url(#SVGID_4_);}
	.st14{fill:#9DC3E7;}
	.st15{clip-path:url(#SVGID_6_);fill:#FFFFFF;}
	.st16{clip-path:url(#SVGID_6_);}
	.st17{fill:#E9F0F9;}
	.st18{clip-path:url(#SVGID_8_);fill:#FFFFFF;}
	.st19{clip-path:url(#SVGID_8_);}
	.st20{fill:#505050;}
	.st21{fill:#FFAF9B;}
	.st22{fill:#FFCFBA;}
	.st23{fill:#F76E57;}
	.st24{clip-path:url(#SVGID_10_);fill:none;}
	.st25{clip-path:url(#SVGID_10_);}
	.st26{fill:#47C9DE;}
	.st27{clip-path:url(#SVGID_12_);fill:none;}
	.st28{clip-path:url(#SVGID_12_);}
	.st29{fill:#FFDA65;}
	.st30{clip-path:url(#SVGID_14_);fill:#FFFFFF;}
	.st31{clip-path:url(#SVGID_14_);}
	.st32{clip-path:url(#SVGID_16_);fill:none;}
	.st33{clip-path:url(#SVGID_16_);}
	.st34{clip-path:url(#SVGID_18_);fill:none;}
	.st35{clip-path:url(#SVGID_18_);}
	.st36{clip-path:url(#SVGID_20_);}
	.st37{clip-path:url(#SVGID_22_);}
	.st38{clip-path:url(#SVGID_24_);}
	.st39{clip-path:url(#SVGID_26_);fill:#FFFFFF;}
	.st40{clip-path:url(#SVGID_26_);fill:#505050;}
	.st41{clip-path:url(#SVGID_26_);fill:#9DC3E7;}
	.st42{clip-path:url(#SVGID_26_);fill:#FFAF9B;}
	.st43{clip-path:url(#SVGID_26_);fill:#FFCFBA;}
	.st44{clip-path:url(#SVGID_26_);}
	.st45{clip-path:url(#SVGID_28_);fill:none;}
	.st46{clip-path:url(#SVGID_28_);}
	.st47{clip-path:url(#SVGID_30_);fill:none;}
	.st48{clip-path:url(#SVGID_30_);}
	.st49{clip-path:url(#SVGID_32_);fill:none;}
	.st50{clip-path:url(#SVGID_32_);}
	.st51{clip-path:url(#SVGID_34_);fill:#FFCFBA;}
	.st52{clip-path:url(#SVGID_34_);fill:#505050;}
	.st53{clip-path:url(#SVGID_34_);fill:#B2E2F8;}
	.st54{clip-path:url(#SVGID_36_);fill:#FFFFFF;}
	.st55{clip-path:url(#SVGID_36_);fill:#505050;}
	.st56{clip-path:url(#SVGID_36_);fill:#9DC3E7;}
	.st57{clip-path:url(#SVGID_36_);fill:#FFAF9B;}
	.st58{clip-path:url(#SVGID_36_);fill:#FFCFBA;}
	.st59{clip-path:url(#SVGID_36_);}
	.st60{clip-path:url(#SVGID_38_);fill:#FFCFBA;}
	.st61{clip-path:url(#SVGID_38_);fill:#505050;}
	.st62{clip-path:url(#SVGID_38_);fill:#B2E2F8;}
	.st63{clip-path:url(#SVGID_40_);fill:none;}
	.st64{clip-path:url(#SVGID_40_);}
	.st65{clip-path:url(#SVGID_42_);fill:#FFCFBA;}
	.st66{clip-path:url(#SVGID_42_);fill:#505050;}
	.st67{clip-path:url(#SVGID_42_);fill:#B2E2F8;}
</style>
<g>
	<path class="st0" d="M1128.5,913.2c0,5.2-4,8.3-10,8.3c-3.2,0-6.2-0.9-8.4-2.1c-0.6-0.3-0.9-0.6-0.9-1c0-0.2,0.1-0.5,0.3-0.9
		l0.6-1.2c0.3-0.6,0.5-0.9,0.8-0.9c0.2,0,0.5,0.2,0.9,0.4c2,1.3,4.5,2.1,7.2,2.1c3.5,0,5.8-1.7,5.8-4.5c0-2.8-2.8-4.2-6.4-5.8
		c-4.2-1.8-8.4-3.8-8.4-8.7s4-7.8,10-7.8c2.5,0,5,0.6,6.7,1.4c0.6,0.3,0.9,0.6,0.9,0.9c0,0.2,0,0.5-0.2,0.9l-0.6,1.4
		c-0.3,0.6-0.4,0.9-0.7,0.9c-0.2,0-0.5-0.1-0.9-0.3c-1.4-0.9-3.5-1.5-5.8-1.5c-3.6,0-5.6,1.7-5.6,4.1c0,2.6,2.2,3.7,6.2,5.5
		C1124.4,906.4,1128.5,908.4,1128.5,913.2z"/>
	<path class="st0" d="M1138.2,914.9c-0.7,1.7-1.3,3.1-2,5.2c-0.4,1.1-0.6,1.2-1.7,1.2h-1.7c-0.7,0-1-0.1-1-0.4c0-0.2,0-0.4,0.2-0.8
		c1.2-2.6,2.2-4.9,3.2-7.2l6-14.3c0.7-1.7,1.5-3.6,2.3-5.6c0.4-1.1,0.6-1.2,1.8-1.2h0.9c1.2,0,1.4,0.2,1.8,1.2
		c0.7,2,1.5,3.8,2.3,5.6l6.1,14.3c1,2.3,2,4.6,3.2,7.2c0.2,0.4,0.2,0.6,0.2,0.8c0,0.3-0.3,0.4-1,0.4h-1.9c-1.2,0-1.4-0.2-1.7-1.2
		c-0.7-2.1-1.2-3.3-1.9-5l-0.3-0.7c-0.2-0.6-0.6-0.9-1.5-0.9h-11.4c-0.9,0-1.2,0.3-1.5,0.9L1138.2,914.9z M1140.6,908.9
		c-0.1,0.3-0.2,0.6-0.2,0.7c0,0.4,0.3,0.5,1,0.5h8.5c0.7,0,1-0.1,1-0.5c0-0.2,0-0.4-0.2-0.7l-4.6-11.1c-0.2-0.5-0.3-0.7-0.5-0.7
		c-0.1,0-0.3,0.2-0.5,0.7L1140.6,908.9z"/>
	<path class="st0" d="M1165.7,921.2c-1,0-1.3-0.2-1.3-1.1c0-0.3,0-2,0.1-3.8c0-1.3,0-2.6,0-3.7v-12.6c0-2.5-0.1-7-0.1-7.3
		c0-0.9,0.3-1.2,1.2-1.2c0.3,0,3.5,0.1,5.5,0.1h3.6c5.8,0,9.3,2.6,9.3,8.4c0,5.7-3.2,10-10.8,10h-3.8c-1.1,0-1.3,0.2-1.3,1.3v1.3
		c0,1,0,2.4,0,3.7c0,1.7,0.1,3.5,0.1,3.8c0,0.9-0.3,1.1-1.3,1.1H1165.7z M1168.3,905.5c0,1.1,0.2,1.3,1.3,1.3h4
		c3.7,0,6.9-1.7,6.9-6.4c0-4.3-3-5.4-6.1-5.4h-4.7c-1.1,0-1.3,0.2-1.3,1.3V905.5z"/>
	<path class="st0" d="M1191.1,921.2c-1,0-1.3-0.2-1.3-1.1c0-0.3,0-2,0.1-3.8c0-1.3,0-2.6,0-3.7v-12.6c0-2.5-0.1-7-0.1-7.3
		c0-0.9,0.3-1.2,1.2-1.2c0.3,0,3.5,0.1,5.5,0.1h3.6c5.8,0,9.3,2.6,9.3,8.4c0,5.7-3.2,10-10.8,10h-3.8c-1.1,0-1.3,0.2-1.3,1.3v1.3
		c0,1,0,2.4,0,3.7c0,1.7,0.1,3.5,0.1,3.8c0,0.9-0.3,1.1-1.3,1.1H1191.1z M1193.6,905.5c0,1.1,0.2,1.3,1.3,1.3h4
		c3.7,0,6.9-1.7,6.9-6.4c0-4.3-3-5.4-6.1-5.4h-4.7c-1.1,0-1.3,0.2-1.3,1.3V905.5z"/>
	<path class="st0" d="M1242.8,906c0,9.8-7,15.5-14.9,15.5c-8.6,0-14.1-6.5-14.1-14.8c0-9.1,6-15.3,14.8-15.3
		C1237.2,891.4,1242.8,897.7,1242.8,906z M1217.6,906.7c0,6.5,4.1,11.2,10.4,11.2c5.9,0,10.9-4.4,10.9-11.7c0-6.5-4.2-11-10.4-11
		C1221.8,895.1,1217.6,900.2,1217.6,906.7z"/>
	<path class="st0" d="M1252.4,912.7c0,1.3,0,3.1,0,4.5c0,1.5,0.1,2.6,0.1,2.9c0,0.9-0.3,1.1-1.3,1.1h-1.4c-1,0-1.3-0.2-1.3-1.1
		c0-0.3,0-1.4,0.1-2.7c0-1.5,0-3.4,0-4.7v-12.6c0-2.5-0.1-7-0.1-7.3c0-0.9,0.3-1.2,1.2-1.2c0.3,0,3.5,0.1,5.5,0.1h3
		c5.4,0,9.1,2,9.1,8c0,4-2,7-5.5,8.7c-0.6,0.3-0.8,0.4-0.8,0.7c0,0.2,0.1,0.4,0.4,0.8l1.4,1.8c2.1,2.7,4.1,5.1,6.9,8.5
		c0.3,0.3,0.3,0.5,0.3,0.7c0,0.3-0.3,0.4-1,0.4h-2.3c-1.1,0-1.4-0.2-2-1.1c-1.8-2.6-3.5-4.9-5.3-7.1l-2-2.6c-0.6-0.9-1-1-2-1h-1.8
		c-1.1,0-1.3,0.2-1.3,1.3V912.7z M1252.4,904.9c0,1.1,0.2,1.3,1.3,1.3h3.1c3.5,0,6.8-1.4,6.8-6.1c0-4.3-2.8-5-5.6-5h-4.3
		c-1.1,0-1.3,0.2-1.3,1.3V904.9z"/>
	<path class="st0" d="M1302.8,906c0,9.8-7,15.5-14.9,15.5c-8.6,0-14.1-6.5-14.1-14.8c0-9.1,6-15.3,14.8-15.3
		C1297.2,891.4,1302.8,897.7,1302.8,906z M1277.7,906.7c0,6.5,4.1,11.2,10.4,11.2c5.9,0,10.9-4.4,10.9-11.7c0-6.5-4.2-11-10.4-11
		C1281.8,895.1,1277.7,900.2,1277.7,906.7z"/>
</g>
</svg>
