<?xml version="1.0" encoding="utf-8"?>
<!-- Generator: Adobe Illustrator 24.1.3, SVG Export Plug-In . SVG Version: 6.00 Build 0)  -->
<svg version="1.1" id="レイヤー_1" xmlns="http://www.w3.org/2000/svg" xmlns:xlink="http://www.w3.org/1999/xlink" x="0px"
	 y="0px" viewBox="0 0 1440 1440" style="enable-background:new 0 0 1440 1440;" xml:space="preserve">
<style type="text/css">
	.st0{fill:#FFFFFF;}
	.st1{opacity:0.3;}
	.st2{fill:#B2E2F8;}
	.st3{fill:#FF7A44;}
	.st4{fill:#00A0E9;}
	.st5{clip-path:url(#SVGID_2_);fill:#FFFFFF;}
	.st6{clip-path:url(#SVGID_2_);}
	.st7{fill:#CBDDF2;}
	.st8{fill:#C0D7EF;}
	.st9{fill:#D8E5F5;}
	.st10{fill:#B5D1ED;}
	.st11{fill:#8AB9E3;}
	.st12{clip-path:url(#SVGID_4_);fill:#FFFFFF;}
	.st13{clip-path:url(#SVGID_4_);}
	.st14{fill:#9DC3E7;}
	.st15{clip-path:url(#SVGID_6_);fill:#FFFFFF;}
	.st16{clip-path:url(#SVGID_6_);}
	.st17{fill:#E9F0F9;}
	.st18{clip-path:url(#SVGID_8_);fill:#FFFFFF;}
	.st19{clip-path:url(#SVGID_8_);}
	.st20{fill:#505050;}
	.st21{fill:#FFAF9B;}
	.st22{fill:#FFCFBA;}
	.st23{fill:#F76E57;}
	.st24{clip-path:url(#SVGID_10_);fill:none;}
	.st25{clip-path:url(#SVGID_10_);}
	.st26{fill:#47C9DE;}
	.st27{clip-path:url(#SVGID_12_);fill:none;}
	.st28{clip-path:url(#SVGID_12_);}
	.st29{fill:#FFDA65;}
	.st30{clip-path:url(#SVGID_14_);fill:#FFFFFF;}
	.st31{clip-path:url(#SVGID_14_);}
	.st32{clip-path:url(#SVGID_16_);fill:none;}
	.st33{clip-path:url(#SVGID_16_);}
	.st34{clip-path:url(#SVGID_18_);fill:none;}
	.st35{clip-path:url(#SVGID_18_);}
	.st36{clip-path:url(#SVGID_20_);}
	.st37{clip-path:url(#SVGID_22_);}
	.st38{clip-path:url(#SVGID_24_);}
	.st39{clip-path:url(#SVGID_26_);fill:#FFFFFF;}
	.st40{clip-path:url(#SVGID_26_);fill:#505050;}
	.st41{clip-path:url(#SVGID_26_);fill:#9DC3E7;}
	.st42{clip-path:url(#SVGID_26_);fill:#FFAF9B;}
	.st43{clip-path:url(#SVGID_26_);fill:#FFCFBA;}
	.st44{clip-path:url(#SVGID_26_);}
	.st45{clip-path:url(#SVGID_28_);fill:none;}
	.st46{clip-path:url(#SVGID_28_);}
	.st47{clip-path:url(#SVGID_30_);fill:none;}
	.st48{clip-path:url(#SVGID_30_);}
	.st49{clip-path:url(#SVGID_32_);fill:none;}
	.st50{clip-path:url(#SVGID_32_);}
	.st51{clip-path:url(#SVGID_34_);fill:#FFCFBA;}
	.st52{clip-path:url(#SVGID_34_);fill:#505050;}
	.st53{clip-path:url(#SVGID_34_);fill:#B2E2F8;}
	.st54{clip-path:url(#SVGID_36_);fill:#FFFFFF;}
	.st55{clip-path:url(#SVGID_36_);fill:#505050;}
	.st56{clip-path:url(#SVGID_36_);fill:#9DC3E7;}
	.st57{clip-path:url(#SVGID_36_);fill:#FFAF9B;}
	.st58{clip-path:url(#SVGID_36_);fill:#FFCFBA;}
	.st59{clip-path:url(#SVGID_36_);}
	.st60{clip-path:url(#SVGID_38_);fill:#FFCFBA;}
	.st61{clip-path:url(#SVGID_38_);fill:#505050;}
	.st62{clip-path:url(#SVGID_38_);fill:#B2E2F8;}
	.st63{clip-path:url(#SVGID_40_);fill:none;}
	.st64{clip-path:url(#SVGID_40_);}
	.st65{clip-path:url(#SVGID_42_);fill:#FFCFBA;}
	.st66{clip-path:url(#SVGID_42_);fill:#505050;}
	.st67{clip-path:url(#SVGID_42_);fill:#B2E2F8;}
</style>
<g>
	<defs>
		<circle id="SVGID_27_" cx="707.5" cy="247" r="152.1"/>
	</defs>
	<use xlink:href="#SVGID_27_"  style="overflow:visible;fill:#FFFFFF;"/>
	<clipPath id="SVGID_2_">
		<use xlink:href="#SVGID_27_"  style="overflow:visible;"/>
	</clipPath>
	<circle style="clip-path:url(#SVGID_2_);fill:none;" cx="707.5" cy="247" r="152.1"/>
	<g class="st6">
		<polygon class="st26" points="574.7,430.8 574.7,430.7 574.4,430.7 		"/>
		<polygon class="st14" points="843.5,361.8 842.9,360.1 843.3,358.5 842.3,357 842.7,355.2 842.2,353.7 841.5,352.1 841.4,350.5 
			840.6,349 839.6,347.7 839.2,346 838.3,344.7 837.4,343.3 836.8,341.7 835.5,340.7 834.6,339.3 833.8,337.8 832.4,336.9 
			831.6,335.4 830.3,334.4 828.9,333.4 827.7,332.4 826.2,331.6 825.3,330.1 823.7,329.6 822.3,328.7 821.1,327.5 819.3,327.3 
			817.9,326.6 816.5,325.7 815.1,324.8 813.6,324.1 812.1,323.5 810.6,323 808.9,322.8 807.5,321.8 806,321.1 804.5,320.6 
			802.8,320.7 801.2,320.3 799.6,320 798.3,319 796.6,319 795.1,318.4 793.5,318.2 792.1,317 790.6,316.5 789,316.2 787.5,315.6 
			785.9,315.3 784.4,314.8 782.7,314.9 781.1,314.4 779.7,313.5 778.1,313.2 776.6,312.8 774.9,313 773.4,312.1 771.9,311.6 
			770.1,312 768.6,311.4 767,311.1 765.6,310.3 764,310.1 762.4,309.6 760.8,309.5 759.4,308.5 757.8,308.1 756.1,308.5 
			754.6,307.5 753.1,307 751.4,307.3 749.9,306.4 748.3,306.2 746.9,305.3 745.3,305 743.7,304.8 742.1,304.8 740.4,305.1 
			738.8,304.7 737.2,304.5 735.6,305.2 733.9,304.9 732.3,304.7 730.7,304.7 729.1,304.4 727.4,305.2 725.8,304.5 724.2,304.8 
			722.6,304.3 720.9,304.9 719.3,304.6 717.7,305.2 716.1,304.7 714.4,304.7 712.8,304.7 711.2,304.7 709.6,304.6 707.9,305.1 
			706.3,304.5 704.7,304.8 703.1,304.6 701.4,304.5 699.8,304.4 698.2,304.5 696.6,304.9 694.9,304.7 693.3,305.1 691.7,304.8 
			690,304.7 688.4,304.5 686.8,304.5 685.2,304.4 683.5,305 681.9,305 680.3,304.3 678.7,304.3 677,305.1 675.4,304.3 673.9,305.5 
			672.4,305.9 670.6,305.6 669.1,306 667.6,306.5 665.9,306.6 664.4,307.2 662.9,307.9 661.3,307.9 659.7,308.2 658.1,308.7 
			656.6,309 655.1,309.7 653.4,309.5 652,310.6 650.3,310.6 648.9,311.5 647.2,311.2 645.6,311.8 644.2,312.6 642.7,313.1 641,313 
			639.4,313.2 637.8,313.5 636.3,314.2 634.8,314.9 633.2,315.1 631.6,315.4 630,315.6 628.5,316.2 627,316.9 625.4,317.3 
			623.9,317.7 622.3,318.3 620.7,318.3 619.2,318.8 617.6,319.2 616.1,319.9 614.6,320.5 613,320.6 611.4,321.2 610,322.1 
			608.3,322.1 607,323.2 605.4,323.7 603.8,324.1 602.5,325.2 600.8,325.3 599.5,326.3 597.8,326.7 596.7,328.1 595.1,328.6 
			593.6,329.3 592.2,330.2 591.1,331.5 589.6,332.1 588.3,333.2 587.2,334.4 586.1,335.7 585.2,337 583.6,337.8 582.7,339.2 
			582.2,340.8 581,342 580.1,343.3 579.3,344.8 578,345.9 577.9,347.7 576.7,349 576.4,350.6 576,352.2 575.6,353.7 575.3,355.3 
			574.9,356.9 574.4,358.5 574,360.1 574.1,361.7 574.4,363.4 574.7,365 574.6,366.6 574.3,368.2 574.2,369.8 574,371.4 574.1,373 
			574.2,374.6 574.1,376.2 574.7,377.8 574.4,379.4 574.4,381 574.7,382.6 574.4,384.2 574.6,385.8 574.1,387.5 574,389.1 
			574.2,390.7 574,392.3 574,393.9 573.9,395.5 574,397.1 574.8,398.7 574.7,400.3 574.3,401.9 574.3,403.5 574.7,405.1 
			574.3,406.7 574,408.3 574.3,409.9 574.1,411.5 574.1,413.1 574.5,414.8 574.7,416.4 574.1,418 574.1,419.6 574.8,421.2 
			574.4,422.8 574.9,424.4 574.6,426 574,427.6 574.5,429.2 574.7,430.7 843,431 843.5,430.8 843.2,429.2 843.3,427.6 843.4,426 
			843.3,424.4 843.2,422.8 843.4,421.2 842.6,419.6 842.6,418 842.6,416.4 842.6,414.8 842.7,413.2 843.4,411.6 843.3,410 
			843.3,408.4 843.5,406.8 843.4,405.2 842.7,403.6 842.9,401.9 842.6,400.3 843.5,398.7 843.1,397.1 842.6,395.5 843,393.9 
			842.6,392.3 843.2,390.7 842.8,389.1 842.9,387.5 843.4,385.9 843.2,384.3 842.8,382.7 842.6,381.1 842.7,379.5 843.4,377.9 
			842.8,376.3 842.6,374.6 842.6,373 843.1,371.4 843.3,369.8 843.4,368.2 842.8,366.6 842.7,365 842.8,363.4 		"/>
		<path class="st21" d="M747.5,266.5c-0.6-0.6-0.7-0.5-1.6-0.5c-0.9,0-0.9,0.7-1.7,0.7c-0.9,0-0.9,0.1-1.7,0.1c-0.9,0-0.9,0-1.7,0
			c-0.9,0-0.9-0.4-1.7-0.4c-0.9,0-0.9,0-1.7,0c-0.9,0-0.9-0.3-1.7-0.3c-0.9,0-0.9,0.4-1.7,0.4c-0.9,0-0.9,0-1.7,0
			c-0.9,0-0.9-0.6-1.7-0.6c-0.9,0-0.9,0.6-1.7,0.7c-0.9,0-0.9,0.2-1.7,0.2c-0.9,0-0.9-0.2-1.7-0.2c-0.9,0-0.9,0-1.7,0
			c-0.9,0-0.9-0.3-1.7-0.3c-0.9,0-0.9,0.4-1.7,0.4c-0.9,0-0.9-0.3-1.7-0.3c-0.9,0-0.9,0.4-1.7,0.4c-0.9,0-0.9-0.4-1.7-0.4
			c-0.9,0-0.9,0.3-1.7,0.3c-0.9,0-0.9,0.3-1.7,0.3c-0.9,0-0.9-0.1-1.7-0.1c-0.9,0-0.9-0.1-1.7-0.1c-0.9,0-0.9,0-1.7,0
			c-0.9,0-0.9,0.1-1.7,0.1c-0.9,0-0.9,0.1-1.7,0.1c-0.9,0-0.9-0.4-1.7-0.4c-0.9,0-0.9,0-1.7,0c-0.9,0-0.9-0.2-1.7-0.2
			c-0.9,0-0.9,0.4-1.7,0.4c-0.9,0-0.9-0.6-1.7-0.6c-0.9,0-0.9,0.6-1.7,0.6c-0.9,0-0.9,0.2-1.7,0.2c-0.9,0-0.9-0.1-1.7-0.1
			c-0.9,0-0.9-0.2-1.7-0.2c-0.9,0-0.9-0.2-1.7-0.1c-0.9,0-0.9,0-1.7,0c-0.9,0-0.9-0.2-1.7-0.2c-0.9,0-0.9,0.3-1.7,0.3
			c-0.9,0-0.9,0.2-1.7,0.2c-0.9,0-0.9,0.3-1.7,0.3c-0.9,0-1.2-1.1-1.8-0.4c-0.6,0.6,0.3,0.9,0.3,1.8c0,0.9-0.7,0.9-0.7,1.8
			c0,0.9,0.5,0.9,0.5,1.8c0,0.9-0.3,0.9-0.3,1.8c0,0.9,0.1,0.9,0.1,1.8c0,0.9,0.1,0.9,0.1,1.8c0,0.9-0.1,0.9-0.1,1.8
			c0,0.9,0.6,0.9,0.6,1.8c0,0.9-0.7,0.9-0.7,1.8c0,0.9,0.4,0.9,0.6,1.8c0.4,0.4,0.5,0.9,0.9,1.3c0.4,0.4,1,0.6,1.4,1
			c0.4,0.4,0.4,1.2,0.9,1.6c0.4,0.4,0.8,0.8,1.3,1.2c0.5,0.4,1.3,0.2,1.7,0.6c0.5,0.3,0.7,1,1.2,1.3c0.5,0.3,1.2,0.2,1.7,0.5
			c0.5,0.3,0.8,1,1.3,1.2c0.5,0.3,1.3,0.1,1.8,0.3c0.5,0.3,0.7,1.1,1.3,1.3c0.5,0.2,1.2,0.1,1.7,0.3c0.5,0.2,0.9,0.8,1.5,1
			c0.5,0.2,1.2,0,1.8,0.1c0.5,0.2,1.1,0.3,1.7,0.4c0.6,0.2,1,0.5,1.6,0.7c0.6,0.1,1.1,0.1,1.7,0.2c0.6,0.1,1.1,0.6,1.6,0.7
			c0.6,0.1,1.2,0,1.7,0.1c0.6,0.1,1.1,0.3,1.7,0.4c0.6,0.1,1.1,0.1,1.7,0.1c0.6,0.1,1.2-0.4,1.8-0.3c0.6,0,1.1,0.7,1.7,0.7
			c0.6,0,1.2,0,1.7,0c0.6,0,1.2,0.1,1.7,0.1c0.6,0,1.2,0.1,1.7,0c0.6,0,1.1-0.8,1.7-0.8c0.6,0,1.1-0.1,1.7-0.2
			c0.6,0,1.2,0.4,1.8,0.4c0.6-0.1,1.1-0.2,1.7-0.3c0.6-0.1,1.2,0.1,1.7,0c0.6-0.1,1.1-0.2,1.7-0.3c0.6-0.1,1.1-0.4,1.7-0.5
			c0.6-0.1,1-0.8,1.6-0.9c0.6-0.1,1.1-0.1,1.7-0.2c0.6-0.1,1.3,0.4,1.8,0.3c0.6-0.1,0.9-1.1,1.4-1.3c0.6-0.2,1.2,0.1,1.8-0.1
			c0.6-0.2,1-0.6,1.6-0.8c0.5-0.2,1.3,0.3,1.9,0.1c0.5-0.2,0.7-1.2,1.2-1.4c0.5-0.3,1.3,0,1.8-0.4c0.5-0.3,0.7-1,1.1-1.4
			c0.4-0.4,1.2-0.5,1.5-0.9c0.4-0.4,0.6-1,0.9-1.5c0.3-0.5,0.5-1.1,0.8-1.6c0.3-0.5,0.4-1.1,0.7-1.6c0.3-0.5,0.9-0.9,1.1-1.4
			c0.1-0.8,0.1-0.9,0.1-1.7c0-0.8-0.2-0.8-0.2-1.7c0-0.8-0.3-0.9-0.3-1.7c0-0.8,0.8-0.8,0.8-1.7c0-0.8-0.6-0.9-0.6-1.7
			c0-0.8,0.4-0.8,0.4-1.7c0-0.8-0.3-0.9-0.2-1.7c0-0.8,0.3-0.8,0.4-1.7c0-0.8-0.2-0.9-0.2-1.7c0-0.8,0.1-0.8,0.1-1.7
			C747.6,267.2,748.1,267.1,747.5,266.5z"/>
		<path class="st22" d="M756,307.7c-0.6-0.5-0.9-0.2-1.6-0.7c-0.6-0.5-0.3-1-0.9-1.5c-0.6-0.5-0.8-0.3-1.5-0.8
			c-0.6-0.5-0.9-0.2-1.6-0.7c-0.6-0.5-0.6-0.6-1.2-1.1c-0.6-0.5-0.5-0.6-1.2-1c-0.8-0.4-1-0.4-1.4-1.2c-0.4-0.8,0.3-1,0.3-1.8
			c0-0.9-0.3-0.9-0.3-1.8c0-0.9,0.2-0.9,0.2-1.7c0-0.9-0.3-0.9-0.3-1.7c0-0.9,0-0.9,0-1.7c0-0.9,0.6-0.9,0.6-1.7
			c0-0.9-0.3-0.9-0.3-1.8c0-0.9,0.6-0.9,0.7-1.7s-0.4-0.9-0.6-1.7c-0.2,0.5-0.6,0.8-0.9,1.4c-0.3,0.5,0,1.3-0.3,1.8
			c-0.3,0.5-1,0.7-1.4,1.2c-0.3,0.5-0.2,1.3-0.6,1.7c-0.4,0.4-0.8,0.9-1.2,1.3c-0.4,0.4-1.2,0.4-1.6,0.8c-0.5,0.4-1,0.6-1.5,0.8
			c-0.5,0.3-1.1,0.2-1.6,0.4c-0.5,0.2-0.9,0.9-1.4,1.1c-0.5,0.2-1.2,0.1-1.7,0.2c-0.5,0.2-1,0.5-1.6,0.7c-0.6,0.2-1.1,0.1-1.7,0.3
			c-0.6,0.1-1.2-0.1-1.8,0.1c-0.6,0.1-1,0.7-1.6,0.8c-0.6,0.1-1.2-0.2-1.8-0.1c-0.6,0.1-1,1-1.5,1.1c-0.6,0.1-1.2-0.1-1.8,0
			c-0.6,0.1-1.1,0.1-1.7,0.1c-0.6,0.1-1.1,0.2-1.7,0.3c-0.6,0.1-1.1,0.3-1.7,0.3c-0.6,0-1.2,0-1.7,0c-0.6,0-1.2-0.3-1.7-0.3
			c-0.6,0-1.1,0.7-1.7,0.7c-0.6,0-1.2-0.6-1.7-0.6c-0.6,0-1.1-0.1-1.7-0.2c-0.6,0-1.2,0.5-1.7,0.4c-0.6,0-1.1-0.3-1.7-0.3
			c-0.6-0.1-1.2,0.3-1.8,0.2c-0.6-0.1-1.2-0.1-1.7-0.2c-0.6-0.1-1.1-0.5-1.7-0.6c-0.6-0.1-1-0.7-1.6-0.8c-0.6-0.1-1.1-0.3-1.6-0.5
			c-0.6-0.1-1.3,0.5-1.9,0.4c-0.6-0.2-1-0.6-1.6-0.8c-0.5-0.2-1.1-0.4-1.6-0.6c-0.5-0.2-1.1-0.3-1.7-0.5c-0.5-0.2-1-0.6-1.5-0.9
			c-0.5-0.2-1.2-0.3-1.7-0.5c-0.5-0.3-1-0.5-1.5-0.8c-0.5-0.3-0.9-0.8-1.4-1.1c-0.5-0.3-1-0.5-1.5-0.9c-0.5-0.3-0.8-0.9-1.3-1.2
			c-0.5-0.3-1.1-0.4-1.6-0.8c-0.4-0.4-0.8-0.8-1.3-1.2c-0.4-0.4-0.5-1.1-0.9-1.5c-0.4-0.4-1.3-0.3-1.7-0.7c-0.4-0.4-0.3-1-0.7-1.4
			c-0.2,0.8-0.1,0.8-0.1,1.6c0,0.8-0.1,0.8-0.1,1.7c0,0.8-0.2,0.8-0.2,1.7c0,0.8,0,0.8,0,1.7c0,0.8,0,0.8,0,1.7c0,0.8,0,0.8,0,1.7
			c0,0.8,0.1,0.8,0.1,1.7c0,0.8,0.3,0.8,0.3,1.7c0,0.8,0.4,0.8,0.4,1.7c0,0.8-0.2,0.8-0.1,1.7c0,0.8,0.1,0.9-0.4,1.6
			c-0.5,0.7-0.6,0.5-1.4,0.8c-0.8,0.3-1-0.3-1.8,0c-0.8,0.3-0.6,0.7-1.4,1c-0.8,0.3-0.9,0-1.6,0.3c-0.8,0.3-0.6,0.9-1.3,1.2
			c-0.8,0.3-1-0.4-1.8-0.1c-0.8,0.3-1,0-1.7,0.6c-0.7,0.6,0.9,0.3,1.8,0.9c0.4,0.3,0.6,1.2,1.2,1.5c0.5,0.3,1.4-0.1,1.9,0.2
			c0.5,0.3,1,0.6,1.5,0.9c0.5,0.3,1.1,0.4,1.6,0.7c0.5,0.3,1,0.6,1.5,0.9c0.5,0.2,1,0.5,1.6,0.8c0.5,0.2,1,0.6,1.6,0.8
			c0.5,0.2,1.1,0.4,1.6,0.6c0.5,0.2,0.8,1.1,1.4,1.3c0.5,0.2,1.3,0,1.8,0.2c0.5,0.2,0.9,0.8,1.5,1.1c0.5,0.2,1.4-0.3,1.9-0.1
			c0.5,0.2,1,0.7,1.5,0.9c0.5,0.2,1.2,0,1.8,0.2c0.6,0.2,0.9,1,1.5,1.2c0.6,0.2,1.1,0.3,1.7,0.4c0.6,0.2,1.2-0.2,1.8,0
			c0.6,0.1,1.2,0.1,1.7,0.3c0.6,0.1,1.1,0.2,1.7,0.3c0.6,0.1,1.1,0.2,1.7,0.4c0.6,0.1,1.1,0.5,1.7,0.6c0.6,0.1,1.1,0.2,1.7,0.3
			c0.6,0.1,1.1,0.4,1.7,0.4c0.6,0.1,1.2-0.2,1.8-0.1c0.6,0.1,1.2,0.2,1.7,0.2c0.6,0,1.2,0.1,1.7,0.2c0.6,0,1.2,0.4,1.7,0.4
			c0.6,0,1.2-0.5,1.8-0.5c0.6,0,1.2,0.3,1.7,0.3c0.6,0,1.2-0.1,1.7-0.1c0.6,0,1.1-0.5,1.7-0.6c0.6,0,1.2,0.2,1.7,0.1
			c0.6-0.1,1.2,0.4,1.8,0.4c0.6-0.1,1.1-0.4,1.7-0.4c0.6-0.1,1.2-0.2,1.7-0.3c0.6-0.1,1.1-0.7,1.6-0.8c0.6-0.1,1.2,0.1,1.8,0
			c0.6-0.1,1.2-0.1,1.7-0.2c0.6-0.1,1.1-0.4,1.7-0.5c0.6-0.1,1.2-0.2,1.7-0.4c0.6-0.1,1.1-0.3,1.7-0.4c0.6-0.2,1.2-0.2,1.7-0.3
			c0.6-0.2,1.1-0.4,1.7-0.6c0.6-0.2,1-0.7,1.5-0.9c0.6-0.2,1.3,0.1,1.8-0.1c0.6-0.2,1.2-0.3,1.7-0.5c0.6-0.2,1-0.6,1.6-0.8
			c0.6-0.2,0.8-1.1,1.3-1.3c0.5-0.2,1.3-0.1,1.8-0.3c0.5-0.3,0.8-1,1.3-1.2c0.5-0.3,1.4,0.1,1.9-0.1c0.5-0.3,0.9-0.9,1.4-1.1
			c0.6-0.3,1-0.6,1.5-0.9c0.6-0.3,1.2-0.5,1.6-0.8c1-0.6,1.7-0.2,1.3-0.9C756.7,308.2,756.6,308.2,756,307.7z"/>
		<path class="st22" d="M756.9,181.3c0-0.6,0.1-1.2,0-1.7c-0.1-0.6,0.1-1.2,0-1.8c-0.1-0.6-0.5-1.1-0.6-1.6c-0.1-0.6,0.2-1.3,0-1.8
			c-0.2-0.6-0.8-1-1-1.5c-0.2-0.5-0.3-1.1-0.6-1.7c-0.3-0.5-0.1-1.3-0.4-1.8c-0.3-0.5-1.3-0.6-1.6-1.1c-0.3-0.5-0.5-1-0.9-1.5
			c-0.3-0.5-0.9-0.8-1.2-1.2c-0.4-0.4-0.5-1.1-0.9-1.6c-0.4-0.4-1-0.6-1.5-1c-0.4-0.4-0.6-1.1-1-1.5c-0.4-0.4-1-0.6-1.5-1
			c-0.5-0.4-1.1-0.5-1.6-0.8c-0.5-0.3-0.6-1.1-1.1-1.4c-0.5-0.3-1.1-0.4-1.7-0.7c-0.5-0.3-0.7-1.1-1.3-1.3c-0.5-0.3-1.4,0.2-1.9-0.1
			c-0.5-0.3-0.9-0.8-1.5-1c-0.5-0.2-0.9-0.8-1.5-1c-0.5-0.2-1.2-0.1-1.8-0.3c-0.5-0.2-1.1-0.3-1.7-0.5c-0.6-0.2-1.1-0.5-1.6-0.7
			c-0.6-0.2-1.1-0.5-1.6-0.6c-0.6-0.2-1-0.7-1.6-0.8c-0.6-0.1-1.3,0.2-1.8,0.1c-0.6-0.1-1.1-0.5-1.7-0.6c-0.6-0.1-1.2,0.3-1.8,0.2
			c-0.6-0.1-1.1-0.7-1.7-0.8c-0.6-0.1-1.1-0.3-1.7-0.4c-0.6-0.1-1.2,0.6-1.8,0.6c-0.6,0-1.1-0.6-1.7-0.6c-0.6,0-1.2,0-1.8,0
			c-0.6,0-1.2,0.2-1.8,0.2c-0.6,0-1.2-0.2-1.8-0.2c-0.6,0-1.2,0.1-1.7,0.1c-0.6,0-1.1,0.3-1.7,0.3c-0.6,0-1.2-0.1-1.7-0.1
			c-0.6,0-1.2-0.4-1.8-0.4c-0.6,0.1-1.1,0.3-1.7,0.4c-0.6,0.1-1.1,0.8-1.6,0.9c-0.6,0.1-1.3-0.6-1.8-0.5c-0.6,0.1-1,1-1.6,1.1
			c-0.6,0.1-1.2-0.2-1.8,0c-0.6,0.1-1.1,0.2-1.7,0.3c-0.6,0.1-1.1,0.2-1.7,0.4c-0.6,0.2-1.2,0.2-1.7,0.3c-0.6,0.2-1.1,0.5-1.6,0.7
			c-0.5,0.2-1,0.7-1.5,0.9c-0.5,0.2-1.1,0.4-1.6,0.6c-0.5,0.2-1.2,0.3-1.7,0.5c-0.5,0.2-0.8,1-1.3,1.2c-0.5,0.3-1.1,0.4-1.6,0.7
			c-0.5,0.3-1.2,0.2-1.7,0.5c-0.5,0.3-0.7,1-1.2,1.4c-0.5,0.3-0.9,0.7-1.4,1c-0.5,0.3-1.4,0.1-1.9,0.4c-0.5,0.4-0.7,1-1.1,1.4
			c-0.4,0.4-1.2,0.5-1.6,0.9c-0.4,0.4-0.1,1.5-0.5,1.9c-0.4,0.4-1.4,0.3-1.8,0.8c-0.4,0.5-0.3,1.3-0.6,1.7c-0.3,0.5-0.7,0.9-1,1.4
			c-0.3,0.5-0.8,0.9-1.1,1.4c-0.3,0.5-0.3,1.1-0.6,1.7c-0.2,0.5-0.3,1.1-0.5,1.6c-0.2,0.5-0.6,1-0.8,1.6c-0.2,0.5-0.7,1-0.9,1.6
			c-0.1,0.6,0.2,1.2,0.1,1.8c-0.1,0.6,0.2,1.2,0.1,1.8c-0.1,0.6-0.6,1.1-0.7,1.7c0,0.6,0.2,1.1,0.2,1.7c0,0.9,0,0.9,0.1,1.8
			c0,0.9-0.1,0.9-0.1,1.8c0,0.9-0.2,0.9-0.2,1.8c0,0.9-0.2,0.9-0.2,1.8c0,0.9,0.8,0.9,0.8,1.7c0,0.9,0.1,0.9,0.1,1.8
			c0,0.9-0.7,0.9-0.7,1.8c0,0.9,0.7,0.9,0.8,1.7c0,0.9-0.3,0.9-0.3,1.8c0,0.9,0.5,0.9,0.5,1.7c0,0.9-0.8,0.9-0.7,1.8
			c0,0.9,0,0.9,0,1.8c0,0.9,0,0.9,0.1,1.8c0,0.9,0,0.9,0.1,1.8c0,0.9,0.6,0.9,0.7,1.7c0,0.9,0.2,0.9,0.2,1.8c0,0.9-0.5,0.9-0.4,1.8
			c0,0.9,0.2,0.9,0.2,1.8s0.1,0.9,0.1,1.8c0,0.9-0.4,0.9-0.4,1.8c0,0.9,0.5,0.9,0.5,1.7c0,0.9-0.5,0.9-0.5,1.8c0,0.9,0,0.9,0.1,1.8
			c0,0.9,0.4,0.9,0.5,1.7c0,0.9-0.3,0.9-0.3,1.8c0,0.9,0.5,0.9,0.5,1.7c0,0.9,0.3,0.9,0.4,1.7c0,0.9-0.8,0.9-0.7,1.8
			c0,0.9,0.2,0.9,0.2,1.8c0,0.9,0,0.9,0,1.8c0,0.9,0.1,0.9,0.1,1.8c0,0.9,0,0.9,0,1.8c0,0.9,0.4,0.9,0.4,1.7c0,0.9,0.2,0.9,0.3,1.8
			c0,0.9,0.1,0.9,0.1,1.8c0,0.6-0.1,1.2-0.1,1.7c0,0.6-0.2,1.2-0.1,1.8c0,0.6,0.1,1.2,0.2,1.7c0.1,0.6-0.4,1.2-0.3,1.8
			c0.1,0.6,0.2,1.2,0.3,1.7c0.1,0.6,0.6,1.1,0.7,1.6c0.1,0.6,0.5,1.1,0.6,1.6c0.2,0.6,0.3,1.1,0.4,1.7c0.2,0.6,0.4,1.1,0.6,1.6
			c0.2,0.5,0.5,1,0.8,1.6c0.2,0.5,0,1.3,0.3,1.8c0.2,0.5,1,0.8,1.3,1.3c0.3,0.5-0.2,1.4,0.1,1.9c0.3,0.5,0.9,0.8,1.2,1.3
			c0.3,0.5,0.9,0.8,1.2,1.3c0.3,0.5,0,1.4,0.4,1.9c0.3,0.5,1.3,0.5,1.7,0.9c0.4,0.5,0.1,1.4,0.5,1.9c0.4,0.4,0.8,0.8,1.2,1.3
			c0.4,0.4,0.8,0.9,1.2,1.3s1.1,0.6,1.5,1c0.4,0.4,0.9,0.8,1.3,1.2c0.4,0.4,0.7,1,1.1,1.4c0.4,0.4,1.3,0.3,1.7,0.6
			c0.5,0.4,0.4,1.4,0.9,1.7c0.5,0.3,1.1,0.5,1.6,0.8c0.5,0.3,1,0.7,1.5,1c0.5,0.3,1.4-0.1,1.9,0.2c0.5,0.3,0.6,1.3,1.2,1.6
			c0.5,0.3,1.2,0.3,1.7,0.6c0.5,0.2,1.1,0.4,1.7,0.6c0.5,0.2,1.1,0.4,1.6,0.6c0.5,0.2,1,0.8,1.5,1c0.6,0.2,1.2,0.1,1.8,0.3
			c0.6,0.2,1.1,0.3,1.7,0.4c0.6,0.1,1.3-0.4,1.8-0.3c0.6,0.1,1.1,0.5,1.7,0.6c0.6,0.1,1.1,0.3,1.7,0.4c0.6,0.1,1.2-0.1,1.8,0
			c0.6,0,1.1,0.7,1.7,0.7c0.6,0,1.2,0,1.8,0c0,0,0,0,0,0c0.6,0,1.2,0.2,1.8,0.1c0.6,0,1.2-0.2,1.8-0.2c0.6,0,1.1-0.8,1.7-0.9
			c0.6-0.1,1.2,0.1,1.8,0c0.6-0.1,1.2-0.1,1.7-0.2c0.6-0.1,1.2,0.1,1.8,0c0.6-0.1,1.1-0.6,1.6-0.8c0.6-0.2,1-0.7,1.6-0.9
			c0.6-0.2,1.1-0.2,1.7-0.4c0.5-0.2,1.3,0.1,1.8-0.1c0.5-0.2,0.9-0.9,1.4-1.2c0.5-0.2,1.1-0.4,1.6-0.6c0.5-0.3,1.2-0.3,1.7-0.6
			c0.5-0.3,0.7-1.2,1.2-1.5c0.5-0.3,1.2-0.3,1.7-0.6c0.5-0.3,0.7-1,1.2-1.3c0.5-0.3,1-0.5,1.5-0.9c0.5-0.4,1.1-0.5,1.6-0.9
			c0.4-0.4,1-0.6,1.4-1c0.4-0.4,1-0.7,1.4-1.1c0.4-0.4,0.8-0.8,1.3-1.2c0.4-0.4,0.5-1.1,0.9-1.6c0.4-0.4,0.8-0.8,1.2-1.3
			c0.4-0.4,0.7-0.9,1.1-1.4c0.4-0.5,1.2-0.6,1.5-1.1c0.3-0.5-0.1-1.5,0.2-2c0.3-0.5,1.1-0.7,1.4-1.2c0.3-0.5,0.4-1.1,0.7-1.6
			c0.3-0.5,0.7-1,0.9-1.5c0.3-0.5,0.4-1.1,0.7-1.6c0.2-0.5,0.7-1,0.9-1.5c0.2-0.5-0.1-1.3,0.1-1.8c0.2-0.5,0.7-1,0.9-1.5
			c0.2-0.6-0.1-1.2,0.1-1.8c0.2-0.6,0.5-1.1,0.6-1.6c0.1-0.6,0-1.2,0.1-1.7c0.1-0.6,0.6-1.1,0.7-1.6c0.1-0.6,0.3-1.1,0.4-1.7
			c0.1-0.6,0-1.2,0-1.8c0-0.6,0-1.2,0-1.7c0-0.6,0.7-1.1,0.7-1.7c0-0.9-0.2-0.9-0.2-1.7c0-0.9-0.3-0.9-0.3-1.7
			c0-0.9,0.4-0.9,0.5-1.7c0-0.9,0.1-0.9,0.1-1.7c0-0.9-0.7-0.9-0.6-1.7c0-0.9,0.4-0.9,0.5-1.7c0-0.9-0.4-0.9-0.3-1.7
			c0-0.9,0.6-0.8,0.6-1.7c0-0.9-0.4-0.9-0.4-1.7c0-0.9-0.2-0.9-0.2-1.7c0-0.9,0-0.9,0-1.7c0-0.9,0.2-0.9,0.2-1.7
			c0-0.9,0.4-0.9,0.4-1.7c0-0.9-0.1-0.9-0.1-1.7c0-0.9,0.2-0.9,0.2-1.7c0-0.9,0-0.9,0-1.7c0-0.9,0.2-0.9,0.2-1.7
			c0-0.9-0.8-0.9-0.8-1.7c0-0.9,0-0.9,0-1.7c0-0.9,0.2-0.9,0.2-1.7c0-0.9,0.5-0.8,0.5-1.7c0-0.9-0.2-0.9-0.2-1.7
			c0-0.9-0.2-0.9-0.2-1.7c0-0.9,0.2-0.9,0.2-1.7c0-0.9-0.3-0.9-0.3-1.7c0-0.9,0.1-0.9,0.1-1.7c0-0.9,0.3-0.9,0.3-1.7
			c0-0.9,0.5-0.8,0.5-1.7c0-0.9-0.5-0.9-0.5-1.7c0-0.9,0.4-0.8,0.5-1.7c0-0.9-0.2-0.9-0.2-1.7c0-0.9-0.3-0.9-0.3-1.7
			s0.3-0.9,0.3-1.7c0-0.9-0.2-0.9-0.2-1.7c0-0.9-0.2-0.9-0.2-1.7c0-0.9,0.8-0.8,0.8-1.7C757.6,182.4,756.9,181.9,756.9,181.3z"/>
		<polygon class="st0" points="760.4,311 760.8,309.2 758.8,308.9 757.1,307.9 755.3,307.6 753.9,308.5 752.1,308.4 750.6,308.9 
			749.3,310.2 747.7,310.6 746.1,310.9 744.7,311.7 743.1,312.2 741.3,312.2 739.8,312.8 738.5,313.9 736.7,313.9 735.1,314.2 
			733.7,315.2 732.1,315.4 730.5,315.8 728.9,316.2 727.3,316.8 725.7,316.9 724.1,317.5 722.5,317.8 720.8,317.5 719.2,317.6 
			717.6,318.2 716,318.2 714.4,318.8 712.7,318.7 711.1,318.3 709.5,318.9 707.8,318.9 706.2,318.8 704.6,317.9 703,318.1 
			701.4,317.5 699.8,317.4 698.1,317.3 696.5,316.9 694.9,316.4 693.6,315.2 692,314.8 690.3,314.7 688.9,313.9 687.1,314.1 
			685.5,313.7 684.2,312.6 682.6,312.1 681,311.7 679.4,311.4 677.8,311 676.5,309.9 675,309.2 673.4,308.9 671.8,308.4 
			670.1,308.3 668.9,307 667.3,306.7 665.7,306.2 664.4,307 662.8,306.6 661.4,307.2 659.7,307.4 659.9,309.2 659.6,310.8 
			659.7,312.4 660.5,314 660.2,315.7 660.5,317.3 660.2,318.9 660.8,320.5 660.3,322.2 660.8,323.8 660.7,325.4 660.5,327.1 
			660.8,328.7 661.1,330.3 661.2,331.9 660.6,333.6 660.9,335.2 661.4,336.8 660.7,338.4 661.6,340 661,341.7 661.2,343.3 
			661.2,344.9 661.4,346.5 661,348.2 661.4,349.8 661.4,351.4 661.3,353 662.1,354.6 661.9,356.3 662.1,357.9 661.7,359.5 
			661.7,361.1 662.4,362.7 662.5,364.4 661.9,366 662.2,367.6 662.6,369.2 661.9,370.9 662.5,372.5 662.6,374.1 662.1,375.8 
			662.7,377.4 662.4,379 662.2,380.6 663.1,382.2 663,383.8 663,385.5 662.9,387.1 663.2,388.7 663.3,390.3 663.4,391.9 
			663.5,393.6 662.9,395.2 662.8,396.8 663,398.5 662.9,400.1 663.9,401.7 663.8,403.3 663.7,404.9 663.9,406.5 664.1,408.2 
			664.1,409.8 663.4,411.4 663.7,413 664.3,414.6 663.6,416.3 663.8,417.9 663.9,419.5 663.9,421.1 664.6,422.7 664.6,424.4 
			664.7,426 664.6,427.6 664.4,429.2 664.6,430.8 754,430.9 754,429.2 754.1,427.6 754.6,426 754.4,424.4 754.5,422.7 753.9,421.1 
			754.3,419.5 754.6,417.9 754.4,416.2 755.1,414.6 755.1,413 755.2,411.4 755.3,409.8 755.2,408.1 754.7,406.5 755.6,404.9 
			755.8,403.3 755.3,401.6 755.8,400 755.6,398.4 755.5,396.8 755.4,395.1 756.1,393.6 755.9,391.9 755.8,390.3 755.7,388.7 
			756.3,387.1 756.3,385.4 756.8,383.8 756.2,382.2 757,380.6 756.5,379 756.5,377.3 757.3,375.7 757,374.1 757.2,372.5 
			757.2,370.9 757.7,369.3 757.5,367.6 757.7,366 757.5,364.4 757.3,362.8 757.4,361.1 757.9,359.5 757.8,357.9 758.4,356.3 
			758.3,354.7 757.9,353 758.2,351.4 758.2,349.8 758.2,348.2 758.1,346.6 759,345 758.6,343.3 758.8,341.7 758.8,340.1 
			758.8,338.5 758.8,336.9 758.8,335.2 759.3,333.6 759.3,332 759.2,330.4 759.2,328.8 759.5,327.2 760.1,325.6 760.2,324 
			759.6,322.3 759.9,320.7 759.9,319.1 760,317.5 760.5,315.9 760,314.2 760.2,312.6 		"/>
		<polygon class="st20" points="773.4,165.4 772.8,163.9 771.6,162.7 770.3,161.7 769.2,160.5 767.8,159.6 766.4,158.8 765.4,157.4 
			763.8,156.8 762.6,155.7 761.9,154 760.4,153.2 759.5,151.8 758.1,150.9 757.1,149.6 755.7,148.8 754.3,147.8 753.6,146.2 
			752.6,144.9 751.6,143.6 750.3,142.6 748.8,141.8 747.9,140.4 746.4,139.6 745.7,138 744.3,137.1 742.9,136.3 741.6,135.2 
			740.1,134.6 739,133.3 737.7,132.3 736.4,131.3 735,130.4 733.3,130.1 732.1,128.9 730.5,128.5 729.1,127.5 727.4,127.4 
			725.8,127 724.3,126.4 722.9,125.4 721.3,124.9 719.7,124.7 718,124.7 716.4,124.8 714.8,123.9 713.2,123.8 711.5,124.5 
			709.9,124.5 708.3,124.4 706.8,125.1 705.2,125.3 703.5,125.4 701.9,125.9 700.5,126.7 699,127.5 697.5,128.2 696.4,129.5 
			695,129.1 693.3,129.1 691.7,129.1 690.1,128.7 688.5,129 686.9,129.1 685.3,129.1 683.6,128.9 682.1,129.5 680.4,129.2 
			679,130.4 677.3,130.5 675.7,130.6 674.3,131.5 672.6,131.7 671.2,132.5 670,133.7 668.5,134.4 667.6,135.8 665.8,136.3 
			665.1,137.9 664.1,139.2 663.4,140.6 661.8,141.6 661.6,143.3 660.3,144.5 659.7,146.1 659.3,147.7 658.9,149.3 657.9,150.6 
			657.6,152.3 657.2,153.8 656.1,155.2 656,156.9 655.6,158.5 654.7,159.9 653.8,161.2 653.3,162.9 651.9,164 651.7,165.7 
			650.6,167.1 649.9,168.6 649.6,170.3 648.6,171.7 647.9,173.3 647.8,175.1 646.8,176.5 646.4,178.2 646,179.8 645.9,181.4 
			645.6,183 646.2,184.6 646.4,186.2 647,187.7 647.6,189.3 648.2,190.9 649.5,192 649.9,193.6 650.9,195 651.9,196.3 653.2,197.4 
			654,198.8 655,200.1 655.9,201.3 656.4,202.8 657.8,203.7 658.6,204.9 659.9,205.7 661.3,206.5 662.5,205.2 663.9,204.2 
			664.2,202.5 664.9,200.9 664.7,199.2 665,197.5 665.9,196 665.4,194.2 665.8,192.6 665.7,190.9 665.9,189.2 667.2,187.8 
			667.3,186.2 667.4,184.5 668.3,183 669.4,181.7 669.8,180.1 670.5,178.6 671.3,177.1 672.8,176.1 673.1,174.3 674.6,173.4 
			675.6,172.1 676.4,170.6 677.8,169.7 678.7,168.2 680,167.2 681.2,166.1 682.2,164.8 683.1,163.3 684.5,162.4 685.6,161.1 
			686.9,160.2 688,158.9 689.6,158.1 691.2,157.4 692.2,156 693.7,155.2 695,154.2 696.5,153.5 698.1,153 699.8,152.7 701.4,152.5 
			703.1,152.5 704.6,153.2 705.5,154.7 706.7,155.9 706.8,157.6 708,158.9 708.3,160.5 709,162 709.5,163.5 710.1,165 711,166.3 
			712.1,167.6 712.4,169.3 713.3,170.6 714.7,171.6 715.1,173.3 716.7,174.1 717.6,175.4 718.5,176.8 719.8,177.8 720.3,179.6 
			721.5,180.6 722.6,181.8 724.2,182.5 725.2,183.8 726,185.2 727.3,186.2 728.9,186.8 729.7,188.4 731.2,189.1 732.7,189.8 
			733.7,191.1 735.1,192 736.2,193.2 737.7,193.9 739.1,194.7 740.1,196.1 741.7,196.5 742.8,197.8 744.4,198.2 745.5,199.5 
			747.1,200 748.6,200.6 750.1,201.3 751.5,202 753,202.6 754.2,203.9 755.8,204.2 757.4,204.2 759.1,204.5 760.2,203.2 761.3,202 
			761.7,200.3 762.9,199.2 763.3,197.5 764,196.1 765.3,195 765.6,193.3 766.5,191.9 766.5,190.2 767.8,189 767.8,187.3 
			768.6,185.9 769.4,184.4 769.3,182.7 770.1,181.2 771,179.9 771.3,178.3 771.5,176.6 772.7,175.4 772.5,173.6 773.7,172.3 
			774.4,170.9 775.2,169.6 775.3,168 774.8,166.4 		"/>
		<path class="st22" d="M665.2,240.6c-0.1-0.9-0.4-0.9-0.4-1.7c-0.1-0.9,0-0.9,0-1.8c-0.1-0.9,0.3-0.9,0.3-1.8
			c-0.1-0.9-0.5-0.8-0.6-1.7c-0.1-0.9,0.4-0.9,0.4-1.8c-0.1-0.9-0.7-0.8-0.7-1.7c-0.1-0.9,0-0.9-0.1-1.7c-0.1-0.9,0.6-0.9,0.6-1.8
			c-0.1-0.9-0.8-0.8-0.9-1.7c-0.1-0.9,0.1-0.9,0-1.8c-0.1-0.9,0.3-0.9,0.3-1.8c-0.1-0.9-0.5-0.8-0.6-1.7c-0.1-0.9,0.3-0.9,0.2-1.8
			c-0.1-0.9,0-0.9-0.1-1.7c-0.1-0.9-0.6-0.8-0.6-1.7c-0.1-0.9,0.4-0.9,0.4-1.8c-0.1-0.9,0.1-0.9,0-1.8c-0.1-0.9,0.2-1-0.1-1.8
			c-0.6,0-1.3,0.1-1.9,0.1c-0.6,0.1-1.1,0.5-1.7,0.6c-0.6,0.1-1.1,0.4-1.7,0.5c-0.6,0.2-1.3-0.1-1.8,0.1c-0.6,0.2-1.1,0.5-1.6,0.8
			c-0.5,0.3-1.2,0.3-1.7,0.7c-0.5,0.3-0.8,0.9-1.3,1.3c-0.5,0.4-0.7,0.9-1.2,1.4c-0.4,0.4-0.8,0.9-1.1,1.4c-0.4,0.5-0.6,1-0.9,1.5
			c-0.3,0.5-0.4,1.1-0.7,1.6c-0.2,0.5-0.6,1-0.8,1.6c-0.2,0.6-0.9,1-1,1.6c-0.1,0.6,0.1,1.2,0,1.8c-0.1,0.6-0.6,1.1-0.6,1.7
			c0,0.6,0.6,1.2,0.6,1.8c0,0.6-0.3,1.2-0.2,1.7c0.1,0.6,0.5,1.1,0.7,1.6c0.2,0.6,0.3,1.1,0.6,1.6c0.2,0.5,0.7,0.9,1,1.4
			c0.3,0.5,0.5,1.1,0.8,1.5c0.4,0.5,0.5,1.1,0.9,1.5c0.4,0.4,0.9,0.8,1.3,1.2c0.4,0.4,0.7,1,1.2,1.4c0.5,0.3,1.4,0,1.9,0.4
			c0.5,0.3,0.6,1.3,1.1,1.6c0.5,0.3,1.1,0.4,1.7,0.6c0.5,0.2,1,0.7,1.6,0.9c0.6,0.2,1.4-0.5,1.9-0.3c0.6,0.2,1.1,0.5,1.6,0.7
			c0.6,0.1,1.1,0.5,1.7,0.6c0.6,0.1,1.1-0.1,1.7-0.1c0.2-0.8,0.2-0.9,0.1-1.7C665.2,241.5,665.3,241.5,665.2,240.6z"/>
		<path class="st22" d="M772.1,221.5c-0.1-0.6,0.2-1.3,0.1-1.8c-0.1-0.6-0.7-1.1-0.9-1.6c-0.2-0.6,0.1-1.3-0.2-1.9
			c-0.3-0.5-0.4-1.2-0.7-1.7c-0.3-0.5-0.8-0.9-1.2-1.4c-0.4-0.5-0.9-0.8-1.4-1.2c-0.5-0.4-1-0.7-1.5-1.1c-0.5-0.3-1.1-0.4-1.7-0.7
			c-0.5-0.3-1.2-0.2-1.7-0.4c-0.6-0.2-1-0.7-1.6-0.8c-0.6-0.1-1.2-0.2-1.8-0.3c-0.6-0.1-1.1-0.6-1.7-0.7c-0.6,0-1.5,0.3-2.1,0.3
			c-0.3,0.8,0.3,1,0.3,1.9c0,0.9,0.1,0.9,0.1,1.8c0,0.9,0,0.9,0,1.8c0,0.9-0.1,0.9-0.1,1.8c0,0.9-0.5,0.9-0.5,1.8
			c0,0.9,0.5,0.9,0.5,1.8c0,0.9,0,0.9,0,1.8c0,0.9-0.4,0.9-0.3,1.8c0,0.9,0.5,0.9,0.5,1.8c0,0.9-0.4,0.9-0.4,1.8
			c0,0.9-0.1,0.9-0.1,1.8c0,0.9,0.8,0.9,0.8,1.8c0,0.9-0.7,0.9-0.7,1.8c0,0.9,0,0.9,0,1.8c0,0.9,0.6,0.9,0.6,1.8
			c0,0.9-0.5,0.9-0.5,1.8c0,0.9,0.4,0.9,0.4,1.8c0,0.9-0.2,0.9-0.4,1.8c-0.1,0.9-0.3,1,0,1.8c0.6,0,1.2-0.2,1.8-0.3
			c0.6-0.1,1.2,0.1,1.8,0c0.6-0.1,1.2-0.1,1.8-0.3c0.5-0.2,0.7-1.2,1.2-1.5c0.5-0.3,1.1-0.3,1.6-0.7c0.5-0.3,0.8-0.8,1.3-1.2
			c0.5-0.4,1.4-0.1,1.8-0.5c0.4-0.4,0.3-1.4,0.6-1.8c0.4-0.4,1-0.7,1.3-1.1c0.3-0.5,0.6-1,0.9-1.5c0.3-0.5,0.9-0.9,1.1-1.4
			c0.2-0.5,0.7-1,0.8-1.6c0.2-0.6,0.1-1.2,0.2-1.8c0.1-0.6,0.3-1.2,0.4-1.7c0.1-0.6-0.2-1.2-0.2-1.8c0-0.6,0.3-1.2,0.3-1.8
			C772.9,222.6,772.2,222.1,772.1,221.5z"/>
		<path class="st20" d="M731.4,207.2c-0.5-0.3-0.9-0.8-1.5-0.8s-1,0.6-1.5,0.9c-0.5,0.3-0.8,0.6-1.1,1.1c-0.3,0.5-0.8,0.9-0.8,1.5
			c0,0.6,0,1.3,0.3,1.8c0.3,0.5,1.1,0.6,1.6,0.9c0.5,0.3,0.9,1.1,1.6,1.1c0.6,0,1-0.8,1.5-1.1c0.5-0.3,1.6-0.2,1.9-0.7
			c0.3-0.5,0.4-1.3,0.4-2c0-0.6-0.2-1.4-0.5-1.9C732.9,207.3,731.9,207.5,731.4,207.2z"/>
		<path class="st20" d="M694.1,206.6c-0.5-0.3-1.2-0.4-1.8-0.4c-0.6,0-1.4,0.1-1.9,0.4c-0.5,0.3-0.7,1-1.1,1.5
			c-0.3,0.5-0.7,1.1-0.7,1.7c0,0.6,0.2,1.3,0.5,1.8c0.3,0.5,0.8,1,1.3,1.3c0.5,0.3,1.2,0.2,1.8,0.2c0.6,0,1.1-0.2,1.7-0.5
			c0.5-0.3,0.9-0.7,1.2-1.2c0.3-0.5,0.4-1,0.4-1.6c0-0.6,0.2-1.3-0.1-1.8C695.1,207.4,694.6,206.9,694.1,206.6z"/>
		<g>
			<path class="st23" d="M716.4,258.4c-0.1-0.1-0.6,0-0.7,0c-0.1,0-0.1,0-0.2,0c-0.1,0.1-0.3,0.3-0.4,0.4
				C714.2,259.7,716.1,258.2,716.4,258.4z"/>
			<path class="st23" d="M717.4,257.6c0.3-0.3,0.5-0.4,0.7-0.5c-0.1,0-0.1,0-0.2,0.1c-0.1,0-0.2,0.1-0.3,0.1
				C717.4,257.3,717.3,257.4,717.4,257.6C717,258,717,257.9,717.4,257.6z"/>
			<path class="st23" d="M713.5,259.3c-0.1,0-0.2,0-0.3,0c-0.1,0-0.3,0-0.4,0c-0.1,0.1-0.3,0.2-0.4,0.3
				C712.7,259.4,713.1,259.3,713.5,259.3z"/>
			<path class="st23" d="M723.1,260.9c-0.2,0.2-0.2,0.2-0.1,0.1C723.1,261,723.1,261,723.1,260.9
				C723.3,260.7,723.3,260.7,723.1,260.9z"/>
			<path class="st23" d="M720,263.3c0.3-0.3,0-0.2-0.9,0.4c0.2,0,0.4,0,0.6-0.1c0,0,0.1-0.1,0.1-0.1
				C719.9,263.4,720,263.4,720,263.3z"/>
			<path class="st23" d="M716,265.3C716,265.3,715.9,265.3,716,265.3C715.9,265.3,715.9,265.3,716,265.3z"/>
			<path class="st23" d="M713.2,259C713.2,259,713.1,259,713.2,259C713.1,259,713.1,259,713.2,259z"/>
			<path class="st23" d="M712.1,259.8C712.1,259.8,712.1,259.8,712.1,259.8C712.1,259.8,712.1,259.8,712.1,259.8z"/>
			<path class="st23" d="M706.5,265.2c-0.4-0.2-0.5-0.2-0.2,0c0.1,0.1,0.1,0.1,0.2,0.1c0.1,0,0.1,0,0.2,0
				C707,265.2,706.9,265.2,706.5,265.2z"/>
			<path class="st23" d="M709.9,259.4c0,0-0.1-0.1-0.1-0.1c-0.1,0-0.2,0-0.4,0C708.7,259.3,710.8,259.9,709.9,259.4z"/>
			<path class="st23" d="M715.6,265.1c0.2,0,0.3,0,0.5,0c0,0,0,0,0,0c0.1-0.1,0.2-0.2,0.4-0.3C716.3,265,716,265.1,715.6,265.1z"/>
			<path class="st23" d="M705.1,265.1C705.8,265.1,704.5,264.9,705.1,265.1L705.1,265.1z"/>
			<path class="st23" d="M719.4,255.3c-0.4,0.4-0.9,0.7-1.3,1.2c-0.2,0.2-0.4,0.5-0.6,0.7c0.1,0,0.2-0.1,0.3-0.1
				c0.1,0,0.1,0,0.2-0.1c0.3-0.2,0.3-0.1,0,0c-0.2,0.1-0.4,0.2-0.7,0.5c-0.3,0.3-0.3,0.4-0.1,0c0.1-0.1,0.1-0.2,0.2-0.3
				c-0.1,0-0.2,0.1-0.3,0.1c-0.7,0.2-1.2,0.6-1.7,1.1c0.1,0,0.1,0,0.2,0c0.2,0,0.6,0,0.7,0c-0.2-0.2-2.2,1.4-1.3,0.4
				c0.1-0.1,0.3-0.3,0.4-0.4c-0.8,0-1.6,0.2-2.3,0.6c0,0-0.1,0.1-0.4,0.3c0.1,0,0.3,0,0.4,0c0.1,0,0.2,0,0.3,0
				c-0.4,0-0.8,0.1-1.1,0.3c-0.1,0.1-0.2,0.2-0.3,0.2c0,0,0,0,0,0c0,0,0,0,0,0c0.1-0.1,0.2-0.2,0.3-0.2c0.1-0.1,0.3-0.2,0.4-0.3
				c-0.5,0-1,0-1.5,0c-0.5,0-1,0-1.6,0c0,0,0.1,0,0.1,0.1c0.9,0.6-1.1-0.1-0.5-0.1c0.1,0,0.2,0,0.4,0c-0.3-0.2-0.5-0.3-0.8-0.4
				c-0.7-0.3-1.7-0.5-2.5-0.4c0,0,0,0,0,0c0.1,0,0.2,0,0.3,0c-0.4,0-0.5,0-0.3,0c-0.1,0-0.3-0.1-0.4-0.1c-0.1,0-0.1,0-0.2,0
				c0.1,0.1,0.2,0.2,0.2,0.3c0.1,0.1,0.1,0.2,0.2,0.2c-0.3-0.3-0.7-0.5-1.1-0.6c-0.3,0-0.2-0.1,0.1,0c0.2,0,0.3,0,0.5,0.1
				c-0.1-0.1-0.1-0.1-0.2-0.2c-0.5-0.6-1.2-0.9-1.9-1.3c-0.3-0.2-0.5-0.3-0.8-0.5c-0.1-0.1-0.3-0.2-0.4-0.3c0.3,0.2,0.2,0.2-0.2-0.1
				c-0.3-0.2-0.5-0.4-0.8-0.6c-0.2-0.1-0.9-0.6-0.2,0c-1.3-1.2-3.5-1.4-4.8,0c-1.2,1.3-1.4,3.5,0,4.8c0.6,0.5,1.2,0.9,1.9,1.3
				c-0.9-0.5,0.6,0.4,0.8,0.6c0.3,0.2,0.6,0.4,0.9,0.6c0.3,0.2,0.5,0.3,0.8,0.5c0,0,0,0,0,0c0,0-0.1-0.1-0.1-0.1
				c0.5,0.3,0.5,0.4,0.1,0.1c0.1,0.1,0.1,0.1,0.2,0.2c0.6,0.7,1.3,1.2,2.1,1.4c0.5,0.2,1.1,0.2,1.7,0.3c0,0,0,0,0.1,0
				c-0.5-0.1,0.7,0,0,0c0,0,0.1,0,0.1,0c0.3,0.1,0.9,0.2,1.4,0.2c-0.1,0-0.1-0.1-0.2-0.1c-0.3-0.2-0.3-0.2,0.2,0
				c0.4,0.1,0.5,0.1,0.2,0.1c-0.1,0-0.1,0-0.2,0c1.4,0.9,3.2,0.9,4.7,0.8c1.6,0,3.2,0.2,4.6-0.7c0,0,0.1-0.1,0.2-0.2c0,0,0,0,0,0
				c-0.2,0-0.3,0-0.5,0c0.3,0,0.6-0.1,0.9-0.3c0.2-0.2,0.5-0.4,0.5-0.4c-0.1,0.1-0.3,0.3-0.5,0.4c-0.1,0.1-0.3,0.2-0.4,0.3
				c1.1,0,2-0.2,2.9-0.9c0.3-0.2,0.5-0.4,0.7-0.6c-0.2,0-0.4,0.1-0.6,0.1c0.9-0.6,1.2-0.8,0.9-0.4c-0.1,0.1-0.1,0.2-0.2,0.3
				c0,0-0.1,0.1-0.1,0.1c0.6-0.1,1.2-0.4,1.6-0.7c0.7-0.5,1.3-1.1,1.7-1.9c-0.1,0.1-0.1,0,0.1-0.1c0.2-0.3,0.2-0.3,0,0
				c0,0.1-0.1,0.1-0.1,0.1c0,0,0.1-0.1,0.2-0.2c0.3-0.2,0.6-0.5,0.9-0.8c1.3-1.2,1.3-3.6,0-4.8C722.8,254.1,720.7,254,719.4,255.3z"
				/>
			<path class="st23" d="M706.7,258.5c-0.1,0-0.2,0-0.3,0C706.2,258.5,706.3,258.5,706.7,258.5z"/>
			<path class="st23" d="M700.9,263.1c0,0,0.1,0.1,0.1,0.1C701.4,263.4,701.4,263.4,700.9,263.1z"/>
			<path class="st23" d="M705.2,258.3c0.4,0.1,0.8,0.3,1.1,0.6c-0.1-0.1-0.1-0.2-0.2-0.2c-0.1-0.1-0.2-0.2-0.2-0.3
				c-0.2,0-0.3,0-0.5-0.1C704.9,258.3,704.9,258.3,705.2,258.3z"/>
		</g>
		<g>
			<path class="st23" d="M710.4,237c-0.1,0-0.2,0-0.3,0c-0.1,0-0.2,0-0.2,0c-0.1,0-0.2,0.1-0.4,0.1C709.8,237.1,710.1,237,710.4,237
				z"/>
			<path class="st23" d="M711.2,243.4c0.1,0,0.2,0.1,0.4,0.1c0,0,0.1,0,0.1,0C711.5,243.4,711.3,243.4,711.2,243.4z"/>
			<path class="st23" d="M715.6,237.9c-0.2-0.2-0.5-0.4-0.7-0.5c-0.5-0.3-1.1-0.4-1.7-0.5c0.1,0,0.3,0.1,0.4,0.1
				c-0.3,0-0.6-0.1-0.9-0.1c0.1,0,0.3,0,0.4,0c0,0,0,0,0.1,0c0,0-0.1,0-0.1,0c-0.4-0.1-0.8-0.1-1.2-0.2c-0.1,0-0.3,0-0.4,0
				c-0.2,0-0.4,0-0.6,0.1c-0.2,0-0.4,0-0.6,0.1c-0.1,0-0.2,0.1-0.3,0.1c-0.1,0-0.1,0-0.2,0.1c0.1,0,0.2,0,0.2,0c0.1,0,0.2,0,0.3,0
				c-0.3,0-0.6,0.1-0.9,0.1c0.1,0,0.2-0.1,0.4-0.1c-0.4,0-0.7,0.1-1.1,0.3c-0.4,0.1-0.8,0.4-1.1,0.7c-0.3,0.3-0.6,0.7-0.7,1.1
				c-0.2,0.4-0.3,0.8-0.3,1.3c0,0.3,0.1,0.6,0.1,0.9c0.2,0.6,0.5,1.1,0.9,1.5c0.2,0.2,0.5,0.4,0.7,0.5c0.5,0.3,1.1,0.5,1.7,0.5
				c0.1,0,0.2,0,0.2,0c0.3,0,0.7-0.1,1-0.1c0.1,0,0.2,0,0.3-0.1c0,0,0.1,0,0.1,0c0,0-0.1,0-0.1,0c0,0,0,0-0.1,0c-0.1,0-0.2,0-0.3,0
				c0.1,0,0.1,0,0.2,0c-0.1,0-0.2-0.1-0.4-0.1c0.2,0,0.3,0,0.5,0.1c0.2,0,0.4-0.1,0.6-0.1c-0.1,0-0.3,0.1-0.4,0.1c0.1,0,0.1,0,0.2,0
				c-0.1,0-0.2,0-0.2,0c0,0,0,0-0.1,0c0.5,0.1,1,0.2,1.4,0.2c0.5,0,0.9-0.1,1.3-0.3c0.4-0.1,0.8-0.4,1.1-0.7
				c0.3-0.3,0.6-0.7,0.7-1.1c0.2-0.4,0.3-0.8,0.3-1.3c0-0.3-0.1-0.6-0.1-0.9C716.3,238.8,716,238.3,715.6,237.9z"/>
			<path class="st23" d="M712.8,236.9c0.3,0,0.6,0.1,0.9,0.1c-0.1,0-0.3-0.1-0.4-0.1c0,0,0,0-0.1,0
				C713,236.9,712.9,236.9,712.8,236.9z"/>
			<path class="st23" d="M711.3,243.5c0.1,0,0.2,0,0.3,0c0,0,0,0-0.1,0C711.5,243.5,711.4,243.5,711.3,243.5z"/>
			<path class="st23" d="M711.6,243.5C711.6,243.5,711.6,243.5,711.6,243.5c0.1,0,0.1,0,0.2,0c0,0,0,0,0.1,0
				C711.7,243.5,711.7,243.5,711.6,243.5z"/>
			<path class="st23" d="M711.8,243.5C711.8,243.5,711.8,243.5,711.8,243.5c0,0-0.1,0-0.2,0c0,0-0.1,0-0.1,0c0,0,0,0,0.1,0
				C711.7,243.5,711.7,243.5,711.8,243.5z"/>
			<path class="st23" d="M712.2,243.4c-0.2,0-0.4,0.1-0.6,0.1c0.1,0,0.1,0,0.2,0C712,243.4,712.1,243.4,712.2,243.4z"/>
			<path class="st23" d="M712.1,243.5c-0.1,0-0.1,0-0.2,0c0,0,0,0,0,0C711.9,243.5,712,243.5,712.1,243.5z"/>
		</g>
	</g>
</g>
</svg>
