<?xml version="1.0" encoding="utf-8"?>
<!-- Generator: Adobe Illustrator 24.1.3, SVG Export Plug-In . SVG Version: 6.00 Build 0)  -->
<svg version="1.1" id="レイヤー_1" xmlns="http://www.w3.org/2000/svg" xmlns:xlink="http://www.w3.org/1999/xlink" x="0px"
	 y="0px" viewBox="0 0 1440 1440" style="enable-background:new 0 0 1440 1440;" xml:space="preserve">
<style type="text/css">
	.st0{fill:#B2E2F8;}
	.st1{fill:#FFFFFF;stroke:#FFFFFF;stroke-miterlimit:10;}
	.st2{clip-path:url(#SVGID_2_);fill:#FFFFFF;}
	.st3{clip-path:url(#SVGID_2_);}
	.st4{fill:#505050;}
	.st5{fill:#9DC3E7;}
	.st6{fill:#FFFFFF;}
	.st7{fill:#FFAF9B;}
	.st8{fill:#FFCFBA;}
	.st9{fill:#B5D1ED;}
	.st10{fill:#F76E57;}
	.st11{fill:#00A0E9;}
	.st12{clip-path:url(#SVGID_4_);fill:#FFFFFF;}
	.st13{clip-path:url(#SVGID_4_);}
	.st14{fill:none;stroke:#B2E2F8;stroke-width:2;stroke-miterlimit:10;}
	.st15{clip-path:url(#SVGID_6_);}
	.st16{clip-path:url(#SVGID_8_);}
	.st17{fill:#F3BF9B;}
	.st18{fill:#D8E5F5;}
	.st19{fill:#FDE2A4;}
	.st20{fill:#231815;}
	.st21{fill:#C0D7EF;}
	.st22{clip-path:url(#SVGID_10_);}
</style>
<g>
	<defs>
		<circle id="SVGID_1_" cx="721.4" cy="275" r="149.3"/>
	</defs>
	<clipPath id="SVGID_2_">
		<use xlink:href="#SVGID_1_"  style="overflow:visible;"/>
	</clipPath>
	<circle class="st2" cx="721.4" cy="275" r="149.3"/>
	<g class="st3">
		<polygon class="st4" points="716.6,322.6 716.1,321 716.3,319.4 716.7,317.8 715.8,316.3 716.1,314.7 715.8,313.1 715.7,311.5 
			715.5,309.9 715.5,308.3 715.4,306.7 715.4,305.2 714.8,303.6 715.3,302 714.8,300.4 714.6,298.8 714.8,297.2 714.6,295.6 
			715.1,294 714.4,292.5 714.2,290.9 714.6,289.3 714.4,287.7 713.8,286.1 713.8,284.5 713.9,282.9 713.6,281.5 712.2,281.1 
			710.8,280.4 709.2,280 707.7,279.4 706,279.5 704.6,278.9 703,278.6 701.7,277.4 700.1,277.1 698.6,276.5 697,276.4 695.4,276.2 
			693.8,275.8 692.3,275.4 690.8,274.7 689.3,274.3 687.8,273.7 686.2,273.2 684.7,272.8 683,272.8 681.5,272.5 680,271.8 
			678.4,271.7 676.9,271.1 675.3,270.7 673.9,269.8 673.8,269.9 672.2,269.7 670.6,270 668.9,270.1 667.5,271.2 665.7,270.8 
			664.2,271.2 662.6,271.9 661.1,272.5 660,273.9 658.3,274.1 656.9,275.1 655.8,276.3 654.5,277.3 653.4,278.4 652.1,279.4 
			651,280.6 649.8,281.7 648.6,282.9 648.3,284.7 647.3,285.9 646.3,287.3 645.6,288.8 645.4,290.4 644.7,291.9 644.3,293.5 
			643.7,295 643.5,296.6 643.5,298.2 643.1,299.7 643.9,301.4 643.2,302.9 643.5,304.5 643.6,306.1 643.3,307.7 643.4,309.3 
			643.1,310.8 642.7,312.4 643.1,314 642.5,315.5 642.1,317 642.5,318.8 642,320.3 641.3,321.8 640.3,323.1 639.4,324.4 639,326 
			637.9,327.2 636.9,328.5 635.8,329.6 634.7,330.7 633.6,331.9 632.6,333.2 631.4,334.2 630.1,335.2 628.7,335.9 627.3,336.8 
			625.5,336.8 624,337.3 622.5,338.1 620.9,337.9 619.2,338.6 617.6,338.2 616,337.8 614.5,337.1 612.8,337.1 611.3,336.5 
			609.7,336 608.4,334.8 607,334.1 605.2,334.1 603.9,333.1 602.3,332.6 601,331.6 599.5,330.2 600,332.1 600.2,333.6 600.5,335.1 
			601,336.6 601.7,338 602,339.6 602.8,340.9 604.1,341.9 604.6,343.4 605.5,344.6 606.9,345.5 607.8,346.6 608.8,347.9 
			610.4,348.2 611.6,349.2 613,349.8 614.5,350.2 616,350.5 617.2,351.6 618.8,352 620.4,351.9 622,352.2 623.6,351.9 625.2,352 
			626.8,352.3 628.4,352.2 630,352.1 631.6,352.4 633.2,351.9 634.8,352.7 636.4,352.1 638,352.2 639.6,352.2 641.2,352.3 
			642.8,353.2 644.4,352.9 646,352.9 647.6,353.1 649.2,352.9 650.8,352.7 652.3,353.4 654,352.8 655.6,353 657.1,353.3 
			658.7,353.7 660.3,353.4 661.9,353.5 663.5,353.6 665.1,354.1 666.7,353.7 668.3,354 669.9,353.6 671.5,353.9 673.2,353.7 
			674.7,354.1 676.4,353.8 677.9,354.1 679.5,353.8 680.8,352.8 681.9,351.6 683,350.6 684.6,350 685.5,348.6 687.2,348.3 
			688.1,346.8 689.6,346.2 691.1,345.7 692.3,344.6 693.6,343.7 694.8,342.6 696.1,341.7 697.1,340.5 698.4,339.6 700.2,339.3 
			701.4,338.3 702.7,337.5 704.1,336.7 705.1,335.4 706.2,334.2 707.5,333.4 709.3,333.1 710.2,331.7 711.8,331.2 713,330.2 
			714.5,329.6 715.5,328.3 716.6,327.3 717.1,325.8 717,324.2 		"/>
		<polygon class="st5" points="845.8,449 846,447.4 846,445.7 845.6,444.1 845.2,442.5 846,440.9 846,439.3 845.5,437.7 
			845.9,436.1 846.1,434.5 845.3,432.9 845.8,431.3 846.1,429.7 845.7,428 845.7,426.4 845.3,424.8 845.3,423.2 846.1,421.6 
			846,420 845.2,418.4 845.8,416.8 845.7,415.2 845.9,413.6 845.7,412 845.2,410.4 845.9,408.8 845.3,407.2 845.8,405.5 
			845.4,403.9 845.6,402.3 845.3,400.7 845.3,399.1 845.8,397.5 845.6,395.9 845.6,394.3 845.2,392.7 845.5,391.1 845.4,389.5 
			845.3,387.9 845.7,386.3 845.2,384.7 845.2,383.2 844.9,381.6 845.6,379.9 844.8,378.5 844.1,377 843.7,375.5 843.2,374 
			842.8,372.4 842.5,370.9 842.3,369.2 840.9,368.1 840.1,366.8 839.4,365.3 839,363.8 838,362.5 837.3,361 836.3,359.8 835,358.8 
			833.7,357.9 832.6,356.8 831.5,355.6 830.6,354.2 829.5,353 828.2,352 826.6,351.5 825.5,350.3 824.1,349.6 822.5,349.2 
			821.5,347.7 819.9,347.3 818.3,347 817.2,345.7 815.7,345 814.3,344.4 812.6,344.3 811.3,343.2 809.7,342.9 808.2,342.4 
			806.7,341.9 805.2,341.4 803.8,340.7 802.3,340.1 800.6,340.1 799.1,339.6 797.8,338.6 796.1,338.6 794.6,338.1 793.1,337.4 
			791.7,336.8 790,336.6 788.5,336.2 787.1,335.3 785.5,335.1 784.1,334.4 782.7,333.5 781,333.5 779.4,333.3 778,332.5 
			776.5,332.1 775.1,331.1 773.4,331.3 771.9,330.7 770.5,330 768.8,330.1 767.4,329.3 765.9,328.5 764.3,328.4 762.9,327.7 
			761.2,327.8 759.9,326.7 758.4,326.1 756.7,326.1 755.1,325.9 753.8,324.8 752.1,324.9 750.6,324.5 749.1,323.9 747.6,324 
			746,323.9 744.4,324 742.8,323.7 741.2,323.7 739.6,323.7 738.1,324 736.5,323.9 734.9,323.9 733.3,323.7 731.7,324.4 
			730.2,324.2 728.6,324.3 727,324.1 725.4,324.3 723.8,324.2 722.2,323.9 720.7,324.3 719.1,324.1 717.5,323.8 715.9,323.8 
			714.4,323.7 712.8,323.7 711.2,324.5 709.6,323.8 708,324.3 706.5,324.1 704.9,324.2 703.3,324.1 701.7,324.4 700.1,324.4 
			698.6,324.6 697,324.3 695.4,324.7 693.8,324.2 692.2,324 690.7,324.2 689.1,324 687.5,324.2 686.1,325.3 684.6,325.8 683,325.8 
			681.3,326 679.9,326.7 678.3,327 676.9,327.9 675.4,328.4 673.7,328.5 672.4,329.4 670.9,330 669.4,330.7 667.6,330.4 666.1,331 
			664.8,331.9 663.4,332.8 661.8,333.3 660.2,333.3 658.8,334.2 657.2,334.5 655.6,334.8 654.2,335.7 652.7,336.2 651,336.3 
			649.6,337 648.1,337.5 646.7,338.3 645.2,339 643.5,339.1 642.2,340 640.5,340 639.1,340.8 637.6,341.3 635.9,341.5 634.4,342.1 
			632.9,342.6 631.7,343.8 630,343.8 628.7,344.8 627,344.9 625.7,346 624.1,346.3 622.8,347.3 621.3,347.9 619.8,348.5 
			618.6,349.6 617.5,350.7 616.3,351.8 614.5,352 613.4,353.2 612.5,354.6 611.1,355.4 609.9,356.5 608.8,357.6 607.4,358.5 
			606.5,359.8 605.5,361.1 604.9,362.6 604,363.9 602.9,365.1 602.3,366.6 601.8,368.1 601.1,369.5 600.2,370.8 599.9,372.4 
			598.7,373.7 598.5,375.3 598.5,376.9 597.6,378.3 597.3,379.9 597.8,381.6 597.1,383.1 597.6,384.7 596.8,386.3 597.4,387.8 
			597.2,389.5 597.6,391.1 597.3,392.7 596.7,394.3 597.1,395.9 597.3,397.5 597.5,399.1 597.2,400.7 597.2,402.4 597.2,404 
			597.3,405.6 597.5,407.2 596.7,408.8 596.7,410.4 597.2,412 597.1,413.6 597,415.2 597.2,416.8 597.1,418.4 597.5,420 
			597.2,421.7 597.5,423.3 597.2,424.9 597.1,426.5 596.7,428.1 597.6,429.7 597.2,431.3 597.6,432.9 597,434.5 597.3,436.1 
			596.7,437.7 596.7,439.3 597.4,440.9 597,442.6 597.4,444.2 597.1,445.8 597.2,447.4 597.2,449 597.3,450.6 597.1,452.2 
			596.9,453.8 846,453.8 845.9,452.2 846.1,450.6 		"/>
		<polygon class="st6" points="764.5,332.8 763,332.6 761.4,332.8 759.8,332.7 758.2,332.9 756.6,332.6 755,332.8 753.4,333 
			751.8,332.8 750.2,332.9 748.7,332.8 747.1,332.9 745.5,332.5 743.9,333 742.3,333 740.7,332.9 739.1,332.7 737.5,333 736,332.1 
			734.4,332.6 732.8,332.9 731.2,332.4 729.6,332.4 728,332.6 726.5,332.2 724.9,332.3 723.3,332 721.7,332.8 720.1,332.6 
			718.5,332.9 716.9,332.7 715.3,332.4 713.8,332.2 712.2,332.1 710.6,332 709,332.2 707.4,332.8 705.8,332.1 704.2,332.1 
			702.7,332.5 701.1,332 699.5,331.8 697.9,332.4 696.3,332.6 694.7,332.7 693.1,332.3 691.6,332.5 690,331.9 688.4,332.1 
			686.8,332.6 685.2,332.7 683.6,332.5 682.1,332 680.5,332.2 678.9,332.5 677.3,332.5 675.7,332.1 674.3,332.3 674.6,333.7 
			674.2,335.4 675.3,336.8 675.4,338.4 675.2,340 675.6,341.6 675.7,343.2 675.8,344.8 676.3,346.3 676.6,347.8 677.1,349.4 
			676.7,351 676.9,352.6 677.6,354.1 677.7,355.7 677.9,357.3 678.2,358.9 678.8,360.4 679.1,361.9 679.1,363.5 679.1,365.1 
			679.5,366.7 680,368.2 680,369.8 680.5,371.3 680.8,372.9 680.8,374.5 680.9,376.1 680.8,377.7 681.4,379.2 681.9,380.8 
			681.4,382.4 681.9,384 682,385.6 682.6,387.1 682.8,388.7 683.4,390.2 683.2,391.8 683.2,393.4 684,394.9 684.4,396.4 684.5,398 
			684.1,399.7 684.6,401.2 685.1,402.7 685.3,404.3 685.3,405.9 685.9,407.4 685.9,409 686,410.6 686,412.2 686.7,413.7 
			686.8,415.3 687.4,416.8 687.1,418.5 687.8,420 687.6,421.6 687.7,423.2 688.2,424.7 688.1,426.3 689.1,427.8 689.3,429.4 
			688.8,431 689.9,432.5 690.2,434 690.3,435.6 690.6,437.2 690.3,438.8 690.6,440.4 690.7,442 691.5,443.4 691.5,445.1 
			691.6,446.6 692.1,448.2 691.9,449.8 691.9,451.4 692.4,452.9 692.9,454.4 745.6,454.4 746.1,452.9 746.2,451.3 746.5,449.7 
			747.2,448.2 747.3,446.6 747.8,445.1 747.8,443.5 748.2,442 748.4,440.4 748.6,438.8 749.2,437.3 749.3,435.7 749.7,434.2 
			750.3,432.6 749.8,430.9 750.3,429.4 750.9,427.9 751.3,426.4 751.2,424.7 751.1,423.1 751.4,421.6 752.5,420.1 752.6,418.6 
			752.3,416.9 752.9,415.4 753.1,413.8 753.7,412.3 753.9,410.7 754.1,409.2 753.9,407.5 754.8,406.1 755.2,404.5 754.9,402.9 
			755.1,401.3 755.7,399.8 756.1,398.3 756.1,396.6 756.4,395.1 757,393.6 756.8,391.9 757.6,390.5 757.5,388.8 758.4,387.4 
			757.9,385.7 758.3,384.2 758.8,382.6 759.2,381.1 759.7,379.6 759.6,377.9 760,376.4 760.3,374.9 760.3,373.2 761.2,371.8 
			760.9,370.1 761.2,368.6 761.6,367 761.4,365.4 761.8,363.8 762.2,362.3 762.4,360.8 763.4,359.3 763,357.6 763.6,356.1 
			764,354.6 764.4,353.1 764.2,351.4 765,350 764.5,348.3 765,346.8 765.7,345.3 765.7,343.6 766,342.1 766.7,340.6 766.8,339 
			766.7,337.4 767.2,335.9 767.2,334.3 767.6,332.9 766.1,333 		"/>
		<path class="st7" d="M749.6,311.5c0-0.9,0.3-0.9,0.3-1.7c0-0.9,0.1-0.9,0.1-1.7c0-0.9-0.3-0.9-0.4-1.7c0-0.9,0.1-0.9,0.1-1.7
			c0-0.9,0.4-0.9,0.4-1.7c0-0.9-0.3-0.9-0.3-1.7c0-0.9-0.5-0.8-0.5-1.7c0-0.9,0.2-0.9,0.1-1.7c0-0.9,0-0.9,0-1.7
			c0-0.9,0.2-0.9,0.2-1.7c0-0.9,0.5-1.1-0.1-1.7c-0.6-0.6-0.9-0.1-1.7-0.1c-0.8,0-0.8-0.1-1.7-0.1c-0.8,0-0.8,0.1-1.7,0.1
			c-0.8,0-0.8-0.2-1.7-0.2c-0.8,0-0.8,0.7-1.7,0.7c-0.8,0-0.8-0.2-1.7-0.2c-0.8,0-0.8-0.2-1.7-0.2c-0.8,0-0.8,0.4-1.7,0.4
			c-0.8,0-0.8-0.2-1.7-0.2c-0.8,0-0.8-0.1-1.7-0.1c-0.8,0-0.8,0.3-1.7,0.3c-0.8,0-0.8-0.3-1.7-0.3c-0.8,0-0.8,0.3-1.7,0.3
			c-0.8,0-0.8-0.1-1.7-0.1c-0.8,0-0.8-0.7-1.7-0.7c-0.8,0-0.8,0.5-1.7,0.5c-0.8,0-0.8-0.5-1.7-0.5c-0.8,0-0.8,0.1-1.7,0.1
			c-0.8,0-0.8,0.4-1.7,0.4c-0.8,0-0.8-0.5-1.7-0.5c-0.8,0-0.8,0.8-1.7,0.8c-0.8,0-0.8-0.6-1.7-0.6c-0.8,0-0.8,0.6-1.7,0.6
			c-0.8,0-0.8-0.6-1.7-0.6c-0.8,0-0.8-0.1-1.7-0.1c-0.8,0-0.8,0.4-1.7,0.4c-0.8,0-0.8-0.3-1.7-0.3c-0.8,0-0.8-0.1-1.7-0.1
			c-0.8,0-0.8-0.2-1.7-0.2c-0.8,0-0.8,0.7-1.7,0.7c-0.8,0-0.8-0.5-1.7-0.5c-0.8,0-0.8,0.6-1.7,0.6c-0.8,0-0.8-0.4-1.7-0.4
			c-0.8,0-0.8-0.4-1.7-0.4c-0.8,0-0.9-0.1-1.5,0.6c-0.6,0.6-0.5,0.7-0.6,1.5c0,0.9,0.7,0.9,0.7,1.7c0,0.9-0.4,0.9-0.4,1.7
			c0,0.9-0.4,0.9-0.4,1.7c0,0.9,0.2,0.9,0.2,1.7c0,0.9,0.2,0.9,0.2,1.7c0,0.9-0.3,0.9-0.3,1.7s-0.1,0.9-0.1,1.7c0,0.9,0,0.9,0,1.7
			c0,0.9,0.3,0.9,0.3,1.8c0,0.9-0.2,0.9,0,1.7c0.4,0.4,1.1,0.4,1.5,0.8c0.4,0.4,0.5,1.1,1,1.4c0.4,0.3,1.1,0.4,1.5,0.8
			c0.5,0.3,0.9,0.7,1.3,1c0.5,0.3,0.7,0.9,1.2,1.2c0.5,0.3,1.1,0.4,1.6,0.7c0.5,0.3,0.9,0.7,1.4,1c0.5,0.2,1.3-0.3,1.9,0
			c0.5,0.2,1,0.5,1.5,0.7c0.5,0.2,0.9,0.7,1.4,0.9c0.5,0.2,1.1,0.4,1.6,0.5c0.5,0.2,1,0.6,1.5,0.7c0.5,0.2,1.1,0.2,1.6,0.3
			c0.5,0.1,1.2-0.3,1.7-0.1c0.5,0.1,1.1,0.1,1.7,0.2c0.5,0.1,1,0.9,1.5,1c0.6,0.1,1.2-0.2,1.7-0.1c0.6,0.1,1.1,0.1,1.7,0.2
			c0.6,0.1,1.1,0.1,1.7,0.1c0.6,0,1.1,0.5,1.6,0.6c0.6,0,1.1,0,1.7,0c0.6,0,1.1-0.1,1.7-0.1c0.6,0,1.1-0.1,1.7-0.1
			c0.6,0,1.1-0.2,1.7-0.2c0.6,0,1.1,0.3,1.7,0.2c0.6,0,1.1-0.4,1.7-0.5c0.6-0.1,1.2,0.1,1.8,0c0.6-0.1,1.2-0.1,1.7-0.2
			c0.6-0.1,1.2,0,1.8-0.2c0.6-0.2,1-0.7,1.6-0.8c0.6-0.2,1.2-0.1,1.7-0.4c0.5-0.2,1.2-0.2,1.7-0.4c0.5-0.2,0.9-1,1.4-1.2
			c0.5-0.3,0.9-0.8,1.4-1c0.5-0.3,1.1-0.5,1.6-0.8c0.5-0.3,1-0.6,1.5-0.9c0.5-0.3,0.7-0.9,1.2-1.3c0.5-0.4,1.5-0.3,2-0.7
			c0.2-0.8-0.5-0.9-0.5-1.8C749.8,312.3,749.6,312.4,749.6,311.5z"/>
		<path class="st8" d="M765.4,332.5c-0.8-0.3-0.6-0.8-1.3-1.1c-0.8-0.3-0.9,0.1-1.7-0.2c-0.8-0.3-0.7-0.6-1.4-0.9
			c-0.8-0.3-0.7-0.5-1.5-0.8c-0.8-0.3-0.6-0.6-1.4-0.9c-0.8-0.3-0.8-0.2-1.6-0.6c-0.8-0.3-0.9,0.1-1.7-0.3c-0.8-0.3-0.9,0-1.6-0.4
			c-0.8-0.3-0.6-0.5-1.4-0.8c-0.8-0.2-0.9-0.3-1.3-1c-0.5-0.8,0.2-0.8,0.2-1.7c0-0.9-0.9-0.9-0.9-1.8c0-0.9,0.6-0.9,0.6-1.8
			c0-0.9-0.3-0.9-0.3-1.8c0-0.9,0.3-0.9,0.2-1.8c0-0.9,0.2-1-0.1-1.9c-0.4,0.4-1.4,0.4-1.8,0.8c-0.5,0.4-0.5,1.3-1,1.6
			c-0.5,0.3-1,0.7-1.5,1c-0.5,0.3-1,0.7-1.5,1c-0.5,0.3-1.2,0.2-1.8,0.4c-0.5,0.3-0.9,0.7-1.5,1c-0.5,0.2-1.1,0.5-1.6,0.7
			c-0.5,0.2-1.2,0-1.8,0.2c-0.6,0.2-1.1,0.2-1.7,0.4c-0.6,0.2-1,0.8-1.6,0.9c-0.6,0.1-1.2,0.1-1.8,0.2c-0.6,0.1-1.1,0.5-1.7,0.6
			c-0.6,0.1-1.2,0.1-1.8,0.1c-0.6,0-1.1,0.1-1.7,0.1c-0.6,0-1.1-0.4-1.7-0.4c-0.6,0-1.1,0.2-1.7,0.2c-0.6,0-1.1-0.6-1.7-0.6
			c-0.6,0-1.1,0.5-1.7,0.4c-0.6,0-1.1,0.2-1.7,0.2c-0.6,0-1.1-0.6-1.6-0.7c-0.6-0.1-1.1-0.2-1.7-0.2c-0.6-0.1-1.1,0-1.7-0.1
			c-0.6-0.1-1.1,0-1.7-0.1c-0.5-0.1-1-0.7-1.6-0.8c-0.5-0.1-1-0.5-1.6-0.7c-0.5-0.1-1.2,0.1-1.7-0.1c-0.5-0.2-1.2,0.2-1.8,0
			c-0.5-0.2-0.8-1.1-1.3-1.3c-0.5-0.2-1.2,0.2-1.8,0c-0.5-0.2-0.9-0.7-1.4-0.9c-0.5-0.2-0.9-0.6-1.4-0.9c-0.5-0.2-1.3,0-1.8-0.2
			c-0.5-0.3-0.9-0.7-1.4-1c-0.5-0.3-0.8-0.8-1.3-1.1c-0.5-0.3-1.3-0.1-1.7-0.4c-0.5-0.3-0.5-1.2-1-1.5c-0.4-0.3-1.3-0.2-1.7-0.5
			c-0.4-0.4-0.2-0.9-0.6-1.3c-0.3,0.9-0.4,0.8-0.4,1.7c0,0.9,0.1,0.9,0.1,1.8c0,0.9-0.2,0.9-0.2,1.8c0,0.9,0.3,0.9,0.3,1.8
			c0,0.9,0,0.9,0,1.8c0,0.9-0.5,0.9-0.5,1.8c0,0.9,0,0.9,0,1.8c0,0.9,0.7,0.9,0.2,1.7c-0.5,0.7-0.6,0.4-1.4,0.7
			c-0.8,0.3-0.8,0.3-1.6,0.5c-0.8,0.3-0.8,0.3-1.6,0.5c-0.8,0.3-0.7,0.6-1.5,0.9c-0.8,0.3-0.7,0.4-1.5,0.7c-0.8,0.3-1-0.3-1.8,0
			c-0.8,0.3-0.9,0-1.7,0.3c-0.8,0.3-0.5,1.1-1.3,1.3c-0.8,0.3-0.9,0-1.7,0.3c-0.8,0.3-0.7,0.6-1.4,0.9c-0.8,0.3-0.9-0.2-1.5,0.3
			c-0.6,0.5,0.3,0.2,1.1,0.9c0.3,0.3,0.7,0.8,1.2,1.2c0.4,0.4,1.1,0.4,1.5,0.8c0.4,0.4,0.6,1,1,1.4c0.4,0.4,0.8,0.8,1.2,1.2
			c0.4,0.4,0.7,0.9,1.1,1.3c0.4,0.4,0.7,0.9,1.1,1.3c0.4,0.4,1,0.6,1.4,1c0.4,0.4,1.1,0.5,1.5,0.8c0.4,0.4,0.5,1.1,0.9,1.5
			c0.4,0.4,0.9,0.7,1.3,1.1c0.4,0.4,0.9,0.7,1.3,1c0.4,0.4,0.9,0.7,1.3,1.1c0.4,0.4,0.9,0.7,1.3,1.1c0.4,0.3,0.9,0.6,1.4,1
			c0.4,0.3,1.3,0.1,1.8,0.4c0.4,0.3,0.3,1.4,0.8,1.7c0.4,0.3,1,0.5,1.5,0.9c0.5,0.3,0.8,0.8,1.3,1.1c0.5,0.3,1.4,0,1.8,0.4
			c0.5,0.3,0.8,0.8,1.3,1.1c0.5,0.3,0.8,0.9,1.2,1.2c0.5,0.3,1.2,0.2,1.7,0.5c0.5,0.3,0.9,0.7,1.4,0.9c0.5,0.3,1,0.5,1.5,0.7
			c0.5,0.3,1,0.6,1.4,0.9c0.5,0.3,0.9,0.6,1.4,0.9c0.5,0.3,0.9,0.7,1.4,0.9c0.5,0.2,0.9,0.7,1.4,0.9c0.5,0.2,1.1,0.3,1.6,0.5
			c0.5,0.2,1,0.6,1.5,0.7c0.6,0.2,1.1,0.3,1.7,0.4c0.6,0.1,1.2-0.2,1.7-0.2c0.6,0.1,1.1,0,1.6,0c0.6,0,1.1,0,1.7-0.1
			c0.6-0.1,1.2,0.3,1.8,0.2c0.5-0.1,1-0.7,1.5-0.9c0.5-0.2,1.3,0.3,1.9,0.1c0.5-0.2,1.1-0.4,1.6-0.6c0.5-0.2,0.8-0.9,1.4-1.2
			c0.5-0.2,1-0.5,1.6-0.7c0.5-0.3,1.3-0.1,1.8-0.3c0.5-0.3,1-0.6,1.5-0.9c0.5-0.3,0.9-0.8,1.4-1.1c0.5-0.3,0.8-0.9,1.3-1.2
			c0.5-0.3,1.2-0.2,1.7-0.5c0.5-0.3,0.7-1.1,1.2-1.4c0.5-0.3,1.2-0.2,1.7-0.5c0.5-0.3,0.8-0.9,1.3-1.2c0.5-0.3,0.8-0.9,1.2-1.2
			c0.5-0.3,1.1-0.4,1.6-0.7c0.5-0.3,1.1-0.4,1.6-0.8c0.5-0.3,0.6-1.1,1-1.5c0.5-0.4,1.3-0.2,1.8-0.5c0.5-0.4,0.6-1.1,1.1-1.5
			c0.5-0.4,0.9-0.7,1.4-1.1c0.5-0.4,1.1-0.4,1.6-0.8c0.5-0.4,0.6-1.1,1-1.5c0.5-0.4,0.9-0.8,1.3-1.1c0.4-0.4,0.7-1,1.1-1.3
			c0.4-0.4,1.3-0.2,1.8-0.6c0.4-0.4,0.6-1.1,1-1.5c0.5-0.4,1.1-0.5,1.5-0.9c0.5-0.4,0.8-0.9,1.2-1.3c0.5-0.4,1.2-0.5,1.6-0.9
			c0.5-0.4,0.4-1.4,0.8-1.7c0.8-0.8,2.2-0.6,1.6-1.2C766.7,332,766.2,332.8,765.4,332.5z"/>
		<g>
			<path class="st9" d="M790.6,369.6c0,0.1,0,0.2,0,0.3c0,0,0,0.1,0,0.1C790.8,370.3,790.6,369.1,790.6,369.6z"/>
			<path class="st9" d="M791.8,375c0,0.1,0.1,0.1,0.1,0.2C791.8,374.9,791.8,374.7,791.8,375z"/>
			<path class="st9" d="M790.2,368.9c0,0.1,0.1,0.2,0.2,0.3c0,0,0,0,0,0C790.3,369.1,790.2,369,790.2,368.9z"/>
			<path class="st9" d="M793.9,378.7c-0.2-0.6-0.5-1.2-0.7-1.8c0,0.3-0.1,0.6-0.1,0.9C793.4,378.1,793.7,378.4,793.9,378.7z"/>
			<path class="st9" d="M781.5,396C781.5,396,781.5,396,781.5,396c0,0-0.1,0-0.1,0c-0.1,0-0.2,0-0.2,0c0,0,0,0,0,0
				C780.8,396.2,781.3,396.1,781.5,396z"/>
			<path class="st9" d="M781.5,396C781.5,396,781.5,396,781.5,396C781.5,396,781.6,396,781.5,396C781.6,396,781.5,396,781.5,396z"/>
			<path class="st9" d="M785.9,393.7c-0.1,0.1-0.2,0.2-0.3,0.2C785.2,394.2,786.2,393.6,785.9,393.7z"/>
			<path class="st9" d="M785,394.1C785,394.1,785,394.1,785,394.1c-0.1,0-0.2,0.1-0.3,0.1C784.3,394.5,785.5,394.1,785,394.1z"/>
			<path class="st9" d="M781.6,396c0,0-0.1,0-0.1,0c-0.1,0.1-0.1,0.1-0.2,0.2c0.4-0.2,0.7-0.4,1.1-0.6c-0.2,0.1-0.4,0.1-0.6,0.2
				C781.7,395.8,781.6,395.9,781.6,396C781.5,396,781.6,396,781.6,396z"/>
			<path class="st9" d="M781.5,396c0.1-0.1,0.2-0.2,0.3-0.3c-0.2,0.1-0.5,0.2-0.7,0.3c0.1,0,0.2,0,0.2,0
				C781.4,396,781.4,396,781.5,396z"/>
			<path class="st9" d="M792,390.5C792,390.5,792,390.5,792,390.5c-0.2,0.1-0.3,0.1-0.4,0.2C791.3,390.9,792.4,390.5,792,390.5z"/>
			<path class="st9" d="M789.3,391.8c-0.2,0.1-0.4,0.1-0.5,0.2c-0.2,0.2-0.4,0.3-0.6,0.5C788.5,392.3,788.9,392.1,789.3,391.8z"/>
			<path class="st9" d="M797,389.6c0.6-1,1.2-2,1.7-3.1c-0.5,0.2-0.9,0.3-1.4,0.5c-0.4,0.1-0.7,0.3-1,0.6c0.1,0.2,0.1,0.4,0.2,0.5
				C796.7,388.6,796.8,389.1,797,389.6z"/>
			<path class="st9" d="M796.1,386.8C796.1,386.8,796.1,386.8,796.1,386.8c0.1,0.2,0.1,0.3,0.2,0.4
				C796.5,387.6,796,386.4,796.1,386.8z"/>
			<path class="st9" d="M795.4,388.5C795.4,388.5,795.4,388.5,795.4,388.5c-0.1,0.1-0.1,0.1-0.2,0.1
				C794.7,389.1,795.9,388.2,795.4,388.5z"/>
			<path class="st9" d="M795,383.8c0,0.1,0,0.1,0,0.2c0,0.1,0.1,0.2,0.1,0.2C795.4,384.6,795,383.4,795,383.8z"/>
			<path class="st9" d="M785.4,342.8c0-0.2,0-0.3,0-0.5c-0.1-0.2-0.3-0.5-0.4-0.7C785.1,342,785.3,342.4,785.4,342.8z"/>
			<path class="st9" d="M796.9,375c0-0.2-0.1-0.4-0.1-0.5c-0.2-0.2-0.4-0.4-0.5-0.5C796.5,374.3,796.7,374.6,796.9,375z"/>
			<path class="st9" d="M798,378.3C798.1,378.9,798.1,378.5,798,378.3C798.1,378.3,798.1,378.3,798,378.3c0.1-0.1,0-0.1,0-0.1
				C798,378,797.9,377.7,798,378.3z"/>
			<path class="st9" d="M795.6,371.5c0,0,0.2,0.8,0.2,0.4c0,0,0,0,0,0c0,0,0-0.1-0.1-0.1C795.7,371.6,795.7,371.5,795.6,371.5z"/>
			<path class="st9" d="M795.6,371c0,0,0-0.1,0-0.1c0-0.1,0-0.3-0.1-0.4C795.5,370.3,795.6,371.3,795.6,371z"/>
			<path class="st9" d="M799,380.8c0-0.1-0.1-0.2-0.1-0.3c0,0,0-0.1-0.1-0.1C798.8,380.3,799.2,381.2,799,380.8z"/>
			<path class="st9" d="M793.8,365.4c-0.1-0.1,0.2,0.7,0.2,0.4c0,0,0-0.1,0-0.1C793.9,365.6,793.9,365.5,793.8,365.4z"/>
			<path class="st9" d="M790.3,409.5C790.5,409.6,790.4,409.5,790.3,409.5L790.3,409.5z"/>
			<path class="st9" d="M784.9,399.3c0.2,0,0.4-0.1,0.5-0.1c0.2-0.2,0.4-0.3,0.6-0.5C785.7,398.8,785.3,399.1,784.9,399.3z"/>
			<path class="st9" d="M798.7,391.9c0.2-0.1,0.4-0.1,0.6-0.2c0.2-0.1,0.3-0.3,0.5-0.4C799.4,391.4,799,391.7,798.7,391.9z"/>
			<path class="st9" d="M792,362.9c0.1-0.4,0.2-0.8,0.2-1.2c-0.2-0.2-0.3-0.5-0.5-0.7C791.8,361.7,791.9,362.3,792,362.9z"/>
			<path class="st9" d="M788.9,365.7c0,0,0,0.1,0,0.1c0,0,0,0.1,0.1,0.1C788.9,365.9,788.9,365.8,788.9,365.7z"/>
			<path class="st9" d="M791.8,395.6c0.2,0,0.3-0.1,0.5-0.1c0.2-0.2,0.4-0.4,0.6-0.5C792.6,395.2,792.2,395.4,791.8,395.6z"/>
			<path class="st9" d="M789.1,397.2c0.2-0.1,0.4-0.1,0.5-0.2c0.2-0.2,0.4-0.3,0.6-0.5C789.9,396.7,789.5,397,789.1,397.2z"/>
			<path class="st9" d="M781.9,346.4c0.1,0.1,0.1,0.3,0.2,0.4C782.2,347.2,781.9,346.2,781.9,346.4z"/>
			<path class="st9" d="M783.6,350.8c0,0,0,0.2,0.2,0.5c0,0,0,0,0,0C783.7,351.1,783.6,350.9,783.6,350.8z"/>
			<path class="st9" d="M784.8,353c0,0.2,0,0.4,0,0.6c0.1,0.2,0.2,0.4,0.3,0.7C785,353.8,784.9,353.4,784.8,353z"/>
			<path class="st9" d="M785.7,356.1c0,0.3,0,0.5,0,0.8c0.1,0.2,0.2,0.3,0.3,0.5C785.9,356.9,785.8,356.5,785.7,356.1z"/>
			<path class="st9" d="M787.5,359.8c-0.1,0.5-0.2,1-0.3,1.6c0.3,0.3,0.6,0.6,0.9,0.9C787.9,361.4,787.7,360.6,787.5,359.8z"/>
			<path class="st9" d="M790.7,357.5c0,0,0-0.1,0-0.1c0-0.1,0-0.1,0-0.2C790.5,356.7,790.7,358.1,790.7,357.5z"/>
			<path class="st9" d="M789.8,354.7c0-0.2,0-0.5,0-0.7c-0.1-0.2-0.2-0.4-0.3-0.5C789.6,353.8,789.7,354.3,789.8,354.7z"/>
			<path class="st9" d="M791,358.6c-0.1-0.2-0.1-0.4-0.1-0.7c-0.2-0.2-0.3-0.3-0.5-0.4C790.6,357.9,790.8,358.2,791,358.6z"/>
			<path class="st9" d="M778.8,397.4c-0.4,0-0.8,0.1-1.3,0.1c-0.2,0.2-0.3,0.4-0.5,0.6C777.6,397.9,778.2,397.6,778.8,397.4z"/>
			<path class="st9" d="M786.7,346c0.1,0.1,0.1,0.1,0.2,0.2c0,0,0,0,0,0C786.8,346.2,786.7,346.1,786.7,346z"/>
			<path class="st9" d="M788.9,350.8c0-0.1-0.1-0.2-0.1-0.3c0,0,0-0.1,0-0.1C788.6,350.1,789.1,351.3,788.9,350.8z"/>
			<path class="st9" d="M800.2,383.8c0,0,0-0.1-0.1-0.2C799.8,382.9,800.2,384.1,800.2,383.8z"/>
			<path class="st9" d="M796.6,421.5c0.1-0.2,0.3-0.3,0.4-0.5c0.1-0.2,0.1-0.4,0.2-0.6C797.1,420.7,796.8,421.1,796.6,421.5z"/>
			<polygon class="st9" points="787.3,437.9 787.3,437.9 787.3,437.9 			"/>
			<path class="st9" d="M790.5,431.8c0.1-0.1,0.2-0.3,0.3-0.4c0-0.3,0-0.6,0.1-0.8C790.7,430.9,790.6,431.3,790.5,431.8z"/>
			<path class="st9" d="M785.5,440.2c0-0.1,0.1-0.1,0.1-0.2C785.7,439.8,785.1,440.7,785.5,440.2z"/>
			<path class="st9" d="M791.1,430.9C791.1,430.9,791.1,430.8,791.1,430.9c0.1-0.2,0.2-0.2,0.2-0.3
				C791.6,430.2,790.8,431.1,791.1,430.9z"/>
			<path class="st9" d="M794.3,425.5C794.3,425.5,794.4,425.5,794.3,425.5c0.1-0.1,0.2-0.2,0.3-0.3
				C794.8,424.7,794,425.6,794.3,425.5z"/>
			<path class="st9" d="M788.9,435.2c0.1-0.1,0.3-0.3,0.4-0.5c0.1-0.2,0.1-0.4,0.2-0.6C789.3,434.5,789.1,434.8,788.9,435.2z"/>
			<path class="st9" d="M776.9,445.9c0,0.1-0.1,0.2-0.1,0.3C776.5,446.7,777,445.8,776.9,445.9z"/>
			<path class="st9" d="M774.5,450.9c-0.2,0.2-0.4,0.4-0.6,0.6c0,0.2,0,0.4-0.1,0.5C774,451.7,774.3,451.3,774.5,450.9z"/>
			<path class="st9" d="M780.9,447.7c0.3-0.2,0.5-0.4,0.8-0.6c0.1-0.3,0.2-0.6,0.4-0.9C781.7,446.7,781.3,447.2,780.9,447.7z"/>
			<path class="st9" d="M784.1,442.6c0,0,0.1-0.1,0.2-0.3c0-0.1,0-0.1,0-0.2C784.3,441.9,784.1,442.6,784.1,442.6z"/>
			<path class="st9" d="M778.7,452.1c0-0.1,0.1-0.1,0.1-0.2c0,0,0,0,0,0C778.9,451.3,778.4,452.5,778.7,452.1z"/>
			<path class="st9" d="M786.2,402.4c-0.1,0-0.1-0.1-0.2-0.1C786.1,402.3,786.1,402.3,786.2,402.4
				C786.2,402.4,786.2,402.4,786.2,402.4z"/>
			<path class="st9" d="M779.3,401.3c-0.3,0.2-0.7,0.4-1,0.6c0.1,0.2,0.2,0.4,0.2,0.6C778.8,402.1,779,401.7,779.3,401.3z"/>
			<path class="st9" d="M779.9,401.1c0.4,0,0.8,0,1.2-0.1c0.2-0.2,0.3-0.4,0.5-0.7C781.1,400.6,780.5,400.8,779.9,401.1z"/>
			<path class="st9" d="M780.2,400.2c-0.2-0.1-0.3-0.2-0.5-0.3c-0.3,0-0.5,0-0.8,0C779.4,400,779.8,400.1,780.2,400.2z"/>
			<path class="st9" d="M799.1,416.3c0.3-0.2,0.7-0.5,1-0.7c0-0.3,0.1-0.5,0.1-0.8C799.9,415.3,799.5,415.8,799.1,416.3z"/>
			<path class="st9" d="M780.6,399.9c-0.3,0-0.6,0-0.9,0c0.2,0.1,0.3,0.2,0.5,0.3c-0.4-0.1-0.8-0.2-1.3-0.3c0.3,0,0.5,0,0.8,0
				c-0.3-0.2-0.6-0.4-0.9-0.6c-0.6-0.3-1.2-0.4-1.8-0.5c0.4,1,0.8,2.1,1.3,3.1c0.3-0.2,0.7-0.4,1-0.6c-0.3,0.4-0.5,0.8-0.8,1.1
				c-0.1-0.2-0.2-0.4-0.2-0.6c-0.4,0.2-0.8,0.4-1.2,0.7c0.8-0.1,1.9,0,2.6-0.4c0.6-0.2,1-0.7,1.4-1.2c-0.4,0-0.8,0.1-1.2,0.1
				c0.6-0.2,1.2-0.5,1.8-0.7c-0.2,0.2-0.3,0.4-0.5,0.7c0.6-0.1,1.2-0.1,1.9-0.4c0,0,0.1,0,0.1,0c-0.2-0.1-0.3-0.1-0.5-0.2
				C782,400.1,781.3,399.9,780.6,399.9z"/>
			<path class="st9" d="M785.5,399.1c-0.2,0-0.4,0.1-0.5,0.1c0.4-0.2,0.7-0.4,1.1-0.6C785.9,398.8,785.7,399,785.5,399.1
				c0.8-0.2,1.5-0.5,2.3-0.8c0.7-0.3,1.3-0.8,1.9-1.3c-0.2,0.1-0.4,0.1-0.5,0.2c0.4-0.2,0.7-0.4,1.1-0.6c-0.2,0.2-0.4,0.3-0.6,0.5
				c0.5-0.2,1.1-0.3,1.5-0.6c0.4-0.2,0.8-0.5,1.1-0.9c-0.2,0-0.3,0.1-0.5,0.1c0.4-0.2,0.7-0.4,1.1-0.6c-0.2,0.2-0.4,0.4-0.6,0.5
				c1.4-0.3,2.6-0.8,3.7-1.6c0.6-0.4,1.2-0.8,1.8-1.1c0.5-0.3,1-0.7,1.4-1.1c-0.2,0.1-0.4,0.1-0.6,0.2c0.4-0.2,0.7-0.4,1.1-0.6
				c-0.2,0.1-0.3,0.3-0.5,0.4c0.3-0.1,0.5-0.2,0.8-0.3c1.2-0.4,2.2-1.7,1.7-3.1c-0.3-1-0.6-1.9-0.9-2.9c-0.2-0.6-0.5-1.1-0.7-1.7
				c0,0.3-0.4-0.9-0.1-0.2c0,0,0,0.1,0.1,0.2c0,0,0,0,0,0c0-0.3-0.2-0.7-0.3-1c-0.2-0.6-0.4-1.1-0.7-1.6c-0.1-0.2-0.2-0.4-0.3-0.6
				c0,0.1,0.1,0.2,0.1,0.3c0.2,0.4-0.2-0.5-0.2-0.4c0,0,0,0.1,0.1,0.1c0,0,0-0.1-0.1-0.1c-0.2-0.4-0.3-0.8-0.5-1.3
				c-0.1-0.3-0.2-0.5-0.3-0.8c0,0,0,0,0,0c0,0.2,0,0.6-0.1,0c-0.1-0.6,0-0.3,0-0.1c0,0,0,0.1,0,0.1c0.1-1.1,0.2-2.2-0.6-3.1
				c-0.2-0.2-0.4-0.5-0.7-0.7c0,0.2,0.1,0.4,0.1,0.5c-0.2-0.4-0.4-0.7-0.6-1.1c0.2,0.2,0.4,0.4,0.5,0.5c-0.1-0.3-0.1-0.6-0.2-0.9
				c-0.2-0.6-0.5-1.1-0.8-1.7c0,0,0,0,0,0c0,0.4-0.2-0.4-0.2-0.4c0.1,0.1,0.1,0.2,0.1,0.3c0,0,0,0.1,0.1,0.1c0-0.3-0.1-0.6-0.2-0.9
				c0,0,0,0,0,0c0,0,0,0.1,0,0.1c0,0.2-0.2-0.7-0.1-0.5c0,0.1,0.1,0.3,0.1,0.4c0-0.3,0-0.6,0-0.9c0-1.2-0.4-2.5-1-3.5
				c-0.2-0.3-0.4-0.5-0.6-0.8c0,0,0,0,0,0c0,0,0,0.1,0,0.1c0,0.3-0.3-0.5-0.2-0.4c0.1,0,0.1,0.2,0.2,0.3c0-0.6-0.3-1.4-0.5-1.9
				c-0.4-0.7-0.8-1.4-1.2-2c-0.1,0.4-0.2,0.8-0.2,1.2c-0.1-0.6-0.2-1.3-0.3-1.9c0.2,0.2,0.3,0.5,0.5,0.7c0.1-0.7,0.2-1.4,0.1-1.9
				c-0.2-0.8-0.8-1.3-1.4-1.9c0,0.2,0.1,0.4,0.1,0.7c-0.2-0.4-0.4-0.7-0.6-1.1c0.2,0.1,0.3,0.3,0.5,0.4c0-0.2-0.1-0.4-0.1-0.6
				c0,0,0,0.1,0,0.1c0,0.6-0.2-0.8,0-0.3c0,0.1,0,0.1,0,0.2c0-0.2,0-0.5,0-0.7c0-0.7-0.1-1.4-0.4-2c-0.1-0.2-0.3-0.5-0.4-0.7
				c0,0.2,0,0.5,0,0.7c-0.1-0.4-0.2-0.8-0.3-1.3c0.1,0.2,0.2,0.4,0.3,0.5c0-0.3,0-0.6,0-0.9c-0.1-0.8-0.5-1.8-1-2.5
				c0,0.1,0.1,0.2,0.1,0.3c0.2,0.5-0.3-0.7-0.2-0.4c0,0,0,0.1,0,0.1c0-0.1-0.1-0.1-0.1-0.2c-0.1-0.3-0.2-0.5-0.3-0.8
				c-0.3-0.7-0.6-1.4-0.9-2c-0.2-0.3-0.4-0.9-0.7-1.2c0,0,0,0,0,0c0.2,0.3,0.1,0.5,0,0.1c0,0,0-0.1,0-0.1c0-0.1-0.1-0.1-0.2-0.2
				c0.1,0,0.1,0.1,0.2,0.2c0-0.1,0-0.2-0.1-0.3c0-0.3-0.1-0.6-0.1-0.9c-0.2-0.9-0.7-1.9-1.2-2.7c0,0.2,0,0.3,0,0.5
				c-0.1-0.4-0.2-0.8-0.3-1.3c0.1,0.2,0.2,0.5,0.4,0.7c0-0.4,0.1-0.8,0.1-1.2c0.1-1.3-1.2-2.5-2.5-2.5c-1.4,0.1-2.4,1.1-2.5,2.5
				c0,0.6-0.1,1.2-0.1,1.7c0,0.9,0.6,1.8,1,2.6c0.2,0.3,0.3,0.7,0.4,1c0-0.2,0.3,0.7,0.2,0.4c-0.1-0.1-0.1-0.3-0.2-0.4
				c0,0,0,0,0,0.1c0,0.2,0.1,0.4,0.1,0.5c0,0.3,0.1,0.6,0.1,0.9c0.2,0.7,0.7,1.3,1.1,2c0.2,0.3,0.3,0.6,0.4,0.9c0,0,0.1,0.1,0.1,0.2
				c0,0.1,0.1,0.1,0.1,0.2c0,0,0,0.1,0.1,0.1c0,0,0-0.1-0.1-0.1c0,0.1,0.1,0.2,0.1,0.3c0.1,0.2,0.2,0.4,0.3,0.7
				c0.2,0.5,0.4,0.9,0.6,1.4c0-0.2,0-0.4,0-0.6c0.1,0.4,0.2,0.8,0.3,1.3c-0.1-0.2-0.2-0.4-0.3-0.7c0,0.5,0,0.9,0.1,1.4
				c0.1,0.7,0.5,1.3,0.8,1.8c0-0.3,0-0.5,0-0.8c0.1,0.4,0.2,0.8,0.3,1.3c-0.1-0.2-0.2-0.3-0.3-0.5c0,0.8,0.1,1.6,0.3,2.5
				c0.2,0.7,0.4,1.3,1,1.9c0.1,0.1,0.1,0.1,0.2,0.2c0.1-0.5,0.2-1,0.3-1.6c0.2,0.8,0.4,1.6,0.6,2.4c-0.3-0.3-0.6-0.6-0.9-0.9
				c0,0.1,0,0.1,0,0.2c-0.2,1.4,0.4,2.2,1.1,3.2c0.1,0.2,0.2,0.4,0.4,0.6c0.1,0.1,0.2,0.3,0.3,0.4c0,0,0-0.1,0-0.1
				c0,0.1,0,0.2,0.1,0.2c0,0,0,0,0,0.1c0.2,0.3,0.1,0.2,0-0.1c0,0,0-0.1-0.1-0.1c0,0.6,0.3,1.6,0.6,2c0.2,0.3,0.4,0.6,0.6,0.9
				c0,0,0,0,0,0c-0.1-0.2-0.1-0.4,0-0.2c0,0.1,0.1,0.2,0.1,0.3c0,0,0,0.1,0,0.1c0,0,0,0,0.1,0.1c0,0,0,0-0.1,0
				c0.1,0.3,0.2,0.5,0.3,0.8c0-0.1,0-0.2,0-0.3c0-0.5,0.2,0.7,0.1,0.4c0,0,0-0.1,0-0.1c0,0.1,0,0.2,0,0.4c0,0.8,0.1,1.6,0.3,2.4
				c0.2,0.8,0.5,1.5,0.9,2.2c0,0,0,0.1,0,0.1c0-0.2,0,0,0.1,0.2c0,0.1,0.1,0.1,0.1,0.2c0-0.1-0.1-0.1-0.1-0.2c0-0.1-0.1-0.1-0.1-0.2
				c0,0,0,0.1,0,0.1c0.1,0.4,0.1,0.8,0.2,1.2c0.2,0.6,0.6,1.1,1,1.6c0-0.3,0.1-0.6,0.1-0.9c0.2,0.6,0.5,1.2,0.7,1.8
				c-0.3-0.3-0.5-0.5-0.8-0.8c0,0.3,0,0.5,0,0.8c0,0.7,0.4,1.4,0.6,2.1c0.4,1.1,0.8,2.2,1.4,3.2c0-0.1,0-0.1,0-0.2
				c-0.1-0.3,0.4,0.8,0.2,0.4c0-0.1-0.1-0.2-0.1-0.2c0,0.1,0.1,0.2,0.1,0.3c0.1,0.3,0.2,0.6,0.3,0.9c0.2,0.6,0.4,1.1,0.7,1.7
				c0,0,0-0.1,0-0.1c-0.1-0.4,0.4,0.8,0.2,0.4c-0.1-0.1-0.1-0.2-0.2-0.3c0,0.1,0.1,0.3,0.1,0.4c0,0.1,0.1,0.3,0.1,0.4
				c0.3-0.2,0.6-0.4,1-0.6c0.5-0.2,0.9-0.3,1.4-0.5c-0.6,1-1.2,2-1.7,3.1c-0.2-0.5-0.3-1-0.5-1.5c-0.1-0.2-0.1-0.4-0.2-0.5
				c-0.4,0.3-0.7,0.6-1,0.9c0,0,0,0,0,0c0.5-0.2-0.7,0.6-0.2,0.1c0,0,0.1-0.1,0.1-0.1c-0.3,0.1-0.5,0.3-0.8,0.5
				c-0.4,0.2-0.7,0.5-1,0.7c-0.4,0.3-0.7,0.5-1.1,0.7c-0.1,0.1-0.3,0.1-0.4,0.2c0,0,0,0,0,0c0.3,0-0.7,0.4-0.4,0.2
				c0.1-0.1,0.3-0.1,0.4-0.2c-0.1,0-0.2,0-0.3,0.1c-0.9,0.2-1.5,0.3-2.3,0.9c-0.2,0.2-0.4,0.4-0.7,0.5c0.2-0.1,0.4-0.1,0.5-0.2
				c-0.4,0.2-0.7,0.4-1.1,0.6c0.2-0.2,0.4-0.3,0.6-0.5c-0.7,0.3-1.5,0.5-2.1,1c-0.3,0.2-0.5,0.4-0.8,0.6c0.3-0.1-0.7,0.6-0.3,0.2
				c0.1-0.1,0.2-0.2,0.3-0.2c0,0,0,0,0,0c-0.2,0.1-0.4,0.2-0.6,0.3c-0.1,0-0.2,0.1-0.3,0.1c0,0,0,0,0,0c0.5-0.1-0.7,0.4-0.3,0.1
				c0.1,0,0.2-0.1,0.3-0.1c-0.4,0.1-0.9,0.2-1.3,0.3c-0.8,0.2-1.4,0.8-1.9,1.3c0.2-0.1,0.4-0.1,0.6-0.2c-0.4,0.2-0.7,0.4-1.1,0.6
				c0.1-0.1,0.1-0.1,0.2-0.2c-0.2,0-0.7,0.2-0.4,0c0,0,0,0,0,0c-0.2,0-0.5,0-0.7,0c-0.9,0-1.7,0.2-2.4,0.9c-0.2,0.2-0.3,0.4-0.5,0.5
				c0.4,0,0.8-0.1,1.3-0.1c-0.6,0.2-1.2,0.5-1.8,0.7c0.2-0.2,0.3-0.4,0.5-0.6c-0.2,0-0.5,0.1-0.7,0.1c-1.3,0.2-1.9,1.3-2.6,2.3
				c-0.8,1.2,0,3.4,1.5,3.7c0.3,0,0.6,0.1,0.9,0.2c-0.1,0-0.1-0.1-0.2-0.1c-0.4-0.3,0.7,0.1,0.4,0.1c-0.1,0-0.1,0-0.2,0
				c0.1,0.1,0.3,0.2,0.4,0.3c0.2,0.2,0.5,0.3,0.7,0.5c0.6,0.4,1.3,0.3,2,0.4c0.2,0,0.3,0,0.5,0c0,0,0,0,0,0c0,0-0.1,0-0.1-0.1
				c0,0,0.1,0,0.1,0.1c0,0,0,0,0,0c0,0,0.1,0,0.1,0c0.5,0,0.2,0.1-0.1,0c0,0,0,0,0,0c0.3,0.1,0.6,0.2,0.8,0.3c0,0,0,0,0.1,0
				c0,0,0,0,0,0c0.1,0,0.3,0.1,0.4,0.1c-0.1,0-0.2,0-0.3-0.1c0.3,0.2,0.7,0.5,1,0.7c0.5,0.3,1,0.6,1.5,0.9c0.5,0.2,1,0.4,1.5,0.5
				c0.1,0,0.2,0.1,0.3,0.1c0,0,0,0,0,0c-0.4-0.3,0.8,0.2,0.3,0.1c-0.1,0-0.2-0.1-0.3-0.1c1,1,2.5,1.5,3.8,1.8
				c0.2,0.1,0.5,0.1,0.7,0.2c0.1,0,0.2,0.1,0.3,0.1c-0.1,0-0.2-0.1-0.5-0.2c0.4,0.2,0.8,0.4,1.2,0.6c0.6,0.3,1.2,0.5,1.9,0.7
				c-0.2-0.2-0.4-0.3-0.5-0.5c0.4,0.2,0.7,0.4,1.1,0.6c-0.2-0.1-0.4-0.1-0.6-0.2c0.6,0.5,1.2,1,2,1.4c0.4,0.2,0.8,0.3,1.3,0.5
				c0.1-0.1,0.3-0.3,0.5-0.4c0.1-0.1,0.2-0.1,0.3-0.2c0-0.1,0-0.2,0-0.3c0,0.1,0.1,0.2,0.1,0.3c0.3-0.2,0.6-0.5,1-0.7
				c-0.2,0.4-0.5,0.8-0.7,1.3c0,0.1,0.1,0.2,0.1,0.4c0.2,0.1,0.3,0.2,0.5,0.3c-0.1,0-0.3-0.1-0.4-0.1c0.1,0.1,0.1,0.3,0.2,0.4
				c-0.2-0.2-0.3-0.3-0.5-0.5c0,0-0.1,0-0.1,0c-0.1,0.2-0.2,0.3-0.3,0.5c0-0.2,0-0.4,0.1-0.6c-0.2-0.1-0.4-0.1-0.6-0.2
				c-0.6,0.6-0.8,1.2-0.9,2.1c0,0.2-0.2,0.7-0.1,0.6c0.1-0.3,0.4-0.7,0.1-0.2c-0.1,0.1-0.1,0.2-0.1,0.2c0,0.1-0.1,0.1-0.1,0.1
				c-0.1,0.2-0.3,0.5-0.4,0.7c0,0,0,0,0,0c0-0.2,0.5-0.7,0.2-0.3c-0.1,0.1-0.2,0.2-0.2,0.3c0,0,0,0,0,0c0,0,0,0,0,0
				c0,0-0.1,0.1-0.1,0.1c-0.8,1-1.8,1.9-2.3,3.1c-0.3,0.7-0.5,1.4-0.8,2.1c0.1-0.1,0.2-0.2,0.3-0.3c-0.2,0.4-0.4,0.7-0.6,1.1
				c0.1-0.3,0.2-0.6,0.3-0.8c-0.3,0.2-0.6,0.5-0.9,0.8c-0.5,0.5-0.8,1.1-1.1,1.7c-0.5,0.8-0.8,1.7-1.2,2.5c-0.1,0.1-0.1,0.2-0.2,0.4
				c0.1-0.1,0.1-0.1,0.2-0.2c-0.1,0.1-0.2,0.2-0.3,0.3c-0.1,0.2-0.1,0.2-0.1,0.1c0,0.1-0.1,0.1-0.1,0.2c-0.4,0.5-0.8,0.9-1.2,1.4
				c-0.5,0.8-0.9,1.3-1,2.3c0,0.2,0,0.4,0,0.6c0.2-0.2,0.4-0.4,0.6-0.7c-0.2,0.6-0.5,1.2-0.7,1.8c0-0.4,0.1-0.7,0.1-1.1
				c-0.3,0.3-0.6,0.7-0.8,1c-0.3,0.5-0.4,1-0.6,1.6c0.2-0.2,0.3-0.4,0.5-0.6c-0.2,0.4-0.4,0.7-0.6,1.1c0.1-0.2,0.1-0.4,0.2-0.5
				c-0.6,0.6-1.1,1.3-1.6,2c0.1-0.1-0.6,0.7-0.2,0.2c0.1-0.1,0.1-0.1,0.2-0.2c0,0-0.1,0.1-0.1,0.1c-0.2,0.3-0.4,0.5-0.6,0.8
				c-0.4,0.5-0.7,1-1,1.5c-0.5,0.9-1.3,1.8-1.5,2.8c-0.2,0.7-0.4,1.4-0.6,2.1c0.3-0.2,0.6-0.5,0.9-0.7c-0.4,0.5-0.8,1-1.1,1.5
				c0.1-0.3,0.2-0.5,0.2-0.8c-0.1,0.1-0.2,0.1-0.2,0.2c-0.4,0.3-0.8,0.6-1.1,1.1c-0.2,0.3-0.3,0.7-0.4,1c-0.1,0.2-0.2,0.4-0.2,0.6
				c0.1,0-0.3,0.8-0.1,0.3c0-0.1,0.1-0.2,0.1-0.3c0,0,0,0,0,0c-0.3,0.3-0.5,0.8-0.8,1.2c-0.4,0.7-0.9,1.4-1.4,2
				c-0.3,0.5-0.6,0.9-0.7,1.5c-0.1,0.3-0.1,0.6-0.1,0.9c0.2-0.2,0.4-0.4,0.6-0.6c-0.2,0.4-0.4,0.7-0.6,1.1c0-0.2,0-0.4,0.1-0.5
				c-0.2,0.2-0.4,0.4-0.6,0.6c-1,0.9-0.9,2.6,0,3.5c1,1,2.6,0.9,3.5,0c0.8-0.8,1.7-1.5,1.9-2.8c0-0.3,0.1-0.6,0.1-0.9
				c0,0.1-0.1,0.1-0.1,0.2c-0.3,0.4,0.2-0.8,0.1-0.2c0,0,0,0,0,0c0.2-0.3,0.4-0.7,0.7-1c0.4-0.7,0.9-1.3,1.3-2
				c0.4-0.6,0.6-1.2,0.9-1.8c-0.3,0.2-0.5,0.4-0.8,0.6c0.4-0.5,0.8-1,1.1-1.5c-0.1,0.3-0.3,0.6-0.4,0.9c0.2-0.1,0.3-0.3,0.5-0.4
				c0.6-0.5,1-0.9,1.2-1.6c0.1-0.3,0.2-0.6,0.3-0.9c0.1-0.4,0.3-0.8,0.4-1.3c0-0.2,0.1-0.4,0.2-0.7c-0.1,0.1-0.1,0.3-0.2,0.3
				c0,0,0.2-0.7,0.2-0.4c0,0.1,0,0.1,0,0.2c0-0.1,0.1-0.1,0.1-0.1c0.3-0.4,0.5-0.8,0.7-1.2c0.2-0.3,0.3-0.6,0.5-0.8
				c0-0.1,0.1-0.2,0.1-0.2c0,0.1-0.1,0.1-0.1,0.2c-0.4,0.5,0.2-0.5,0.1-0.2c0.4-0.5,0.7-0.9,1.1-1.4c0.2-0.2,0.3-0.4,0.5-0.7
				c0,0,0-0.1,0.1-0.1c0,0,0,0,0,0c0,0,0,0,0,0c0.1-0.1,0.1-0.2,0.2-0.3c0.3-0.5,0,0.1-0.2,0.3c0,0,0,0,0,0c0.5-0.3,1.2-1.2,1.5-1.7
				c0.3-0.4,0.4-1,0.6-1.5c-0.2,0.2-0.3,0.3-0.4,0.5c0.2-0.4,0.4-0.7,0.6-1.1c-0.1,0.2-0.1,0.4-0.2,0.6c0.5-0.5,1.1-1.2,1.3-1.8
				c0.1-0.5,0.2-1,0.2-1.6c-0.1,0.1-0.2,0.3-0.3,0.4c0.1-0.4,0.2-0.8,0.3-1.3c0,0.3,0,0.6-0.1,0.8c0.1-0.1,0.1-0.2,0.2-0.3
				c0.1-0.1,0.1-0.1,0.2-0.2c0,0-0.1,0.1-0.1,0.1c-0.3,0.2,0.5-0.7,0.2-0.3c-0.1,0.1-0.1,0.2-0.2,0.2c0.5-0.5,1-1,1.3-1.6
				c0.5-0.9,0.8-1.9,1.3-2.9c0.2-0.3,0.3-0.6,0.5-0.9c0,0,0-0.1,0-0.1c0,0-0.1,0-0.1,0.1c-0.2,0.1,0.5-0.8,0.3-0.3
				c0,0.1-0.1,0.2-0.2,0.3c0.3-0.2,0.5-0.5,0.7-0.6c0.3-0.3,0.6-0.5,0.8-0.8c0.5-0.9,0.8-2,1.2-3c-0.1,0.2-0.3,0.3-0.4,0.5
				c0.2-0.4,0.4-0.7,0.6-1.1c-0.1,0.2-0.1,0.4-0.2,0.6c0.7-0.8,1.5-1.6,2-2.5c0.3-0.6,0.8-1.4,0.9-2c0.1-0.3,0.1-0.6,0.2-0.9
				c-0.3,0.2-0.7,0.5-1,0.7c0.4-0.5,0.8-1,1.1-1.5c0,0.2-0.1,0.5-0.1,0.8c0.1,0,0.1-0.1,0.2-0.1c0.4-0.3,0.8-0.6,1.1-1
				c0.3-0.5,0.3-1.1,0.4-1.7c0.1-0.6,0.2-1.3,0-2c-0.2-0.7-0.9-1.5-1.5-2c-0.6-0.6-1.3-0.7-2.1-0.9c-0.1,0-0.3-0.1-0.5-0.2
				c0.3,0.1,0.6,0.3,0.3,0.2c-0.1-0.1-0.3-0.1-0.4-0.2c0,0,0,0,0,0c0,0,0,0,0,0c0,0-0.1,0-0.1-0.1c-0.2-0.1-0.5-0.3-0.7-0.3
				c0,0,0,0,0,0c0.2,0.1,0.5,0.5,0.1,0.1c0,0,0,0-0.1-0.1c0,0-0.1,0-0.1,0c0,0,0,0,0,0c-0.6-0.5-1.2-1.1-2-1.4
				c-0.5-0.2-0.9-0.3-1.4-0.4c0.1,0,0.1,0.1,0.2,0.1c0.7,0.3-0.7-0.2-0.2-0.1c0,0,0,0,0,0c-0.3-0.1-0.5-0.2-0.8-0.4
				c-0.9-0.4-1.7-0.5-2.6-0.8c-0.3-0.1-0.5-0.2-0.8-0.3c0,0,0,0,0,0c0,0,0,0,0,0c0,0,0,0,0,0c-0.1,0-0.3-0.1-0.4-0.1
				c-0.4-0.1,0.3,0,0.4,0.2c0,0,0,0,0,0c-0.2-0.3-0.9-0.7-1.2-0.9c-0.5-0.3-1.1-0.4-1.7-0.6c0,0-0.1,0-0.1,0c0,0,0.1,0.1,0.1,0.1
				c0,0-0.1-0.1-0.1-0.1c-0.1,0-0.2-0.1-0.3-0.1c-0.3-0.1-0.1-0.1,0.1,0c-0.2-0.1-0.4-0.2-0.5-0.2c-0.8-0.5-1.6-1.1-2.4-1.4
				c0,0-0.1,0-0.1,0c-0.6,0.2-1.2,0.3-1.9,0.4c-0.4,0.5-0.8,0.9-1.4,1.2c-0.8,0.3-1.8,0.3-2.6,0.4c0.4-0.2,0.8-0.4,1.2-0.7
				c-0.4-1-0.8-2.1-1.3-3.1c0.6,0.1,1.3,0.2,1.8,0.5c0.3,0.2,0.6,0.4,0.9,0.6c0.3,0,0.6,0,0.9,0c0.7,0,1.4,0.3,2,0.5
				c0.2,0.1,0.3,0.1,0.5,0.2c0.7-0.2,1.3-0.5,1.8-1C785.1,399.5,785.3,399.3,785.5,399.1z"/>
			<path class="st9" d="M779.8,442.4c-0.3,0.2-0.6,0.5-0.9,0.7c-0.1,0.3-0.1,0.5-0.2,0.8C779,443.4,779.4,442.9,779.8,442.4z"/>
			<path class="st9" d="M796.8,407.3C796.8,407.3,796.8,407.3,796.8,407.3C796.8,407.3,796.8,407.3,796.8,407.3
				C796.8,407.3,796.8,407.3,796.8,407.3z"/>
			<path class="st9" d="M797.7,407.7C797.7,407.7,797.7,407.7,797.7,407.7C797.6,407.7,797.6,407.7,797.7,407.7
				C797.7,407.7,797.7,407.7,797.7,407.7z"/>
			<path class="st9" d="M793.6,405.5c-0.1,0-0.1-0.1-0.2-0.1c0,0,0,0,0,0C792.9,405.3,794.3,405.8,793.6,405.5z"/>
			<path class="st9" d="M789.2,403.9C789.2,403.9,789.2,403.9,789.2,403.9C789.2,403.9,789.2,403.9,789.2,403.9
				C789.2,403.9,789.2,403.9,789.2,403.9z"/>
			<path class="st9" d="M796.9,411.4c0,0.1,0,0.2,0,0.3c0,0,0.1-0.1,0.1-0.1C797,411.6,797,411.5,796.9,411.4z"/>
			<path class="st9" d="M796.9,412.3c0,0.1,0,0.2,0,0.3c0.1,0,0.2,0,0.2,0.1c0,0,0,0,0-0.1C797,412.5,796.9,412.4,796.9,412.3z"/>
			<path class="st9" d="M796.8,413.1c0.1-0.2,0.2-0.3,0.3-0.5c-0.1,0-0.2,0-0.2-0.1C796.8,412.8,796.8,413,796.8,413.1z"/>
			<path class="st9" d="M797.9,412.9c-0.2-0.1-0.3-0.2-0.5-0.3c0,0.1,0,0.1,0.1,0.2C797.6,412.8,797.8,412.8,797.9,412.9z"/>
			<path class="st9" d="M797.2,412.5c-0.1-0.1-0.2-0.1-0.3-0.2c0,0,0,0,0,0c0.1,0.1,0.2,0.2,0.2,0.3
				C797.1,412.5,797.1,412.5,797.2,412.5z"/>
			<path class="st9" d="M798,411c-0.3,0.2-0.6,0.5-1,0.7c0.1,0.2,0.2,0.4,0.2,0.6C797.5,411.8,797.8,411.4,798,411z"/>
			<path class="st9" d="M796.8,412.2C796.8,412.3,796.8,412.3,796.8,412.2C796.9,412.3,796.9,412.3,796.8,412.2
				C796.8,412.3,796.8,412.2,796.8,412.2z"/>
			<path class="st9" d="M797.7,413.2c-0.1-0.1-0.1-0.3-0.2-0.4c-0.1,0-0.2-0.1-0.3-0.1C797.4,412.9,797.5,413,797.7,413.2z"/>
			<path class="st9" d="M776.4,403.6c0.1,0,0.1,0.1,0.2,0.1c0.1,0,0.1,0,0.2,0C777.1,403.8,776.1,403.3,776.4,403.6z"/>
			<path class="st9" d="M781.2,405.1c0,0-0.1,0-0.1,0c0,0,0.1,0.1,0.2,0.1c0,0,0,0,0,0C781.2,405.2,781.2,405.1,781.2,405.1z"/>
			<path class="st9" d="M780.2,404.8C780.2,404.8,780.2,404.8,780.2,404.8C780.2,404.8,780.2,404.8,780.2,404.8
				C780.2,404.8,780.2,404.8,780.2,404.8z"/>
			<path class="st9" d="M792.4,410c0.2,0.2,0.4,0.3,0.5,0.5c0.2,0.1,0.4,0.1,0.6,0.2C793.1,410.5,792.8,410.3,792.4,410z"/>
			<path class="st9" d="M782.7,435.7c-0.1,0.1-0.1,0.1-0.2,0.2C782.2,436.5,782.8,435.6,782.7,435.7z"/>
			<path class="st9" d="M785.5,407.3C785.5,407.4,785.5,407.4,785.5,407.3c0.1,0.1,0.2,0.1,0.3,0.1
				C786.3,407.6,785.1,407,785.5,407.3z"/>
			<path class="st9" d="M794.8,415.9C794.8,415.9,794.8,415.9,794.8,415.9C794.8,415.9,794.8,416,794.8,415.9
				C794.8,416,794.8,415.9,794.8,415.9z"/>
			<path class="st9" d="M797.1,412.6c0,0,0.1,0,0.1,0C797.2,412.7,797.1,412.6,797.1,412.6C797.1,412.6,797.1,412.6,797.1,412.6z"/>
			<path class="st9" d="M792,420.9c-0.1,0.1-0.2,0.2-0.3,0.3c-0.1,0.3-0.2,0.6-0.3,0.8C791.5,421.7,791.8,421.3,792,420.9z"/>
			<path class="st9" d="M786.4,430.5c-0.2,0.2-0.4,0.4-0.6,0.7c0,0.4-0.1,0.7-0.1,1.1C785.9,431.6,786.2,431.1,786.4,430.5z"/>
			<path class="st9" d="M784.8,433.2c-0.2,0.2-0.3,0.4-0.5,0.6c-0.1,0.2-0.1,0.4-0.2,0.5C784.4,433.9,784.6,433.6,784.8,433.2z"/>
			<path class="st9" d="M788.3,426.5C788.3,426.5,788.3,426.5,788.3,426.5c-0.1,0.1-0.1,0.1-0.1,0.2
				C788.2,426.6,788.2,426.6,788.3,426.5C788.3,426.5,788.3,426.5,788.3,426.5z"/>
			<path class="st9" d="M797.1,412.6c0,0,0.1,0.1,0.1,0.1c0.1,0,0.2,0.1,0.3,0.1c0-0.1,0-0.1-0.1-0.2c-0.1-0.1-0.2-0.1-0.3-0.2
				C797.1,412.5,797.1,412.5,797.1,412.6z"/>
			<path class="st9" d="M797.4,412.6c0-0.1-0.1-0.2-0.1-0.4c0,0.1-0.1,0.1-0.1,0.2C797.3,412.5,797.3,412.6,797.4,412.6z"/>
			<path class="st9" d="M795.2,415.1c0,0,0.1-0.1,0.1-0.2C795.6,414.3,795.3,414.8,795.2,415.1z"/>
			<path class="st9" d="M796.9,412.3C796.8,412.3,796.8,412.3,796.9,412.3C796.8,412.2,796.8,412.3,796.9,412.3c0-0.2,0-0.4,0.1-0.5
				c-0.1,0.1-0.2,0.1-0.3,0.2c-0.2,0.1-0.3,0.3-0.5,0.4c0.2,0.1,0.4,0.1,0.6,0.2C796.8,412.5,796.8,412.4,796.9,412.3z"/>
			<path class="st9" d="M797.2,412.5c0-0.1,0.1-0.1,0.1-0.2c-0.1-0.2-0.2-0.4-0.2-0.6c0,0-0.1,0.1-0.1,0.1c0,0.2,0,0.3,0,0.5
				C797,412.3,797.1,412.4,797.2,412.5z"/>
		</g>
		<g>
			<path class="st9" d="M649,391.7c-0.2-0.2-0.3-0.5-0.5-0.7c-0.1-0.1-0.3-0.1-0.4-0.2C648.4,391.1,648.7,391.4,649,391.7z"/>
			<path class="st9" d="M643.5,386.5C643.5,386.5,643.5,386.4,643.5,386.5c0-0.1,0-0.2,0-0.2C643.6,385.5,643.4,386.9,643.5,386.5z"
				/>
			<path class="st9" d="M644.1,388.3c-0.1-0.1-0.3-0.1-0.4-0.2C643.4,388,644.2,388.3,644.1,388.3z"/>
			<path class="st9" d="M640.5,386.7c0.5,1.2,1,2.4,1.5,3.7c0.3-0.4,0.6-0.8,0.9-1.2c0.3-0.4,0.4-0.8,0.5-1.3
				c-0.2-0.1-0.3-0.1-0.5-0.2C642.1,387.4,641.3,387.1,640.5,386.7z"/>
			<path class="st9" d="M654.2,394.1c-0.1-0.1-0.2-0.2-0.3-0.4c-0.3-0.1-0.5-0.2-0.8-0.3C653.4,393.6,653.8,393.8,654.2,394.1z"/>
			<path class="st9" d="M659.8,404.8C659.8,404.8,659.8,404.8,659.8,404.8c0.2-0.1,0.3-0.1,0.4-0.2
				C660.3,404.5,659.5,404.7,659.8,404.8z"/>
			<path class="st9" d="M657.9,395.5c-0.1,0-0.2-0.1-0.3-0.1c-0.1,0-0.1,0-0.2-0.1C657.2,395.3,658.2,395.6,657.9,395.5z"/>
			<path class="st9" d="M662.9,398.8c-0.2-0.3-0.4-0.6-0.6-0.9c-0.3-0.1-0.6-0.2-0.9-0.3C661.9,398,662.4,398.4,662.9,398.8z"/>
			<path class="st9" d="M650.9,365.6C650.9,365.6,650.9,365.5,650.9,365.6c0-0.1,0-0.2,0-0.2C650.9,365.5,650.9,365.5,650.9,365.6z"
				/>
			<path class="st9" d="M650.8,365.4c0-0.1,0.1-0.1,0.1-0.2c0,0,0,0,0-0.1C650.9,365.2,650.8,365.3,650.8,365.4z"/>
			<path class="st9" d="M650.9,365.1C650.9,365.1,650.9,365.1,650.9,365.1C650.9,365.1,650.9,365.2,650.9,365.1
				C650.9,365.2,650.9,365.2,650.9,365.1C650.9,365.2,650.9,365.1,650.9,365.1z"/>
			<path class="st9" d="M649.6,369.3C649.6,369.3,649.6,369.3,649.6,369.3C649.6,369.3,649.6,369.3,649.6,369.3
				C649.6,369.3,649.6,369.3,649.6,369.3z"/>
			<path class="st9" d="M646.2,379.1c0-0.1,0-0.3,0.1-0.4C646.2,378.3,646.1,379.3,646.2,379.1z"/>
			<path class="st9" d="M645.1,381.5c-0.2,0.6-0.5,1.2-0.7,1.8c0.2-0.2,0.5-0.5,0.7-0.8C645.1,382.1,645.1,381.8,645.1,381.5z"/>
			<path class="st9" d="M646.2,378.2c0.1,0,0.1-0.2,0.2-0.3c0,0,0,0,0,0C646.4,377.3,646.3,378,646.2,378.2z"/>
			<path class="st9" d="M643.2,386.2c0.2-0.2,0.3-0.4,0.5-0.6c0-0.2,0.1-0.3,0.1-0.5C643.7,385.5,643.5,385.8,643.2,386.2z"/>
			<path class="st9" d="M643.4,412.3C643.4,412.3,643.4,412.3,643.4,412.3c0.2-0.1,0.3-0.1,0.5-0.2c0.2-0.1,0.4-0.3,0.6-0.4
				C644.1,411.9,643.7,412.1,643.4,412.3z"/>
			<path class="st9" d="M653.9,432.3c0-0.3,0-0.7,0-1c-0.2-0.3-0.5-0.5-0.7-0.8C653.4,431.1,653.6,431.7,653.9,432.3z"/>
			<path class="st9" d="M651.6,428.1c0-0.3-0.1-0.7-0.1-1.1c-0.2-0.2-0.4-0.5-0.6-0.7C651.1,427,651.3,427.6,651.6,428.1z"/>
			<path class="st9" d="M649.6,424.2c-0.1-0.2-0.2-0.3-0.3-0.5c-0.2-0.1-0.4-0.3-0.6-0.4C649,423.6,649.3,423.9,649.6,424.2z"/>
			<path class="st9" d="M644.5,414.9c0-0.1,0-0.1,0-0.2c0-0.1-0.1-0.1-0.1-0.1C644.5,414.6,644.7,415.3,644.5,414.9z"/>
			<path class="st9" d="M660.2,442.5c-0.1-0.2-0.2-0.5-0.3-0.7c-0.1-0.1-0.2-0.3-0.3-0.4C659.8,441.8,660,442.1,660.2,442.5z"/>
			<path class="st9" d="M645.9,417.8c0,0,0-0.1,0-0.1c0-0.1-0.1-0.2-0.2-0.3C645.7,417.4,645.9,418.2,645.9,417.8z"/>
			<path class="st9" d="M665.2,450.6c-0.1-0.3-0.2-0.6-0.3-1c-0.3-0.2-0.6-0.4-0.8-0.5C664.4,449.6,664.8,450.1,665.2,450.6z"/>
			<path class="st9" d="M661.6,444c-0.2-0.1,0.4,0.5,0.3,0.4c0-0.1-0.1-0.2-0.2-0.3C661.7,444,661.6,444,661.6,444z"/>
			<path class="st9" d="M649.3,391.3C649.5,391.4,649.7,391.4,649.3,391.3L649.3,391.3z"/>
			<path class="st9" d="M663.9,447.6c0-0.1-0.1-0.2-0.1-0.3c0,0,0-0.1,0-0.1c0,0,0-0.1-0.1-0.1C663.5,446.9,663.9,447.9,663.9,447.6
				z"/>
			<path class="st9" d="M642.8,411.8c-0.1,0.2-0.2,0.4-0.3,0.6c0.1,0.2,0.2,0.4,0.3,0.6c0,0,0.1,0,0.1-0.1
				C642.8,412.6,642.8,412.2,642.8,411.8C642.8,411.9,642.8,411.8,642.8,411.8z"/>
			<path class="st9" d="M643.3,412.4C643.4,412.4,643.4,412.4,643.3,412.4c-0.1-0.1-0.2-0.3-0.3-0.4c-0.1,0-0.1-0.1-0.2-0.1
				c0,0.4,0,0.7,0,1.1c0.2-0.2,0.4-0.3,0.6-0.5C643.5,412.4,643.4,412.4,643.3,412.4C643.4,412.4,643.4,412.4,643.3,412.4z"/>
			<path class="st9" d="M643.5,412.5c0.1-0.1,0.3-0.2,0.4-0.3c-0.2,0.1-0.3,0.1-0.5,0.2C643.4,412.4,643.5,412.4,643.5,412.5z"/>
			<path class="st9" d="M643.4,412.4C643.4,412.3,643.4,412.3,643.4,412.4C643.4,412.4,643.4,412.4,643.4,412.4
				C643.4,412.4,643.4,412.4,643.4,412.4z"/>
			<path class="st9" d="M654.7,406.9c0.2-0.2-0.5,0.3-0.4,0.3c0,0,0,0,0,0c0,0,0,0,0.1,0C654.5,407.1,654.6,407,654.7,406.9z"/>
			<path class="st9" d="M647.6,410c0.2-0.1,0.5-0.2,0.7-0.3c0.1-0.1,0.3-0.2,0.4-0.4C648.4,409.6,648,409.8,647.6,410z"/>
			<path class="st9" d="M641.6,413.9c0.4-0.3,0.8-0.6,1.2-0.9c-0.1-0.2-0.2-0.4-0.3-0.6C642.2,412.9,641.9,413.4,641.6,413.9z"/>
			<path class="st9" d="M642.9,413.2c0-0.1,0-0.1,0-0.2c0,0-0.1,0-0.1,0.1C642.8,413.1,642.8,413.1,642.9,413.2z"/>
			<path class="st9" d="M655.2,406.8c0.1,0,0.2,0,0.2-0.1c0,0,0.1,0,0.1-0.1C656,406.4,655,406.8,655.2,406.8z"/>
			<path class="st9" d="M641.6,411c0.3,0.5,0.5,0.9,0.8,1.4c0.1-0.2,0.2-0.4,0.3-0.6C642.4,411.6,642,411.3,641.6,411z"/>
			<path class="st9" d="M642.8,411.8C642.8,411.8,642.8,411.8,642.8,411.8C642.8,411.8,642.8,411.9,642.8,411.8
				C642.8,411.8,642.8,411.8,642.8,411.8z"/>
			<path class="st9" d="M650.9,365.1C650.9,365.1,650.9,365.2,650.9,365.1c0.1-0.1,0.2-0.2,0.3-0.3c0.1-0.2,0.2-0.4,0.2-0.6
				C651.2,364.5,651.1,364.8,650.9,365.1z"/>
			<path class="st9" d="M651.1,403.8c-0.2,0.1-0.4,0.1-0.5,0.2c-0.2,0.1-0.4,0.3-0.6,0.4C650.3,404.2,650.7,404,651.1,403.8z"/>
			<path class="st9" d="M640.8,417.9c0,0,0,0.1,0,0.1C641.2,418.6,640.7,417.3,640.8,417.9z"/>
			<path class="st9" d="M657.8,400.2c-0.1,0.1-0.3,0.2-0.4,0.2c0.3,0.1,0.5,0.2,0.8,0.3C658.1,400.5,658,400.4,657.8,400.2z"/>
			<path class="st9" d="M640.1,408.9C640.1,408.9,640.1,408.9,640.1,408.9C640.1,408.9,640.1,408.9,640.1,408.9
				C640.1,408.9,640.1,408.9,640.1,408.9z"/>
			<path class="st9" d="M639.4,414.8c0.1,0.3,0.2,0.6,0.2,0.8c0.3,0.2,0.6,0.4,0.9,0.7C640.1,415.8,639.7,415.3,639.4,414.8z"/>
			<path class="st9" d="M645.1,406.4c-0.2,0.1-0.5,0.2-0.7,0.3c-0.1,0.1-0.2,0.2-0.4,0.4C644.3,406.8,644.7,406.6,645.1,406.4z"/>
			<path class="st9" d="M661.5,399.5C661.5,399.5,661.5,399.5,661.5,399.5C661.6,399.5,661.6,399.4,661.5,399.5z"/>
			<path class="st9" d="M661.5,399.5C661.4,399.5,661.4,399.5,661.5,399.5c-0.1,0.1-0.3,0.1-0.5,0.2
				C661.1,399.6,661.3,399.6,661.5,399.5z"/>
			<path class="st9" d="M659.1,401c-0.4-0.3-0.7-0.6-1.1-0.9c0,0-0.1,0-0.1,0.1c0.1,0.2,0.2,0.3,0.4,0.5
				C658.5,400.8,658.8,400.9,659.1,401z"/>
			<path class="st9" d="M658.2,400.7c0.1,0.1,0.2,0.3,0.3,0.4c0.6,0.8,1.2,1.2,2.2,1.5c0.9,0.3,1.7,0.6,2.6,0.9
				c-0.2-1.5-0.4-3-0.6-4.6c-0.4,0.2-0.8,0.3-1.1,0.5c0.1,0,0,0-0.1,0c-0.2,0.1-0.3,0.1-0.5,0.2c0.2-0.1,0.3-0.2,0.4-0.2
				c0,0-0.1,0-0.1,0c-0.2,0-0.4,0.1-0.6,0.1c-0.2,0-0.5,0.1-0.7,0.1c-0.5,0.1-1.1,0.1-1.6,0.2c-0.1,0-0.2,0.1-0.4,0.1
				c0.4,0.3,0.7,0.6,1.1,0.9C658.8,400.9,658.5,400.8,658.2,400.7z"/>
			<path class="st9" d="M656.7,445.7c0,0.1,0.1,0.2,0.3,0.3c0,0,0,0,0,0C656.9,445.9,656.8,445.8,656.7,445.7z"/>
			<path class="st9" d="M661.8,452.9c0.1,0.3,0.2,0.6,0.3,0.9c0.3,0.2,0.6,0.4,0.9,0.6C662.6,453.9,662.2,453.4,661.8,452.9z"/>
			<path class="st9" d="M659.9,450.4c0,0.1,0,0.2,0.1,0.2c0,0,0.1,0.1,0.1,0.1C660.3,451.2,659.8,450.1,659.9,450.4z"/>
			<path class="st9" d="M658.5,447.5c0.1,0.2,0.2,0.5,0.2,0.7c0.1,0.1,0.3,0.3,0.4,0.4C659,448.2,658.8,447.8,658.5,447.5z"/>
			<path class="st9" d="M666,450.5c-0.3-0.3-0.7-0.6-1.1-0.8c0.1,0.3,0.2,0.6,0.3,1c-0.4-0.5-0.8-1-1.1-1.5c0.3,0.2,0.5,0.4,0.8,0.5
				c-0.2-0.6-0.4-1.2-0.8-1.8c-0.1-0.2-0.2-0.4-0.3-0.6c0,0,0,0.1,0,0.1c0,0.1,0.1,0.2,0.1,0.3c0.1,0.3-0.4-0.7-0.2-0.5
				c0,0,0,0.1,0.1,0.1c-0.2-0.6-0.3-1.2-0.6-1.7c-0.3-0.5-0.8-0.9-1.3-1.3c0,0-0.1-0.1-0.1-0.1c0.1,0.1,0.1,0.2,0.2,0.3
				c0.1,0.2-0.5-0.5-0.3-0.4c0,0,0.1,0.1,0.1,0.1c-0.1-0.1-0.2-0.3-0.3-0.4c-0.5-0.7-1-1.3-1.5-1.9c0.1,0.2,0.2,0.5,0.3,0.7
				c-0.2-0.4-0.4-0.7-0.6-1.1c0.1,0.1,0.2,0.3,0.3,0.4c-0.1-0.3-0.2-0.5-0.3-0.8c-0.2-0.7-0.3-1.5-0.6-2.2c-0.5-0.9-1.1-1.9-1.6-2.7
				c-0.3-0.4-0.7-0.8-1-1.3c-0.3-0.5-0.4-1-0.7-1.4c-0.4-0.6-1.1-1.1-1.6-1.6c-0.1-0.1-0.3-0.3-0.4-0.4c0,0.3,0,0.7,0,1
				c-0.2-0.6-0.5-1.2-0.7-1.8c0.2,0.3,0.5,0.5,0.7,0.8c0-0.2,0-0.3,0-0.5c0-1-0.4-1.7-1-2.4c-0.4-0.5-0.8-0.9-1.3-1.4
				c0,0.4,0,0.7,0.1,1.1c-0.2-0.6-0.5-1.2-0.7-1.8c0.2,0.2,0.4,0.5,0.6,0.7c-0.1-0.7-0.1-1.4-0.4-1.9c-0.4-0.6-1.1-1.1-1.7-1.5
				c0.1,0.2,0.2,0.3,0.3,0.5c-0.3-0.3-0.6-0.6-0.9-0.9c0.2,0.1,0.4,0.3,0.6,0.4c-0.8-1.5-1.8-3-2.6-4.5c-0.2-0.4-0.4-0.7-0.6-1.1
				c-0.1-0.1-0.2-0.3-0.2-0.5c0,0,0,0.1,0,0.1c0,0.4-0.2-0.4-0.2-0.4c0.1,0.1,0.1,0.2,0.2,0.3c0-0.1-0.1-0.2-0.1-0.3
				c-0.2-0.6-0.3-1.2-0.6-1.8c-0.2-0.3-0.4-0.5-0.6-0.8c0,0,0-0.1-0.1-0.1c0,0.1,0,0.1,0,0.2c0.1,0.5-0.1-0.3-0.2-0.3
				c0,0,0.1,0.1,0.1,0.1c-0.2-0.8-0.5-1.6-1-2.2c-0.2,0.2-0.4,0.3-0.6,0.5c0,0.1,0,0.1,0,0.2c0-0.1-0.1-0.1-0.1-0.1
				c-0.4,0.3-0.8,0.6-1.2,0.9c0.3-0.5,0.6-1,0.9-1.5c-0.3-0.5-0.5-0.9-0.8-1.4c0.4,0.3,0.8,0.6,1.1,0.8c0,0,0,0,0-0.1
				c0,0,0,0.1,0,0.1c0.1,0,0.1,0.1,0.2,0.1c0.1,0.1,0.3,0.2,0.4,0.3c0.4-0.2,0.7-0.4,1.1-0.6c-0.2,0.1-0.4,0.3-0.6,0.4
				c0.7-0.3,1.3-0.5,2-0.8c0.7-0.3,1.3-0.5,1.8-1c0.2-0.2,0.4-0.4,0.7-0.6c-0.2,0.1-0.5,0.2-0.7,0.3c0.4-0.2,0.7-0.4,1.1-0.6
				c-0.1,0.1-0.3,0.2-0.4,0.4c0.3-0.1,0.6-0.2,0.9-0.3c0.6-0.1,1.2-0.2,1.7-0.3c0.9-0.3,1.9-0.6,2.6-1.2c0.3-0.2,0.5-0.4,0.8-0.6
				c0,0,0,0,0,0c0,0,0.6-0.5,0.4-0.3c-0.1,0.1-0.2,0.2-0.4,0.3c0,0,0,0-0.1,0c0.1,0,0.2-0.1,0.2-0.1c0.3-0.1,0.6-0.3,0.9-0.5
				c-0.1,0-0.2,0.1-0.2,0.1c-0.2,0,0.8-0.4,0.4-0.1c0,0-0.1,0-0.1,0.1c0.1,0,0.2-0.1,0.3-0.1c0.6-0.2,1.2-0.4,1.7-0.7
				c0.7-0.3,1.4-0.6,2.1-1c0,0,0.1-0.1,0.2-0.1c0,0,0,0-0.1,0c-0.2-0.1,0.6-0.3,0.4-0.2c-0.1,0.1-0.2,0.1-0.3,0.2
				c0.3,0,0.8-0.1,1.1-0.2c0.6-0.1,1.3-0.2,2-0.3c0.8-0.2,1.6-0.7,2.3-1c0.9-0.4,1.3-1.6,1.2-2.5c-0.1-1-0.8-1.7-1.8-2.1
				c-0.8-0.3-1.5-0.6-2.3-0.8c0.2,0.3,0.4,0.6,0.6,0.9c-0.5-0.4-1-0.8-1.5-1.1c0.3,0.1,0.6,0.2,0.9,0.3c-0.1-0.1-0.2-0.2-0.2-0.3
				c-0.5-0.7-1.1-1.2-2-1.5c-0.8-0.3-1.7-0.7-2.6-0.8c0,0,0,0,0,0c0.1,0,0.1,0,0.2,0.1c0.1,0,0.2,0.1,0.3,0.1
				c0.3,0.1-0.7-0.2-0.5-0.2c-0.2-0.1-0.4-0.2-0.6-0.3c-0.3-0.1-0.6-0.3-0.9-0.5c-0.7-0.4-1.3-0.6-2-0.9c0.1,0.1,0.2,0.2,0.3,0.4
				c-0.4-0.2-0.7-0.4-1.1-0.6c0.3,0.1,0.5,0.2,0.8,0.3c-0.3-0.3-0.5-0.7-0.8-0.9c-0.7-0.7-1.7-0.7-2.6-1c-0.5-0.1-1-0.4-1.5-0.6
				c0.1,0,0.2,0.1,0.2,0.1c-0.1,0-0.2-0.1-0.3-0.1c-0.1-0.1-0.2-0.1-0.4-0.2c0.2,0.2,0.3,0.5,0.5,0.7c-0.3-0.3-0.6-0.6-0.9-0.9
				c0.1,0.1,0.3,0.1,0.4,0.2c-0.5-0.8-1.1-1.5-2-1.9c-0.7-0.3-1.3-0.5-2-0.7c-0.2-0.1-0.5-0.2-0.7-0.2c-0.1,0-0.1,0-0.1,0
				c0.1,0.1,0.3,0.1,0.4,0.2c0.1,0.1-0.7-0.2-0.4-0.2c-0.1,0-0.2-0.1-0.3-0.1c-0.1,0.4-0.2,0.9-0.5,1.3c-0.3,0.4-0.6,0.8-0.9,1.2
				c-0.5-1.2-1-2.4-1.5-3.7c0.8,0.3,1.6,0.7,2.4,1c0.2,0.1,0.3,0.1,0.5,0.2c0-0.2,0.1-0.5,0.1-0.7c0-0.3,0-0.5,0.1-0.8
				c0,0,0,0,0,0.1c-0.2,0.4,0.1-0.9,0-0.2c0,0.1,0,0.1,0,0.2c0.1-0.3,0.2-0.5,0.2-0.8c-0.2,0.2-0.4,0.4-0.5,0.6
				c0.2-0.4,0.4-0.7,0.6-1.1c0,0.2-0.1,0.3-0.1,0.5c0.4-0.5,0.9-1,1.1-1.5c0.2-0.5,0.2-1.1,0.2-1.6c-0.3,0.3-0.5,0.5-0.7,0.8
				c0.2-0.6,0.5-1.2,0.7-1.8c0,0.3,0,0.7,0,1c0.5-0.5,0.9-1,1.1-1.6c0.1-0.5,0.1-1,0.1-1.5c0-0.2,0-0.4,0-0.6c0,0,0,0,0-0.1
				c0,0.1-0.1,0.3-0.1,0.4c0,0.2,0-0.9,0.1-0.4c0.1-0.3,0.1-0.5,0.1-0.8c-0.1,0.1-0.1,0.2-0.2,0.3c0.2-0.1,0.2-0.9,0.2-0.3
				c0,0,0,0,0,0c0-0.1,0.1-0.1,0.1-0.2c0.5-0.8,0.8-1.5,1-2.3c0.2-0.7,0.3-1.3,0.4-2c0.1-0.6,0.4-1.1,0.6-1.7c-0.4,1.2,0,0,0.2-0.4
				c0.2-0.4,0.4-0.8,0.5-1.2c0.1-0.3,0.2-0.6,0.3-0.8c0,0,0,0,0,0c0,0,0,0,0,0c0-0.1,0.1-0.2,0.1-0.3c0.2-0.5,0,0.1-0.1,0.3
				c0,0,0,0,0,0c0.1-0.1,0.2-0.3,0.3-0.4c0.3-0.5,0.7-0.9,0.9-1.5c0.1-0.5,0.1-1.1,0.1-1.6c0-0.1,0-0.1,0-0.2c0,0,0,0.1,0,0.1
				c0,0.1,0,0.1,0,0c0-0.1,0-0.1,0-0.2c0-0.1,0-0.1,0-0.2c0,0.1-0.1,0.1-0.1,0.2c0-0.1,0.1-0.2,0.1-0.2c0,0,0,0,0,0c0,0,0,0,0,0
				c0.2-0.3,0.3-0.6,0.5-0.9c-0.1,0.2-0.2,0.4-0.2,0.6c0.3-0.3,0.6-0.7,0.8-1c0.5-0.6,0.6-1.6,0.7-2.5c0,0.1,0,0,0-0.6
				c0,0.2,0,0.4,0,0.6c0-0.1,0.1-0.6,0.1-0.8c0-0.3,0.1-0.5,0.1-0.8c0.1-0.6,0.2-1.1,0.4-1.7c0.1-0.3,0.2-0.6,0.3-0.9
				c0,0-0.1,0.1-0.1,0.1c0.1-0.1,0.1-0.2,0.1-0.2c0,0,0,0,0-0.1c0.1-0.2,0.1-0.3,0.1-0.2c0.3-0.5,0.6-1,0.9-1.5
				c0.7-1.2,1.2-2.5,1.7-3.8c0.4-1.2,0.6-2.3,0.7-3.5c-0.1,0.1-0.2,0.3-0.3,0.4c0.1-0.4,0.2-0.8,0.3-1.3c0,0.3,0,0.6-0.1,0.8
				c0.2-0.3,0.3-0.5,0.5-0.8c0.4-0.6,0.5-1.3,0.5-2c0-0.2,0-0.4,0-0.5c-0.1,0.3-0.1-0.2,0-0.4c0,0.1-0.1,0.1-0.1,0.2
				c0.2-0.4,0.4-0.7,0.6-1.1c-0.1,0.2-0.1,0.4-0.2,0.6c0.2-0.3,0.5-0.5,0.7-0.8c0.9-1,1-2.5,0-3.5c-0.9-0.9-2.6-1-3.5,0
				c-0.3,0.4-0.6,0.7-1,1.1c-0.5,0.6-0.8,1.2-1,1.9c-0.3,0.8-0.4,1.5-0.5,2.3c0.1-0.1,0.2-0.3,0.3-0.4c-0.1,0.4-0.2,0.8-0.3,1.3
				c0-0.3,0-0.6,0.1-0.9c-0.4,0.6-0.9,1.2-0.9,1.9c0,0.4-0.1,0.7-0.1,1.1c0,0.1,0,0.2,0,0.3c0,0,0,0,0-0.1c-0.1,0-0.1,0.9-0.1,0.3
				c0-0.1,0-0.2,0-0.3c-0.1,0.2-0.2,0.8-0.2,1c-0.1,0.2-0.1,0.4-0.2,0.6c-0.2,0.5-0.4,1.1-0.6,1.6c-0.1,0.2-0.2,0.5-0.3,0.7
				c0.1,0-0.3,0.8-0.2,0.4c0.1-0.1,0.1-0.3,0.2-0.4c0,0,0,0,0,0c-0.1,0.1-0.2,0.4-0.3,0.5c-0.3,0.5-0.6,1-0.9,1.5
				c-0.7,1.2-1,2.5-1.3,3.8c-0.3,1.1-0.4,2.3-0.5,3.4c0.2-0.3,0.4-0.5,0.6-0.8c-0.2,0.6-0.5,1.2-0.7,1.8c0-0.3,0.1-0.7,0.1-1
				c-0.1,0.1-0.2,0.2-0.3,0.4c-0.5,0.6-0.8,1.2-1,1.9c-0.3,0.8-0.4,1.5-0.4,2.3c0.1-0.1,0.2-0.3,0.3-0.4c-0.1,0.4-0.2,0.8-0.3,1.3
				c0-0.3,0-0.6,0-0.9c-0.2,0.3-0.5,0.6-0.6,0.9c-0.3,0.5-0.5,1.2-0.7,1.8c0,0,0,0,0,0c0.3-0.6-0.3,0.8-0.1,0.1c0,0,0-0.1,0-0.1
				c-0.1,0.3-0.3,0.6-0.4,0.9c-0.3,0.6-0.5,1.1-0.7,1.7c-0.3,0.8-0.4,1.7-0.6,2.6c-0.1,0.3-0.2,0.6-0.2,0.9c0,0,0,0,0,0
				c0.4-0.6-0.2,0.8,0,0.1c0,0,0,0,0-0.1c-0.4,0.5-0.8,1.1-1,1.8c-0.2,0.9-0.3,1.9-0.3,2.9c0.2-0.3,0.5-0.5,0.7-0.8
				c-0.2,0.6-0.5,1.2-0.7,1.8c0-0.3,0-0.7,0-1c-0.4,0.4-0.8,0.8-0.9,1.3c-0.2,0.5-0.2,1.2-0.2,1.8c0.2-0.3,0.5-0.6,0.7-0.9
				c-0.2,0.6-0.5,1.2-0.7,1.8c0-0.3,0-0.6,0-0.9c-0.1,0.1-0.1,0.1-0.2,0.2c-0.5,0.6-0.8,1.2-1,1.9c-0.2,0.8-0.3,1.5-0.4,2.3
				c0.1-0.1,0.2-0.2,0.3-0.4c-0.1,0.4-0.2,0.8-0.3,1.3c0-0.3,0-0.6,0.1-0.9c-0.3,0.4-0.6,0.8-0.8,1.1c-0.5,0.6-0.4,1.5-0.1,2.2
				c0.3,0.8,0.9,1.1,1.6,1.4c0.5,0.2,1.1,0.5,1.6,0.7c-1.2-0.5-0.2-0.1,0.1,0c0.3,0.1,0.5,0.2,0.8,0.3c0.8,0.4,1.7,0.6,2.6,0.9
				c-0.2-0.3-0.4-0.5-0.5-0.8c0.5,0.4,1,0.8,1.5,1.1c-0.3-0.1-0.6-0.2-1-0.4c0.2,0.2,0.3,0.4,0.5,0.7c0.6,0.9,1.4,1.1,2.3,1.5
				c1,0.4,1.9,0.8,3,1c-0.1-0.2-0.3-0.3-0.4-0.5c0.4,0.2,0.7,0.4,1.1,0.6c-0.2-0.1-0.5-0.1-0.7-0.2c0.2,0.2,0.3,0.4,0.5,0.6
				c0.4,0.5,1,0.8,1.7,1c0.2,0.1,0.5,0.2,0.7,0.3c0,0-0.1,0-0.1-0.1c-0.5-0.3,0.9,0.3,0.2,0.1c0,0-0.1,0-0.1,0
				c0.4,0.2,0.7,0.4,1.1,0.6c1.1,0.5,2.2,0.9,3.4,1.2c0.1-0.1,0.3-0.2,0.4-0.2c-0.1-0.1-0.2-0.2-0.2-0.3c0.1,0.1,0.2,0.2,0.4,0.3
				c0.1-0.1,0.2-0.1,0.4-0.1c0.5-0.1,1.1-0.1,1.6-0.2c0.2,0,0.5-0.1,0.7-0.1c0.2,0,0.4-0.1,0.6-0.1c0,0,0.1,0,0.1,0
				c0.1,0,0.1,0,0.1-0.1c0.4-0.2,0.8-0.3,1.1-0.5c0.2,1.5,0.4,3,0.6,4.6c-0.9-0.3-1.7-0.7-2.6-0.9c-0.9-0.3-1.6-0.7-2.2-1.5
				c-0.1-0.1-0.2-0.3-0.3-0.4c-0.3-0.1-0.5-0.2-0.8-0.3c-0.1,0.1-0.2,0.1-0.3,0.2c-0.2,0.1-1.2,0.6-0.5,0.3c0.7-0.3-0.4,0.2-0.5,0.2
				c-0.2,0.1-0.5,0.2-0.7,0.3c-0.7,0.3-1.4,0.5-2.1,0.8c-1,0.5-1.9,1.1-2.7,1.7c0.2-0.1,0.4-0.1,0.5-0.2c-0.4,0.2-0.7,0.4-1.1,0.6
				c0.2-0.1,0.4-0.3,0.6-0.4c-0.3,0.1-0.7,0.3-1,0.4c-0.5,0.1-1.1,0.1-1.7,0.3c-0.8,0.2-2,0.6-2.6,1.2c-0.3,0.3-0.6,0.5-0.9,0.8
				c0.2-0.1,0.5-0.2,0.7-0.3c-0.4,0.2-0.7,0.4-1.1,0.6c0.1-0.1,0.2-0.2,0.4-0.4c-0.6,0.2-1.2,0.5-1.8,0.7c-0.7,0.3-1.2,0.6-1.8,1
				c-0.2,0.2-0.5,0.4-0.7,0.5c0,0,0,0,0,0c0,0,0,0,0,0c0,0,0,0,0,0c-0.4,0.3-0.6,0.4,0,0c0,0,0,0,0,0c-0.5,0.3-1.1,0.7-1.5,1.1
				c-0.8,0.8-0.7,1.8-0.7,2.8c0,0.5,0.1,1.1,0.4,1.6c0.3,0.5,0.7,0.7,1.1,1.1c0.1,0.1,0.2,0.1,0.3,0.2c-0.1-0.3-0.2-0.5-0.2-0.8
				c0.4,0.5,0.8,1,1.1,1.5c-0.3-0.2-0.6-0.4-0.9-0.7c0.3,0.9,0.6,1.6,1.2,2.4c0,0,0,0,0,0c0,0,0-0.1,0-0.1c-0.1-0.6,0.5,0.7,0,0.1
				c0.1,0.3,0.1,0.6,0.2,0.9c0.2,0.6,0.5,1.1,0.8,1.7c0.4,0.8,0.9,1.6,1.3,2.4c0.5,0.8,1,1.6,1.5,2.4c0.5,0.9,0.7,1.6,1.6,2.2
				c0.1,0.1,0.2,0.2,0.3,0.2c-0.1-0.5-0.1-0.9-0.2-1.4c0.4,0.7,0.8,1.4,1.2,2.2c-0.4-0.2-0.7-0.5-1.1-0.7c0,0,0,0,0,0
				c0.1,1,0.4,1.7,1.1,2.4c0.4,0.4,0.8,0.8,1.2,1.2c0-0.3,0-0.7,0-1c0.2,0.6,0.5,1.2,0.7,1.8c-0.2-0.3-0.5-0.5-0.7-0.8
				c0,0.5,0,1,0.1,1.4c0.2,0.8,1.1,1.7,1.7,2.3c0.2,0.2,0.4,0.4,0.6,0.6c0,0,0.2,0,0.2,0.1c0,0.1,0,0.1,0.1,0.2
				c0.1,0.1,0.2,0.2,0.3,0.3c-0.1-0.1-0.2-0.1-0.2-0.1c0,0,0,0,0,0c0.3,0.7,0.6,1.2,1,1.8c0.4,0.5,0.7,1.1,1.1,1.7
				c0.2,0.4,0.5,1.1,0.8,1.4c0,0,0,0,0-0.1c-0.1-0.2-0.1-0.5,0,0c0,0,0,0,0,0c0,0.1,0.1,0.2,0.2,0.2c0,0-0.1-0.1-0.1-0.1
				c0,0.2,0.1,0.4,0.1,0.6c0.1,0.2,0.1,0.5,0.2,0.7c0.3,0.9,0.7,1.9,1.4,2.6c0.2,0.2,0.3,0.4,0.5,0.6c-0.1-0.1,0-0.2,0.1,0
				c0,0.1,0.1,0.2,0.2,0.2c0,0,0,0,0,0c0,0,0.1,0.1,0.1,0.1c0,0-0.1-0.1-0.1-0.1c0.1,0.2,0.3,0.4,0.4,0.6c0.4,0.6,0.9,1.1,1.4,1.6
				c-0.1-0.2-0.2-0.5-0.2-0.7c0.2,0.4,0.4,0.7,0.6,1.1c-0.1-0.1-0.3-0.3-0.4-0.4c0.2,0.5,0.3,1,0.5,1.4c0.1,0.3,0.3,0.5,0.4,0.7
				c0.1,0.1,0.1,0.2,0.2,0.3c0-0.1,0-0.2-0.1-0.2c-0.1-0.3,0.4,0.8,0.1,0.4c0,0-0.1-0.1-0.1-0.1c0.3,1,0.7,2.1,1.6,2.7
				c0.2,0.1,0.4,0.2,0.6,0.4c-0.1-0.3-0.2-0.6-0.3-0.9c0.4,0.5,0.8,1,1.1,1.5c-0.3-0.2-0.6-0.4-0.9-0.6c0.1,0.2,0.1,0.4,0.2,0.7
				c0.4,1.3,1.8,2.1,3.1,1.7c1.3-0.4,2.1-1.8,1.7-3.1C666.8,452.3,666.6,451.1,666,450.5z"/>
			<path class="st9" d="M646.4,426.4c0.1,0.5,0.1,0.9,0.2,1.4c0.4,0.3,0.7,0.5,1.1,0.7C647.2,427.9,646.8,427.1,646.4,426.4z"/>
			<path class="st9" d="M648.8,430.5c0,0.3,0,0.7,0,1c0.2,0.3,0.5,0.5,0.7,0.8C649.3,431.7,649,431.1,648.8,430.5z"/>
			<path class="st9" d="M651.6,436.1c-0.1-0.1-0.2-0.2-0.2-0.2c0,0,0,0.2,0.3,0.4C651.6,436.2,651.6,436.1,651.6,436.1
				C651.6,436.1,651.6,436.1,651.6,436.1z"/>
			<path class="st9" d="M657.6,399.9c0.1,0.1,0.2,0.2,0.2,0.3c0,0,0.1,0,0.1-0.1C657.8,400.1,657.7,400,657.6,399.9z"/>
			<path class="st9" d="M654.5,441.1C654.5,441.1,654.6,441.1,654.5,441.1c0.1,0.1,0.1,0.2,0.2,0.2
				C654.6,441.2,654.6,441.2,654.5,441.1z"/>
			<path class="st9" d="M649.6,396.3c0.1,0.2,0.3,0.3,0.4,0.5c0.2,0.1,0.5,0.1,0.7,0.2C650.3,396.7,649.9,396.5,649.6,396.3z"/>
			<path class="st9" d="M657.9,344.4c0-0.1,0.1-0.1,0.1-0.2c0-0.1,0-0.1,0,0c0.1-0.1,0.2-0.2,0.3-0.3c0.1-0.2,0.1-0.4,0.2-0.6
				C658.3,343.6,658.1,344,657.9,344.4z"/>
			<path class="st9" d="M652.8,398.5C652.8,398.6,652.9,398.6,652.8,398.5c0.1,0.1,0.2,0.1,0.2,0.1
				C653.7,398.8,652.3,398.3,652.8,398.5z"/>
			<path class="st9" d="M658.1,344.2C658.1,344.2,658.1,344.2,658.1,344.2c-0.1,0.2-0.2,0.7,0,0.5c0-0.1,0-0.2,0-0.3
				C658.1,344.2,658.1,344.2,658.1,344.2z"/>
			<path class="st9" d="M653.3,344.5c-0.1,0.1-0.2,0.2-0.3,0.4c0,0.3-0.1,0.6-0.1,0.9C653.1,345.3,653.2,344.9,653.3,344.5z"/>
			<path class="st9" d="M652.1,348.1C652,348.1,652,348.1,652.1,348.1c-0.1,0.1-0.1,0.2-0.1,0.3C652,349.1,652,348.1,652.1,348.1z"
				/>
			<path class="st9" d="M658,344.2C658.1,344.2,658.1,344.2,658,344.2C658.1,344.1,658.1,344.1,658,344.2z"/>
			<path class="st9" d="M650.7,352c-0.1,0.1-0.1,0.3-0.2,0.4C650.4,352.8,650.8,352,650.7,352z"/>
			<path class="st9" d="M653.6,357C653.6,357,653.6,357.1,653.6,357c0.1-0.1,0.1-0.2,0.1-0.2c0,0,0,0,0,0.1
				C653.6,356.9,653.6,356.9,653.6,357z"/>
			<path class="st9" d="M652.7,361.3c0-0.2,0-0.4,0-0.6C652.7,361.3,652.7,361.4,652.7,361.3z"/>
			<path class="st9" d="M656.7,348.3c0.1-0.1,0.2-0.3,0.3-0.4c0-0.3,0-0.6,0.1-0.8C656.9,347.5,656.8,347.9,656.7,348.3z"/>
			<path class="st9" d="M658.1,344.3c0,0.1,0,0.2,0,0.3c0,0,0,0,0,0c0.1-0.2,0.2-0.5,0.3-0.7c-0.1,0.1-0.2,0.2-0.3,0.3
				C658.1,344.2,658.1,344.2,658.1,344.3z"/>
			<path class="st9" d="M643.7,392.7c0.2,0.3,0.4,0.5,0.5,0.8c0.3,0.1,0.6,0.2,1,0.4C644.7,393.5,644.2,393.1,643.7,392.7z"/>
			<path class="st9" d="M648.3,360.5c-0.2,0.3-0.4,0.5-0.6,0.8c0,0.3-0.1,0.7-0.1,1C647.8,361.7,648,361.1,648.3,360.5z"/>
			<path class="st9" d="M640.1,383.1c0.2-0.6,0.5-1.2,0.7-1.8c-0.2,0.3-0.5,0.6-0.7,0.9C640.1,382.6,640.1,382.9,640.1,383.1z"/>
			<path class="st9" d="M650.9,365.3c0,0.1,0,0.1,0,0.2C650.9,365.5,650.9,365.4,650.9,365.3c0.1-0.1,0.2-0.3,0.3-0.5
				c-0.1,0.1-0.2,0.2-0.3,0.3C650.9,365.2,650.9,365.3,650.9,365.3z"/>
			<path class="st9" d="M638.8,386.4c-0.1,0.1-0.2,0.2-0.3,0.4c0,0.3,0,0.6-0.1,0.9C638.6,387.2,638.7,386.8,638.8,386.4z"/>
			<path class="st9" d="M644.6,368.5C644.6,368.5,644.6,368.5,644.6,368.5c0,0.1,0,0.1-0.1,0.1C644.3,369.3,644.9,367.9,644.6,368.5
				z"/>
			<path class="st9" d="M646.2,365.5c-0.1,0.1-0.2,0.3-0.3,0.4c0,0.3,0,0.6,0,0.9C646,366.3,646.1,365.9,646.2,365.5z"/>
			<path class="st9" d="M642,378.4c-0.2,0.2-0.5,0.5-0.7,0.8c0,0.3,0,0.7,0,1C641.5,379.6,641.7,379,642,378.4z"/>
			<path class="st9" d="M642.6,374.5C642.5,374.5,642.5,374.6,642.6,374.5C642.5,374.6,642.5,374.6,642.6,374.5
				C642.4,375.3,643,373.9,642.6,374.5z"/>
		</g>
		<path class="st8" d="M677.7,258.3c-0.1-0.9-0.4-0.8-0.4-1.7c-0.1-0.9,0-0.9,0-1.7c-0.1-0.9,0.3-0.9,0.3-1.7
			c-0.1-0.9-0.5-0.8-0.5-1.7c-0.1-0.9,0.4-0.9,0.4-1.7c-0.1-0.9-0.7-0.8-0.7-1.7c-0.1-0.9,0-0.9-0.1-1.7c-0.1-0.9,0.6-0.9,0.6-1.8
			c-0.1-0.9-0.8-0.8-0.8-1.7c-0.1-0.9,0.1-0.9,0-1.7c-0.1-0.9,0.3-0.9,0.3-1.7c-0.1-0.9-0.5-0.8-0.6-1.7c-0.1-0.9,0.3-0.9,0.2-1.7
			c-0.1-0.9,0-0.9-0.1-1.7c-0.1-0.9-0.6-0.8-0.6-1.7c-0.1-0.9,0.4-0.9,0.3-1.7c-0.1-0.9,0.1-0.9,0-1.7c-0.1-0.9,0.2-1-0.1-1.8
			c-0.6,0-1.3,0.1-1.9,0.1c-0.6,0.1-1.1,0.5-1.7,0.6c-0.6,0.1-1.1,0.4-1.6,0.5c-0.6,0.2-1.2-0.1-1.8,0.1c-0.5,0.2-1,0.5-1.6,0.8
			c-0.5,0.3-1.2,0.3-1.7,0.6c-0.5,0.3-0.8,0.9-1.3,1.3c-0.4,0.4-0.7,0.9-1.1,1.3c-0.4,0.4-0.8,0.9-1.1,1.3c-0.3,0.5-0.6,1-0.9,1.5
			c-0.3,0.5-0.4,1-0.7,1.6c-0.2,0.5-0.6,1-0.8,1.5c-0.2,0.5-0.9,0.9-1,1.5c-0.1,0.6,0.1,1.2,0,1.8c-0.1,0.6-0.6,1.1-0.6,1.7
			c0,0.6,0.6,1.2,0.6,1.8c0,0.6-0.3,1.1-0.2,1.7c0.1,0.6,0.5,1,0.6,1.6c0.2,0.5,0.3,1.1,0.5,1.6c0.2,0.5,0.7,0.9,1,1.4
			c0.3,0.5,0.4,1,0.8,1.5c0.4,0.4,0.5,1.1,0.9,1.5c0.4,0.4,0.8,0.8,1.3,1.2c0.4,0.4,0.7,1,1.1,1.4c0.5,0.3,1.4,0,1.9,0.4
			c0.5,0.3,0.6,1.3,1.1,1.5c0.5,0.3,1.1,0.4,1.6,0.6c0.5,0.2,1,0.7,1.5,0.9c0.5,0.2,1.4-0.4,1.9-0.3c0.6,0.2,1,0.5,1.6,0.6
			c0.6,0.1,1.1,0.5,1.7,0.6c0.6,0.1,1.1-0.1,1.6-0.1c0.2-0.8,0.2-0.9,0.1-1.7C677.6,259.2,677.7,259.2,677.7,258.3z"/>
		<path class="st8" d="M780.5,243.6c-0.1-0.6,0.2-1.2,0.1-1.8c-0.1-0.6-0.7-1-0.8-1.6c-0.2-0.6,0.1-1.3-0.2-1.8
			c-0.3-0.5-0.4-1.2-0.7-1.6c-0.3-0.5-0.8-0.9-1.2-1.4c-0.4-0.4-0.9-0.8-1.4-1.2c-0.4-0.4-0.9-0.7-1.4-1c-0.5-0.3-1.1-0.4-1.6-0.7
			c-0.5-0.2-1.1-0.2-1.7-0.4c-0.5-0.2-1-0.6-1.6-0.8c-0.6-0.1-1.1-0.2-1.7-0.3c-0.6-0.1-1.1-0.6-1.7-0.6c-0.6,0-1.5,0.3-2.1,0.3
			c-0.3,0.8,0.3,1,0.3,1.8c0,0.9,0.1,0.9,0.1,1.7c0,0.9,0,0.9,0,1.7c0,0.9-0.1,0.9-0.1,1.7c0,0.9-0.5,0.9-0.5,1.7
			c0,0.9,0.5,0.9,0.5,1.7c0,0.9,0,0.9,0,1.7c0,0.9-0.3,0.9-0.3,1.7c0,0.9,0.5,0.9,0.5,1.7c0,0.9-0.4,0.9-0.4,1.7
			c0,0.9-0.1,0.9-0.1,1.7c0,0.9,0.7,0.9,0.7,1.7c0,0.9-0.7,0.9-0.7,1.7c0,0.9,0,0.9,0,1.7c0,0.9,0.6,0.9,0.6,1.7
			c0,0.9-0.5,0.9-0.5,1.7c0,0.9,0.4,0.9,0.4,1.7c0,0.9-0.2,0.9-0.4,1.7c-0.1,0.9-0.3,1,0,1.8c0.6,0,1.2-0.2,1.8-0.3
			c0.6-0.1,1.2,0.1,1.7,0c0.6-0.1,1.2-0.1,1.7-0.3c0.5-0.2,0.7-1.2,1.2-1.5c0.5-0.3,1.1-0.3,1.6-0.7c0.5-0.3,0.8-0.8,1.3-1.1
			c0.4-0.4,1.4-0.1,1.8-0.5c0.4-0.4,0.2-1.3,0.6-1.8c0.4-0.4,1-0.7,1.3-1.1c0.3-0.5,0.6-1,0.9-1.5c0.3-0.5,0.8-0.9,1.1-1.4
			c0.2-0.5,0.6-1,0.8-1.6c0.2-0.5,0.1-1.2,0.2-1.7c0.1-0.6,0.3-1.1,0.4-1.7c0.1-0.6-0.2-1.2-0.2-1.7c0-0.6,0.3-1.2,0.2-1.8
			C781.3,244.7,780.6,244.2,780.5,243.6z"/>
		<path class="st8" d="M766.1,222.1c0-0.9-0.2-0.9-0.2-1.7c0-0.9-0.5-0.9-0.5-1.7c0-0.9,0.5-0.9,0.5-1.7c0-0.9-0.1-0.9-0.1-1.7
			c0-0.9-0.3-0.9-0.3-1.7c0-0.9,0.5-0.9,0.5-1.7c0-0.9-0.2-0.9-0.2-1.7c0-0.9,0-0.8-0.2-1.7c-0.5-0.4-0.9-0.6-1.3-1
			c-0.4-0.5-0.1-1.3-0.4-1.8c-0.3-0.5-1.1-0.8-1.2-1.4c-0.1-0.6,0.6-1.3,0.6-1.8c0-0.6-0.3-1.1-0.3-1.7c0-0.6,0.1-1.1,0.2-1.7
			c0.1-0.6-0.5-1.2-0.3-1.8c0.1-0.6,1.1-1,1.2-1.5c0.1-0.6-0.3-1.2-0.2-1.8c0.1-0.6,0.6-1.1,0.7-1.6c0.1-0.6-0.2-1.2-0.1-1.8
			c0.1-0.6,0.1-1.1,0.1-1.7c0-0.6,0.5-1.1,0.5-1.7c0-0.6-0.4-1.1-0.5-1.7c-0.1-0.6,0.2-1.2,0-1.8c-0.2-0.5-0.4-0.7-0.7-1.2
			c0,0.6,0.1,0.8,0.1,1.3c-0.1,0.6-0.7,1-0.9,1.5c-0.2,0.5-0.4,1-0.7,1.4c-0.3,0.5-0.5,1-0.9,1.4c-0.4,0.4-0.4,1.2-0.9,1.5
			c-0.4,0.3-1.1,0.4-1.6,0.7c-0.5,0.3-0.8,0.9-1.3,1.2c-0.5,0.3-1.2,0-1.8,0.3c-0.5,0.2-0.8,1-1.3,1.2c-0.5,0.2-1.1,0.3-1.6,0.5
			c-0.5,0.2-1.1,0.2-1.6,0.4c-0.5,0.2-1.1,0.2-1.6,0.4c-0.5,0.2-1.2-0.2-1.7,0c-0.5,0.1-1,0.6-1.5,0.8c-0.5,0.1-1.1,0.1-1.7,0.3
			c-0.5,0.1-1,0.5-1.6,0.6c-0.5,0.1-1.1,0.4-1.6,0.5c-0.6,0.1-1.2-0.5-1.8-0.4c-0.6,0.1-1,0.6-1.6,0.7c-0.6,0.1-1.2-0.1-1.7,0
			c-0.6,0.1-1,0.6-1.6,0.7c-0.6,0.1-1.1,0.5-1.6,0.6c-0.6,0.1-1.1,0.1-1.7,0.2c-0.6,0.1-1.1,0.1-1.7,0.2c-0.6,0.1-1.2-0.3-1.8-0.2
			c-0.6,0.1-1.1,0.5-1.6,0.6c-0.6,0.1-1.1,0.6-1.6,0.7c-0.6,0.1-1.2,0-1.7,0.1c-0.6,0.1-1.1,0.5-1.6,0.6c-0.6,0.1-1.2-0.3-1.7-0.2
			c-0.6,0.1-1.1,0.6-1.6,0.6c-0.6,0.1-1.2-0.6-1.8-0.5c-0.6,0.1-1.1,0-1.7,0.1c-0.6,0-1.1,0.7-1.6,0.7c-0.6,0-1.1-0.4-1.7-0.3
			c-0.6,0-1.1,0.4-1.7,0.4c-0.6,0-1.1,0.2-1.7,0.2c-0.6,0-1.1,0-1.7-0.1c-0.6,0-1.1,0-1.7,0c-0.6,0-1.1,0-1.7-0.1
			c-0.6,0-1.1-0.6-1.7-0.6c-0.6,0-1.1,0.4-1.7,0.4c-0.6,0-1.1-0.4-1.7-0.4c-0.6,0-1.1,0.2-1.7,0.2c-0.6,0-1.1,0-1.7,0
			c-0.6,0-1.1-0.2-1.7-0.2c-0.4,0.2-1.1,0-1.8,0.3c-0.5,0.2-0.7,1.2-1.3,1.4c-0.5,0.2-1.3-0.1-1.9,0.1c-0.5,0.2-0.9,0.9-1.4,1.1
			c-0.5,0.2-1,0.7-1.5,0.9c-0.6,0.2-1.3,0.1-1.8,0.4c-0.6,0.3-1.2,0.3-1.7,0.5c-0.6,0.3-0.8,1.2-1.2,1.4c-0.3,0.2-0.7,0.4-1,1.1
			c-0.2,0.4-0.7,0.9-0.9,1.4c-0.2,0.5,0.1,1.2-0.1,1.8c-0.2,0.5-1,0.8-1.2,1.3c-0.2,0.5,0.2,1.3,0,1.8c-0.2,0.5-0.7,1-0.9,1.5
			c-0.2,0.6-0.1,1.2-0.3,1.7c-0.3,0.6-1.2,0.8-1.4,1.2c-0.4,0.7-1,1.1-1.4,1.1c-0.2,0.8,0.4,0.9,0.5,1.8c0,0.9-0.4,0.9-0.3,1.7
			c0,0.9,0.6,0.8,0.6,1.7c0,0.9-0.1,0.9-0.1,1.7c0,0.9,0.4,0.8,0.4,1.7c0,0.9-0.7,0.9-0.7,1.8c0,0.9,0.4,0.9,0.4,1.7
			c0,0.9,0.4,0.8,0.4,1.7c0,0.9-0.8,0.9-0.7,1.8c0,0.9,0.2,0.9,0.2,1.7c0,0.9,0,0.9,0,1.7c0,0.9,0.2,0.9,0.2,1.7
			c0,0.9,0.2,0.9,0.2,1.7c0,0.9,0.4,0.8,0.4,1.7c0,0.9-0.5,0.9-0.5,1.7c0,0.9,0.5,0.8,0.6,1.7c0,0.9-0.4,0.9-0.4,1.7
			c0,0.9,0.6,0.8,0.6,1.7c0,0.9-0.5,0.9-0.5,1.7c0,0.9,0.1,0.9,0.1,1.7c0,0.9,0.3,0.9,0.4,1.7c0,0.9-0.2,0.9-0.2,1.7
			c0,0.9,0.2,0.9,0.2,1.7c0,0.9-0.4,0.9-0.4,1.7c0,0.9,0.4,0.9,0.4,1.7c0,0.6,0.5,1.1,0.6,1.7c0,0.6-0.7,1.2-0.6,1.7
			c0,0.6,0.7,1.1,0.8,1.6c0.1,0.6,0.2,1.1,0.3,1.7c0.1,0.6-0.3,1.2-0.2,1.8c0.1,0.6,0,1.2,0.1,1.7c0.1,0.6,0.9,1,1,1.5
			c0.1,0.6,0.2,1.1,0.4,1.6c0.2,0.5,0.5,1,0.7,1.6c0.2,0.5-0.4,1.4-0.2,1.9c0.2,0.5,0.8,0.9,1,1.4c0.2,0.5,0.3,1.1,0.5,1.7
			c0.2,0.5,0.3,1.1,0.6,1.6c0.3,0.5,1.3,0.6,1.5,1.1c0.3,0.5,0,1.3,0.3,1.8c0.3,0.5,1.1,0.7,1.4,1.2c0.3,0.5,0.6,1,0.9,1.4
			c0.3,0.5,0.2,1.3,0.6,1.7c0.3,0.5,0.9,0.7,1.3,1.2c0.4,0.4,0.9,0.7,1.3,1.2c0.4,0.4,0.6,1,1,1.4c0.4,0.4,0.7,1,1.1,1.4
			c0.4,0.4,0.9,0.7,1.4,1.1c0.4,0.4,0.7,1,1.1,1.3c0.4,0.4,1.3,0.2,1.8,0.5c0.5,0.3,0.6,1.1,1.1,1.4c0.5,0.3,1.2,0.3,1.7,0.6
			c0.5,0.3,0.7,1,1.2,1.3c0.5,0.3,1,0.5,1.5,0.8c0.5,0.3,1.1,0.4,1.6,0.6c0.5,0.3,1,0.4,1.6,0.7c0.5,0.2,1,0.6,1.5,0.9
			c0.5,0.2,1,0.6,1.5,0.7c0.5,0.2,1.1,0.4,1.6,0.5c0.5,0.2,1.1,0.1,1.7,0.3c0.5,0.2,1,0.5,1.6,0.6c0.6,0.1,1.2-0.3,1.8-0.2
			c0.6,0.1,1,0.6,1.6,0.7c0.6,0.1,1.1,0.5,1.7,0.6c0.6,0.1,1.2-0.1,1.7-0.1c0.6,0,1.1,0.3,1.7,0.3c0.6,0,1.1-0.2,1.7-0.2
			c0.6,0,1.2,0.2,1.7,0.2c0.6,0,1.1-0.5,1.7-0.5c0.6,0,1.1-0.4,1.7-0.4c0.6-0.1,1.1-0.1,1.7-0.2c0.6-0.1,1.2,0.1,1.7,0
			c0.6-0.1,1-0.6,1.6-0.7c0.6-0.1,1.2,0.1,1.7-0.1c0.5-0.2,1-0.6,1.5-0.8c0.5-0.2,1.1-0.4,1.6-0.6c0.5-0.2,1.3,0.1,1.8-0.1
			c0.5-0.2,0.7-1.2,1.2-1.4c0.5-0.2,1.3,0.1,1.8-0.2c0.5-0.3,1-0.6,1.5-0.8c0.5-0.3,0.9-0.7,1.4-1c0.5-0.3,0.8-0.9,1.2-1.2
			c0.5-0.3,1.2-0.3,1.7-0.6c0.5-0.3,1-0.5,1.5-0.9c0.4-0.4,0.6-1.1,1-1.4c0.4-0.4,0.6-1,1-1.4c0.4-0.4,1.5-0.1,1.9-0.5
			c0.4-0.4,0.7-0.9,1.1-1.3c0.4-0.4,0.6-1,0.9-1.5c0.4-0.4,0.9-0.7,1.2-1.2c0.4-0.4,0.2-1.3,0.5-1.8c0.3-0.5,1.2-0.5,1.6-1
			c0.3-0.5,0.6-0.9,1-1.4c0.3-0.5,0.2-1.2,0.5-1.7c0.3-0.5,0.8-0.8,1.1-1.3c0.3-0.5,0.2-1.2,0.5-1.7c0.3-0.5,1.1-0.7,1.3-1.3
			c0.2-0.5,0-1.3,0.2-1.8c0.2-0.5,0.9-0.9,1.1-1.4c0.2-0.5,0.3-1.1,0.5-1.7c0.2-0.5,0.6-1,0.8-1.6c0.2-0.5-0.2-1.2,0-1.8
			c0.1-0.6,0.8-1,0.9-1.6c0.1-0.6,0.2-1.1,0.3-1.7c0.1-0.6,0.2-1.1,0.3-1.7c0.1-0.6,0.2-1.1,0.3-1.7c0.1-0.6-0.4-1.2-0.3-1.7
			c0-0.6,0-1.1,0-1.7c0-0.6-0.1-1.1-0.1-1.7c0-0.9,0.4-0.9,0.4-1.7c0-0.9-0.6-0.9-0.5-1.7c0-0.9,0.2-0.9,0.2-1.7
			c0-0.9,0.2-0.9,0.2-1.7c0-0.9,0-0.9,0-1.7c0-0.9,0.3-0.9,0.3-1.7c0-0.9-0.3-0.9-0.2-1.7c0-0.9,0.5-0.9,0.5-1.7
			c0-0.9-0.1-0.9-0.1-1.7c0-0.9-0.2-0.9-0.1-1.7c0-0.9-0.3-0.9-0.2-1.7c0-0.9,0.4-0.9,0.5-1.7c0-0.9-0.6-0.9-0.5-1.7
			c0-0.9,0-0.9,0.1-1.7c0-0.9,0.4-0.9,0.4-1.7c0-0.9-0.4-0.9-0.3-1.7c0-0.9,0.1-0.9,0.1-1.7c0-0.9,0.5-0.9,0.6-1.7
			c0-0.9-0.5-0.9-0.5-1.7c0-0.9,0.7-0.9,0.7-1.7c0-0.9-0.4-0.9-0.4-1.7c0-0.9,0.2-0.9,0.2-1.7C765.9,222.9,766.1,222.9,766.1,222.1z
			"/>
		<polygon class="st4" points="770.6,193.6 770.3,192 769.4,190.6 768.7,189.1 768.9,187.3 768,185.9 767.1,184.5 766.4,183.2 
			766.1,181.5 765.5,180 764.6,178.7 763.1,177.7 762.5,176.2 761.4,175 759.9,174.3 758.9,173 758,171.6 756.4,171 755.3,169.7 
			753.6,169.6 752.3,168.5 750.7,168 749,168.4 747.5,168.6 746.7,167 746.4,165.1 745.3,163.9 743.7,163.2 742.6,162.1 741.5,161 
			740.3,159.9 739.2,158.7 737.5,158.6 736.3,157.5 734.9,156.7 733.3,156.4 731.9,155.6 730.4,155.2 728.7,155.2 727.2,155.1 
			725.6,155.1 724,154.7 722.5,154.3 720.9,154.2 719.3,154.1 717.7,154.3 716.2,154.9 714.6,154.9 713,154.8 711.5,155.5 
			709.9,155.5 708.4,156.1 706.8,156.2 705.4,157.1 703.7,157.1 702.5,158.2 701,158.7 699.4,159.1 698.1,160 696.6,160.5 
			695.1,161.1 693.9,162.2 692.4,162.8 691.5,164.1 690.2,165 689,166.1 687.8,167.1 686.4,167.8 685.1,168.8 684.2,170.1 
			683.1,171.3 681.4,171.8 680.7,173.3 679.9,174.7 678.4,175.5 677.3,176.7 676.6,178.1 675.7,179.4 674.7,180.6 674.4,182.3 
			673.7,183.7 672.3,184.8 671.9,186.3 671.6,187.9 670.7,189.3 670.1,190.7 669.4,192.2 669.6,193.9 668.9,195.3 668.4,196.9 
			668.1,198.4 667.9,200 668.4,201.6 668.3,203.2 668.4,204.8 668.2,206.3 668.1,207.9 668.5,209.5 668.5,211 668.6,212.6 
			668.7,214.2 668.6,215.8 669.6,217.2 670,218.7 670.4,220.3 671,221.7 670.8,223.4 671.3,225 672.4,226.6 672.8,224.8 
			673.8,223.4 674.3,221.8 675.3,220.4 676.2,219 676.9,217.5 678,216.2 678.5,214.6 679.9,213.4 680.4,211.8 681.9,211.9 
			683.5,211.6 685.1,211.7 686.6,212.3 688.2,212.3 689.8,211.8 691.4,212.5 693,212 694.6,211.9 696.2,212.5 697.8,212.3 
			699.3,212.8 700.9,211.9 702.5,212.9 704.1,212.3 705.7,212.3 707.3,212.8 708.9,212.6 710.5,212.6 712,212.5 713.6,212.2 
			715.2,212.8 716.8,212.2 718.4,212.2 720,212.7 721.6,212.8 723.2,212.4 724.8,212.4 726.4,212.7 727.9,212.6 729.5,212.6 
			731.1,212.4 732.7,212.1 734.3,212.5 735.9,212.8 737.5,212.8 739.1,212.2 740.7,211.9 742.2,211.9 743.9,212.2 745.4,211.5 
			747,211.7 748.5,211 750.2,211.1 751.5,210 752.6,208.8 753.4,207.5 754.3,206.2 755.1,204.8 755.8,203.4 757,202.2 756.9,200.4 
			757.8,199 758.5,197.5 758.3,195.8 758.7,194.3 759.1,192.7 759.6,191.2 759.7,190.1 759.6,189.6 759.7,188 759.8,189.6 
			759.7,190.1 759.8,191.2 760.5,192.7 760.6,194.2 760.6,195.8 761.8,197.3 761.8,198.9 761.8,200.5 761.9,202.1 762.4,203.6 
			762.6,205.2 762.9,206.7 763.5,208.2 763.5,209.9 763.4,211.5 763.7,213 764.6,214.5 764.5,216.1 764.6,217.7 765,219.3 
			765.4,220.8 766,222.3 766.1,223.9 765.8,225.6 766.5,227.1 766.8,225.5 767.2,223.9 767.4,222.3 768.3,220.9 768.9,219.3 
			769.3,217.8 769.4,216.1 769.5,214.5 769.5,212.8 770,211.3 770.6,209.7 770.5,208.1 770.6,206.5 770.7,204.9 770.9,203.3 
			770.9,201.7 770.9,200.1 770.8,198.5 770.7,196.8 771.1,195.2 		"/>
		<polygon class="st4" points="759.7,188 759.6,189.6 759.7,190.1 759.8,189.6 		"/>
		<path class="st4" d="M741.5,232.7c-0.3-0.5-0.3-1.2-0.8-1.5c-0.5-0.3-1.1-0.2-1.7-0.2s-1.4-0.4-1.9-0.1c-0.5,0.3-0.5,1.2-0.8,1.7
			c-0.3,0.5-1,1-1,1.6c0,0.6,0.7,1.1,1,1.6c0.3,0.5,0.7,0.8,1.2,1.1c0.5,0.3,1,0.8,1.6,0.8c0.6,0,1.4,0.1,1.9-0.2
			c0.5-0.3,0.9-1,1.2-1.5c0.3-0.5-0.2-1.2-0.2-1.8S741.8,233.2,741.5,232.7z"/>
		<path class="st4" d="M704.8,231.6c-0.5-0.3-1.1-0.4-1.7-0.4c-0.6,0-1.3-0.1-1.8,0.2c-0.5,0.3-1.2,0.7-1.5,1.2
			c-0.3,0.5-0.1,1.3-0.1,1.9c0,0.6,0.1,1.2,0.4,1.7c0.3,0.5,0.8,0.8,1.4,1.1c0.5,0.3,1,1.1,1.6,1.1c0.6,0,1.3-0.3,1.9-0.6
			c0.5-0.3,0.6-1.1,0.9-1.6c0.3-0.5,1-0.9,1-1.6c0-0.6-0.6-1.1-0.9-1.6C705.6,232.4,705.3,231.9,704.8,231.6z"/>
		<g>
			<path class="st10" d="M713.8,273.1C713.6,273,714,273.3,713.8,273.1L713.8,273.1z"/>
			<path class="st10" d="M720.4,276.5c0.1-0.1,0.1-0.1,0.2-0.2c-0.2,0-0.3,0-0.5,0c-1.2,0,2,1.4,1.2,0.5c-0.1-0.1-0.2-0.2-0.3-0.3
				c-0.1,0-0.2,0-0.3,0C720.1,276.7,720,276.6,720.4,276.5z"/>
			<path class="st10" d="M720.9,276.3C720.9,276.3,720.8,276.3,720.9,276.3c-0.1-0.1-0.1-0.1-0.1-0.1c-0.1,0-0.1,0.1-0.1,0.1
				C720.7,276.3,720.8,276.3,720.9,276.3z"/>
			<path class="st10" d="M720.4,276.5c-0.4,0.2-0.3,0.2,0.3,0c0.1,0,0.2,0,0.3,0c0,0-0.1-0.1-0.1-0.1c-0.1,0-0.2,0-0.3,0
				C720.5,276.3,720.5,276.4,720.4,276.5z"/>
			<path class="st10" d="M727.8,274.5c0.1-0.2,0.3-0.3,0.4-0.4c-0.1,0.1-0.3,0.2-0.4,0.3C727.8,274.4,727.8,274.4,727.8,274.5
				C727.6,274.6,727.6,274.7,727.8,274.5z"/>
			<path class="st10" d="M731.2,272.1C731.1,272.1,731.1,272.1,731.2,272.1C730.7,272.4,731.7,272.1,731.2,272.1z"/>
			<path class="st10" d="M726,275.5c0.6-0.1,1.2-0.1,1.8-0.2c-0.2-0.1-0.5-0.1-0.7-0.2c-0.1,0-0.2,0-0.3,0c-0.1,0.1-0.2,0.1-0.3,0.2
				C726.3,275.4,726.2,275.4,726,275.5z"/>
			<path class="st10" d="M720.9,276.3C720.9,276.3,720.9,276.3,720.9,276.3C720.9,276.4,720.9,276.4,720.9,276.3
				C721.3,276.4,721.3,276.3,720.9,276.3z"/>
			<path class="st10" d="M731.2,272.1C731.7,272.1,730.7,272.4,731.2,272.1C731.1,272.1,731.1,272.1,731.2,272.1c0,0-0.1,0-0.1,0
				c-0.2,0-0.5,0.1-0.7,0.2c-1,0.4-1.8,1-2.4,1.9c0,0.1-0.1,0.2-0.2,0.3c0,0,0,0,0,0c0.1-0.1,0.3-0.2,0.4-0.3
				c-0.2,0.1-0.3,0.3-0.4,0.4c-0.2,0.2-0.2,0.1,0-0.1c-0.3,0.2-0.7,0.4-1,0.7c0.1,0,0.2,0,0.3,0c0.2,0,0.5,0.1,0.7,0.2
				c-0.6,0.1-1.2,0.1-1.8,0.2c0.2-0.1,0.3-0.2,0.5-0.3c0.1-0.1,0.2-0.1,0.3-0.2c-0.9-0.1-1.6,0-2.5,0.2c-0.6,0.1-1.2,0.3-1.8,0.4
				c-0.5,0.2-1.2,0.2-1.7,0.5c0,0,0.1,0,0.1,0.1c0,0,0,0,0.1,0.1c0,0,0,0,0,0c0.3,0,0.4,0,0,0.1c0.1,0.1,0.2,0.2,0.3,0.3
				c0.8,0.9-2.4-0.5-1.2-0.5c0.1,0,0.3,0,0.5,0c0,0,0.1-0.1,0.1-0.1c-1.2-1-2.8-1.1-4.3-1.6c-0.3-0.1-0.5-0.2-0.8-0.3
				c-0.1,0-0.2-0.1-0.4-0.1c-0.2-0.1-0.2-0.1,0.2,0.1c-0.3,0.1-1.3-0.9-1.5-1c-0.1,0-0.1-0.1-0.1-0.1c0.2,0.1-0.2-0.2,0,0
				c0,0-0.1-0.1-0.2-0.1c-0.6-0.5-0.8-0.7-1.6-0.9c-0.2-0.1-0.4-0.1-0.6-0.1c-0.1,0-0.2,0-0.3,0c0,0,0.1,0,0.1,0.1
				c0.3,0.2,0.2,0.2-0.3-0.1c-0.7-0.1-0.7-0.1,0,0c0,0,0,0,0,0c0,0,0.1,0,0.1,0c-1.4-0.9-3.7-0.1-4.4,1.3c-0.9,1.7-0.3,3.4,1.2,4.5
				c0.4,0.3,0.8,0.4,1.3,0.6c0.2,0,0.3,0,0.5,0.1c-0.2-0.1-0.4-0.3-0.6-0.4c0.6,0.3,1,0.4,1,0.5c0.1,0,0.1,0,0.2,0
				c-0.1,0-0.1,0-0.2,0c0,0-0.1,0-0.3,0c0.1,0,0.2,0,0.3,0c0,0,0,0,0,0c-0.1,0-0.3,0-0.4-0.1c0.1,0.1,0.2,0.2,0.4,0.3
				c0.2,0.2,0.5,0.4,0.7,0.5c1.2,0.8,2.4,1.4,3.8,1.9c0.7,0.2,1.4,0.4,2.1,0.6c0,0,0,0,0,0c-0.1-0.1-0.2-0.2-0.3-0.3
				c-0.4-0.4-0.1-0.2,0.9,0.5c-0.2,0-0.4-0.1-0.6-0.1c0,0,0.1,0.1,0.1,0.1c1.3,1.2,3.7,1.6,5.5,1.2c0.4-0.1,0.9-0.3,1.2-0.5
				c0,0,0,0,0.1,0c-0.1,0-0.1,0-0.2,0c0.4-0.2,0.4-0.2,0.2,0c0.1,0,0.2,0,0.3-0.1c0.6-0.1,1.2-0.4,1.8-0.5c0.1,0,0.2,0,0.2,0
				c-0.1,0-0.2-0.1-0.4-0.1c-0.6-0.1-0.3-0.2,1-0.1c-0.2,0.1-0.4,0.1-0.6,0.2c0,0,0,0,0,0c1.2,0.2,2.3,0.1,3.3-0.5
				c1.1-0.6,2.6-1.4,3.4-2.4c0.1-0.1,0.2-0.3,0.3-0.4c-0.2,0.1-0.5,0.1-0.7,0.1c-0.4,0,1.8-1.8,1.1-0.7c-0.1,0.2-0.3,0.4-0.4,0.6
				c0.5-0.1,1-0.3,1.3-0.6c1.4-1,2.2-2.9,1.2-4.5C734.7,272,732.7,271.1,731.2,272.1z"/>
			<path class="st10" d="M725.6,281.6c0.1,0,0.2,0.1,0.4,0.1c0.2,0,0.5-0.1,0.6-0.2C725.3,281.5,725,281.5,725.6,281.6z"/>
			<path class="st10" d="M711.3,271.9c0,0-0.1-0.1-0.1-0.1c-0.1,0-0.1,0-0.1,0C711.5,272.1,711.6,272.1,711.3,271.9z"/>
			<path class="st10" d="M723.4,282.3c0.1,0,0.1,0,0.2,0C723.8,282.2,723.8,282.2,723.4,282.3z"/>
			<path class="st10" d="M732.4,278.6c0.2,0,0.4,0,0.7-0.1c0.1-0.2,0.3-0.4,0.4-0.6C734.2,276.7,732,278.6,732.4,278.6z"/>
			<path class="st10" d="M709.2,277.9c0.2,0.1,0.4,0.3,0.6,0.4c0.1,0,0.3,0,0.4,0.1C710.2,278.3,709.8,278.2,709.2,277.9z"/>
			<path class="st10" d="M716.4,281.2c0.1,0.1,0.2,0.2,0.3,0.3c0.2,0,0.4,0.1,0.6,0.1C716.3,281,716,280.8,716.4,281.2z"/>
			<path class="st10" d="M710.2,278.4c-0.1,0-0.2,0-0.3,0C710.1,278.4,710.2,278.4,710.2,278.4z"/>
		</g>
		<g>
			<path class="st10" d="M726.2,255c-0.2-0.2-0.4-0.3-0.7-0.5c-0.5-0.3-1.1-0.5-1.7-0.5c-0.5,0-1,0.1-1.5,0.1c-0.5,0-1-0.1-1.5-0.1
				c-0.5,0-0.9,0.1-1.3,0.3c-0.4,0.1-0.8,0.4-1.1,0.7c-0.3,0.3-0.6,0.7-0.7,1.1c-0.2,0.4-0.3,0.8-0.3,1.3c0,0.3,0.1,0.6,0.1,0.9
				c0.2,0.6,0.4,1.1,0.9,1.5c0.2,0.2,0.4,0.3,0.7,0.5c0.5,0.3,1.1,0.5,1.7,0.5c0.5,0,1,0.1,1.5,0.1c0.5,0,1-0.1,1.5-0.1
				c0.5,0,0.9-0.1,1.3-0.3c0.4-0.1,0.8-0.4,1.1-0.7c0.3-0.3,0.6-0.7,0.7-1.1c0.2-0.4,0.3-0.8,0.3-1.3c0-0.3-0.1-0.6-0.1-0.9
				C726.9,255.9,726.6,255.4,726.2,255z"/>
		</g>
	</g>
</g>
</svg>
