<?xml version="1.0" encoding="utf-8"?>
<!-- Generator: Adobe Illustrator 24.1.3, SVG Export Plug-In . SVG Version: 6.00 Build 0)  -->
<svg version="1.1" id="レイヤー_1" xmlns="http://www.w3.org/2000/svg" xmlns:xlink="http://www.w3.org/1999/xlink" x="0px"
	 y="0px" viewBox="0 0 1440 1440" style="enable-background:new 0 0 1440 1440;" xml:space="preserve">
<style type="text/css">
	.st0{enable-background:new    ;}
	.st1{fill:#FFFFFF;}
</style>
<g class="st0">
	<path class="st1" d="M100.4,1290.3c0,1.1,0,2.7,0,4c0,1.5,0.1,2.9,0.1,3.2c0,0.9-0.2,1-1.2,1h-1.4c-1,0-1.2-0.2-1.2-1
		c0-0.3,0-1.6,0.1-3.1c0-1.4,0-3,0-4.1V1278c0-2.4-0.1-6.8-0.1-7c0-0.9,0.3-1.2,1.2-1.2c0.3,0,3.4,0.1,5.3,0.1h1.8
		c2,0,5.3-0.1,5.8-0.1c0.9,0,1,0.2,1,1.2v1.1c0,1-0.2,1.2-1,1.2c-0.5,0-3.8-0.1-5.8-0.1h-3.4c-1,0-1.2,0.2-1.2,1.2v6
		c0,1,0.2,1.2,1.2,1.2h2.6c1.9,0,5.3-0.1,5.8-0.1c0.9,0,1,0.2,1,1.2v1c0,1-0.2,1.2-0.9,1.2c-0.8,0-4-0.1-5.9-0.1h-2.6
		c-1,0-1.2,0.2-1.2,1.2V1290.3z"/>
	<path class="st1" d="M117.7,1292.5c-0.7,1.6-1.2,3-1.9,5c-0.4,1-0.6,1.1-1.7,1.1h-1.6c-0.7,0-1-0.1-1-0.4c0-0.2,0-0.4,0.2-0.7
		c1.2-2.6,2.1-4.8,3.1-7l5.8-13.9c0.7-1.7,1.5-3.5,2.2-5.5c0.4-1,0.6-1.2,1.7-1.2h0.9c1.1,0,1.3,0.2,1.7,1.2
		c0.7,1.9,1.5,3.7,2.2,5.4l5.9,13.9c1,2.3,1.9,4.4,3.1,7c0.2,0.4,0.2,0.6,0.2,0.7c0,0.3-0.3,0.4-1,0.4h-1.9c-1.1,0-1.3-0.2-1.7-1.2
		c-0.7-2-1.2-3.2-1.9-4.9l-0.3-0.7c-0.2-0.5-0.5-0.9-1.5-0.9h-11.1c-0.9,0-1.2,0.3-1.5,0.9L117.7,1292.5z M120,1286.7
		c-0.1,0.3-0.2,0.5-0.2,0.7c0,0.4,0.3,0.5,1,0.5h8.3c0.7,0,1-0.1,1-0.5c0-0.2,0-0.4-0.2-0.7l-4.5-10.8c-0.2-0.5-0.3-0.7-0.5-0.7
		c-0.1,0-0.3,0.2-0.5,0.7L120,1286.7z"/>
	<path class="st1" d="M161.5,1296.8c0,0.4-0.2,0.6-0.9,0.9c-1.9,0.7-4.2,1.2-6.6,1.2c-8.2,0-13.7-5.5-13.7-14
		c0-8.3,5.1-15.2,15.3-15.2c2,0,3.8,0.3,5.4,0.9c0.7,0.2,0.9,0.5,0.9,0.9c0,0.2,0,0.4-0.2,0.7l-0.5,1.4c-0.2,0.7-0.4,0.9-0.7,0.9
		c-0.2,0-0.5-0.1-0.8-0.2c-1.3-0.5-2.9-0.9-4.4-0.9c-7.4,0-11.2,5.3-11.2,11.5c0,6.5,4.1,10.6,10.3,10.6c1.8,0,3.6-0.4,4.9-1
		c0.4-0.2,0.7-0.3,0.9-0.3c0.3,0,0.5,0.3,0.7,0.9l0.4,1C161.5,1296.3,161.5,1296.6,161.5,1296.8z"/>
	<path class="st1" d="M176.5,1295.3c2,0,5.2-0.1,5.9-0.1s0.9,0.2,0.9,1.2v1c0,1-0.2,1.2-1,1.2c-0.7,0-3.8-0.1-5.8-0.1h-2.7
		c-1.7,0-4.6,0.1-5.2,0.1c-0.9,0-1.4-0.1-1.4-1.2c0-0.3,0.1-4.6,0.1-7V1278c0-2.4-0.1-6.8-0.1-7c0-0.9,0.3-1.2,1.2-1.2
		c0.3,0,3.4,0.1,5.3,0.1h1.8c2.1,0,5.3-0.1,5.8-0.1c0.9,0,1,0.2,1,1.2v1.1c0,1-0.2,1.2-1,1.2c-0.5,0-3.8-0.1-5.8-0.1h-3.4
		c-1,0-1.2,0.2-1.2,1.2v5.9c0,1,0.2,1.2,1.2,1.2h2.6c1.9,0,5.3-0.1,5.8-0.1c0.9,0,1,0.2,1,1.2v1c0,1-0.2,1.2-0.9,1.2
		c-0.8,0-3.5-0.1-8.5-0.1c-1,0-1.2,0.2-1.2,1.2v7.9c0,1,0.2,1.2,1.2,1.2H176.5z"/>
	<path class="st1" d="M208.7,1297.2c0,1-0.2,1.3-1.2,1.4c-0.6,0.1-1.2,0.1-1.8,0.1c-4.7,0-6.5-2.3-6.5-6.4v-10c0-0.7-0.3-1-0.8-1
		c-0.7,0-1.5,0-1.8,0c-0.8,0-1-0.3-1-1.2v-0.8c0-1,0.2-1.2,1-1.2c0.3,0,1,0,1.8,0c0.5,0,0.8-0.2,0.8-1.2c0-1.6,0-3.2,0-3.7
		c0-0.9,0.2-1,1.2-1h1.2c1,0,1.2,0.2,1.2,1c0,0.5,0,2.2,0,3.7c0,1,0.2,1.2,1.2,1.2h0.6c0.9,0,2.6,0,2.9,0c1.1,0,1.3,0.2,1.3,1.2v0.8
		c0,1.1-0.2,1.2-1.3,1.2c-0.3,0-1.9,0-2.9,0H204c-1,0-1.2,0.2-1.2,1.2v9.3c0,2.7,1.2,3.6,3.4,3.6c0.6,0,1.5-0.2,1.9-0.2
		c0.5,0,0.6,0.2,0.6,1.1V1297.2z"/>
	<path class="st1" d="M232,1287.9c0,6.8-4.3,10.9-10.4,10.9c-5.5,0-9.7-3.8-9.7-10c0-6.3,3.9-11,10.4-11
		C227.8,1277.9,232,1281.7,232,1287.9z M215.7,1288.9c0,4.2,2.6,6.8,6.1,6.8c3.8,0,6.6-2.9,6.6-7.5c0-4.3-2.7-6.9-6.2-6.9
		C217.9,1281.3,215.7,1284.6,215.7,1288.9z"/>
	<path class="st1" d="M250.3,1290.3c0,1.1,0,2.7,0,4c0,1.5,0.1,2.9,0.1,3.2c0,0.9-0.2,1-1.2,1h-1.4c-1,0-1.2-0.2-1.2-1
		c0-0.3,0-1.6,0.1-3.1c0-1.4,0-3,0-4.1V1278c0-2.4-0.1-6.8-0.1-7c0-0.9,0.3-1.2,1.2-1.2c0.3,0,3.4,0.1,5.3,0.1h1.8
		c2,0,5.3-0.1,5.8-0.1c0.9,0,1,0.2,1,1.2v1.1c0,1-0.2,1.2-1,1.2c-0.5,0-3.8-0.1-5.8-0.1h-3.4c-1,0-1.2,0.2-1.2,1.2v6
		c0,1,0.2,1.2,1.2,1.2h2.6c1.9,0,5.3-0.1,5.8-0.1c0.9,0,1,0.2,1,1.2v1c0,1-0.2,1.2-0.9,1.2c-0.8,0-4-0.1-5.9-0.1h-2.6
		c-1,0-1.2,0.2-1.2,1.2V1290.3z"/>
	<path class="st1" d="M267.6,1292.5c-0.7,1.6-1.2,3-1.9,5c-0.4,1-0.6,1.1-1.7,1.1h-1.6c-0.7,0-1-0.1-1-0.4c0-0.2,0-0.4,0.2-0.7
		c1.2-2.6,2.1-4.8,3.1-7l5.8-13.9c0.7-1.7,1.5-3.5,2.2-5.5c0.4-1,0.6-1.2,1.7-1.2h0.9c1.1,0,1.3,0.2,1.7,1.2
		c0.7,1.9,1.5,3.7,2.2,5.4l5.9,13.9c1,2.3,1.9,4.4,3.1,7c0.2,0.4,0.2,0.6,0.2,0.7c0,0.3-0.3,0.4-1,0.4h-1.9c-1.1,0-1.3-0.2-1.7-1.2
		c-0.7-2-1.2-3.2-1.9-4.9l-0.3-0.7c-0.2-0.5-0.5-0.9-1.5-0.9h-11.1c-0.9,0-1.2,0.3-1.5,0.9L267.6,1292.5z M269.9,1286.7
		c-0.1,0.3-0.2,0.5-0.2,0.7c0,0.4,0.3,0.5,1,0.5h8.3c0.7,0,1-0.1,1-0.5c0-0.2,0-0.4-0.2-0.7l-4.5-10.8c-0.2-0.5-0.3-0.7-0.5-0.7
		c-0.1,0-0.3,0.2-0.5,0.7L269.9,1286.7z"/>
	<path class="st1" d="M311.5,1296.8c0,0.4-0.2,0.6-0.9,0.9c-1.9,0.7-4.2,1.2-6.6,1.2c-8.2,0-13.7-5.5-13.7-14
		c0-8.3,5.1-15.2,15.3-15.2c2,0,3.8,0.3,5.4,0.9c0.7,0.2,0.9,0.5,0.9,0.9c0,0.2,0,0.4-0.2,0.7l-0.5,1.4c-0.2,0.7-0.4,0.9-0.7,0.9
		c-0.2,0-0.5-0.1-0.8-0.2c-1.3-0.5-2.9-0.9-4.4-0.9c-7.4,0-11.2,5.3-11.2,11.5c0,6.5,4.1,10.6,10.3,10.6c1.8,0,3.6-0.4,4.9-1
		c0.4-0.2,0.7-0.3,0.9-0.3c0.3,0,0.5,0.3,0.7,0.9l0.4,1C311.4,1296.3,311.5,1296.6,311.5,1296.8z"/>
	<path class="st1" d="M326.4,1295.3c2,0,5.2-0.1,5.9-0.1s0.9,0.2,0.9,1.2v1c0,1-0.2,1.2-1,1.2c-0.7,0-3.8-0.1-5.8-0.1h-2.7
		c-1.7,0-4.6,0.1-5.2,0.1c-0.9,0-1.4-0.1-1.4-1.2c0-0.3,0.1-4.6,0.1-7V1278c0-2.4-0.1-6.8-0.1-7c0-0.9,0.3-1.2,1.2-1.2
		c0.3,0,3.4,0.1,5.3,0.1h1.8c2.1,0,5.3-0.1,5.8-0.1c0.9,0,1,0.2,1,1.2v1.1c0,1-0.2,1.2-1,1.2c-0.5,0-3.8-0.1-5.8-0.1h-3.4
		c-1,0-1.2,0.2-1.2,1.2v5.9c0,1,0.2,1.2,1.2,1.2h2.6c1.9,0,5.3-0.1,5.8-0.1c0.9,0,1,0.2,1,1.2v1c0,1-0.2,1.2-0.9,1.2
		c-0.8,0-3.5-0.1-8.5-0.1c-1,0-1.2,0.2-1.2,1.2v7.9c0,1,0.2,1.2,1.2,1.2H326.4z"/>
</g>
</svg>
