<?xml version="1.0" encoding="utf-8"?>
<!-- Generator: Adobe Illustrator 24.1.3, SVG Export Plug-In . SVG Version: 6.00 Build 0)  -->
<svg version="1.1" id="レイヤー_1" xmlns="http://www.w3.org/2000/svg" xmlns:xlink="http://www.w3.org/1999/xlink" x="0px"
	 y="0px" viewBox="0 0 1440 1440" style="enable-background:new 0 0 1440 1440;" xml:space="preserve">
<style type="text/css">
	.st0{fill:#B2E2F8;}
	.st1{fill:#FFFFFF;stroke:#FFFFFF;stroke-miterlimit:10;}
	.st2{clip-path:url(#SVGID_2_);fill:#FFFFFF;}
	.st3{clip-path:url(#SVGID_2_);}
	.st4{fill:#505050;}
	.st5{fill:#9DC3E7;}
	.st6{fill:#FFFFFF;}
	.st7{fill:#FFAF9B;}
	.st8{fill:#FFCFBA;}
	.st9{fill:#B5D1ED;}
	.st10{fill:#F76E57;}
	.st11{fill:#00A0E9;}
	.st12{clip-path:url(#SVGID_4_);fill:#FFFFFF;}
	.st13{clip-path:url(#SVGID_4_);}
	.st14{fill:none;stroke:#B2E2F8;stroke-width:2;stroke-miterlimit:10;}
	.st15{clip-path:url(#SVGID_6_);}
	.st16{clip-path:url(#SVGID_8_);}
	.st17{fill:#F3BF9B;}
	.st18{fill:#D8E5F5;}
	.st19{fill:#FDE2A4;}
	.st20{fill:#231815;}
	.st21{fill:#C0D7EF;}
	.st22{clip-path:url(#SVGID_10_);}
</style>
<g>
	<path class="st6" d="M925.1,845c1.5,1.5,1.5,3.8,0,5.3l0,0c-1.5,1.5-3.8,1.5-5.3,0l0,0c-1.5-1.5-1.5-3.8,0-5.3l0,0
		C921.2,843.5,923.6,843.5,925.1,845z M991.2,911.1c1.5,1.5,1.5,3.8,0,5.3l0,0c-1.5,1.5-3.8,1.5-5.3,0l0,0c-1.5-1.5-1.5-3.8,0-5.3
		l0,0C987.4,909.6,989.7,909.6,991.2,911.1z M1004.4,924.3c1.5,1.5,1.5,3.8,0,5.3l0,0c-1.5,1.5-3.8,1.5-5.3,0l0,0
		c-1.5-1.5-1.5-3.8,0-5.3l0,0C1000.6,922.8,1002.9,922.8,1004.4,924.3z"/>
	<path class="st6" d="M938.3,858.2c1.5,1.5,1.5,3.8,0,5.3l0,0c-1.5,1.5-3.8,1.5-5.3,0l0,0c-1.5-1.5-1.5-3.8,0-5.3l0,0
		C934.5,856.7,936.8,856.7,938.3,858.2z"/>
	<path class="st6" d="M978,897.9c1.5,1.5,1.5,3.8,0,5.3l0,0c-1.5,1.5-3.8,1.5-5.3,0l0,0c-1.5-1.5-1.5-3.8,0-5.3l0,0
		C974.1,896.4,976.5,896.4,978,897.9z"/>
	<path class="st6" d="M964.7,884.6c1.5,1.5,1.5,3.8,0,5.3l0,0c-1.5,1.5-3.8,1.5-5.3,0l0,0c-1.5-1.5-1.5-3.8,0-5.3l0,0
		C960.9,883.2,963.3,883.2,964.7,884.6z"/>
	<path class="st6" d="M951.5,871.4c1.5,1.5,1.5,3.8,0,5.3l0,0c-1.5,1.5-3.8,1.5-5.3,0l0,0c-1.5-1.5-1.5-3.8,0-5.3l0,0
		C947.7,870,950.1,870,951.5,871.4z"/>
</g>
</svg>
