<?xml version="1.0" encoding="utf-8"?>
<!-- Generator: Adobe Illustrator 24.1.3, SVG Export Plug-In . SVG Version: 6.00 Build 0)  -->
<svg version="1.1" id="レイヤー_1" xmlns="http://www.w3.org/2000/svg" xmlns:xlink="http://www.w3.org/1999/xlink" x="0px"
	 y="0px" viewBox="0 0 1440 1440" style="enable-background:new 0 0 1440 1440;" xml:space="preserve">
<style type="text/css">
	.st0{fill:#FFFFFF;}
	.st1{opacity:0.3;}
	.st2{fill:#B2E2F8;}
	.st3{fill:#FF7A44;}
	.st4{fill:#00A0E9;}
	.st5{clip-path:url(#SVGID_2_);fill:#FFFFFF;}
	.st6{clip-path:url(#SVGID_2_);}
	.st7{fill:#CBDDF2;}
	.st8{fill:#C0D7EF;}
	.st9{fill:#D8E5F5;}
	.st10{fill:#B5D1ED;}
	.st11{fill:#8AB9E3;}
	.st12{clip-path:url(#SVGID_4_);fill:#FFFFFF;}
	.st13{clip-path:url(#SVGID_4_);}
	.st14{fill:#9DC3E7;}
	.st15{clip-path:url(#SVGID_6_);fill:#FFFFFF;}
	.st16{clip-path:url(#SVGID_6_);}
	.st17{fill:#E9F0F9;}
	.st18{clip-path:url(#SVGID_8_);fill:#FFFFFF;}
	.st19{clip-path:url(#SVGID_8_);}
	.st20{fill:#505050;}
	.st21{fill:#FFAF9B;}
	.st22{fill:#FFCFBA;}
	.st23{fill:#F76E57;}
	.st24{clip-path:url(#SVGID_10_);fill:none;}
	.st25{clip-path:url(#SVGID_10_);}
	.st26{fill:#47C9DE;}
	.st27{clip-path:url(#SVGID_12_);fill:none;}
	.st28{clip-path:url(#SVGID_12_);}
	.st29{fill:#FFDA65;}
	.st30{clip-path:url(#SVGID_14_);fill:#FFFFFF;}
	.st31{clip-path:url(#SVGID_14_);}
	.st32{clip-path:url(#SVGID_16_);fill:none;}
	.st33{clip-path:url(#SVGID_16_);}
	.st34{clip-path:url(#SVGID_18_);fill:none;}
	.st35{clip-path:url(#SVGID_18_);}
	.st36{clip-path:url(#SVGID_20_);}
	.st37{clip-path:url(#SVGID_22_);}
	.st38{clip-path:url(#SVGID_24_);}
	.st39{clip-path:url(#SVGID_26_);fill:#FFFFFF;}
	.st40{clip-path:url(#SVGID_26_);fill:#505050;}
	.st41{clip-path:url(#SVGID_26_);fill:#9DC3E7;}
	.st42{clip-path:url(#SVGID_26_);fill:#FFAF9B;}
	.st43{clip-path:url(#SVGID_26_);fill:#FFCFBA;}
	.st44{clip-path:url(#SVGID_26_);}
	.st45{clip-path:url(#SVGID_28_);fill:none;}
	.st46{clip-path:url(#SVGID_28_);}
	.st47{clip-path:url(#SVGID_30_);fill:none;}
	.st48{clip-path:url(#SVGID_30_);}
	.st49{clip-path:url(#SVGID_32_);fill:none;}
	.st50{clip-path:url(#SVGID_32_);}
	.st51{clip-path:url(#SVGID_34_);fill:#FFCFBA;}
	.st52{clip-path:url(#SVGID_34_);fill:#505050;}
	.st53{clip-path:url(#SVGID_34_);fill:#B2E2F8;}
	.st54{clip-path:url(#SVGID_36_);fill:#FFFFFF;}
	.st55{clip-path:url(#SVGID_36_);fill:#505050;}
	.st56{clip-path:url(#SVGID_36_);fill:#9DC3E7;}
	.st57{clip-path:url(#SVGID_36_);fill:#FFAF9B;}
	.st58{clip-path:url(#SVGID_36_);fill:#FFCFBA;}
	.st59{clip-path:url(#SVGID_36_);}
	.st60{clip-path:url(#SVGID_38_);fill:#FFCFBA;}
	.st61{clip-path:url(#SVGID_38_);fill:#505050;}
	.st62{clip-path:url(#SVGID_38_);fill:#B2E2F8;}
	.st63{clip-path:url(#SVGID_40_);fill:none;}
	.st64{clip-path:url(#SVGID_40_);}
	.st65{clip-path:url(#SVGID_42_);fill:#FFCFBA;}
	.st66{clip-path:url(#SVGID_42_);fill:#505050;}
	.st67{clip-path:url(#SVGID_42_);fill:#B2E2F8;}
</style>
<polygon class="st0" points="1067.5,758.4 867.9,871.9 1061.7,811.3 "/>
<g>
	<path class="st0" d="M1420,861.2c0,3.1-2.6,5.7-5.7,5.7h-408.5c-3.1,0-5.7-2.6-5.7-5.7V572.1c0-3.1,2.6-5.7,5.7-5.7h408.5
		c3.1,0,5.7,2.6,5.7,5.7V861.2z"/>
</g>
<path class="st2" d="M1352.9,589.6h-289.9c-4.9,0-8.9,4-8.9,8.9v192.9c0,4.9,4,8.9,8.9,8.9h289.9c4.9,0,8.9-4,8.9-8.9V598.5
	C1361.8,593.6,1357.8,589.6,1352.9,589.6z"/>
<path class="st0" d="M1337.4,606.1h-259.3c-5,0-9.1,4-9.1,8.9v160c0,4.9,4.1,8.9,9.1,8.9h259.3c5,0,9.1-4,9.1-8.9V615
	C1346.6,610.1,1342.5,606.1,1337.4,606.1z"/>
<g>
	<defs>
		<circle id="SVGID_35_" cx="1169.3" cy="696.1" r="71.8"/>
	</defs>
	<clipPath id="SVGID_2_">
		<use xlink:href="#SVGID_35_"  style="overflow:visible;"/>
	</clipPath>
	<circle class="st5" cx="1169.3" cy="696.1" r="71.8"/>
	<polygon style="clip-path:url(#SVGID_2_);fill:#505050;" points="1167,719 1166.8,718.2 1166.8,717.4 1167,716.7 1166.6,715.9 
		1166.7,715.1 1166.6,714.4 1166.6,713.6 1166.5,712.9 1166.5,712.1 1166.4,711.3 1166.4,710.6 1166.2,709.8 1166.4,709 
		1166.1,708.3 1166.1,707.5 1166.1,706.7 1166,706 1166.3,705.2 1165.9,704.5 1165.8,703.7 1166,702.9 1165.9,702.1 1165.6,701.4 
		1165.6,700.6 1165.7,699.9 1165.6,699.2 1164.9,699 1164.2,698.6 1163.5,698.5 1162.7,698.2 1161.9,698.2 1161.2,697.9 
		1160.5,697.8 1159.8,697.2 1159.1,697.1 1158.3,696.8 1157.6,696.7 1156.8,696.6 1156,696.4 1155.3,696.2 1154.6,695.9 
		1153.8,695.7 1153.1,695.4 1152.4,695.2 1151.7,695 1150.9,695 1150.1,694.8 1149.4,694.5 1148.6,694.5 1147.9,694.2 1147.1,694 
		1146.5,693.6 1146.4,693.6 1145.6,693.5 1144.9,693.7 1144.1,693.7 1143.4,694.2 1142.5,694 1141.8,694.2 1141,694.6 1140.3,694.8 
		1139.8,695.5 1138.9,695.6 1138.3,696.1 1137.7,696.7 1137.1,697.2 1136.6,697.7 1136,698.2 1135.4,698.8 1134.8,699.3 
		1134.3,699.9 1134.2,700.7 1133.6,701.3 1133.2,702 1132.8,702.7 1132.8,703.5 1132.4,704.2 1132.2,704.9 1131.9,705.7 
		1131.8,706.4 1131.8,707.2 1131.6,708 1132,708.7 1131.7,709.5 1131.8,710.3 1131.9,711 1131.7,711.8 1131.8,712.5 1131.7,713.3 
		1131.5,714 1131.6,714.8 1131.4,715.6 1131.2,716.3 1131.4,717.1 1131.1,717.9 1130.8,718.6 1130.3,719.2 1129.9,719.8 
		1129.7,720.6 1129.1,721.2 1128.7,721.8 1128.1,722.3 1127.6,722.9 1127.1,723.4 1126.6,724.1 1126,724.6 1125.4,725 1124.7,725.4 
		1124,725.8 1123.2,725.8 1122.5,726 1121.7,726.4 1121,726.3 1120.2,726.6 1119.4,726.5 1118.6,726.3 1117.9,725.9 1117.1,725.9 
		1116.3,725.6 1115.6,725.4 1115,724.8 1114.3,724.5 1113.4,724.5 1112.8,724 1112,723.8 1111.4,723.3 1110.6,722.6 1110.9,723.5 
		1111,724.3 1111.2,725 1111.4,725.7 1111.7,726.4 1111.8,727.1 1112.2,727.8 1112.9,728.2 1113.1,728.9 1113.6,729.6 1114.2,730 
		1114.7,730.5 1115.1,731.1 1115.9,731.3 1116.5,731.8 1117.2,732 1117.9,732.2 1118.6,732.4 1119.2,732.9 1120,733.1 1120.7,733.1 
		1121.5,733.2 1122.3,733 1123,733.1 1123.8,733.2 1124.6,733.2 1125.3,733.1 1126.1,733.3 1126.9,733.1 1127.6,733.4 1128.4,733.2 
		1129.2,733.2 1130,733.2 1130.7,733.2 1131.5,733.7 1132.3,733.5 1133,733.5 1133.8,733.6 1134.6,733.5 1135.3,733.4 1136.1,733.8 
		1136.9,733.5 1137.6,733.6 1138.4,733.7 1139.2,733.9 1139.9,733.8 1140.7,733.8 1141.5,733.9 1142.2,734.1 1143,733.9 
		1143.8,734.1 1144.6,733.9 1145.3,734 1146.1,733.9 1146.9,734.1 1147.6,734 1148.4,734.1 1149.1,733.9 1149.8,733.5 1150.3,732.9 
		1150.9,732.4 1151.6,732.1 1152,731.5 1152.9,731.3 1153.3,730.6 1154,730.3 1154.7,730.1 1155.3,729.6 1155.9,729.1 1156.5,728.6 
		1157.1,728.2 1157.6,727.6 1158.3,727.1 1159.1,727 1159.7,726.5 1160.3,726.1 1161,725.7 1161.5,725.1 1162,724.6 1162.6,724.1 
		1163.5,724 1163.9,723.3 1164.7,723.1 1165.3,722.6 1166,722.3 1166.5,721.7 1167,721.2 1167.2,720.5 1167.2,719.7 	"/>
	<polygon style="clip-path:url(#SVGID_2_);fill:#9DC3E7;" points="1229.1,779.7 1229.3,779 1229.3,778.2 1229.1,777.4 1228.9,776.7 
		1229.2,775.9 1229.3,775.1 1229,774.3 1229.2,773.6 1229.3,772.8 1228.9,772 1229.2,771.2 1229.3,770.5 1229.1,769.7 1229.1,768.9 
		1228.9,768.1 1228.9,767.4 1229.3,766.6 1229.3,765.8 1228.9,765 1229.2,764.3 1229.1,763.5 1229.2,762.7 1229.1,762 1228.9,761.2 
		1229.2,760.4 1228.9,759.6 1229.2,758.9 1228.9,758.1 1229,757.3 1228.9,756.5 1228.9,755.8 1229.2,755 1229.1,754.2 1229.1,753.5 
		1228.9,752.7 1229,751.9 1229,751.1 1228.9,750.4 1229.1,749.6 1228.9,748.8 1228.9,748.1 1228.7,747.3 1229,746.5 1228.7,745.8 
		1228.3,745.1 1228.2,744.4 1227.9,743.7 1227.7,742.9 1227.6,742.2 1227.5,741.4 1226.8,740.9 1226.4,740.2 1226.1,739.5 
		1225.9,738.8 1225.4,738.1 1225.1,737.4 1224.6,736.8 1224,736.4 1223.3,735.9 1222.8,735.4 1222.3,734.8 1221.8,734.2 
		1221.3,733.6 1220.7,733.1 1219.9,732.9 1219.4,732.3 1218.7,731.9 1218,731.7 1217.5,731 1216.7,730.8 1215.9,730.7 1215.4,730.1 
		1214.7,729.8 1214,729.4 1213.2,729.4 1212.6,728.9 1211.8,728.7 1211.1,728.5 1210.4,728.2 1209.6,728 1208.9,727.7 1208.2,727.4 
		1207.4,727.4 1206.7,727.1 1206.1,726.6 1205.2,726.7 1204.5,726.4 1203.8,726.1 1203.1,725.8 1202.3,725.7 1201.6,725.5 
		1200.9,725.1 1200.2,725 1199.5,724.6 1198.8,724.2 1198,724.2 1197.2,724.1 1196.6,723.7 1195.8,723.5 1195.2,723 1194.3,723.1 
		1193.6,722.8 1192.9,722.5 1192.1,722.6 1191.4,722.2 1190.7,721.8 1190,721.7 1189.3,721.4 1188.4,721.5 1187.8,720.9 
		1187.1,720.6 1186.3,720.6 1185.5,720.5 1184.9,720 1184.1,720.1 1183.3,719.9 1182.7,719.6 1181.9,719.6 1181.1,719.6 
		1180.4,719.6 1179.6,719.5 1178.8,719.5 1178.1,719.5 1177.3,719.6 1176.6,719.6 1175.8,719.6 1175,719.5 1174.3,719.8 
		1173.5,719.7 1172.8,719.8 1172,719.7 1171.2,719.8 1170.5,719.7 1169.7,719.6 1169,719.8 1168.2,719.7 1167.4,719.5 1166.7,719.5 
		1165.9,719.5 1165.2,719.5 1164.4,719.9 1163.6,719.5 1162.9,719.8 1162.1,719.7 1161.4,719.7 1160.6,719.7 1159.8,719.8 
		1159.1,719.8 1158.3,719.9 1157.6,719.8 1156.8,720 1156,719.7 1155.3,719.6 1154.5,719.7 1153.8,719.6 1153,719.7 1152.3,720.3 
		1151.6,720.5 1150.8,720.5 1150,720.6 1149.3,720.9 1148.6,721.1 1147.9,721.5 1147.2,721.8 1146.4,721.8 1145.7,722.2 1145,722.5 
		1144.3,722.9 1143.4,722.7 1142.7,723 1142.1,723.4 1141.4,723.9 1140.7,724.1 1139.8,724.1 1139.2,724.5 1138.4,724.7 
		1137.7,724.8 1137,725.3 1136.3,725.5 1135.5,725.5 1134.8,725.9 1134,726.1 1133.4,726.5 1132.6,726.8 1131.9,726.9 1131.2,727.3 
		1130.4,727.3 1129.7,727.7 1129,728 1128.2,728 1127.5,728.3 1126.7,728.6 1126.2,729.2 1125.3,729.1 1124.7,729.6 1123.9,729.7 
		1123.3,730.2 1122.5,730.4 1121.9,730.8 1121.2,731.1 1120.4,731.4 1119.9,731.9 1119.3,732.5 1118.7,733 1117.9,733.1 
		1117.4,733.7 1116.9,734.4 1116.3,734.8 1115.7,735.2 1115.2,735.8 1114.5,736.2 1114,736.8 1113.6,737.5 1113.3,738.2 
		1112.8,738.8 1112.3,739.4 1112,740.1 1111.8,740.9 1111.4,741.5 1111,742.2 1110.9,742.9 1110.3,743.5 1110.2,744.3 1110.2,745.1 
		1109.7,745.8 1109.6,746.5 1109.9,747.3 1109.5,748.1 1109.7,748.8 1109.4,749.6 1109.6,750.3 1109.5,751.1 1109.7,751.9 
		1109.6,752.7 1109.3,753.5 1109.5,754.2 1109.6,755 1109.7,755.8 1109.6,756.6 1109.6,757.3 1109.5,758.1 1109.6,758.9 
		1109.7,759.6 1109.3,760.4 1109.3,761.2 1109.6,762 1109.5,762.7 1109.5,763.5 1109.6,764.3 1109.5,765.1 1109.7,765.8 
		1109.6,766.6 1109.7,767.4 1109.6,768.2 1109.5,768.9 1109.3,769.7 1109.7,770.5 1109.6,771.3 1109.7,772 1109.4,772.8 
		1109.6,773.6 1109.3,774.3 1109.3,775.1 1109.7,775.9 1109.5,776.7 1109.7,777.4 1109.5,778.2 1109.5,779 1109.5,779.8 
		1109.6,780.5 1109.5,781.3 1109.4,782.1 1229.3,782.1 1229.2,781.3 1229.3,780.5 	"/>
	<polygon class="st5" points="1190.1,723.9 1189.3,723.8 1188.5,723.9 1187.8,723.8 1187,723.9 1186.2,723.7 1185.5,723.9 
		1184.7,723.9 1184,723.8 1183.2,723.9 1182.4,723.9 1181.7,723.9 1180.9,723.7 1180.1,724 1179.4,724 1178.6,723.9 1177.8,723.8 
		1177.1,724 1176.3,723.5 1175.6,723.8 1174.8,723.9 1174,723.6 1173.3,723.7 1172.5,723.8 1171.7,723.6 1171,723.6 1170.2,723.5 
		1169.4,723.9 1168.7,723.8 1167.9,723.9 1167.2,723.8 1166.4,723.7 1165.6,723.6 1164.9,723.5 1164.1,723.5 1163.3,723.6 
		1162.6,723.9 1161.8,723.5 1161.1,723.5 1160.3,723.7 1159.5,723.5 1158.8,723.4 1158,723.7 1157.2,723.8 1156.5,723.8 
		1155.7,723.6 1155,723.7 1154.2,723.4 1153.4,723.5 1152.7,723.7 1151.9,723.8 1151.1,723.7 1150.4,723.5 1149.6,723.6 
		1148.9,723.7 1148.1,723.7 1147.3,723.5 1146.6,723.6 1146.8,724.3 1146.6,725.1 1147.1,725.8 1147.2,726.6 1147.1,727.3 
		1147.3,728.1 1147.3,728.8 1147.4,729.6 1147.6,730.4 1147.8,731.1 1148,731.8 1147.8,732.6 1147.9,733.4 1148.2,734.1 
		1148.3,734.9 1148.4,735.6 1148.5,736.4 1148.8,737.1 1148.9,737.9 1148.9,738.6 1148.9,739.4 1149.1,740.2 1149.4,740.9 
		1149.4,741.7 1149.6,742.4 1149.8,743.2 1149.8,743.9 1149.8,744.7 1149.8,745.5 1150.1,746.2 1150.3,746.9 1150,747.8 
		1150.3,748.5 1150.3,749.2 1150.6,750 1150.7,750.7 1151,751.5 1150.9,752.2 1150.9,753 1151.3,753.7 1151.5,754.5 1151.6,755.2 
		1151.4,756 1151.6,756.8 1151.9,757.5 1151.9,758.3 1151.9,759 1152.2,759.8 1152.2,760.5 1152.3,761.3 1152.3,762.1 1152.6,762.8 
		1152.7,763.6 1153,764.3 1152.8,765.1 1153.1,765.8 1153.1,766.6 1153.1,767.4 1153.3,768.1 1153.3,768.9 1153.7,769.6 
		1153.9,770.3 1153.6,771.1 1154.1,771.8 1154.3,772.6 1154.4,773.3 1154.5,774.1 1154.4,774.9 1154.5,775.6 1154.5,776.4 
		1154.9,777.1 1154.9,777.9 1155,778.6 1155.2,779.4 1155.1,780.1 1155.1,780.9 1155.4,781.7 1155.6,782.4 1180.9,782.4 
		1181.2,781.6 1181.2,780.9 1181.4,780.1 1181.7,779.4 1181.8,778.6 1182,777.9 1182,777.1 1182.2,776.4 1182.3,775.6 1182.4,774.9 
		1182.7,774.1 1182.7,773.4 1182.9,772.6 1183.2,771.9 1183,771.1 1183.2,770.4 1183.5,769.6 1183.7,768.9 1183.6,768.1 
		1183.6,767.3 1183.8,766.6 1184.2,765.9 1184.3,765.1 1184.2,764.3 1184.5,763.6 1184.5,762.8 1184.8,762.1 1185,761.4 1185,760.6 
		1184.9,759.8 1185.4,759.1 1185.6,758.4 1185.4,757.6 1185.5,756.8 1185.8,756.1 1186,755.4 1186,754.6 1186.2,753.8 1186.4,753.1 
		1186.3,752.3 1186.7,751.6 1186.7,750.8 1187.1,750.1 1186.9,749.3 1187.1,748.6 1187.3,747.8 1187.5,747.1 1187.7,746.4 
		1187.7,745.6 1187.9,744.8 1188,744.1 1188,743.3 1188.4,742.6 1188.3,741.8 1188.4,741.1 1188.6,740.3 1188.6,739.5 1188.7,738.8 
		1188.9,738.1 1189.1,737.3 1189.5,736.6 1189.3,735.8 1189.6,735.1 1189.8,734.4 1190,733.6 1189.9,732.8 1190.3,732.1 1190,731.3 
		1190.3,730.6 1190.6,729.9 1190.6,729.1 1190.8,728.3 1191.1,727.6 1191.2,726.9 1191.1,726.1 1191.3,725.3 1191.3,724.6 
		1191.5,723.9 1190.8,723.9 	"/>
	<path style="clip-path:url(#SVGID_2_);fill:#FFAF9B;" d="M1182.9,713.6c0-0.4,0.1-0.4,0.1-0.8c0-0.4,0.1-0.4,0-0.8
		c0-0.4-0.2-0.4-0.2-0.8c0-0.4,0-0.4,0-0.8c0-0.4,0.2-0.4,0.2-0.8c0-0.4-0.2-0.4-0.2-0.8c0-0.4-0.2-0.4-0.3-0.8
		c0-0.4,0.1-0.4,0.1-0.8c0-0.4,0-0.4,0-0.8c0-0.4,0.1-0.4,0.1-0.8s0.2-0.5-0.1-0.8c-0.3-0.3-0.4-0.1-0.8-0.1s-0.4-0.1-0.8-0.1
		c-0.4,0-0.4,0.1-0.8,0.1s-0.4-0.1-0.8-0.1c-0.4,0-0.4,0.3-0.8,0.3c-0.4,0-0.4-0.1-0.8-0.1c-0.4,0-0.4-0.1-0.8-0.1
		c-0.4,0-0.4,0.2-0.8,0.2c-0.4,0-0.4-0.1-0.8-0.1c-0.4,0-0.4-0.1-0.8-0.1c-0.4,0-0.4,0.1-0.8,0.1c-0.4,0-0.4-0.1-0.8-0.1
		s-0.4,0.2-0.8,0.2c-0.4,0-0.4,0-0.8,0c-0.4,0-0.4-0.3-0.8-0.3c-0.4,0-0.4,0.3-0.8,0.3c-0.4,0-0.4-0.3-0.8-0.3c-0.4,0-0.4,0-0.8,0
		c-0.4,0-0.4,0.2-0.8,0.2c-0.4,0-0.4-0.3-0.8-0.3c-0.4,0-0.4,0.4-0.8,0.4c-0.4,0-0.4-0.3-0.8-0.3c-0.4,0-0.4,0.3-0.8,0.3
		c-0.4,0-0.4-0.3-0.8-0.3c-0.4,0-0.4-0.1-0.8-0.1c-0.4,0-0.4,0.2-0.8,0.2s-0.4-0.1-0.8-0.1s-0.4,0-0.8,0c-0.4,0-0.4-0.1-0.8-0.1
		c-0.4,0-0.4,0.4-0.8,0.4c-0.4,0-0.4-0.2-0.8-0.2s-0.4,0.3-0.8,0.3c-0.4,0-0.4-0.2-0.8-0.2c-0.4,0-0.4-0.2-0.8-0.2s-0.4,0-0.7,0.3
		c-0.3,0.3-0.3,0.3-0.3,0.7c0,0.4,0.3,0.4,0.3,0.8c0,0.4-0.2,0.4-0.2,0.8c0,0.4-0.2,0.4-0.2,0.8c0,0.4,0.1,0.4,0.1,0.8
		c0,0.4,0.1,0.4,0.1,0.8c0,0.4-0.2,0.4-0.2,0.8s0,0.4,0,0.8c0,0.4,0,0.4,0,0.8c0,0.4,0.2,0.4,0.2,0.8c0,0.4-0.1,0.4,0,0.8
		c0.2,0.2,0.5,0.2,0.7,0.4c0.2,0.2,0.3,0.5,0.5,0.7c0.2,0.2,0.5,0.2,0.7,0.4c0.2,0.2,0.4,0.3,0.6,0.5c0.2,0.1,0.4,0.5,0.6,0.6
		c0.2,0.1,0.5,0.2,0.7,0.3c0.2,0.1,0.4,0.4,0.7,0.5c0.2,0.1,0.6-0.1,0.9,0c0.2,0.1,0.5,0.2,0.7,0.3c0.2,0.1,0.4,0.4,0.7,0.4
		c0.3,0.1,0.5,0.2,0.8,0.3c0.3,0.1,0.5,0.3,0.7,0.4c0.3,0.1,0.5,0.1,0.8,0.2c0.3,0.1,0.6-0.1,0.8-0.1c0.3,0.1,0.5,0.1,0.8,0.1
		c0.3,0.1,0.5,0.4,0.7,0.5c0.3,0,0.6-0.1,0.8,0c0.3,0,0.5,0.1,0.8,0.1c0.3,0,0.5,0,0.8,0.1c0.3,0,0.5,0.3,0.8,0.3c0.3,0,0.5,0,0.8,0
		c0.3,0,0.5-0.1,0.8-0.1c0.3,0,0.5-0.1,0.8-0.1c0.3,0,0.5-0.1,0.8-0.1c0.3,0,0.5,0.1,0.8,0.1c0.3,0,0.5-0.2,0.8-0.2
		c0.3,0,0.6,0.1,0.8,0c0.3,0,0.6-0.1,0.8-0.1c0.3-0.1,0.6,0,0.9-0.1c0.3-0.1,0.5-0.3,0.8-0.4c0.3-0.1,0.6-0.1,0.8-0.2
		c0.3-0.1,0.6-0.1,0.8-0.2c0.3-0.1,0.4-0.5,0.7-0.6c0.3-0.1,0.4-0.4,0.7-0.5c0.2-0.1,0.5-0.2,0.8-0.4c0.2-0.2,0.5-0.3,0.7-0.4
		c0.2-0.2,0.4-0.5,0.6-0.6c0.2-0.2,0.7-0.2,0.9-0.4c0.1-0.4-0.2-0.4-0.3-0.9C1183,714,1182.9,714,1182.9,713.6z"/>
	<path style="clip-path:url(#SVGID_2_);fill:#FFCFBA;" d="M1190.5,723.7c-0.4-0.2-0.3-0.4-0.6-0.5c-0.4-0.2-0.5,0-0.8-0.1
		c-0.4-0.2-0.3-0.3-0.7-0.4c-0.4-0.2-0.3-0.2-0.7-0.4c-0.4-0.2-0.3-0.3-0.7-0.4c-0.4-0.2-0.4-0.1-0.8-0.3c-0.4-0.2-0.4,0-0.8-0.1
		c-0.4-0.2-0.4,0-0.8-0.2c-0.4-0.2-0.3-0.3-0.7-0.4c-0.4-0.1-0.4-0.1-0.6-0.5c-0.2-0.4,0.1-0.4,0.1-0.8c0-0.4-0.4-0.4-0.4-0.9
		c0-0.4,0.3-0.4,0.3-0.9c0-0.4-0.1-0.4-0.1-0.9c0-0.4,0.1-0.4,0.1-0.9c0-0.4,0.1-0.5-0.1-0.9c-0.2,0.2-0.7,0.2-0.9,0.4
		c-0.2,0.2-0.2,0.6-0.5,0.8c-0.2,0.2-0.5,0.3-0.7,0.5c-0.2,0.2-0.5,0.3-0.7,0.5c-0.2,0.1-0.6,0.1-0.9,0.2c-0.3,0.1-0.5,0.4-0.7,0.5
		c-0.3,0.1-0.5,0.2-0.8,0.3c-0.3,0.1-0.6,0-0.9,0.1c-0.3,0.1-0.5,0.1-0.8,0.2c-0.3,0.1-0.5,0.4-0.8,0.4c-0.3,0.1-0.6,0-0.8,0.1
		c-0.3,0-0.5,0.3-0.8,0.3c-0.3,0-0.6,0.1-0.9,0.1c-0.3,0-0.5,0.1-0.8,0.1c-0.3,0-0.5-0.2-0.8-0.2c-0.3,0-0.5,0.1-0.8,0.1
		c-0.3,0-0.5-0.3-0.8-0.3c-0.3,0-0.5,0.2-0.8,0.2c-0.3,0-0.5,0.1-0.8,0.1c-0.3,0-0.5-0.3-0.8-0.3c-0.3,0-0.5-0.1-0.8-0.1
		c-0.3,0-0.5,0-0.8,0c-0.3,0-0.6,0-0.8,0s-0.5-0.3-0.7-0.4c-0.3-0.1-0.5-0.3-0.7-0.3c-0.3-0.1-0.6,0-0.8,0c-0.3-0.1-0.6,0.1-0.8,0
		c-0.3-0.1-0.4-0.5-0.6-0.6c-0.3-0.1-0.6,0.1-0.9,0c-0.3-0.1-0.4-0.3-0.7-0.5c-0.2-0.1-0.5-0.3-0.7-0.4c-0.2-0.1-0.6,0-0.8-0.1
		c-0.2-0.1-0.4-0.3-0.7-0.5c-0.2-0.1-0.4-0.4-0.6-0.5c-0.2-0.1-0.6-0.1-0.8-0.2c-0.2-0.2-0.2-0.6-0.5-0.7c-0.2-0.2-0.6-0.1-0.8-0.3
		c-0.2-0.2-0.1-0.4-0.3-0.6c-0.1,0.4-0.2,0.4-0.2,0.8c0,0.4,0,0.4,0,0.9c0,0.4-0.1,0.4-0.1,0.9c0,0.4,0.1,0.4,0.1,0.9
		c0,0.4,0,0.4,0,0.9c0,0.4-0.3,0.4-0.3,0.9c0,0.4,0,0.4,0,0.9s0.3,0.5,0.1,0.8c-0.2,0.3-0.3,0.2-0.7,0.3c-0.4,0.1-0.4,0.1-0.8,0.3
		c-0.4,0.1-0.4,0.1-0.8,0.3s-0.3,0.3-0.7,0.4c-0.4,0.1-0.4,0.2-0.7,0.3c-0.4,0.1-0.5-0.2-0.9,0c-0.4,0.1-0.4,0-0.8,0.1
		c-0.4,0.1-0.2,0.5-0.6,0.6c-0.4,0.1-0.4,0-0.8,0.1c-0.4,0.1-0.3,0.3-0.7,0.4c-0.4,0.1-0.4-0.1-0.7,0.2c-0.3,0.3,0.1,0.1,0.5,0.4
		c0.2,0.2,0.3,0.4,0.6,0.6c0.2,0.2,0.5,0.2,0.7,0.4c0.2,0.2,0.3,0.5,0.5,0.7c0.2,0.2,0.4,0.4,0.6,0.6c0.2,0.2,0.3,0.4,0.5,0.6
		c0.2,0.2,0.3,0.4,0.5,0.6c0.2,0.2,0.5,0.3,0.7,0.5c0.2,0.2,0.5,0.2,0.7,0.4c0.2,0.2,0.2,0.5,0.4,0.7c0.2,0.2,0.4,0.3,0.6,0.5
		c0.2,0.2,0.4,0.3,0.6,0.5c0.2,0.2,0.4,0.3,0.6,0.5c0.2,0.2,0.4,0.3,0.6,0.5c0.2,0.2,0.4,0.3,0.7,0.5c0.2,0.2,0.6,0,0.9,0.2
		c0.2,0.2,0.2,0.7,0.4,0.8c0.2,0.2,0.5,0.3,0.7,0.4c0.2,0.2,0.4,0.4,0.6,0.5c0.2,0.2,0.7,0,0.9,0.2c0.2,0.2,0.4,0.4,0.6,0.5
		c0.2,0.2,0.4,0.4,0.6,0.6c0.2,0.1,0.6,0.1,0.8,0.2c0.2,0.1,0.4,0.3,0.7,0.5c0.2,0.1,0.5,0.2,0.7,0.4c0.2,0.1,0.5,0.3,0.7,0.4
		c0.2,0.1,0.5,0.3,0.7,0.4c0.2,0.1,0.5,0.3,0.7,0.4c0.2,0.1,0.5,0.3,0.7,0.4c0.3,0.1,0.5,0.1,0.8,0.2c0.3,0.1,0.5,0.3,0.7,0.4
		c0.3,0.1,0.5,0.1,0.8,0.2c0.3,0.1,0.6-0.1,0.8-0.1c0.3,0,0.5,0,0.8,0c0.3,0,0.5,0,0.8,0c0.3,0,0.6,0.1,0.9,0.1
		c0.3-0.1,0.5-0.4,0.7-0.4c0.3-0.1,0.6,0.2,0.9,0.1c0.3-0.1,0.5-0.2,0.8-0.3c0.3-0.1,0.4-0.5,0.7-0.6c0.2-0.1,0.5-0.2,0.8-0.3
		c0.2-0.1,0.6,0,0.9-0.2c0.2-0.1,0.5-0.3,0.7-0.5c0.2-0.1,0.4-0.4,0.7-0.5c0.2-0.1,0.4-0.4,0.6-0.6c0.2-0.1,0.6-0.1,0.8-0.3
		c0.2-0.1,0.3-0.5,0.6-0.7c0.2-0.2,0.6-0.1,0.8-0.3c0.2-0.2,0.4-0.4,0.6-0.6c0.2-0.2,0.4-0.4,0.6-0.6c0.2-0.2,0.6-0.2,0.8-0.4
		c0.2-0.2,0.5-0.2,0.8-0.4c0.2-0.2,0.3-0.5,0.5-0.7c0.2-0.2,0.6-0.1,0.9-0.3c0.2-0.2,0.3-0.5,0.5-0.7c0.2-0.2,0.4-0.3,0.7-0.5
		c0.2-0.2,0.6-0.2,0.8-0.4c0.2-0.2,0.3-0.5,0.5-0.7c0.2-0.2,0.4-0.4,0.6-0.5c0.2-0.2,0.3-0.5,0.5-0.6c0.2-0.2,0.6-0.1,0.9-0.3
		c0.2-0.2,0.3-0.6,0.5-0.7c0.2-0.2,0.5-0.2,0.7-0.4c0.2-0.2,0.4-0.4,0.6-0.6c0.2-0.2,0.6-0.2,0.8-0.4c0.2-0.2,0.2-0.7,0.4-0.8
		c0.4-0.4,1.1-0.3,0.8-0.6C1191.1,723.5,1190.9,723.9,1190.5,723.7z"/>
	<g class="st6">
		<path class="st10" d="M1202.6,741.6c0,0,0,0.1,0,0.1c0,0,0,0,0,0.1C1202.7,741.9,1202.6,741.3,1202.6,741.6z"/>
		<path class="st10" d="M1203.2,744.1C1203.2,744.2,1203.2,744.2,1203.2,744.1C1203.2,744.1,1203.2,744,1203.2,744.1z"/>
		<path class="st10" d="M1202.4,741.2c0,0,0,0.1,0.1,0.1c0,0,0,0,0,0C1202.4,741.3,1202.4,741.3,1202.4,741.2z"/>
		<path class="st10" d="M1204.2,745.9c-0.1-0.3-0.2-0.6-0.4-0.8c0,0.2,0,0.3,0,0.5C1203.9,745.7,1204.1,745.8,1204.2,745.9z"/>
		<path class="st10" d="M1198.2,754.3C1198.2,754.3,1198.2,754.3,1198.2,754.3C1198.2,754.3,1198.2,754.3,1198.2,754.3
			c-0.1,0-0.1,0-0.2,0c0,0,0,0,0,0C1197.9,754.4,1198.1,754.3,1198.2,754.3z"/>
		<path class="st10" d="M1198.2,754.3C1198.2,754.3,1198.2,754.3,1198.2,754.3C1198.2,754.3,1198.3,754.3,1198.2,754.3
			C1198.3,754.3,1198.2,754.3,1198.2,754.3z"/>
		<path class="st10" d="M1200.3,753.2c0,0-0.1,0.1-0.1,0.1C1200,753.4,1200.5,753.1,1200.3,753.2z"/>
		<path class="st10" d="M1199.9,753.4C1199.9,753.4,1199.9,753.4,1199.9,753.4c-0.1,0-0.1,0-0.1,0.1
			C1199.6,753.5,1200.1,753.3,1199.9,753.4z"/>
		<path class="st10" d="M1198.3,754.3C1198.3,754.3,1198.2,754.3,1198.3,754.3c-0.1,0-0.1,0.1-0.1,0.1c0.2-0.1,0.4-0.2,0.5-0.3
			c-0.1,0-0.2,0.1-0.3,0.1C1198.3,754.2,1198.3,754.2,1198.3,754.3C1198.2,754.3,1198.3,754.3,1198.3,754.3z"/>
		<path class="st10" d="M1198.2,754.3c0,0,0.1-0.1,0.1-0.1c-0.1,0-0.2,0.1-0.3,0.1C1198.1,754.3,1198.1,754.3,1198.2,754.3
			C1198.2,754.3,1198.2,754.3,1198.2,754.3z"/>
		<path class="st10" d="M1203.3,751.6C1203.3,751.6,1203.3,751.6,1203.3,751.6c-0.1,0-0.2,0.1-0.2,0.1
			C1202.9,751.8,1203.4,751.6,1203.3,751.6z"/>
		<path class="st10" d="M1202,752.3c-0.1,0-0.2,0.1-0.3,0.1c-0.1,0.1-0.2,0.1-0.3,0.2C1201.6,752.5,1201.8,752.4,1202,752.3z"/>
		<path class="st10" d="M1205.7,751.2c0.3-0.5,0.6-1,0.8-1.5c-0.2,0.1-0.5,0.2-0.7,0.2c-0.2,0.1-0.3,0.2-0.5,0.3
			c0,0.1,0,0.2,0.1,0.3C1205.5,750.7,1205.6,751,1205.7,751.2z"/>
		<path class="st10" d="M1205.2,749.8C1205.2,749.8,1205.3,749.8,1205.2,749.8c0,0.1,0.1,0.1,0.1,0.2
			C1205.4,750.2,1205.2,749.7,1205.2,749.8z"/>
		<path class="st10" d="M1204.9,750.6C1204.9,750.6,1204.9,750.7,1204.9,750.6C1204.9,750.7,1204.8,750.7,1204.9,750.6
			C1204.6,750.9,1205.1,750.5,1204.9,750.6z"/>
		<path class="st10" d="M1204.7,748.4C1204.7,748.4,1204.7,748.4,1204.7,748.4c0,0.1,0.1,0.2,0.1,0.2
			C1204.9,748.8,1204.7,748.2,1204.7,748.4z"/>
		<path class="st10" d="M1200.1,728.7c0-0.1,0-0.2,0-0.3c-0.1-0.1-0.1-0.2-0.2-0.4C1200,728.3,1200,728.5,1200.1,728.7z"/>
		<path class="st10" d="M1205.6,744.2c0-0.1,0-0.2,0-0.3c-0.1-0.1-0.2-0.2-0.3-0.3C1205.4,743.8,1205.5,744,1205.6,744.2z"/>
		<path class="st10" d="M1206.2,745.8C1206.2,746.1,1206.2,745.8,1206.2,745.8C1206.2,745.8,1206.2,745.8,1206.2,745.8
			C1206.2,745.7,1206.2,745.7,1206.2,745.8C1206.1,745.6,1206.1,745.5,1206.2,745.8z"/>
		<path class="st10" d="M1205,742.5c0,0,0.1,0.4,0.1,0.2c0,0,0,0,0,0c0,0,0,0,0-0.1C1205.1,742.5,1205,742.5,1205,742.5z"/>
		<path class="st10" d="M1205,742.3C1205,742.2,1205,742.2,1205,742.3c0-0.1,0-0.2,0-0.2C1204.9,741.9,1205,742.4,1205,742.3z"/>
		<path class="st10" d="M1206.7,747c0,0,0-0.1-0.1-0.1c0,0,0,0,0-0.1C1206.5,746.7,1206.7,747.2,1206.7,747z"/>
		<path class="st10" d="M1204.1,739.6c0,0,0.1,0.3,0.1,0.2c0,0,0,0,0-0.1C1204.2,739.6,1204.2,739.6,1204.1,739.6z"/>
		<path class="st10" d="M1202.5,760.8C1202.5,760.8,1202.5,760.8,1202.5,760.8L1202.5,760.8z"/>
		<path class="st10" d="M1199.9,755.8c0.1,0,0.2,0,0.3-0.1c0.1-0.1,0.2-0.2,0.3-0.2C1200.2,755.6,1200.1,755.7,1199.9,755.8z"/>
		<path class="st10" d="M1206.5,752.3c0.1,0,0.2-0.1,0.3-0.1c0.1-0.1,0.1-0.1,0.2-0.2C1206.8,752.1,1206.7,752.2,1206.5,752.3z"/>
		<path class="st10" d="M1203.3,738.4c0-0.2,0.1-0.4,0.1-0.6c-0.1-0.1-0.2-0.2-0.2-0.4C1203.2,737.7,1203.2,738.1,1203.3,738.4z"/>
		<path class="st10" d="M1201.8,739.7C1201.8,739.7,1201.8,739.8,1201.8,739.7c0,0.1,0,0.1,0,0.1
			C1201.8,739.8,1201.8,739.7,1201.8,739.7z"/>
		<path class="st10" d="M1203.2,754.1c0.1,0,0.2,0,0.2-0.1c0.1-0.1,0.2-0.2,0.3-0.3C1203.5,753.9,1203.4,754,1203.2,754.1z"/>
		<path class="st10" d="M1201.9,754.8c0.1,0,0.2-0.1,0.3-0.1c0.1-0.1,0.2-0.1,0.3-0.2C1202.2,754.6,1202.1,754.7,1201.9,754.8z"/>
		<path class="st10" d="M1198.4,730.4c0,0.1,0.1,0.1,0.1,0.2C1198.5,730.8,1198.4,730.3,1198.4,730.4z"/>
		<path class="st10" d="M1199.2,732.5c0,0,0,0.1,0.1,0.2c0,0,0,0,0,0C1199.3,732.7,1199.3,732.6,1199.2,732.5z"/>
		<path class="st10" d="M1199.8,733.6c0,0.1,0,0.2,0,0.3c0.1,0.1,0.1,0.2,0.2,0.3C1199.9,734,1199.9,733.8,1199.8,733.6z"/>
		<path class="st10" d="M1200.2,735.1c0,0.1,0,0.2,0,0.4c0.1,0.1,0.1,0.2,0.1,0.2C1200.3,735.5,1200.3,735.3,1200.2,735.1z"/>
		<path class="st10" d="M1201.1,736.9c0,0.3-0.1,0.5-0.1,0.8c0.1,0.1,0.3,0.3,0.4,0.4C1201.3,737.6,1201.2,737.3,1201.1,736.9z"/>
		<path class="st10" d="M1202.7,735.8C1202.7,735.7,1202.7,735.7,1202.7,735.8c0-0.1,0-0.1,0-0.1
			C1202.6,735.4,1202.7,736.1,1202.7,735.8z"/>
		<path class="st10" d="M1202.2,734.4c0-0.1,0-0.2,0-0.3c-0.1-0.1-0.1-0.2-0.2-0.3C1202.1,734,1202.2,734.2,1202.2,734.4z"/>
		<path class="st10" d="M1202.8,736.3c0-0.1,0-0.2-0.1-0.3c-0.1-0.1-0.2-0.1-0.2-0.2C1202.6,735.9,1202.7,736.1,1202.8,736.3z"/>
		<path class="st10" d="M1196.9,754.9c-0.2,0-0.4,0-0.6,0.1c-0.1,0.1-0.2,0.2-0.2,0.3C1196.4,755.2,1196.7,755.1,1196.9,754.9z"/>
		<path class="st10" d="M1200.7,730.2c0,0,0.1,0.1,0.1,0.1C1200.8,730.3,1200.8,730.3,1200.7,730.2
			C1200.8,730.3,1200.7,730.3,1200.7,730.2z"/>
		<path class="st10" d="M1201.8,732.5c0,0,0-0.1-0.1-0.1c0,0,0,0,0,0C1201.6,732.2,1201.9,732.7,1201.8,732.5z"/>
		<path class="st10" d="M1207.2,748.4C1207.2,748.4,1207.2,748.3,1207.2,748.4C1207,748,1207.2,748.5,1207.2,748.4z"/>
		<path class="st10" d="M1205.5,766.5c0.1-0.1,0.1-0.2,0.2-0.2c0-0.1,0.1-0.2,0.1-0.3C1205.7,766.2,1205.6,766.3,1205.5,766.5z"/>
		<polygon class="st10" points="1201,774.4 1201,774.4 1201,774.4 		"/>
		<path class="st10" d="M1202.5,771.5c0-0.1,0.1-0.1,0.1-0.2c0-0.1,0-0.3,0-0.4C1202.7,771.1,1202.6,771.3,1202.5,771.5z"/>
		<path class="st10" d="M1200.1,775.5C1200.2,775.5,1200.2,775.5,1200.1,775.5C1200.3,775.3,1199.9,775.8,1200.1,775.5z"/>
		<path class="st10" d="M1202.8,771.1C1202.8,771,1202.8,771,1202.8,771.1c0.1-0.1,0.1-0.1,0.1-0.1
			C1203.1,770.7,1202.7,771.2,1202.8,771.1z"/>
		<path class="st10" d="M1204.4,768.5C1204.4,768.5,1204.4,768.4,1204.4,768.5c0.1-0.1,0.1-0.1,0.1-0.2
			C1204.6,768.1,1204.3,768.5,1204.4,768.5z"/>
		<path class="st10" d="M1201.8,773.1c0.1-0.1,0.1-0.1,0.2-0.2c0-0.1,0.1-0.2,0.1-0.3C1202,772.8,1201.9,772.9,1201.8,773.1z"/>
		<path class="st10" d="M1196,778.3c0,0,0,0.1-0.1,0.1C1195.8,778.7,1196,778.2,1196,778.3z"/>
		<path class="st10" d="M1194.8,780.7c-0.1,0.1-0.2,0.2-0.3,0.3c0,0.1,0,0.2,0,0.3C1194.6,781.1,1194.7,780.9,1194.8,780.7z"/>
		<path class="st10" d="M1198,779.2c0.1-0.1,0.2-0.2,0.4-0.3c0.1-0.1,0.1-0.3,0.2-0.4C1198.3,778.7,1198.1,778.9,1198,779.2z"/>
		<path class="st10" d="M1199.5,776.7c0,0,0.1-0.1,0.1-0.1c0,0,0-0.1,0-0.1C1199.6,776.3,1199.5,776.7,1199.5,776.7z"/>
		<path class="st10" d="M1196.9,781.3C1196.9,781.2,1196.9,781.2,1196.9,781.3C1196.9,781.2,1196.9,781.2,1196.9,781.3
			C1197,780.9,1196.7,781.4,1196.9,781.3z"/>
		<path class="st10" d="M1200.5,757.3C1200.4,757.3,1200.4,757.3,1200.5,757.3C1200.4,757.3,1200.4,757.3,1200.5,757.3
			C1200.5,757.3,1200.5,757.3,1200.5,757.3z"/>
		<path class="st10" d="M1197.2,756.8c-0.2,0.1-0.3,0.2-0.5,0.3c0,0.1,0.1,0.2,0.1,0.3C1196.9,757.2,1197,757,1197.2,756.8z"/>
		<path class="st10" d="M1197.5,756.7c0.2,0,0.4,0,0.6,0c0.1-0.1,0.2-0.2,0.3-0.3C1198,756.5,1197.7,756.6,1197.5,756.7z"/>
		<path class="st10" d="M1197.6,756.3c-0.1-0.1-0.2-0.1-0.2-0.2c-0.1,0-0.3,0-0.4,0C1197.2,756.2,1197.4,756.2,1197.6,756.3z"/>
		<path class="st10" d="M1206.7,764c0.2-0.1,0.3-0.2,0.5-0.4c0-0.1,0-0.2,0-0.4C1207.1,763.6,1206.9,763.8,1206.7,764z"/>
		<path class="st10" d="M1197.8,756.1c-0.1,0-0.3,0-0.4,0c0.1,0.1,0.1,0.1,0.2,0.2c-0.2-0.1-0.4-0.1-0.6-0.2c0.1,0,0.3,0,0.4,0
			c-0.1-0.1-0.3-0.2-0.4-0.3c-0.3-0.2-0.6-0.2-0.9-0.2c0.2,0.5,0.4,1,0.6,1.5c0.2-0.1,0.3-0.2,0.5-0.3c-0.1,0.2-0.2,0.4-0.4,0.5
			c0-0.1-0.1-0.2-0.1-0.3c-0.2,0.1-0.4,0.2-0.6,0.3c0.4,0,0.9,0,1.3-0.2c0.3-0.1,0.5-0.3,0.7-0.6c-0.2,0-0.4,0-0.6,0
			c0.3-0.1,0.6-0.2,0.8-0.4c-0.1,0.1-0.2,0.2-0.3,0.3c0.3,0,0.6-0.1,0.9-0.2c0,0,0,0,0.1,0c-0.1,0-0.1-0.1-0.2-0.1
			C1198.4,756.3,1198.1,756.1,1197.8,756.1z"/>
		<path class="st10" d="M1200.1,755.8c-0.1,0-0.2,0-0.3,0.1c0.2-0.1,0.4-0.2,0.5-0.3C1200.3,755.6,1200.2,755.7,1200.1,755.8
			c0.4-0.1,0.7-0.2,1.1-0.4c0.3-0.2,0.6-0.4,0.9-0.6c-0.1,0-0.2,0.1-0.3,0.1c0.2-0.1,0.4-0.2,0.5-0.3c-0.1,0.1-0.2,0.1-0.3,0.2
			c0.3-0.1,0.5-0.2,0.7-0.3c0.2-0.1,0.4-0.3,0.5-0.4c-0.1,0-0.2,0-0.2,0.1c0.2-0.1,0.4-0.2,0.5-0.3c-0.1,0.1-0.2,0.2-0.3,0.3
			c0.7-0.1,1.3-0.4,1.8-0.8c0.3-0.2,0.6-0.4,0.9-0.5c0.2-0.2,0.5-0.4,0.7-0.6c-0.1,0-0.2,0.1-0.3,0.1c0.2-0.1,0.4-0.2,0.5-0.3
			c-0.1,0.1-0.1,0.1-0.2,0.2c0.1,0,0.3-0.1,0.4-0.1c0.6-0.2,1.1-0.8,0.8-1.5c-0.2-0.5-0.3-0.9-0.4-1.4c-0.1-0.3-0.2-0.5-0.3-0.8
			c0,0.1-0.2-0.4,0-0.1c0,0,0,0,0,0.1c0,0,0,0,0,0c0-0.2-0.1-0.3-0.1-0.5c-0.1-0.3-0.2-0.5-0.3-0.8c-0.1-0.1-0.1-0.2-0.2-0.3
			c0,0,0,0.1,0.1,0.1c0.1,0.2-0.1-0.2-0.1-0.2c0,0,0,0,0,0.1c0,0,0,0,0-0.1c-0.1-0.2-0.2-0.4-0.2-0.6c0-0.1-0.1-0.3-0.1-0.4
			c0,0,0,0,0,0c0,0.1,0,0.3,0,0c0-0.3,0-0.1,0-0.1c0,0,0,0,0,0.1c0.1-0.6,0.1-1.1-0.3-1.5c-0.1-0.1-0.2-0.2-0.3-0.3
			c0,0.1,0,0.2,0,0.3c-0.1-0.2-0.2-0.4-0.3-0.5c0.1,0.1,0.2,0.2,0.3,0.3c0-0.2-0.1-0.3-0.1-0.5c-0.1-0.3-0.2-0.6-0.4-0.8
			c0,0,0,0,0,0c0,0.2-0.1-0.2-0.1-0.2c0,0,0,0.1,0.1,0.1c0,0,0,0,0,0.1c0-0.1-0.1-0.3-0.1-0.4c0,0,0,0,0,0c0,0,0,0,0,0.1
			c0,0.1-0.1-0.4,0-0.2c0,0.1,0,0.1,0,0.2c0-0.1,0-0.3,0-0.4c0-0.6-0.2-1.2-0.5-1.7c-0.1-0.1-0.2-0.3-0.3-0.4c0,0,0,0,0,0
			c0,0,0,0,0,0.1c0,0.1-0.1-0.2-0.1-0.2c0,0,0.1,0.1,0.1,0.1c0-0.3-0.1-0.7-0.3-0.9c-0.2-0.3-0.4-0.7-0.6-1c0,0.2-0.1,0.4-0.1,0.6
			c0-0.3-0.1-0.6-0.1-0.9c0.1,0.1,0.2,0.2,0.2,0.4c0.1-0.3,0.1-0.7,0-0.9c-0.1-0.4-0.4-0.6-0.7-0.9c0,0.1,0,0.2,0.1,0.3
			c-0.1-0.2-0.2-0.4-0.3-0.5c0.1,0.1,0.2,0.1,0.2,0.2c0-0.1,0-0.2-0.1-0.3c0,0,0,0,0,0.1c0,0.3-0.1-0.4,0-0.1c0,0,0,0,0,0.1
			c0-0.1,0-0.2,0-0.3c0-0.3,0-0.6-0.2-1c-0.1-0.1-0.1-0.2-0.2-0.3c0,0.1,0,0.2,0,0.3c-0.1-0.2-0.1-0.4-0.2-0.6
			c0.1,0.1,0.1,0.2,0.2,0.3c0-0.2,0-0.3,0-0.5c0-0.4-0.3-0.9-0.5-1.2c0,0,0,0.1,0.1,0.1c0.1,0.2-0.2-0.3-0.1-0.2c0,0,0,0,0,0
			c0,0,0-0.1,0-0.1c0-0.1-0.1-0.3-0.1-0.4c-0.1-0.3-0.3-0.7-0.4-1c-0.1-0.2-0.2-0.4-0.3-0.6c0,0,0,0,0,0c0.1,0.1,0,0.2,0,0
			c0,0,0,0,0,0c0,0,0-0.1-0.1-0.1c0,0,0.1,0.1,0.1,0.1c0-0.1,0-0.1,0-0.2c0-0.1,0-0.3-0.1-0.4c-0.1-0.4-0.4-0.9-0.6-1.3
			c0,0.1,0,0.2,0,0.3c-0.1-0.2-0.1-0.4-0.2-0.6c0.1,0.1,0.1,0.2,0.2,0.4c0-0.2,0-0.4,0-0.6c0-0.6-0.6-1.2-1.2-1.2
			c-0.7,0-1.1,0.5-1.2,1.2c0,0.3-0.1,0.6-0.1,0.8c0,0.4,0.3,0.9,0.5,1.3c0.1,0.2,0.1,0.3,0.2,0.5c0-0.1,0.1,0.3,0.1,0.2
			c0-0.1-0.1-0.1-0.1-0.2c0,0,0,0,0,0c0,0.1,0,0.2,0,0.3c0,0.1,0,0.3,0.1,0.4c0.1,0.3,0.4,0.6,0.5,0.9c0.1,0.1,0.1,0.3,0.2,0.4
			c0,0,0,0,0.1,0.1c0,0,0,0.1,0,0.1c0,0,0,0,0,0.1c0,0,0,0,0,0c0,0.1,0,0.1,0.1,0.2c0,0.1,0.1,0.2,0.1,0.3c0.1,0.2,0.2,0.4,0.3,0.7
			c0-0.1,0-0.2,0-0.3c0.1,0.2,0.1,0.4,0.2,0.6c-0.1-0.1-0.1-0.2-0.2-0.3c0,0.2,0,0.5,0,0.7c0,0.3,0.2,0.6,0.4,0.9c0-0.1,0-0.2,0-0.4
			c0.1,0.2,0.1,0.4,0.2,0.6c0-0.1-0.1-0.2-0.1-0.2c0,0.4,0.1,0.8,0.2,1.2c0.1,0.4,0.2,0.6,0.5,0.9c0,0,0.1,0.1,0.1,0.1
			c0-0.3,0.1-0.5,0.1-0.8c0.1,0.4,0.2,0.8,0.3,1.2c-0.1-0.1-0.3-0.3-0.4-0.4c0,0,0,0.1,0,0.1c-0.1,0.7,0.2,1,0.5,1.6
			c0.1,0.1,0.1,0.2,0.2,0.3c0,0.1,0.1,0.1,0.1,0.2c0,0,0,0,0-0.1c0,0,0,0.1,0,0.1c0,0,0,0,0,0c0.1,0.2,0,0.1,0,0c0,0,0,0,0,0
			c0,0.3,0.2,0.8,0.3,1c0.1,0.2,0.2,0.3,0.3,0.5c0,0,0,0,0,0c0-0.1,0-0.2,0-0.1c0,0.1,0,0.1,0.1,0.2c0,0,0,0,0,0.1c0,0,0,0,0,0
			c0,0,0,0,0,0c0,0.1,0.1,0.3,0.1,0.4c0,0,0-0.1,0-0.1c0-0.2,0.1,0.3,0,0.2c0,0,0,0,0-0.1c0,0.1,0,0.1,0,0.2c0,0.4,0.1,0.8,0.1,1.1
			c0.1,0.4,0.2,0.7,0.4,1.1c0,0,0,0,0,0.1c0-0.1,0,0,0,0.1c0,0,0,0.1,0.1,0.1c0,0,0-0.1-0.1-0.1c0,0,0-0.1,0-0.1c0,0,0,0,0,0.1
			c0,0.2,0.1,0.4,0.1,0.6c0.1,0.3,0.3,0.5,0.5,0.7c0-0.2,0-0.3,0-0.5c0.1,0.3,0.2,0.6,0.4,0.8c-0.1-0.1-0.3-0.3-0.4-0.4
			c0,0.1,0,0.2,0,0.4c0,0.3,0.2,0.7,0.3,1c0.2,0.5,0.4,1.1,0.7,1.5c0,0,0-0.1,0-0.1c0-0.2,0.2,0.4,0.1,0.2c0,0,0-0.1-0.1-0.1
			c0,0,0,0.1,0,0.1c0,0.2,0.1,0.3,0.1,0.5c0.1,0.3,0.2,0.5,0.3,0.8c0,0,0,0,0,0c0-0.2,0.2,0.4,0.1,0.2c0-0.1,0-0.1-0.1-0.2
			c0,0.1,0,0.1,0.1,0.2c0,0.1,0,0.1,0.1,0.2c0.1-0.1,0.3-0.2,0.5-0.3c0.2-0.1,0.5-0.2,0.7-0.2c-0.3,0.5-0.6,1-0.8,1.5
			c-0.1-0.2-0.2-0.5-0.2-0.7c0-0.1-0.1-0.2-0.1-0.3c-0.2,0.1-0.3,0.3-0.5,0.4c0,0,0,0,0,0c0.2-0.1-0.3,0.3-0.1,0.1c0,0,0,0,0,0
			c-0.1,0.1-0.3,0.1-0.4,0.2c-0.2,0.1-0.3,0.2-0.5,0.3c-0.2,0.1-0.3,0.2-0.5,0.3c-0.1,0-0.1,0.1-0.2,0.1c0,0,0,0,0,0
			c0.2,0-0.4,0.2-0.2,0.1c0.1,0,0.1-0.1,0.2-0.1c0,0-0.1,0-0.1,0c-0.4,0.1-0.7,0.1-1.1,0.4c-0.1,0.1-0.2,0.2-0.3,0.3
			c0.1,0,0.2-0.1,0.3-0.1c-0.2,0.1-0.4,0.2-0.5,0.3c0.1-0.1,0.2-0.1,0.3-0.2c-0.4,0.1-0.7,0.3-1,0.5c-0.1,0.1-0.2,0.2-0.4,0.3
			c0.2-0.1-0.3,0.3-0.1,0.1c0,0,0.1-0.1,0.1-0.1c0,0,0,0,0,0c-0.1,0-0.2,0.1-0.3,0.1c0,0-0.1,0-0.1,0.1c0,0,0,0,0,0
			c0.2,0-0.3,0.2-0.1,0.1c0,0,0.1,0,0.1-0.1c-0.2,0-0.4,0.1-0.6,0.2c-0.4,0.1-0.7,0.4-0.9,0.6c0.1,0,0.2-0.1,0.3-0.1
			c-0.2,0.1-0.4,0.2-0.5,0.3c0,0,0.1-0.1,0.1-0.1c-0.1,0-0.3,0.1-0.2,0c0,0,0,0,0,0c-0.1,0-0.2,0-0.4,0c-0.4,0-0.8,0.1-1.1,0.4
			c-0.1,0.1-0.1,0.2-0.2,0.3c0.2,0,0.4,0,0.6-0.1c-0.3,0.1-0.6,0.2-0.8,0.4c0.1-0.1,0.2-0.2,0.2-0.3c-0.1,0-0.2,0-0.4,0
			c-0.6,0.1-0.9,0.6-1.2,1.1c-0.4,0.6,0,1.6,0.7,1.8c0.1,0,0.3,0.1,0.4,0.1c0,0-0.1,0-0.1-0.1c-0.2-0.1,0.3,0.1,0.2,0.1
			c0,0-0.1,0-0.1,0c0.1,0,0.1,0.1,0.2,0.1c0.1,0.1,0.2,0.2,0.3,0.2c0.3,0.2,0.6,0.2,1,0.2c0.1,0,0.1,0,0.2,0c0,0,0,0,0,0
			c0,0,0,0-0.1,0c0,0,0,0,0.1,0c0,0,0,0,0,0c0,0,0,0,0.1,0c0.2,0,0.1,0-0.1,0c0,0,0,0,0,0c0.1,0.1,0.3,0.1,0.4,0.1c0,0,0,0,0.1,0
			c0,0,0,0,0,0c0.1,0,0.1,0.1,0.2,0.1c-0.1,0-0.1,0-0.1,0c0.2,0.1,0.3,0.2,0.5,0.3c0.2,0.2,0.5,0.3,0.7,0.4c0.2,0.1,0.5,0.2,0.7,0.2
			c0,0,0.1,0,0.1,0c0,0,0,0,0,0c-0.2-0.2,0.4,0.1,0.1,0.1c0,0-0.1,0-0.1,0c0.5,0.5,1.2,0.7,1.8,0.9c0.1,0,0.2,0.1,0.4,0.1
			c0,0,0.1,0,0.1,0c0,0-0.1-0.1-0.2-0.1c0.2,0.1,0.4,0.2,0.6,0.3c0.3,0.1,0.6,0.2,0.9,0.3c-0.1-0.1-0.2-0.1-0.3-0.2
			c0.2,0.1,0.4,0.2,0.5,0.3c-0.1,0-0.2-0.1-0.3-0.1c0.3,0.3,0.6,0.5,1,0.7c0.2,0.1,0.4,0.2,0.6,0.2c0.1-0.1,0.1-0.1,0.2-0.2
			c0,0,0.1-0.1,0.1-0.1c0-0.1,0-0.1,0-0.2c0,0,0,0.1,0,0.1c0.2-0.1,0.3-0.2,0.5-0.3c-0.1,0.2-0.2,0.4-0.3,0.6c0,0.1,0,0.1,0.1,0.2
			c0.1,0,0.1,0.1,0.2,0.1c-0.1,0-0.1,0-0.2-0.1c0,0.1,0.1,0.1,0.1,0.2c-0.1-0.1-0.1-0.2-0.2-0.2c0,0,0,0-0.1,0
			c0,0.1-0.1,0.2-0.1,0.2c0-0.1,0-0.2,0-0.3c-0.1,0-0.2-0.1-0.3-0.1c-0.3,0.3-0.4,0.6-0.4,1c0,0.1-0.1,0.3,0,0.3
			c0.1-0.1,0.2-0.4,0.1-0.1c0,0.1,0,0.1-0.1,0.1c0,0,0,0.1,0,0.1c0,0.1-0.2,0.3-0.2,0.4c0,0,0,0,0,0c0-0.1,0.3-0.3,0.1-0.1
			c0,0-0.1,0.1-0.1,0.1c0,0,0,0,0,0c0,0,0,0,0,0c0,0,0,0,0,0c-0.4,0.5-0.9,0.9-1.1,1.5c-0.1,0.3-0.3,0.7-0.4,1
			c0.1,0,0.1-0.1,0.2-0.1c-0.1,0.2-0.2,0.4-0.3,0.5c0-0.1,0.1-0.3,0.2-0.4c-0.1,0.1-0.3,0.2-0.4,0.4c-0.2,0.2-0.4,0.5-0.5,0.8
			c-0.2,0.4-0.4,0.8-0.6,1.2c0,0.1-0.1,0.1-0.1,0.2c0,0,0.1-0.1,0.1-0.1c0,0-0.1,0.1-0.1,0.1c0,0.1-0.1,0.1-0.1,0.1
			c0,0,0,0.1-0.1,0.1c-0.2,0.2-0.4,0.4-0.6,0.7c-0.3,0.4-0.4,0.6-0.5,1.1c0,0.1,0,0.2,0,0.3c0.1-0.1,0.2-0.2,0.3-0.3
			c-0.1,0.3-0.2,0.6-0.4,0.8c0-0.2,0-0.4,0-0.5c-0.2,0.2-0.3,0.3-0.4,0.5c-0.1,0.2-0.2,0.5-0.3,0.8c0.1-0.1,0.1-0.2,0.2-0.3
			c-0.1,0.2-0.2,0.4-0.3,0.5c0-0.1,0.1-0.2,0.1-0.3c-0.3,0.3-0.5,0.6-0.8,1c0.1-0.1-0.3,0.4-0.1,0.1c0,0,0.1-0.1,0.1-0.1
			c0,0,0,0-0.1,0.1c-0.1,0.1-0.2,0.2-0.3,0.4c-0.2,0.2-0.3,0.5-0.5,0.7c-0.2,0.5-0.6,0.8-0.7,1.3c-0.1,0.3-0.2,0.7-0.3,1
			c0.1-0.1,0.3-0.2,0.4-0.3c-0.2,0.2-0.4,0.5-0.6,0.7c0-0.1,0.1-0.3,0.1-0.4c0,0-0.1,0.1-0.1,0.1c-0.2,0.2-0.4,0.3-0.5,0.5
			c-0.1,0.1-0.1,0.3-0.2,0.5c0,0.1-0.1,0.2-0.1,0.3c0,0-0.2,0.4-0.1,0.1c0,0,0-0.1,0.1-0.1c0,0,0,0,0,0c-0.2,0.2-0.3,0.4-0.4,0.6
			c-0.2,0.3-0.4,0.7-0.7,1c-0.2,0.2-0.3,0.4-0.3,0.7c0,0.1,0,0.3-0.1,0.4c0.1-0.1,0.2-0.2,0.3-0.3c-0.1,0.2-0.2,0.4-0.3,0.5
			c0-0.1,0-0.2,0-0.3c-0.1,0.1-0.2,0.2-0.3,0.3c-0.5,0.5-0.5,1.2,0,1.7c0.5,0.5,1.2,0.5,1.7,0c0.4-0.4,0.8-0.7,0.9-1.3
			c0-0.1,0-0.3,0.1-0.4c0,0,0,0.1-0.1,0.1c-0.1,0.2,0.1-0.4,0.1-0.1c0,0,0,0,0,0c0.1-0.2,0.2-0.3,0.3-0.5c0.2-0.3,0.4-0.6,0.6-1
			c0.2-0.3,0.3-0.6,0.4-0.9c-0.1,0.1-0.2,0.2-0.4,0.3c0.2-0.2,0.4-0.5,0.6-0.7c-0.1,0.1-0.1,0.3-0.2,0.4c0.1-0.1,0.2-0.1,0.2-0.2
			c0.3-0.2,0.5-0.4,0.6-0.8c0.1-0.1,0.1-0.3,0.1-0.4c0.1-0.2,0.1-0.4,0.2-0.6c0-0.1,0.1-0.2,0.1-0.3c0,0.1-0.1,0.1-0.1,0.1
			c0,0,0.1-0.4,0.1-0.2c0,0,0,0.1,0,0.1c0,0,0,0,0-0.1c0.1-0.2,0.3-0.4,0.4-0.6c0.1-0.1,0.1-0.3,0.2-0.4c0,0,0-0.1,0-0.1
			c0,0,0,0.1-0.1,0.1c-0.2,0.2,0.1-0.2,0.1-0.1c0.2-0.2,0.4-0.4,0.5-0.7c0.1-0.1,0.2-0.2,0.2-0.3c0,0,0,0,0,0c0,0,0,0,0,0
			c0,0,0,0,0,0c0,0,0.1-0.1,0.1-0.1c0.2-0.2,0,0.1-0.1,0.1c0,0,0,0,0,0c0.2-0.2,0.6-0.6,0.7-0.8c0.1-0.2,0.2-0.5,0.3-0.7
			c-0.1,0.1-0.2,0.2-0.2,0.2c0.1-0.2,0.2-0.4,0.3-0.5c0,0.1-0.1,0.2-0.1,0.3c0.3-0.3,0.5-0.6,0.6-0.9c0.1-0.2,0.1-0.5,0.1-0.7
			c0,0.1-0.1,0.1-0.1,0.2c0.1-0.2,0.1-0.4,0.2-0.6c0,0.1,0,0.3,0,0.4c0,0,0.1-0.1,0.1-0.1c0,0,0-0.1,0.1-0.1c0,0,0,0,0,0
			c-0.1,0.1,0.3-0.4,0.1-0.1c0,0-0.1,0.1-0.1,0.1c0.2-0.2,0.5-0.5,0.6-0.8c0.3-0.4,0.4-0.9,0.6-1.4c0.1-0.1,0.2-0.3,0.2-0.4
			c0,0,0,0,0,0c0,0,0,0,0,0c-0.1,0,0.2-0.4,0.1-0.2c0,0,0,0.1-0.1,0.1c0.1-0.1,0.2-0.2,0.3-0.3c0.1-0.1,0.3-0.2,0.4-0.4
			c0.2-0.4,0.4-0.9,0.6-1.4c-0.1,0.1-0.1,0.2-0.2,0.2c0.1-0.2,0.2-0.4,0.3-0.5c0,0.1-0.1,0.2-0.1,0.3c0.3-0.4,0.7-0.8,1-1.2
			c0.2-0.3,0.4-0.7,0.4-1c0-0.1,0.1-0.3,0.1-0.4c-0.2,0.1-0.3,0.2-0.5,0.4c0.2-0.2,0.4-0.5,0.6-0.7c0,0.1,0,0.2,0,0.4
			c0,0,0,0,0.1-0.1c0.2-0.1,0.4-0.3,0.5-0.5c0.1-0.2,0.2-0.5,0.2-0.8c0-0.3,0.1-0.6,0-1c-0.1-0.4-0.5-0.7-0.7-1
			c-0.3-0.3-0.6-0.3-1-0.4c-0.1,0-0.2-0.1-0.2-0.1c0.1,0,0.3,0.2,0.1,0.1c-0.1,0-0.1-0.1-0.2-0.1c0,0,0,0,0,0c0,0,0,0,0,0
			c0,0,0,0-0.1,0c-0.1,0-0.2-0.1-0.3-0.2c0,0,0,0,0,0c0.1,0.1,0.3,0.2,0,0c0,0,0,0,0,0c0,0,0,0,0,0c0,0,0,0,0,0
			c-0.3-0.3-0.6-0.5-1-0.7c-0.2-0.1-0.5-0.2-0.7-0.2c0,0,0.1,0,0.1,0c0.3,0.2-0.3-0.1-0.1,0c0,0,0,0,0,0c-0.1-0.1-0.3-0.1-0.4-0.2
			c-0.4-0.2-0.8-0.3-1.3-0.4c-0.1,0-0.3-0.1-0.4-0.1c0,0,0,0,0,0c0,0,0,0,0,0c0,0,0,0,0,0c-0.1,0-0.1,0-0.2-0.1
			c-0.2-0.1,0.1,0,0.2,0.1c0,0,0,0,0,0c-0.1-0.2-0.5-0.4-0.6-0.4c-0.2-0.1-0.5-0.2-0.8-0.3c0,0,0,0,0,0c0,0,0,0,0.1,0
			c0,0,0,0-0.1-0.1c0,0-0.1,0-0.1,0c-0.1,0,0-0.1,0.1,0c-0.1,0-0.2-0.1-0.2-0.1c-0.4-0.2-0.7-0.5-1.2-0.7c0,0,0,0-0.1,0
			c-0.3,0.1-0.6,0.2-0.9,0.2c-0.2,0.2-0.4,0.4-0.7,0.6c-0.4,0.2-0.9,0.1-1.3,0.2c0.2-0.1,0.4-0.2,0.6-0.3c-0.2-0.5-0.4-1-0.6-1.5
			c0.3,0.1,0.6,0.1,0.9,0.2c0.1,0.1,0.3,0.2,0.4,0.3c0.1,0,0.3,0,0.4,0c0.3,0,0.7,0.1,1,0.2c0.1,0,0.2,0.1,0.2,0.1
			c0.3-0.1,0.6-0.2,0.9-0.5C1200,755.9,1200,755.9,1200.1,755.8z"/>
		<path class="st10" d="M1197.4,776.6c-0.1,0.1-0.3,0.2-0.4,0.3c0,0.1-0.1,0.3-0.1,0.4C1197,777.1,1197.2,776.8,1197.4,776.6z"/>
		<path class="st10" d="M1205.6,759.7C1205.6,759.7,1205.6,759.7,1205.6,759.7C1205.6,759.7,1205.6,759.7,1205.6,759.7
			C1205.6,759.7,1205.6,759.7,1205.6,759.7z"/>
		<path class="st10" d="M1206,759.9C1206,759.9,1206,759.9,1206,759.9C1206,759.9,1206,759.9,1206,759.9
			C1206,759.9,1206,759.9,1206,759.9z"/>
		<path class="st10" d="M1204,758.8C1204,758.8,1204,758.8,1204,758.8C1204,758.8,1204,758.8,1204,758.8
			C1203.7,758.7,1204.4,759,1204,758.8z"/>
		<path class="st10" d="M1201.9,758.1C1201.9,758.1,1201.9,758.1,1201.9,758.1C1201.9,758.1,1201.9,758.1,1201.9,758.1
			C1201.9,758.1,1201.9,758.1,1201.9,758.1z"/>
		<path class="st10" d="M1205.7,761.7c0,0.1,0,0.1,0,0.2c0,0,0,0,0.1,0C1205.7,761.8,1205.7,761.7,1205.7,761.7z"/>
		<path class="st10" d="M1205.6,762.1c0,0,0,0.1,0,0.1c0,0,0.1,0,0.1,0c0,0,0,0,0,0C1205.7,762.2,1205.6,762.2,1205.6,762.1z"/>
		<path class="st10" d="M1205.6,762.5c0-0.1,0.1-0.2,0.1-0.2c0,0-0.1,0-0.1,0C1205.6,762.3,1205.6,762.4,1205.6,762.5z"/>
		<path class="st10" d="M1206.1,762.4c-0.1,0-0.1-0.1-0.2-0.1c0,0,0,0.1,0,0.1C1206,762.4,1206,762.4,1206.1,762.4z"/>
		<path class="st10" d="M1205.8,762.2c0,0-0.1-0.1-0.1-0.1c0,0,0,0,0,0C1205.6,762.2,1205.7,762.2,1205.8,762.2
			C1205.7,762.2,1205.7,762.2,1205.8,762.2z"/>
		<path class="st10" d="M1206.2,761.5c-0.2,0.1-0.3,0.2-0.5,0.3c0,0.1,0.1,0.2,0.1,0.3C1205.9,761.9,1206,761.7,1206.2,761.5z"/>
		<path class="st10" d="M1205.6,762.1C1205.6,762.1,1205.6,762.1,1205.6,762.1C1205.6,762.1,1205.6,762.1,1205.6,762.1
			C1205.6,762.1,1205.6,762.1,1205.6,762.1z"/>
		<path class="st10" d="M1206,762.5c0-0.1-0.1-0.1-0.1-0.2c0,0-0.1,0-0.1,0C1205.9,762.4,1205.9,762.5,1206,762.5z"/>
		<path class="st10" d="M1195.8,757.9C1195.8,758,1195.8,758,1195.8,757.9c0.1,0.1,0.1,0.1,0.2,0.1
			C1196.1,758,1195.6,757.8,1195.8,757.9z"/>
		<path class="st10" d="M1198.1,758.7C1198,758.7,1198,758.6,1198.1,758.7C1198,758.7,1198.1,758.7,1198.1,758.7
			C1198.1,758.7,1198.1,758.7,1198.1,758.7C1198.1,758.7,1198.1,758.7,1198.1,758.7z"/>
		<path class="st10" d="M1197.6,758.5C1197.6,758.5,1197.6,758.5,1197.6,758.5C1197.6,758.5,1197.6,758.5,1197.6,758.5
			C1197.6,758.5,1197.6,758.5,1197.6,758.5z"/>
		<path class="st10" d="M1203.5,761c0.1,0.1,0.2,0.1,0.3,0.2c0.1,0,0.2,0.1,0.3,0.1C1203.8,761.2,1203.6,761.1,1203.5,761z"/>
		<path class="st10" d="M1198.8,773.4c0,0-0.1,0.1-0.1,0.1C1198.5,773.7,1198.9,773.3,1198.8,773.4z"/>
		<path class="st10" d="M1200.1,759.7C1200.1,759.7,1200.2,759.7,1200.1,759.7c0.1,0,0.1,0,0.1,0.1
			C1200.5,759.8,1200,759.6,1200.1,759.7z"/>
		<path class="st10" d="M1204.6,763.9C1204.6,763.9,1204.6,763.9,1204.6,763.9C1204.6,763.9,1204.6,763.9,1204.6,763.9
			C1204.6,763.9,1204.6,763.9,1204.6,763.9z"/>
		<path class="st10" d="M1205.7,762.3C1205.7,762.3,1205.8,762.3,1205.7,762.3C1205.8,762.3,1205.7,762.3,1205.7,762.3
			C1205.7,762.3,1205.7,762.3,1205.7,762.3z"/>
		<path class="st10" d="M1203.3,766.3c-0.1,0-0.1,0.1-0.2,0.1c0,0.1-0.1,0.3-0.2,0.4C1203.1,766.6,1203.2,766.4,1203.3,766.3z"/>
		<path class="st10" d="M1200.6,770.9c-0.1,0.1-0.2,0.2-0.3,0.3c0,0.2,0,0.4,0,0.5C1200.4,771.4,1200.5,771.1,1200.6,770.9z"/>
		<path class="st10" d="M1199.8,772.2c-0.1,0.1-0.2,0.2-0.2,0.3c0,0.1-0.1,0.2-0.1,0.3C1199.6,772.5,1199.7,772.3,1199.8,772.2z"/>
		<path class="st10" d="M1201.5,768.9C1201.5,768.9,1201.5,768.9,1201.5,768.9C1201.5,769,1201.4,769,1201.5,768.9
			C1201.4,769,1201.5,769,1201.5,768.9C1201.5,768.9,1201.5,768.9,1201.5,768.9z"/>
		<path class="st10" d="M1205.7,762.2C1205.7,762.3,1205.8,762.3,1205.7,762.2c0.1,0.1,0.1,0.1,0.2,0.1c0,0,0-0.1,0-0.1
			C1205.8,762.2,1205.8,762.2,1205.7,762.2C1205.7,762.2,1205.7,762.2,1205.7,762.2z"/>
		<path class="st10" d="M1205.9,762.3c0-0.1,0-0.1-0.1-0.2c0,0,0,0.1-0.1,0.1C1205.8,762.2,1205.8,762.2,1205.9,762.3z"/>
		<path class="st10" d="M1204.8,763.4c0,0,0,0,0.1-0.1C1205,763.1,1204.9,763.3,1204.8,763.4z"/>
		<path class="st10" d="M1205.6,762.1C1205.6,762.1,1205.6,762.1,1205.6,762.1C1205.6,762.1,1205.6,762.1,1205.6,762.1
			c0-0.1,0-0.2,0-0.3c0,0-0.1,0.1-0.1,0.1c-0.1,0.1-0.2,0.1-0.2,0.2c0.1,0,0.2,0.1,0.3,0.1C1205.6,762.2,1205.6,762.2,1205.6,762.1z
			"/>
		<path class="st10" d="M1205.8,762.2C1205.8,762.2,1205.8,762.1,1205.8,762.2c0-0.2,0-0.3-0.1-0.4c0,0,0,0-0.1,0c0,0.1,0,0.2,0,0.2
			C1205.7,762.1,1205.7,762.2,1205.8,762.2z"/>
	</g>
	<g class="st6">
		<path class="st10" d="M1134.5,752.2c-0.1-0.1-0.2-0.2-0.2-0.3c-0.1,0-0.1-0.1-0.2-0.1C1134.2,751.9,1134.3,752.1,1134.5,752.2z"/>
		<path class="st10" d="M1131.8,749.7C1131.8,749.7,1131.8,749.7,1131.8,749.7c0-0.1,0-0.1,0-0.1
			C1131.9,749.2,1131.8,749.9,1131.8,749.7z"/>
		<path class="st10" d="M1132.1,750.5c-0.1,0-0.1-0.1-0.2-0.1C1131.8,750.4,1132.2,750.6,1132.1,750.5z"/>
		<path class="st10" d="M1130.4,749.8c0.2,0.6,0.5,1.2,0.7,1.8c0.1-0.2,0.3-0.4,0.4-0.6c0.1-0.2,0.2-0.4,0.2-0.6
			c-0.1,0-0.2-0.1-0.2-0.1C1131.2,750.1,1130.8,750,1130.4,749.8z"/>
		<path class="st10" d="M1137,753.3c0-0.1-0.1-0.1-0.1-0.2c-0.1,0-0.3-0.1-0.4-0.1C1136.6,753.1,1136.8,753.2,1137,753.3z"/>
		<path class="st10" d="M1139.7,758.5C1139.7,758.5,1139.7,758.5,1139.7,758.5c0.1,0,0.1-0.1,0.2-0.1
			C1139.9,758.3,1139.5,758.5,1139.7,758.5z"/>
		<path class="st10" d="M1138.8,754c0,0-0.1,0-0.1-0.1c0,0-0.1,0-0.1,0C1138.4,753.9,1138.9,754.1,1138.8,754z"/>
		<path class="st10" d="M1141.2,755.6c-0.1-0.1-0.2-0.3-0.3-0.4c-0.1,0-0.3-0.1-0.4-0.1C1140.7,755.2,1140.9,755.4,1141.2,755.6z"/>
		<path class="st10" d="M1135.4,739.6C1135.4,739.6,1135.4,739.6,1135.4,739.6c0-0.1,0-0.1,0-0.1
			C1135.4,739.6,1135.4,739.6,1135.4,739.6z"/>
		<path class="st10" d="M1135.3,739.5C1135.4,739.5,1135.4,739.5,1135.3,739.5c0.1-0.1,0.1-0.1,0.1-0.1
			C1135.4,739.4,1135.4,739.5,1135.3,739.5z"/>
		<path class="st10" d="M1135.4,739.4C1135.4,739.4,1135.4,739.4,1135.4,739.4C1135.4,739.4,1135.4,739.4,1135.4,739.4
			C1135.4,739.4,1135.4,739.4,1135.4,739.4C1135.4,739.4,1135.4,739.4,1135.4,739.4z"/>
		<path class="st10" d="M1134.7,741.4C1134.7,741.4,1134.7,741.4,1134.7,741.4C1134.8,741.4,1134.8,741.4,1134.7,741.4
			C1134.7,741.4,1134.7,741.4,1134.7,741.4z"/>
		<path class="st10" d="M1133.1,746.1c0-0.1,0-0.1,0-0.2C1133.1,745.7,1133.1,746.2,1133.1,746.1z"/>
		<path class="st10" d="M1132.6,747.3c-0.1,0.3-0.2,0.6-0.4,0.8c0.1-0.1,0.2-0.2,0.4-0.4C1132.6,747.6,1132.6,747.4,1132.6,747.3z"
			/>
		<path class="st10" d="M1133.1,745.7c0,0,0.1-0.1,0.1-0.1c0,0,0,0,0,0C1133.2,745.3,1133.2,745.6,1133.1,745.7z"/>
		<path class="st10" d="M1131.7,749.6c0.1-0.1,0.2-0.2,0.2-0.3c0-0.1,0-0.2,0.1-0.2C1131.9,749.2,1131.8,749.4,1131.7,749.6z"/>
		<path class="st10" d="M1131.8,762.1C1131.8,762.1,1131.8,762.1,1131.8,762.1c0.1,0,0.2-0.1,0.2-0.1c0.1-0.1,0.2-0.1,0.3-0.2
			C1132.1,761.9,1131.9,762,1131.8,762.1z"/>
		<path class="st10" d="M1136.8,771.7c0-0.2,0-0.3,0-0.5c-0.1-0.1-0.2-0.2-0.3-0.4C1136.6,771.2,1136.7,771.4,1136.8,771.7z"/>
		<path class="st10" d="M1135.7,769.7c0-0.2,0-0.3,0-0.5c-0.1-0.1-0.2-0.2-0.3-0.3C1135.5,769.2,1135.6,769.5,1135.7,769.7z"/>
		<path class="st10" d="M1134.8,767.8c0-0.1-0.1-0.2-0.1-0.2c-0.1-0.1-0.2-0.1-0.3-0.2C1134.5,767.5,1134.6,767.7,1134.8,767.8z"/>
		<path class="st10" d="M1132.3,763.3C1132.3,763.3,1132.3,763.3,1132.3,763.3c0-0.1-0.1-0.1-0.1-0.2
			C1132.3,763.2,1132.4,763.6,1132.3,763.3z"/>
		<path class="st10" d="M1139.9,776.6c0-0.1-0.1-0.2-0.1-0.3c-0.1-0.1-0.1-0.1-0.2-0.2C1139.7,776.3,1139.8,776.5,1139.9,776.6z"/>
		<path class="st10" d="M1133,764.8C1133,764.7,1133,764.7,1133,764.8c0-0.1-0.1-0.2-0.1-0.2C1132.9,764.6,1133,765,1133,764.8z"/>
		<path class="st10" d="M1142.3,780.5c0-0.2-0.1-0.3-0.2-0.5c-0.1-0.1-0.3-0.2-0.4-0.3C1141.9,780.1,1142.1,780.3,1142.3,780.5z"/>
		<path class="st10" d="M1140.5,777.4c-0.1,0,0.2,0.3,0.1,0.2C1140.7,777.5,1140.6,777.5,1140.5,777.4
			C1140.6,777.4,1140.6,777.4,1140.5,777.4z"/>
		<path class="st10" d="M1134.6,752C1134.7,752.1,1134.8,752.1,1134.6,752L1134.6,752z"/>
		<path class="st10" d="M1141.6,779.1c0,0,0-0.1,0-0.1c0,0,0,0,0,0c0,0,0,0,0-0.1C1141.4,778.8,1141.7,779.2,1141.6,779.1z"/>
		<path class="st10" d="M1131.5,761.9c-0.1,0.1-0.1,0.2-0.2,0.3c0.1,0.1,0.1,0.2,0.2,0.3c0,0,0,0,0,0
			C1131.5,762.2,1131.5,762.1,1131.5,761.9C1131.5,761.9,1131.5,761.9,1131.5,761.9z"/>
		<path class="st10" d="M1131.8,762.1C1131.8,762.1,1131.8,762.1,1131.8,762.1c0-0.1-0.1-0.1-0.2-0.2c0,0-0.1,0-0.1-0.1
			c0,0.2,0,0.3,0,0.5C1131.6,762.3,1131.7,762.3,1131.8,762.1C1131.8,762.2,1131.8,762.2,1131.8,762.1
			C1131.8,762.1,1131.8,762.1,1131.8,762.1z"/>
		<path class="st10" d="M1131.8,762.2c0.1,0,0.1-0.1,0.2-0.1C1131.9,762.1,1131.9,762.1,1131.8,762.2
			C1131.8,762.2,1131.8,762.2,1131.8,762.2z"/>
		<path class="st10" d="M1131.8,762.1C1131.8,762.1,1131.8,762.1,1131.8,762.1C1131.8,762.1,1131.8,762.1,1131.8,762.1
			C1131.8,762.1,1131.8,762.1,1131.8,762.1z"/>
		<path class="st10" d="M1137.2,759.5c0.1-0.1-0.2,0.2-0.2,0.2c0,0,0,0,0,0c0,0,0,0,0,0C1137.1,759.6,1137.2,759.6,1137.2,759.5z"/>
		<path class="st10" d="M1133.8,761c0.1,0,0.2-0.1,0.3-0.1c0.1-0.1,0.1-0.1,0.2-0.2C1134.2,760.8,1134,760.9,1133.8,761z"/>
		<path class="st10" d="M1130.9,762.9c0.2-0.1,0.4-0.3,0.6-0.4c-0.1-0.1-0.1-0.2-0.2-0.3C1131.2,762.4,1131,762.6,1130.9,762.9z"/>
		<path class="st10" d="M1131.5,762.5c0,0,0-0.1,0-0.1C1131.5,762.4,1131.5,762.4,1131.5,762.5
			C1131.5,762.5,1131.5,762.5,1131.5,762.5z"/>
		<path class="st10" d="M1137.5,759.4c0,0,0.1,0,0.1,0c0,0,0,0,0.1,0C1137.9,759.3,1137.4,759.5,1137.5,759.4z"/>
		<path class="st10" d="M1130.9,761.5c0.1,0.2,0.3,0.5,0.4,0.7c0.1-0.1,0.1-0.2,0.2-0.3C1131.3,761.8,1131.1,761.6,1130.9,761.5z"/>
		<path class="st10" d="M1131.5,761.9C1131.5,761.9,1131.5,761.9,1131.5,761.9C1131.5,761.9,1131.5,761.9,1131.5,761.9
			C1131.5,761.9,1131.5,761.9,1131.5,761.9z"/>
		<path class="st10" d="M1135.4,739.4C1135.4,739.4,1135.4,739.4,1135.4,739.4c0,0,0.1-0.1,0.1-0.1c0-0.1,0.1-0.2,0.1-0.3
			C1135.6,739.1,1135.5,739.3,1135.4,739.4z"/>
		<path class="st10" d="M1135.5,758c-0.1,0-0.2,0.1-0.3,0.1c-0.1,0.1-0.2,0.1-0.3,0.2C1135.1,758.2,1135.3,758.1,1135.5,758z"/>
		<path class="st10" d="M1130.5,764.8C1130.5,764.8,1130.5,764.9,1130.5,764.8C1130.7,765.1,1130.5,764.5,1130.5,764.8z"/>
		<path class="st10" d="M1138.7,756.3c-0.1,0-0.1,0.1-0.2,0.1c0.1,0,0.3,0.1,0.4,0.1C1138.8,756.5,1138.8,756.4,1138.7,756.3z"/>
		<polygon class="st10" points="1130.2,760.5 1130.2,760.5 1130.2,760.5 		"/>
		<path class="st10" d="M1129.8,763.3c0,0.1,0.1,0.3,0.1,0.4c0.1,0.1,0.3,0.2,0.4,0.3C1130.2,763.8,1130,763.6,1129.8,763.3z"/>
		<path class="st10" d="M1132.6,759.3c-0.1,0-0.2,0.1-0.4,0.1c-0.1,0.1-0.1,0.1-0.2,0.2C1132.2,759.5,1132.4,759.4,1132.6,759.3z"/>
		<path class="st10" d="M1140.5,755.9C1140.5,755.9,1140.5,755.9,1140.5,755.9C1140.5,755.9,1140.5,755.9,1140.5,755.9z"/>
		<path class="st10" d="M1140.5,756C1140.5,756,1140.5,756,1140.5,756c-0.1,0-0.1,0.1-0.2,0.1C1140.3,756,1140.4,756,1140.5,756z"/>
		<path class="st10" d="M1139.3,756.7c-0.2-0.1-0.4-0.3-0.5-0.4c0,0,0,0-0.1,0c0.1,0.1,0.1,0.2,0.2,0.2
			C1139,756.6,1139.2,756.6,1139.3,756.7z"/>
		<path class="st10" d="M1138.9,756.5c0,0.1,0.1,0.1,0.1,0.2c0.3,0.4,0.6,0.6,1,0.7c0.4,0.1,0.8,0.3,1.3,0.4
			c-0.1-0.7-0.2-1.5-0.3-2.2c-0.2,0.1-0.4,0.2-0.5,0.2c0,0,0,0,0,0c-0.1,0-0.2,0.1-0.2,0.1c0.1-0.1,0.2-0.1,0.2-0.1c0,0,0,0-0.1,0
			c-0.1,0-0.2,0-0.3,0.1c-0.1,0-0.2,0-0.3,0.1c-0.3,0-0.5,0-0.8,0.1c-0.1,0-0.1,0-0.2,0.1c0.2,0.1,0.4,0.3,0.5,0.4
			C1139.2,756.6,1139,756.6,1138.9,756.5z"/>
		<path class="st10" d="M1138.2,778.2c0,0,0.1,0.1,0.1,0.1c0,0,0,0,0,0C1138.3,778.3,1138.2,778.2,1138.2,778.2z"/>
		<path class="st10" d="M1140.6,781.6c0,0.1,0.1,0.3,0.1,0.4c0.1,0.1,0.3,0.2,0.4,0.3C1141,782.1,1140.8,781.9,1140.6,781.6z"/>
		<path class="st10" d="M1139.7,780.5c0,0,0,0.1,0,0.1c0,0,0,0,0,0.1C1139.9,780.8,1139.7,780.3,1139.7,780.5z"/>
		<path class="st10" d="M1139.1,779c0,0.1,0.1,0.2,0.1,0.3c0.1,0.1,0.1,0.1,0.2,0.2C1139.3,779.4,1139.2,779.2,1139.1,779z"/>
		<path class="st10" d="M1142.6,780.5c-0.2-0.2-0.3-0.3-0.5-0.4c0.1,0.2,0.1,0.3,0.2,0.5c-0.2-0.2-0.4-0.5-0.6-0.7
			c0.1,0.1,0.3,0.2,0.4,0.3c-0.1-0.3-0.2-0.6-0.4-0.9c-0.1-0.1-0.1-0.2-0.2-0.3c0,0,0,0,0,0c0,0,0,0.1,0,0.1c0,0.1-0.2-0.4-0.1-0.2
			c0,0,0,0,0,0.1c-0.1-0.3-0.2-0.6-0.3-0.8c-0.1-0.3-0.4-0.4-0.6-0.6c0,0,0,0-0.1-0.1c0,0,0.1,0.1,0.1,0.1c0,0.1-0.2-0.2-0.1-0.2
			c0,0,0,0,0.1,0.1c0-0.1-0.1-0.1-0.1-0.2c-0.2-0.3-0.5-0.6-0.7-0.9c0,0.1,0.1,0.2,0.1,0.3c-0.1-0.2-0.2-0.4-0.3-0.5
			c0.1,0.1,0.1,0.1,0.2,0.2c-0.1-0.1-0.1-0.3-0.1-0.4c-0.1-0.4-0.1-0.7-0.3-1.1c-0.2-0.4-0.5-0.9-0.8-1.3c-0.1-0.2-0.3-0.4-0.5-0.6
			c-0.1-0.2-0.2-0.5-0.3-0.7c-0.2-0.3-0.5-0.5-0.8-0.8c-0.1-0.1-0.1-0.1-0.2-0.2c0,0.2,0,0.3,0,0.5c-0.1-0.3-0.2-0.6-0.4-0.8
			c0.1,0.1,0.2,0.2,0.3,0.4c0-0.1,0-0.2,0-0.2c0-0.5-0.2-0.8-0.5-1.1c-0.2-0.2-0.4-0.4-0.6-0.7c0,0.2,0,0.4,0,0.5
			c-0.1-0.3-0.2-0.6-0.4-0.8c0.1,0.1,0.2,0.2,0.3,0.3c0-0.3-0.1-0.7-0.2-0.9c-0.2-0.3-0.5-0.5-0.8-0.7c0,0.1,0.1,0.2,0.1,0.2
			c-0.1-0.1-0.3-0.3-0.4-0.4c0.1,0.1,0.2,0.1,0.3,0.2c-0.4-0.7-0.9-1.4-1.3-2.2c-0.1-0.2-0.2-0.4-0.3-0.5c0-0.1-0.1-0.1-0.1-0.2
			c0,0,0,0,0,0.1c0,0.2-0.1-0.2-0.1-0.2c0,0,0.1,0.1,0.1,0.1c0-0.1,0-0.1,0-0.2c-0.1-0.3-0.1-0.6-0.3-0.9c-0.1-0.1-0.2-0.3-0.3-0.4
			c0,0,0,0,0,0c0,0,0,0.1,0,0.1c0.1,0.2,0-0.1-0.1-0.2c0,0,0,0,0.1,0.1c-0.1-0.4-0.2-0.8-0.5-1.1c-0.1,0.1-0.2,0.2-0.3,0.2
			c0,0,0,0.1,0,0.1c0,0,0,0,0-0.1c-0.2,0.1-0.4,0.3-0.6,0.4c0.1-0.2,0.3-0.5,0.4-0.7c-0.1-0.2-0.3-0.5-0.4-0.7
			c0.2,0.1,0.4,0.3,0.5,0.4c0,0,0,0,0,0c0,0,0,0,0,0c0,0,0.1,0,0.1,0.1c0.1,0.1,0.1,0.1,0.2,0.2c0.2-0.1,0.3-0.2,0.5-0.3
			c-0.1,0.1-0.2,0.1-0.3,0.2c0.3-0.1,0.6-0.3,0.9-0.4c0.3-0.1,0.6-0.3,0.9-0.5c0.1-0.1,0.2-0.2,0.3-0.3c-0.1,0-0.2,0.1-0.3,0.1
			c0.2-0.1,0.4-0.2,0.5-0.3c-0.1,0.1-0.1,0.1-0.2,0.2c0.1-0.1,0.3-0.1,0.4-0.1c0.3-0.1,0.6-0.1,0.8-0.2c0.4-0.1,0.9-0.3,1.2-0.6
			c0.1-0.1,0.3-0.2,0.4-0.3c0,0,0,0,0,0c0,0,0.3-0.2,0.2-0.2c-0.1,0-0.1,0.1-0.2,0.1c0,0,0,0,0,0c0,0,0.1,0,0.1-0.1
			c0.1-0.1,0.3-0.1,0.4-0.2c0,0-0.1,0-0.1,0c-0.1,0,0.4-0.2,0.2-0.1c0,0,0,0-0.1,0c0,0,0.1,0,0.1-0.1c0.3-0.1,0.6-0.2,0.8-0.3
			c0.4-0.1,0.7-0.3,1-0.5c0,0,0,0,0.1,0c0,0,0,0,0,0c-0.1,0,0.3-0.2,0.2-0.1c0,0-0.1,0.1-0.1,0.1c0.1,0,0.4-0.1,0.5-0.1
			c0.3,0,0.6-0.1,0.9-0.2c0.4-0.1,0.8-0.3,1.1-0.5c0.4-0.2,0.6-0.8,0.6-1.2c-0.1-0.5-0.4-0.8-0.9-1c-0.4-0.1-0.7-0.3-1.1-0.4
			c0.1,0.1,0.2,0.3,0.3,0.4c-0.2-0.2-0.5-0.4-0.7-0.6c0.1,0,0.3,0.1,0.4,0.1c0-0.1-0.1-0.1-0.1-0.2c-0.3-0.4-0.5-0.6-0.9-0.7
			c-0.4-0.2-0.8-0.3-1.3-0.4c0,0,0,0,0,0c0,0,0.1,0,0.1,0c0,0,0.1,0,0.1,0.1c0.1,0.1-0.3-0.1-0.2-0.1c-0.1,0-0.2-0.1-0.3-0.1
			c-0.2-0.1-0.3-0.1-0.4-0.2c-0.3-0.2-0.6-0.3-1-0.4c0,0.1,0.1,0.1,0.1,0.2c-0.2-0.1-0.4-0.2-0.5-0.3c0.1,0,0.3,0.1,0.4,0.1
			c-0.1-0.2-0.2-0.3-0.4-0.5c-0.3-0.4-0.8-0.3-1.2-0.5c-0.2-0.1-0.5-0.2-0.7-0.3c0,0,0.1,0,0.1,0c0,0-0.1,0-0.2-0.1
			c-0.1,0-0.1-0.1-0.2-0.1c0.1,0.1,0.1,0.2,0.2,0.3c-0.1-0.1-0.3-0.3-0.4-0.4c0.1,0,0.1,0.1,0.2,0.1c-0.3-0.4-0.5-0.7-1-0.9
			c-0.3-0.1-0.6-0.3-1-0.4c-0.1,0-0.2-0.1-0.3-0.1c0,0-0.1,0-0.1,0c0.1,0,0.1,0.1,0.2,0.1c0.1,0-0.3-0.1-0.2-0.1c0,0-0.1,0-0.1-0.1
			c0,0.2-0.1,0.4-0.2,0.6c-0.1,0.2-0.3,0.4-0.4,0.6c-0.2-0.6-0.5-1.2-0.7-1.8c0.4,0.2,0.8,0.3,1.1,0.5c0.1,0,0.2,0.1,0.2,0.1
			c0-0.1,0-0.2,0-0.4c0-0.1,0-0.2,0-0.4c0,0,0,0,0,0c-0.1,0.2,0-0.5,0-0.1c0,0,0,0.1,0,0.1c0-0.1,0.1-0.3,0.1-0.4
			c-0.1,0.1-0.2,0.2-0.2,0.3c0.1-0.2,0.2-0.4,0.3-0.5c0,0.1,0,0.2-0.1,0.2c0.2-0.2,0.4-0.5,0.5-0.7c0.1-0.2,0.1-0.5,0.1-0.8
			c-0.1,0.1-0.2,0.3-0.4,0.4c0.1-0.3,0.2-0.6,0.4-0.8c0,0.2,0,0.3,0,0.5c0.2-0.2,0.4-0.5,0.5-0.8c0.1-0.2,0-0.5,0-0.7
			c0-0.1,0-0.2,0-0.3c0,0,0,0,0,0c0,0.1,0,0.1,0,0.2c0,0.1,0-0.4,0-0.2c0-0.1,0-0.3,0.1-0.4c0,0.1-0.1,0.1-0.1,0.1
			c0.1-0.1,0.1-0.4,0.1-0.1c0,0,0,0,0,0c0,0,0-0.1,0-0.1c0.2-0.4,0.4-0.7,0.5-1.1c0.1-0.3,0.1-0.6,0.2-1c0.1-0.3,0.2-0.6,0.3-0.8
			c-0.2,0.6,0,0,0.1-0.2c0.1-0.2,0.2-0.4,0.3-0.6c0.1-0.1,0.1-0.3,0.2-0.4c0,0,0,0,0,0c0,0,0,0,0,0c0,0,0-0.1,0.1-0.1
			c0.1-0.3,0,0.1-0.1,0.1c0,0,0,0,0,0c0.1,0,0.1-0.2,0.2-0.2c0.2-0.2,0.4-0.4,0.4-0.7c0.1-0.2,0-0.5,0.1-0.8c0,0,0-0.1,0-0.1
			c0,0,0,0,0,0c0,0,0,0.1,0,0c0,0,0-0.1,0-0.1c0,0,0-0.1,0-0.1c0,0,0,0.1-0.1,0.1c0,0,0-0.1,0.1-0.1c0,0,0,0,0,0c0,0,0,0,0,0
			c0.1-0.1,0.2-0.3,0.2-0.4c0,0.1-0.1,0.2-0.1,0.3c0.1-0.2,0.3-0.3,0.4-0.5c0.2-0.3,0.3-0.8,0.3-1.2c0,0,0,0,0-0.3
			c0,0.1,0,0.2,0,0.3c0-0.1,0-0.3,0-0.4c0-0.1,0-0.2,0.1-0.4c0.1-0.3,0.1-0.5,0.2-0.8c0-0.2,0.1-0.3,0.1-0.4c0,0,0,0-0.1,0.1
			c0,0,0-0.1,0.1-0.1c0,0,0,0,0,0c0-0.1,0.1-0.1,0-0.1c0.1-0.2,0.3-0.5,0.4-0.7c0.4-0.6,0.6-1.2,0.8-1.8c0.2-0.6,0.3-1.1,0.3-1.7
			c0,0.1-0.1,0.1-0.1,0.2c0.1-0.2,0.1-0.4,0.2-0.6c0,0.1,0,0.3,0,0.4c0.1-0.1,0.2-0.2,0.2-0.4c0.2-0.3,0.2-0.6,0.2-1
			c0-0.1,0-0.2,0-0.3c-0.1,0.1,0-0.1,0-0.2c0,0,0,0.1-0.1,0.1c0.1-0.2,0.2-0.4,0.3-0.5c0,0.1-0.1,0.2-0.1,0.3
			c0.1-0.1,0.2-0.3,0.3-0.4c0.4-0.5,0.5-1.2,0-1.7c-0.4-0.4-1.3-0.5-1.7,0c-0.2,0.2-0.3,0.3-0.5,0.5c-0.2,0.3-0.4,0.6-0.5,0.9
			c-0.1,0.4-0.2,0.7-0.2,1.1c0-0.1,0.1-0.1,0.1-0.2c-0.1,0.2-0.1,0.4-0.2,0.6c0-0.1,0-0.3,0-0.4c-0.2,0.3-0.4,0.6-0.5,0.9
			c0,0.2,0,0.3,0,0.5c0,0.1,0,0.1,0,0.2c0,0,0,0,0,0c0,0,0,0.5,0,0.2c0,0,0-0.1,0-0.1c-0.1,0.1-0.1,0.4-0.1,0.5
			c0,0.1-0.1,0.2-0.1,0.3c-0.1,0.3-0.2,0.5-0.3,0.8c0,0.1-0.1,0.2-0.1,0.3c0.1,0-0.2,0.4-0.1,0.2c0-0.1,0-0.1,0.1-0.2c0,0,0,0,0,0
			c-0.1,0-0.1,0.2-0.1,0.2c-0.2,0.2-0.3,0.5-0.4,0.7c-0.3,0.6-0.5,1.2-0.6,1.8c-0.1,0.5-0.2,1.1-0.3,1.7c0.1-0.1,0.2-0.3,0.3-0.4
			c-0.1,0.3-0.2,0.6-0.4,0.8c0-0.2,0-0.3,0.1-0.5c0,0.1-0.1,0.1-0.1,0.2c-0.2,0.3-0.4,0.6-0.5,0.9c-0.1,0.4-0.2,0.7-0.2,1.1
			c0.1-0.1,0.1-0.1,0.2-0.2c-0.1,0.2-0.1,0.4-0.2,0.6c0-0.1,0-0.3,0-0.4c-0.1,0.1-0.2,0.3-0.3,0.4c-0.1,0.3-0.2,0.6-0.3,0.8
			c0,0,0,0,0,0c0.1-0.3-0.1,0.4,0,0.1c0,0,0,0,0,0c-0.1,0.1-0.1,0.3-0.2,0.4c-0.1,0.3-0.2,0.5-0.3,0.8c-0.2,0.4-0.2,0.8-0.3,1.2
			c0,0.1-0.1,0.3-0.1,0.4c0,0,0,0,0,0c0.2-0.3-0.1,0.4,0,0c0,0,0,0,0,0c-0.2,0.3-0.4,0.5-0.5,0.8c-0.1,0.4-0.1,0.9-0.2,1.4
			c0.1-0.1,0.2-0.2,0.3-0.4c-0.1,0.3-0.2,0.6-0.4,0.8c0-0.2,0-0.3,0-0.5c-0.2,0.2-0.4,0.4-0.5,0.6c-0.1,0.3-0.1,0.6-0.1,0.8
			c0.1-0.1,0.2-0.3,0.4-0.4c-0.1,0.3-0.2,0.6-0.4,0.8c0-0.1,0-0.3,0-0.4c0,0-0.1,0.1-0.1,0.1c-0.2,0.3-0.4,0.6-0.5,0.9
			c-0.1,0.4-0.1,0.7-0.2,1.1c0-0.1,0.1-0.1,0.1-0.2c-0.1,0.2-0.1,0.4-0.2,0.6c0-0.1,0-0.3,0-0.4c-0.1,0.2-0.3,0.4-0.4,0.5
			c-0.2,0.3-0.2,0.7-0.1,1.1c0.2,0.4,0.4,0.5,0.8,0.7c0.3,0.1,0.5,0.2,0.8,0.3c-0.6-0.2-0.1,0,0,0c0.1,0.1,0.3,0.1,0.4,0.2
			c0.4,0.2,0.8,0.3,1.2,0.5c-0.1-0.1-0.2-0.3-0.3-0.4c0.2,0.2,0.5,0.4,0.7,0.6c-0.2-0.1-0.3-0.1-0.5-0.2c0.1,0.1,0.1,0.2,0.2,0.3
			c0.3,0.4,0.7,0.5,1.1,0.7c0.5,0.2,0.9,0.4,1.4,0.5c-0.1-0.1-0.1-0.1-0.2-0.2c0.2,0.1,0.4,0.2,0.5,0.3c-0.1,0-0.2-0.1-0.3-0.1
			c0.1,0.1,0.2,0.2,0.3,0.3c0.2,0.2,0.5,0.4,0.8,0.5c0.1,0,0.2,0.1,0.4,0.1c0,0,0,0,0,0c-0.2-0.1,0.4,0.1,0.1,0c0,0,0,0,0,0
			c0.2,0.1,0.4,0.2,0.5,0.3c0.5,0.3,1.1,0.4,1.6,0.6c0.1,0,0.1-0.1,0.2-0.1c0-0.1-0.1-0.1-0.1-0.2c0.1,0,0.1,0.1,0.2,0.1
			c0.1,0,0.1,0,0.2-0.1c0.3-0.1,0.5-0.1,0.8-0.1c0.1,0,0.2,0,0.3-0.1c0.1,0,0.2,0,0.3-0.1c0,0,0,0,0.1,0c0,0,0,0,0.1,0
			c0.2-0.1,0.4-0.2,0.5-0.2c0.1,0.7,0.2,1.5,0.3,2.2c-0.4-0.2-0.8-0.3-1.3-0.4c-0.4-0.1-0.8-0.3-1-0.7c0-0.1-0.1-0.1-0.1-0.2
			c-0.1,0-0.3-0.1-0.4-0.1c-0.1,0-0.1,0.1-0.2,0.1c-0.1,0-0.6,0.3-0.2,0.1c0.3-0.1-0.2,0.1-0.3,0.1c-0.1,0-0.2,0.1-0.3,0.1
			c-0.3,0.1-0.7,0.2-1,0.4c-0.5,0.2-0.9,0.5-1.3,0.8c0.1,0,0.2-0.1,0.3-0.1c-0.2,0.1-0.4,0.2-0.5,0.3c0.1-0.1,0.2-0.1,0.3-0.2
			c-0.2,0.1-0.3,0.1-0.5,0.2c-0.3,0.1-0.5,0.1-0.8,0.1c-0.4,0.1-1,0.3-1.3,0.6c-0.1,0.1-0.3,0.3-0.4,0.4c0.1,0,0.2-0.1,0.4-0.1
			c-0.2,0.1-0.4,0.2-0.5,0.3c0.1-0.1,0.1-0.1,0.2-0.2c-0.3,0.1-0.6,0.2-0.9,0.3c-0.3,0.1-0.6,0.3-0.9,0.5c-0.1,0.1-0.2,0.2-0.3,0.3
			c0,0,0,0,0,0c0,0,0,0,0,0c0,0,0,0,0,0c-0.2,0.1-0.3,0.2,0,0c0,0,0,0,0,0c-0.2,0.2-0.5,0.3-0.7,0.5c-0.4,0.4-0.4,0.9-0.3,1.4
			c0,0.3,0,0.5,0.2,0.8c0.1,0.2,0.3,0.4,0.5,0.5c0,0,0.1,0.1,0.1,0.1c0-0.1-0.1-0.3-0.1-0.4c0.2,0.2,0.4,0.5,0.6,0.7
			c-0.1-0.1-0.3-0.2-0.4-0.3c0.1,0.4,0.3,0.8,0.6,1.2c0,0,0,0,0,0c0,0,0,0,0-0.1c-0.1-0.3,0.2,0.3,0,0.1c0,0.1,0.1,0.3,0.1,0.4
			c0.1,0.3,0.2,0.6,0.4,0.8c0.2,0.4,0.4,0.8,0.6,1.1c0.2,0.4,0.5,0.8,0.7,1.1c0.2,0.4,0.4,0.8,0.8,1.1c0.1,0,0.1,0.1,0.2,0.1
			c0-0.2,0-0.4-0.1-0.7c0.2,0.3,0.4,0.7,0.6,1c-0.2-0.1-0.3-0.2-0.5-0.4c0,0,0,0,0,0c0.1,0.5,0.2,0.8,0.5,1.2
			c0.2,0.2,0.4,0.4,0.6,0.6c0-0.2,0-0.3,0-0.5c0.1,0.3,0.2,0.6,0.4,0.8c-0.1-0.1-0.2-0.2-0.3-0.4c0,0.2,0,0.5,0.1,0.7
			c0.1,0.4,0.6,0.8,0.8,1.1c0.1,0.1,0.2,0.2,0.3,0.3c0,0,0.1,0,0.1,0c0,0,0,0,0,0.1c0,0,0.1,0.1,0.1,0.1c0,0-0.1,0-0.1-0.1
			c0,0,0,0,0,0c0.1,0.3,0.3,0.6,0.5,0.9c0.2,0.3,0.4,0.5,0.5,0.8c0.1,0.2,0.2,0.5,0.4,0.7c0,0,0,0,0,0c-0.1-0.1-0.1-0.2,0,0
			c0,0,0,0,0,0c0,0,0,0.1,0.1,0.1c0,0,0,0-0.1-0.1c0,0.1,0,0.2,0.1,0.3c0,0.1,0.1,0.2,0.1,0.3c0.2,0.5,0.3,0.9,0.7,1.3
			c0.1,0.1,0.2,0.2,0.2,0.3c0-0.1,0-0.1,0,0c0,0,0.1,0.1,0.1,0.1c0,0,0,0,0,0c0,0,0,0,0.1,0.1c0,0,0,0-0.1,0
			c0.1,0.1,0.1,0.2,0.2,0.3c0.2,0.3,0.4,0.5,0.7,0.8c0-0.1-0.1-0.2-0.1-0.3c0.1,0.2,0.2,0.4,0.3,0.5c-0.1-0.1-0.1-0.1-0.2-0.2
			c0.1,0.2,0.2,0.5,0.3,0.7c0.1,0.1,0.1,0.2,0.2,0.4c0,0.1,0.1,0.1,0.1,0.2c0,0,0-0.1,0-0.1c0-0.2,0.2,0.4,0.1,0.2c0,0,0,0,0-0.1
			c0.1,0.5,0.3,1,0.7,1.3c0.1,0.1,0.2,0.1,0.3,0.2c0-0.1-0.1-0.3-0.1-0.4c0.2,0.2,0.4,0.5,0.6,0.7c-0.1-0.1-0.3-0.2-0.4-0.3
			c0,0.1,0.1,0.2,0.1,0.3c0.2,0.6,0.8,1,1.5,0.8c0.6-0.2,1-0.9,0.8-1.5C1143,781.3,1143,780.8,1142.6,780.5z"/>
		<path class="st10" d="M1133.2,768.9c0,0.2,0,0.4,0.1,0.7c0.2,0.1,0.3,0.2,0.5,0.4C1133.6,769.6,1133.4,769.3,1133.2,768.9z"/>
		<path class="st10" d="M1134.4,770.9c0,0.2,0,0.3,0,0.5c0.1,0.1,0.2,0.2,0.3,0.4C1134.6,771.4,1134.5,771.2,1134.4,770.9z"/>
		<path class="st10" d="M1135.7,773.6c0,0-0.1-0.1-0.1-0.1C1135.6,773.5,1135.6,773.5,1135.7,773.6
			C1135.7,773.6,1135.7,773.6,1135.7,773.6C1135.7,773.6,1135.7,773.6,1135.7,773.6z"/>
		<path class="st10" d="M1138.6,756.1c0,0.1,0.1,0.1,0.1,0.2c0,0,0,0,0.1,0C1138.7,756.2,1138.7,756.2,1138.6,756.1z"/>
		<path class="st10" d="M1137.1,776C1137.1,776,1137.1,776,1137.1,776C1137.2,776,1137.2,776,1137.1,776
			C1137.2,776,1137.2,776,1137.1,776z"/>
		<path class="st10" d="M1134.7,754.4c0.1,0.1,0.1,0.1,0.2,0.2c0.1,0,0.2,0.1,0.3,0.1C1135.1,754.6,1134.9,754.5,1134.7,754.4z"/>
		<path class="st10" d="M1138.8,729.4C1138.8,729.4,1138.8,729.4,1138.8,729.4C1138.8,729.3,1138.8,729.3,1138.8,729.4
			c0.1-0.1,0.2-0.2,0.2-0.2c0-0.1,0.1-0.2,0.1-0.3C1139,729.1,1138.9,729.2,1138.8,729.4z"/>
		<path class="st10" d="M1136.3,755.5C1136.3,755.5,1136.3,755.5,1136.3,755.5C1136.4,755.5,1136.4,755.5,1136.3,755.5
			C1136.7,755.6,1136.1,755.4,1136.3,755.5z"/>
		<path class="st10" d="M1138.8,729.3C1138.8,729.3,1138.8,729.3,1138.8,729.3c0,0.1-0.1,0.3,0,0.2
			C1138.8,729.5,1138.8,729.5,1138.8,729.3C1138.8,729.4,1138.8,729.3,1138.8,729.3z"/>
		<path class="st10" d="M1136.6,729.5c0,0.1-0.1,0.1-0.1,0.2c0,0.1,0,0.3,0,0.4C1136.4,729.9,1136.5,729.7,1136.6,729.5z"/>
		<path class="st10" d="M1135.9,731.2C1135.9,731.2,1135.9,731.2,1135.9,731.2c0,0.1,0,0.1,0,0.2
			C1135.9,731.7,1135.9,731.2,1135.9,731.2z"/>
		<path class="st10" d="M1138.8,729.3C1138.8,729.3,1138.8,729.3,1138.8,729.3C1138.8,729.3,1138.8,729.3,1138.8,729.3z"/>
		<path class="st10" d="M1135.3,733.1c0,0.1,0,0.1-0.1,0.2C1135.2,733.5,1135.4,733.1,1135.3,733.1z"/>
		<path class="st10" d="M1136.7,735.5C1136.7,735.5,1136.7,735.5,1136.7,735.5c0,0,0.1-0.1,0.1-0.1
			C1136.7,735.4,1136.7,735.4,1136.7,735.5C1136.7,735.4,1136.7,735.5,1136.7,735.5z"/>
		<path class="st10" d="M1136.2,737.6c0-0.1,0-0.2,0-0.3C1136.2,737.6,1136.2,737.6,1136.2,737.6z"/>
		<path class="st10" d="M1138.2,731.3c0-0.1,0.1-0.1,0.1-0.2c0-0.1,0-0.3,0-0.4C1138.3,730.9,1138.2,731.1,1138.2,731.3z"/>
		<path class="st10" d="M1138.8,729.4c0,0,0,0.1,0,0.1c0,0,0,0,0,0c0.1-0.1,0.1-0.2,0.1-0.4C1138.9,729.2,1138.9,729.3,1138.8,729.4
			C1138.8,729.3,1138.8,729.4,1138.8,729.4z"/>
		<path class="st10" d="M1131.9,752.7c0.1,0.1,0.2,0.3,0.3,0.4c0.2,0.1,0.3,0.1,0.5,0.2C1132.4,753.1,1132.2,752.9,1131.9,752.7z"/>
		<path class="st10" d="M1134.1,737.2c-0.1,0.1-0.2,0.3-0.3,0.4c0,0.2,0,0.3-0.1,0.5C1133.9,737.8,1134,737.5,1134.1,737.2z"/>
		<path class="st10" d="M1130.2,748.1c0.1-0.3,0.2-0.6,0.4-0.8c-0.1,0.1-0.2,0.3-0.4,0.4C1130.2,747.8,1130.2,747.9,1130.2,748.1z"
			/>
		<path class="st10" d="M1135.4,739.5C1135.4,739.5,1135.4,739.6,1135.4,739.5C1135.4,739.6,1135.4,739.6,1135.4,739.5
			c0.1-0.1,0.1-0.2,0.1-0.2C1135.5,739.3,1135.4,739.4,1135.4,739.5C1135.4,739.5,1135.4,739.5,1135.4,739.5z"/>
		<path class="st10" d="M1129.6,749.6c0,0.1-0.1,0.1-0.1,0.2c0,0.1,0,0.3,0,0.4C1129.5,750,1129.5,749.8,1129.6,749.6z"/>
		<path class="st10" d="M1132.3,741C1132.3,741,1132.3,741,1132.3,741C1132.3,741.1,1132.3,741.1,1132.3,741
			C1132.2,741.4,1132.5,740.8,1132.3,741z"/>
		<path class="st10" d="M1133.1,739.6c0,0.1-0.1,0.1-0.2,0.2c0,0.1,0,0.3,0,0.4C1133,740,1133.1,739.8,1133.1,739.6z"/>
		<path class="st10" d="M1131.1,745.8c-0.1,0.1-0.2,0.2-0.3,0.4c0,0.2,0,0.3,0,0.5C1130.9,746.4,1131,746.1,1131.1,745.8z"/>
		<path class="st10" d="M1131.4,743.9C1131.4,743.9,1131.4,744,1131.4,743.9C1131.4,744,1131.4,744,1131.4,743.9
			C1131.3,744.3,1131.6,743.7,1131.4,743.9z"/>
	</g>
	<path style="clip-path:url(#SVGID_2_);fill:#FFCFBA;" d="M1148.3,688c0-0.4-0.2-0.4-0.2-0.8c0-0.4,0-0.4,0-0.8
		c0-0.4,0.1-0.4,0.1-0.8c0-0.4-0.2-0.4-0.3-0.8c0-0.4,0.2-0.4,0.2-0.8c0-0.4-0.3-0.4-0.3-0.8c0-0.4,0-0.4,0-0.8
		c0-0.4,0.3-0.4,0.3-0.8c0-0.4-0.4-0.4-0.4-0.8c0-0.4,0-0.4,0-0.8c0-0.4,0.2-0.4,0.1-0.8c0-0.4-0.2-0.4-0.3-0.8
		c0-0.4,0.1-0.4,0.1-0.8c0-0.4,0-0.4,0-0.8c0-0.4-0.3-0.4-0.3-0.8c0-0.4,0.2-0.4,0.2-0.8c0-0.4,0-0.4,0-0.8c0-0.4,0.1-0.5-0.1-0.8
		c-0.3,0-0.6,0-0.9,0.1c-0.3,0-0.5,0.2-0.8,0.3c-0.3,0.1-0.5,0.2-0.8,0.3c-0.3,0.1-0.6,0-0.9,0.1c-0.3,0.1-0.5,0.3-0.8,0.4
		c-0.2,0.1-0.6,0.2-0.8,0.3c-0.2,0.2-0.4,0.4-0.6,0.6c-0.2,0.2-0.3,0.4-0.5,0.6c-0.2,0.2-0.4,0.4-0.5,0.6c-0.2,0.2-0.3,0.5-0.4,0.7
		c-0.1,0.2-0.2,0.5-0.3,0.8c-0.1,0.3-0.3,0.5-0.4,0.7c-0.1,0.3-0.4,0.5-0.5,0.7c-0.1,0.3,0.1,0.6,0,0.9c0,0.3-0.3,0.5-0.3,0.8
		c0,0.3,0.3,0.6,0.3,0.9c0,0.3-0.1,0.6-0.1,0.8c0,0.3,0.2,0.5,0.3,0.8c0.1,0.3,0.1,0.5,0.3,0.8c0.1,0.2,0.3,0.4,0.5,0.7
		c0.1,0.2,0.2,0.5,0.4,0.7c0.2,0.2,0.2,0.5,0.4,0.7c0.2,0.2,0.4,0.4,0.6,0.6c0.2,0.2,0.3,0.5,0.5,0.7c0.2,0.2,0.7,0,0.9,0.2
		c0.2,0.1,0.3,0.6,0.5,0.7c0.2,0.1,0.5,0.2,0.8,0.3c0.3,0.1,0.5,0.3,0.7,0.4c0.3,0.1,0.7-0.2,0.9-0.1c0.3,0.1,0.5,0.3,0.8,0.3
		c0.3,0.1,0.5,0.3,0.8,0.3c0.3,0,0.5,0,0.8,0c0.1-0.4,0.1-0.4,0-0.8C1148.2,688.4,1148.3,688.4,1148.3,688z"/>
	<path style="clip-path:url(#SVGID_2_);fill:#FFCFBA;" d="M1197.8,681c0-0.3,0.1-0.6,0-0.9c-0.1-0.3-0.3-0.5-0.4-0.8
		c-0.1-0.3,0-0.6-0.1-0.9c-0.1-0.3-0.2-0.6-0.3-0.8c-0.2-0.2-0.4-0.4-0.6-0.7c-0.2-0.2-0.4-0.4-0.7-0.6c-0.2-0.2-0.5-0.3-0.7-0.5
		c-0.2-0.2-0.5-0.2-0.8-0.3c-0.3-0.1-0.5-0.1-0.8-0.2c-0.3-0.1-0.5-0.3-0.8-0.4c-0.3-0.1-0.6-0.1-0.8-0.1c-0.3,0-0.5-0.3-0.8-0.3
		c-0.3,0-0.7,0.1-1,0.1c-0.1,0.4,0.2,0.5,0.2,0.9c0,0.4,0.1,0.4,0.1,0.8c0,0.4,0,0.4,0,0.8c0,0.4-0.1,0.4-0.1,0.8
		c0,0.4-0.2,0.4-0.2,0.8c0,0.4,0.2,0.4,0.2,0.8c0,0.4,0,0.4,0,0.8c0,0.4-0.2,0.4-0.2,0.8c0,0.4,0.2,0.4,0.2,0.8
		c0,0.4-0.2,0.4-0.2,0.8c0,0.4-0.1,0.4-0.1,0.8c0,0.4,0.4,0.4,0.4,0.8c0,0.4-0.3,0.4-0.3,0.8c0,0.4,0,0.4,0,0.8
		c0,0.4,0.3,0.4,0.3,0.8c0,0.4-0.2,0.4-0.2,0.8c0,0.4,0.2,0.4,0.2,0.8c0,0.4-0.1,0.4-0.2,0.8c-0.1,0.4-0.1,0.5,0,0.9
		c0.3,0,0.6-0.1,0.9-0.1c0.3,0,0.6,0.1,0.8,0c0.3-0.1,0.6,0,0.8-0.1c0.3-0.1,0.3-0.6,0.6-0.7c0.2-0.1,0.5-0.2,0.8-0.3
		c0.2-0.1,0.4-0.4,0.6-0.5c0.2-0.2,0.7-0.1,0.9-0.3c0.2-0.2,0.1-0.6,0.3-0.9c0.2-0.2,0.5-0.3,0.6-0.5c0.2-0.2,0.3-0.5,0.4-0.7
		c0.1-0.2,0.4-0.4,0.5-0.7c0.1-0.3,0.3-0.5,0.4-0.7c0.1-0.3,0.1-0.6,0.1-0.8c0.1-0.3,0.1-0.5,0.2-0.8c0-0.3-0.1-0.6-0.1-0.8
		c0-0.3,0.1-0.6,0.1-0.8C1198.1,681.5,1197.8,681.2,1197.8,681z"/>
	<path style="clip-path:url(#SVGID_2_);fill:#FFCFBA;" d="M1190.8,670.6c0-0.4-0.1-0.4-0.1-0.8c0-0.4-0.2-0.4-0.2-0.8
		c0-0.4,0.2-0.4,0.2-0.8c0-0.4-0.1-0.4,0-0.8c0-0.4-0.1-0.4-0.1-0.8c0-0.4,0.2-0.4,0.2-0.8c0-0.4-0.1-0.4-0.1-0.8
		c0-0.4,0-0.4-0.1-0.8c-0.2-0.2-0.4-0.3-0.6-0.5c-0.2-0.2-0.1-0.6-0.2-0.9c-0.1-0.3-0.5-0.4-0.6-0.7c-0.1-0.3,0.3-0.6,0.3-0.9
		c0-0.3-0.1-0.5-0.1-0.8c0-0.3,0-0.5,0.1-0.8c0-0.3-0.2-0.6-0.2-0.9c0.1-0.3,0.5-0.5,0.6-0.7c0.1-0.3-0.1-0.6-0.1-0.9
		c0.1-0.3,0.3-0.5,0.3-0.8c0.1-0.3-0.1-0.6-0.1-0.9c0-0.3,0-0.5,0.1-0.8c0-0.3,0.2-0.5,0.2-0.8c0-0.3-0.2-0.5-0.2-0.8
		c0-0.3,0.1-0.6,0-0.8c-0.1-0.3-0.2-0.3-0.3-0.6c0,0.3,0.1,0.4,0,0.6c0,0.3-0.4,0.5-0.5,0.7c-0.1,0.3-0.2,0.5-0.4,0.7
		c-0.1,0.2-0.2,0.5-0.4,0.7c-0.2,0.2-0.2,0.6-0.4,0.7c-0.2,0.2-0.5,0.2-0.8,0.4c-0.2,0.1-0.4,0.4-0.6,0.6c-0.2,0.1-0.6,0-0.8,0.1
		c-0.2,0.1-0.4,0.5-0.6,0.6c-0.2,0.1-0.5,0.2-0.8,0.3c-0.3,0.1-0.5,0.1-0.8,0.2c-0.3,0.1-0.5,0.1-0.8,0.2c-0.3,0.1-0.6-0.1-0.8,0
		c-0.3,0.1-0.5,0.3-0.7,0.4c-0.3,0.1-0.5,0.1-0.8,0.1c-0.3,0.1-0.5,0.2-0.8,0.3c-0.3,0.1-0.5,0.2-0.8,0.2c-0.3,0.1-0.6-0.2-0.9-0.2
		c-0.3,0.1-0.5,0.3-0.8,0.3c-0.3,0-0.6-0.1-0.8,0c-0.3,0-0.5,0.3-0.8,0.3c-0.3,0-0.5,0.2-0.8,0.3c-0.3,0.1-0.5,0-0.8,0.1
		c-0.3,0.1-0.5,0.1-0.8,0.1c-0.3,0.1-0.6-0.1-0.8-0.1c-0.3,0.1-0.5,0.2-0.8,0.3c-0.3,0-0.5,0.3-0.8,0.3c-0.3,0-0.6,0-0.8,0.1
		c-0.3,0-0.5,0.2-0.8,0.3c-0.3,0-0.6-0.1-0.8-0.1c-0.3,0-0.5,0.3-0.8,0.3c-0.3,0-0.6-0.3-0.8-0.3c-0.3,0-0.5,0-0.8,0
		c-0.3,0-0.5,0.3-0.8,0.3c-0.3,0-0.6-0.2-0.8-0.2c-0.3,0-0.5,0.2-0.8,0.2c-0.3,0-0.5,0.1-0.8,0.1c-0.3,0-0.5,0-0.8,0
		c-0.3,0-0.5,0-0.8,0c-0.3,0-0.5,0-0.8,0c-0.3,0-0.5-0.3-0.8-0.3c-0.3,0-0.5,0.2-0.8,0.2c-0.3,0-0.5-0.2-0.8-0.2
		c-0.3,0-0.5,0.1-0.8,0.1c-0.3,0-0.5,0-0.8,0c-0.3,0-0.5-0.1-0.8-0.1c-0.2,0.1-0.5,0-0.9,0.1c-0.2,0.1-0.3,0.6-0.6,0.7
		c-0.2,0.1-0.6-0.1-0.9,0.1c-0.3,0.1-0.4,0.4-0.7,0.5c-0.3,0.1-0.5,0.3-0.7,0.4c-0.3,0.1-0.6,0.1-0.9,0.2c-0.3,0.1-0.6,0.2-0.8,0.3
		c-0.3,0.1-0.4,0.6-0.6,0.7c-0.1,0.1-0.3,0.2-0.5,0.5c-0.1,0.2-0.3,0.4-0.4,0.7c-0.1,0.2,0.1,0.6,0,0.9c-0.1,0.2-0.5,0.4-0.6,0.6
		c-0.1,0.3,0.1,0.6,0,0.9c-0.1,0.3-0.3,0.5-0.4,0.7c-0.1,0.3-0.1,0.6-0.2,0.8c-0.1,0.3-0.6,0.4-0.7,0.6c-0.2,0.3-0.5,0.5-0.7,0.5
		c-0.1,0.4,0.2,0.4,0.2,0.9c0,0.4-0.2,0.4-0.2,0.8c0,0.4,0.3,0.4,0.3,0.8c0,0.4-0.1,0.4,0,0.8c0,0.4,0.2,0.4,0.2,0.8
		c0,0.4-0.4,0.4-0.3,0.8c0,0.4,0.2,0.4,0.2,0.8s0.2,0.4,0.2,0.8c0,0.4-0.4,0.4-0.4,0.8c0,0.4,0.1,0.4,0.1,0.8c0,0.4,0,0.4,0,0.8
		c0,0.4,0.1,0.4,0.1,0.8c0,0.4,0.1,0.4,0.1,0.8c0,0.4,0.2,0.4,0.2,0.8c0,0.4-0.3,0.4-0.2,0.8c0,0.4,0.3,0.4,0.3,0.8
		c0,0.4-0.2,0.4-0.2,0.8c0,0.4,0.3,0.4,0.3,0.8c0,0.4-0.3,0.4-0.2,0.8c0,0.4,0.1,0.4,0.1,0.8c0,0.4,0.2,0.4,0.2,0.8
		c0,0.4-0.1,0.4-0.1,0.8c0,0.4,0.1,0.4,0.1,0.8c0,0.4-0.2,0.4-0.2,0.8s0.2,0.4,0.2,0.8c0,0.3,0.3,0.5,0.3,0.8c0,0.3-0.3,0.6-0.3,0.8
		c0,0.3,0.3,0.5,0.4,0.8c0,0.3,0.1,0.5,0.1,0.8c0,0.3-0.1,0.6-0.1,0.8c0.1,0.3,0,0.6,0.1,0.8c0.1,0.3,0.4,0.5,0.5,0.7
		c0.1,0.3,0.1,0.5,0.2,0.8c0.1,0.3,0.2,0.5,0.3,0.8c0.1,0.3-0.2,0.7-0.1,0.9c0.1,0.3,0.4,0.4,0.5,0.7c0.1,0.3,0.1,0.5,0.2,0.8
		c0.1,0.2,0.2,0.5,0.3,0.8c0.1,0.2,0.6,0.3,0.7,0.5c0.1,0.2,0,0.6,0.2,0.9c0.1,0.2,0.5,0.3,0.7,0.6c0.2,0.2,0.3,0.5,0.4,0.7
		c0.2,0.2,0.1,0.6,0.3,0.8c0.2,0.2,0.4,0.4,0.6,0.6c0.2,0.2,0.4,0.4,0.6,0.6c0.2,0.2,0.3,0.5,0.5,0.7c0.2,0.2,0.3,0.5,0.5,0.7
		c0.2,0.2,0.4,0.3,0.7,0.5c0.2,0.2,0.3,0.5,0.5,0.6c0.2,0.2,0.6,0.1,0.9,0.3c0.2,0.2,0.3,0.5,0.5,0.7c0.2,0.2,0.6,0.1,0.8,0.3
		c0.2,0.1,0.4,0.5,0.6,0.6s0.5,0.2,0.7,0.4c0.2,0.1,0.5,0.2,0.8,0.3c0.2,0.1,0.5,0.2,0.8,0.3c0.2,0.1,0.5,0.3,0.7,0.4
		c0.3,0.1,0.5,0.3,0.7,0.4c0.3,0.1,0.5,0.2,0.8,0.3c0.3,0.1,0.6,0.1,0.8,0.1c0.3,0.1,0.5,0.2,0.8,0.3c0.3,0.1,0.6-0.2,0.9-0.1
		c0.3,0.1,0.5,0.3,0.8,0.3c0.3,0,0.5,0.3,0.8,0.3c0.3,0,0.6-0.1,0.8,0c0.3,0,0.5,0.1,0.8,0.1c0.3,0,0.6-0.1,0.8-0.1
		c0.3,0,0.6,0.1,0.8,0.1c0.3,0,0.5-0.2,0.8-0.2c0.3,0,0.5-0.2,0.8-0.2c0.3,0,0.5-0.1,0.8-0.1c0.3,0,0.6,0.1,0.8,0
		c0.3-0.1,0.5-0.3,0.8-0.3c0.3-0.1,0.6,0,0.8,0c0.3-0.1,0.5-0.3,0.7-0.4c0.3-0.1,0.5-0.2,0.8-0.3c0.3-0.1,0.6,0.1,0.9,0
		c0.3-0.1,0.4-0.6,0.6-0.7c0.2-0.1,0.6,0,0.9-0.1c0.2-0.1,0.5-0.3,0.7-0.4c0.2-0.1,0.4-0.3,0.7-0.5c0.2-0.1,0.4-0.4,0.6-0.6
		c0.2-0.2,0.6-0.1,0.8-0.3s0.5-0.3,0.7-0.4c0.2-0.2,0.3-0.5,0.5-0.7c0.2-0.2,0.3-0.5,0.5-0.7c0.2-0.2,0.7-0.1,0.9-0.3
		c0.2-0.2,0.4-0.4,0.5-0.6c0.2-0.2,0.3-0.5,0.5-0.7c0.2-0.2,0.4-0.4,0.6-0.6c0.2-0.2,0.1-0.6,0.2-0.9c0.2-0.2,0.6-0.2,0.7-0.5
		c0.2-0.2,0.3-0.5,0.5-0.7c0.1-0.2,0.1-0.6,0.2-0.8c0.1-0.2,0.4-0.4,0.5-0.6c0.1-0.2,0.1-0.6,0.2-0.8c0.1-0.2,0.5-0.4,0.6-0.6
		c0.1-0.2,0-0.6,0.1-0.9c0.1-0.3,0.4-0.4,0.5-0.7c0.1-0.3,0.1-0.5,0.2-0.8c0.1-0.3,0.3-0.5,0.4-0.8c0.1-0.3-0.1-0.6,0-0.9
		c0.1-0.3,0.4-0.5,0.4-0.7c0.1-0.3,0.1-0.5,0.1-0.8c0-0.3,0.1-0.5,0.1-0.8c0-0.3,0.1-0.5,0.1-0.8c0-0.3-0.2-0.6-0.2-0.8
		c0-0.3,0-0.5,0-0.8c0-0.3,0-0.5,0-0.8c0-0.4,0.2-0.4,0.2-0.8c0-0.4-0.3-0.4-0.3-0.8c0-0.4,0.1-0.4,0.1-0.8c0-0.4,0.1-0.4,0.1-0.8
		c0-0.4,0-0.4,0-0.8c0-0.4,0.1-0.4,0.1-0.8c0-0.4-0.1-0.4-0.1-0.8c0-0.4,0.2-0.4,0.2-0.8c0-0.4-0.1-0.4,0-0.8c0-0.4-0.1-0.4-0.1-0.8
		c0-0.4-0.1-0.4-0.1-0.8c0-0.4,0.2-0.4,0.2-0.8c0-0.4-0.3-0.4-0.3-0.8c0-0.4,0-0.4,0-0.8c0-0.4,0.2-0.4,0.2-0.8
		c0-0.4-0.2-0.4-0.2-0.8c0-0.4,0-0.4,0-0.8c0-0.4,0.3-0.4,0.3-0.8c0-0.4-0.3-0.4-0.2-0.8c0-0.4,0.3-0.4,0.3-0.8
		c0-0.4-0.2-0.4-0.2-0.8c0-0.4,0.1-0.4,0.1-0.8C1190.7,671,1190.8,671,1190.8,670.6z"/>
	<polygon style="clip-path:url(#SVGID_2_);fill:#505050;" points="1193,656.9 1192.8,656.1 1192.4,655.4 1192.1,654.7 1192.2,653.9 
		1191.7,653.2 1191.3,652.5 1190.9,651.9 1190.8,651.1 1190.5,650.3 1190.1,649.7 1189.4,649.3 1189.1,648.5 1188.5,648 
		1187.8,647.6 1187.4,647 1186.9,646.3 1186.2,646 1185.6,645.4 1184.8,645.3 1184.2,644.8 1183.4,644.6 1182.6,644.8 1181.9,644.9 
		1181.5,644.1 1181.3,643.2 1180.8,642.6 1180,642.2 1179.5,641.7 1179,641.2 1178.4,640.7 1177.9,640.1 1177,640 1176.5,639.5 
		1175.8,639.1 1175,639 1174.4,638.6 1173.6,638.4 1172.8,638.4 1172.1,638.3 1171.3,638.4 1170.6,638.2 1169.8,638 1169.1,637.9 
		1168.3,637.9 1167.5,638 1166.8,638.3 1166,638.3 1165.3,638.2 1164.5,638.6 1163.8,638.6 1163.1,638.9 1162.3,638.9 1161.6,639.3 
		1160.8,639.3 1160.2,639.9 1159.5,640.1 1158.7,640.3 1158.1,640.7 1157.4,641 1156.7,641.3 1156.1,641.8 1155.4,642.1 
		1154.9,642.7 1154.3,643.1 1153.7,643.7 1153.1,644.1 1152.5,644.5 1151.9,645 1151.4,645.6 1150.9,646.2 1150.1,646.4 
		1149.7,647.1 1149.4,647.8 1148.6,648.2 1148.1,648.8 1147.7,649.4 1147.3,650.1 1146.8,650.7 1146.7,651.5 1146.3,652.1 
		1145.7,652.6 1145.5,653.4 1145.4,654.2 1144.9,654.8 1144.6,655.5 1144.3,656.2 1144.4,657 1144,657.7 1143.8,658.5 1143.7,659.2 
		1143.6,660 1143.8,660.8 1143.8,661.5 1143.8,662.3 1143.7,663 1143.7,663.8 1143.9,664.5 1143.9,665.3 1143.9,666 1143.9,666.8 
		1143.9,667.6 1144.4,668.3 1144.6,669 1144.8,669.7 1145.1,670.4 1145,671.2 1145.2,672 1145.7,672.8 1145.9,671.9 1146.4,671.3 
		1146.7,670.5 1147.1,669.8 1147.5,669.1 1147.9,668.4 1148.4,667.8 1148.7,667 1149.3,666.4 1149.6,665.6 1150.3,665.7 
		1151.1,665.5 1151.8,665.6 1152.6,665.9 1153.3,665.9 1154.1,665.7 1154.9,666 1155.6,665.7 1156.4,665.7 1157.2,666 1157.9,665.9 
		1158.7,666.1 1159.5,665.7 1160.2,666.2 1161,665.9 1161.8,665.9 1162.5,666.1 1163.3,666 1164,666 1164.8,666 1165.6,665.8 
		1166.3,666.1 1167.1,665.9 1167.9,665.8 1168.6,666.1 1169.4,666.2 1170.2,665.9 1170.9,665.9 1171.7,666.1 1172.5,666 1173.2,666 
		1174,666 1174.7,665.8 1175.5,666 1176.3,666.1 1177.1,666.1 1177.8,665.8 1178.6,665.7 1179.3,665.7 1180.1,665.9 1180.8,665.5 
		1181.6,665.6 1182.3,665.3 1183.2,665.3 1183.8,664.8 1184.3,664.2 1184.7,663.6 1185.2,663 1185.5,662.3 1185.9,661.6 1186.4,661 
		1186.4,660.2 1186.8,659.5 1187.1,658.8 1187,658 1187.3,657.2 1187.4,656.5 1187.7,655.7 1187.7,655.2 1187.7,655 1187.7,654.2 
		1187.8,655 1187.7,655.2 1187.8,655.7 1188.1,656.4 1188.2,657.2 1188.2,658 1188.7,658.7 1188.7,659.4 1188.8,660.2 1188.8,661 
		1189,661.7 1189.1,662.5 1189.3,663.2 1189.6,663.9 1189.5,664.7 1189.5,665.5 1189.7,666.2 1190.1,666.9 1190,667.7 1190.1,668.5 
		1190.3,669.2 1190.5,670 1190.8,670.7 1190.8,671.5 1190.7,672.3 1191,673 1191.1,672.2 1191.4,671.5 1191.5,670.7 1191.9,670 
		1192.2,669.3 1192.4,668.5 1192.4,667.7 1192.5,666.9 1192.4,666.1 1192.7,665.4 1193,664.7 1192.9,663.9 1193,663.1 1193,662.3 
		1193.1,661.5 1193.1,660.8 1193.1,660 1193.1,659.2 1193,658.5 1193.2,657.6 	"/>
	<polygon style="clip-path:url(#SVGID_2_);fill:#505050;" points="1187.7,654.2 1187.7,655 1187.7,655.2 1187.8,655 	"/>
	<path style="clip-path:url(#SVGID_2_);fill:#505050;" d="M1179,675.7c-0.1-0.3-0.2-0.6-0.4-0.7c-0.2-0.1-0.5-0.1-0.8-0.1
		s-0.7-0.2-0.9-0.1c-0.2,0.1-0.3,0.6-0.4,0.8c-0.1,0.2-0.5,0.5-0.5,0.8s0.3,0.5,0.5,0.8c0.1,0.3,0.3,0.4,0.6,0.5
		c0.2,0.1,0.5,0.4,0.8,0.4c0.3,0,0.7,0.1,0.9-0.1c0.3-0.1,0.4-0.5,0.6-0.7c0.1-0.2-0.1-0.6-0.1-0.9
		C1179.2,676.1,1179.1,676,1179,675.7z"/>
	<path style="clip-path:url(#SVGID_2_);fill:#505050;" d="M1161.3,675.2c-0.2-0.1-0.5-0.2-0.8-0.2s-0.6,0-0.9,0.1
		c-0.3,0.1-0.6,0.3-0.7,0.6c-0.1,0.2,0,0.6,0,0.9c0,0.3,0,0.6,0.2,0.8c0.1,0.3,0.4,0.4,0.7,0.5c0.2,0.1,0.5,0.5,0.8,0.5
		s0.6-0.2,0.9-0.3c0.3-0.1,0.3-0.5,0.4-0.8c0.1-0.2,0.5-0.5,0.5-0.8s-0.3-0.5-0.4-0.8C1161.7,675.5,1161.6,675.3,1161.3,675.2z"/>
	<g class="st6">
		<path class="st23" d="M1165.7,695.2C1165.6,695.1,1165.7,695.2,1165.7,695.2L1165.7,695.2z"/>
		<path class="st23" d="M1168.8,696.8C1168.9,696.7,1168.9,696.7,1168.8,696.8c0-0.1-0.1-0.1-0.1-0.1c-0.6,0,0.9,0.7,0.6,0.2
			c0-0.1-0.1-0.1-0.2-0.2c0,0-0.1,0-0.1,0C1168.7,696.8,1168.6,696.8,1168.8,696.8z"/>
		<path class="st23" d="M1169.1,696.7C1169,696.7,1169,696.7,1169.1,696.7C1169,696.7,1169,696.7,1169.1,696.7c-0.1,0-0.1,0-0.1,0
			C1169,696.7,1169,696.7,1169.1,696.7z"/>
		<path class="st23" d="M1168.8,696.8c-0.2,0.1-0.1,0.1,0.1,0c0.1,0,0.1,0,0.1,0c0,0,0,0,0,0C1169,696.7,1169,696.7,1168.8,696.8
			C1168.9,696.7,1168.9,696.7,1168.8,696.8z"/>
		<path class="st23" d="M1172.4,695.8c0.1-0.1,0.1-0.2,0.2-0.2C1172.5,695.7,1172.5,695.7,1172.4,695.8
			C1172.4,695.8,1172.4,695.8,1172.4,695.8C1172.3,695.9,1172.3,695.9,1172.4,695.8z"/>
		<path class="st23" d="M1174,694.6C1174,694.7,1174,694.7,1174,694.6C1173.8,694.8,1174.3,694.6,1174,694.6z"/>
		<path class="st23" d="M1171.5,696.3c0.3,0,0.6-0.1,0.9-0.1c-0.1-0.1-0.2-0.1-0.3-0.1c-0.1,0-0.1,0-0.2,0c0,0-0.1,0.1-0.1,0.1
			C1171.7,696.2,1171.6,696.3,1171.5,696.3z"/>
		<path class="st23" d="M1169.1,696.7C1169.1,696.7,1169.1,696.7,1169.1,696.7C1169.1,696.7,1169.1,696.7,1169.1,696.7
			C1169.3,696.7,1169.2,696.7,1169.1,696.7z"/>
		<path class="st23" d="M1174,694.6C1174.3,694.6,1173.8,694.8,1174,694.6C1174,694.7,1174,694.7,1174,694.6
			C1174,694.6,1174,694.6,1174,694.6c-0.2,0-0.3,0-0.4,0.1c-0.5,0.2-0.9,0.5-1.2,0.9c0,0-0.1,0.1-0.1,0.1c0,0,0,0,0,0
			c0.1-0.1,0.1-0.1,0.2-0.2c-0.1,0.1-0.2,0.1-0.2,0.2c-0.1,0.1-0.1,0,0,0c-0.2,0.1-0.3,0.2-0.5,0.3c0.1,0,0.1,0,0.2,0
			c0.1,0,0.3,0,0.3,0.1c-0.3,0-0.6,0.1-0.9,0.1c0.1,0,0.2-0.1,0.2-0.1c0,0,0.1-0.1,0.1-0.1c-0.4-0.1-0.8,0-1.2,0.1
			c-0.3,0.1-0.6,0.1-0.9,0.2c-0.2,0.1-0.6,0.1-0.8,0.2c0,0,0,0,0,0c0,0,0,0,0,0c0,0,0,0,0,0c0.2,0,0.2,0,0,0
			c0.1,0.1,0.1,0.1,0.2,0.2c0.4,0.4-1.2-0.3-0.6-0.2c0.1,0,0.1,0,0.2,0c0,0,0,0,0.1,0c-0.6-0.5-1.4-0.5-2.1-0.8
			c-0.1,0-0.2-0.1-0.4-0.1c-0.1,0-0.1,0-0.2-0.1c-0.1,0-0.1,0,0.1,0c-0.1,0-0.6-0.4-0.7-0.5c0,0,0,0-0.1,0c0.1,0.1-0.1-0.1,0,0
			c0,0,0,0-0.1-0.1c-0.3-0.2-0.4-0.3-0.8-0.5c-0.1,0-0.2,0-0.3-0.1c0,0-0.1,0-0.1,0c0,0,0,0,0.1,0c0.1,0.1,0.1,0.1-0.1,0
			c-0.3,0-0.3,0,0,0c0,0,0,0,0,0c0,0,0,0,0.1,0c-0.7-0.4-1.8-0.1-2.1,0.6c-0.4,0.8-0.1,1.6,0.6,2.2c0.2,0.1,0.4,0.2,0.6,0.3
			c0.1,0,0.2,0,0.2,0c-0.1-0.1-0.2-0.1-0.3-0.2c0.3,0.1,0.5,0.2,0.5,0.2c0,0,0.1,0,0.1,0c0,0-0.1,0-0.1,0c0,0,0,0-0.1,0
			c0,0,0.1,0,0.1,0c0,0,0,0,0,0c-0.1,0-0.1,0-0.2,0c0.1,0,0.1,0.1,0.2,0.1c0.1,0.1,0.2,0.2,0.4,0.3c0.6,0.4,1.2,0.7,1.8,0.9
			c0.3,0.1,0.7,0.2,1,0.3c0,0,0,0,0,0c-0.1-0.1-0.1-0.1-0.2-0.2c-0.2-0.2-0.1-0.1,0.4,0.2c-0.1,0-0.2,0-0.3-0.1c0,0,0,0,0,0
			c0.6,0.6,1.8,0.8,2.6,0.6c0.2-0.1,0.4-0.1,0.6-0.3c0,0,0,0,0,0c0,0-0.1,0-0.1,0c0.2-0.1,0.2-0.1,0.1,0c0,0,0.1,0,0.1,0
			c0.3-0.1,0.6-0.2,0.9-0.2c0,0,0.1,0,0.1,0c-0.1,0-0.1,0-0.2,0c-0.3-0.1-0.1-0.1,0.5,0c-0.1,0-0.2,0.1-0.3,0.1c0,0,0,0,0,0
			c0.6,0.1,1.1,0.1,1.6-0.2c0.5-0.3,1.2-0.7,1.6-1.1c0.1-0.1,0.1-0.1,0.2-0.2c-0.1,0-0.2,0-0.3,0.1c-0.2,0,0.9-0.9,0.5-0.3
			c-0.1,0.1-0.1,0.2-0.2,0.3c0.2-0.1,0.5-0.2,0.6-0.3c0.7-0.5,1.1-1.4,0.6-2.2C1175.7,694.6,1174.7,694.2,1174,694.6z"/>
		<path class="st23" d="M1171.3,699.2c0.1,0,0.1,0,0.2,0c0.1,0,0.2,0,0.3-0.1C1171.2,699.2,1171,699.2,1171.3,699.2z"/>
		<path class="st23" d="M1164.5,694.6C1164.4,694.6,1164.4,694.6,1164.5,694.6c-0.1,0-0.1,0-0.1,0
			C1164.5,694.7,1164.6,694.7,1164.5,694.6z"/>
		<path class="st23" d="M1170.3,699.6C1170.3,699.6,1170.3,699.6,1170.3,699.6C1170.5,699.5,1170.5,699.5,1170.3,699.6z"/>
		<path class="st23" d="M1174.6,697.8c0.1,0,0.2,0,0.3-0.1c0.1-0.1,0.1-0.2,0.2-0.3C1175.5,696.9,1174.4,697.8,1174.6,697.8z"/>
		<path class="st23" d="M1163.4,697.4c0.1,0.1,0.2,0.1,0.3,0.2c0.1,0,0.1,0,0.2,0C1163.9,697.7,1163.7,697.6,1163.4,697.4z"/>
		<path class="st23" d="M1166.9,699.1c0,0.1,0.1,0.1,0.2,0.2c0.1,0,0.2,0,0.3,0.1C1166.8,698.9,1166.7,698.9,1166.9,699.1z"/>
		<path class="st23" d="M1163.9,697.7c0,0-0.1,0-0.1,0C1163.9,697.7,1163.9,697.7,1163.9,697.7z"/>
	</g>
	<g class="st6">
		<path class="st23" d="M1171.6,686.4c-0.1-0.1-0.2-0.2-0.3-0.2c-0.2-0.1-0.5-0.2-0.8-0.2c-0.2,0-0.5,0-0.7,0c-0.2,0-0.5,0-0.7,0
			c-0.2,0-0.4,0-0.6,0.1c-0.2,0.1-0.4,0.2-0.5,0.3c-0.2,0.1-0.3,0.3-0.3,0.5c-0.1,0.2-0.1,0.4-0.1,0.6c0,0.1,0,0.3,0.1,0.4
			c0.1,0.3,0.2,0.5,0.4,0.7c0.1,0.1,0.2,0.2,0.3,0.2c0.2,0.1,0.5,0.2,0.8,0.2c0.2,0,0.5,0,0.7,0c0.2,0,0.5,0,0.7,0
			c0.2,0,0.4,0,0.6-0.1c0.2-0.1,0.4-0.2,0.5-0.3c0.2-0.1,0.3-0.3,0.3-0.5c0.1-0.2,0.1-0.4,0.1-0.6c0-0.1,0-0.3-0.1-0.4
			C1171.9,686.8,1171.8,686.6,1171.6,686.4z"/>
	</g>
</g>
<path class="st2" d="M1169.3,768.9c-40.1,0-72.8-32.7-72.8-72.8c0-40.1,32.7-72.8,72.8-72.8c40.1,0,72.8,32.7,72.8,72.8
	C1242.1,736.2,1209.4,768.9,1169.3,768.9z M1169.3,625.2c-39,0-70.8,31.8-70.8,70.8s31.8,70.8,70.8,70.8s70.8-31.8,70.8-70.8
	S1208.3,625.2,1169.3,625.2z"/>
<g>
	<defs>
		<rect id="SVGID_37_" x="1009.8" y="578.5" width="388.4" height="271"/>
	</defs>
	<clipPath id="SVGID_4_">
		<use xlink:href="#SVGID_37_"  style="overflow:visible;"/>
	</clipPath>
	<path style="clip-path:url(#SVGID_4_);fill:#FFCFBA;" d="M1305.9,777.3c0-0.7-0.5-0.7-0.5-1.4c0-0.7,0.1-0.7,0.1-1.4
		c0-0.7-0.3-0.7-0.3-1.4c0-0.7,0.4-0.7,0.4-1.4c0-0.7-0.2-0.7-0.2-1.4c0-0.7-0.2-0.7-0.2-1.4c0-0.7,0-0.7,0-1.4
		c0-0.7,0.4-0.7,0.4-1.4c0-0.7,0.2-0.7-0.2-1.2c-0.5-0.5-0.6,0.2-1.2,0.2c-0.7,0-0.7-0.6-1.4-0.6c-0.7,0-0.7,0.1-1.4,0.1
		c-0.7,0-0.7,0.6-1.4,0.6c-0.7,0-0.7-0.2-1.4-0.2c-0.7,0-0.7-0.1-1.4-0.1c-0.7,0-0.7,0.1-1.4,0.1c-0.7,0-0.7-0.3-1.4-0.3
		c-0.7,0-0.7,0.3-1.4,0.3c-0.7,0-0.7-0.1-1.4-0.1c-0.7,0-0.7-0.1-1.4-0.1c-0.7,0-0.7,0.2-1.4,0.2c-0.7,0-0.7-0.2-1.4-0.2
		s-0.7-0.4-1.4-0.4c-0.7,0-0.7-0.1-1.4-0.1c-0.7,0-0.7,0.7-1.4,0.7c-0.7,0-0.7-0.5-1.4-0.5c-0.7,0-0.7-0.1-1.4-0.1
		c-0.7,0-0.7,0.1-1.4,0.1c-0.7,0-0.7,0.4-1.4,0.4c-0.7,0-0.7-0.6-1.4-0.6c-0.7,0-0.7,0.4-1.4,0.4c-0.7,0-0.7-0.5-1.4-0.5
		c-0.7,0-0.7,0.2-1.4,0.2c-0.7,0-0.7,0.2-1.4,0.2c-0.7,0-0.7,0.2-1.4,0.2c-0.7,0-0.7-0.1-1.4-0.1c-0.7,0-0.7-0.2-1.4-0.2
		c-0.7,0-0.7-0.1-1.4-0.1c-0.7,0-0.7,0.2-1.4,0.2c-0.7,0-0.7,0-1.4,0s-0.7-0.2-1.4-0.2c-0.7,0-0.7,0.2-1.4,0.2
		c-0.7,0-0.7,0.3-1.4,0.3s-0.9-0.8-1.3-0.3c-0.5,0.5-0.4,0.7-0.4,1.4c0,0.7,0.2,0.7,0.2,1.4c0,0.7,0.3,0.7,0.3,1.4
		c0,0.7,0.2,0.7,0.2,1.4c0,0.7-0.1,0.7-0.1,1.4c0,0.7,0.2,0.7,0.2,1.4c0,0.7-0.4,0.7-0.4,1.4c0,0.7-0.1,0.7-0.1,1.4
		c0,0.7,0.3,0.7,0.3,1.4c0,0.7-0.5,0.7-0.5,1.4c0,0.7,0.1,0.7,0.1,1.4c0,0.7,0,0.7,0,1.4c0,0.7-0.1,0.7-0.1,1.4c0,0.7,0,0.7,0.2,1.4
		c0.4,0.3,1.1,0.3,1.4,0.5c0.4,0.3,0.5,0.9,0.9,1.2c0.4,0.3,1.1,0.1,1.5,0.3c0.4,0.2,0.5,1.1,0.9,1.3c0.4,0.2,1,0.2,1.4,0.4
		c0.4,0.2,0.8,0.7,1.2,0.8c0.4,0.2,0.9,0.2,1.4,0.4c0.4,0.2,1,0.1,1.4,0.3c0.5,0.1,0.8,0.6,1.3,0.8c0.5,0.1,1-0.2,1.5-0.1
		c0.5,0.1,0.8,0.7,1.3,0.8c0.5,0.1,1,0.1,1.4,0.2c0.5,0.1,1,0.1,1.4,0.1c0.5,0.1,1-0.2,1.5-0.1c0.5,0,0.9,0.3,1.4,0.3
		c0.5,0,0.9,0.3,1.4,0.3c0.5,0,1,0.1,1.4,0.1c0.5,0,1,0.1,1.4,0.1c0.5,0,1-0.2,1.4-0.2c0.5,0,1,0,1.4,0c0.5,0,0.9-0.1,1.4-0.2
		c0.5-0.1,0.9-0.4,1.4-0.5c0.5-0.1,1,0,1.4-0.1c0.5-0.1,0.9-0.2,1.4-0.3c0.5-0.1,1,0,1.4-0.1c0.5-0.1,0.8-0.7,1.3-0.8
		c0.5-0.1,1.1,0.3,1.5,0.2c0.5-0.1,0.8-0.6,1.3-0.7c0.5-0.1,1-0.1,1.4-0.3c0.5-0.1,0.8-0.5,1.3-0.6c0.4-0.2,0.9-0.4,1.3-0.6
		c0.4-0.2,1.1,0.1,1.5-0.1c0.4-0.2,0.6-0.9,1.1-1.1c0.4-0.2,1.1,0.1,1.5-0.2c0.4-0.2,0.9-0.3,1.3-0.5c0.4-0.2,0.4-0.8,0.8-1
		c0.2-0.7,0.4-0.6,0.4-1.3c0-0.7-0.4-0.7-0.4-1.4c0-0.7,0.6-0.7,0.6-1.4c0-0.7-0.5-0.7-0.5-1.4c0-0.7,0.5-0.7,0.5-1.4
		C1305.8,777.9,1305.9,777.9,1305.9,777.3z"/>
	<path style="clip-path:url(#SVGID_4_);fill:#FFCFBA;" d="M1319.7,800.2c-0.5-0.4-0.4-0.7-1-1c-0.6-0.2-0.8,0.1-1.4-0.1
		c-0.6-0.2-0.7,0.1-1.4-0.2c-0.6-0.2-0.5-0.5-1.2-0.8c-0.6-0.2-0.7-0.1-1.3-0.3c-0.6-0.2-0.6-0.4-1.2-0.6c-0.6-0.2-0.7-0.2-1.3-0.4
		c-0.6-0.2-0.7,0-1.4-0.2c-0.6-0.2-0.7-0.2-1.3-0.4c-0.7-0.2-0.5-0.7-1.2-0.9c-0.6-0.2-0.7,0.1-1.1-0.5c-0.4-0.6-0.2-0.5-0.2-1.2
		c0-0.7,0-0.7,0-1.4c0-0.7-0.1-0.7-0.1-1.4c0-0.7,0-0.7,0-1.4c0-0.7,0-0.7,0-1.4c0-0.7,0.2-0.7,0.2-1.4c0-0.7,0.6-0.9,0.3-1.5
		c-0.4,0.2-1.2,0.5-1.6,0.8c-0.4,0.2-0.7,0.7-1.2,0.9c-0.4,0.2-0.9,0.4-1.3,0.6c-0.4,0.2-1,0.1-1.4,0.3c-0.4,0.2-0.9,0.3-1.3,0.5
		c-0.4,0.2-0.8,0.7-1.2,0.8c-0.4,0.2-1,0.1-1.4,0.2c-0.5,0.1-0.9,0.4-1.3,0.5c-0.5,0.1-1,0.1-1.4,0.2c-0.5,0.1-1,0.1-1.4,0.2
		c-0.5,0.1-0.8,0.7-1.3,0.8c-0.5,0.1-0.9,0.1-1.4,0.2c-0.5,0.1-0.9,0.3-1.4,0.3c-0.5,0.1-1-0.2-1.5-0.1c-0.5,0.1-0.9,0.5-1.4,0.6
		c-0.5,0.1-1,0-1.4,0c-0.5,0-1-0.3-1.4-0.3c-0.5,0-0.9,0.5-1.4,0.5c-0.5,0-1,0-1.4,0c-0.5,0-1,0-1.4,0c-0.5,0-1-0.1-1.4-0.1
		c-0.5,0-0.9-0.3-1.4-0.3c-0.5,0-0.9-0.2-1.4-0.3c-0.5-0.1-0.9-0.3-1.4-0.3c-0.5-0.1-0.9-0.3-1.4-0.4c-0.5-0.1-1,0.3-1.5,0.2
		c-0.5-0.1-0.9-0.2-1.4-0.3c-0.5-0.1-0.8-0.7-1.2-0.9c-0.5-0.1-0.8-0.4-1.3-0.6c-0.4-0.2-1.1,0.1-1.5-0.1c-0.4-0.2-0.8-0.6-1.2-0.8
		c-0.4-0.2-1.1,0-1.5-0.2c-0.4-0.2-0.8-0.5-1.3-0.7c-0.4-0.2-0.7-0.7-1.1-1c-0.4-0.3-0.6-0.9-0.9-1.1c-0.4-0.3-0.8-0.2-1.1-0.5
		c-0.2,0.6-0.4,0.6-0.4,1.3c0,0.7,0.4,0.7,0.4,1.4c0,0.7-0.5,0.7-0.4,1.4c0,0.7,0.6,0.7,0.6,1.4c0,0.7-0.3,0.7-0.3,1.4
		c0,0.7,0.3,0.7,0.4,1.4c0,0.7,0.3,0.9-0.1,1.4c-0.4,0.6-0.9-0.2-1.6,0c-0.7,0.2-0.6,0.4-1.3,0.6c-0.7,0.2-0.7,0.2-1.4,0.4
		c-0.7,0.2-0.7,0.2-1.4,0.4c-0.7,0.2-0.7,0.2-1.4,0.4c-0.7,0.2-0.8,0-1.5,0.2c-0.7,0.2-0.7,0.3-1.4,0.5c-0.7,0.2-0.7,0.2-1.4,0.4
		c-0.7,0.2-0.8,0-1.5,0.2c-0.7,0.2-0.7,0.3-1.4,0.5c-0.7,0.2-0.7,0.3-1.3,0.7c-0.6,0.4,0,0.4,0.4,1.2c0.2,0.4,0.5,0.7,0.7,1.2
		c0.2,0.4,0.4,0.8,0.6,1.3c0.2,0.4,0.4,0.8,0.6,1.3c0.2,0.4,0.7,0.7,1,1.1c0.2,0.4,0,1,0.2,1.5c0.2,0.4,0.8,0.6,1,1.1
		c0.2,0.4,0,1.1,0.2,1.5c0.2,0.4,0.8,0.6,1.1,1c0.2,0.4,0.2,1,0.4,1.4c0.2,0.4,0.3,0.9,0.6,1.3c0.2,0.4,0.7,0.7,1,1.1
		c0.2,0.4,0.3,0.9,0.5,1.3c0.2,0.4,0.7,0.7,1,1.1c0.2,0.4,0.5,0.8,0.7,1.2c0.2,0.4,0.4,0.9,0.6,1.3c0.2,0.4,0.3,0.9,0.6,1.3
		c0.2,0.4,0.8,0.6,1,1c0.2,0.4,0.4,0.8,0.7,1.2c0.3,0.4,0.2,1,0.4,1.4c0.3,0.4,0.6,0.7,0.9,1.1c0.3,0.4,0.8,0.6,1.1,1
		c0.3,0.4,0.2,1,0.4,1.4c0.3,0.4,0.7,0.6,1,1c0.3,0.4,0.7,0.7,1,1c0.3,0.4,0.2,1,0.5,1.4c0.3,0.4,1,0.4,1.3,0.8
		c0.3,0.4,0.1,1.1,0.4,1.5c0.3,0.4,0.7,0.7,1,1c0.3,0.4,1,0.4,1.3,0.8c0.3,0.4,0.5,0.8,0.8,1.1c0.3,0.4,0.4,0.9,0.7,1.2
		c0.3,0.4,0.6,0.7,0.9,1.1c0.3,0.3,0.9,0.4,1.3,0.7c0.3,0.3,0.2,1.1,0.5,1.5c0.3,0.3,1.1,0.2,1.4,0.5c0.4,0.3,0.7,0.6,1.1,0.9
		c0.4,0.3,0.3,1.1,0.7,1.4c0.4,0.3,1,0.2,1.4,0.5c0.4,0.3,0.8,0.5,1.2,0.8c0.4,0.3,0.7,0.7,1.1,1c0.4,0.2,0.9,0.4,1.3,0.6
		c0.4,0.2,0.8,0.6,1.2,0.8c0.5,0.2,1,0.1,1.4,0.2c0.5,0.1,1-0.2,1.5-0.2c0.5,0.1,0.9,0.5,1.4,0.5c0.5,0,1,0.3,1.4,0.2
		c0.5-0.1,0.9-0.2,1.4-0.3c0.4-0.1,0.8-0.6,1.2-0.8c0.4-0.2,0.8-0.5,1.2-0.7c0.4-0.2,1-0.1,1.4-0.3c0.4-0.2,0.9-0.3,1.3-0.6
		c0.4-0.2,0.7-0.6,1.1-0.9c0.4-0.3,0.8-0.4,1.2-0.7c0.4-0.3,0.6-0.7,1-1c0.3-0.3,0.8-0.5,1.2-0.8c0.3-0.3,0.6-0.8,0.9-1.1
		c0.3-0.3,0.4-0.9,0.7-1.3c0.3-0.3,1-0.4,1.3-0.7c0.3-0.3,0.7-0.7,1-1c0.3-0.3,0.2-1.1,0.5-1.4c0.3-0.4,0.8-0.5,1.1-0.9
		c0.3-0.4,0.5-0.8,0.8-1.2c0.3-0.4,1-0.4,1.3-0.8c0.3-0.4,0.3-0.9,0.6-1.3c0.3-0.4,0.6-0.7,0.9-1.1c0.3-0.4,0.2-1,0.5-1.4
		c0.3-0.4,0.9-0.5,1.2-0.9c0.3-0.4,0.4-0.9,0.7-1.2c0.3-0.4,0.3-0.9,0.6-1.3c0.3-0.4,0.8-0.6,1.1-1c0.2-0.4,0.3-0.9,0.6-1.3
		c0.2-0.4,0.6-0.7,0.8-1.1c0.2-0.4,0.3-0.9,0.5-1.3c0.2-0.4,0.7-0.7,0.9-1.1c0.2-0.4,0.5-0.8,0.7-1.2c0.2-0.4,0.4-0.8,0.6-1.2
		c0.2-0.4,0.6-0.7,0.8-1.2c0.2-0.4,0.1-1,0.3-1.4c0.2-0.4,0.7-0.7,0.9-1.1c0.2-0.4,0.6-0.8,0.8-1.2c0.2-0.4-0.2-1.2,0-1.6
		c0.2-0.4,0.7-0.7,0.9-1.1c0.2-0.4,0.3-0.9,0.5-1.3c0.2-0.4,0.6-0.8,0.8-1.2c0.2-0.4,0.3-0.9,0.5-1.3c0.2-0.4,0.9-0.6,1.1-1
		c0.2-0.4,0.1-1,0.3-1.4c0.2-0.5,0.1-1,0.3-1.4c0.2-0.5,0.7-0.8,0.9-1.1C1319.6,800.5,1320.2,800.6,1319.7,800.2z"/>
	<path style="clip-path:url(#SVGID_4_);fill:#FFCFBA;" d="M1316.9,684.4c-0.7,0-0.6-0.3-1.3-0.5c-0.7-0.2-0.8,0.1-1.4,0
		c-0.7-0.2-0.7,0-1.4-0.1c-0.7-0.2-0.7-0.1-1.4-0.3c-0.7-0.2-0.7,0-1.4-0.2c-0.7-0.2-0.7-0.2-1.4-0.4c-0.7-0.2-0.7,0-1.4-0.1
		c-0.7-0.2-0.7-0.2-1.4-0.4c-0.7-0.2-0.7-0.3-1.4-0.4c-0.7-0.2-0.6-0.5-1.3-0.6c-0.7-0.2-0.8,0.2-1.5,0.1c-0.7-0.2-0.6-0.6-1.3-0.8
		c-0.7-0.2-0.7-0.1-1.4-0.3c-0.7-0.2-0.8,0.5-1.5,0.3c-0.7-0.2-0.6-0.6-1.3-0.8c-0.7-0.1-0.8,0.1-1.5,0c-0.7-0.2-0.7-0.1-1.4-0.2
		c-0.7-0.2-0.7-0.1-1.4-0.2c-0.7-0.1-0.6-0.4-1.3-0.6c-0.7-0.1-0.8,0.2-1.5,0c-0.7-0.2-0.6-0.5-1.3-0.6c-0.7-0.2-0.7-0.1-1.4-0.2
		c-0.7-0.2-0.7-0.1-1.4-0.3c-0.7-0.2-0.7-0.3-1.3-0.5c-0.7-0.2-0.7,0-1.4-0.1c-0.7-0.2-0.7-0.1-1.4-0.3c-0.7-0.2-0.6-0.4-1.3-0.5
		c-0.7-0.2-0.8,0.4-1.5,0.3c-0.7-0.2-0.6-0.4-1.3-0.5c-0.7-0.2-0.7,0-1.4-0.1c-0.7-0.2-0.6-0.5-1.3-0.7s-0.7-0.3-1.4-0.5
		c-0.7-0.2-0.8,0.3-1.5,0.2c-0.7-0.2-0.6-0.5-1.3-0.6c-0.7-0.1-0.7,0.1-1.4-0.1c-0.7-0.1-0.7-0.5-1.4-0.4c-0.7,0.1-0.7,0.2-1.3,0.5
		c-0.6,0.4-0.6,0.4-1.2,0.7c-0.6,0.4-0.5,0.5-1.1,0.9c-0.6,0.4-0.5,0.6-1.1,0.9c-0.6,0.4-0.6,0.3-1.2,0.7c-0.6,0.4-0.7,0.2-1.3,0.6
		c-0.6,0.4-0.6,0.3-1.2,0.7c-0.6,0.4-0.7,0.2-1.3,0.6c-0.6,0.4-0.7,0.1-1.3,0.5c-0.6,0.4-0.5,0.4-1.1,0.8c-0.6,0.4-0.4,0.7-1,1
		c-0.6,0.4-0.6,0.3-1.2,0.7c-0.6,0.4-0.8,0-1.4,0.4c-0.6,0.4-0.6,0.3-1.2,0.6c-0.6,0.4-0.4,0.7-1,1.1c-0.6,0.4-0.7,0.2-1.3,0.6
		c-0.6,0.4-0.5,0.5-1.1,0.9c-0.6,0.4-0.6,0.4-1.2,0.7c-0.6,0.4-0.6,0.3-1.2,0.7c-0.6,0.4-1-0.1-1.4,0.5c-0.3,0.6-0.1,0.8-0.1,1.5
		c0,0.7,0.1,0.7,0.1,1.4c0,0.7-0.2,0.7-0.1,1.4c0,0.7,0.3,0.7,0.3,1.4c0,0.7-0.2,0.7-0.2,1.4c0,0.7,0.6,0.7,0.6,1.4
		c0,0.7-0.3,0.7-0.2,1.4c0,0.7-0.4,0.7-0.4,1.4c0,0.7,0.3,0.7,0.3,1.4c0,0.7,0,0.7,0,1.4c0,0.7,0.2,0.7,0.2,1.4c0,0.7,0,0.7,0,1.4
		c0,0.7-0.4,0.7-0.3,1.4c0,0.7,0.8,0.7,0.8,1.4c0,0.7-0.7,0.7-0.7,1.4c0,0.7,0.3,0.7,0.3,1.4c0,0.7,0.4,0.7,0.4,1.4
		c0,0.7-0.5,0.7-0.5,1.4c0,0.7,0.2,0.7,0.2,1.4c0,0.7,0.4,0.7,0.4,1.4c0,0.7-0.1,0.7-0.1,1.4c0,0.7,0.2,0.7,0.3,1.4
		c0,0.7-0.6,0.7-0.6,1.4c0,0.7,0.6,0.7,0.6,1.4c0,0.7-0.2,0.7-0.2,1.4c0,0.7,0.3,0.7,0.3,1.4c0,0.7-0.2,0.7-0.2,1.4
		c0,0.7-0.3,0.7-0.3,1.4s0,0.7,0,1.4c0,0.7-0.1,0.7-0.1,1.4c0,0.7,0.2,0.7,0.2,1.4c0,0.7,0.3,0.7,0.3,1.4c0,0.7-0.2,0.7-0.2,1.4
		c0,0.7,0.5,0.7,0.5,1.4c0,0.7-0.5,0.7-0.5,1.4c0,0.7,0.2,0.7,0.2,1.4c0,0.7,0.2,0.7,0.3,1.4c0,0.7-0.6,0.7-0.5,1.4
		c0,0.7,0.5,0.7,0.5,1.4c0,0.7-0.1,0.7-0.1,1.4c0,0.5,0,0.9,0,1.4c0,0.5,0.4,0.9,0.4,1.4c0,0.5,0.1,0.9,0.2,1.4
		c0.1,0.5,0.1,0.9,0.1,1.4c0.1,0.5,0,0.9,0.1,1.4c0.1,0.5,0.4,0.9,0.5,1.3c0.1,0.5-0.1,1,0,1.4c0.1,0.5,0.5,0.8,0.6,1.3
		c0.1,0.4-0.3,1.1-0.1,1.5c0.2,0.4,0.7,0.7,0.9,1.2c0.2,0.4,0.4,0.8,0.6,1.3c0.2,0.4,0.2,1,0.4,1.4c0.2,0.4,0.6,0.7,0.8,1.2
		c0.2,0.4,0.5,0.8,0.8,1.2c0.2,0.4,0.5,0.8,0.7,1.2c0.3,0.4,0.1,1,0.4,1.4c0.3,0.4,0.7,0.7,1,1c0.3,0.4,0.9,0.5,1.2,0.9
		c0.3,0.4,0.6,0.7,0.9,1.1c0.3,0.4,0.6,0.7,0.9,1.1c0.3,0.3,0.4,1,0.7,1.3c0.3,0.3,0.8,0.5,1.2,0.8c0.3,0.3,0.4,1,0.8,1.3
		c0.4,0.3,1.2,0.1,1.5,0.3c0.4,0.3,0.7,0.6,1.1,0.8c0.4,0.3,0.5,0.9,0.9,1.1c0.4,0.3,0.9,0.3,1.3,0.6c0.4,0.2,0.9,0.3,1.3,0.6
		c0.4,0.2,0.6,0.8,1,1c0.4,0.2,0.7,0.6,1.2,0.8c0.4,0.2,1.1-0.1,1.5,0.1c0.4,0.2,0.9,0.3,1.3,0.5c0.4,0.2,0.7,0.7,1.2,0.8
		c0.4,0.1,1-0.1,1.5,0c0.4,0.1,0.8,0.5,1.3,0.6c0.5,0.1,0.8,0.6,1.3,0.6c0.5,0.1,0.9,0.2,1.4,0.3c0.5,0.1,1-0.1,1.4,0
		c0.5,0.1,1-0.3,1.4-0.2c0.5,0,0.9,0.3,1.4,0.3c0.5,0,0.9,0.1,1.4,0.1c0,0,0,0.2,0,0.2c0.5,0,0.9-0.4,1.4-0.4c0.5,0,0.9-0.1,1.4-0.2
		c0.5,0,1,0.4,1.4,0.3c0.5-0.1,0.8-0.7,1.3-0.8c0.5-0.1,0.9-0.1,1.4-0.2c0.5-0.1,0.9-0.2,1.4-0.3c0.5-0.1,1,0.1,1.4,0
		c0.5-0.1,0.9-0.4,1.3-0.6c0.4-0.1,0.9-0.4,1.3-0.5c0.4-0.2,1.1,0.1,1.5-0.1c0.4-0.2,0.7-0.7,1.1-0.9c0.4-0.2,0.9-0.3,1.3-0.5
		c0.4-0.2,0.7-0.7,1.1-0.9c0.4-0.2,1-0.2,1.4-0.4c0.4-0.2,0.8-0.5,1.2-0.8c0.4-0.3,0.9-0.4,1.2-0.7c0.4-0.3,0.6-0.8,1-1.1
		c0.4-0.3,0.8-0.5,1.2-0.8c0.4-0.3,0.6-0.7,1-1c0.3-0.3,0.4-0.9,0.8-1.2c0.3-0.3,0.7-0.6,1-1c0.3-0.3,0.7-0.7,1-1
		c0.3-0.4,0.7-0.6,1-1c0.3-0.4,0.6-0.8,0.8-1.1c0.3-0.4,0.7-0.6,1-1c0.3-0.4,0.5-0.8,0.7-1.2c0.2-0.4,0.5-0.8,0.7-1.2
		c0.2-0.4,0.3-0.9,0.5-1.3c0.2-0.4,0.2-0.9,0.4-1.4c0.2-0.4,0.5-0.8,0.7-1.2c0.2-0.4,0.3-0.9,0.4-1.3c0.2-0.4,0.9-0.7,1.1-1.1
		c0.2-0.4,0.3-0.9,0.4-1.4c0.1-0.4,0.4-0.9,0.5-1.3c0.1-0.5-0.2-1-0.1-1.5c0.1-0.5,0.3-0.9,0.4-1.4c0.1-0.5,0.1-0.9,0.2-1.4
		c0.1-0.5,0.3-0.9,0.4-1.4c0.1-0.5,0.1-0.9,0.2-1.4c0-0.5-0.1-1-0.1-1.4c0-0.5,0.2-0.9,0.2-1.4c0-0.7,0.1-0.7,0.1-1.4
		c0-0.7-0.4-0.7-0.4-1.4c0-0.7,0-0.7,0-1.4c0-0.7,0.4-0.7,0.4-1.4c0-0.7-0.1-0.7,0-1.4c0-0.7-0.5-0.7-0.5-1.4c0-0.7,0.6-0.7,0.6-1.4
		c0-0.7-0.1-0.7-0.1-1.4c0-0.7,0.2-0.7,0.2-1.4c0-0.7-0.1-0.7,0-1.4c0-0.7-0.3-0.7-0.2-1.4c0-0.7,0.4-0.7,0.5-1.4
		c0-0.7-0.4-0.7-0.4-1.4c0-0.7,0.1-0.7,0.2-1.4c0-0.7,0-0.7,0-1.4c0-0.7,0.1-0.7,0.2-1.4c0-0.7-0.1-0.7-0.1-1.4c0-0.7,0-0.7,0-1.4
		c0-0.7-0.1-0.7-0.1-1.4c0-0.7,0.3-0.7,0.3-1.4c0-0.7-0.6-0.7-0.6-1.4c0-0.7,0.4-0.7,0.4-1.4c0-0.7,0.2-0.7,0.2-1.4
		c0-0.7-0.3-0.7-0.3-1.4c0-0.7-0.2-0.7-0.2-1.4c0-0.7,0-0.7,0-1.4c0-0.7,0.6-0.7,0.6-1.4c0-0.7-0.2-0.7-0.2-1.4
		c0-0.7-0.3-0.7-0.3-1.4c0-0.7,0.3-0.7,0.3-1.4c0-0.7-0.1-0.7-0.1-1.4c0-0.7,0.4-0.7,0.4-1.4c0-0.7-0.5-0.7-0.5-1.4
		c0-0.7,0.7-0.7,0.7-1.4c0-0.7,0-0.7,0.1-1.4c0-0.7-0.2-0.7-0.2-1.4c0-0.7-0.4-0.7-0.4-1.4c0-0.7,0.1-0.7,0.1-1.4
		c0-0.7,0.1-0.7,0.1-1.4c0-0.7-0.1-0.7-0.1-1.4c0-0.7,0.6-0.7,0.7-1.4c0-0.7,0.4-1.1,0-1.6C1318.1,684.1,1317.7,684.4,1316.9,684.4z
		"/>
	<path style="clip-path:url(#SVGID_4_);fill:#FFCFBA;" d="M1245.4,738.1c0-0.7-0.3-0.7-0.3-1.4c0-0.7,0-0.7,0-1.4
		c0-0.7,0.3-0.7,0.2-1.4c0-0.7-0.4-0.7-0.4-1.4c0-0.7,0.3-0.7,0.3-1.4c0-0.7-0.5-0.7-0.6-1.4c0-0.7,0-0.7-0.1-1.4
		c0-0.7,0.5-0.7,0.5-1.4c0-0.7-0.7-0.7-0.7-1.4c0-0.7,0.1-0.7,0-1.4c0-0.7,0.3-0.7,0.2-1.4c0-0.7-0.4-0.7-0.5-1.4
		c0-0.7,0.2-0.7,0.2-1.4c0-0.7,0-0.7-0.1-1.4c0-0.7-0.5-0.7-0.5-1.4c0-0.7,0.3-0.7,0.3-1.4c0-0.7,0.1-0.7,0-1.4
		c0-0.7,0.2-0.8-0.1-1.4c-0.5,0-1.1,0.1-1.6,0.1c-0.5,0-0.9,0.4-1.4,0.5c-0.5,0.1-0.9,0.3-1.4,0.4c-0.5,0.1-1-0.1-1.5,0.1
		c-0.4,0.2-0.9,0.4-1.3,0.7c-0.4,0.2-1,0.3-1.4,0.5c-0.4,0.3-0.7,0.7-1,1c-0.4,0.3-0.6,0.8-0.9,1.1c-0.3,0.3-0.6,0.7-0.9,1.1
		c-0.3,0.4-0.5,0.8-0.7,1.2c-0.2,0.4-0.4,0.9-0.6,1.3c-0.2,0.4-0.5,0.8-0.7,1.3c-0.2,0.4-0.7,0.8-0.8,1.3c-0.1,0.5,0.1,1,0,1.5
		c-0.1,0.5-0.5,0.9-0.5,1.4c0,0.5,0.5,1,0.5,1.5c0,0.5-0.2,0.9-0.1,1.4c0.1,0.5,0.4,0.9,0.5,1.3c0.1,0.5,0.2,0.9,0.4,1.3
		c0.2,0.4,0.6,0.7,0.8,1.1c0.2,0.4,0.4,0.9,0.7,1.2c0.3,0.4,0.4,0.9,0.7,1.2c0.3,0.3,0.7,0.7,1,1c0.4,0.3,0.6,0.8,0.9,1.1
		c0.4,0.3,1.1,0,1.5,0.3c0.4,0.3,0.5,1,0.9,1.3c0.4,0.2,0.9,0.3,1.4,0.5c0.4,0.2,0.8,0.5,1.3,0.7c0.4,0.2,1.1-0.4,1.6-0.2
		c0.5,0.1,0.9,0.4,1.3,0.5c0.5,0.1,0.9,0.4,1.4,0.5c0.5,0.1,0.9-0.1,1.4-0.1c0.2-0.7,0.2-0.7,0.1-1.4
		C1245.3,738.8,1245.4,738.8,1245.4,738.1z"/>
	<path style="clip-path:url(#SVGID_4_);fill:#FFCFBA;" d="M1329.5,728.2c-0.1-0.5-0.7-0.9-0.8-1.3c-0.1-0.5,0.1-1-0.1-1.5
		c-0.2-0.5-0.6-0.8-0.8-1.2c-0.2-0.4-0.1-1.1-0.3-1.5c-0.3-0.4-0.5-0.9-0.8-1.3c-0.3-0.4-0.8-0.7-1.1-1c-0.4-0.3-0.8-0.5-1.2-0.8
		c-0.4-0.3-0.8-0.5-1.3-0.7c-0.4-0.2-0.9-0.2-1.4-0.4c-0.4-0.2-1-0.1-1.4-0.2c-0.5-0.1-0.9-0.5-1.4-0.5c-0.5-0.1-1-0.1-1.4-0.1
		c-0.5,0-1.3-0.2-1.8-0.2c-0.3,0.6,0,0.8,0,1.5c0,0.7,0.2,0.7,0.2,1.4c0,0.7,0.1,0.7,0,1.4c0,0.7,0,0.7-0.1,1.4
		c0,0.7-0.1,0.7-0.2,1.4c0,0.7-0.4,0.7-0.5,1.4c0,0.7,0.4,0.7,0.3,1.4c0,0.7,0,0.7-0.1,1.4c0,0.7-0.3,0.7-0.4,1.4
		c0,0.7,0.3,0.7,0.3,1.4c0,0.7-0.4,0.7-0.4,1.4c0,0.7-0.1,0.7-0.2,1.4c0,0.7,0.6,0.7,0.5,1.4c0,0.7-0.6,0.7-0.6,1.4
		c0,0.7-0.1,0.7-0.1,1.4c0,0.7,0.5,0.8,0.4,1.5c-0.1,0.7-0.6,0.7-0.4,1.4c0.5,0,1-0.1,1.5-0.2c0.5,0,1,0.2,1.5,0.1
		c0.5-0.1,1,0.1,1.5,0c0.5-0.1,0.8-0.9,1.3-1c0.5-0.1,1-0.1,1.4-0.2c0.5-0.2,0.8-0.5,1.3-0.7c0.4-0.2,1.2,0.2,1.6-0.1
		c0.4-0.2,0.5-1,0.9-1.3c0.4-0.3,0.9-0.4,1.3-0.7c0.3-0.3,0.6-0.7,0.9-1.1s0.8-0.7,1-1.1c0.2-0.4,0.6-0.8,0.7-1.3
		c0.1-0.4,0.1-1,0.1-1.5c0.1-0.5,0.2-1,0.2-1.5c0-0.5-0.2-1-0.3-1.4C1329.3,729.2,1329.5,728.7,1329.5,728.2z"/>
	<polygon style="clip-path:url(#SVGID_4_);fill:#505050;" points="1331.7,687.4 1331.6,686.1 1331.5,684.7 1331.3,683.4 
		1330.4,682.3 1329.9,681.1 1329.5,679.9 1328.4,679 1327.8,677.8 1327.2,676.7 1326.4,675.6 1325.5,674.7 1324.7,673.7 
		1323.3,673.2 1322.5,672.1 1321.7,671.1 1320.5,670.5 1319.7,669.4 1318.5,668.8 1317.5,668 1316.6,667 1315.6,666.2 1314.4,665.6 
		1313.6,664.5 1312.3,664.1 1311.6,662.8 1310.7,661.9 1309.7,661 1308.5,660.5 1307.5,659.6 1306.2,659.1 1305.5,657.8 
		1304.2,657.4 1303.3,656.4 1302.1,655.9 1300.7,655.6 1299.7,654.8 1298.6,654 1297.4,653.5 1296,653.3 1294.8,652.8 1293.6,652.2 
		1292.4,651.8 1291.1,651.3 1289.7,651.6 1288.5,650.8 1287.2,650.7 1285.9,650.9 1284.6,650.2 1283.3,650.1 1282,650.4 
		1280.7,650.4 1279.4,650.3 1278.1,650.6 1276.8,650.6 1275.4,650.3 1274.2,651.1 1272.8,650.8 1271.6,651.3 1270.2,651.1 
		1269.1,652 1267.7,652.1 1266.4,652.4 1265.2,652.9 1264.1,653.6 1262.9,654.2 1261.6,654.4 1260.5,655.1 1259.4,655.8 
		1258.2,656.5 1257.2,657.4 1256.2,658.2 1254.9,658.7 1254,659.6 1253.1,660.6 1251.9,661.3 1251.4,662.5 1250.5,663.5 
		1249.7,664.5 1248.8,665.5 1248,666.5 1247,667.4 1246.7,668.8 1245.6,669.9 1246.1,670 1244.9,670.4 1243.9,671.4 1242.6,671.9 
		1241.6,672.7 1240.8,673.8 1240,674.8 1239.3,676 1238.1,676.7 1237.9,678.2 1237.3,679.3 1236.2,680.2 1236,681.6 1235.4,682.8 
		1234.9,684 1233.9,685 1233.7,686.4 1233.4,687.7 1232.9,688.9 1232,690 1231.9,691.4 1231.5,692.6 1231.4,694 1230.6,695.1 
		1230.5,696.5 1230.4,697.8 1230.7,699.1 1230.4,700.5 1231.1,701.7 1231.2,703.1 1231.7,704.3 1232.5,705.4 1233.4,706.4 
		1234.1,707.6 1234.6,708.8 1235.6,709.8 1235.9,711.2 1237,712.1 1237.6,713.3 1238.8,714.1 1239.3,715.3 1240,716.5 1240.9,717.5 
		1241.5,718.7 1242.4,719.8 1242.6,721.1 1243,722.4 1243.5,721 1243.8,719.7 1243.9,718.3 1243.7,716.8 1244.4,715.6 1244.2,714.1 
		1244.8,712.8 1244.9,711.4 1245.9,710.5 1246.7,709.5 1248.1,709.1 1248.9,708 1249.9,707.2 1250.2,705.7 1251.3,704.9 1252.3,704 
		1252.6,702.6 1253.3,701.5 1254.5,700.8 1255,699.5 1255.7,698.4 1256.3,697.3 1256.5,695.9 1257.2,694.8 1257.9,693.6 
		1258.2,692.4 1259,691.3 1258.9,689.8 1259.5,688.7 1260.2,687.5 1260.3,686.2 1260.9,685 1261.5,683.8 1262,682.6 1262.4,681.4 
		1262.5,680.1 1263.9,680.2 1265.1,680.7 1266.2,681.4 1267.5,681.6 1268.6,682.5 1270,682.5 1271.1,683.3 1272.4,683.5 
		1273.7,683.7 1274.8,684.4 1276.1,684.7 1277.3,685.2 1278.5,686 1279.7,686.2 1280.8,687 1282.2,687.1 1283.5,687.4 1284.6,688.2 
		1285.8,688.8 1287.1,688.9 1288.4,689.3 1289.5,689.9 1290.7,690.5 1292,690.7 1293.2,691.2 1294.5,691.5 1295.8,691.8 1297,692.1 
		1298.2,692.7 1299.4,693.2 1300.5,693.7 1301.8,694 1303.1,694.3 1303.9,695.3 1304.9,696.1 1306.2,696.6 1306.9,697.8 1307.3,699 
		1308.3,700 1308.7,701.3 1309.5,702.4 1310.4,703.4 1310.8,704.7 1311.4,706 1312.3,707 1313,708.1 1313.1,709.5 1313.7,710.8 
		1314.7,711.7 1314.8,713.2 1315.9,714.1 1316,715.6 1316.7,716.8 1317.2,718 1318.3,718.9 1318.3,720.4 1319.1,721.7 1319.7,720.3 
		1319.7,718.9 1320.5,717.8 1321.5,716.8 1321.7,715.4 1322.3,714.2 1323.3,713.3 1323.5,711.9 1324.6,711 1324.8,709.6 
		1325.4,708.4 1326.3,707.4 1327.1,706.3 1327.8,705.2 1328.3,704 1329,702.8 1329.1,701.5 1329.5,700.2 1330.1,699 1330.4,697.7 
		1331.3,696.6 1331.3,695.2 1331.8,694 1331.5,692.6 1331.9,691.3 1332,690 1331.8,688.7 	"/>
	<polygon style="clip-path:url(#SVGID_4_);fill:#B2E2F8;" points="1384.4,893.9 1384.6,892.6 1384.7,891.3 1384.6,889.9 
		1384.5,888.6 1384.6,887.3 1385.2,886 1385,884.6 1384.6,883.3 1385.1,882 1385,880.6 1385,879.3 1385.1,878 1384.6,876.7 
		1384.6,875.3 1384.6,874 1384.7,872.7 1385,871.4 1384.8,870.1 1385.1,868.7 1385,867.4 1384.9,866.1 1385.1,864.8 1384.8,863.4 
		1384.8,862.1 1384.9,860.8 1385.1,859.5 1384.7,858.1 1385.2,856.8 1384.5,855.5 1384.7,854.2 1385,852.8 1384.8,851.5 
		1385.1,850.2 1385,848.9 1384.7,847.5 1385,846.2 1384.5,844.9 1385.2,843.6 1384.7,842.3 1384.7,841 1384.4,839.7 1385,838.3 
		1384.2,837.1 1384.5,835.7 1384.1,834.4 1383.6,833.2 1383.1,832 1383,830.7 1382.3,829.5 1381.7,828.4 1381.5,827 1380.5,826.1 
		1379.6,825 1379.1,823.8 1378.5,822.7 1377.5,821.8 1377.1,820.4 1375.9,819.7 1375.4,818.5 1374.5,817.5 1373.3,816.8 
		1372.5,815.7 1371.5,814.8 1370.2,814.4 1369.4,813.3 1368.2,812.8 1367,812.2 1365.8,811.6 1364.9,810.6 1363.6,810.2 
		1362.5,809.4 1361.3,808.9 1360.2,808.2 1359,807.6 1357.6,807.6 1356.5,806.8 1355.2,806.5 1354,806.1 1352.6,806.1 1351.4,805.6 
		1350.1,805.2 1348.9,804.9 1347.7,804.2 1346.3,804.2 1345.1,803.7 1343.8,803.4 1342.6,802.7 1341.3,802.9 1340.1,802 1338.8,802 
		1337.5,801.5 1336.2,801.6 1334.9,801.3 1333.7,800.5 1332.3,800.8 1331.1,800.4 1329.7,800.3 1328.4,800.2 1327.3,799.2 
		1325.9,799.3 1324.6,799.4 1323.3,799 1322.1,798.4 1320.8,798.5 1319.4,798.3 1318.1,798.1 1316.9,797.4 1315.6,797.8 
		1314.3,797.1 1313,796.9 1311.7,796.9 1310.5,796.4 1309.1,796.5 1307.8,796 1306.5,796 1305.2,796.2 1303.9,796.6 1302.6,796.4 
		1301.3,796.5 1300,796.4 1298.7,796.6 1297.4,796.3 1296.1,796 1294.8,796.4 1293.5,796.2 1292.2,796.4 1290.9,796.4 1289.6,796.3 
		1288.3,796.1 1287,796.2 1285.6,796.3 1284.3,796.4 1283,796.1 1281.7,796.4 1280.4,796 1279.1,796.6 1277.8,796.4 1276.5,796.5 
		1275.2,796.3 1273.9,796.2 1272.6,796.4 1271.3,796.6 1270,796.1 1268.7,796.1 1267.4,796.5 1266.1,796 1264.8,796.7 1263.5,796.5 
		1262.2,796.3 1260.9,796.7 1259.6,795.9 1258.3,796.1 1257,796 1255.7,796.7 1254.4,796.7 1253.1,796.6 1251.8,796.8 1250.6,797.5 
		1249.2,797.1 1247.9,797.8 1246.7,798.2 1245.3,798.1 1244.1,798.4 1242.7,798.5 1241.5,798.9 1240.2,799.2 1238.8,799 
		1237.6,799.7 1236.3,799.6 1235,800.2 1233.7,800 1232.4,800.6 1231.2,801 1229.9,801.4 1228.6,801.6 1227.4,802.1 1226,801.7 
		1224.7,802.3 1223.5,802.9 1222.1,802.6 1220.9,803.2 1219.6,803.4 1218.5,804.2 1217.1,804.2 1215.9,804.9 1214.7,805.2 
		1213.2,805 1212.1,805.7 1210.8,805.8 1209.7,806.8 1208.3,806.7 1207.2,807.6 1205.9,807.8 1204.6,808.1 1203.6,809.2 
		1202.4,809.6 1201.1,809.9 1200,810.7 1199,811.6 1197.6,811.8 1196.9,813.1 1195.5,813.4 1194.4,814.2 1193.4,815 1192.6,816 
		1191.4,816.7 1190.8,817.9 1189.5,818.5 1188.6,819.5 1187.8,820.5 1186.9,821.5 1186.3,822.6 1185.8,823.9 1184.8,824.8 
		1184.6,826.2 1183.9,827.3 1182.8,828.2 1182.6,829.5 1181.8,830.6 1181.6,832 1181.1,833.2 1181.1,834.5 1181,835.8 1180.4,837 
		1180.1,838.3 1179.8,839.6 1180,840.9 1180.3,842.2 1180.1,843.5 1180.4,844.9 1179.8,846.2 1179.9,847.5 1180.2,848.9 
		1180.1,850.2 1180.4,851.5 1180,852.8 1179.9,854.2 1179.7,855.5 1179.7,856.8 1180.1,858.1 1179.7,859.5 1179.9,860.8 
		1179.7,862.1 1180.1,863.5 1180.2,864.8 1180.2,866.1 1179.8,867.4 1179.7,868.8 1179.8,870.1 1180.1,871.4 1180.3,872.7 
		1179.8,874.1 1179.8,875.4 1180.3,876.7 1180.3,878 1180.1,879.4 1180.4,880.7 1180.3,882 1179.9,883.3 1179.8,884.7 1179.9,886 
		1179.8,887.3 1179.6,888.6 1179.9,890 1179.9,891.3 1179.9,892.6 1180.1,893.9 1180,895.3 1179.7,896.6 1180.1,897.9 1385.2,897.9 
		1385.1,896.6 1385.2,895.2 	"/>
	<path style="clip-path:url(#SVGID_4_);fill:#505050;" d="M1243,722.4l15.1,43l4.6-5.8l8,5.8l5.8-5.8l5.9,5.8l6.1-5.8l4.9,5.8
		l5.9-5.8l4.8,5.8c0,0,10.6-33.6,10.9-35c0.4-1.4,3.3-9.9,3.3-9.9l1.4-40.8l-44.9-9.3c0,0-17.3-0.9-20,2.7c-2.7,3.6-16,25.8-16,25.8
		L1243,722.4z"/>
</g>
</svg>
