<?xml version="1.0" encoding="utf-8"?>
<!-- Generator: Adobe Illustrator 24.1.3, SVG Export Plug-In . SVG Version: 6.00 Build 0)  -->
<svg version="1.1" id="レイヤー_1" xmlns="http://www.w3.org/2000/svg" xmlns:xlink="http://www.w3.org/1999/xlink" x="0px"
	 y="0px" viewBox="0 0 1440 1440" style="enable-background:new 0 0 1440 1440;" xml:space="preserve">
<style type="text/css">
	.st0{fill:#B2E2F8;}
	.st1{fill:#FFFFFF;stroke:#FFFFFF;stroke-miterlimit:10;}
	.st2{clip-path:url(#SVGID_2_);fill:#FFFFFF;}
	.st3{clip-path:url(#SVGID_2_);}
	.st4{fill:#505050;}
	.st5{fill:#9DC3E7;}
	.st6{fill:#FFFFFF;}
	.st7{fill:#FFAF9B;}
	.st8{fill:#FFCFBA;}
	.st9{fill:#B5D1ED;}
	.st10{fill:#F76E57;}
	.st11{fill:#00A0E9;}
	.st12{clip-path:url(#SVGID_4_);fill:#FFFFFF;}
	.st13{clip-path:url(#SVGID_4_);}
	.st14{fill:none;stroke:#B2E2F8;stroke-width:2;stroke-miterlimit:10;}
	.st15{clip-path:url(#SVGID_6_);}
	.st16{clip-path:url(#SVGID_8_);}
	.st17{fill:#F3BF9B;}
	.st18{fill:#D8E5F5;}
	.st19{fill:#FDE2A4;}
	.st20{fill:#231815;}
	.st21{fill:#C0D7EF;}
	.st22{clip-path:url(#SVGID_10_);}
</style>
<path class="st0" d="M755.4,841.7v-35.9h0.2v-40h-71.5l-0.2,40l0,0v35.9c-0.4,3.3-7.6,8.9-11.4,9.4h94.7
	C764.7,850.7,756.2,845.5,755.4,841.7z"/>
<path class="st0" d="M755.4,841.7v-35.9h0.2v-40h-71.5l-0.2,40l0,0v35.9c-0.4,3.3-7.6,8.9-11.4,9.4h94.7
	C764.7,850.7,756.2,845.5,755.4,841.7z"/>
<rect x="539" y="533.9" class="st1" width="370.4" height="229"/>
<path class="st0" d="M921.4,511.2c-3.1-2.5-6.8-3.8-10.8-3.9c-11.1,0-22.2,0-33.3,0c-2.6,0-5.1,0-7.7,0c-5.9,0-11.7,0-17.6,0
	c-9.4,0-18.8,0-28.3,0c-12.2,0-24.3,0-36.5,0c-14,0-27.9,0-41.9,0c-14.8,0-29.6,0-44.4,0c-14.8,0-29.7,0-44.5,0
	c-13.9,0-27.7,0-41.6,0c-12.1,0-24.2,0-36.3,0c-9.3,0-18.7,0-28,0c-5.7,0-11.5,0-17.2,0c-1.2,0-2.4,0-3.7,0
	c-5.8,0-11.1,2.6-14.5,7.5c-3.6,5.2-3,11.5-3,17.5c0,8.9,0,17.7,0,26.6c0,12.9,0,25.8,0,38.6c0,14.8,0,29.6,0,44.3
	c0,14.3,0,28.6,0,43c0,11.8,0,23.5,0,35.3c0,6.9,0,13.8,0,20.6c0,0.9,0,1.8,0,2.7c0,1.7,1.4,3.1,3.1,3.1c6.8,0,13.6,0,20.5,0
	c1.7,0,3.1-1.4,3.1-3.1c0-7.1,0-14.1,0-21.2c0-17,0-33.9,0-50.9c0-20.4,0-40.9,0-61.3c0-17.7,0-35.3,0-53c0-5.8,0-11.7,0-17.5
	c0-1.8,0.1-3.7,0.1-5.6c2.7,0,5.4,0,8.1,0c10.1,0,20.2,0,30.2,0c14.5,0,29.1,0,43.6,0c17.1,0,34.2,0,51.2,0c17.9,0,35.8,0,53.7,0
	c16.8,0,33.7,0,50.5,0c13.9,0,27.7,0,41.6,0c9.2,0,18.3,0,27.5,0c3.3,0,6.6,0,9.9,0c14.9,0,29.7,0,44.6,0c0.3,0,0.6,0,0.9,0
	c0,6,0,12.1,0,18.1c0,17,0,33.9,0,50.9c0,20.4,0,40.9,0,61.3c0,17.7,0,35.3,0,53c0,8.6-0.3,17.2,0,25.8c0,0.1,0,0.2,0,0.4
	c0,1.7,1.4,3.1,3.1,3.1c6.8,0,13.6,0,20.5,0c1.7,0,3.1-1.4,3.1-3.1c0-8.1,0-16.1,0-24.2c0-19,0-38,0-57.1c0-22.3,0-44.5,0-66.8
	c0-17.8,0-35.6,0-53.4c0-4.8,0-9.6,0-14.5c0-1,0-1.9,0-2.9C927.5,519.4,925.4,514.5,921.4,511.2z"/>
<path class="st0" d="M512.3,767.9c0,7.7,6.3,13.9,13.9,13.9h167.7h52h167.7c7.7,0,13.9-6.3,13.9-13.9v-24.5H512.3V767.9z"/>
<path class="st0" d="M802,845.5H636.4c-0.9,0-1.6,0.9-1.6,2.1v14.2c0,1.2,0.7,2.1,1.6,2.1H802c0.9,0,1.6-0.9,1.6-2.1v-14.2
	C803.6,846.5,802.9,845.5,802,845.5z"/>
</svg>
