<?xml version="1.0" encoding="utf-8"?>
<!-- Generator: Adobe Illustrator 24.1.3, SVG Export Plug-In . SVG Version: 6.00 Build 0)  -->
<svg version="1.1" id="レイヤー_1" xmlns="http://www.w3.org/2000/svg" xmlns:xlink="http://www.w3.org/1999/xlink" x="0px"
	 y="0px" viewBox="0 0 1440 1440" style="enable-background:new 0 0 1440 1440;" xml:space="preserve">
<style type="text/css">
	.st0{fill:#B2E2F8;}
	.st1{fill:#FFFFFF;stroke:#FFFFFF;stroke-miterlimit:10;}
	.st2{clip-path:url(#SVGID_2_);fill:#FFFFFF;}
	.st3{clip-path:url(#SVGID_2_);}
	.st4{fill:#505050;}
	.st5{fill:#9DC3E7;}
	.st6{fill:#FFFFFF;}
	.st7{fill:#FFAF9B;}
	.st8{fill:#FFCFBA;}
	.st9{fill:#B5D1ED;}
	.st10{fill:#F76E57;}
	.st11{fill:#00A0E9;}
	.st12{clip-path:url(#SVGID_4_);fill:#FFFFFF;}
	.st13{clip-path:url(#SVGID_4_);}
	.st14{fill:none;stroke:#B2E2F8;stroke-width:2;stroke-miterlimit:10;}
	.st15{clip-path:url(#SVGID_6_);}
	.st16{clip-path:url(#SVGID_8_);}
	.st17{fill:#F3BF9B;}
	.st18{fill:#D8E5F5;}
	.st19{fill:#FDE2A4;}
	.st20{fill:#231815;}
	.st21{fill:#C0D7EF;}
	.st22{clip-path:url(#SVGID_10_);}
</style>
<g>
	<path class="st11" d="M687.3,641.1c-0.4-0.5-0.2-1.1,0.3-1.2c2.4-0.7,4.2-1.9,5.5-3.6c1.5-1.9,2.2-4.3,2.2-7.4
		c0-1.7-0.3-3.3-0.8-4.8c-0.5-1.5-1.4-2.8-2.4-3.9c-1.1-1.1-2.4-2-4.1-2.7c-1.7-0.7-3.6-1-5.8-1h-15.4c-0.4,0-0.7,0.3-0.7,0.7v38.2
		c0,0.5,0.5,1,1,1h8.7c0.4,0,0.7-0.3,0.7-0.7v-12.1c0-0.8,1.1-0.9,1.5-0.2l8,12.5c0.2,0.3,0.5,0.5,0.8,0.5h10.9
		c0.6,0,0.9-0.7,0.5-1.3L687.3,641.1z M683,633.2c-1.1,0.8-2.7,1.3-4.7,1.3h-1c-0.5,0-1-0.5-1-1v-8.2c0-0.4,0.3-0.7,0.7-0.7h1.3
		c2,0,3.6,0.4,4.7,1.3c1.1,0.8,1.6,2.1,1.6,3.6C684.6,631.1,684.1,632.3,683,633.2z"/>
	<path class="st11" d="M735.1,616.6h-8.6c-0.4,0-0.7,0.3-0.7,0.7v21c0,1.2,0,2.4-0.1,3.6c-0.1,1.2-0.4,2.3-0.8,3.3
		c-0.5,1-1.2,1.8-2.1,2.4c-0.9,0.6-2.3,0.9-4,0.9c-1.7,0-3.1-0.3-4-0.9c-1-0.6-1.6-1.4-2.1-2.4c-0.4-1-0.7-2.1-0.8-3.3
		c-0.1-1.2-0.1-2.4-0.1-3.6v-20.7c0-0.5-0.5-1-1-1H702c-0.4,0-0.7,0.3-0.7,0.7v22.4c0,6.2,1.4,10.7,4.3,13.6
		c2.9,2.9,7.2,4.3,13.1,4.3c5.9,0,10.3-1.4,13.1-4.3c2.8-2.9,4.3-7.4,4.3-13.6v-22.1C736.1,617.1,735.6,616.6,735.1,616.6z"/>
	<path class="st11" d="M763.7,641.1c-0.4-0.5-0.2-1.1,0.3-1.2c2.4-0.7,4.2-1.9,5.5-3.6c1.5-1.9,2.2-4.3,2.2-7.4
		c0-1.7-0.3-3.3-0.8-4.8c-0.5-1.5-1.4-2.8-2.4-3.9c-1.1-1.1-2.4-2-4.1-2.7c-1.7-0.7-3.6-1-5.8-1H743c-0.4,0-0.7,0.3-0.7,0.7v38.2
		c0,0.5,0.5,1,1,1h8.7c0.4,0,0.7-0.3,0.7-0.7v-12.1c0-0.8,1.1-0.9,1.5-0.2l8,12.5c0.2,0.3,0.5,0.5,0.8,0.5H774
		c0.6,0,0.9-0.7,0.5-1.3L763.7,641.1z M759.3,633.2c-1.1,0.8-2.7,1.3-4.7,1.3h-1c-0.5,0-1-0.5-1-1v-8.2c0-0.4,0.3-0.7,0.7-0.7h1.3
		c2,0,3.6,0.4,4.7,1.3c1.1,0.8,1.6,2.1,1.6,3.6C761,631.1,760.4,632.3,759.3,633.2z"/>
	<path class="st11" d="M819.1,655.2l-14.3-37.7c-0.1-0.4-0.5-0.7-0.9-0.7h-10c-0.3,0-0.6,0.2-0.7,0.4L778.9,655
		c-0.2,0.6,0.3,1.2,0.9,1.2h9c0.3,0,0.6-0.2,0.7-0.4l2-5.9c0.1-0.3,0.3-0.4,0.7-0.4h13.4c0.4,0,0.8,0.3,0.9,0.7l1.9,5.4
		c0.1,0.4,0.5,0.7,0.9,0.7h9.2C819,656.2,819.3,655.7,819.1,655.2z M802.6,641.6h-6.8c-0.6,0-1.1-0.7-1-1.2l3.4-9.7
		c0.2-0.7,1.3-0.5,1.6,0.2l3.4,9.7C803.4,641.1,803.1,641.6,802.6,641.6z"/>
	<path class="st11" d="M604.5,629.2c0.3,0.7,0.9,1.2,1.7,1.2c0.2,0,0.4,0,0.6-0.1c0.9-0.3,1.4-1.3,1.1-2.2h0
		c-1.4-4.1-1.2-7.4,0.7-9.3c2-2.1,6-2.3,10.8-0.7c0.8,0.3,1.5,0.5,2.2,0.8c1.2-0.8,2.4-1.6,3.6-2.3c-1.5-0.7-3-1.3-4.7-1.8
		c-6.1-2-11.4-1.5-14.4,1.6C603.2,619.2,602.6,623.8,604.5,629.2L604.5,629.2z"/>
	<path class="st11" d="M632.1,614.8c-1.4,0.5-2.8,1.1-4.3,1.8c-0.5,0.2-0.9,0.5-1.4,0.7c-1.2,0.7-2.4,1.4-3.6,2.2
		c-0.4,0.3-0.8,0.6-1.2,0.9c-2.8,2-5.5,4.5-8,7.2l0,0c-0.7,0.7-0.6,1.8,0.1,2.5c0.3,0.3,0.8,0.5,1.2,0.5c0.5,0,1-0.2,1.3-0.6h0
		c2.8-3.1,5.9-5.7,9-7.8c0.4-0.3,0.8-0.5,1.2-0.8l0.1,0.1c0.4,0.2,0.8,0.5,1.1,0.7c3,2,5.7,4.4,8.3,7.6c0,0,0,0,0,0
		c0.6,0.8,1.7,0.9,2.5,0.2c0.8-0.6,0.9-1.7,0.2-2.5c0,0,0,0,0,0c-2.4-2.9-4.8-5.3-7.5-7.2c-0.4-0.3-0.8-0.6-1.2-0.8
		c0.5-0.2,0.9-0.4,1.4-0.6c0.6-0.2,1.2-0.5,1.8-0.7c4.8-1.6,8.7-1.3,10.8,0.7c1.8,1.9,2.1,5.1,0.7,9.3l0,0c-0.3,0.9,0.2,1.9,1.1,2.2
		c0.9,0.3,1.9-0.2,2.2-1.1v0c1.9-5.4,1.4-10-1.5-12.9C643.4,613.3,638.2,612.7,632.1,614.8z"/>
	<path class="st11" d="M642.4,640.2c2.3,0,4.2-1.9,4.2-4.2c0-2.3-1.9-4.2-4.2-4.2c-2.3,0-4.2,1.9-4.2,4.2
		C638.2,638.4,640.1,640.2,642.4,640.2z"/>
	<path class="st11" d="M606.2,635.9c0,2.3,1.9,4.2,4.2,4.2c2.3,0,4.2-1.9,4.2-4.2c0-2.3-1.9-4.2-4.2-4.2
		C608.1,631.8,606.2,633.6,606.2,635.9z"/>
	<path class="st11" d="M645.7,641.8c-0.9,0.3-1.4,1.3-1.1,2.2c1.6,4.7,1.2,8.6-0.9,10.6c-2,1.9-5.7,2.1-10,0.4
		c-0.9-0.4-1.8-0.7-2.7-1.1c-1.1,0.8-2.2,1.5-3.4,2.2c1.5,0.8,3.1,1.5,4.8,2.2c2.4,0.9,4.7,1.4,6.7,1.4c2.8,0,5.2-0.9,7-2.5
		c3.2-3,3.8-8.2,1.8-14.3C647.6,642,646.6,641.5,645.7,641.8z"/>
	<path class="st11" d="M630.8,652.4c2.9-2.2,5.5-4.7,8-7.8v0c0.6-0.8,0.5-1.9-0.3-2.5c-0.8-0.6-1.9-0.5-2.5,0.3c0,0,0,0,0,0
		c-2.7,3.3-5.5,6-8.7,8.2c-0.3,0.2-0.7,0.5-1.1,0.7l-1.2-0.7l-0.5-0.3c-3-2.1-5.7-4.7-8.2-7.9c0,0,0,0,0,0c-0.6-0.8-1.7-0.9-2.5-0.3
		c-0.8,0.6-0.9,1.7-0.3,2.5c0,0,0,0,0,0c2.5,3.1,5.1,5.7,8,7.8c0.4,0.3,0.8,0.6,1.2,0.8c-0.4,0.2-0.9,0.4-1.3,0.6
		c-0.9,0.4-1.8,0.8-2.7,1.1c-4.3,1.7-8,1.5-10-0.4c-2.1-2-2.5-5.9-0.9-10.6c0.3-0.9-0.2-1.9-1.1-2.2c-0.9-0.3-1.9,0.2-2.2,1.1
		c-2,6-1.4,11.2,1.8,14.3c1.8,1.7,4.2,2.5,7,2.5c2.1,0,4.3-0.5,6.7-1.4c1.7-0.7,3.3-1.4,4.8-2.2c0.4-0.2,0.9-0.5,1.3-0.7
		c1.2-0.7,2.3-1.4,3.4-2.2C630,652.9,630.4,652.7,630.8,652.4z"/>
</g>
</svg>
