<svg id="レイヤー_1" data-name="レイヤー 1" xmlns="http://www.w3.org/2000/svg" viewBox="0 0 566.93 396.85"><defs><style>.cls-1{isolation:isolate;}.cls-2{fill:#1d1a1b;}.cls-3{fill:#6b5c66;}.cls-4{fill:#53464e;}.cls-5{fill:#171515;}.cls-6{fill:#3f333b;}.cls-7{fill:#d7c4b8;}.cls-8{fill:#f5ebe4;}.cls-9{fill:#a19a8c;}.cls-10{fill:#f2ece4;}.cls-11{fill:#a89f8f;}.cls-12{fill:#eadcd3;}.cls-13{fill:#f9b7a2;}.cls-14{fill:#ffc9b6;}.cls-15{fill:#ff5e4c;}.cls-16{fill:#e83a36;}.cls-17{fill:#f74f43;}.cls-18{fill:#33212a;}.cls-19{fill:#2b1822;}.cls-20{fill:#ffb9a4;}.cls-21{fill:#6752c1;}.cls-22{fill:#f9bba7;}.cls-23{fill:#fff;}.cls-24{fill:#846ad3;}</style></defs><g class="cls-1"><g class="cls-1"><path class="cls-2" d="M237.67,196.85l1.4-.82-.17-.1-1.4.82.17.1Z"/><path class="cls-3" d="M237.5,196.75l1.4-.82a14,14,0,0,1-5.72-8.22l-1.4.82a14,14,0,0,0,5.72,8.22Z"/></g><path class="cls-4" d="M231.77,188.48c-.08-.36-.15-.71-.2-1.06l0-.24a9.69,9.69,0,0,1-.06-1.06V186a2.83,2.83,0,0,1,0-.29c0-.11,0-.21,0-.32s0-.23,0-.34,0-.2.05-.29a3,3,0,0,1,.08-.32c0-.09.05-.18.07-.26l.12-.3.09-.22.15-.27.11-.2.18-.24c.05-.05.08-.11.13-.16a2.39,2.39,0,0,1,.23-.22l.12-.11a2.14,2.14,0,0,1,.39-.28l1.4-.81-.39.27a1.14,1.14,0,0,0-.11.11,1.73,1.73,0,0,0-.24.23l-.12.16a2.51,2.51,0,0,0-.19.24c0,.06-.07.13-.11.2a2.15,2.15,0,0,0-.14.26,1.6,1.6,0,0,0-.1.23c0,.1-.08.19-.11.29s-.05.18-.08.26-.06.21-.08.32,0,.19-.05.29,0,.23-.05.35,0,.21,0,.32,0,.29,0,.45a9.43,9.43,0,0,0,.07,1.06,2,2,0,0,0,0,.24,9.83,9.83,0,0,0,.19,1.06,13.88,13.88,0,0,0,5.9,8.37,8.85,8.85,0,0,0,.88.43l.2.08a5.75,5.75,0,0,0,.82.24.8.8,0,0,0,.15,0l.49.06h.62l.21,0a2.34,2.34,0,0,0,.38-.09l.17-.05a2.94,2.94,0,0,0,.51-.23l-1.41.82a4.52,4.52,0,0,1-.5.23l-.17,0a2.46,2.46,0,0,1-.39.09,1.52,1.52,0,0,1-.21,0l-.4,0h-.21l-.49-.06h-.15a5.46,5.46,0,0,1-.82-.25l-.2-.08a6.36,6.36,0,0,1-.88-.42,13.88,13.88,0,0,1-5.89-8.33h0S231.77,188.5,231.77,188.48Z"/><path class="cls-5" d="M234.93,178.22l1.4-.82a5.1,5.1,0,0,0-3.63.48l-1.41.82a5,5,0,0,1,3.64-.48Z"/><g class="cls-1"><path class="cls-5" d="M244.1,200.72l1.4-.82c1.58-.92,2.57-2.83,2.64-5.54l-1.41.81c-.06,2.72-1.06,4.63-2.63,5.55Z"/><path class="cls-2" d="M246.73,195.17l1.41-.81v-.25a14.85,14.85,0,0,0-.44-3.5l-1.4.82a15.39,15.39,0,0,1,.44,3.5,1.93,1.93,0,0,1,0,.24Z"/><path class="cls-4" d="M236,178.54l-.27-.1-.61-.17-.18,0a5.06,5.06,0,0,0-3.69.47l1.41-.82a5.08,5.08,0,0,1,3.62-.48h.06l.18.05c.2,0,.41.1.62.17l.26.09.59.24.25.11c.28.13.56.27.84.43l.25.15.17.12a13.57,13.57,0,0,1,1.13.79l.18.14c.41.32.8.68,1.19,1.05l.26.26c.37.38.74.77,1.09,1.19l0,0c.36.43.69.88,1,1.34l.22.32c.31.46.62.94.89,1.42l.11.2c.25.45.48.9.7,1.36l.15.32c.22.5.43,1,.62,1.53,0,.1.06.2.1.3q.24.71.42,1.41a1.54,1.54,0,0,0,0,.17h0a14.87,14.87,0,0,1,.45,3.5c0,2.84-1,4.85-2.64,5.79l-1.4.82c1.62-.95,2.63-2.95,2.64-5.79a14.93,14.93,0,0,0-.5-3.68c-.12-.46-.26-.93-.41-1.4,0-.1-.07-.21-.11-.31-.18-.51-.39-1-.62-1.52,0-.11-.09-.21-.14-.32-.22-.46-.45-.92-.7-1.37l-.11-.19c-.28-.49-.58-1-.89-1.43l-.22-.31c-.33-.46-.67-.92-1-1.35l0,0c-.35-.42-.72-.81-1.1-1.2l-.26-.25a14.66,14.66,0,0,0-1.18-1.06l-.19-.14c-.37-.28-.74-.55-1.13-.79l-.41-.26c-.28-.16-.56-.31-.84-.44l-.26-.11C236.43,178.68,236.23,178.61,236,178.54Z"/></g><path class="cls-6" d="M246.74,194.93c0,5.72-4.09,8-9.08,5.16s-9-9.88-9-15.6,4.09-8.05,9.07-5.17S246.75,189.2,246.74,194.93Zm-9.07,1.92c3.43,2,6.23.38,6.24-3.56a13.67,13.67,0,0,0-6.2-10.73c-3.43-2-6.22-.38-6.23,3.56a13.64,13.64,0,0,0,6.19,10.73Z"/></g><g class="cls-1"><path class="cls-7" d="M218.59,210.36v-.24a14.47,14.47,0,0,0-.43-3.4l27.25-15.83a14.38,14.38,0,0,1,.43,3.39v.24c-.07,2.64-1,4.49-2.55,5.38L216,215.73C217.56,214.85,218.53,213,218.59,210.36Z"/><path class="cls-8" d="M218.16,206.72l27.25-15.83a19.65,19.65,0,0,0-8-11.57l-27.25,15.84c3.77,2.29,6.94,7,8,11.56Z"/><path class="cls-7" d="M230.89,178.57a5,5,0,0,1,3.51-.46,8.91,8.91,0,0,1,2.72,1.07l.24.14-27.25,15.84-.24-.14a9.28,9.28,0,0,0-2.71-1.08,4.91,4.91,0,0,0-3.52.47Z"/></g><path class="cls-9" d="M209.87,195c-4.83-2.79-8.77-.56-8.78,5s3.89,12.32,8.72,15.11,8.77.55,8.78-5S214.7,197.81,209.87,195Z"/><path class="cls-10" d="M235.77,143.9l.4.29c.31.23.72.52,1.19.84,1,.65,2.23,1.43,3.49,2.17,2.52,1.48,5,2.81,5,2.81h0a3.93,3.93,0,0,0,4.23-6.59s-2.18-1.68-4.23-3.42c-1-.86-2-1.74-2.67-2.4-.35-.32-.61-.59-.77-.76l-.33-.34a4.9,4.9,0,0,0-7,6.84A5.35,5.35,0,0,0,235.77,143.9Z"/><circle class="cls-11" cx="235.01" cy="138.28" r="4.84"/><path class="cls-11" d="M254.18,148.64a2.56,2.56,0,1,1-2.56-2.56A2.56,2.56,0,0,1,254.18,148.64Z"/><path class="cls-8" d="M252.38,147.42a2.15,2.15,0,0,1-1.62,1.08c-.62,0-.9-.38-.63-.93a2.17,2.17,0,0,1,1.63-1.08C252.38,146.45,252.66,146.87,252.38,147.42Z"/><path class="cls-10" d="M248.25,149.87s-.06.11-.15.31-.27.53-.48.91c-.41.77-1,1.78-1.68,2.76a39.06,39.06,0,0,1-2.87,3.77h0a2.49,2.49,0,0,0,3.38,3.62,44.9,44.9,0,0,0,4.07-3.58c1-.95,1.89-2,2.56-2.75.33-.39.61-.74.8-1l.32-.42,0,0a3.51,3.51,0,0,0-5.6-4.23A3.9,3.9,0,0,0,248.25,149.87Z"/><path class="cls-4" d="M205.53,171.32l3-29.61L222,149.58,220,189c-.35,3.72.76,6.37,2.75,7.53l-9.1-5.29C203.64,185.28,205.17,175.05,205.53,171.32Z"/><path class="cls-12" d="M231.58,134.31c-4.88,2.82-9,9.37-9.54,15.27L220,189c-.66,7,3.83,10.19,9.6,6.86l4.2-2.43c5.77-3.33,10.23-11.7,9.52-17.9l-2.16-37C240.58,133.31,236.45,131.49,231.58,134.31Z"/><path class="cls-4" d="M219.32,127.52c2.66-1.54,5.1-1.7,6.86-.68l12.25,6.8c-1.76-1-4.19-.87-6.85.67-4.88,2.82-9,9.37-9.54,15.27l-13.54-7.87C210.62,135.8,214.44,130.33,219.32,127.52Z"/><path class="cls-7" d="M229.49,132.1a5.46,5.46,0,0,1-2.16.33c-1.52-.08-3.57-.47-3-3.74l.72-5.76a3.39,3.39,0,1,1,6.73.84l-.71,5.75C230.91,131,231,131.53,229.49,132.1Z"/><path class="cls-10" d="M217.21,169.83l.15.08.4.19c.32.15.74.33,1.25.52a34,34,0,0,0,3.66,1.16,48.28,48.28,0,0,0,5.27,1.05h0a2.48,2.48,0,0,0,1.15-4.81,44.07,44.07,0,0,1-4.42-1.85,27,27,0,0,1-2.76-1.53c-.35-.22-.62-.41-.79-.53A1.46,1.46,0,0,1,221,164l-.05,0a3.53,3.53,0,0,0-4.74,5.23,3.8,3.8,0,0,0,.71.5Z"/><path class="cls-3" d="M219.42,164.53a2.56,2.56,0,1,1-2.56-2.56A2.55,2.55,0,0,1,219.42,164.53Z"/><circle class="cls-7" cx="230.52" cy="170.67" r="2.29"/><path class="cls-8" d="M231.2,170.13a2.1,2.1,0,0,1-1.95,0,.59.59,0,0,1,0-1.12,2.16,2.16,0,0,1,1.95,0A.59.59,0,0,1,231.2,170.13Z"/><path class="cls-8" d="M219,164.19a2.18,2.18,0,0,1-1.32,1.44c-.59.19-1-.16-.83-.76a2.18,2.18,0,0,1,1.32-1.44C218.8,163.25,219.17,163.59,219,164.19Z"/><path class="cls-10" d="M209.82,148.82s0,.76-.09,1.9a39.61,39.61,0,0,0,.12,4.47,26.19,26.19,0,0,0,.83,4.6,20.13,20.13,0,0,0,.69,2.07,3.93,3.93,0,0,0,7.48-2.29l0-.07s-.11-.53-.19-1.35a19.11,19.11,0,0,1,0-3.13,29.11,29.11,0,0,1,.5-3.29l.35-1.61v0a4.9,4.9,0,0,0-9.57-2.09A4.72,4.72,0,0,0,209.82,148.82Z"/><path class="cls-3" d="M220.69,144.4a4.84,4.84,0,1,1-4.84-4.84A4.84,4.84,0,0,1,220.69,144.4Z"/><path class="cls-8" d="M219.14,144.54a4.7,4.7,0,0,1-4.26,0,1.3,1.3,0,0,1,0-2.47,4.77,4.77,0,0,1,4.26,0A1.3,1.3,0,0,1,219.14,144.54Z"/><path class="cls-10" d="M235,174.61l-.46.3a2.41,2.41,0,0,1-3.63-1.32l-.26-.87a1.27,1.27,0,0,1,.53-1.41l1.52-1a.7.7,0,0,1,.38-.11,5,5,0,0,1,2.18.91A2.19,2.19,0,0,1,235,174.61Z"/><path class="cls-10" d="M237.21,173.56a.53.53,0,0,0,.44-.23.55.55,0,0,0-.13-.76c-.77-.54-2.37-1.63-2.37-1.63l-.61.9s1.59,1.09,2.35,1.63A.62.62,0,0,0,237.21,173.56Z"/><path class="cls-10" d="M238.31,175.43a.71.71,0,0,0,.24-1.38,9.36,9.36,0,0,1-1.79-.78c-.33-.27-1.11-1.11-1.39-1.4a.7.7,0,0,0-1,0,.72.72,0,0,0,0,1c.11.12,1.07,1.15,1.53,1.53a10,10,0,0,0,2.22,1A1,1,0,0,0,238.31,175.43Z"/><path class="cls-10" d="M238.08,177a.71.71,0,0,0,.29-1.36c-1.06-.48-2.34-1.08-2.54-1.22s-.63-.82-1-1.4a.71.71,0,0,0-1.17.8,13.55,13.55,0,0,0,1.32,1.71,23.11,23.11,0,0,0,2.84,1.4A.73.73,0,0,0,238.08,177Z"/><path class="cls-10" d="M236.28,177.54a.72.72,0,0,0,.61-.35.71.71,0,0,0-.26-1l-1.84-1.06-1.31-1.95a.7.7,0,0,0-1-.2.71.71,0,0,0-.19,1l1.49,2.23,2.13,1.23A.73.73,0,0,0,236.28,177.54Z"/><path class="cls-10" d="M231,173.93c.09.44.19.85.31,1.28.07.21.13.42.23.65a2.76,2.76,0,0,0,.16.37l.13.22a2,2,0,0,0,.26.28l.18.13h.18l.5,0c.08,0,.11,0,.06,0s0,0,0,0a.64.64,0,0,0,.76-1l0,0a1.64,1.64,0,0,0-.37-.2,1.7,1.7,0,0,0-.41-.06l-.45,0,.36.15s.08.07.08,0,0,0,0,0v-.21a4.81,4.81,0,0,1,0-.52,9.88,9.88,0,0,1,.16-1.11,1.13,1.13,0,0,0-.89-1.31,1.12,1.12,0,0,0-1.3.89,1,1,0,0,0,0,.42Z"/><path class="cls-3" d="M233.43,175.65l.07,0a.48.48,0,0,1,0-.44.67.67,0,0,1,.47-.35c.25-.05.4,0,.48.12l.06,0c-.12-.21-.36-.2-.56-.17a.8.8,0,0,0-.52.4A.54.54,0,0,0,233.43,175.65Z"/><path class="cls-3" d="M234.46,175l.06,0c-.2-.41.19-.69.31-.77a.9.9,0,0,1,.55-.07.18.18,0,0,1,.12.08l.06,0a.24.24,0,0,0-.16-.1,1,1,0,0,0-.6.07A.66.66,0,0,0,234.46,175Z"/><path class="cls-3" d="M235.51,174.16l.05,0c-.27-.24-.16-.51,0-.76a.69.69,0,0,1,.42-.28h.11l0-.06a.29.29,0,0,0-.16,0,.74.74,0,0,0-.46.31A.62.62,0,0,0,235.51,174.16Z"/><path class="cls-3" d="M235.14,172.32l0,0A.41.41,0,0,1,235,172a.6.6,0,0,1,.1-.41.55.55,0,0,1,.68-.17l0-.06a.61.61,0,0,0-.77.19.58.58,0,0,0-.11.46A.46.46,0,0,0,235.14,172.32Z"/><path class="cls-8" d="M242.29,117.41c-1.25,6.1-5.17,13.27-10.21,12.09-2.8-.65-10.39-4.25-12.73-8.73-5.2-9.93,1.27-19.25,16-15.16C239.14,106.65,243.82,110,242.29,117.41Z"/><path class="cls-4" d="M242.59,114.56c0,4-2.48,13.36-8.08,14.85-2.15.57-5.39-1.53-7.24-6-2.05-4.93.6-12.88,7.66-14.1C240.92,108.28,242.59,110.28,242.59,114.56Z"/><path class="cls-7" d="M222.9,120.78a7,7,0,0,1-3.14-5.44,2,2,0,0,1,3.23-1.86,7,7,0,0,1,3.14,5.44,2.26,2.26,0,0,1-.95,2.08,1.63,1.63,0,0,1-.85.22A2.94,2.94,0,0,1,222.9,120.78Zm-2.11-7.38a2.1,2.1,0,0,0-.86,1.94,6.76,6.76,0,0,0,3.06,5.3,1.81,1.81,0,0,0,3-1.72,6.77,6.77,0,0,0-3.07-5.3,2.65,2.65,0,0,0-1.34-.41A1.54,1.54,0,0,0,220.79,113.4Z"/><path class="cls-4" d="M225.1,119c0,1.71-1.19,2.4-2.67,1.55a5.94,5.94,0,0,1-2.67-4.63c0-1.7,1.2-2.39,2.67-1.54A5.88,5.88,0,0,1,225.1,119Z"/><path class="cls-4" d="M254.18,148.64a2.56,2.56,0,1,1-2.56-2.56A2.56,2.56,0,0,1,254.18,148.64Z"/><path class="cls-8" d="M252.38,147.42a2.15,2.15,0,0,1-1.62,1.08c-.62,0-.9-.38-.63-.93a2.17,2.17,0,0,1,1.63-1.08C252.38,146.45,252.66,146.87,252.38,147.42Z"/><path class="cls-10" d="M248.25,149.87s-.06.11-.15.31-.27.53-.48.91c-.41.77-1,1.78-1.68,2.76a39.06,39.06,0,0,1-2.87,3.77h0a2.49,2.49,0,0,0,3.38,3.62,44.9,44.9,0,0,0,4.07-3.58c1-.95,1.89-2,2.56-2.75.33-.39.61-.74.8-1l.32-.42,0,0a3.51,3.51,0,0,0-5.6-4.23A3.9,3.9,0,0,0,248.25,149.87Z"/><g class="cls-1"><g class="cls-1"><path class="cls-2" d="M209.39,212.62l1.4-.82-.17-.1-1.4.82.17.1Z"/><path class="cls-3" d="M209.22,212.52l1.4-.82a14,14,0,0,1-5.72-8.22l-1.41.82a14,14,0,0,0,5.73,8.22Z"/></g><path class="cls-4" d="M203.49,204.25a10.36,10.36,0,0,1-.2-1.06l0-.24a9.59,9.59,0,0,1-.07-1.06v-.17a2.83,2.83,0,0,0,0-.29c0-.1,0-.21,0-.31l.06-.35a2.54,2.54,0,0,1,0-.29l.09-.32a2,2,0,0,1,.07-.26,2.49,2.49,0,0,1,.11-.29,1.6,1.6,0,0,1,.1-.23,2.29,2.29,0,0,1,.14-.27l.12-.19a2.27,2.27,0,0,1,.18-.25l.12-.15a2.55,2.55,0,0,1,.24-.23,1.14,1.14,0,0,1,.11-.11,3.6,3.6,0,0,1,.4-.28l1.4-.81a2.7,2.7,0,0,0-.39.27l-.12.11a2.5,2.5,0,0,0-.23.23,1.83,1.83,0,0,0-.13.16c-.06.08-.12.15-.18.24a1.28,1.28,0,0,0-.11.2,2.2,2.2,0,0,0-.15.26l-.09.23-.12.29a2.68,2.68,0,0,0-.07.27,2.81,2.81,0,0,0-.08.31c0,.1,0,.2-.05.29s0,.23-.05.35,0,.21,0,.32,0,.3,0,.45a9.77,9.77,0,0,0,.07,1.07l0,.23a10.54,10.54,0,0,0,.2,1.07,13.88,13.88,0,0,0,5.9,8.36,6.46,6.46,0,0,0,.88.43l.2.08a5.46,5.46,0,0,0,.82.25l.15,0a4.1,4.1,0,0,0,.49.06h.21a2.64,2.64,0,0,0,.4,0l.21,0a2.74,2.74,0,0,0,.39-.09l.17,0a2.5,2.5,0,0,0,.5-.23l-1.4.82a2.94,2.94,0,0,1-.51.23l-.17.05-.38.09-.21,0a2.68,2.68,0,0,1-.4,0h-.22a4.44,4.44,0,0,1-.49-.07h-.15a5.75,5.75,0,0,1-.82-.24l-.19-.08a7.89,7.89,0,0,1-.88-.43,13.89,13.89,0,0,1-5.89-8.32h0Z"/><path class="cls-5" d="M206.64,194l1.41-.82a5.14,5.14,0,0,0-3.64.48l-1.4.82a5.06,5.06,0,0,1,3.63-.48Z"/><g class="cls-1"><path class="cls-5" d="M215.81,216.49l1.41-.82c1.57-.91,2.57-2.83,2.63-5.54l-1.4.81c-.07,2.72-1.06,4.63-2.64,5.55Z"/><path class="cls-2" d="M218.45,210.94l1.4-.81v-.25a14.34,14.34,0,0,0-.44-3.5l-1.4.82a14.85,14.85,0,0,1,.44,3.5v.24Z"/><path class="cls-4" d="M207.75,194.31a2,2,0,0,0-.26-.09,5.1,5.1,0,0,0-.61-.17l-.18-.05a5.11,5.11,0,0,0-3.69.47l1.4-.82a5.12,5.12,0,0,1,3.63-.47h.06l.18,0c.2.05.4.1.61.17l.27.09c.19.07.39.15.58.24l.26.11c.27.13.55.27.84.44l.25.14.16.12a12.09,12.09,0,0,1,1.13.79l.19.14c.41.33.8.68,1.18,1.05.09.09.18.17.26.26.38.38.75.78,1.1,1.2l0,0q.53.65,1,1.35c.07.1.14.21.22.31.31.47.61.94.89,1.43a1.74,1.74,0,0,1,.1.19c.25.45.49.9.7,1.37l.15.31c.23.51.44,1,.62,1.53a2.81,2.81,0,0,1,.1.31c.16.46.3.93.42,1.4a1.09,1.09,0,0,1,0,.17h0a14.2,14.2,0,0,1,.44,3.49c0,2.85-1,4.85-2.63,5.79l-1.41.82c1.63-1,2.63-3,2.64-5.79A14.77,14.77,0,0,0,218,207q-.18-.71-.42-1.41c0-.1-.07-.2-.1-.31-.19-.51-.39-1-.62-1.52l-.15-.32c-.22-.46-.45-.92-.7-1.36,0-.07-.07-.13-.1-.2-.28-.49-.58-1-.9-1.42l-.22-.32c-.32-.46-.66-.92-1-1.35l0,0c-.35-.42-.72-.81-1.09-1.19-.09-.09-.17-.18-.26-.26-.38-.37-.78-.73-1.18-1.05l-.19-.15c-.37-.28-.75-.55-1.13-.79l-.41-.26c-.29-.16-.57-.31-.85-.44l-.25-.11Z"/></g><path class="cls-6" d="M218.45,210.7c0,5.72-4.08,8-9.07,5.16s-9-9.88-9-15.6,4.08-8,9.07-5.17S218.47,205,218.45,210.7Zm-9.06,1.92c3.42,2,6.22.38,6.23-3.55a13.68,13.68,0,0,0-6.19-10.74c-3.43-2-6.23-.38-6.24,3.56a13.67,13.67,0,0,0,6.2,10.73Z"/></g><path class="cls-4" d="M241.72,162.37a2.29,2.29,0,1,0,.42-3.21A2.29,2.29,0,0,0,241.72,162.37Z"/><path class="cls-8" d="M242.68,161a2.15,2.15,0,0,0,1.54-1.19c.24-.57-.07-1-.68-.89a2.14,2.14,0,0,0-1.55,1.19C241.75,160.65,242.06,161.05,242.68,161Z"/><path class="cls-10" d="M240.25,166l.61.19c1.79.58,3.55-.47,3.52-2.1l0-.92a1.43,1.43,0,0,0-1.06-1.28l-2-.65a1,1,0,0,0-.46,0,5,5,0,0,0-2.06,1.39C237.89,163.75,238.63,165.45,240.25,166Z"/><path class="cls-10" d="M237,167a.74.74,0,0,0,.59-.28c1-1.15,2.74-3.51,2.81-3.61a.78.78,0,1,0-1.24-.94s-1.82,2.43-2.76,3.56A.78.78,0,0,0,237,167Z"/><path class="cls-10" d="M236.84,168.4a.71.71,0,0,0,.62-.36s.64-1.16.88-1.71a11.89,11.89,0,0,1,1.44-1.73.71.71,0,0,0,0-1,.7.7,0,0,0-1,0,11.84,11.84,0,0,0-1.72,2.14c-.17.4-.65,1.28-.82,1.58a.71.71,0,0,0,.28,1A.69.69,0,0,0,236.84,168.4Z"/><path class="cls-10" d="M238.82,169.31s1-2.41,1.12-2.72c.07-.15.54-.88.94-1.45a.71.71,0,0,0-.17-1,.72.72,0,0,0-1,.18,18.7,18.7,0,0,0-1.08,1.7c-.14.31-1.13,2.75-1.13,2.75Z"/><path class="cls-10" d="M239.54,169.62a.71.71,0,0,0,.62-.36l1-1.86,1.24-1.91a.7.7,0,0,0-.21-1,.71.71,0,0,0-1,.2l-1.26,2-1.05,1.89a.7.7,0,0,0,.28,1A.69.69,0,0,0,239.54,169.62Z"/><path class="cls-10" d="M241.49,168.78a.63.63,0,0,0,.47-.22,7.33,7.33,0,0,0,1.11-1.54c.19-.44.75-1.59.75-1.59l-1.15-.56s-.57,1.2-.77,1.65a7.2,7.2,0,0,1-.89,1.2.63.63,0,0,0,.05.89A.67.67,0,0,0,241.49,168.78Z"/><path class="cls-13" d="M301.66,194c-.16-3.5-3.23-6.43-5.69-8.67a36.77,36.77,0,0,1-2.14-4.31c-.61-1.6-1.82-3-2.63-4.5a53.24,53.24,0,0,0-6.22-8.25,14.69,14.69,0,0,1-.33-3.31c0-.49.29-1.54-.3-1.31-1.37.53-.44,2.61-1.27,2.44-2.18-.45-3.62-3.68-5.15-2.47-.91.71-.27,2.9,1.34,4.27.69.59,2.72,1.44,3.5,2.64,2.11,3.22,4.35,9.67,5.93,13.19q2.54,5.69,5.26,11.29c1.16,2.41,2.09,6.2,4.87,7.11a.45.45,0,0,0,.45-.12C301.16,200,301.79,196.81,301.66,194Z"/><path class="cls-14" d="M304.8,259.4c-.07,2.72-1.48,3.85-3.46,4.92-2.22,1.21-4.11,2.34-6.11.69.16-.24.34-.47.52-.69,1.08-1.35,3.46-4.25,3.51-6.09.13-4.89-5.81-13.52-7.18-18S295,225.56,295,225.56s4.56,12.34,6.1,18.21,1.23,10.23,2.49,13.34a8.41,8.41,0,0,0,1.22,1.83Z"/><path class="cls-14" d="M287.76,266a2.43,2.43,0,0,1-1.46,1.25c-1.4.55-3,1.65-4.5,1.44-2.55-.37-5.15-2.62-5.45-5a33.86,33.86,0,0,0,6.16-.94s-1.82-19.83,0-24.05,11.4-3.33,11.4-3.33a9.69,9.69,0,0,0-5.45,8.13c2.63,7.82-.75,14.3-1.25,18.17C287.12,262.36,287.72,264.93,287.76,266Z"/><path class="cls-15" d="M308.39,232.73c0,3.88-4.69,3.14-6.21,4a9,9,0,0,0-2.4,2.49c-1.93,2.48-3.5,3.16-6.6,2.33-1.92-.51-4.33-1.29-6.72,0-1.29.7-3.48,2.57-6.66-1.29-1.61-2-4.61-2.81-6.24-5.89a102.23,102.23,0,0,1,8.95-21.48c.59-2.61.29-4.37-.59-9.17s-.78-5.62,2.41-7.42c2.26-1.27,6.65-4.33,10.3-3.82a6.36,6.36,0,0,1,4.4,3.82c2.26,5.46-.64,16.59-.64,16.59Z"/><path class="cls-14" d="M284.06,176c4.34-2.51,7.75-.94,9.51,3.11,1.19,2.74-.3,7.05-.06,10.7a13.81,13.81,0,0,0,.45,4.37c-1.76,2.24-5.95,2.24-7.62,1.15a19.4,19.4,0,0,0-1-3.44,4.91,4.91,0,0,1-4.87-3.42C278.63,182.88,279.05,178.84,284.06,176Z"/><path class="cls-16" d="M279,263.47s-2.86,1.53,0,3,5,1.18,6,.77,1.31-2.05,2.71-2.62c1.13.5,1.24,2.41,1,3.94-1.34,2-6.4,1.12-8.5.52-1.71-.49-4.67-1.15-5.37-3.24a1.83,1.83,0,0,1,1.89-2.62A7.1,7.1,0,0,1,279,263.47Z"/><path class="cls-16" d="M304.08,258a4.06,4.06,0,0,0-2.34,2.95c-.23,2-3.19,3.78-4.31,3.79s-.9-1.39-.9-1.39a11.63,11.63,0,0,0-3.09,2.22c-.85,1.09.44,2.35,3.72,2.28s4.72-2.93,7-3.54,2.05-2.83,1.77-3.75A12.58,12.58,0,0,0,304.08,258Z"/><path class="cls-16" d="M298.39,212.92a15.78,15.78,0,0,1-6.58,3c-3.73.66-9.3-3-9.3-3s-.5.85-1,1.76a16.53,16.53,0,0,0,7.3,3.14c4.47.53,5.51-.34,7-.89a9.79,9.79,0,0,0,3.15-2.6Z"/><path class="cls-17" d="M304.28,236.21a51.43,51.43,0,0,0-3.34-10.65c-2.29-4.58-5.34-4.82-3.84,0,.92,3,3.36,12.81,3.36,12.81S301.82,236,304.28,236.21Z"/><path class="cls-17" d="M290.54,241c.27.15-.26-10.62-.3-15.41s-1.65-4.84-2.91-1.8-1.5,17.82-1.5,17.82S288.54,239.86,290.54,241Z"/><path class="cls-17" d="M278.67,239.21s1.49-5,2.84-10.65c1.57-6.53,1.66-8.23,1-8.74s-2.42,2.83-4.33,7.45c-1.83,4.41-3.69,8.47-3.69,8.47A11.6,11.6,0,0,0,278.67,239.21Z"/><path class="cls-16" d="M299.72,215.67l4.23,6.79a7.33,7.33,0,0,1-4.23,3.1c-1.41-2.94-4.14-11.48-4.14-11.48l2.62,1.24Z"/><path class="cls-16" d="M296.7,215.87c.66,2.57.22,6.53-.85,11.37-1.38.31-4.94-1.68-4.94-1.68l1.83-8.17,3.11-3.62A5.7,5.7,0,0,1,296.7,215.87Z"/><path class="cls-16" d="M302.39,208.39c-3.32-2.17-6.28,3.5-6.28,3.5-5.95-3.14-8.95-1.29-9.06,3.19s2.63,6.13,5.15,4.67,5-5.08,5-5.08,5.55,4.14,7,1.8A5.69,5.69,0,0,0,302.39,208.39Zm-11.5,8.32c-2.13-.19-2-2-.81-2.87s5.1,0,5.1,0S293,216.89,290.89,216.71Zm10.48-2.63a12.1,12.1,0,0,1-3.22-.79s2.16-3.7,4.06-2.12S302.56,214.08,301.37,214.08Z"/><path class="cls-18" d="M295.34,176.62c-1.72-3.14-5.28-5.19-8.34-2.7a6,6,0,0,0-7.82,2.17c-1.79,2.59-1.26,6.48,1.44,6.43.22,2.89,2.39,5.71,5.29,6a10.5,10.5,0,0,0,6.24,3.37c.83-2.24,2.59-4.91,2.64-5.33C296.62,183.57,297.32,180.26,295.34,176.62Z"/><path class="cls-15" d="M295.32,180.31c-4.33-1.54-5.67,1.8-5,5.29.44,2.37,3.39,2.83,5.05,1.33S297.63,181.12,295.32,180.31Z"/><path class="cls-19" d="M299.78,188.42c-.22-.78.74-2.62.39-4.95a5.62,5.62,0,0,0-2.2-3.18c-1.5-1.1-3.39-1.51-4.5.91-4.37,2.87-2.55,6.87-.16,9.44s7.68,2.53,9.71-.53C301.14,189.74,300.24,190,299.78,188.42Z"/><path class="cls-14" d="M283.62,196a19.1,19.1,0,0,0-4.76-1.61c-2.31-1.76-4.66-4.62-6.63-6.77s-4.05-4.28-6.14-6.36c-.49-.48-1-1.05-1.51-1.63a9.7,9.7,0,0,1,0-2.33c.06-1.43.21-2.1-.46-1.73s-1,2.95-1,2.95c-2.05-.21-3.82-1.86-4.49-2.16-1.94-.86-3.27.17-2.64,2.58a5.64,5.64,0,0,0,2.61,3.13c1.32.76,2.84.86,4.31,1.8,1.08.68,1.51,2,2.3,3.24,2.32,3.62,5.25,6.53,7.69,10.16a41.8,41.8,0,0,0,5.77,6.68,30.2,30.2,0,0,0,4.22,4.78c2,1.88,3.2-.09,4-2.53C288.07,202.49,286.6,197.71,283.62,196Z"/><path class="cls-16" d="M285.13,195.87c.35-.21.3-2.2,3.09-2.22a11.14,11.14,0,0,0,5.35-1.71l1.61,1.71s.24,2.22-3,3S285.13,195.87,285.13,195.87Z"/><path class="cls-20" d="M345.26,151.06s5.15-3.58,8.92,0c3.31,3.16,4.59,7.07,7.65,12.15,2.41,4,2.79,4.65,2.27,7.59-.35,2-1.32,3.06-3.5,6.09a73.13,73.13,0,0,1-6.4,6.58l-3.54-3.78,5.88-9.58a132,132,0,0,1-9-10.82A13.73,13.73,0,0,1,345.26,151.06Z"/><path class="cls-21" d="M355.09,151.32l1.89,3.1a15.24,15.24,0,0,1-3.75,5.21c-1.9,1.73-3,2.92-3,2.92l-1.67-2Z"/><path class="cls-20" d="M351.77,178.72c1.73-.1,3,1.5,3,3.68v5s1.21-1.26,2.23-1.25.75,1.25.75,1.25.28-.62,1.11,0-.56,1.24-2.23,2.41-3.83,2-5.63-.59-2.15-6.61-1.68-8S350.63,178.79,351.77,178.72Z"/><path class="cls-22" d="M348.66,199c7.81-8.28.37-17-3.39-19.72-2,2.45-13.82,7.31-13.89,7.61-1.43,6.08-.12,12.45,1.68,18.34,1.12,3.67,2.09,9.88,4.7,19.93-1.21,5,.16,12.58.67,18.24.35,3.95,1.92,14.3,2.16,15.19-.71-.22-1.89-1.27-3.5-1.83a7.48,7.48,0,0,0-4.29-.21c-2.68,1.06-3.44,2-2.72,3.74,1.06,2.53,4.42,3.34,6.81,3.83,3.6.75,5.63,6.48,9.48,2.52,1-1,.12-3.69-.22-5.1.07-1-.23-9.67.88-16.29,1.33-8,2-16.93-2.64-21.6C349.63,210.28,349.44,203.05,348.66,199Z"/><path class="cls-19" d="M346.18,261s-2.25.81-3.7,1.27a8,8,0,0,1-7.58-1.93c-1-1-1.78-2.27-1.42-3,.69-1.34,3.61-.67,3.61-.67s-5-3.48-7.83-1.18c-1.31,1.07-1.62,3.2.56,5.46,1.3,1.36,5.13,3.77,8.43,5.53,2.15,1.16,5.64,3.44,8,1.14S346.18,261,346.18,261Z"/><path class="cls-14" d="M340.46,204.87c7.82-8.29.38-17-3.39-19.73-2,2.46-13.82,7.31-13.89,7.61-1.43,6.09-.12,12.46,1.68,18.35C326,214.77,327,221,329.56,231c-1.21,5,.17,12.58.67,18.24.35,3.95,1.92,14.3,2.17,15.19-.72-.22-1.9-1.28-3.51-1.83a7.5,7.5,0,0,0-4.29-.22c-2.68,1.07-3.44,2-2.72,3.75,1.06,2.52,4.42,3.33,6.81,3.83,3.6.75,5.64,6.48,9.48,2.52,1-1,.12-3.7-.22-5.1.07-1-.23-9.67.88-16.3,1.33-8,2-16.92-2.64-21.59C341.43,216.18,341.24,209,340.46,204.87Z"/><path class="cls-19" d="M338,266.94s-2.25.8-3.7,1.27a8,8,0,0,1-7.58-1.94c-1-1-1.78-2.26-1.41-3,.68-1.35,3.6-.67,3.6-.67s-5-3.48-7.83-1.19c-1.3,1.07-1.62,3.2.56,5.47,1.3,1.35,5.13,3.76,8.43,5.53,2.15,1.15,5.65,3.44,8,1.13S338,266.94,338,266.94Z"/><path class="cls-23" d="M349.35,143.52c-3.48-1.25-7.72.74-7.89,4.31-1.92,3.26,0,8,3,10.21,3.48,2.53,9.61-.31,10.77-4.22S353.42,145,349.35,143.52Z"/><path class="cls-14" d="M349,149.42a.85.85,0,0,0-.6-.6c-4.11-1.13-5.06-3.35-5.78-7.07a.84.84,0,0,0-1.23-.5,26,26,0,0,1-6.88,3c2.3,6.88-1.87,8.35-3.68,11.08-.46.69,4.3,4.15,6.84,3.8a15.71,15.71,0,0,0,6.26-2.21C346,155.59,349.59,152.24,349,149.42Z"/><path class="cls-14" d="M343.15,133.64c-.38-3.54-3.28-8.25-7.26-7.95s-6.8,6.31-7.11,9.1c-.54,4.76-.12,13.72,7.38,10.84C342,143.39,343.72,138.92,343.15,133.64Z"/><path class="cls-14" d="M334.17,136.23s3-2.06,3.48.86a3.64,3.64,0,0,1-2.38,3.94Z"/><path class="cls-24" d="M351.29,163.53c2.6-8,1-13.39-1.29-16-.95-1.08-3.19-3.31-5.64-1.1.8,3.66-5.52,4.83-10.11,4.83-3.46,2.59-6.58,4.4-8.56,7.9-2.1,3.71-3.1,7.48,1.37,10.18-1.37,4.07.79,8.29-.4,18.68,4.18,3.32,12.23,3.29,16.68.59,3.47-2.11,5.32-4.46,5.15-7-1.16-2.47-2.84-3.05-2.71-6.12C345.94,171.59,350.09,167.21,351.29,163.53Z"/><path class="cls-20" d="M323.19,166.11s-1.85,5.29-2.51,7c-.75,2-1.23,3.93-2.19,6.19-1.8.92-8.59,7.15-13.51,10.52a10.82,10.82,0,0,1-1,.48,30.8,30.8,0,0,1-3-2c-.55-.53-1-1.44-1.3-1.13s-.61.79,0,2a9.36,9.36,0,0,0,1.35,1.85c-2.73.43-4.63.15-6.6,1.39-2.51,1.57-1.08,5,2.25,5.55,2.28.38,5.3-1.15,7.71-2.38,2.78-1.29,8.12-3.51,11.13-4.93a45.54,45.54,0,0,0,5.87-3.31,13,13,0,0,0,3-3.06c3.68-4.45,9.2-17,9.2-17Z"/><path class="cls-23" d="M330,154.11c-5.61-.19-9.83,7.64-7.88,13.94.41,3.32,7,5.86,9.27,5.19,4.16-1.87,6.76-4.24,7.64-9.51S335,154.28,330,154.11Z"/><path class="cls-21" d="M322.11,168.05l-.41,2.3s.08,1.76,3.09,3.25a9.36,9.36,0,0,0,5.4,1l1.19-1.39a23.11,23.11,0,0,1-5.58-1.62A9.06,9.06,0,0,1,322.11,168.05Z"/><path class="cls-19" d="M351.16,142.21c-.27-.15-.55-.29-.83-.42.76-.83,1.4-1.89.7-2.8a6.14,6.14,0,0,0-2-1.28c-.33-.17-.66-.34-1-.49,1-.36,1.75-1,1.41-2.14-.18-.62-.88-.89-1.26-1.36a6.17,6.17,0,0,1-1.09-2.5,38.92,38.92,0,0,0-.95-4.44c-.9-2.43-3.41-3.38-5.94-4a43.71,43.71,0,0,0-8.48-.92c-2.95,0-3.49-1.58-5.13-.53-1.08.69-.82,2-.2,3.28-.63,0-2.38,0-2.38,2,0,1.48,1.32,2.52,2.58,3.21-1.94,1.48-1.76,3.33-.41,5.12s5,3.17,7.51,2.11c0,4-1.24,6.66-2.53,8-.94,1-3.22,2.23-2.21,3.92s3.56,1,4.94.54a7.29,7.29,0,0,0,1-.41,8.69,8.69,0,0,1-1.22,1.71.73.73,0,0,0,.32,1.21c2.36.76,4.85-.15,6.84-1.86a14.43,14.43,0,0,0-.58,2.53c-.19,2,1.08,3.07,3,2.25,2.9-1.24,4.12-5,3.93-8.48a7.71,7.71,0,0,0,.84-.07c1.23-.18,3.39-.74,4.06-1.94A1.61,1.61,0,0,0,351.16,142.21Z"/><path class="cls-24" d="M326,184.13c-2,2.59-4.05,6.14-7.87,12.23-2.86,4.55-8.55,17.94-8.55,17.94s-1.42,5,2.79,7.38,4.48,3,6.07,7.08c1.42,3.61,6.74,4.86,10.32,1.47,4.63-4.38,10.27,3.83,16.42,2,3.52-1.06,6-7.22,7.52-8,4.26-2.28,5.87,1.64,10.16-1.9a34.56,34.56,0,0,0,6.91-8S357.65,189,352.67,184.58s-7.52-7-7.52-7S329.68,179.33,326,184.13Z"/><path class="cls-21" d="M329.09,193.56c-5.82,7.46-7.73,18.82-9.25,27.91a.55.55,0,0,0,1.07.29c3.34-9.07,5.87-18.71,8.47-28C329.43,193.57,329.2,193.42,329.09,193.56Z"/><path class="cls-21" d="M331.65,200.29c0-.15-.23-.19-.26,0-1.73,7.69-3.32,16-3.41,23.89a.52.52,0,0,0,1,.13C331.22,216.72,331.77,208.13,331.65,200.29Z"/><path class="cls-21" d="M342.45,196.44c-.07-.18-.35-.11-.29.08,2.3,8.3,2.5,16.89,4.48,25.19.18.73,1.14.48,1.22-.17C348.81,213.24,345.54,204,342.45,196.44Z"/><path class="cls-21" d="M351.74,195.73c-.24-.21-.7.07-.48.38a39,39,0,0,1,5,8.46c1.13,2.82,1.49,5.75,2.3,8.65a.77.77,0,0,0,1.5-.2C360.4,206.75,356.37,199.72,351.74,195.73Z"/><path class="cls-21" d="M327,180.13l-1,4s6.78,4.83,14.19,2.67c7.57-2.21,8.9-5.46,8.9-5.46l-2.9-3.5A17.94,17.94,0,0,1,327,180.13Z"/></svg>