<svg id="レイヤー_1" data-name="レイヤー 1" xmlns="http://www.w3.org/2000/svg" viewBox="0 0 566.93 396.85"><defs><style>.cls-1{fill:#fff;}.cls-2{fill:#009fe8;}</style></defs><path class="cls-1" d="M303.47,38.62,262.71,62.15a15.5,15.5,0,0,0-7,12.09v16.1c-.48,5.63-2.58,11.46-6,15.4,4.21.41,9.61-4.16,14.46-10.32l39.29-22.68a15.47,15.47,0,0,0,7-12.09v-18C310.43,38.23,307.3,36.41,303.47,38.62Z"/><path class="cls-2" d="M265.07,80.1c0,.91.05,2.61.05,2.72,0,.33-.1.45-.46.66l-1,.56c-.36.21-.46.2-.46-.13,0-.11,0-1.86,0-2.78V76.26c0-.77,0-1.75,0-2.62a.73.73,0,0,1,.44-.76l2.09-1.17,1.38-.8c2-1.17,3.52-1.25,3.52,1a6.57,6.57,0,0,1-1.9,4.3c-.19.23-.29.36-.29.45s.05.15.16.23l.5.4c.76.57,1.39,1,2.42,1.76.08.06.13.11.13.18s-.14.24-.38.37l-1.3.76c-.39.22-.5.22-.72,0-.66-.62-1.26-1.1-1.84-1.55l-.63-.52c-.24-.17-.36-.16-.76.06l-.53.31c-.39.23-.47.35-.47.75Zm0-3.13c0,.39.08.43.47.2l1-.61a3.94,3.94,0,0,0,2.23-3.33c0-1.37-.84-1.17-1.82-.61l-1.46.84c-.39.23-.47.35-.47.75Z"/><path class="cls-2" d="M280.54,70.12a8.06,8.06,0,0,1-4.17,6.69c-2.23,1.29-3.88.72-3.88-1.69a8.07,8.07,0,0,1,4.16-6.72C278.87,67.12,280.54,67.71,280.54,70.12Zm-6.23,4c0,1.44.88,1.88,2.11,1.17a4.74,4.74,0,0,0,2.29-4c0-1.48-.91-1.88-2.13-1.17A4.59,4.59,0,0,0,274.31,74.09Z"/><path class="cls-2" d="M286.44,62.75c2-1.15,3.26-.44,3.26,1.79,0,3.14-2.27,5.89-4.54,7.2a9.4,9.4,0,0,1-2.35,1c-.36.09-.46,0-.46-.29s0-1.44,0-2.15V64.17c0-.71,0-2,0-2.1,0-.33.09-.45.45-.66l.91-.52c.36-.21.46-.2.46.13,0,.11,0,1.43,0,2.13v1.31c0,.22,0,.31.12.26a1.39,1.39,0,0,0,.25-.27A7.31,7.31,0,0,1,286.44,62.75Zm1.44,3.08c0-1.42-.81-1.75-1.93-1.1a5.24,5.24,0,0,0-1.46,1.33,1.34,1.34,0,0,0-.36.92v3.28c0,.36.09.42.45.27a6.72,6.72,0,0,0,.66-.33A5.42,5.42,0,0,0,287.88,65.83Z"/><path class="cls-2" d="M299.13,59.38A8,8,0,0,1,295,66.07c-2.23,1.29-3.88.72-3.88-1.68a8.07,8.07,0,0,1,4.16-6.73C297.47,56.38,299.13,57,299.13,59.38Zm-6.22,4c0,1.45.88,1.88,2.11,1.17a4.72,4.72,0,0,0,2.29-3.95c0-1.47-.91-1.87-2.14-1.17A4.62,4.62,0,0,0,292.91,63.35Z"/><path class="cls-2" d="M305.26,59.49c0,.39-.07.53-.45.81s-.58.4-.86.56c-1.92,1.11-2.58.54-2.58-1V56.2c0-.31-.05-.36-.32-.21l-.53.33c-.41.23-.47.21-.47-.2v-.65c0-.41.06-.51.47-.74l.55-.3c.27-.16.3-.22.3-.55,0-.49,0-1.37,0-1.48,0-.33.09-.44.45-.65l.87-.5c.36-.21.45-.2.45.13,0,.11,0,1,0,1.51,0,.33.05.35.36.17l.43-.25.92-.55c.41-.23.47-.21.47.18v.68c0,.39-.06.49-.47.73l-.92.52-.32.18c-.39.23-.47.35-.47.74v3.29c0,.89.38,1,1.2.5.29-.17.65-.47.76-.54s.22,0,.22.29Z"/></svg>