<svg id="レイヤー_1" data-name="レイヤー 1" xmlns="http://www.w3.org/2000/svg" viewBox="0 0 566.93 566.93"><defs><style>.cls-1{fill:#fff;}.cls-2{fill:#009fe8;}</style></defs><path class="cls-1" d="M154.85,29l-19,10.53a10.49,10.49,0,0,0-4.71,8.19V58.6A18.64,18.64,0,0,1,127,69c2.85.27,6.51-2.81,9.79-7l18-10a10.49,10.49,0,0,0,4.71-8.19V31.73C159.56,28.72,157.44,27.49,154.85,29Z"/><path class="cls-2" d="M143.31,46.54a7.61,7.61,0,0,1-3.82,6.13c-2.31,1.33-3.63.31-3.63-1.68a7.47,7.47,0,0,1,3.8-6.08C142,43.57,143.31,44.55,143.31,46.54Zm-6.17,3.72c0,1.44.87,2.09,2.39,1.21a5,5,0,0,0,2.5-4.13c0-1.42-.88-2.06-2.4-1.19A5,5,0,0,0,137.14,50.26Z"/><path class="cls-2" d="M145.89,46.78c0,.62,0,1.77,0,1.84,0,.23-.06.31-.3.45l-.66.38c-.25.14-.31.13-.31-.09s0-1.26,0-1.88V44.21c0-.62,0-1.77,0-1.85s.06-.3.31-.44l.66-.38c.24-.14.3-.14.3.09,0,.07,0,1.26,0,1.88v.89c0,.12,0,.16.08.13a.55.55,0,0,0,.14-.17l1.15-1.92c.44-.73.86-1.42,1.44-2.44a1.23,1.23,0,0,1,.53-.55l1-.56c.14-.08.2-.08.2,0a.44.44,0,0,1-.08.2c-.84,1.35-1.3,2.1-1.84,3l-.49.8a.79.79,0,0,0-.15.34c0,.06,0,.11.11.18l1.14,1.2c.41.37.79.75,1.44,1.4.05.05.09.08.09.13s-.08.13-.24.22l-.87.5c-.28.16-.34.15-.48,0-.45-.53-.79-.87-1.15-1.23l-.8-.8c-.07-.08-.12-.1-.18-.07a.79.79,0,0,0-.2.26L146,46.07a.75.75,0,0,0-.15.47Z"/><path class="cls-2" d="M153.16,44a1.59,1.59,0,0,1-.81,1.27c-.41.24-.72.14-.72-.27a1.55,1.55,0,0,1,.8-1.3C152.84,43.43,153.16,43.55,153.16,44Zm-.93-1c-.27.15-.33.13-.33-.13l-.08-2.59c0-.68-.08-1.83-.08-2.05s.07-.26.3-.39l.69-.4c.24-.14.3-.13.3,0S153,38.9,153,39.69l-.07,2.59c0,.27-.06.36-.33.51Z"/><path class="cls-1" d="M299.35,159.11l-19,10.53a10.47,10.47,0,0,0-4.71,8.18v10.9a18.77,18.77,0,0,1-4.08,10.43c2.85.27,6.5-2.82,9.79-7l18-10a10.47,10.47,0,0,0,4.71-8.18V161.85C304.06,158.85,301.94,157.61,299.35,159.11Z"/><path class="cls-2" d="M287.81,176.67a7.6,7.6,0,0,1-3.82,6.12c-2.31,1.34-3.63.31-3.63-1.68a7.43,7.43,0,0,1,3.8-6.07C286.48,173.7,287.81,174.68,287.81,176.67Zm-6.17,3.72c0,1.43.87,2.09,2.39,1.21a5.05,5.05,0,0,0,2.5-4.13c0-1.43-.88-2.07-2.4-1.19A5,5,0,0,0,281.64,180.39Z"/><path class="cls-2" d="M290.39,176.91c0,.61,0,1.77,0,1.84,0,.22-.06.3-.31.44l-.66.39c-.24.14-.3.13-.3-.09s0-1.27,0-1.88v-3.28c0-.61,0-1.77,0-1.84,0-.22.06-.3.3-.44l.66-.39c.25-.14.31-.13.31.09s0,1.27,0,1.88v.89c0,.12,0,.16.07.13a.38.38,0,0,0,.14-.16l1.16-1.93c.44-.73.85-1.41,1.44-2.43a1.14,1.14,0,0,1,.53-.55l1-.56c.14-.08.2-.09.2,0a.37.37,0,0,1-.09.19l-1.83,3-.5.81a.82.82,0,0,0-.14.34c0,.06,0,.11.1.18l1.15,1.2c.41.37.79.74,1.44,1.39.05.06.08.09.08.13s-.07.13-.23.22L294,177c-.28.16-.34.15-.48,0a16.42,16.42,0,0,0-1.15-1.23l-.8-.81c-.07-.07-.13-.1-.18-.06a.62.62,0,0,0-.2.25l-.66,1.09a.76.76,0,0,0-.15.47Z"/><path class="cls-2" d="M297.66,174.1a1.59,1.59,0,0,1-.81,1.27c-.42.24-.72.14-.72-.27a1.57,1.57,0,0,1,.79-1.3C297.34,173.56,297.66,173.68,297.66,174.1Zm-.94-1c-.26.16-.32.14-.33-.13l-.07-2.58c0-.69-.08-1.84-.08-2.05s.07-.26.3-.4l.69-.4c.24-.13.3-.12.3.06s0,1.42-.08,2.21l-.06,2.59c0,.27-.06.35-.33.51Z"/></svg>