<svg id="レイヤー_1" data-name="レイヤー 1" xmlns="http://www.w3.org/2000/svg" viewBox="0 0 566.93 566.93"><defs><style>.cls-1{isolation:isolate;}.cls-2{fill:#1d1a1b;}.cls-3{fill:#6b5c66;}.cls-4{fill:#53464e;}.cls-5{fill:#171515;}.cls-6{fill:#3f333b;}.cls-7{fill:#d7c4b8;}.cls-8{fill:#f5ebe4;}.cls-9{fill:#a19a8c;}.cls-10{fill:#f2ece4;}.cls-11{fill:#a89f8f;}.cls-12{fill:#eadcd3;}.cls-13{fill:#f9b7a2;}.cls-14{fill:#ffc9b6;}.cls-15{fill:#ff5e4c;}.cls-16{fill:#e83a36;}.cls-17{fill:#f74f43;}.cls-18{fill:#33212a;}.cls-19{fill:#2b1822;}.cls-20{fill:#ffb9a4;}.cls-21{fill:#6752c1;}.cls-22{fill:#f9bba7;}.cls-23{fill:#fff;}.cls-24{fill:#846ad3;}</style></defs><g class="cls-1"><g class="cls-1"><path class="cls-2" d="M67.57,456.87,69,456l-.18-.1-1.47.85.18.11Z"/><path class="cls-3" d="M67.39,456.76l1.47-.85a14.7,14.7,0,0,1-6-8.64l-1.48.85a14.65,14.65,0,0,0,6,8.64Z"/></g><path class="cls-4" d="M61.36,448.07c-.09-.37-.15-.74-.21-1.11l0-.25a10.86,10.86,0,0,1-.07-1.12v-.18l0-.3c0-.11,0-.23,0-.33s0-.25,0-.37,0-.2.05-.3l.09-.34a2.76,2.76,0,0,1,.08-.27,1.66,1.66,0,0,1,.12-.31l.09-.24c.05-.1.11-.19.16-.28a2.25,2.25,0,0,1,.12-.21,2.35,2.35,0,0,1,.19-.25,1.09,1.09,0,0,1,.13-.17l.24-.23a1.42,1.42,0,0,1,.13-.12,2.78,2.78,0,0,1,.41-.29l1.48-.86a3.13,3.13,0,0,0-.42.29l-.12.11-.25.25-.12.16a2.56,2.56,0,0,0-.2.26l-.12.2-.15.28a1.86,1.86,0,0,0-.1.25l-.12.3c0,.09-.05.18-.08.28a3.18,3.18,0,0,0-.08.33c0,.1,0,.2,0,.3l-.06.37c0,.11,0,.22,0,.33s0,.32,0,.48a10.69,10.69,0,0,0,.07,1.12l0,.25c0,.37.12.74.21,1.12A14.59,14.59,0,0,0,69,456a6.07,6.07,0,0,0,.93.45l.2.09a6.52,6.52,0,0,0,.87.26l.15,0,.52.06h.22l.43,0,.22,0a2.88,2.88,0,0,0,.4-.09l.18-.05a5.05,5.05,0,0,0,.53-.24l-1.48.85a2.32,2.32,0,0,1-.53.24l-.18.06c-.13,0-.26.07-.4.09l-.22,0-.42,0h-.23a4.7,4.7,0,0,1-.51-.06l-.13,0h0a6,6,0,0,1-.86-.26l-.21-.08a7.07,7.07,0,0,1-.92-.45,14.56,14.56,0,0,1-6.19-8.75h0A.11.11,0,0,0,61.36,448.07Z"/><path class="cls-5" d="M64.68,437.28l1.48-.86a5.39,5.39,0,0,0-3.82.51l-1.48.86a5.35,5.35,0,0,1,3.82-.51Z"/><g class="cls-1"><path class="cls-5" d="M74.32,460.94l1.48-.86c1.66-1,2.7-3,2.77-5.83l-1.48.86C77,458,76,460,74.32,460.94Z"/><path class="cls-2" d="M77.09,455.11l1.48-.86V454a15.4,15.4,0,0,0-.46-3.69l-1.48.86a15.35,15.35,0,0,1,.47,3.68,2.17,2.17,0,0,1,0,.26Z"/><path class="cls-4" d="M65.85,437.62l-.28-.1-.64-.18-.19,0a5.3,5.3,0,0,0-3.88.49l1.48-.86a5.37,5.37,0,0,1,3.81-.5h0l0,0,.19.05.65.18.27.09.62.25.27.12a8.29,8.29,0,0,1,.88.46l.26.15.18.12c.4.26.8.53,1.18.83l.2.15c.43.34.84.72,1.25,1.11l.27.27c.39.4.78.81,1.15,1.26l0,0c.38.45.73.93,1.07,1.42l.23.33c.33.49.65,1,.94,1.5a1.28,1.28,0,0,1,.11.2c.27.47.51,1,.74,1.44l.16.33c.24.53.45,1.07.65,1.6,0,.11.07.22.1.33.17.49.32,1,.44,1.47l.06.18h0a14.86,14.86,0,0,1,.47,3.68c0,3-1.07,5.09-2.77,6.08l-1.48.86c1.71-1,2.77-3.1,2.78-6.09a16,16,0,0,0-.52-3.86c-.13-.49-.27-1-.44-1.48,0-.1-.07-.21-.11-.32-.19-.54-.41-1.07-.65-1.6l-.15-.34c-.23-.48-.48-1-.74-1.43l-.11-.21c-.29-.51-.61-1-.94-1.49l-.23-.34c-.34-.48-.7-1-1.07-1.41l0,0c-.37-.44-.76-.85-1.16-1.25l-.27-.27a15.91,15.91,0,0,0-1.24-1.11l-.2-.15c-.39-.3-.79-.58-1.19-.83l-.43-.28c-.3-.17-.6-.32-.89-.46l-.27-.11C66.26,437.78,66.05,437.69,65.85,437.62Z"/></g><path class="cls-6" d="M77.1,454.85c0,6-4.3,8.46-9.54,5.43s-9.49-10.39-9.47-16.4,4.29-8.46,9.53-5.44S77.11,448.83,77.1,454.85Zm-9.53,2c3.6,2.08,6.54.41,6.55-3.74a14.38,14.38,0,0,0-6.51-11.28c-3.61-2.08-6.55-.4-6.56,3.74a14.37,14.37,0,0,0,6.52,11.28Z"/></g><g class="cls-1"><path class="cls-7" d="M47.5,471.08c0-.09,0-.17,0-.26a15.45,15.45,0,0,0-.45-3.57L75.7,450.6a14.51,14.51,0,0,1,.45,3.58v.25c-.06,2.77-1.08,4.72-2.68,5.65L44.82,476.73C46.43,475.8,47.44,473.84,47.5,471.08Z"/><path class="cls-8" d="M47.06,467.25,75.7,450.6c-1.17-4.81-4.5-9.74-8.46-12.15L38.59,455.1c4,2.41,7.29,7.34,8.47,12.15Z"/><path class="cls-7" d="M60.43,437.66a5.14,5.14,0,0,1,3.7-.49A9.29,9.29,0,0,1,67,438.3l.26.15L38.59,455.1a1.74,1.74,0,0,0-.26-.15,9.29,9.29,0,0,0-2.85-1.13,5.14,5.14,0,0,0-3.7.49Z"/></g><path class="cls-9" d="M38.33,455c-5.07-2.94-9.21-.59-9.23,5.25s4.1,12.95,9.17,15.88,9.22.59,9.24-5.26S43.42,457.88,38.33,455Z"/><path class="cls-10" d="M65.57,401.21l.42.3c.33.24.75.55,1.25.88,1,.68,2.34,1.51,3.67,2.28,2.65,1.56,5.29,3,5.29,3h0a4.13,4.13,0,0,0,4.45-6.93s-2.3-1.77-4.45-3.6c-1.07-.91-2.1-1.83-2.81-2.52-.37-.34-.64-.63-.81-.8l-.34-.35a5.15,5.15,0,1,0-7.37,7.19A5.26,5.26,0,0,0,65.57,401.21Z"/><circle class="cls-11" cx="64.77" cy="395.29" r="5.09"/><path class="cls-11" d="M84.92,406.19a2.69,2.69,0,1,1-2.69-2.69A2.68,2.68,0,0,1,84.92,406.19Z"/><path class="cls-8" d="M83,404.91A2.26,2.26,0,0,1,81.32,406c-.65,0-.94-.4-.65-1a2.25,2.25,0,0,1,1.71-1.14C83,403.88,83.32,404.32,83,404.91Z"/><path class="cls-10" d="M78.69,407.48l-.16.33c-.11.22-.28.56-.5,1-.44.8-1.08,1.86-1.77,2.89a40.78,40.78,0,0,1-3,4h0a2.61,2.61,0,0,0,3.55,3.8,46.26,46.26,0,0,0,4.29-3.76c1-1,2-2.06,2.68-2.89.36-.41.65-.78.85-1l.34-.44,0,0a3.68,3.68,0,1,0-5.88-4.44A3.61,3.61,0,0,0,78.69,407.48Z"/><path class="cls-4" d="M33.77,430l3.12-31.13,14.24,8.28L49,448.59c-.37,3.91.8,6.7,2.89,7.91L42.31,451C31.78,444.71,33.4,434,33.77,430Z"/><path class="cls-12" d="M61.16,391.12c-5.13,3-9.43,9.85-10,16.06L49,448.59c-.7,7.34,4,10.71,10.09,7.21l4.42-2.55c6.06-3.51,10.75-12.31,10-18.82l-2.27-38.86C70.62,390.07,66.29,388.16,61.16,391.12Z"/><path class="cls-4" d="M48.27,384c2.8-1.62,5.36-1.78,7.21-.71l12.89,7.14c-1.85-1.07-4.42-.91-7.21.71-5.13,3-9.43,9.85-10,16.06L36.89,398.9C39.13,392.68,43.15,386.94,48.27,384Z"/><path class="cls-7" d="M59,388.8a5.68,5.68,0,0,1-2.27.34c-1.6-.08-3.76-.49-3.14-3.93l.75-6a3.57,3.57,0,0,1,7.09.88l-.76,6C60.46,387.59,60.59,388.19,59,388.8Z"/><path class="cls-10" d="M46.06,428.46l.15.09.43.2c.33.16.77.34,1.31.55a34.47,34.47,0,0,0,3.84,1.21,50.74,50.74,0,0,0,5.54,1.11h0a2.61,2.61,0,0,0,1.21-5.06,45.65,45.65,0,0,1-4.65-1.94A28.45,28.45,0,0,1,51,423c-.37-.23-.66-.43-.83-.56s-.17-.13-.16-.14l-.05,0a3.71,3.71,0,0,0-5,5.5,3.67,3.67,0,0,0,.74.52Z"/><path class="cls-3" d="M48.38,422.89a2.69,2.69,0,1,1-2.69-2.69A2.7,2.7,0,0,1,48.38,422.89Z"/><circle class="cls-7" cx="60.05" cy="429.35" r="2.41"/><path class="cls-8" d="M60.76,428.79a2.31,2.31,0,0,1-2,0,.63.63,0,0,1,0-1.19,2.31,2.31,0,0,1,2,0A.63.63,0,0,1,60.76,428.79Z"/><path class="cls-8" d="M48,422.54a2.26,2.26,0,0,1-1.38,1.51c-.63.19-1-.16-.87-.8a2.26,2.26,0,0,1,1.38-1.51C47.73,421.54,48.12,421.9,48,422.54Z"/><path class="cls-10" d="M38.28,406.38s0,.8-.09,2a39.42,39.42,0,0,0,.13,4.7,27.61,27.61,0,0,0,.86,4.83c.38,1.32.73,2.18.73,2.18a4.13,4.13,0,0,0,7.87-2.41l0-.08a12.92,12.92,0,0,1-.2-1.41,18.9,18.9,0,0,1,0-3.29,29.81,29.81,0,0,1,.52-3.47l.37-1.69v0a5.15,5.15,0,1,0-10.06-2.2A5.32,5.32,0,0,0,38.28,406.38Z"/><path class="cls-3" d="M49.72,401.73a5.09,5.09,0,1,1-5.09-5.09A5.09,5.09,0,0,1,49.72,401.73Z"/><path class="cls-8" d="M48.08,401.87a4.92,4.92,0,0,1-4.48,0c-1.24-.71-1.24-1.87,0-2.59a5,5,0,0,1,4.48,0C49.32,400,49.32,401.16,48.08,401.87Z"/><path class="cls-10" d="M64.73,433.49l-.49.31a2.52,2.52,0,0,1-3.81-1.38l-.27-.92a1.3,1.3,0,0,1,.55-1.48l1.6-1a.71.71,0,0,1,.4-.13,5.41,5.41,0,0,1,2.29,1A2.3,2.3,0,0,1,64.73,433.49Z"/><path class="cls-10" d="M67.08,432.39a.57.57,0,0,0,.33-1c-.81-.57-2.49-1.72-2.49-1.72l-.65.95s1.67,1.14,2.48,1.71A.56.56,0,0,0,67.08,432.39Z"/><path class="cls-10" d="M68.24,434.35a.75.75,0,0,0,.71-.5.76.76,0,0,0-.46-1,9.45,9.45,0,0,1-1.88-.82c-.35-.29-1.17-1.16-1.46-1.47a.74.74,0,0,0-1.09,1c.11.12,1.12,1.2,1.6,1.61A10.63,10.63,0,0,0,68,434.31.67.67,0,0,0,68.24,434.35Z"/><path class="cls-10" d="M68,436a.75.75,0,0,0,.31-1.43c-1.12-.5-2.45-1.13-2.66-1.28a17.44,17.44,0,0,1-1.09-1.48.76.76,0,0,0-1-.19.75.75,0,0,0-.19,1,13.38,13.38,0,0,0,1.39,1.79,21.68,21.68,0,0,0,3,1.48A.66.66,0,0,0,68,436Z"/><path class="cls-10" d="M66.1,436.57a.75.75,0,0,0,.65-.37.74.74,0,0,0-.28-1l-1.94-1.12L63.16,432a.73.73,0,0,0-1-.21.75.75,0,0,0-.21,1l1.57,2.34,2.24,1.29A.71.71,0,0,0,66.1,436.57Z"/><path class="cls-10" d="M60.52,432.78c.09.46.2.89.33,1.34.07.22.14.44.23.69a4.11,4.11,0,0,0,.18.38,2.38,2.38,0,0,0,.14.23,1.17,1.17,0,0,0,.27.3l.18.14h.2l.52,0c.08,0,.11,0,.06,0s0,0,0,0a.68.68,0,0,0,.94-.13.67.67,0,0,0-.14-.94l0,0a1.61,1.61,0,0,0-.39-.21,1.44,1.44,0,0,0-.43-.06l-.47,0,.37.16s.09.07.09,0,0,0,0-.05v-.22a5.48,5.48,0,0,1,0-.55,11.74,11.74,0,0,1,.16-1.17,1.17,1.17,0,1,0-2.3-.44,1.09,1.09,0,0,0,0,.44Z"/><path class="cls-3" d="M63.11,434.59l.07,0a.54.54,0,0,1,0-.47.75.75,0,0,1,.49-.37c.27-.05.42,0,.51.13l.07,0a.54.54,0,0,0-.59-.17.83.83,0,0,0-.55.42A.6.6,0,0,0,63.11,434.59Z"/><path class="cls-3" d="M64.19,433.85l.06,0a.64.64,0,0,1,.33-.81.9.9,0,0,1,.58-.07.2.2,0,0,1,.13.07l.06,0a.27.27,0,0,0-.18-.11,1,1,0,0,0-.63.08A.69.69,0,0,0,64.19,433.85Z"/><path class="cls-3" d="M65.29,433l0,0c-.28-.25-.16-.54,0-.8a.7.7,0,0,1,.44-.3h.11l0-.06a.22.22,0,0,0-.16,0,.79.79,0,0,0-.49.33A.65.65,0,0,0,65.29,433Z"/><path class="cls-3" d="M64.9,431.09l0-.06a.46.46,0,0,1-.17-.29.6.6,0,0,1,.11-.43.58.58,0,0,1,.71-.19l0-.05a.63.63,0,0,0-.81.2.63.63,0,0,0-.12.48A.59.59,0,0,0,64.9,431.09Z"/><path class="cls-8" d="M72.43,373.36c-1.32,6.41-5.44,13.94-10.74,12.7-2.95-.69-10.93-4.46-13.39-9.18-5.47-10.44,1.34-20.23,16.86-15.94C69.11,362,74,365.56,72.43,373.36Z"/><path class="cls-4" d="M72.74,370.36c0,4.23-2.61,14.05-8.5,15.61-2.26.6-5.66-1.61-7.61-6.31-2.16-5.19.63-13.54,8.05-14.82C71,363.76,72.74,365.86,72.74,370.36Z"/><path class="cls-7" d="M52,376.9a7.31,7.31,0,0,1-3.3-5.73,2.07,2.07,0,0,1,3.39-1.95,7.31,7.31,0,0,1,3.3,5.72,2.36,2.36,0,0,1-1,2.19,1.76,1.76,0,0,1-.89.23A3.11,3.11,0,0,1,52,376.9Zm-2.22-7.76a2.2,2.2,0,0,0-.91,2,7.13,7.13,0,0,0,3.22,5.58,1.9,1.9,0,0,0,3.13-1.81A7.09,7.09,0,0,0,52,369.37a2.87,2.87,0,0,0-1.41-.44A1.58,1.58,0,0,0,49.82,369.14Z"/><path class="cls-4" d="M54.35,375c0,1.79-1.26,2.51-2.81,1.62a6.22,6.22,0,0,1-2.8-4.87c0-1.79,1.25-2.51,2.8-1.62A6.23,6.23,0,0,1,54.35,375Z"/><path class="cls-4" d="M84.92,406.19a2.69,2.69,0,1,1-2.69-2.69A2.68,2.68,0,0,1,84.92,406.19Z"/><path class="cls-8" d="M83,404.91A2.26,2.26,0,0,1,81.32,406c-.65,0-.94-.4-.65-1a2.25,2.25,0,0,1,1.71-1.14C83,403.88,83.32,404.32,83,404.91Z"/><path class="cls-10" d="M78.69,407.48l-.16.33c-.11.22-.28.56-.5,1-.44.8-1.08,1.86-1.77,2.89a40.78,40.78,0,0,1-3,4h0a2.61,2.61,0,0,0,3.55,3.8,46.26,46.26,0,0,0,4.29-3.76c1-1,2-2.06,2.68-2.89.36-.41.65-.78.85-1l.34-.44,0,0a3.68,3.68,0,1,0-5.88-4.44A3.61,3.61,0,0,0,78.69,407.48Z"/><g class="cls-1"><g class="cls-1"><path class="cls-2" d="M37.83,473.45l1.47-.85-.18-.11-1.47.86.18.1Z"/><path class="cls-3" d="M37.65,473.35l1.47-.86a14.67,14.67,0,0,1-6-8.64l-1.48.86a14.72,14.72,0,0,0,6,8.64Z"/></g><path class="cls-4" d="M31.62,464.66c-.09-.38-.15-.75-.2-1.12a1.13,1.13,0,0,1,0-.25,8.56,8.56,0,0,1-.08-1.12,1.09,1.09,0,0,1,0-.18c0-.1,0-.2,0-.3s0-.22,0-.33,0-.25.05-.37,0-.2.05-.3l.09-.34c0-.09.05-.18.08-.27a2.85,2.85,0,0,1,.12-.31,2.44,2.44,0,0,1,.1-.24,2.49,2.49,0,0,1,.15-.28l.12-.2.19-.26a1.83,1.83,0,0,1,.13-.16l.24-.24.13-.12a3.81,3.81,0,0,1,.41-.29l1.48-.85a3.07,3.07,0,0,0-.42.28l-.11.12a2,2,0,0,0-.26.24l-.12.16c-.07.09-.14.17-.2.26l-.12.21-.15.28a1.73,1.73,0,0,0-.1.24l-.12.3a2.86,2.86,0,0,0-.07.28,2,2,0,0,0-.09.33c0,.1,0,.21,0,.31l-.06.36c0,.11,0,.22,0,.34s0,.31,0,.47a10.69,10.69,0,0,0,.07,1.12l0,.25c0,.37.12.74.21,1.12a14.61,14.61,0,0,0,6.2,8.8,8.76,8.76,0,0,0,.93.45l.2.08a6.52,6.52,0,0,0,.87.26l.16,0a4.46,4.46,0,0,0,.51.07h.23a3,3,0,0,0,.42,0,.83.83,0,0,0,.22,0,2.59,2.59,0,0,0,.4-.09l.18,0a3.18,3.18,0,0,0,.53-.24l-1.47.86a5.05,5.05,0,0,1-.53.24l-.18.05a3,3,0,0,1-.41.09l-.22,0-.42,0H40.5l-.52-.06-.13,0h0A6,6,0,0,1,39,474l-.21-.09a6,6,0,0,1-.92-.45,14.53,14.53,0,0,1-6.19-8.75h0A.07.07,0,0,0,31.62,464.66Z"/><path class="cls-5" d="M34.94,453.86l1.48-.85a5.34,5.34,0,0,0-3.82.5l-1.48.86a5.36,5.36,0,0,1,3.82-.51Z"/><g class="cls-1"><path class="cls-5" d="M44.58,477.52l1.48-.86c1.66-1,2.7-3,2.77-5.82l-1.47.85c-.07,2.86-1.12,4.87-2.78,5.83Z"/><path class="cls-2" d="M47.36,471.69l1.47-.85v-.26a15.32,15.32,0,0,0-.46-3.68l-1.48.85a15.41,15.41,0,0,1,.47,3.68v.26Z"/><path class="cls-4" d="M36.11,454.2l-.28-.09-.64-.18-.19-.05a5.4,5.4,0,0,0-3.88.49l1.48-.86a5.37,5.37,0,0,1,3.81-.5h.06l.19.05.65.18.28.09.61.25.27.12c.29.14.59.29.88.46l.27.15a1.77,1.77,0,0,0,.17.12c.4.26.8.53,1.19.84l.19.14c.43.35.84.72,1.25,1.11l.27.27c.4.4.78.82,1.15,1.26l0,0c.38.46.73.93,1.08,1.42l.23.33c.33.49.64,1,.94,1.5a2,2,0,0,0,.11.2c.26.47.5.95.73,1.44l.16.33c.24.53.45,1.07.65,1.61,0,.1.07.21.11.32.16.49.31,1,.43,1.47l.06.19h0a14.86,14.86,0,0,1,.47,3.68c0,3-1.06,5.09-2.77,6.08l-1.48.86c1.71-1,2.77-3.1,2.78-6.09a16,16,0,0,0-.52-3.86c-.12-.49-.27-1-.44-1.47l-.11-.33c-.19-.54-.41-1.07-.65-1.6l-.15-.33c-.23-.49-.48-1-.74-1.44,0-.07-.07-.14-.11-.2-.29-.52-.61-1-.94-1.5l-.23-.33c-.34-.49-.7-1-1.07-1.42l0,0c-.37-.44-.76-.86-1.16-1.26l-.27-.27a16.13,16.13,0,0,0-1.24-1.11l-.2-.15a13.39,13.39,0,0,0-1.19-.83c-.14-.09-.28-.19-.43-.27a7.54,7.54,0,0,0-.89-.46l-.26-.12Z"/></g><path class="cls-6" d="M47.36,471.43c0,6-4.3,8.46-9.54,5.43s-9.49-10.38-9.47-16.4S32.64,452,37.88,455,47.38,465.42,47.36,471.43Zm-9.53,2c3.6,2.08,6.54.41,6.55-3.73a14.36,14.36,0,0,0-6.51-11.28c-3.6-2.09-6.54-.41-6.56,3.73a14.37,14.37,0,0,0,6.52,11.28Z"/></g><path class="cls-4" d="M71.83,420.62a2.4,2.4,0,1,0,.44-3.37A2.4,2.4,0,0,0,71.83,420.62Z"/><path class="cls-8" d="M72.83,419.15a2.27,2.27,0,0,0,1.62-1.25c.25-.6-.07-1-.72-.94a2.27,2.27,0,0,0-1.62,1.25C71.86,418.81,72.18,419.23,72.83,419.15Z"/><path class="cls-10" d="M70.28,424.41l.64.2c1.88.6,3.73-.5,3.7-2.21l0-1a1.53,1.53,0,0,0-1.12-1.35l-2.1-.67a1,1,0,0,0-.49,0,5.31,5.31,0,0,0-2.17,1.46C67.8,422.07,68.58,423.86,70.28,424.41Z"/><path class="cls-10" d="M66.8,425.54a.8.8,0,0,0,.63-.3c1-1.21,2.88-3.7,3-3.8a.82.82,0,0,0-.17-1.14.8.8,0,0,0-1.14.16s-1.92,2.55-2.9,3.73a.82.82,0,0,0,.1,1.16A.85.85,0,0,0,66.8,425.54Z"/><path class="cls-10" d="M66.69,427a.72.72,0,0,0,.65-.38c0-.05.68-1.22.93-1.79A11.85,11.85,0,0,1,69.79,423a.74.74,0,0,0,0-1.05.75.75,0,0,0-1.05,0,12.44,12.44,0,0,0-1.81,2.26c-.18.42-.68,1.34-.86,1.66a.74.74,0,0,0,.29,1A.8.8,0,0,0,66.69,427Z"/><path class="cls-10" d="M68.78,427.92s1-2.53,1.17-2.86c.07-.16.57-.92,1-1.53a.74.74,0,0,0-.18-1,.75.75,0,0,0-1,.18,20.81,20.81,0,0,0-1.14,1.79c-.14.33-1.18,2.89-1.18,2.89Z"/><path class="cls-10" d="M69.53,428.25a.73.73,0,0,0,.65-.39l1.07-1.95,1.31-2a.75.75,0,0,0-.22-1,.74.74,0,0,0-1,.22l-1.33,2-1.1,2a.74.74,0,0,0,.29,1A.7.7,0,0,0,69.53,428.25Z"/><path class="cls-10" d="M71.58,427.36a.67.67,0,0,0,.5-.23,7.68,7.68,0,0,0,1.16-1.62c.2-.46.79-1.67.79-1.67l-1.21-.59s-.6,1.26-.81,1.74a7.28,7.28,0,0,1-.93,1.25.68.68,0,0,0,0,.95A.7.7,0,0,0,71.58,427.36Z"/><path class="cls-13" d="M134.85,453.92c-.18-3.68-3.4-6.76-6-9.11a39.1,39.1,0,0,1-2.25-4.54c-.64-1.68-1.92-3.13-2.77-4.73a56,56,0,0,0-6.53-8.68,15.47,15.47,0,0,1-.35-3.47c0-.52.31-1.62-.32-1.38-1.43.55-.46,2.74-1.33,2.56-2.29-.47-3.8-3.86-5.42-2.59-1,.74-.28,3,1.41,4.49.73.62,2.86,1.51,3.69,2.78,2.21,3.38,4.57,10.16,6.22,13.86q2.67,6,5.53,11.88c1.23,2.52,2.21,6.52,5.12,7.47a.49.49,0,0,0,.48-.12C134.32,460.15,135,456.83,134.85,453.92Z"/><path class="cls-14" d="M138.14,522.64c-.07,2.86-1.55,4.05-3.63,5.17-2.34,1.27-4.32,2.46-6.43.72.18-.24.36-.48.55-.71,1.13-1.42,3.63-4.48,3.69-6.41.14-5.14-6.11-14.22-7.55-18.91s3.06-15.44,3.06-15.44,4.8,13,6.41,19.14,1.3,10.76,2.62,14a9.38,9.38,0,0,0,1.28,1.92A3.84,3.84,0,0,1,138.14,522.64Z"/><path class="cls-14" d="M120.23,529.59a2.56,2.56,0,0,1-1.54,1.31c-1.47.58-3.19,1.74-4.73,1.52-2.68-.4-5.42-2.76-5.73-5.28a35.47,35.47,0,0,0,6.48-1s-1.92-20.85,0-25.28,12-3.5,12-3.5a10.17,10.17,0,0,0-5.72,8.55c2.76,8.21-.79,15-1.32,19.09C119.55,525.75,120.19,528.46,120.23,529.59Z"/><path class="cls-15" d="M141.92,494.6c0,4.08-4.94,3.3-6.53,4.24a9.35,9.35,0,0,0-2.52,2.61c-2,2.61-3.69,3.33-6.94,2.46-2-.55-4.55-1.37-7.07,0-1.35.73-3.65,2.7-7-1.37-1.7-2.05-4.85-2.94-6.56-6.18a107.31,107.31,0,0,1,9.41-22.59c.63-2.74.3-4.59-.62-9.64s-.82-5.91,2.53-7.8c2.38-1.33,7-4.55,10.83-4a6.7,6.7,0,0,1,4.63,4c2.38,5.74-.68,17.44-.68,17.44Z"/><path class="cls-14" d="M116.34,434.9c4.57-2.64,8.15-1,10,3.27,1.25,2.88-.31,7.41-.06,11.25a14.5,14.5,0,0,0,.47,4.59c-1.86,2.36-6.25,2.36-8,1.22a20.29,20.29,0,0,0-1.07-3.62,5.16,5.16,0,0,1-5.12-3.59C110.63,442.18,111.08,437.94,116.34,434.9Z"/><path class="cls-16" d="M111,526.92s-3,1.61,0,3.14,5.24,1.24,6.33.82,1.37-2.16,2.85-2.76c1.19.52,1.3,2.53,1.1,4.14-1.42,2.09-6.73,1.18-8.94.55-1.81-.52-4.92-1.21-5.65-3.41a1.92,1.92,0,0,1,2-2.75A7.56,7.56,0,0,1,111,526.92Z"/><path class="cls-16" d="M137.39,521.15a4.3,4.3,0,0,0-2.47,3.1c-.23,2.15-3.35,4-4.52,4s-.94-1.46-.94-1.46a12.3,12.3,0,0,0-3.26,2.34c-.89,1.15.46,2.47,3.91,2.39s5-3.08,7.32-3.72,2.15-3,1.86-3.94A13.12,13.12,0,0,0,137.39,521.15Z"/><path class="cls-16" d="M131.4,473.77a16.6,16.6,0,0,1-6.91,3.2c-3.92.69-9.78-3.2-9.78-3.2s-.52.89-1,1.85a17.38,17.38,0,0,0,7.67,3.31c4.7.55,5.79-.36,7.37-.94a10.26,10.26,0,0,0,3.31-2.74Z"/><path class="cls-17" d="M137.6,498.26a53.91,53.91,0,0,0-3.51-11.2c-2.41-4.82-5.62-5.07-4,0,1,3.11,3.54,13.47,3.54,13.47S135,498,137.6,498.26Z"/><path class="cls-17" d="M123.15,503.26c.28.16-.27-11.16-.32-16.2s-1.73-5.09-3-1.9-1.58,18.75-1.58,18.75S121.05,502.1,123.15,503.26Z"/><path class="cls-17" d="M110.67,501.41s1.57-5.29,3-11.2c1.65-6.86,1.75-8.65,1-9.18s-2.54,3-4.56,7.83c-1.92,4.63-3.87,8.9-3.87,8.9A12.17,12.17,0,0,0,110.67,501.41Z"/><path class="cls-16" d="M132.8,476.67l4.46,7.13a7.71,7.71,0,0,1-4.46,3.26C131.32,484,128.45,475,128.45,475l2.76,1.3Z"/><path class="cls-16" d="M129.63,476.88c.69,2.7.23,6.86-.9,11.95-1.45.32-5.19-1.77-5.19-1.77l1.92-8.59,3.27-3.81A5.94,5.94,0,0,1,129.63,476.88Z"/><path class="cls-16" d="M135.61,469c-3.49-2.28-6.6,3.68-6.6,3.68-6.25-3.3-9.41-1.35-9.52,3.35s2.76,6.45,5.4,4.92,5.22-5.35,5.22-5.35,5.84,4.36,7.42,1.89A6,6,0,0,0,135.61,469Zm-12.09,8.74c-2.24-.19-2.07-2-.85-3s5.36,0,5.36,0S125.75,478,123.52,477.75Zm11-2.75a12.67,12.67,0,0,1-3.39-.84s2.28-3.89,4.27-2.23S135.79,475,134.54,475Z"/><path class="cls-18" d="M128.2,435.61c-1.81-3.31-5.55-5.46-8.77-2.84a6.34,6.34,0,0,0-8.22,2.28c-1.88,2.72-1.32,6.81,1.51,6.76.23,3,2.52,6,5.56,6.36a11,11,0,0,0,6.57,3.55c.87-2.36,2.71-5.17,2.77-5.61C129.55,442.92,130.28,439.43,128.2,435.61Z"/><path class="cls-15" d="M128.18,439.48c-4.56-1.62-6,1.9-5.27,5.56.47,2.5,3.57,3,5.31,1.4S130.6,440.34,128.18,439.48Z"/><path class="cls-19" d="M132.87,448c-.23-.82.77-2.76.41-5.2a6,6,0,0,0-2.32-3.35c-1.58-1.16-3.56-1.59-4.72,1-4.6,3-2.69,7.22-.17,9.93s8.07,2.65,10.21-.56C134.3,449.4,133.35,449.71,132.87,448Z"/><path class="cls-14" d="M115.87,456a19.37,19.37,0,0,0-5-1.7c-2.43-1.85-4.91-4.86-7-7.12s-4.26-4.5-6.46-6.69c-.5-.5-1-1.1-1.58-1.71a9.75,9.75,0,0,1,0-2.46c.06-1.49.21-2.2-.48-1.81s-1,3.1-1,3.1c-2.15-.22-4-2-4.72-2.27-2-.91-3.44.18-2.78,2.71a6,6,0,0,0,2.75,3.29c1.39.81,3,.91,4.53,1.89,1.14.72,1.59,2.12,2.42,3.41,2.44,3.81,5.52,6.87,8.08,10.69a45.23,45.23,0,0,0,6.07,7,32.29,32.29,0,0,0,4.44,5c2.09,2,3.36-.09,4.19-2.65C120.56,462.81,119,457.78,115.87,456Z"/><path class="cls-16" d="M117.46,455.84c.38-.22.32-2.31,3.26-2.33a11.73,11.73,0,0,0,5.62-1.79l1.69,1.79s.26,2.33-3.18,3.21S117.46,455.84,117.46,455.84Z"/><path class="cls-20" d="M180.69,408.73s5.41-3.76,9.37,0c3.49,3.32,4.83,7.43,8.05,12.77,2.54,4.21,2.93,4.9,2.39,8-.37,2.1-1.39,3.22-3.68,6.4a76.09,76.09,0,0,1-6.74,6.91l-3.72-4,6.19-10.08a136.06,136.06,0,0,1-9.5-11.38A14.42,14.42,0,0,1,180.69,408.73Z"/><path class="cls-21" d="M191,409l2,3.26a16,16,0,0,1-3.93,5.47c-2,1.82-3.12,3.08-3.12,3.08l-1.76-2.1Z"/><path class="cls-20" d="M187.53,437.81c1.82-.1,3.16,1.58,3.16,3.87v5.24s1.27-1.31,2.34-1.31.78,1.31.78,1.31.3-.64,1.18,0-.59,1.31-2.35,2.54-4,2.12-5.92-.62-2.26-6.94-1.77-8.43S186.33,437.88,187.53,437.81Z"/><path class="cls-22" d="M184.26,459.1c8.22-8.71.39-17.91-3.56-20.73-2.09,2.58-14.54,7.68-14.61,8-1.5,6.4-.13,13.09,1.77,19.29,1.18,3.86,2.2,10.38,4.94,20.95-1.28,5.26.17,13.23.7,19.18.37,4.15,2,15,2.28,16-.75-.23-2-1.34-3.69-1.93a7.9,7.9,0,0,0-4.51-.22c-2.81,1.12-3.62,2.13-2.86,3.93,1.12,2.66,4.65,3.51,7.16,4,3.79.79,5.93,6.82,10,2.65,1-1.07.13-3.88-.23-5.36.07-1-.24-10.17.93-17.13,1.4-8.39,2.13-17.79-2.78-22.71C185.28,471,185.08,463.4,184.26,459.1Z"/><path class="cls-19" d="M181.65,524.36s-2.36.85-3.89,1.34a8.4,8.4,0,0,1-8-2c-1.09-1-1.87-2.38-1.49-3.13.72-1.42,3.79-.71,3.79-.71s-5.27-3.66-8.23-1.24c-1.37,1.12-1.7,3.36.59,5.75,1.37,1.42,5.4,3.95,8.86,5.81,2.27,1.21,5.94,3.62,8.45,1.19S181.65,524.36,181.65,524.36Z"/><path class="cls-14" d="M175.64,465.3c8.22-8.71.39-17.91-3.56-20.73-2.09,2.58-14.54,7.68-14.61,8-1.5,6.39-.13,13.09,1.77,19.29,1.18,3.86,2.2,10.38,4.94,20.95-1.28,5.26.17,13.23.7,19.18.37,4.15,2,15,2.28,16-.75-.23-2-1.34-3.69-1.93a7.87,7.87,0,0,0-4.5-.22c-2.82,1.11-3.62,2.13-2.87,3.93,1.12,2.66,4.66,3.51,7.17,4,3.78.79,5.92,6.82,10,2.65,1-1.07.13-3.88-.23-5.36.07-1-.24-10.17.93-17.13,1.4-8.39,2.13-17.8-2.78-22.71C176.66,477.19,176.46,469.59,175.64,465.3Z"/><path class="cls-19" d="M173,530.56s-2.37.85-3.89,1.34a8.41,8.41,0,0,1-8-2c-1.09-1.06-1.87-2.38-1.49-3.13.72-1.42,3.79-.71,3.79-.71s-5.27-3.66-8.23-1.24c-1.37,1.12-1.7,3.36.59,5.75,1.37,1.42,5.4,4,8.86,5.81,2.27,1.21,5.94,3.61,8.45,1.19S173,530.56,173,530.56Z"/><path class="cls-23" d="M185,400.81c-3.66-1.32-8.12.77-8.3,4.53-2,3.42,0,8.44,3.11,10.73,3.66,2.66,10.1-.32,11.32-4.44S189.27,402.34,185,400.81Z"/><path class="cls-14" d="M184.61,407a.9.9,0,0,0-.63-.62c-4.32-1.19-5.33-3.53-6.08-7.44a.89.89,0,0,0-1.29-.53,27.43,27.43,0,0,1-7.24,3.15c2.42,7.24-2,8.78-3.87,11.65-.48.73,4.52,4.37,7.19,4a16.46,16.46,0,0,0,6.59-2.32C181.46,413.49,185.24,410,184.61,407Z"/><path class="cls-14" d="M178.47,390.42c-.41-3.72-3.46-8.68-7.63-8.37s-7.15,6.64-7.48,9.58c-.57,5-.13,14.42,7.76,11.39C177.27,400.67,179.07,396,178.47,390.42Z"/><path class="cls-14" d="M169,393.13s3.15-2.16,3.65.92a3.81,3.81,0,0,1-2.5,4.13Z"/><path class="cls-24" d="M187,421.84c2.73-8.46,1.06-14.08-1.35-16.84-1-1.14-3.35-3.48-5.93-1.16.84,3.85-5.81,5.08-10.63,5.08-3.64,2.72-6.92,4.63-9,8.31-2.21,3.9-3.26,7.86,1.44,10.7-1.44,4.28.83,8.71-.42,19.64,4.39,3.49,12.86,3.46,17.53.62,3.66-2.22,5.6-4.69,5.42-7.36-1.21-2.6-3-3.21-2.85-6.44C181.39,430.31,185.77,425.71,187,421.84Z"/><path class="cls-20" d="M157.48,424.55s-1.95,5.56-2.64,7.4c-.79,2.11-1.29,4.14-2.3,6.51-1.89,1-9,7.52-14.2,11.06-.37.2-.71.37-1,.51a33.94,33.94,0,0,1-3.17-2.1c-.58-.56-1-1.52-1.36-1.19s-.64.83,0,2.12a10.06,10.06,0,0,0,1.42,1.95c-2.87.45-4.87.16-6.94,1.46-2.64,1.65-1.13,5.24,2.37,5.83,2.39.4,5.58-1.2,8.1-2.5,2.93-1.35,8.55-3.68,11.71-5.18a49.91,49.91,0,0,0,6.17-3.48,13.39,13.39,0,0,0,3.17-3.22c3.87-4.68,9.68-17.9,9.68-17.9Z"/><path class="cls-23" d="M164.63,411.94c-5.9-.2-10.34,8-8.28,14.66.43,3.49,7.38,6.16,9.75,5.45,4.36-2,7.1-4.45,8-10C175,416.66,169.86,412.11,164.63,411.94Z"/><path class="cls-21" d="M156.35,426.6l-.44,2.41s.09,1.86,3.26,3.42a9.76,9.76,0,0,0,5.67,1.08l1.26-1.46a24.53,24.53,0,0,1-5.88-1.71A9.45,9.45,0,0,1,156.35,426.6Z"/><path class="cls-19" d="M186.89,399.42,186,399c.8-.87,1.46-2,.73-2.94a6.26,6.26,0,0,0-2.15-1.34c-.34-.18-.69-.36-1-.52,1.05-.38,1.83-1,1.48-2.25-.19-.65-.93-.94-1.32-1.43a6.4,6.4,0,0,1-1.15-2.63,43.58,43.58,0,0,0-1-4.67c-.95-2.56-3.59-3.56-6.24-4.15a45.63,45.63,0,0,0-8.92-1c-3.11,0-3.67-1.66-5.4-.56-1.13.73-.86,2.08-.2,3.45-.67,0-2.5,0-2.5,2.11,0,1.56,1.37,2.66,2.7,3.38-2,1.55-1.85,3.51-.43,5.39,1.32,1.73,5.31,3.33,7.89,2.21,0,4.24-1.29,7-2.65,8.41-1,1-3.39,2.35-2.33,4.13s3.75,1.06,5.2.56a6.8,6.8,0,0,0,1-.43,9.29,9.29,0,0,1-1.28,1.8.77.77,0,0,0,.33,1.27c2.48.8,5.1-.16,7.19-1.95a15,15,0,0,0-.6,2.66c-.21,2.08,1.13,3.23,3.13,2.37,3-1.31,4.33-5.23,4.13-8.92a8.47,8.47,0,0,0,.88-.07c1.29-.2,3.56-.78,4.27-2.05A1.7,1.7,0,0,0,186.89,399.42Z"/><path class="cls-24" d="M160.4,443.51c-2.09,2.72-4.26,6.45-8.28,12.85-3,4.78-9,18.86-9,18.86s-1.49,5.22,2.94,7.76,4.71,3.17,6.38,7.44c1.49,3.8,7.08,5.11,10.84,1.55,4.88-4.61,10.81,4,17.27,2.08,3.7-1.11,6.31-7.59,7.9-8.44,4.48-2.4,6.18,1.73,10.69-2a36.54,36.54,0,0,0,7.27-8.4s-12.72-26.65-18-31.24-7.9-7.41-7.9-7.41S164.3,438.45,160.4,443.51Z"/><path class="cls-21" d="M163.68,453.41c-6.11,7.85-8.12,19.8-9.72,29.35a.58.58,0,0,0,1.12.31c3.52-9.55,6.17-19.68,8.91-29.48C164,453.43,163.8,453.26,163.68,453.41Z"/><path class="cls-21" d="M166.37,460.49c0-.16-.24-.2-.27,0-1.82,8.09-3.48,16.81-3.59,25.11a.55.55,0,0,0,1.08.15C165.92,477.76,166.5,468.73,166.37,460.49Z"/><path class="cls-21" d="M177.73,456.44c-.08-.18-.36-.12-.31.08,2.42,8.74,2.64,17.77,4.72,26.49.18.77,1.2.51,1.28-.17C184.42,474.11,181,464.37,177.73,456.44Z"/><path class="cls-21" d="M187.5,455.7c-.26-.23-.74.07-.51.39a41.62,41.62,0,0,1,5.28,8.9c1.19,3,1.56,6.05,2.42,9.1a.81.81,0,0,0,1.58-.21C196.6,467.28,192.37,459.89,187.5,455.7Z"/><path class="cls-21" d="M161.5,439.29l-1.1,4.22s7.14,5.07,14.93,2.79c7.95-2.32,9.35-5.74,9.35-5.74l-3.05-3.67A18.84,18.84,0,0,1,161.5,439.29Z"/></svg>