<svg id="レイヤー_1" data-name="レイヤー 1" xmlns="http://www.w3.org/2000/svg" viewBox="0 0 1440 1080"><defs><style>.cls-1{fill:#fff;}</style></defs><path class="cls-1" d="M394.48,569.45c-1.27,3.31-2.4,6.2-3.67,9.87-.63,1.69-1,2-2.82,2H386.3c-1.83,0-2.18-.28-2.75-2-1.13-3.67-2.11-6.56-3.24-9.94l-8.53-25c-1.2-3.38-2.33-6.63-3.95-11a3.14,3.14,0,0,1-.28-1.19c0-.64.49-.78,1.62-.78h5.43c1.83,0,2.19.28,2.68,2,1.13,4.09,2,7.05,3.1,10.37l6.7,21c.21.64.42.92.7.92s.5-.28.71-.84l8-20.73c1.34-3.53,2.47-6.56,3.88-10.79.63-1.69,1-2,2.82-2h1.13c1.83,0,2.18.28,2.75,2,1.41,4.16,2.61,7.27,3.88,10.72l7.75,20.65c.21.57.42.85.7.85s.5-.28.71-.92l6.84-20.93c1-3.32,2-6.28,3.17-10.37.49-1.76.85-2,2.68-2h4.93c1.13,0,1.62.14,1.62.78a3.14,3.14,0,0,1-.28,1.19c-1.69,4.37-2.75,7.55-3.95,10.93l-8.6,25.1c-1.12,3.31-2.11,6.27-3.24,9.87-.56,1.76-.91,2-2.75,2h-1.76c-1.83,0-2.19-.28-2.82-2-1.27-3.74-2.4-6.7-3.6-9.87l-8.1-21.29c-.21-.57-.5-.92-.78-.92s-.49.28-.77.92Z"/><path class="cls-1" d="M469.28,576.29a3.15,3.15,0,0,1,.42,1.33c0,.64-.42,1-1.41,1.49a26.33,26.33,0,0,1-11.56,2.6c-12.55,0-17.76-8.24-17.76-17.76,0-10.93,6.91-19.25,17.83-19.25,9,0,14.24,6.21,14.24,17.06,0,3.6-.56,4.16-2.39,4.16H448.7c-1.27,0-1.77.21-1.77,1.06a9.22,9.22,0,0,0,1.48,3.95c1.63,2.54,4.44,4,9,4a16.91,16.91,0,0,0,7.89-1.91,3.82,3.82,0,0,1,1.41-.56c.57,0,.85.49,1.34,1.48Zm-5.85-17.84a7.88,7.88,0,0,0-1-3.31,6.17,6.17,0,0,0-5.92-3.39,9,9,0,0,0-7.75,4,6.69,6.69,0,0,0-1.27,2.89c0,.57.49.78,1.62.78H461.6C462.87,559.37,463.36,559.16,463.43,558.45Z"/><path class="cls-1" d="M491.84,581.43c-.7.07-1.41.07-2.11.07-8.18,0-10.93-3.31-10.93-11.63V540.54c0-2.89-.14-9-.14-9.51,0-1.48.42-1.77,2-1.77h4.09c1.62,0,2,.29,2,1.77,0,.49-.14,6.34-.14,9.51v28.63c0,3.59.78,5.28,4.38,5.35.56,0,1.4-.14,1.76-.14.7,0,1,.35,1,1.34v3.6C493.81,580.94,493.46,581.29,491.84,581.43Z"/><path class="cls-1" d="M525.19,578.47c0,.64-.5,1-1.48,1.48a22.53,22.53,0,0,1-8.82,1.76c-12.12,0-17.13-8.39-17.13-17.13,0-11.28,6.84-19.81,19.39-19.81a20.69,20.69,0,0,1,7.05,1.2c1.06.35,1.48.71,1.55,1.41a3.79,3.79,0,0,1-.28,1.27l-1.27,3.46c-.42,1.12-.64,1.55-1.2,1.55a3.67,3.67,0,0,1-1.41-.43,11.67,11.67,0,0,0-4.23-.84c-6.84,0-11.42,5-11.42,12,0,5.36,3.24,10.29,10.08,10.29a12.67,12.67,0,0,0,5.22-1.12,3.62,3.62,0,0,1,1.41-.43c.56,0,.77.43,1.2,1.55l1,2.47A4.34,4.34,0,0,1,525.19,578.47Z"/><path class="cls-1" d="M566.92,562.47c0,11.84-7.54,19.24-18.68,19.24-10,0-17.41-6.83-17.41-17.62,0-11.35,7-19.39,18.68-19.39C559.45,544.7,566.92,551.68,566.92,562.47ZM539,564.16c0,6.49,4,10.72,9.44,10.72,6.07,0,10.3-4.73,10.3-11.78,0-6.62-4.09-10.78-9.59-10.78C542.53,552.32,539,557.39,539,564.16Z"/><path class="cls-1" d="M583.28,570c0,3.17.14,9,.14,9.52,0,1.48-.42,1.76-2,1.76h-4.09c-1.62,0-2-.28-2-1.76,0-.49.14-6.35.14-9.52v-13.6c0-3.18-.14-9-.14-9.52,0-1.48.42-1.76,2-1.76h3.45c1.63,0,1.91.28,2,1.9.07.92.21,1.34.56,1.34a2.16,2.16,0,0,0,1.06-.49,15.16,15.16,0,0,1,9.37-3.18,11.17,11.17,0,0,1,8.46,3.39c.64.7,1,1,1.41,1s.71-.28,1.41-.84a17.37,17.37,0,0,1,10.58-3.6c7,0,11.63,4.8,11.63,12.62V570c0,3.17.14,9,.14,9.52,0,1.48-.42,1.76-2,1.76h-4.09c-1.62,0-2.05-.28-2.05-1.76,0-.49.14-6.35.14-9.52v-10.5c0-4.3-2-7.19-6.41-7.19a10.05,10.05,0,0,0-6.2,2.25,2.66,2.66,0,0,0-1.34,2.75V570c0,3.17.14,9,.14,9.52,0,1.48-.43,1.76-2,1.76h-4.09c-1.62,0-2-.28-2-1.76,0-.49.14-6.35.14-9.52v-10.5c0-4.3-2-7.19-6.41-7.19a10.26,10.26,0,0,0-6.21,2.18,3.38,3.38,0,0,0-1.55,3.17Z"/><path class="cls-1" d="M665.48,576.29a3,3,0,0,1,.43,1.33c0,.64-.43,1-1.41,1.49a26.4,26.4,0,0,1-11.56,2.6c-12.55,0-17.77-8.24-17.77-17.76,0-10.93,6.91-19.25,17.84-19.25,9,0,14.24,6.21,14.24,17.06,0,3.6-.57,4.16-2.4,4.16h-20c-1.27,0-1.76.21-1.76,1.06a9.09,9.09,0,0,0,1.48,3.95c1.62,2.54,4.44,4,9,4a17,17,0,0,0,7.9-1.91,3.7,3.7,0,0,1,1.41-.56c.56,0,.84.49,1.34,1.48Zm-5.85-17.84a8,8,0,0,0-1-3.31,6.18,6.18,0,0,0-5.93-3.39,9,9,0,0,0-7.75,4,6.69,6.69,0,0,0-1.27,2.89c0,.57.49.78,1.62.78H657.8C659.07,559.37,659.56,559.16,659.63,558.45Z"/><path class="cls-1" d="M390.11,677.4c0,1.76-.35,2.19-2.05,2.47a34.53,34.53,0,0,1-3.87.28c-8.6,0-11.56-4.23-11.56-11.35V652.59c0-1.41-.22-1.77-1.41-1.77-.85,0-2.05.07-2.4.07-1.83,0-2.12-.28-2.12-2.11v-2.89c0-1.83.29-2.11,2.12-2.11.56,0,1.69.07,2.47.07,1.19,0,1.34-.22,1.34-1.7,0-2.18-.15-6.2-.15-6.69,0-1.48.43-1.77,2-1.77h3.88c1.62,0,2,.29,2,1.77,0,.49-.14,4.23-.14,6.69,0,1.48.21,1.7,1.62,1.7h1.9c1.27,0,3.46-.07,4.16-.07,1.84,0,2.12.28,2.12,2v3c0,1.76-.28,2-2.12,2-.63,0-2.89-.07-4.16-.07h-1.41c-1.76,0-2.11.36-2.11,2.12v14.73c0,4,1.69,5.36,5.36,5.36,1.34,0,3-.42,3.45-.42.85,0,1,.49,1,1.83Z"/><path class="cls-1" d="M431.56,661.05c0,11.84-7.54,19.24-18.68,19.24-10,0-17.41-6.84-17.41-17.62,0-11.35,7-19.39,18.68-19.39C424.09,643.28,431.56,650.26,431.56,661.05Zm-27.91,1.69c0,6.48,3.94,10.71,9.44,10.71,6.06,0,10.29-4.72,10.29-11.77,0-6.63-4.08-10.79-9.58-10.79C407.17,650.89,403.65,656,403.65,662.74Z"/><path class="cls-1" d="M463.85,665.77c0,4.09.21,11.84.21,12.34,0,1.48-.42,1.76-2,1.76h-4.37c-1.62,0-2-.28-2-1.76,0-.5.22-8.25.22-12.34V643.92c0-3.46-.07-7.9-.14-11.85,0-1.69.42-2.25,2-2.25.49,0,6.06.14,9.38.14h6.2c9.09,0,15.79,3.52,15.79,13.74a15.45,15.45,0,0,1-8.53,14.39c-.85.49-1.27.84-1.27,1.26a2.5,2.5,0,0,0,.71,1.41l2.25,3.11c3.39,4.51,6.21,8.24,10.86,14.17a2.33,2.33,0,0,1,.56,1.12c0,.5-.63.71-1.69.71h-5.85c-1.76,0-2.26-.28-3.24-1.76-3-4.52-5.64-8.18-8.25-11.71l-2.82-3.94a3.33,3.33,0,0,0-3.39-1.7H466c-1.76,0-2.12.36-2.12,2.12Zm0-14c0,1.76.36,2.12,2.12,2.12h4.72c5.29,0,10-2.26,10-9.17,0-6.13-3.81-7.47-8.18-7.47H466c-1.76,0-2.12.35-2.12,2.11Z"/><path class="cls-1" d="M539.57,663.3c0,10.86-8.67,17.41-21.15,17.41s-19.67-6.62-19.67-17.27V644.06c0-4.09-.21-11.85-.21-12.34,0-1.48.42-1.76,2-1.76h4.51c1.62,0,2,.28,2,1.76,0,.49-.21,8.25-.21,12.34v18c0,6.84,4.44,11,11.84,11s12.62-4.09,12.62-11.07v-17.9c0-4.09-.21-11.85-.21-12.34,0-1.48.42-1.76,2-1.76h4.52c1.62,0,2,.28,2,1.76,0,.49-.21,8.25-.21,12.34Z"/><path class="cls-1" d="M558.39,665.77c0,4.09.22,11.84.22,12.34,0,1.48-.43,1.76-2.05,1.76h-4.37c-1.62,0-2-.28-2-1.76,0-.5.21-8.25.21-12.34V643.92c0-3.46-.07-7.9-.14-11.85,0-1.69.42-2.25,2-2.25.49,0,6.06.14,9.38.14h6.2c9.09,0,15.79,3.52,15.79,13.74A15.45,15.45,0,0,1,575,658.09c-.84.49-1.27.84-1.27,1.26a2.5,2.5,0,0,0,.71,1.41l2.25,3.11c3.39,4.51,6.21,8.24,10.86,14.17a2.33,2.33,0,0,1,.56,1.12c0,.5-.63.71-1.69.71H580.6c-1.76,0-2.26-.28-3.24-1.76-3-4.52-5.64-8.18-8.25-11.71l-2.82-3.94a3.33,3.33,0,0,0-3.38-1.7h-2.4c-1.76,0-2.12.36-2.12,2.12Zm0-14c0,1.76.36,2.12,2.12,2.12h4.72c5.29,0,10-2.26,10-9.17,0-6.13-3.8-7.47-8.17-7.47h-6.56c-1.76,0-2.12.35-2.12,2.11Z"/><path class="cls-1" d="M607.32,668.1c-1.83,0-2.32.14-3,1.69-1,2.32-1.9,4.72-3.1,8.1-.63,1.7-1,2-2.82,2h-4.93c-1.13,0-1.63-.14-1.63-.71a3.15,3.15,0,0,1,.43-1.2c2.18-4.93,3.73-8.45,5.21-11.91l10.08-23.9c1.27-3,2.75-6.41,4.23-10.22.64-1.69,1-2,2.82-2h3c1.83,0,2.18.28,2.81,2,1.49,3.81,2.9,7.19,4.17,10.15l10.15,23.83c1.55,3.67,3.1,7.19,5.28,12.05a3.15,3.15,0,0,1,.43,1.2c0,.57-.5.71-1.63.71h-5.42c-1.84,0-2.19-.28-2.82-2-1.2-3.38-2.12-5.78-3.11-8.1-.63-1.55-1-1.69-3-1.69Zm1.27-8.75a3.22,3.22,0,0,0-.28,1.2c0,.64.49.78,1.62.78H622c1.12,0,1.62-.14,1.62-.78a3.22,3.22,0,0,0-.28-1.2l-6.56-16.14c-.28-.7-.49-1.13-.78-1.13s-.49.36-.77,1.13Z"/><path class="cls-1" d="M673.66,674.93a5.14,5.14,0,0,1-5.35,5.36,4.5,4.5,0,0,1-4.8-4.58c0-3,1.91-5.57,5.29-5.57A4.72,4.72,0,0,1,673.66,674.93Zm-6.2-10.08c-1.76,0-2.12-.35-2.19-2.11l-.49-17.41c-.14-4.66-.49-12.48-.49-13.89,0-1.2.42-1.48,2-1.48h4.58c1.55,0,2,.28,2,1.48,0,1.41-.36,9.23-.5,14.38l-.42,16.92c-.07,1.76-.42,2.11-2.19,2.11Z"/></svg>