<svg id="レイヤー_1" data-name="レイヤー 1" xmlns="http://www.w3.org/2000/svg" viewBox="0 0 283.46 283.46"><defs><style>.cls-1{fill:#1e95d4;}.cls-2{fill:#fff;}</style></defs><path class="cls-1" d="M235.8,4.26,165,45.59a16,16,0,0,0-7.19,12.48V74.69c-.5,5.81-2.67,11.83-6.22,15.9,4.34.42,9.92-4.29,14.92-10.66L235.8,39.49A16,16,0,0,0,243,27V8.45C243,3.87,239.75,2,235.8,4.26Z"/><path class="cls-2" d="M172.19,61.12c-.28.89-.53,1.67-.81,2.63a1,1,0,0,1-.62.79l-.37.22c-.4.23-.48.21-.6-.1-.25-.66-.47-1.17-.71-1.77l-1.88-4.4c-.26-.59-.51-1.16-.86-1.91a.44.44,0,0,1-.06-.23c0-.14.1-.23.35-.37l1.19-.69c.41-.23.48-.22.59.11.25.75.45,1.28.68,1.88L170.56,61c.05.11.1.15.16.11a.61.61,0,0,0,.15-.27l1.75-5.56c.29-1,.54-1.75.85-2.86a1.05,1.05,0,0,1,.62-.79l.25-.14c.4-.24.48-.22.6.1.31.73.57,1.26.85,1.86l1.7,3.55c0,.09.1.13.16.09s.11-.12.15-.29l1.51-5.46c.23-.86.43-1.63.69-2.68a.94.94,0,0,1,.59-.78l1.08-.63c.25-.14.36-.17.36,0a1.27,1.27,0,0,1-.06.3c-.37,1.17-.61,2-.87,2.89l-1.89,6.6c-.25.87-.46,1.65-.71,2.58a1,1,0,0,1-.6.79l-.39.23c-.4.23-.48.21-.62-.08-.28-.66-.52-1.16-.79-1.71l-1.78-3.64c0-.1-.11-.14-.17-.11a.59.59,0,0,0-.17.3Z"/><path class="cls-2" d="M189.09,52.87a.4.4,0,0,1,.09.24c0,.14-.09.27-.31.5a11.44,11.44,0,0,1-2.54,2c-2.75,1.59-3.9.44-3.9-1.65a7.88,7.88,0,0,1,3.92-6.48c2-1.15,3.12-.45,3.12,1.94,0,.79-.12,1-.52,1.21l-4.38,2.53c-.28.16-.39.27-.39.46a1.1,1.1,0,0,0,.33.67c.35.36,1,.32,2-.26a7.53,7.53,0,0,0,1.73-1.41,2.14,2.14,0,0,1,.31-.31c.12-.07.18,0,.29.16Zm-1.29-3.18a1,1,0,0,0-.22-.6c-.24-.34-.68-.35-1.3,0a4.33,4.33,0,0,0-1.7,1.85,2.51,2.51,0,0,0-.28.79c0,.13.11.11.36,0l2.74-1.58C187.68,50,187.79,49.86,187.8,49.69Z"/><path class="cls-2" d="M194.06,51.12c-.15.11-.31.2-.46.29-1.8,1-2.4.65-2.4-1.17V43.8c0-.63,0-2,0-2.07,0-.32.09-.44.45-.64l.9-.52c.35-.21.44-.2.44.12,0,.11,0,1.41,0,2.11v6.28c0,.79.17,1.07,1,.62.13-.07.31-.2.39-.25s.22-.05.22.17v.79C194.5,50.76,194.42,50.89,194.06,51.12Z"/><path class="cls-2" d="M201.53,46.16c0,.14-.11.28-.33.52a9.46,9.46,0,0,1-1.93,1.5c-2.66,1.54-3.76.33-3.76-1.59a8.14,8.14,0,0,1,4.25-6.8,5,5,0,0,1,1.55-.63c.23-.06.33,0,.34.11a1,1,0,0,1-.06.31l-.28.92c-.09.3-.14.42-.26.49a.76.76,0,0,1-.31.09,2.76,2.76,0,0,0-.93.35,5,5,0,0,0-2.51,4.08c0,1.17.71,1.85,2.22,1a5.25,5.25,0,0,0,1.14-.91,1.51,1.51,0,0,1,.31-.27c.12-.07.17,0,.26.19l.22.41A.59.59,0,0,1,201.53,46.16Z"/><path class="cls-2" d="M210.6,37.41a8,8,0,0,1-4.1,6.6c-2.2,1.26-3.83.7-3.83-1.67a8,8,0,0,1,4.11-6.62C209,34.46,210.6,35.05,210.6,37.41Zm-6.13,3.91c0,1.43.87,1.85,2.07,1.16a4.66,4.66,0,0,0,2.26-3.89c0-1.45-.89-1.85-2.1-1.15A4.51,4.51,0,0,0,204.47,41.32Z"/><path class="cls-2" d="M214.14,37c0,.69,0,2,0,2.07,0,.32-.1.44-.45.64l-.9.52c-.36.21-.45.2-.45-.13,0-.1,0-1.41,0-2.1V35c0-.69,0-2,0-2.07,0-.32.09-.44.45-.65l.76-.43c.35-.21.42-.18.43.17,0,.19.05.26.13.22a1.18,1.18,0,0,0,.23-.25,7,7,0,0,1,2.06-1.88,2,2,0,0,1,1.85-.33c.14.08.22.11.31.05s.16-.15.31-.36a8,8,0,0,1,2.32-2.13c1.53-.88,2.56-.42,2.56,1.3v2.78c0,.7,0,2,0,2.07,0,.33-.1.44-.45.65l-.9.52c-.36.2-.45.19-.45-.13,0-.11,0-1.41,0-2.11v-2.3c0-.95-.45-1.32-1.41-.77a4.79,4.79,0,0,0-1.36,1.28,1.06,1.06,0,0,0-.29.78v2.78c0,.7,0,2,0,2.07,0,.33-.09.44-.45.65l-.9.52c-.35.2-.45.19-.45-.13,0-.11,0-1.41,0-2.11v-2.3c0-.95-.45-1.32-1.41-.77a4.64,4.64,0,0,0-1.36,1.27,1.29,1.29,0,0,0-.34.89Z"/><path class="cls-2" d="M232.17,28a.45.45,0,0,1,.09.24c0,.14-.09.27-.31.51a11.18,11.18,0,0,1-2.54,2c-2.75,1.59-3.9.45-3.9-1.64a7.91,7.91,0,0,1,3.92-6.49c2-1.14,3.12-.44,3.12,1.94,0,.79-.12,1-.52,1.22l-4.38,2.53c-.28.16-.39.27-.39.45a1.1,1.1,0,0,0,.33.68c.35.35,1,.32,2-.26a7.37,7.37,0,0,0,1.73-1.42,1.91,1.91,0,0,1,.31-.3c.13-.07.19,0,.3.16Zm-1.29-3.17a1.09,1.09,0,0,0-.21-.6c-.25-.34-.68-.35-1.3,0a4.25,4.25,0,0,0-1.7,1.84,2.64,2.64,0,0,0-.28.8c0,.12.1.11.35,0l2.74-1.58C230.76,25.09,230.87,25,230.88,24.82Z"/><path class="cls-2" d="M236.58,25.46a2.3,2.3,0,0,1-1.17,1.85c-.61.35-1.06.21-1.06-.39a2.31,2.31,0,0,1,1.17-1.9C236.12,24.68,236.58,24.86,236.58,25.46ZM235.22,24c-.39.23-.46.19-.48-.18l-.11-3.76c0-1-.11-2.68-.11-3s.1-.38.44-.57l1-.58c.34-.2.44-.19.44.07s-.08,2.07-.11,3.22L236.2,23c0,.39-.1.51-.48.74Z"/></svg>