<svg id="レイヤー_1" data-name="レイヤー 1" xmlns="http://www.w3.org/2000/svg" viewBox="0 0 566.93 396.85"><defs><style>.cls-1{fill:#fff;}.cls-2{fill:#009fe8;}</style></defs><path class="cls-1" d="M529.68,32.59,477.51,62.71c-4.9,2.83-8.91,9.79-8.91,15.48V98.8c-.62,7.21-3.32,14.67-7.72,19.71,5.38.52,12.3-5.32,18.51-13.21l50.29-29c4.89-2.83,8.9-9.8,8.9-15.48v-23C538.58,32.1,534.57,29.76,529.68,32.59Z"/><path class="cls-2" d="M480.55,85.69c0,1.16.06,3.34.06,3.48,0,.42-.12.57-.58.84l-1.29.74c-.46.27-.58.26-.58-.16,0-.14.06-2.39.06-3.56V80.84c0-1.17-.06-3.34-.06-3.48,0-.43.12-.58.58-.84l1.29-.75c.46-.26.58-.25.58.17,0,.14-.06,2.39-.06,3.55v1c0,.5.1.54.61.25L487,77.35c.5-.29.6-.44.6-.95v-1c0-1.17-.06-3.35-.06-3.49,0-.42.12-.57.59-.84l1.28-.74c.47-.27.59-.26.59.17,0,.14-.06,2.38-.06,3.55v6.19c0,1.17.06,3.35.06,3.49,0,.42-.12.57-.59.84l-1.28.74c-.47.27-.59.26-.59-.16,0-.15.06-2.39.06-3.56V79.76c0-.5-.1-.54-.6-.25l-5.85,3.37c-.51.3-.61.45-.61,1Z"/><path class="cls-2" d="M501.09,76.42a.55.55,0,0,1,.12.31c0,.19-.12.36-.4.66a14.72,14.72,0,0,1-3.3,2.65c-3.58,2.07-5.07.57-5.07-2.14a10.28,10.28,0,0,1,5.09-8.43c2.58-1.49,4.07-.58,4.07,2.52,0,1-.17,1.28-.69,1.58l-5.69,3.29c-.36.21-.5.35-.5.59a1.43,1.43,0,0,0,.42.88c.46.46,1.27.42,2.57-.34A9.5,9.5,0,0,0,500,76.15a2.37,2.37,0,0,1,.4-.4c.16-.09.24,0,.38.21Zm-1.67-4.12a1.37,1.37,0,0,0-.28-.78c-.32-.44-.88-.46-1.69,0a5.56,5.56,0,0,0-2.21,2.4,3.43,3.43,0,0,0-.36,1c0,.16.14.14.46,0l3.56-2.06C499.26,72.65,499.4,72.51,499.42,72.3Z"/><path class="cls-2" d="M507.53,74.17a6.49,6.49,0,0,1-.6.37c-2.34,1.35-3.12.86-3.12-1.52V64.66c0-.83,0-2.55,0-2.69,0-.43.12-.58.58-.84l1.17-.68c.46-.26.58-.25.58.17,0,.14,0,1.83,0,2.74v8.16c0,1,.22,1.38,1.25.81.16-.09.4-.27.5-.33s.28-.06.28.22v1C508.09,73.71,508,73.87,507.53,74.17Z"/><path class="cls-2" d="M513.6,70.67c-.2.14-.4.25-.6.37-2.34,1.35-3.12.85-3.12-1.52V61.15c0-.82,0-2.55,0-2.69,0-.42.12-.57.58-.84l1.17-.67c.46-.27.58-.26.58.17,0,.14,0,1.83,0,2.73V68c0,1,.22,1.38,1.25.81l.5-.33c.2-.12.28-.06.28.22v1C514.16,70.21,514.06,70.36,513.6,70.67Z"/><path class="cls-2" d="M525.7,58.27a10.3,10.3,0,0,1-5.33,8.57c-2.85,1.65-5,.92-5-2.16a10.33,10.33,0,0,1,5.33-8.61C523.57,54.44,525.7,55.2,525.7,58.27Zm-8,5.08c0,1.86,1.12,2.41,2.69,1.51a6.07,6.07,0,0,0,2.94-5.06c0-1.89-1.17-2.4-2.74-1.5A5.87,5.87,0,0,0,517.74,63.35Z"/><path class="cls-2" d="M530.85,59.26a3,3,0,0,1-1.53,2.41c-.79.46-1.37.27-1.37-.51a3,3,0,0,1,1.51-2.46C530.24,58.25,530.85,58.48,530.85,59.26Zm-1.77-1.85c-.5.29-.61.25-.63-.24l-.14-4.89c0-1.3-.14-3.48-.14-3.88s.12-.49.57-.75l1.3-.75c.45-.26.57-.25.57.09s-.1,2.7-.14,4.19l-.13,4.9c0,.51-.12.67-.62,1Z"/></svg>