<svg id="レイヤー_1" data-name="レイヤー 1" xmlns="http://www.w3.org/2000/svg" viewBox="0 0 283.46 283.46"><defs><style>.cls-1{fill:#513939;}.cls-2{fill:#664746;}.cls-3{fill:#352121;}.cls-4{fill:#d7b2b1;}.cls-5{fill:#e9e8e8;}.cls-6{fill:#54b5bb;}.cls-7{fill:#ecd1d1;}.cls-8{fill:#c74948;}.cls-9{fill:#f2d889;}.cls-10{fill:#39a0a3;}.cls-11{fill:#f7c1b0;}.cls-12{fill:#eca581;}.cls-13{fill:#f1989e;}.cls-14{fill:#e8dbd2;}.cls-15{fill:#f4eae3;}.cls-16{fill:#b29157;}.cls-17{fill:#0a3976;}.cls-18{fill:#fff;}</style></defs><rect class="cls-1" x="67.42" y="94.37" width="3.85" height="151.02"/><path class="cls-2" d="M69.2,93.37c-1,0-1.78.44-1.78,1s.8,1,1.78,1,1.78-.45,1.78-1S70.18,93.37,69.2,93.37Z"/><polygon class="cls-3" points="119.75 194.03 105.1 194.57 105.1 199.66 163.66 233.47 163.66 228.38 148.03 210.36 119.75 194.03"/><polygon class="cls-3" points="116.72 195.79 102.07 196.33 102.07 201.42 160.63 235.23 160.63 230.14 145.01 212.12 116.72 195.79"/><polygon class="cls-1" points="160.63 235.23 163.66 233.48 163.66 228.39 160.63 230.14 160.63 235.23"/><polygon class="cls-2" points="145.01 212.12 160.63 230.14 163.66 228.39 148.03 210.36 145.01 212.12"/><polygon class="cls-1" points="116.72 195.79 145.01 212.12 148.03 210.36 119.75 194.03 116.72 195.79"/><polygon class="cls-2" points="102.07 196.33 116.72 195.79 119.75 194.03 105.1 194.57 102.07 196.33"/><polygon class="cls-4" points="69.42 250.12 73.23 252.38 127.83 216.4 127.83 56.21 69.42 89.94 69.42 250.12"/><polygon class="cls-5" points="73.23 252.38 131.64 218.66 131.64 58.47 73.23 92.2 73.23 252.38"/><polygon class="cls-1" points="76.19 198.21 126.96 168.89 126.96 78.5 76.19 107.82 76.19 198.21"/><polygon class="cls-6" points="76.19 101.59 126.42 72.46 126.42 67.58 76.19 96.7 76.19 101.59"/><polygon class="cls-6" points="76.19 208.21 126.42 179.08 126.42 174.19 76.19 203.32 76.19 208.21"/><polygon class="cls-6" points="76.19 218.36 126.42 189.23 126.42 184.35 76.19 213.47 76.19 218.36"/><polygon class="cls-1" points="73.23 252.38 131.64 218.66 131.64 212.43 73.23 246.15 73.23 252.38"/><polygon class="cls-3" points="69.33 250.13 73.23 252.38 73.23 246.15 69.33 243.9 69.33 250.13"/><polygon class="cls-7" points="69.42 89.94 73.23 92.2 131.64 58.47 127.83 56.21 69.42 89.94"/><polygon class="cls-3" points="58.16 229.05 43.51 229.6 43.51 234.68 102.07 268.49 102.07 263.41 86.45 245.38 58.16 229.05"/><polygon class="cls-3" points="55.13 230.81 40.48 231.36 40.48 236.44 99.05 270.25 99.05 265.17 83.42 247.14 55.13 230.81"/><polygon class="cls-1" points="99.05 270.25 102.07 268.51 102.07 263.42 99.05 265.17 99.05 270.25"/><polygon class="cls-2" points="83.42 247.14 99.05 265.17 102.07 263.42 86.45 245.38 83.42 247.14"/><polygon class="cls-1" points="55.13 230.81 83.42 247.14 86.45 245.38 58.16 229.05 55.13 230.81"/><polygon class="cls-2" points="40.48 231.36 55.13 230.81 58.16 229.05 43.51 229.6 40.48 231.36"/><path class="cls-8" d="M117.21,154.48c-2.28,1.67-5.24,1.43-7.89,1.66a16.51,16.51,0,0,0-11.4,5.78,63.42,63.42,0,0,1,1,8.81,45.78,45.78,0,0,1,25.18-7.56V145.6a15.21,15.21,0,0,0-1.19,1C120.54,148.88,119.87,152.54,117.21,154.48Z"/><path class="cls-8" d="M79.73,135.06a10.42,10.42,0,0,1,4,1.93,19.24,19.24,0,0,1,3.43-10.1c4.25-5.84,12.36-4.59,15.84-10.74,2.91-5.15,4.79-9.71,9.67-13.43a27.48,27.48,0,0,1,11.51-5.13V84.31L79.79,110.07Z"/><path class="cls-9" d="M108.16,131.08c-2.58,3.32-6.57,2.84-10,4.8-3.88,2.24-5.56,6.18-6.55,10.35.81,1.27,1.52,2.5,2.12,3.63a18.7,18.7,0,0,1,12.72-9.48c4.26-.93,7.29-2.1,9.23-6a25.66,25.66,0,0,1,3.88-6,20.76,20.76,0,0,1,4.57-3.72V112.49a21.68,21.68,0,0,0-9.1,5.78C111.52,122,111.17,127.18,108.16,131.08Z"/><path class="cls-6" d="M93.73,162.89,94,163c-.06-.06-.14-.11-.19-.17Z"/><path class="cls-6" d="M115.7,134.41c-1.94,3.87-5,5-9.23,6a18.7,18.7,0,0,0-12.72,9.48,39.17,39.17,0,0,1,1.74,3.64c.19.49.33,1,.51,1.51a17.16,17.16,0,0,1,5-4.23c2.38-1.3,4.77-1.56,7.4-1.92,7.12-1,7.28-4.36,11-8.88a20.77,20.77,0,0,1,4.76-4.16V124.66a20.76,20.76,0,0,0-4.57,3.72A25.66,25.66,0,0,0,115.7,134.41Z"/><path class="cls-10" d="M119.39,140c-3.69,4.52-3.85,7.92-11,8.88-2.63.36-5,.62-7.4,1.92A17.16,17.16,0,0,0,96,155a48.82,48.82,0,0,1,1.92,6.91,16.51,16.51,0,0,1,11.4-5.78c2.65-.23,5.61,0,7.89-1.66,2.66-1.94,3.33-5.6,5.75-7.89a15.21,15.21,0,0,1,1.19-1v-9.78A20.77,20.77,0,0,0,119.39,140Z"/><path class="cls-6" d="M103,116.15c-3.48,6.15-11.59,4.9-15.84,10.74A19.24,19.24,0,0,0,83.7,137,23.41,23.41,0,0,1,87,140a16.73,16.73,0,0,1,4.85-8.47,14.3,14.3,0,0,1,6.15-3c3.48-1,5.34-1.23,7-4.89a45.08,45.08,0,0,0,1.43-4.68,21.8,21.8,0,0,1,17.78-15V97.59a27.48,27.48,0,0,0-11.51,5.13C107.76,106.44,105.88,111,103,116.15Z"/><path class="cls-10" d="M106.37,119a45.08,45.08,0,0,1-1.43,4.68c-1.63,3.66-3.49,3.9-7,4.89a14.3,14.3,0,0,0-6.15,3A16.73,16.73,0,0,0,87,140a45,45,0,0,1,4.66,6.22c1-4.17,2.67-8.11,6.55-10.35,3.41-2,7.4-1.48,10-4.8,3-3.9,3.36-9.05,6.89-12.81a21.68,21.68,0,0,1,9.1-5.78V104A21.8,21.8,0,0,0,106.37,119Z"/><path class="cls-9" d="M79.69,153.09,79.6,192.3l8.92-5.15c.09-1,.16-2,.18-3a53.71,53.71,0,0,0-1.31-12.76C86.31,166.63,83.94,158.07,79.69,153.09Z"/><path class="cls-9" d="M95.49,153.5c-1.76-4.45-8.88-17-15.76-18.44l0,12.77c3.61,2.67,6.72,8.17,7.61,10.34a69.94,69.94,0,0,1,4.78,26.91l32.06-18.53v-3.38A45.78,45.78,0,0,0,99,170.73,54.44,54.44,0,0,0,95.49,153.5Z"/><path class="cls-8" d="M79.7,147.83v5.26c4.25,5,6.62,13.54,7.7,18.34a53.71,53.71,0,0,1,1.31,12.76c0,1-.09,2-.18,3l3.57-2.07a69.94,69.94,0,0,0-4.78-26.91C86.42,156,83.31,150.5,79.7,147.83Z"/><path class="cls-9" d="M88.52,117.15a4.69,4.69,0,0,0-1.87,2.13,3.52,3.52,0,0,0-.69,2.44.46.46,0,0,0,.56.32c.86-.24,1.32-1.08,1.78-1.79a7.5,7.5,0,0,0,.84-1.48,3.71,3.71,0,0,0,.11-1.2A.49.49,0,0,0,88.52,117.15Z"/><path class="cls-9" d="M99.39,111.22a4.88,4.88,0,0,0-3.81,3.12.54.54,0,0,0,.67.66,8.34,8.34,0,0,0,3.63-2.94C100.09,111.73,99.81,111.16,99.39,111.22Z"/><path class="cls-9" d="M93.07,106.46a4.68,4.68,0,0,0-1.14,2.3,2.82,2.82,0,0,0-.14,2.09.41.41,0,0,0,.55.14c1.15-.55,2-3.06,1.83-4.24C94.09,106.21,93.4,106.18,93.07,106.46Z"/><path class="cls-9" d="M104.87,101.6a7.21,7.21,0,0,0-3.8,2.89c-.16.23.1.49.33.44a7.21,7.21,0,0,0,4.14-2.45C105.87,102,105.33,101.49,104.87,101.6Z"/><path class="cls-9" d="M113.22,94.89c-1.39-.31-2.55,1.57-3,2.62-.3.65.5,1.41,1,.82.74-.8,2.32-1.83,2.35-3A.48.48,0,0,0,113.22,94.89Z"/><path class="cls-9" d="M103.06,161.88a.71.71,0,0,0-.17,1.29,5.1,5.1,0,0,0,3.67.53.83.83,0,0,0,.19-1.48A5,5,0,0,0,103.06,161.88Z"/><path class="cls-9" d="M113.27,158.51c-1.1-.34-2.44.66-3.14,1.45-.32.36-.14,1.11.44,1,1.13-.11,2.73-.58,3.13-1.75A.62.62,0,0,0,113.27,158.51Z"/><path class="cls-9" d="M117.65,159.37a.39.39,0,0,0,.08.61,4.2,4.2,0,0,0,4,.21.57.57,0,0,0,.11-.88C120.82,158.21,118.67,158.43,117.65,159.37Z"/><path class="cls-11" d="M164.27,133.7,161,162.48s7.6,3,9.6,1,2.81-7.8,1.2-13.89S164.14,134.63,164.27,133.7Z"/><path class="cls-1" d="M161.88,268.16c-1.37.62-3.62.62-6.36-.75s-5.34-3.05-4.51-4.61a2.77,2.77,0,0,1,2.1-1.16l-1.26-.4c-4.58-1.43-7.34-.37-6.84,1.52.36,1.35.38,1.61,3.08,3.6a36.3,36.3,0,0,0,9.6,4.9c4.27,1.54,6.38,1.74,7.3-.44.55-1.31.16-2.16-.11-4C164.22,267.11,162.88,267.7,161.88,268.16Z"/><path class="cls-11" d="M151.71,222.91c-2.74.17-10.85-.92-12.11-1.54,0,.74.09,5.33.08,5.84-.1,5,1.21,14.72,2.44,22.68.77,9.09,1.45,20.88,1.45,20.88s-1.26-.56-3.79-1.4a2.81,2.81,0,0,0-2.09,1.16c-.84,1.57,1.77,3.24,4.51,4.61s5,1.37,6.35.75c1-.46,2.35-1,3-1.33a22.42,22.42,0,0,1-.11-5.37c.42-4.89.27-14,0-20.23h0c0,.59-.34-8.9-.29-16.58A94,94,0,0,1,151.71,222.91Z"/><path class="cls-12" d="M166.12,219.78c-3,2.57-7.29,1.63-11.22,2.19.12,3.74.89,19.83,1.26,25.48.44,6.8.73,15.59.73,15.59s-1.26-.57-3.78-1.4a2.77,2.77,0,0,0-2.1,1.16c-.83,1.56,1.77,3.24,4.51,4.61s5,1.37,6.36.75c1-.46,2.34-1.05,3-1.33a22,22,0,0,1-.11-5.38c.35-4.05.2-16.57.5-20.46.36-4.6,1.31-11,.9-15.55C166.1,224.54,166.13,220.68,166.12,219.78Z"/><path class="cls-1" d="M148.55,275.89c-1.37.62-3.61.62-6.35-.75s-5.35-3-4.51-4.61a2.81,2.81,0,0,1,2.09-1.16l-1.26-.4c-4.58-1.42-7.33-.36-6.84,1.52.36,1.35.39,1.62,3.08,3.61a37,37,0,0,0,9.61,4.9c4.27,1.53,6.38,1.74,7.29-.45.55-1.31.17-2.15-.11-4C150.9,274.85,149.55,275.43,148.55,275.89Z"/><path class="cls-13" d="M164.27,170.67,144,171.93s-2.08,6.21-3,10.6c-1.7,8.13-1.67,35.06-1.58,42.38,3.32,1.63,14.13,5.57,26.65-2.78.11-2.79,2.15-16.45,2.83-23.16.43-4.21,2.37-9.39.13-18C167,173.2,164.27,170.67,164.27,170.67Z"/><path class="cls-11" d="M163.81,110.87c-2.4-5.07-7.93-5.7-10.81-3.7-1.06.74-5,1.65-6.12,10.36-1,7.72.72,9.73,2.29,10.38a18.12,18.12,0,0,0,4,.35l-.12,6.52a11,11,0,0,0,7.49,0l3.67-1.51a12.91,12.91,0,0,1-1.19-6.74C163.26,121.23,165.14,113.68,163.81,110.87Z"/><path class="cls-14" d="M149.71,134.72c-2.69.91-4.33,3.79-7.13,9.43S143.84,157,143.84,157s1.25,11.78-1.43,20.17c1.84,2.31,5,4.84,12.7,4.79,2.94,0,10.92-2.59,12.79-4.79a78.09,78.09,0,0,1,1.3-28.62c1.91-8.45-4-14.85-4-14.85S152.56,133.75,149.71,134.72Z"/><path class="cls-15" d="M153.11,133a4.39,4.39,0,0,0-3.4,1.69,64.59,64.59,0,0,0,6.22,1.94c4,1.06,7-2.68,7-2.68l-.77-3.43A40.54,40.54,0,0,1,153.11,133Z"/><path class="cls-15" d="M168.74,132.94c-4.77-3.53-6.88,1-7,1.84-.07.61,2.33.88,2.2,2.56,1,4.15,2,8.3,3.25,12.37,1.15-.66,4.33-1.27,5.53-2.66A12.4,12.4,0,0,0,168.74,132.94Z"/><path class="cls-16" d="M164.28,128.58c-.09-2,2.58-4,3.44-7.79,2.7-11.91-2.82-15.29-8-16.39-9.33-2-13.65,4-13.08,10.14.28,3,2.74,3.88,4.93,6.17s3.35,4.47,8.12,7.87c1.74,1.24,1.3,10.9,4.63,17.75,3.55,7.31,1.49,8.64,1.49,8.64s10.11-3.26,6-14.55C170.25,136.29,164.48,132.93,164.28,128.58Z"/><path class="cls-11" d="M149.17,118.82l1,4.87a4,4,0,0,0,2.27-4.87C151.46,114.9,149.17,118.82,149.17,118.82Z"/><path class="cls-17" d="M158.34,127.73a4.91,4.91,0,0,0,2.15,2.83c1,.37,3.6-.48,4.3-1.23.52-.56.39-3.05.39-3.05A32.92,32.92,0,0,1,158.34,127.73Z"/><path class="cls-11" d="M143.81,141.72c-3.36,5.33-5.77,23.23-5.76,23.9-.1,2.28-.29,5.65-.61,7.85-.52,3.58-2.15,13.66-1.7,20.67s3.67,5.49,5.68,1.51c1.48-2.93-.21-9,.17-10.6s1.89-4.43,3.35-8.91a61.57,61.57,0,0,0,2-9.16c.42-1,4.61-12.91,4.35-15.78C150.88,146.54,145.11,139.65,143.81,141.72Z"/><path class="cls-15" d="M148.17,136.37a14.64,14.64,0,0,0-6.75,5.14c-2.52,3.73-.83,10.73-.83,10.73a10.14,10.14,0,0,0,2.89,2.85c2.39,1.83,7.38,2,7.38,2a35.34,35.34,0,0,0,2.44-3.76,12.09,12.09,0,0,0,.53-10.07C151.47,136.72,148.17,136.37,148.17,136.37Z"/><path class="cls-18" d="M144.76,155.09a12.57,12.57,0,0,1-4.37-3.86,19.68,19.68,0,0,0-.28,2,16.13,16.13,0,0,0,3.89,3.3c3,1.86,6.84,1,6.84,1l.8-1.58A14.69,14.69,0,0,1,144.76,155.09Z"/><polygon class="cls-1" points="76.19 198.21 126.96 168.89 126.96 78.5 76.19 107.82 76.19 198.21"/><path class="cls-18" d="M88.2,134.73l-.41,1.34a.52.52,0,0,1-.31.4l-.19.11c-.21.12-.25.11-.31-.05-.13-.33-.24-.59-.36-.9l-1-2.24c-.13-.3-.26-.59-.44-1a.17.17,0,0,1,0-.11c0-.07,0-.12.18-.19l.61-.35c.2-.12.24-.11.3.05.12.39.23.66.34,1l.76,1.92c0,.06,0,.07.07.06a.26.26,0,0,0,.08-.15l.9-2.83c.15-.48.27-.89.43-1.46a.52.52,0,0,1,.32-.4l.12-.07c.21-.12.25-.11.31,0,.16.37.29.64.44.94l.87,1.81c0,.05,0,.07.07.05s.06-.06.08-.14l.77-2.79c.12-.44.22-.83.36-1.37a.48.48,0,0,1,.3-.4l.55-.32c.13-.07.18-.09.18,0a.64.64,0,0,1,0,.15c-.19.6-.31,1-.44,1.47l-1,3.37c-.12.45-.23.84-.36,1.31a.49.49,0,0,1-.31.41l-.2.12c-.2.11-.24.11-.31,0-.15-.34-.27-.6-.41-.87l-.9-1.86c0-.05-.06-.07-.09-.05s-.06.06-.09.15Z"/><path class="cls-18" d="M97,130.44a.19.19,0,0,1,0,.12c0,.07,0,.14-.15.26a6,6,0,0,1-1.3,1c-1.41.81-2,.22-2-.84a4,4,0,0,1,2-3.31c1-.58,1.59-.23,1.59,1,0,.4-.06.5-.26.62l-2.24,1.29c-.14.08-.2.14-.2.23a.58.58,0,0,0,.17.35c.18.18.49.16,1-.14a3.56,3.56,0,0,0,.88-.72.63.63,0,0,1,.16-.15c.06,0,.1,0,.15.07Zm-.66-1.62a.61.61,0,0,0-.11-.31c-.13-.17-.35-.17-.66,0a2.13,2.13,0,0,0-.87.94,1.5,1.5,0,0,0-.15.41c0,.06.06,0,.19,0l1.4-.81C96.25,129,96.3,128.9,96.31,128.82Z"/><path class="cls-18" d="M99.62,129.48l-.24.15c-.92.53-1.22.33-1.22-.6v-3.28c0-.32,0-1,0-1.06s0-.22.23-.33l.46-.26c.18-.1.23-.1.23.07s0,.71,0,1.07v3.2c0,.41.09.54.49.32l.2-.13c.08,0,.11,0,.11.08v.41C99.84,129.3,99.8,129.36,99.62,129.48Z"/><path class="cls-18" d="M103.55,126.88c0,.07-.06.14-.17.26a4.51,4.51,0,0,1-1,.77c-1.36.78-1.92.17-1.92-.81a4.16,4.16,0,0,1,2.18-3.47,2.52,2.52,0,0,1,.79-.32c.12,0,.16,0,.17.06a.8.8,0,0,1,0,.16l-.14.47c0,.15-.07.21-.14.25l-.15,0a1.5,1.5,0,0,0-.48.18,2.54,2.54,0,0,0-1.28,2.08c0,.6.36.94,1.13.5a2.93,2.93,0,0,0,.59-.46.57.57,0,0,1,.15-.14c.07,0,.09,0,.14.09l.11.22A.28.28,0,0,1,103.55,126.88Z"/><path class="cls-18" d="M108.3,122.35a4.05,4.05,0,0,1-2.1,3.36c-1.12.65-2,.36-2-.85a4,4,0,0,1,2.1-3.37C107.46,120.84,108.3,121.14,108.3,122.35Zm-3.13,2c0,.73.44,1,1.06.59a2.36,2.36,0,0,0,1.15-2c0-.74-.46-.94-1.07-.59A2.3,2.3,0,0,0,105.17,124.34Z"/><path class="cls-18" d="M110.22,122.08c0,.36,0,1,0,1.06s0,.22-.23.33l-.45.26c-.19.11-.23.11-.23-.06s0-.72,0-1.07v-1.53c0-.35,0-1,0-1s0-.23.23-.33l.38-.23c.19-.1.22-.09.22.09s0,.14.07.11a.62.62,0,0,0,.12-.12,3.32,3.32,0,0,1,1-1,1,1,0,0,1,.94-.17c.08,0,.12,0,.16,0a.92.92,0,0,0,.16-.19,4.12,4.12,0,0,1,1.19-1.09c.78-.45,1.3-.21,1.3.66v1.42c0,.36,0,1,0,1.06s0,.22-.23.33l-.46.26c-.18.11-.23.1-.23-.06s0-.72,0-1.08v-1.17c0-.48-.23-.68-.72-.39a2.41,2.41,0,0,0-.7.65.52.52,0,0,0-.15.4v1.42c0,.35,0,1,0,1s0,.23-.23.33l-.46.27c-.18.1-.23.1-.23-.07s0-.72,0-1.07V120c0-.48-.23-.67-.72-.39a2.43,2.43,0,0,0-.7.65.69.69,0,0,0-.17.45Z"/><path class="cls-18" d="M119.53,117.41a.16.16,0,0,1,0,.12c0,.07,0,.14-.16.26a6,6,0,0,1-1.29,1c-1.41.81-2,.22-2-.84a4,4,0,0,1,2-3.31c1-.58,1.59-.23,1.59,1,0,.4-.06.5-.27.62l-2.23,1.29c-.15.08-.2.14-.2.23a.58.58,0,0,0,.17.35c.18.18.49.16,1-.14a3.56,3.56,0,0,0,.88-.72.63.63,0,0,1,.16-.15c.06,0,.09,0,.15.07Zm-.65-1.62a.58.58,0,0,0-.11-.31c-.13-.17-.35-.17-.67,0a2.16,2.16,0,0,0-.86.94,1.22,1.22,0,0,0-.15.41c0,.06.06,0,.18,0l1.4-.81C118.82,115.93,118.87,115.87,118.88,115.79Z"/><path class="cls-18" d="M93.41,146.81c0,.2,0,.27-.23.41s-.29.2-.43.28c-1,.56-1.3.28-1.3-.52v-1.81c0-.16,0-.19-.16-.11l-.26.16c-.21.12-.24.11-.24-.1v-.32c0-.21,0-.26.24-.38l.27-.15c.14-.07.15-.11.15-.27s0-.69,0-.74,0-.23.22-.33l.44-.25c.18-.11.23-.1.23.06s0,.48,0,.76,0,.18.18.08l.22-.12.46-.28c.21-.11.24-.1.24.1v.34c0,.19,0,.24-.24.36l-.46.26-.16.09c-.2.12-.24.18-.24.38v1.65c0,.45.19.49.6.25.15-.09.33-.24.39-.27s.11,0,.11.14Z"/><path class="cls-18" d="M98.15,142.24a4.06,4.06,0,0,1-2.09,3.37c-1.12.64-2,.36-2-.85a4.06,4.06,0,0,1,2.09-3.38C97.32,140.74,98.15,141,98.15,142.24Zm-3.13,2c0,.72.45.94,1.06.59a2.4,2.4,0,0,0,1.16-2c0-.74-.46-.94-1.08-.58A2.31,2.31,0,0,0,95,144.24Z"/><path class="cls-18" d="M106.14,136.88a5.66,5.66,0,0,1-2.84,4.55c-1.71,1-2.69.23-2.69-1.25a5.52,5.52,0,0,1,2.82-4.51C105.15,134.68,106.14,135.4,106.14,136.88Zm-4.59,2.76c0,1.07.65,1.55,1.78.9a3.76,3.76,0,0,0,1.86-3.07c0-1.06-.66-1.53-1.79-.88A3.71,3.71,0,0,0,101.55,139.64Z"/><path class="cls-18" d="M110.06,137.48c-.19.11-.23.11-.24-.09s0-.14-.06-.11a.62.62,0,0,0-.12.12,4,4,0,0,1-1.09,1c-.82.47-1.36.25-1.36-.63v-1.43c0-.35,0-1,0-1.05s0-.22.23-.33l.46-.26c.18-.11.23-.1.23.06s0,.72,0,1.07v1.24c0,.48.25.66.78.36a2.9,2.9,0,0,0,.74-.69.69.69,0,0,0,.17-.46v-1.43c0-.34,0-1,0-1s0-.23.23-.33l.46-.27c.18-.1.22-.1.22.07s0,.72,0,1.06v1.53c0,.36,0,1,0,1.06s0,.22-.22.33Z"/><path class="cls-18" d="M112.81,134.63c0,.35,0,1,0,1.05s0,.23-.23.33l-.46.26c-.18.11-.23.11-.23-.06s0-.72,0-1.07v-1.53c0-.35,0-1,0-1.05s0-.23.23-.33l.33-.19c.21-.12.25-.12.25.09s0,.22.07.19.07-.06.12-.14a5,5,0,0,1,.63-.72,3.13,3.13,0,0,1,.44-.33c.12-.07.15,0,.15.12v.6a.26.26,0,0,1-.13.24,1,1,0,0,0-.19.09,3,3,0,0,0-.83.78.68.68,0,0,0-.17.46Z"/><path class="cls-18" d="M95.48,158.37a3.47,3.47,0,0,1-2,2.76,3.62,3.62,0,0,1-1.66.55c-.1,0-.15,0-.15-.09a.85.85,0,0,1,0-.18l.2-.52c0-.14.08-.21.13-.24a.24.24,0,0,1,.15,0,2.39,2.39,0,0,0,1.35-.37,1.69,1.69,0,0,0,1-1.28c0-.46-.5-.41-1.16-.3s-1.58.21-1.58-.74a3.43,3.43,0,0,1,2-2.68,3.89,3.89,0,0,1,1.36-.49c.11,0,.17,0,.17.07a1.2,1.2,0,0,1,0,.17l-.18.57c0,.14-.08.21-.13.24a.34.34,0,0,1-.16,0,2.24,2.24,0,0,0-1.12.34,1.58,1.58,0,0,0-.94,1.19c0,.41.41.38,1.07.27C94.64,157.52,95.48,157.42,95.48,158.37Z"/><path class="cls-18" d="M98.58,157.87c0,.19,0,.26-.23.4a4.78,4.78,0,0,1-.44.29c-1,.55-1.29.27-1.29-.53v-1.81c0-.16,0-.18-.16-.11l-.27.17c-.2.12-.24.1-.24-.1v-.33c0-.2,0-.25.24-.37l.28-.15c.13-.08.15-.11.15-.28s0-.68,0-.74.05-.22.23-.33l.44-.25c.18-.1.23-.1.23.07s0,.48,0,.76,0,.17.18.08l.21-.12.47-.28c.21-.12.24-.11.24.09v.34c0,.2,0,.25-.24.37l-.47.26-.15.09c-.2.11-.24.18-.24.37v1.65c0,.45.19.49.6.25.15-.08.33-.24.39-.27s.11,0,.11.14Z"/><path class="cls-18" d="M103.32,153.3a4,4,0,0,1-2.09,3.36c-1.12.65-2,.36-2-.85a4,4,0,0,1,2.09-3.37C102.48,151.79,103.32,152.09,103.32,153.3Zm-3.13,2c0,.73.44,1,1.06.59a2.37,2.37,0,0,0,1.16-2c0-.74-.46-1-1.08-.59A2.32,2.32,0,0,0,100.19,155.29Z"/><path class="cls-18" d="M105.24,153c0,.36,0,1,0,1.06s-.05.22-.23.33l-.46.26c-.18.11-.23.1-.23-.06s0-.72,0-1.08V152c0-.35,0-1,0-1.05s0-.23.23-.33l.33-.2c.21-.11.25-.11.25.1s0,.22.07.19.07-.06.12-.14a5.71,5.71,0,0,1,.63-.73c.15-.12.33-.26.44-.33s.15,0,.15.13v.6a.26.26,0,0,1-.13.24,1,1,0,0,0-.19.09,2.85,2.85,0,0,0-.83.78.68.68,0,0,0-.17.46Z"/><path class="cls-18" d="M110.57,150.66a.21.21,0,0,1,.05.12c0,.07-.05.14-.16.26a6,6,0,0,1-1.29,1c-1.41.81-2,.22-2-.84a4.05,4.05,0,0,1,2-3.31c1-.58,1.6-.23,1.6,1,0,.4-.06.5-.27.62l-2.23,1.29c-.15.08-.2.14-.2.23a.62.62,0,0,0,.16.35c.18.18.5.16,1-.14a3.44,3.44,0,0,0,.89-.72.63.63,0,0,1,.16-.15c.06,0,.09,0,.15.07Zm-.65-1.62a.61.61,0,0,0-.11-.31c-.13-.17-.35-.17-.67,0a2.13,2.13,0,0,0-.87.94,1.41,1.41,0,0,0-.14.41c0,.06.06,0,.18,0l1.4-.81C109.85,149.18,109.91,149.12,109.92,149Z"/><path class="cls-18" d="M112.94,149.3a1.16,1.16,0,0,1-.6.94c-.31.18-.54.11-.54-.2a1.16,1.16,0,0,1,.6-1C112.7,148.9,112.94,149,112.94,149.3Zm-.69-.73c-.2.11-.24.1-.25-.1l0-1.91c0-.51-.06-1.37-.06-1.52s0-.2.22-.3l.52-.29c.17-.1.22-.1.22,0s0,1.06-.06,1.65l-.05,1.92c0,.2,0,.26-.24.37Z"/></svg>