<svg id="レイヤー_1" data-name="レイヤー 1" xmlns="http://www.w3.org/2000/svg" xmlns:xlink="http://www.w3.org/1999/xlink" viewBox="0 0 566.93 566.93"><defs><style>.cls-1{fill:#dadff6;}.cls-2{fill:#efd3d3;}.cls-3{fill:#fff;}.cls-4{fill:#dbb4b4;}.cls-5{fill:#35a7aa;}.cls-6{fill:#54bec6;}.cls-7{fill:#ffc5b3;}.cls-8{fill:#513939;}.cls-9{fill:#289999;}.cls-10{fill:#f9dd89;}.cls-11{fill:#d14a4a;}.cls-12{fill:#eac363;}.cls-13{isolation:isolate;}.cls-14{fill:#3e3544;}.cls-15{fill:#453c4c;}.cls-16{fill:#302534;}.cls-17{fill:#271e2c;}.cls-18{clip-path:url(#clip-path);}.cls-19{clip-path:url(#clip-path-2);}.cls-20{clip-path:url(#clip-path-3);}.cls-21{fill:#f1f1f1;}.cls-22{fill:#98a4e0;}.cls-23{fill:#483d4c;}</style><clipPath id="clip-path"><path class="cls-1" d="M458.26,336l1.9,1.1a1.53,1.53,0,0,0-1.56.16l-1.9-1.11A1.55,1.55,0,0,1,458.26,336Z"/></clipPath><clipPath id="clip-path-2"><path class="cls-1" d="M404.85,411.42l-1.89-1.1a1.51,1.51,0,0,1-.64-1.4l1.9,1.1A1.51,1.51,0,0,0,404.85,411.42Z"/></clipPath><clipPath id="clip-path-3"><path class="cls-1" d="M404.11,371.27l-1.9-1.11a4.77,4.77,0,0,1,2.18-3.77l1.89,1.1A4.81,4.81,0,0,0,404.11,371.27Z"/></clipPath></defs><path class="cls-2" d="M443.93,477.82c-8.8,0-15.94,4-15.94,9s7.14,9,15.94,9,15.94-4,15.94-9S452.74,477.82,443.93,477.82Z"/><rect class="cls-2" x="427.99" y="484.13" width="31.88" height="2.66"/><path class="cls-3" d="M443.93,475.57c-8.8,0-15.94,4-15.94,9s7.14,9,15.94,9,15.94-4,15.94-9S452.74,475.57,443.93,475.57Z"/><path class="cls-4" d="M444,477.51c-6.67,0-12.08,3.05-12.08,6.8s5.41,6.8,12.08,6.8,12.09-3,12.09-6.8S450.64,477.51,444,477.51Z"/><rect class="cls-3" x="442.23" y="403.37" width="3.41" height="80.02"/><path class="cls-3" d="M443.93,482.63c-.94,0-1.7.43-1.7,1s.76,1,1.7,1,1.71-.43,1.71-1S444.87,482.63,443.93,482.63Z"/><ellipse class="cls-5" cx="443.93" cy="417.7" rx="54.7" ry="30.79"/><rect class="cls-5" x="489.41" y="412.47" width="9.18" height="6.39"/><rect class="cls-5" x="389.24" y="412.47" width="9.18" height="6.39"/><path class="cls-6" d="M443.93,383.08c-30.21,0-54.69,13.78-54.69,30.78s24.48,30.79,54.69,30.79,54.7-13.78,54.7-30.79S474.14,383.08,443.93,383.08Z"/><path class="cls-7" d="M491.82,468.78s-9.92.07-9.55,2.15c1.12,6.29,1.39,21.46,1.39,21.46s-1.3-.58-3.92-1.44a2.85,2.85,0,0,0-2.16,1.2c-.86,1.62,1.83,3.35,4.67,4.77s5.15,1.41,6.57.77c1-.47,2.43-1.08,3.11-1.37a22,22,0,0,1-.11-5.57C492.48,483,492.17,470.23,491.82,468.78Z"/><path class="cls-8" d="M488.82,497.69c-1.42.64-3.74.64-6.57-.77s-5.53-3.15-4.67-4.77a2.85,2.85,0,0,1,2.16-1.2l-1.3-.42c-4.74-1.47-7.59-.38-7.07,1.58.37,1.39.39,1.67,3.18,3.73a38.1,38.1,0,0,0,9.94,5.06c4.42,1.59,6.6,1.8,7.55-.45.57-1.36.17-2.24-.11-4.13C491.25,496.61,489.86,497.22,488.82,497.69Z"/><path class="cls-7" d="M479.87,470s-10.62-3.83-10.25-1.76c1.12,6.29,2.52,30.82,2.52,30.82s-1.31-.59-3.92-1.45a2.87,2.87,0,0,0-2.16,1.2c-.87,1.62,1.83,3.35,4.66,4.77s5.16,1.42,6.57.77c1-.47,2.44-1.07,3.11-1.37a23,23,0,0,1-.11-5.56C481,489.64,480.23,471.43,479.87,470Z"/><path class="cls-8" d="M477.29,504.34c-1.41.65-3.73.65-6.57-.77s-5.53-3.15-4.66-4.77a2.87,2.87,0,0,1,2.16-1.2l-1.3-.41c-4.74-1.48-7.59-.38-7.08,1.57.37,1.4.4,1.67,3.19,3.73a38,38,0,0,0,9.94,5.07c4.41,1.59,6.6,1.8,7.55-.46.57-1.35.17-2.23-.12-4.13C479.73,503.27,478.33,503.87,477.29,504.34Z"/><path class="cls-3" d="M471.42,515.66c0,.48.68.87,1.53.87s1.53-.39,1.53-.87l5.54-29.9-3.58-2.24C476.44,484,471.42,515.66,471.42,515.66Z"/><path class="cls-3" d="M504.73,501.78l5.92,35.94c0,.48.69.86,1.53.86s1.53-.38,1.53-.86c0,0-5.4-37.67-5.4-38.18Z"/><path class="cls-3" d="M529.6,487.29l5.92,35.94c0,.48.69.86,1.53.86s1.53-.38,1.53-.86c0,0-5.4-37.67-5.4-38.18Z"/><path class="cls-3" d="M496.94,501.54c0,.47.69.86,1.53.86s1.53-.39,1.53-.86l5.54-29.91L502,469.39C502,469.9,496.94,501.54,496.94,501.54Z"/><polygon class="cls-6" points="473.23 480.15 507.6 500.02 535.37 483.99 500.99 464.12 473.23 480.15"/><polygon class="cls-9" points="473.23 483.52 507.6 503.37 507.6 500.02 473.23 480.15 473.23 483.52"/><path class="cls-7" d="M515.22,392.41c-2.42-5.13-8-5.76-10.92-3.74-1.07.74-5,1.67-6.18,10.46-.78,5.91,1.19,8.55,2.87,10.09.7.64,3.43.76,3.43.76l-.12,6.58a11.18,11.18,0,0,0,7.57,0l3.7-1.52a13.13,13.13,0,0,1-1.2-6.82C514.67,402.87,516.57,395.24,515.22,392.41Z"/><path class="cls-10" d="M520.54,444.71c1-7.76.6-10.35-.19-16.48S515.57,415,515.57,415l-11.26-.18s-4.45,1.85-5.84,4.9-6.35,11.51-4.16,16.18c4.47,9.54,1.5,16.25.88,17.85a94.63,94.63,0,0,0-5,20.41c5.3,4.53,10.78,8.36,18.27,8.78,7.88.44,14.95-3.33,16.08-11.53-.26-4.61-.69-8.41-1.36-10.13C519.49,452,520.27,446.87,520.54,444.71Z"/><path class="cls-8" d="M515.7,410.3c-.09-2,2.6-4.05,3.47-7.88,2.73-12-2.85-15.44-8.12-16.55-9.43-2-13.79,4-13.21,10.24.28,3,2.76,3.92,5,6.23s3.39,4.52,8.21,8c1.76,1.25,1.32,11,4.68,17.93,3.58,7.38,1.5,8.72,1.5,8.72s10.21-3.29,6-14.7C521.72,418.09,515.89,414.69,515.7,410.3Z"/><path class="cls-7" d="M499.5,419.77c-4.17.39-12.4,22.92-12.4,22.92a129.44,129.44,0,0,0-15.77-3.46c-1.83-.27-1.25-2.12-3.55-3.6-3-1.95-9.23.83-7.62,2.84s5.8,4.92,9,5.3,16.39,8.53,20.84,5.9c0,0,13.42-14.85,13.71-21.19C504,423.52,501.68,419.56,499.5,419.77Z"/><path class="cls-7" d="M500.44,400.44l1,4.92a4,4,0,0,0,2.28-4.92C502.75,396.47,500.44,400.44,500.44,400.44Z"/><path class="cls-11" d="M509.69,409.44a5,5,0,0,0,2.18,2.86c1,.37,3.63-.49,4.34-1.25.53-.56.39-3.08.39-3.08A32.78,32.78,0,0,1,509.69,409.44Z"/><path class="cls-10" d="M480.81,455.13c-9.09,3-11.78,7.44-11.38,15.81.24,5,11.37,8.24,27.92,11.95,18.07,4,22.08-2.75,22.08-2.75l-19.35-28.76S487.49,453,480.81,455.13Z"/><path class="cls-12" d="M498,463.25c-2.85-4.68-2.1-11.27-2.1-11.27l-11,2.06s-4,12.12-1.39,12.62,6.76-7.26,8.79-6.64,1,5.92,3.38,10.92,10.71,4.16,8.32,1.1A69.27,69.27,0,0,1,498,463.25Z"/><polygon class="cls-5" points="507.6 500.02 507.6 500.02 507.6 503.37 535.37 487.36 535.37 483.99 535.37 483.99 535.37 446.97 507.6 463 507.6 500.02"/><polygon class="cls-9" points="505.11 501.93 507.6 503.22 507.6 463 505.11 461.7 505.11 501.93"/><polygon class="cls-6" points="505.11 461.7 507.6 463 535.37 446.97 532.88 445.67 505.11 461.7"/><polygon class="cls-3" points="443.67 419.34 470.8 435 488.12 425 460.99 409.34 443.67 419.34"/><g class="cls-13"><polygon class="cls-14" points="430.24 406.74 442.49 399.62 440.37 395.37 428.12 402.49 430.24 406.74"/><polygon class="cls-15" points="435.35 409.69 447.6 402.57 442.49 399.62 430.24 406.74 435.35 409.69"/><polygon class="cls-16" points="435.34 411.1 447.59 403.98 447.6 402.57 435.35 409.69 435.34 411.1"/><polygon class="cls-16" points="428.12 402.49 440.37 395.37 440.42 376.99 428.17 384.11 428.12 402.49"/><polygon class="cls-15" points="428.17 384.11 440.42 376.99 439.19 376.28 426.94 383.4 428.17 384.11"/><polygon class="cls-17" points="426.94 383.4 426.88 402.28 429.65 407.82 435.34 411.1 435.35 409.69 430.24 406.74 428.12 402.49 428.17 384.11 426.94 383.4"/></g><g class="cls-13"><path class="cls-1" d="M458.26,336l1.9,1.1a1.53,1.53,0,0,0-1.56.16l-1.9-1.11A1.55,1.55,0,0,1,458.26,336Z"/><g class="cls-18"><g class="cls-13"><path class="cls-1" d="M458.6,337.29l-1.9-1.11a1.55,1.55,0,0,1,1.56-.15l1.9,1.1a1.53,1.53,0,0,0-1.56.16Z"/></g></g><path class="cls-1" d="M404.85,411.42l-1.89-1.1a1.51,1.51,0,0,1-.64-1.4l1.9,1.1A1.51,1.51,0,0,0,404.85,411.42Z"/><g class="cls-19"><g class="cls-13"><path class="cls-1" d="M404.85,411.42l-1.89-1.1a1.51,1.51,0,0,1-.64-1.4l1.9,1.1a1.51,1.51,0,0,0,.63,1.4Z"/></g></g><polygon class="cls-1" points="404.21 410.02 402.32 408.92 402.21 370.16 404.11 371.26 404.21 410.02"/><polygon class="cls-1" points="406.29 367.49 404.39 366.39 456.7 336.18 458.6 337.29 406.29 367.49"/><path class="cls-1" d="M404.11,371.27l-1.9-1.11a4.77,4.77,0,0,1,2.18-3.77l1.89,1.1A4.81,4.81,0,0,0,404.11,371.27Z"/><g class="cls-20"><g class="cls-13"><path class="cls-1" d="M404.11,371.27l-1.9-1.11a4.77,4.77,0,0,1,2.18-3.77l1.89,1.1a4.81,4.81,0,0,0-2.17,3.78Z"/></g></g><path class="cls-21" d="M458.6,337.29c1.21-.7,2.19-.14,2.19,1.25l.11,38.75a4.79,4.79,0,0,1-2.18,3.78l-52.31,30.2c-1.21.7-2.19.14-2.19-1.25l-.11-38.75a4.81,4.81,0,0,1,2.17-3.78Z"/></g><path class="cls-21" d="M405.38,407.37V410a.76.76,0,0,0,.07.38.81.81,0,0,0,.38-.14l52.31-30.2a3.68,3.68,0,0,0,1.6-2.76V376Z"/><path class="cls-22" d="M459.73,376l-54.35,31.39v-.87l-.1-35.24a3.64,3.64,0,0,1,1.6-2.76l51.93-30,.39-.22a1,1,0,0,1,.37-.15,1,1,0,0,1,.07.39Z"/><path class="cls-14" d="M458.9,375.6l-53.53,30.9-.1-35.24a3.64,3.64,0,0,1,1.6-2.76l51.92-30Z"/><path class="cls-23" d="M405.37,406.5l-.1-35.24a3.64,3.64,0,0,1,1.6-2.76l51.37-29.66Z"/><path class="cls-3" d="M420.75,369.75c-.11.33-.22.61-.33,1a.45.45,0,0,1-.26.31l-.15.08c-.17.1-.2.1-.25,0l-.3-.62-.78-1.52c-.11-.2-.21-.4-.36-.66a.13.13,0,0,1,0-.08c0-.05,0-.08.14-.14l.5-.29c.17-.1.2-.09.24,0s.19.45.29.65l.61,1.31s0,.05.06,0a.2.2,0,0,0,.07-.11l.72-2.05c.13-.35.23-.65.36-1.06a.45.45,0,0,1,.26-.31l.1,0c.17-.1.2-.1.25,0s.24.44.35.64l.71,1.23s0,0,.07,0a.27.27,0,0,0,.06-.11l.62-2c.1-.32.18-.6.29-1a.41.41,0,0,1,.25-.31l.45-.26c.1-.06.15-.07.15,0a.36.36,0,0,1,0,.11c-.15.43-.25.74-.36,1.07l-.78,2.44c-.11.32-.2.6-.3.95a.38.38,0,0,1-.25.3l-.16.1c-.17.09-.2.09-.26,0s-.22-.4-.33-.59l-.74-1.26s0,0-.07,0a.37.37,0,0,0-.07.12Z"/><path class="cls-3" d="M428,366.13a.16.16,0,0,1,0,.08c0,.05,0,.1-.12.2a5.4,5.4,0,0,1-1.06.81c-1.14.66-1.62.29-1.62-.47a3.11,3.11,0,0,1,1.63-2.46c.82-.47,1.3-.26,1.3.6,0,.28-.05.36-.22.46l-1.82,1c-.12.06-.16.11-.16.17a.36.36,0,0,0,.13.24c.15.11.41.08.82-.16a3.12,3.12,0,0,0,.73-.57.64.64,0,0,1,.13-.12s.07,0,.12.05Zm-.54-1.1a.33.33,0,0,0-.09-.21c-.1-.11-.28-.1-.54.05a1.89,1.89,0,0,0-.71.72,1.08,1.08,0,0,0-.11.29c0,.05,0,0,.15,0l1.13-.66C427.37,365.13,427.42,365.09,427.42,365Z"/><path class="cls-3" d="M430.17,365.26l-.2.12c-.74.43-1,.31-1-.35v-2.31c0-.23,0-.71,0-.75s0-.16.19-.24l.37-.22c.15-.09.19-.09.19,0s0,.51,0,.76v2.26c0,.29.07.38.4.2l.16-.11q.09-.06.09.06V365C430.35,365.12,430.32,365.16,430.17,365.26Z"/><path class="cls-3" d="M433.42,363.15c0,.05,0,.1-.13.19a4.29,4.29,0,0,1-.81.61c-1.1.64-1.56.24-1.56-.45a3.2,3.2,0,0,1,1.77-2.59,2.84,2.84,0,0,1,.64-.28c.1,0,.14,0,.14,0a.35.35,0,0,1,0,.12l-.12.34c0,.11-.06.15-.11.18a.33.33,0,0,1-.13,0,1.64,1.64,0,0,0-.38.16,2,2,0,0,0-1,1.55c0,.42.3.64.93.28a2.79,2.79,0,0,0,.47-.36l.13-.11c.05,0,.07,0,.11.06l.09.14A.16.16,0,0,1,433.42,363.15Z"/><path class="cls-3" d="M437.35,359.62a3.12,3.12,0,0,1-1.71,2.5c-.91.53-1.59.38-1.59-.47a3.14,3.14,0,0,1,1.71-2.52C436.67,358.61,437.35,358.77,437.35,359.62Zm-2.55,1.6c0,.51.36.64.86.35a1.81,1.81,0,0,0,.94-1.47c0-.53-.37-.64-.87-.35A1.76,1.76,0,0,0,434.8,361.22Z"/><path class="cls-3" d="M439,359.28c0,.25,0,.71,0,.74s0,.17-.19.25l-.37.22c-.15.08-.19.08-.19,0s0-.51,0-.76v-1.08c0-.25,0-.7,0-.74s0-.16.19-.25l.31-.18c.15-.09.18-.08.18,0s0,.1,0,.08a.35.35,0,0,0,.1-.09,3.1,3.1,0,0,1,.86-.75,1,1,0,0,1,.77-.18c.06,0,.09,0,.13,0a1,1,0,0,0,.13-.14,3.52,3.52,0,0,1,1-.84c.64-.37,1.06-.24,1.06.38v1c0,.25,0,.7,0,.74s0,.16-.19.25l-.37.21c-.15.09-.19.09-.19,0s0-.51,0-.76v-.83c0-.34-.18-.46-.58-.23a2.16,2.16,0,0,0-.57.51.36.36,0,0,0-.12.28v1c0,.25,0,.7,0,.74s0,.16-.19.25l-.37.21c-.15.09-.19.09-.19,0s0-.51,0-.76v-.83c0-.34-.19-.46-.59-.23a2.27,2.27,0,0,0-.56.5.49.49,0,0,0-.15.34Z"/><path class="cls-3" d="M446.61,355.36a.18.18,0,0,1,0,.09c0,.05,0,.1-.13.19a5.4,5.4,0,0,1-1.06.81c-1.14.66-1.62.29-1.62-.46a3.11,3.11,0,0,1,1.63-2.47c.82-.47,1.3-.26,1.3.6,0,.29,0,.36-.22.46l-1.82,1.05c-.12.07-.16.11-.16.18a.34.34,0,0,0,.13.23c.15.11.41.08.83-.16a3.29,3.29,0,0,0,.72-.57.64.64,0,0,1,.13-.12c.05,0,.07,0,.12.05Zm-.54-1.1a.36.36,0,0,0-.09-.21c-.1-.11-.28-.1-.54.05a1.89,1.89,0,0,0-.71.72,1.08,1.08,0,0,0-.11.29c0,.05,0,0,.15,0l1.14-.66C446,354.36,446.07,354.32,446.07,354.26Z"/><path class="cls-3" d="M425.08,377.9c0,.14,0,.19-.19.31l-.35.22c-.79.46-1.06.28-1.06-.28v-1.29c0-.11,0-.12-.13-.06l-.21.13c-.17.1-.2.09-.2-.06v-.22c0-.15,0-.19.2-.28l.22-.13c.11-.06.12-.08.12-.2s0-.48,0-.52,0-.16.19-.25l.35-.2c.15-.09.19-.09.19,0s0,.34,0,.53,0,.13.15.05l.18-.1c.11-.06.31-.19.38-.22s.19-.09.19.05v.24c0,.14,0,.17-.19.27l-.38.21-.13.08c-.16.09-.2.14-.2.28v1.16c0,.32.16.33.49.14.13-.07.27-.19.32-.21s.09,0,.09.09Z"/><path class="cls-3" d="M429,374.35a3.12,3.12,0,0,1-1.71,2.5c-.91.53-1.59.38-1.59-.47a3.14,3.14,0,0,1,1.71-2.52C428.32,373.34,429,373.5,429,374.35Zm-2.55,1.6c0,.52.36.64.86.35a1.8,1.8,0,0,0,.94-1.47c0-.52-.37-.64-.87-.35A1.76,1.76,0,0,0,426.45,376Z"/><path class="cls-3" d="M435.51,370.06a4.42,4.42,0,0,1-2.31,3.39c-1.4.8-2.2.33-2.2-.72a4.27,4.27,0,0,1,2.3-3.35C434.7,368.56,435.51,369,435.51,370.06Zm-3.74,2.23c0,.76.53,1.06,1.45.53a2.91,2.91,0,0,0,1.51-2.29c0-.74-.53-1-1.45-.5A2.85,2.85,0,0,0,431.77,372.29Z"/><path class="cls-3" d="M438.75,370.2c-.15.09-.19.1-.19-.05s0-.09-.05-.07l-.1.1a3.32,3.32,0,0,1-.89.77c-.66.38-1.11.26-1.11-.36v-1c0-.24,0-.7,0-.74s0-.16.19-.24l.37-.22c.15-.08.19-.09.19,0s0,.51,0,.76V370c0,.34.21.45.63.2a2.22,2.22,0,0,0,.61-.53.47.47,0,0,0,.14-.33v-1c0-.24,0-.7,0-.74s0-.16.19-.24l.37-.22c.15-.09.19-.09.19,0s0,.51,0,.75V369c0,.25,0,.7,0,.74s0,.16-.19.25Z"/><path class="cls-3" d="M441.05,368c0,.25,0,.7,0,.74s0,.16-.19.25l-.37.21c-.15.09-.19.09-.19,0s0-.51,0-.76v-1.07c0-.25,0-.71,0-.75s0-.16.19-.24l.27-.16c.17-.1.21-.1.21.05s0,.16,0,.13a.3.3,0,0,0,.1-.1,4,4,0,0,1,.52-.56,3.13,3.13,0,0,1,.35-.26c.1-.05.12,0,.12.08V366a.18.18,0,0,1-.11.17l-.15.08a2.46,2.46,0,0,0-.67.6.47.47,0,0,0-.14.33Z"/><path class="cls-3" d="M426.7,386a2.74,2.74,0,0,1-1.61,2.07,3.49,3.49,0,0,1-1.35.49c-.09,0-.12,0-.12,0a.45.45,0,0,1,0-.13l.17-.39c0-.09.06-.15.1-.17a.25.25,0,0,1,.13,0,2.24,2.24,0,0,0,1.1-.34c.48-.28.8-.66.8-1s-.42-.26-.95-.14-1.29.25-1.29-.42a2.77,2.77,0,0,1,1.62-2,3.83,3.83,0,0,1,1.1-.43c.1,0,.14,0,.14,0a.35.35,0,0,1,0,.12l-.15.42c0,.1-.06.15-.1.17a.25.25,0,0,1-.13,0,2.12,2.12,0,0,0-.92.31c-.51.29-.76.63-.76.9s.33.24.87.12S426.7,385.3,426.7,386Z"/><path class="cls-3" d="M429.29,385.38c0,.14,0,.19-.19.3l-.35.23c-.79.45-1.06.28-1.06-.29v-1.28c0-.11,0-.12-.12-.06l-.22.13c-.17.1-.2.09-.2-.06v-.22c0-.15,0-.19.2-.28l.22-.13c.11-.06.12-.08.12-.2s0-.48,0-.52,0-.16.19-.25l.35-.2c.15-.09.19-.09.19,0s0,.34,0,.53,0,.13.15.05l.18-.1a4.37,4.37,0,0,1,.38-.22c.16-.1.19-.09.19.05v.24c0,.14,0,.17-.19.27l-.38.21-.13.08c-.16.09-.2.14-.2.28v1.16c0,.32.16.33.49.14.13-.07.27-.19.32-.21s.09,0,.09.09Z"/><path class="cls-3" d="M433.21,381.83a3.15,3.15,0,0,1-1.7,2.5c-.92.53-1.59.38-1.59-.47a3.13,3.13,0,0,1,1.7-2.52C432.53,380.81,433.21,381,433.21,381.83Zm-2.55,1.6c0,.51.36.64.87.35a1.84,1.84,0,0,0,.94-1.47c0-.53-.38-.64-.88-.35A1.78,1.78,0,0,0,430.66,383.43Z"/><path class="cls-3" d="M434.83,381.49c0,.25,0,.7,0,.74s0,.16-.18.25l-.38.21c-.15.09-.19.09-.19,0s0-.51,0-.76v-1.07c0-.25,0-.71,0-.75s0-.16.19-.24l.27-.16c.17-.1.21-.1.21.05s0,.16.06.13a.3.3,0,0,0,.09-.1,4,4,0,0,1,.52-.56l.35-.26c.1-.05.12,0,.12.08v.43a.17.17,0,0,1-.11.17l-.15.08a2.64,2.64,0,0,0-.67.6.47.47,0,0,0-.14.34Z"/><path class="cls-3" d="M439.23,379.44a.16.16,0,0,1,0,.09c0,.05,0,.1-.12.19a5.08,5.08,0,0,1-1.06.82c-1.14.66-1.62.28-1.62-.47a3.08,3.08,0,0,1,1.63-2.46c.82-.48,1.3-.26,1.3.59,0,.29-.06.36-.22.46l-1.82,1c-.12.07-.16.11-.16.18a.32.32,0,0,0,.13.23c.15.12.41.08.82-.16a3.37,3.37,0,0,0,.73-.56l.12-.12c.05,0,.08,0,.13,0Zm-.54-1.1a.31.31,0,0,0-.09-.2c-.1-.12-.28-.11-.54,0a1.88,1.88,0,0,0-.71.72.9.9,0,0,0-.11.29c0,.05,0,0,.14,0l1.14-.66C438.64,378.45,438.68,378.4,438.69,378.34Z"/><path class="cls-3" d="M441.21,378.3a.89.89,0,0,1-.49.71c-.25.15-.44.11-.44-.11a.92.92,0,0,1,.49-.72C441,378,441.21,378.09,441.21,378.3Zm-.57-.46c-.16.09-.19.08-.19-.06l-.05-1.35c0-.36,0-1,0-1.07s0-.14.17-.22l.42-.24c.15-.08.18-.08.18,0s0,.75,0,1.16l0,1.36c0,.15,0,.19-.2.29Z"/></svg>