<svg id="レイヤー_1" data-name="レイヤー 1" xmlns="http://www.w3.org/2000/svg" viewBox="0 0 1440 1080"><defs><style>.cls-1{fill:#fff;}.cls-2{fill:#009fe8;}</style></defs><path class="cls-1" d="M220.67,303.57H533.54c11.92,0,21.68,11.31,21.68,25.14V429.08c1.51,16.67,8.06,31.05,18.78,37.12-13.11,8.83-29.93,4.33-45-6.15H220.67c-11.92,0-21.67-11.31-21.67-25.14V328.71C199,314.88,208.75,303.56,220.67,303.57Z"/><path class="cls-2" d="M266.64,396.6c0,5.48.28,15.86.28,16.52,0,2-.56,2.36-2.73,2.36h-6c-2.17,0-2.74-.38-2.74-2.36,0-.66.28-11,.28-16.52V367.54c0-5.48-.28-15.86-.28-16.52,0-2,.57-2.36,2.74-2.36h6c2.17,0,2.73.38,2.73,2.36,0,.66-.28,11-.28,16.52v4.62c0,2.36.47,2.83,2.83,2.83h27.46c2.36,0,2.84-.47,2.84-2.83v-4.62c0-5.48-.29-15.86-.29-16.52,0-2,.57-2.36,2.74-2.36h6c2.17,0,2.74.38,2.74,2.36,0,.66-.29,11-.29,16.52V396.6c0,5.48.29,15.86.29,16.52,0,2-.57,2.36-2.74,2.36h-6c-2.17,0-2.74-.38-2.74-2.36,0-.66.29-11,.29-16.52v-8.68c0-2.36-.48-2.83-2.84-2.83H269.47c-2.36,0-2.83.47-2.83,2.83Z"/><path class="cls-2" d="M363.09,408.78a4.2,4.2,0,0,1,.57,1.79c0,.85-.57,1.32-1.89,2A35.27,35.27,0,0,1,346.29,416c-16.8,0-23.78-11-23.78-23.78,0-14.63,9.25-25.76,23.87-25.76,12.08,0,19.07,8.3,19.07,22.84,0,4.81-.76,5.56-3.21,5.56H335.53c-1.7,0-2.36.29-2.36,1.42a12.4,12.4,0,0,0,2,5.29c2.17,3.39,6,5.37,12.08,5.37a22.76,22.76,0,0,0,10.57-2.54,4.92,4.92,0,0,1,1.89-.76c.76,0,1.13.66,1.79,2Zm-7.83-23.88a10.63,10.63,0,0,0-1.33-4.43c-1.51-2.93-4.15-4.53-7.92-4.53a12,12,0,0,0-10.38,5.28,9,9,0,0,0-1.7,3.87c0,.75.66,1,2.17,1h16.7C354.5,386.13,355.16,385.84,355.26,384.9Z"/><path class="cls-2" d="M393.29,415.67c-1,.09-1.89.09-2.83.09-10.95,0-14.63-4.43-14.63-15.57V360.93c0-3.87-.19-12.08-.19-12.74,0-2,.56-2.36,2.74-2.36h5.47c2.17,0,2.74.38,2.74,2.36,0,.66-.19,8.49-.19,12.74v38.32c0,4.81,1,7.07,5.85,7.17.75,0,1.89-.19,2.36-.19.94,0,1.32.47,1.32,1.79v4.82C395.93,415,395.46,415.48,393.29,415.67Z"/><path class="cls-2" d="M422.92,415.67c-.94.09-1.89.09-2.83.09-10.95,0-14.63-4.43-14.63-15.57V360.93c0-3.87-.19-12.08-.19-12.74,0-2,.57-2.36,2.74-2.36h5.47c2.17,0,2.74.38,2.74,2.36,0,.66-.19,8.49-.19,12.74v38.32c0,4.81,1,7.07,5.85,7.17.76,0,1.89-.19,2.36-.19.94,0,1.32.47,1.32,1.79v4.82C425.56,415,425.09,415.48,422.92,415.67Z"/><path class="cls-2" d="M479.17,390.28c0,15.86-10.1,25.76-25,25.76-13.4,0-23.31-9.15-23.31-23.59,0-15.19,9.34-25.95,25-25.95C469.16,366.5,479.17,375.84,479.17,390.28Zm-37.38,2.27c0,8.68,5.29,14.34,12.65,14.34,8.12,0,13.78-6.32,13.78-15.76,0-8.87-5.47-14.44-12.84-14.44C446.51,376.69,441.79,383.49,441.79,392.55Z"/><path class="cls-2" d="M505,408.87a6.88,6.88,0,0,1-7.17,7.17c-3.68,0-6.42-2.45-6.42-6.13,0-4.06,2.55-7.45,7.08-7.45A6.32,6.32,0,0,1,505,408.87Zm-8.3-13.49c-2.36,0-2.83-.48-2.93-2.83l-.66-23.32c-.19-6.22-.66-16.7-.66-18.59,0-1.6.57-2,2.64-2h6.14c2.07,0,2.64.38,2.64,2,0,1.89-.47,12.37-.66,19.26l-.57,22.65c-.09,2.35-.56,2.83-2.92,2.83Z"/></svg>