<svg xmlns="http://www.w3.org/2000/svg" xmlns:xlink="http://www.w3.org/1999/xlink" viewBox="0 0 283.46 283.46"><defs><style>.cls-1{fill:#eaecf7;}.cls-2{fill:#949fd0;}.cls-3{isolation:isolate;}.cls-4{fill:#f4f5fa;}.cls-5{fill:#0a338c;}.cls-6{fill:#1d2d5b;}.cls-7{clip-path:url(#clip-path);}.cls-8{clip-path:url(#clip-path-2);}.cls-9{clip-path:url(#clip-path-3);}.cls-10{fill:url(#New_Gradient_Swatch_copy_2);}.cls-11{fill:#ccd1ea;}.cls-12{fill:#fff;}.cls-13{fill:#013b7b;}.cls-14{opacity:0.3;mix-blend-mode:multiply;}.cls-15{fill:#4c2882;}.cls-16{clip-path:url(#clip-path-4);}.cls-17{clip-path:url(#clip-path-5);}.cls-18{clip-path:url(#clip-path-6);}.cls-19{fill:#fcfbfd;}.cls-20{fill:#f1c121;}.cls-21{fill:#3665b0;}.cls-22{fill:#f5d641;}.cls-23{opacity:0.2;}.cls-24{fill:#7e88b8;}.cls-25{fill:#f5b217;}.cls-26{fill:#362d3c;}.cls-27{fill:#378ccc;}.cls-28{opacity:0.4;}.cls-29{fill:#b1b9dd;}.cls-30{fill:#bdc4e3;}.cls-31{fill:#eca582;}.cls-32{fill:#f8c4ab;}.cls-33{fill:#271d2c;}.cls-34{fill:#2a5aa9;}.cls-35{fill:#f3d352;}</style><clipPath id="clip-path"><path class="cls-1" d="M68.39,16.6l4.38-2.51a2.58,2.58,0,0,1,2.61.25L71,16.86A2.62,2.62,0,0,0,68.39,16.6Z"/></clipPath><clipPath id="clip-path-2"><path class="cls-2" d="M234.48,215.2l-4.38,2.52a2.58,2.58,0,0,0,1.07-2.36l4.38-2.52A2.58,2.58,0,0,1,234.48,215.2Z"/></clipPath><clipPath id="clip-path-3"><path class="cls-1" d="M227.79,107.38l4.38-2.52a8.12,8.12,0,0,1,3.67,6.35l-4.38,2.52A8.12,8.12,0,0,0,227.79,107.38Z"/></clipPath><linearGradient id="New_Gradient_Swatch_copy_2" x1="164.36" y1="77.76" x2="134.38" y2="158.52" gradientUnits="userSpaceOnUse"><stop offset="0" stop-color="#51a8de"/><stop offset="0.2" stop-color="#4d9fd8"/><stop offset="0.53" stop-color="#4187c8"/><stop offset="0.94" stop-color="#2f61ad"/><stop offset="1" stop-color="#2c5ba9"/></linearGradient><clipPath id="clip-path-4"><path class="cls-2" d="M179.07,256.83l0-.12,0-.13c0-.08.05-.16.07-.24a.61.61,0,0,1,0-.13l0-.12,0-.06,0-.12,0-.13v-.06l0-.12c-.17.6,1.92,2.33,5.25,4.27l-.33,1.23C181,259.17,178.91,257.44,179.07,256.83Z"/></clipPath><clipPath id="clip-path-5"><path class="cls-1" d="M203.56,241.9a7.77,7.77,0,0,1,4.38,0,19.53,19.53,0,0,1,5.37,2.19,3.44,3.44,0,0,0-2.86-.14C207.5,242.2,204.84,241.47,203.56,241.9Z"/></clipPath><clipPath id="clip-path-6"><path class="cls-1" d="M189.82,246.29l13.76-4.4c1.28-.41,3.93.32,6.87,2l-13.77,4.4C193.74,246.61,191.1,245.88,189.82,246.29Z"/></clipPath></defs><g class="cls-3"><g id="レイヤー_1" data-name="レイヤー 1"><polygon class="cls-1" points="105.29 174.28 103.9 174.15 104.08 174.04 105.48 174.17 105.29 174.28"/><g class="cls-3"><path class="cls-1" d="M105.48,174.17l-1.4-.13c.39-.22.79-.43,1.22-.62l1.19.24c-.35.16-.69.33-1,.51Z"/><path class="cls-1" d="M106.49,173.66l-1.19-.24a19.18,19.18,0,0,1,10.6-1.12c16.6,2.83,30.8,7.66,42.09,14.17l-1.38.14c-11.05-6.38-25.42-11.06-41.26-13.89a16,16,0,0,0-8.86.94Z"/></g><path class="cls-2" d="M182.84,212.3v2.93c0,1.79-1.21,3.55-3.46,4.85v-2.92c2.24-1.31,3.46-3.06,3.46-4.86Z"/><path class="cls-1" d="M156.61,186.61l1.38-.14a74.27,74.27,0,0,1,13.43,9.81l-1.69,0a69.8,69.8,0,0,0-13.12-9.69Z"/><path class="cls-1" d="M169.73,196.3l1.69,0a53.33,53.33,0,0,1,10.89,14c1.3,2.44.17,5.1-2.93,6.9L178,215.68c2.59-1.5,3.53-3.72,2.45-5.76a56.6,56.6,0,0,0-10.71-13.62Z"/><polygon class="cls-2" points="179.38 217.16 179.37 220.08 179.11 220.24 179.12 217.31 179.38 217.16"/><polygon class="cls-1" points="177.99 215.69 179.38 217.16 179.12 217.31 177.72 215.84 177.99 215.69"/><path class="cls-4" d="M156.61,186.61c10.84,6.25,18.86,14.37,23.83,23.31,1.08,2,.14,4.26-2.45,5.76l-.26.16a15.51,15.51,0,0,1-14.09,0,7,7,0,0,1-2.18-1.87c-5-7.12-12.12-13-20.88-18a113.9,113.9,0,0,0-31.9-12.21,12,12,0,0,1-3.31-1.28c-3.75-2.16-4.12-5.81-.08-8.16l.19-.11a15.43,15.43,0,0,1,9.87-1.45C131.19,175.55,145.56,180.23,156.61,186.61Z"/><path class="cls-2" d="M179.12,217.31v2.92c-4.84,2.82-12.38,2.58-16.86,0a8.43,8.43,0,0,1-2.61-2.23c-5-6.78-11.88-12.71-20.46-17.66a117.09,117.09,0,0,0-31.25-12,14.74,14.74,0,0,1-4-1.52c-2.31-1.33-3.54-3.14-3.54-5V179c0,1.82,1.23,3.63,3.54,5a14.74,14.74,0,0,0,4,1.52,117.22,117.22,0,0,1,31.25,12,65.85,65.85,0,0,1,20.46,17.66,8.55,8.55,0,0,0,2.6,2.24c4.48,2.59,12,2.82,16.87,0Z"/><g class="cls-3"><path class="cls-1" d="M177.73,215.84l1.39,1.47a14,14,0,0,1-3.12,1.31l-.87-1.69a11.79,11.79,0,0,0,2.6-1.09Z"/><path class="cls-1" d="M175.13,216.93l.87,1.69a19.07,19.07,0,0,1-13.39-1.13l1.32-1.5a16,16,0,0,0,11.2.94Z"/><path class="cls-1" d="M163.93,216l-1.32,1.5-.36-.19a8.55,8.55,0,0,1-2.6-2.24,65.85,65.85,0,0,0-20.46-17.66c-1-.57-2-1.14-3.06-1.68l1.34-1.52c1.05.57,2.09,1.14,3.11,1.73,8.76,5.06,15.84,10.9,20.88,18a7,7,0,0,0,2.18,1.87l.29.17Z"/><path class="cls-1" d="M137.47,194.2l-1.34,1.52a120.94,120.94,0,0,0-28.19-10.28,15.28,15.28,0,0,1-3.6-1.32l1.33-1.51a12.87,12.87,0,0,0,3,1.11,116.45,116.45,0,0,1,28.79,10.48Z"/><path class="cls-1" d="M105.67,182.61l-1.33,1.51-.36-.2c-4.48-2.59-4.93-7-.08-9.77l1.39.13c-4,2.35-3.67,6,.08,8.16l.3.17Z"/></g><g class="cls-3"><polygon class="cls-5" points="161.82 195.1 165.4 193.01 156.47 142.38 152.89 144.47 161.82 195.1"/><polygon class="cls-6" points="152.89 144.47 156.47 142.38 131.03 127.76 127.45 129.85 152.89 144.47"/><polygon class="cls-5" points="127.45 129.85 136.38 180.48 161.82 195.1 152.89 144.47 127.45 129.85"/></g><g class="cls-3"><path class="cls-1" d="M68.39,16.6l4.38-2.51a2.58,2.58,0,0,1,2.61.25L71,16.86A2.62,2.62,0,0,0,68.39,16.6Z"/><g class="cls-7"><g class="cls-3"><path class="cls-1" d="M68.39,16.6l4.38-2.51a2.58,2.58,0,0,1,2.61.25L71,16.86a2.62,2.62,0,0,0-2.62-.26Z"/></g></g><path class="cls-2" d="M234.48,215.2l-4.38,2.52a2.58,2.58,0,0,0,1.07-2.36l4.38-2.52A2.58,2.58,0,0,1,234.48,215.2Z"/><g class="cls-8"><g class="cls-3"><path class="cls-2" d="M231.17,215.36l4.38-2.52a2.58,2.58,0,0,1-1.07,2.36l-4.38,2.52a2.58,2.58,0,0,0,1.07-2.36Z"/></g></g><polygon class="cls-2" points="231.46 113.73 235.84 111.21 235.55 212.84 231.17 215.35 231.46 113.73"/><polygon class="cls-1" points="71 16.86 75.39 14.34 232.17 104.86 227.79 107.38 71 16.86"/><path class="cls-1" d="M227.79,107.38l4.38-2.52a8.12,8.12,0,0,1,3.67,6.35l-4.38,2.52A8.12,8.12,0,0,0,227.79,107.38Z"/><g class="cls-9"><g class="cls-3"><path class="cls-1" d="M227.79,107.38l4.38-2.52a8.12,8.12,0,0,1,3.67,6.35l-4.38,2.52a8.12,8.12,0,0,0-3.67-6.35Z"/></g></g><path class="cls-4" d="M227.79,107.38a8.12,8.12,0,0,1,3.67,6.35l-.29,101.63c0,2.33-1.66,3.27-3.69,2.1L70.69,126.94A8.09,8.09,0,0,1,67,120.59L67.31,19c0-2.33,1.66-3.27,3.7-2.1Z"/><path class="cls-1" d="M228.45,113.72l-.28,99.14v1.51l-156-90A5.14,5.14,0,0,1,70,120.6L70.32,20l1.27.73L226.28,110A5.15,5.15,0,0,1,228.45,113.72Z"/><path class="cls-10" d="M228.45,113.72l-.28,99.14L73.47,123.54a5.13,5.13,0,0,1-2.15-3.73l.27-99.13L226.28,110A5.15,5.15,0,0,1,228.45,113.72Z"/><polygon class="cls-11" points="76.69 119.2 76.94 29.98 223.07 114.34 222.82 203.56 76.69 119.2"/><polygon class="cls-12" points="176.91 119.3 176.91 173.11 218.27 196.99 218.51 143.31 176.91 119.3"/><polygon class="cls-12" points="159.7 82.24 112.29 54.87 112.29 64.72 159.7 92.09 159.7 82.24"/><polygon class="cls-12" points="163.39 84.37 163.39 94.22 218.27 125.91 218.51 116.19 163.39 84.37"/><polygon class="cls-13" points="109.2 48.6 109.2 137.96 76.69 119.2 76.81 79.66 76.83 69.66 76.95 29.98 109.2 48.6"/></g><g class="cls-14"><polygon class="cls-15" points="102.69 206.49 79.78 193.66 63.73 207 102.69 206.49"/></g><g class="cls-3"><polygon class="cls-4" points="47.63 218.81 47.95 220.11 133.83 269.17 133.51 267.87 47.63 218.81"/><polygon class="cls-2" points="133.51 267.87 133.83 269.17 167.41 242.19 167.06 238.97 133.51 267.87"/><polygon class="cls-1" points="47.63 218.81 133.51 267.87 167.06 238.97 81.18 189.91 47.63 218.81"/></g><g class="cls-3"><polygon class="cls-11" points="78.03 193.33 78.24 194.19 82.83 196.81 82.61 195.94 78.03 193.33"/><polygon class="cls-2" points="82.61 195.94 82.83 196.81 85.26 194.72 85.04 193.85 82.61 195.94"/><polygon class="cls-4" points="78.03 193.33 82.61 195.94 85.04 193.85 80.46 191.23 78.03 193.33"/></g><g class="cls-3"><polygon class="cls-11" points="71.89 199.01 72.11 199.88 76.69 202.5 76.48 201.63 71.89 199.01"/><polygon class="cls-2" points="76.48 201.63 76.69 202.5 81.15 198.66 80.94 197.79 76.48 201.63"/><polygon class="cls-4" points="71.89 199.01 76.48 201.63 80.94 197.79 76.35 195.17 71.89 199.01"/></g><g class="cls-3"><polygon class="cls-11" points="83.81 196.63 84.02 197.5 88.61 200.12 88.39 199.25 83.81 196.63"/><polygon class="cls-2" points="88.39 199.25 88.61 200.12 91.04 198.02 90.82 197.15 88.39 199.25"/><polygon class="cls-4" points="83.81 196.63 88.39 199.25 90.82 197.15 86.24 194.53 83.81 196.63"/></g><g class="cls-3"><polygon class="cls-11" points="77.45 202.18 77.67 203.05 82.25 205.67 82.03 204.8 77.45 202.18"/><polygon class="cls-2" points="82.03 204.8 82.25 205.67 86.71 201.83 86.49 200.96 82.03 204.8"/><polygon class="cls-4" points="77.45 202.18 82.03 204.8 86.49 200.96 81.91 198.34 77.45 202.18"/></g><g class="cls-3"><polygon class="cls-11" points="89.59 199.93 89.8 200.8 94.39 203.42 94.17 202.55 89.59 199.93"/><polygon class="cls-2" points="94.17 202.55 94.39 203.42 96.82 201.32 96.61 200.45 94.17 202.55"/><polygon class="cls-4" points="89.59 199.93 94.17 202.55 96.61 200.45 92.02 197.83 89.59 199.93"/></g><g class="cls-3"><polygon class="cls-11" points="83 205.36 83.22 206.23 87.81 208.84 87.59 207.98 83 205.36"/><polygon class="cls-2" points="87.59 207.98 87.81 208.84 92.27 205 92.05 204.13 87.59 207.98"/><polygon class="cls-4" points="83 205.36 87.59 207.98 92.05 204.13 87.47 201.52 83 205.36"/></g><g class="cls-3"><polygon class="cls-11" points="95.37 203.23 95.59 204.1 100.17 206.72 99.95 205.85 95.37 203.23"/><polygon class="cls-2" points="99.95 205.85 100.17 206.72 102.6 204.62 102.39 203.75 99.95 205.85"/><polygon class="cls-4" points="95.37 203.23 99.95 205.85 102.39 203.75 97.8 201.14 95.37 203.23"/></g><g class="cls-3"><polygon class="cls-11" points="88.56 208.53 88.78 209.4 93.36 212.02 93.14 211.15 88.56 208.53"/><polygon class="cls-2" points="93.14 211.15 93.36 212.02 97.82 208.18 97.6 207.31 93.14 211.15"/><polygon class="cls-4" points="88.56 208.53 93.14 211.15 97.6 207.31 93.02 204.69 88.56 208.53"/></g><g class="cls-3"><polygon class="cls-11" points="94.12 211.71 94.33 212.57 98.92 215.19 98.7 214.32 94.12 211.71"/><polygon class="cls-2" points="98.7 214.32 98.92 215.19 103.38 211.35 103.16 210.48 98.7 214.32"/><polygon class="cls-4" points="94.12 211.71 98.7 214.32 103.16 210.48 98.58 207.86 94.12 211.71"/></g><g class="cls-3"><polygon class="cls-11" points="104.04 208.19 104.26 209.05 108.84 211.67 108.62 210.8 104.04 208.19"/><polygon class="cls-2" points="108.62 210.8 108.84 211.67 111.27 209.58 111.06 208.71 108.62 210.8"/><polygon class="cls-4" points="104.04 208.19 108.62 210.8 111.06 208.71 106.47 206.09 104.04 208.19"/></g><g class="cls-3"><polygon class="cls-11" points="99.67 214.88 99.89 215.75 104.47 218.37 104.26 217.5 99.67 214.88"/><polygon class="cls-2" points="104.26 217.5 104.47 218.37 108.93 214.52 108.72 213.66 104.26 217.5"/><polygon class="cls-4" points="99.67 214.88 104.26 217.5 108.72 213.66 104.13 211.04 99.67 214.88"/></g><g class="cls-3"><polygon class="cls-11" points="109.82 211.49 110.04 212.36 114.62 214.97 114.4 214.11 109.82 211.49"/><polygon class="cls-2" points="114.4 214.11 114.62 214.97 117.05 212.88 116.84 212.01 114.4 214.11"/><polygon class="cls-4" points="109.82 211.49 114.4 214.11 116.84 212.01 112.25 209.39 109.82 211.49"/></g><g class="cls-3"><polygon class="cls-11" points="105.23 218.05 105.44 218.92 110.03 221.54 109.81 220.67 105.23 218.05"/><polygon class="cls-2" points="109.81 220.67 110.03 221.54 114.49 217.7 114.27 216.83 109.81 220.67"/><polygon class="cls-4" points="105.23 218.05 109.81 220.67 114.27 216.83 109.69 214.21 105.23 218.05"/></g><g class="cls-3"><polygon class="cls-11" points="115.6 214.79 115.82 215.66 120.4 218.28 120.19 217.41 115.6 214.79"/><polygon class="cls-2" points="120.19 217.41 120.4 218.28 122.84 216.18 122.62 215.31 120.19 217.41"/><polygon class="cls-4" points="115.6 214.79 120.19 217.41 122.62 215.31 118.03 212.69 115.6 214.79"/></g><g class="cls-3"><polygon class="cls-11" points="110.78 221.23 111 222.09 115.58 224.71 115.37 223.84 110.78 221.23"/><polygon class="cls-2" points="115.37 223.84 115.58 224.71 120.05 220.87 119.83 220 115.37 223.84"/><polygon class="cls-4" points="110.78 221.23 115.37 223.84 119.83 220 115.24 217.38 110.78 221.23"/></g><g class="cls-3"><polygon class="cls-11" points="121.38 218.09 121.6 218.96 126.18 221.58 125.97 220.71 121.38 218.09"/><polygon class="cls-2" points="125.97 220.71 126.18 221.58 128.62 219.48 128.4 218.62 125.97 220.71"/><polygon class="cls-4" points="121.38 218.09 125.97 220.71 128.4 218.62 123.82 216 121.38 218.09"/></g><g class="cls-3"><polygon class="cls-11" points="116.34 224.4 116.56 225.27 121.14 227.89 120.92 227.02 116.34 224.4"/><polygon class="cls-2" points="120.92 227.02 121.14 227.89 125.6 224.04 125.38 223.18 120.92 227.02"/><polygon class="cls-4" points="116.34 224.4 120.92 227.02 125.38 223.18 120.8 220.56 116.34 224.4"/></g><g class="cls-3"><polygon class="cls-11" points="130.05 223.04 130.27 223.91 134.85 226.53 134.64 225.66 130.05 223.04"/><polygon class="cls-2" points="134.64 225.66 134.85 226.53 137.29 224.44 137.07 223.57 134.64 225.66"/><polygon class="cls-4" points="130.05 223.04 134.64 225.66 137.07 223.57 132.49 220.95 130.05 223.04"/></g><g class="cls-3"><polygon class="cls-11" points="121.9 227.57 122.11 228.44 126.7 231.06 126.48 230.19 121.9 227.57"/><polygon class="cls-2" points="126.48 230.19 126.7 231.06 131.16 227.22 130.94 226.35 126.48 230.19"/><polygon class="cls-4" points="121.9 227.57 126.48 230.19 130.94 226.35 126.36 223.73 121.9 227.57"/></g><g class="cls-3"><polygon class="cls-11" points="135.83 226.35 136.05 227.22 140.63 229.83 140.42 228.97 135.83 226.35"/><polygon class="cls-2" points="140.42 228.97 140.63 229.83 143.07 227.74 142.85 226.87 140.42 228.97"/><polygon class="cls-4" points="135.83 226.35 140.42 228.97 142.85 226.87 138.27 224.25 135.83 226.35"/></g><g class="cls-3"><polygon class="cls-11" points="127.45 230.75 127.67 231.62 132.25 234.23 132.04 233.37 127.45 230.75"/><polygon class="cls-2" points="132.04 233.37 132.25 234.23 136.71 230.39 136.5 229.52 132.04 233.37"/><polygon class="cls-4" points="127.45 230.75 132.04 233.37 136.5 229.52 131.91 226.91 127.45 230.75"/></g><g class="cls-3"><polygon class="cls-11" points="141.62 229.65 141.83 230.52 146.41 233.14 146.2 232.27 141.62 229.65"/><polygon class="cls-2" points="146.2 232.27 146.41 233.14 148.85 231.04 148.63 230.17 146.2 232.27"/><polygon class="cls-4" points="141.62 229.65 146.2 232.27 148.63 230.17 144.05 227.55 141.62 229.65"/></g><g class="cls-3"><polygon class="cls-11" points="133.01 233.92 133.22 234.79 137.81 237.41 137.59 236.54 133.01 233.92"/><polygon class="cls-2" points="137.59 236.54 137.81 237.41 142.27 233.57 142.05 232.7 137.59 236.54"/><polygon class="cls-4" points="133.01 233.92 137.59 236.54 142.05 232.7 137.47 230.08 133.01 233.92"/></g><g class="cls-3"><polygon class="cls-11" points="147.4 232.95 147.61 233.82 152.2 236.44 151.98 235.57 147.4 232.95"/><polygon class="cls-2" points="151.98 235.57 152.2 236.44 154.63 234.34 154.41 233.47 151.98 235.57"/><polygon class="cls-4" points="147.4 232.95 151.98 235.57 154.41 233.47 149.83 230.85 147.4 232.95"/></g><g class="cls-3"><polygon class="cls-11" points="138.56 237.09 138.78 237.96 143.37 240.58 143.15 239.71 138.56 237.09"/><polygon class="cls-2" points="143.15 239.71 143.37 240.58 147.82 236.74 147.61 235.87 143.15 239.71"/><polygon class="cls-4" points="138.56 237.09 143.15 239.71 147.61 235.87 143.02 233.25 138.56 237.09"/></g><g class="cls-3"><polygon class="cls-11" points="144.12 240.27 144.34 241.14 148.92 243.75 148.7 242.89 144.12 240.27"/><polygon class="cls-2" points="148.7 242.89 148.92 243.75 153.38 239.91 153.16 239.04 148.7 242.89"/><polygon class="cls-4" points="144.12 240.27 148.7 242.89 153.16 239.04 148.58 236.43 144.12 240.27"/></g><g class="cls-3"><polygon class="cls-11" points="156.09 237.92 156.31 238.79 160.89 241.4 160.67 240.54 156.09 237.92"/><polygon class="cls-2" points="160.67 240.54 160.89 241.4 163.32 239.31 163.11 238.44 160.67 240.54"/><polygon class="cls-4" points="156.09 237.92 160.67 240.54 163.11 238.44 158.52 235.82 156.09 237.92"/></g><g class="cls-3"><polygon class="cls-11" points="149.68 243.44 149.89 244.31 154.48 246.93 154.26 246.06 149.68 243.44"/><polygon class="cls-2" points="154.26 246.06 154.48 246.93 158.94 243.09 158.72 242.22 154.26 246.06"/><polygon class="cls-4" points="149.68 243.44 154.26 246.06 158.72 242.22 154.14 239.6 149.68 243.44"/></g><g class="cls-3"><polygon class="cls-11" points="71.16 206.21 71.37 207.08 74.15 208.67 73.93 207.8 71.16 206.21"/><polygon class="cls-2" points="73.93 207.8 74.15 208.67 78.61 204.83 78.39 203.96 73.93 207.8"/><polygon class="cls-11" points="61.25 208.18 61.47 209.05 66.05 211.66 65.83 210.79 61.25 208.18"/><polygon class="cls-4" points="61.25 208.18 65.83 210.79 71.16 206.21 73.93 207.8 78.39 203.96 71.03 199.75 69.47 201.1 66.57 203.59 61.25 208.18"/><polygon class="cls-2" points="65.83 210.79 66.05 211.66 71.37 207.08 71.16 206.21 65.83 210.79"/><polygon class="cls-2" points="79.49 210.97 79.71 211.84 84.17 208 83.95 207.13 79.49 210.97"/><polygon class="cls-11" points="74.91 208.35 75.12 209.22 79.71 211.84 79.49 210.97 74.91 208.35"/><polygon class="cls-4" points="74.91 208.35 79.49 210.97 83.95 207.13 79.36 204.51 74.91 208.35"/><polygon class="cls-11" points="66.81 211.35 67.02 212.22 71.61 214.84 71.39 213.97 66.81 211.35"/><polygon class="cls-4" points="66.81 211.35 71.39 213.97 75.85 210.13 71.27 207.51 66.81 211.35"/><polygon class="cls-2" points="71.39 213.97 71.61 214.84 76.07 211 75.85 210.13 71.39 213.97"/></g><g class="cls-3"><polygon class="cls-11" points="80.46 211.53 80.68 212.4 85.26 215.01 85.05 214.15 80.46 211.53"/><polygon class="cls-2" points="85.05 214.15 85.26 215.01 89.72 211.17 89.5 210.31 85.05 214.15"/><polygon class="cls-4" points="80.46 211.53 85.05 214.15 89.5 210.31 84.92 207.69 80.46 211.53"/></g><g class="cls-3"><polygon class="cls-11" points="86.02 214.7 86.23 215.57 90.82 218.19 90.6 217.32 86.02 214.7"/><polygon class="cls-2" points="90.6 217.32 90.82 218.19 95.28 214.35 95.06 213.48 90.6 217.32"/><polygon class="cls-4" points="86.02 214.7 90.6 217.32 95.06 213.48 90.48 210.86 86.02 214.7"/></g><g class="cls-3"><polygon class="cls-11" points="91.57 217.88 91.79 218.74 96.37 221.36 96.16 220.49 91.57 217.88"/><polygon class="cls-2" points="96.16 220.49 96.37 221.36 100.83 217.52 100.62 216.65 96.16 220.49"/><polygon class="cls-4" points="91.57 217.88 96.16 220.49 100.62 216.65 96.03 214.03 91.57 217.88"/></g><g class="cls-3"><polygon class="cls-11" points="97.13 221.05 97.35 221.92 101.93 224.54 101.71 223.67 97.13 221.05"/><polygon class="cls-2" points="101.71 223.67 101.93 224.54 106.39 220.69 106.17 219.82 101.71 223.67"/><polygon class="cls-4" points="97.13 221.05 101.71 223.67 106.17 219.82 101.59 217.21 97.13 221.05"/></g><g class="cls-3"><polygon class="cls-11" points="72.36 214.52 72.58 215.39 77.16 218.01 76.95 217.14 72.36 214.52"/><polygon class="cls-2" points="76.95 217.14 77.16 218.01 81.62 214.17 81.41 213.3 76.95 217.14"/><polygon class="cls-4" points="72.36 214.52 76.95 217.14 81.41 213.3 76.82 210.68 72.36 214.52"/></g><g class="cls-3"><polygon class="cls-11" points="77.92 217.7 78.14 218.57 82.72 221.19 82.5 220.32 77.92 217.7"/><polygon class="cls-2" points="82.5 220.32 82.72 221.19 87.18 217.34 86.96 216.47 82.5 220.32"/><polygon class="cls-4" points="77.92 217.7 82.5 220.32 86.96 216.47 82.38 213.86 77.92 217.7"/></g><g class="cls-3"><polygon class="cls-11" points="83.47 220.87 83.69 221.74 88.28 224.36 88.06 223.49 83.47 220.87"/><polygon class="cls-2" points="88.06 223.49 88.28 224.36 92.73 220.52 92.52 219.65 88.06 223.49"/><polygon class="cls-4" points="83.47 220.87 88.06 223.49 92.52 219.65 87.93 217.03 83.47 220.87"/></g><g class="cls-3"><polygon class="cls-11" points="89.03 224.04 89.25 224.91 93.83 227.53 93.61 226.66 89.03 224.04"/><polygon class="cls-2" points="93.61 226.66 93.83 227.53 98.29 223.69 98.07 222.82 93.61 226.66"/><polygon class="cls-4" points="89.03 224.04 93.61 226.66 98.07 222.82 93.49 220.2 89.03 224.04"/></g><g class="cls-3"><polygon class="cls-11" points="102.69 224.22 102.9 225.09 107.49 227.71 107.27 226.84 102.69 224.22"/><polygon class="cls-2" points="107.27 226.84 107.49 227.71 111.95 223.87 111.73 223 107.27 226.84"/><polygon class="cls-4" points="102.69 224.22 107.27 226.84 111.73 223 107.14 220.38 102.69 224.22"/></g><g class="cls-3"><polygon class="cls-11" points="94.59 227.22 94.8 228.09 99.39 230.71 99.17 229.84 94.59 227.22"/><polygon class="cls-2" points="99.17 229.84 99.39 230.71 103.85 226.87 103.63 226 99.17 229.84"/><polygon class="cls-4" points="94.59 227.22 99.17 229.84 103.63 226 99.05 223.38 94.59 227.22"/></g><g class="cls-3"><polygon class="cls-11" points="108.24 227.4 108.46 228.26 113.04 230.88 112.83 230.01 108.24 227.4"/><polygon class="cls-2" points="112.83 230.01 113.04 230.88 117.5 227.04 117.28 226.17 112.83 230.01"/><polygon class="cls-4" points="108.24 227.4 112.83 230.01 117.28 226.17 112.7 223.55 108.24 227.4"/></g><g class="cls-3"><polygon class="cls-11" points="100.14 230.39 100.36 231.26 104.94 233.88 104.72 233.01 100.14 230.39"/><polygon class="cls-2" points="104.72 233.01 104.94 233.88 109.4 230.04 109.19 229.17 104.72 233.01"/><polygon class="cls-4" points="100.14 230.39 104.72 233.01 109.19 229.17 104.6 226.55 100.14 230.39"/></g><g class="cls-3"><polygon class="cls-11" points="113.8 230.57 114.01 231.44 118.6 234.06 118.38 233.19 113.8 230.57"/><polygon class="cls-2" points="118.38 233.19 118.6 234.06 123.06 230.22 122.84 229.35 118.38 233.19"/><polygon class="cls-4" points="113.8 230.57 118.38 233.19 122.84 229.35 118.26 226.73 113.8 230.57"/></g><g class="cls-3"><polygon class="cls-11" points="105.7 233.57 105.92 234.44 110.5 237.05 110.28 236.19 105.7 233.57"/><polygon class="cls-2" points="110.28 236.19 110.5 237.05 114.96 233.21 114.74 232.34 110.28 236.19"/><polygon class="cls-4" points="105.7 233.57 110.28 236.19 114.74 232.34 110.16 229.72 105.7 233.57"/></g><g class="cls-3"><polygon class="cls-11" points="119.35 233.74 119.57 234.61 124.15 237.23 123.94 236.36 119.35 233.74"/><polygon class="cls-2" points="123.94 236.36 124.15 237.23 128.61 233.39 128.4 232.52 123.94 236.36"/><polygon class="cls-4" points="119.35 233.74 123.94 236.36 128.4 232.52 123.81 229.9 119.35 233.74"/></g><g class="cls-3"><polygon class="cls-11" points="111.25 236.74 111.47 237.61 116.05 240.23 115.84 239.36 111.25 236.74"/><polygon class="cls-2" points="115.84 239.36 116.05 240.23 120.51 236.38 120.3 235.52 115.84 239.36"/><polygon class="cls-4" points="111.25 236.74 115.84 239.36 120.3 235.52 115.71 232.9 111.25 236.74"/></g><g class="cls-3"><polygon class="cls-11" points="124.91 236.92 125.13 237.79 129.71 240.4 129.49 239.53 124.91 236.92"/><polygon class="cls-2" points="129.49 239.53 129.71 240.4 134.17 236.56 133.95 235.69 129.49 239.53"/><polygon class="cls-4" points="124.91 236.92 129.49 239.53 133.95 235.69 129.37 233.07 124.91 236.92"/></g><g class="cls-3"><polygon class="cls-11" points="116.81 239.91 117.03 240.78 121.61 243.4 121.39 242.53 116.81 239.91"/><polygon class="cls-2" points="121.39 242.53 121.61 243.4 126.07 239.56 125.85 238.69 121.39 242.53"/><polygon class="cls-4" points="116.81 239.91 121.39 242.53 125.85 238.69 121.27 236.07 116.81 239.91"/></g><g class="cls-3"><polygon class="cls-11" points="130.47 240.09 130.68 240.96 135.27 243.58 135.05 242.71 130.47 240.09"/><polygon class="cls-2" points="135.05 242.71 135.27 243.58 139.73 239.74 139.51 238.87 135.05 242.71"/><polygon class="cls-4" points="130.47 240.09 135.05 242.71 139.51 238.87 134.93 236.25 130.47 240.09"/></g><g class="cls-3"><polygon class="cls-11" points="122.36 243.09 122.58 243.96 127.17 246.57 126.95 245.71 122.36 243.09"/><polygon class="cls-2" points="126.95 245.71 127.17 246.57 131.63 242.73 131.41 241.86 126.95 245.71"/><polygon class="cls-4" points="122.36 243.09 126.95 245.71 131.41 241.86 126.83 239.25 122.36 243.09"/></g><g class="cls-3"><polygon class="cls-11" points="136.02 243.26 136.24 244.13 149.16 251.51 148.94 250.64 136.02 243.26"/><polygon class="cls-2" points="148.94 250.64 149.16 251.51 153.62 247.67 153.4 246.8 148.94 250.64"/><polygon class="cls-4" points="136.02 243.26 148.94 250.64 153.4 246.8 140.48 239.42 136.02 243.26"/></g><g class="cls-3"><polygon class="cls-11" points="127.92 246.26 128.14 247.13 132.72 249.75 132.5 248.88 127.92 246.26"/><polygon class="cls-2" points="132.5 248.88 132.72 249.75 137.18 245.91 136.97 245.04 132.5 248.88"/><polygon class="cls-4" points="127.92 246.26 132.5 248.88 136.97 245.04 132.38 242.42 127.92 246.26"/></g><g class="cls-3"><polygon class="cls-11" points="55.93 212.76 56.15 213.63 63.51 217.83 63.29 216.97 55.93 212.76"/><polygon class="cls-2" points="63.29 216.97 63.51 217.83 67.97 213.99 67.75 213.12 63.29 216.97"/><polygon class="cls-4" points="55.93 212.76 63.29 216.97 67.75 213.12 60.39 208.92 55.93 212.76"/></g><g class="cls-3"><polygon class="cls-11" points="64.26 217.52 64.48 218.39 69.06 221.01 68.85 220.14 64.26 217.52"/><polygon class="cls-2" points="68.85 220.14 69.06 221.01 73.52 217.17 73.31 216.3 68.85 220.14"/><polygon class="cls-4" points="64.26 217.52 68.85 220.14 73.31 216.3 68.72 213.68 64.26 217.52"/></g><g class="cls-3"><polygon class="cls-11" points="69.82 220.69 70.03 221.56 74.62 224.18 74.4 223.31 69.82 220.69"/><polygon class="cls-2" points="74.4 223.31 74.62 224.18 79.08 220.34 78.86 219.47 74.4 223.31"/><polygon class="cls-4" points="69.82 220.69 74.4 223.31 78.86 219.47 74.28 216.85 69.82 220.69"/></g><g class="cls-3"><polygon class="cls-11" points="75.38 223.87 75.59 224.74 80.17 227.35 79.96 226.49 75.38 223.87"/><polygon class="cls-2" points="79.96 226.49 80.17 227.35 84.64 223.51 84.42 222.65 79.96 226.49"/><polygon class="cls-4" points="75.38 223.87 79.96 226.49 84.42 222.65 79.83 220.03 75.38 223.87"/></g><g class="cls-3"><polygon class="cls-11" points="80.93 227.04 81.15 227.91 85.73 230.53 85.51 229.66 80.93 227.04"/><polygon class="cls-2" points="85.51 229.66 85.73 230.53 90.19 226.69 89.97 225.82 85.51 229.66"/><polygon class="cls-4" points="80.93 227.04 85.51 229.66 89.97 225.82 85.39 223.2 80.93 227.04"/></g><g class="cls-3"><polygon class="cls-11" points="86.49 230.22 86.7 231.08 91.29 233.7 91.07 232.83 86.49 230.22"/><polygon class="cls-2" points="91.07 232.83 91.29 233.7 95.75 229.86 95.53 228.99 91.07 232.83"/><polygon class="cls-4" points="86.49 230.22 91.07 232.83 95.53 228.99 90.95 226.37 86.49 230.22"/></g><g class="cls-3"><polygon class="cls-11" points="92.04 233.39 92.26 234.26 96.84 236.88 96.63 236.01 92.04 233.39"/><polygon class="cls-2" points="96.63 236.01 96.84 236.88 101.3 233.03 101.09 232.17 96.63 236.01"/><polygon class="cls-4" points="92.04 233.39 96.63 236.01 101.09 232.17 96.5 229.55 92.04 233.39"/></g><g class="cls-3"><polygon class="cls-11" points="97.6 236.56 97.81 237.43 102.4 240.05 102.18 239.18 97.6 236.56"/><polygon class="cls-2" points="102.18 239.18 102.4 240.05 106.86 236.21 106.64 235.34 102.18 239.18"/><polygon class="cls-4" points="97.6 236.56 102.18 239.18 106.64 235.34 102.06 232.72 97.6 236.56"/></g><g class="cls-3"><polygon class="cls-11" points="103.15 239.74 103.37 240.6 107.95 243.22 107.74 242.35 103.15 239.74"/><polygon class="cls-2" points="107.74 242.35 107.95 243.22 112.42 239.38 112.2 238.51 107.74 242.35"/><polygon class="cls-4" points="103.15 239.74 107.74 242.35 112.2 238.51 107.61 235.9 103.15 239.74"/></g><g class="cls-3"><polygon class="cls-11" points="108.71 242.91 108.93 243.78 113.51 246.4 113.29 245.53 108.71 242.91"/><polygon class="cls-2" points="113.29 245.53 113.51 246.4 117.97 242.56 117.75 241.69 113.29 245.53"/><polygon class="cls-4" points="108.71 242.91 113.29 245.53 117.75 241.69 113.17 239.07 108.71 242.91"/></g><g class="cls-3"><polygon class="cls-11" points="114.27 246.08 114.48 246.95 119.07 249.57 118.85 248.7 114.27 246.08"/><polygon class="cls-2" points="118.85 248.7 119.07 249.57 123.53 245.73 123.31 244.86 118.85 248.7"/><polygon class="cls-4" points="114.27 246.08 118.85 248.7 123.31 244.86 118.73 242.24 114.27 246.08"/></g><g class="cls-3"><polygon class="cls-11" points="119.82 249.26 120.04 250.13 124.62 252.74 124.41 251.88 119.82 249.26"/><polygon class="cls-2" points="124.41 251.88 124.62 252.74 129.08 248.9 128.87 248.03 124.41 251.88"/><polygon class="cls-4" points="119.82 249.26 124.41 251.88 128.87 248.03 124.28 245.42 119.82 249.26"/></g><g class="cls-3"><polygon class="cls-11" points="50.61 217.34 50.82 218.21 60.96 224 60.75 223.13 50.61 217.34"/><polygon class="cls-2" points="60.75 223.13 60.96 224 65.42 220.16 65.21 219.29 60.75 223.13"/><polygon class="cls-4" points="50.61 217.34 60.75 223.13 65.21 219.29 55.07 213.5 50.61 217.34"/></g><g class="cls-3"><polygon class="cls-11" points="61.72 223.69 61.94 224.56 66.52 227.18 66.3 226.31 61.72 223.69"/><polygon class="cls-2" points="66.3 226.31 66.52 227.18 70.98 223.34 70.76 222.47 66.3 226.31"/><polygon class="cls-4" points="61.72 223.69 66.3 226.31 70.76 222.47 66.18 219.85 61.72 223.69"/></g><g class="cls-3"><polygon class="cls-11" points="67.28 226.86 67.49 227.73 72.08 230.35 71.86 229.48 67.28 226.86"/><polygon class="cls-2" points="71.86 229.48 72.08 230.35 76.54 226.51 76.32 225.64 71.86 229.48"/><polygon class="cls-4" points="67.28 226.86 71.86 229.48 76.32 225.64 71.73 223.02 67.28 226.86"/></g><g class="cls-3"><polygon class="cls-11" points="72.83 230.04 73.05 230.91 110.97 252.57 110.75 251.7 72.83 230.04"/><polygon class="cls-2" points="110.75 251.7 110.97 252.57 115.43 248.73 115.21 247.86 110.75 251.7"/><polygon class="cls-4" points="72.83 230.04 110.75 251.7 115.21 247.86 77.29 226.2 72.83 230.04"/></g><g class="cls-3"><polygon class="cls-11" points="111.72 252.25 111.94 253.12 116.52 255.74 116.31 254.87 111.72 252.25"/><polygon class="cls-2" points="116.31 254.87 116.52 255.74 120.98 251.9 120.77 251.03 116.31 254.87"/><polygon class="cls-4" points="111.72 252.25 116.31 254.87 120.77 251.03 116.18 248.41 111.72 252.25"/></g><g class="cls-3"><polygon class="cls-11" points="133.48 249.43 133.69 250.3 143.83 256.1 143.62 255.23 133.48 249.43"/><polygon class="cls-2" points="143.62 255.23 143.83 256.1 148.29 252.25 148.08 251.38 143.62 255.23"/><polygon class="cls-4" points="133.48 249.43 143.62 255.23 148.08 251.38 137.94 245.59 133.48 249.43"/></g><g class="cls-3"><polygon class="cls-11" points="125.38 252.43 125.59 253.3 130.18 255.92 129.96 255.05 125.38 252.43"/><polygon class="cls-2" points="129.96 255.05 130.18 255.92 134.64 252.08 134.42 251.21 129.96 255.05"/><polygon class="cls-4" points="125.38 252.43 129.96 255.05 134.42 251.21 129.84 248.59 125.38 252.43"/></g><g class="cls-3"><polygon class="cls-11" points="117.28 255.43 117.5 256.3 122.08 258.91 121.86 258.05 117.28 255.43"/><polygon class="cls-2" points="121.86 258.05 122.08 258.91 126.54 255.07 126.32 254.2 121.86 258.05"/><polygon class="cls-4" points="117.28 255.43 121.86 258.05 126.32 254.2 121.74 251.59 117.28 255.43"/></g><g class="cls-3"><polygon class="cls-11" points="130.93 255.6 131.15 256.47 138.51 260.68 138.3 259.81 130.93 255.6"/><polygon class="cls-2" points="138.3 259.81 138.51 260.68 142.97 256.84 142.76 255.97 138.3 259.81"/><polygon class="cls-4" points="130.93 255.6 138.3 259.81 142.76 255.97 135.39 251.76 130.93 255.6"/></g><g class="cls-3"><polygon class="cls-11" points="122.83 258.6 123.05 259.47 133.19 265.26 132.97 264.39 122.83 258.6"/><polygon class="cls-2" points="132.97 264.39 133.19 265.26 137.65 261.42 137.44 260.55 132.97 264.39"/><polygon class="cls-4" points="122.83 258.6 132.97 264.39 137.44 260.55 127.3 254.76 122.83 258.6"/></g><polygon class="cls-2" points="221.49 254.7 195.92 269.46 190.47 261.25 220.42 250.01 221.84 253.54 221.49 254.7"/><path class="cls-2" d="M179.07,256.83l0-.12,0-.13c0-.08.05-.16.07-.24a.61.61,0,0,1,0-.13l0-.12,0-.06,0-.12,0-.13v-.06l0-.12c-.17.6,1.92,2.33,5.25,4.27l-.33,1.23C181,259.17,178.91,257.44,179.07,256.83Z"/><g class="cls-16"><g class="cls-3"><path class="cls-11" d="M184.66,259.87l-.33,1.23c-2.85-1.65-4.78-3.15-5.19-3.94l.34-1.23c.4.78,2.34,2.29,5.18,3.94Z"/></g></g><g class="cls-3"><g class="cls-3"><path class="cls-1" d="M203.56,241.9a7.77,7.77,0,0,1,4.38,0,19.53,19.53,0,0,1,5.37,2.19,3.44,3.44,0,0,0-2.86-.14C207.5,242.2,204.84,241.47,203.56,241.9Z"/><g class="cls-17"><path class="cls-1" d="M203.56,241.9c3.31-1,7.13.64,9.75,2.16a3.44,3.44,0,0,0-2.86-.14c-2.95-1.72-5.61-2.45-6.89-2Z"/></g></g><g class="cls-3"><path class="cls-1" d="M212.24,245l-1.79-1a3.44,3.44,0,0,1,2.86.14l1.79,1a3.44,3.44,0,0,0-2.86-.14Z"/></g><g class="cls-3"><g class="cls-3"><path class="cls-11" d="M215.1,245.1c1.07.65,4.32,2.61,6,5.47.08.14,2,3.45-.1,4.73a.69.69,0,0,0,.35-.65.44.44,0,0,0,.21-.36c0-1.79-1.1-2.71-2.65-2.2.29-1.64-2.69-4.84-6.64-7.13a3.44,3.44,0,0,1,2.86.14Z"/></g></g><g class="cls-3"><path class="cls-1" d="M189.82,246.29l13.76-4.4c1.28-.41,3.93.32,6.87,2l-13.77,4.4C193.74,246.61,191.1,245.88,189.82,246.29Z"/><g class="cls-18"><path class="cls-1" d="M210.45,243.92l-13.77,4.4c-2.94-1.71-5.58-2.44-6.86-2l.69-.22.68-.22h0l.69-.22.69-.22h0l.69-.22.68-.22h0l.69-.22.69-.22h0l.69-.22.68-.22h0l.69-.22.69-.22h0l.69-.22.69-.22h0l.69-.22.68-.22h0l.69-.22.69-.22h0l.69-.22.69-.22h0c1.28-.41,3.93.32,6.87,2Z"/></g></g><polygon class="cls-1" points="198.47 249.36 196.68 248.32 210.45 243.92 212.24 244.96 198.47 249.36"/><g class="cls-3"><path class="cls-1" d="M186.66,247.73c2.87-1.34,2.87-1.34,3.14-1.44,1.27-.42,3.93.31,6.88,2a18,18,0,0,0-3.31,1.52c-3.08-1.79-5.71-2.57-6.71-2.11Z"/></g><g class="cls-3"><path class="cls-1" d="M195.16,250.88l-1.79-1a18,18,0,0,1,3.31-1.52l1.79,1a18,18,0,0,0-3.31,1.52Z"/></g><g class="cls-3"><g class="cls-3"><path class="cls-11" d="M185.41,266.17c-7.57-4.56-6.64-8.16-6.34-9.34-.16.61,1.93,2.34,5.26,4.27-.67,2.49-.14,4.36,1.08,5.07Z"/><path class="cls-2" d="M179.14,257.16c-.12,1-.42,3.21,4.92,6.56a3.06,3.06,0,0,0,1.35,2.45l-.63-.38-.63-.41-.58-.4c-.17-.13-.41-.3-.58-.44l-.52-.42c-.16-.13-.37-.31-.52-.45l-.46-.43c-.14-.14-.32-.32-.45-.47l-.39-.44c-.12-.14-.28-.33-.39-.48l-.32-.44c-.1-.16-.23-.36-.32-.52l-.23-.44c-.08-.19-.19-.45-.26-.64l-.11-.39a5.24,5.24,0,0,1,0-2.59.48.48,0,0,0,.07.33Z"/></g></g><g class="cls-3"><g class="cls-3"><path class="cls-2" d="M197.69,268.3l23.63-13.65a.69.69,0,0,1-.35.65l-2.37,1.37L216.24,258l-2.37,1.37-2.36,1.36-2.36,1.37-2.37,1.36-2.36,1.37-2.36,1.36-2.37,1.37L197.33,269a.7.7,0,0,0,.36-.65Z"/></g></g><g class="cls-3"><g class="cls-3"><path class="cls-11" d="M218.88,252.09l-13.75,4.39c.27-1.63-2.71-4.82-6.66-7.12l13.77-4.4c3.95,2.29,6.93,5.49,6.64,7.13Z"/></g></g><g class="cls-3"><g class="cls-3"><path class="cls-2" d="M187.2,267.21l-1.79-1a3.06,3.06,0,0,1-1.35-2.45l1.79,1a3.06,3.06,0,0,0,1.35,2.45Z"/><path class="cls-11" d="M185.85,264.76l-1.79-1a7.13,7.13,0,0,1,.27-2.62l1.79,1a7.13,7.13,0,0,0-.27,2.62Z"/></g></g><polygon class="cls-11" points="186.12 262.14 184.33 261.11 184.66 259.87 186.45 260.91 186.12 262.14"/><g class="cls-3"><g class="cls-3"><path class="cls-1" d="M179.41,255.6c1.05-3.55,4.48-6.21,7.16-7.83,1-.54,3.63.23,6.8,2.07-3.68,2.12-7.56,5.77-8.71,10-3.32-1.93-5.41-3.66-5.25-4.27Z"/></g><path class="cls-1" d="M193.37,249.84a22.33,22.33,0,0,0-2,1.27l-.28-.13c-9.49-3.92-11.64,4.87-11.66,5a.46.46,0,0,1-.07-.34l.13-.44c.05-.14.11-.32.16-.45l.2-.43c.06-.13.15-.3.22-.43l.25-.42.28-.43.3-.42.32-.41.35-.41.37-.41.4-.4c.12-.12.28-.28.41-.39l.42-.39.45-.38.45-.36c.15-.11.33-.26.48-.36l.48-.34.49-.34.5-.31.51-.31c.94-.54,3.62.23,6.79,2.07Z"/></g><g class="cls-3"><path class="cls-11" d="M202.32,257.78c0-1.52-3.21-4.6-7.16-6.9a18,18,0,0,1,3.31-1.52c3.95,2.3,6.93,5.49,6.66,7.12-.85.29-2,1-2.81,1.3Z"/></g><g class="cls-3"><g class="cls-3"><path class="cls-1" d="M186.45,260.91l-1.79-1c.07-.25.14-.49.23-.73l1.79,1c-.09.24-.16.48-.23.73Z"/><path class="cls-1" d="M186.68,260.18l-1.79-1a13.1,13.1,0,0,1,1.67-3.21l1.78,1a13.42,13.42,0,0,0-1.66,3.21Z"/><path class="cls-1" d="M188.34,257l-1.78-1a20.63,20.63,0,0,1,4.86-4.83l1.79,1a20.86,20.86,0,0,0-4.87,4.83Z"/><path class="cls-1" d="M193.21,252.14l-1.79-1q1-.69,2-1.26l1.79,1c-.65.38-1.31.8-1.95,1.26Z"/></g></g><g class="cls-3"><g class="cls-3"><path class="cls-4" d="M197.33,269c-.9.47-3.62,1.89-10.08-1.71-1.28-.74-1.81-2.61-1.13-5.1,3.95,2.3,8.15,4,9.39,3.83-.56,2,.57,3.26,2.18,2.33a.7.7,0,0,1-.36.65Z"/><path class="cls-11" d="M192.91,265.4a6.73,6.73,0,0,0,2.6.57c-.56,2,.57,3.26,2.18,2.33a.7.7,0,0,1-.36.65l-.38.2a5.25,5.25,0,0,1-1.12.36l-.45.07-.72.05-.5,0c-.19,0-.45,0-.64-.06l-.55-.08-.64-.14-.58-.15-.65-.19-.61-.22-.66-.25-.63-.28-.67-.31-.64-.33-.69-.39c-1.23-.71-1.76-2.58-1.08-5.07,1.15.68,2.33,1.3,3.45,1.84Z"/><path class="cls-2" d="M195.51,266c-.56,2,.57,3.26,2.18,2.33a.7.7,0,0,1-.36.65l-.38.2a5.25,5.25,0,0,1-1.12.36l-.45.07-.72.05-.5,0c-.19,0-.45,0-.64-.06l-.55-.08-.64-.14-.58-.15-.65-.19-.61-.22-.66-.25-.63-.28-.67-.31-.64-.33-.69-.39a3.06,3.06,0,0,1-1.35-2.45l.25.15a16.19,16.19,0,0,0,6.13,2.42c1.63.19,1.94-.45,2.41-1.43a2.57,2.57,0,0,0,.87.07Z"/></g></g><g class="cls-3"><g class="cls-3"><path class="cls-2" d="M195.84,264.74l-.33,1.23a2.57,2.57,0,0,1-.87-.07l.33-1.23a2.59,2.59,0,0,0,.87.07Z"/><path class="cls-11" d="M195,264.67l-.33,1.23a11.67,11.67,0,0,1-1.72-.5l.33-1.23a12,12,0,0,0,1.72.5Z"/><path class="cls-11" d="M193.25,264.17l-.33,1.23a34,34,0,0,1-3.45-1.47l.33-1.24a36.77,36.77,0,0,0,3.45,1.48Z"/><path class="cls-11" d="M189.8,262.69l-.33,1.24c-1.09-.53-2.23-1.13-3.35-1.79l.33-1.23c1.12.65,2.26,1.25,3.35,1.78Z"/></g></g><g class="cls-3"><g class="cls-3"><path class="cls-1" d="M195.84,264.74c-1.23.18-5.44-1.54-9.39-3.83,1.15-4.26,5-7.91,8.71-10,4,2.3,7.16,5.38,7.16,6.9-3.08,1.79-5.86,4.51-6.48,7Z"/><path class="cls-1" d="M202.32,257.78c-3.08,1.79-5.86,4.51-6.48,7a7.31,7.31,0,0,1-2.77-.64l.12,0c1.89.14,3.06-3.26,2-4.47-.83-.94-3.68-2.23-6.82-2.68a21.52,21.52,0,0,1,6.81-6.09c4,2.3,7.16,5.38,7.16,6.9Z"/><path class="cls-11" d="M202.32,257.78c-3.08,1.79-5.86,4.51-6.48,7a2.64,2.64,0,0,1-.88-.07l.09-.19a23.15,23.15,0,0,1,2.07-3.76c1.43-2.16,1.91-2.88,1.75-4-.23-1.56-3-3.44-5.66-4.63.64-.46,1.3-.88,1.95-1.26,4,2.3,7.16,5.38,7.16,6.9Z"/><path class="cls-19" d="M193.93,260.57a1.4,1.4,0,0,1-.17,2.52c-1.24.32-3.58-1.9-3.26-2.73s2.37-.5,3.43.21Z"/></g></g></g><polygon class="cls-1" points="198.47 249.36 197.98 249.1 211.76 244.7 212.24 244.96 198.47 249.36"/><g class="cls-3"><polygon class="cls-12" points="173.34 117.73 173.19 171 112.16 135.76 112.31 82.5 173.34 117.73"/></g><polygon class="cls-20" points="156.61 133.87 154.37 132.57 154.37 129.97 156.61 131.27 156.61 133.87"/><polygon class="cls-21" points="156.61 137.42 154.37 136.13 154.37 133.53 156.61 134.82 156.61 137.42"/><polygon class="cls-22" points="156.61 140.97 154.37 139.68 154.37 137.08 156.61 138.37 156.61 140.97"/><polygon class="cls-20" points="171.87 142.68 157.69 134.49 157.69 131.89 171.87 140.08 171.87 142.68"/><polygon class="cls-21" points="171.87 146.23 157.69 138.04 157.69 135.44 171.87 143.63 171.87 146.23"/><polygon class="cls-22" points="171.87 149.78 157.69 141.59 157.69 139 171.87 147.18 171.87 149.78"/><g class="cls-23"><path class="cls-24" d="M113.82,107.12v28.62l38.69,22.34V129.46l0,0h0l-38.57-22.26h0Zm.13,20.56,3.37,1.95v3.92l-3.37-2Zm38.43,5.77L149,131.5v-3.91l3.38,1.95ZM114,107.35l3.37,2v3.91L114,111.26Zm20.9,20.2v3.92l-3.37-1.95V125.6Zm-3.37,6v-3.91l3.37,2v3.91Zm6.88.06v3.92L135,135.61v-3.92ZM128,131.56v-3.92l3.38,2v3.92Zm0-4.07v-3.91l3.38,2v3.91Zm10.39,2.08v3.92l-3.38-2v-3.91Zm3.5,6.1v3.91l-3.37-2v-3.91Zm0,4.06v3.92l-3.37-2v-3.92Zm-3.5,1.89-3.38-2v-3.91l3.38,2Zm-3.51-2-3.37-1.95v-3.91l3.37,1.94Zm-3.5-2-3.38-2v-3.92l3.38,1.95Zm-6.89-8v-3.92l3.38,1.95v3.91Zm0-4.07v-3.92l3.38,2v3.92Zm17.4,6.13v3.91l-3.37-1.95v-3.91Zm3.51,6.09v3.91L142,139.66v-3.92Zm0,4.07v3.91L142,143.72v-3.91Zm-20.91-8.16v-3.91l3.38,1.95v3.91Zm-3.5-6.09V123.6l3.37,2v3.91Zm0-4.06v-3.92l3.37,2v3.91Zm3.5-2v-3.91l3.38,2v3.91Zm3.51-1.89,3.38,1.95v3.92L128,123.43Zm3.51,2,3.37,2v3.92l-3.37-2Zm3.5,2,3.38,2v3.91L135,127.47Zm3.51,2,3.37,2v3.92l-3.37-1.95Zm3.5,2,3.38,2v3.91L142,131.52Zm3.38,6v3.92L142,135.59v-3.92Zm3.5,6.09v3.92l-3.37-1.95v-3.92Zm0,4.07v3.91l-3.37-1.94v-3.92ZM121,131.58v-3.92l3.37,2v3.92Zm-3.51-6.09v-3.92l3.38,2v3.92Zm0-4.07v-3.91l3.38,1.95v3.91Zm3.51-2v-3.92l3.37,2v3.92Zm0-4.07V111.4l3.37,1.95v3.91Zm3.5-1.89,3.38,2v3.91l-3.38-1.94Zm3.51,2,3.38,2v3.92l-3.38-2Zm3.51,2,3.37,2v3.91l-3.37-2Zm3.5,2,3.38,2v3.92l-3.38-2Zm3.51,2,3.37,2v3.91l-3.37-1.95Zm3.5,2,3.38,1.95v3.91L142,127.46Zm3.51,2,3.37,2v3.92l-3.37-2Zm3.37,6v3.91l-3.37-1.94v-3.92Zm0,4.07v3.91l-3.37-1.95V133.7Zm3.51,6.09v3.91l-3.38-2v-3.91Zm0,8L149,147.77v-3.92l3.38,2Zm-7-3.9v3.92l-3.38-2v-3.92Zm-3.51,1.89-3.37-1.94v-3.92l3.37,2Zm-3.5-2L135,143.74v-3.91l3.38,1.94Zm-3.51-2-3.37-1.95V137.8l3.37,1.95Zm-3.5-2L128,139.69v-3.91l3.38,1.95Zm-3.51-2-3.38-2v-3.92l3.38,1.95Zm-3.51-2L121,135.65v-3.92l3.37,2Zm-6.88-8v-3.91l3.38,2v3.91Zm-3.5-6.09v-3.91l3.37,2v3.91Zm0-4.06v-3.92l3.37,2v3.92Zm3.5-2.05v-3.91l3.38,2v3.91Zm0-4.06v-3.92l3.38,1.95v3.92Zm34.93,24.23-3.38-2v-3.92l3.38,1.95Zm0,4.07-3.38-2v-3.92l3.38,1.95Zm0,12.2L149,151.84v-3.92l3.38,2Zm-3.51-2-3.37-1.95V145.9l3.37,1.95Zm0,.15v3.92l-3.37-2V150Zm-3.5,1.89L142,151.86v-3.92l3.38,1.95Zm-3.51-2-3.37-1.95v-3.91l3.37,1.94Zm-3.5-2L135,147.81v-3.92l3.38,2Zm-3.51-2-3.37-1.95v-3.91l3.37,1.95Zm-3.5-2-3.38-2v-3.92l3.38,1.95Zm-3.51-2-3.38-1.95v-3.92l3.38,2Zm-3.51-2L121,139.71V135.8l3.37,1.95Zm-3.5-2-3.38-1.95v-3.92l3.38,1.95Zm-3.38-6v-3.91l3.38,1.94v3.92Zm-3.5-10,3.37,1.94v3.92L114,127.53Zm0-12.2,3.37,1.94v3.92l-3.37-2Zm38.43,46.43L149,155.9V152l3.38,1.95ZM114,135.66v-3.91l3.37,1.95v3.91Z"/></g><path class="cls-20" d="M151.83,145.5l.11,0a.27.27,0,0,0,.13-.35c-.25-.56-2.45-5.47-3.74-6.25-.69-.42-1.33.18-1.89.72s-.95.86-1.28.64c-1.3-.83-2.48-3.82-3.62-6.7-1.22-3.1-2.38-6-3.81-6.95-.78-.51-1.52.17-2.18.77s-1.13,1-1.54.72c-.81-.51-1.48-2.46-2.18-4.53-1-3-2.21-6.5-4.44-7.39a3.41,3.41,0,0,0-3.91.76A14.83,14.83,0,0,0,121,120.6c-1.37,2.51-2.31,4-3.77,3.31-1.06-.49-2.22-3.15-2.58-4.14a.26.26,0,0,0-.33-.16.26.26,0,0,0-.16.34c.06.15,1.38,3.76,2.85,4.44a2.08,2.08,0,0,0,2.57-.63,14.8,14.8,0,0,0,1.88-2.91c1.43-2.63,2.9-5.34,5.74-4.21,2,.81,3.14,4.14,4.14,7.08.76,2.25,1.42,4.2,2.39,4.8.77.49,1.51-.18,2.17-.78s1.13-1,1.54-.71c1.3.84,2.48,3.82,3.62,6.7,1.22,3.1,2.38,6,3.82,7,.7.45,1.34-.16,1.91-.7s.94-.86,1.27-.66c1,.59,2.88,4.55,3.53,6A.27.27,0,0,0,151.83,145.5Z"/><polygon class="cls-21" points="142.51 152.16 148.75 155.75 148.75 144.28 142.51 140.68 142.51 152.16"/><polygon class="cls-25" points="133.16 146.76 139.4 150.36 139.4 133.22 133.16 129.62 133.16 146.76"/><polygon class="cls-20" points="114.46 135.96 120.7 139.56 120.7 128.88 114.46 125.28 114.46 135.96"/><polygon class="cls-21" points="123.81 141.36 130.05 144.96 130.05 123.18 123.81 119.58 123.81 141.36"/><path class="cls-20" d="M117.27,100.47l-2,.58a17,17,0,0,0,6.41,7.43v-2.86A11.88,11.88,0,0,1,117.27,100.47Z"/><path class="cls-20" d="M126.85,104.59c-.84,1.86-2.82,2.37-5.14,1v2.86c3.35,1.93,6.21,1.2,7.41-1.48Z"/><path class="cls-20" d="M121.72,92.74V89.88c-3.34-1.93-6.21-1.2-7.41,1.48l2.28,2.41C117.42,91.91,119.4,91.4,121.72,92.74Z"/><path class="cls-20" d="M116.17,96a5.38,5.38,0,0,1,.42-2.21l-2.28-2.41a7.79,7.79,0,0,0-.61,3.19,15.74,15.74,0,0,0,1.6,6.5l2-.58A10.86,10.86,0,0,1,116.17,96Z"/><path class="cls-21" d="M126.16,97.89l2-.58a17,17,0,0,0-6.41-7.43v2.86A11.88,11.88,0,0,1,126.16,97.89Z"/><path class="cls-21" d="M127.26,102.38a5.55,5.55,0,0,1-.41,2.21l2.27,2.41a7.79,7.79,0,0,0,.61-3.19,15.74,15.74,0,0,0-1.6-6.5l-2,.58A10.86,10.86,0,0,1,127.26,102.38Z"/><path class="cls-11" d="M171.78,137.46l0,0-38.5-22.23V96.53l0,0,38.5,22.23Zm-38.49-22.28,38.44,22.19V118.81L133.29,96.62Z"/><polygon class="cls-11" points="171.74 121.92 133.25 99.7 133.28 99.66 171.77 121.88 171.74 121.92"/><polygon class="cls-11" points="171.74 125.03 133.25 102.81 133.28 102.76 171.77 124.98 171.74 125.03"/><rect class="cls-11" x="152.48" y="94.77" width="0.06" height="44.44" transform="translate(-25.06 190.58) rotate(-60)"/><rect class="cls-11" x="152.48" y="97.88" width="0.06" height="44.44" transform="translate(-27.75 192.13) rotate(-60)"/><polygon class="cls-11" points="171.74 134.34 133.25 112.11 133.28 112.07 171.77 134.29 171.74 134.34"/><rect class="cls-11" x="167.88" y="116.58" width="0.06" height="18.62" transform="translate(-0.6 0.8) rotate(-0.27)"/><rect class="cls-11" x="164.03" y="114.35" width="0.06" height="18.62" transform="translate(-0.59 0.78) rotate(-0.27)"/><polygon class="cls-11" points="160.24 130.75 160.18 130.75 160.18 112.13 160.24 112.13 160.24 130.75"/><rect class="cls-11" x="156.33" y="109.91" width="0.06" height="18.62" transform="translate(-0.56 0.74) rotate(-0.27)"/><polygon class="cls-11" points="152.54 126.31 152.48 126.31 152.48 107.69 152.54 107.69 152.54 126.31"/><polygon class="cls-11" points="148.69 124.08 148.63 124.08 148.63 105.47 148.69 105.47 148.69 124.08"/><polygon class="cls-11" points="144.84 121.86 144.78 121.86 144.78 103.24 144.84 103.24 144.84 121.86"/><rect class="cls-11" x="140.94" y="101.02" width="0.06" height="18.62" transform="translate(-0.52 0.67) rotate(-0.27)"/><polygon class="cls-11" points="137.14 117.42 137.09 117.42 137.09 98.8 137.14 98.8 137.14 117.42"/><polygon class="cls-20" points="137.11 117.42 133.26 115.19 133.26 99.68 137.11 101.9 137.11 117.42"/><polygon class="cls-21" points="142.89 120.75 139.04 118.53 139.04 109.16 142.89 111.39 142.89 120.75"/><polygon class="cls-21" points="165.98 134.08 162.13 131.86 162.13 122.5 165.98 124.72 165.98 134.08"/><polygon class="cls-21" points="154.43 127.42 150.59 125.19 150.59 121.8 154.43 124.03 154.43 127.42"/><polygon class="cls-20" points="171.75 137.42 167.91 135.19 167.91 127.44 171.75 129.66 171.75 137.42"/><polygon class="cls-20" points="148.66 124.08 144.81 121.86 144.81 109.44 148.66 111.66 148.66 124.08"/><polygon class="cls-20" points="160.21 130.75 156.36 128.53 156.36 111.98 160.21 114.2 160.21 130.75"/><path class="cls-21" d="M162.64,155.17l-3.74,5.36c-3.58-4.46-4.81-10.48-2.74-13.44,1.38-2,3.73-2.19,6.48-.6Z"/><path class="cls-25" d="M162.64,155.17l3.75,9.68c-2.39.22-5.11-1.34-7.49-4.32Z"/><path class="cls-20" d="M162.64,155.17l3.75-5.36c3.58,4.47,4.8,10.49,2.74,13.45a3.52,3.52,0,0,1-2.74,1.59Z"/><path class="cls-20" d="M162.64,155.17v-8.68a13.24,13.24,0,0,1,3.75,3.32Z"/><path class="cls-26" d="M114.3,59,117,60.6v.74l-1-.58v3.47l-.7-.4V60.36l-1-.57Z"/><path class="cls-26" d="M117.7,62.14a2.2,2.2,0,0,1,1.21,2.3c0,1.13-.28,1.35-1.21.81A2.17,2.17,0,0,1,116.49,63C116.49,61.79,116.8,61.62,117.7,62.14Zm0,2.46c.39.23.51.24.51-.57s-.09-1-.51-1.25-.51-.19-.51.66S117.33,64.39,117.7,64.6Z"/><path class="cls-26" d="M119.17,63.18l.43.08.12-.79.58.34v.85l.59.34v.62l-.59-.34V65.5a.92.92,0,0,0,.22.74s.3.29.34.31v.5l-.61-.35a1.53,1.53,0,0,1-.65-1.47V63.87l-.43-.24Z"/><path class="cls-26" d="M121.15,66.15c0-.45.2-.72.77-.39l.78.44a1.2,1.2,0,0,0,0-.19.58.58,0,0,0-.35-.58c-.23-.14-.9-.47-1.12-.58v-.5a3.37,3.37,0,0,1,1.21.5,1.65,1.65,0,0,1,1,1.53v2.13l-.55-.31-.15-.43a.81.81,0,0,1-.8-.09,1.54,1.54,0,0,1-.75-1.25Zm.94,1a1,1,0,0,0,.61.11V66.7l-.64-.31c-.18-.09-.21,0-.21.18v.15A.43.43,0,0,0,122.09,67.15Z"/><path class="cls-26" d="M123.81,64.24l.7.41v3.29c0,.45.09.6.23.73s.3.3.34.32v.49l-.58-.33a1.51,1.51,0,0,1-.69-1.48Z"/><path class="cls-26" d="M126.55,66.12l2.7,1.56v.74l-1-.59v3.48l-.7-.41V67.43l-1-.57Z"/><path class="cls-26" d="M129.54,68c0-.09,0-.12.12-.08l.52.3a.25.25,0,0,1,.12.21V69c0,.09-.05.11-.12.07l-.52-.3a.24.24,0,0,1-.12-.2Zm0,1,.69.4v3.06l-.69-.41Z"/><path class="cls-26" d="M130.71,69.68l.56.32.14.41a.89.89,0,0,1,.83.1,1.54,1.54,0,0,1,.68.8,1.13,1.13,0,0,1,1,.15,1.64,1.64,0,0,1,.79,1.53v2l-.69-.4v-2a.63.63,0,0,0-.3-.59.71.71,0,0,0-.64-.13v2.21l-.7-.4v-2a.64.64,0,0,0-.29-.58.66.66,0,0,0-.63-.1v2.19l-.7-.4Z"/><path class="cls-26" d="M136.2,72.82a1.71,1.71,0,0,1,1.12,1.76c0,.55-.26.62-.74.34l-.84-.48a.84.84,0,0,0,.56.9,5.61,5.61,0,0,0,1,.5v.55a5.07,5.07,0,0,1-1.36-.62c-.67-.39-.87-1-.87-2.08C135,72.38,135.36,72.34,136.2,72.82Zm.2,1.42c.14.08.22,0,.22-.1,0-.39-.05-.49-.38-.68s-.51-.27-.5.4Z"/><path class="cls-26" d="M137.74,73.88c0-.09,0-.12.12-.08l.43.25a.22.22,0,0,1,.12.22v.51c0,.11,0,.11-.12.07l-.43-.25a.24.24,0,0,1-.12-.2Zm0,2.26c0-.08,0-.12.12-.07l.43.25a.22.22,0,0,1,.12.21v.52c0,.1,0,.1-.12.06l-.43-.25a.24.24,0,0,1-.12-.2Z"/><path class="cls-26" d="M140.26,76.86c0-.35.15-.5.39-.42a1.44,1.44,0,0,1-.39-1.06V75c0-.79.42-.75.93-.46L142,75a1.58,1.58,0,0,1,.86,1.5v.3c0,.15,0,.59-.37.46a1.35,1.35,0,0,1,.37,1v.5c0,.85-.46.72-.87.48l-.75-.43a1.63,1.63,0,0,1-.93-1.51Zm1-.5.5.29c.29.16.32,0,.32-.18V76.2a.59.59,0,0,0-.32-.6l-.47-.27c-.23-.13-.36-.17-.36.21v.27A.61.61,0,0,0,141.29,76.36Zm0,1.79.47.27c.21.12.32.07.32-.16v-.4a.61.61,0,0,0-.31-.54l-.51-.29c-.22-.13-.33-.08-.33.17v.4A.6.6,0,0,0,141.32,78.15Z"/><path class="cls-26" d="M143.32,75.51l.69.4v1.77a1,1,0,0,1,.85.11,1.66,1.66,0,0,1,.79,1.53v2L145,81v-2a.61.61,0,0,0-.29-.58.69.69,0,0,0-.64-.11v2.2l-.7-.41Z"/><path class="cls-26" d="M148.46,78.76l.76.45-1.09,1.9.91.52v-1l.15-.35.54.31V82l.37.22v.62l-.37-.07v.91L149,83.3v-.9l-1.71-1-.17-.47Z"/><path class="cls-26" d="M150.46,83.39l1.41.81c.32.19.36,0,.36-.2v-.38a.62.62,0,0,0-.33-.6l-.47-.27c-.17-.1-.3-.08-.3.16l-.66-.38.11-2.54,2.22,1.28V82l-1.55-.89,0,.93a.49.49,0,0,1,.35.06,4.66,4.66,0,0,1,.54.31,1.76,1.76,0,0,1,.83,1.53v.59c0,.79-.52.75-.92.51a10.13,10.13,0,0,1-1.55-1Z"/><path class="cls-26" d="M153.38,82.76l.56.33.13.41a.89.89,0,0,1,.83.1,1.44,1.44,0,0,1,.68.79,1.23,1.23,0,0,1,1,.15,1.67,1.67,0,0,1,.79,1.54v2l-.7-.4v-2a.64.64,0,0,0-.29-.58.74.74,0,0,0-.65-.14v2.22l-.7-.41v-2a.63.63,0,0,0-.29-.59.69.69,0,0,0-.63-.1v2.19l-.69-.4Z"/><path class="cls-26" d="M178.54,122.42l2.09,1.21v.57l-.79-.45v2.68l-.53-.31v-2.68l-.77-.44Z"/><path class="cls-26" d="M180.85,123.9c0-.06,0-.09.1-.05l.4.23a.18.18,0,0,1,.09.16v.4c0,.06,0,.08-.09,0l-.4-.24a.18.18,0,0,1-.1-.15Zm0,.76.54.31v2.36l-.54-.31Z"/><path class="cls-26" d="M181.76,125.17l.43.25.11.32a.66.66,0,0,1,.63.08,1.15,1.15,0,0,1,.53.61.89.89,0,0,1,.74.12,1.27,1.27,0,0,1,.61,1.18v1.56l-.54-.31v-1.57A.48.48,0,0,0,184,127a.58.58,0,0,0-.5-.11s0,.13,0,.15v1.57l-.54-.32v-1.57a.5.5,0,0,0-.23-.45.52.52,0,0,0-.48-.08v1.69l-.54-.31Z"/><path class="cls-26" d="M186,127.6a1.32,1.32,0,0,1,.87,1.36c0,.42-.2.47-.57.26l-.66-.38a.67.67,0,0,0,.44.71,5.3,5.3,0,0,0,.75.38v.42a3.6,3.6,0,0,1-1-.48c-.52-.3-.67-.74-.67-1.6C185.1,127.25,185.34,127.22,186,127.6Zm.16,1.09c.11.07.17,0,.17-.08a.46.46,0,0,0-.3-.52c-.28-.16-.39-.2-.39.31Z"/><path class="cls-26" d="M189,129.32a1.32,1.32,0,0,1,.87,1.36c0,.42-.2.48-.57.26l-.65-.37a.66.66,0,0,0,.43.7,4.41,4.41,0,0,0,.75.38v.42a3.6,3.6,0,0,1-1.05-.48c-.52-.3-.67-.73-.67-1.6S188.32,129,189,129.32Zm.16,1.1c.11.06.17,0,.17-.08a.47.47,0,0,0-.3-.53c-.28-.16-.39-.2-.38.31Z"/><path class="cls-26" d="M190.13,130l.43.25.11.31a.69.69,0,0,1,.65.08,1.28,1.28,0,0,1,.61,1.18v1.58l-.54-.32v-1.58a.47.47,0,0,0-.23-.45.54.54,0,0,0-.49-.08v1.7l-.54-.31Z"/><path class="cls-26" d="M192.13,131.28l.33.07.09-.61.45.26v.66l.46.26v.48l-.46-.27v1a.71.71,0,0,0,.17.57l.26.24v.38L193,134a1.17,1.17,0,0,1-.5-1.13v-1.05l-.33-.19Z"/><path class="cls-26" d="M193.71,132.08l.46.26.08.34a.57.57,0,0,1,.59,0,1.52,1.52,0,0,1,.23.16v.6l-.3-.18c-.22-.13-.38-.18-.52,0v1.51l-.54-.31Z"/><path class="cls-26" d="M195.29,132.24q0-.11.09-.06l.41.24a.18.18,0,0,1,.08.16V133c0,.07,0,.08-.08.05l-.41-.23a.19.19,0,0,1-.09-.16Zm0,.76.54.31v2.36l-.54-.31Z"/><path class="cls-26" d="M197.06,134a1.31,1.31,0,0,1,.86,1.36c0,.42-.2.47-.57.26l-.65-.38a.67.67,0,0,0,.43.71,6,6,0,0,0,.76.38v.42a3.6,3.6,0,0,1-1-.48c-.52-.3-.68-.74-.68-1.6C196.16,133.64,196.41,133.61,197.06,134Zm.15,1.09c.12.07.17,0,.17-.07,0-.3,0-.38-.29-.53s-.39-.2-.39.31Z"/><path class="cls-26" d="M198.15,135.25c0-.36.14-.56.54-.33a5.92,5.92,0,0,1,1.09.75v.4l-.93-.54c-.14-.08-.16,0-.16.07v.11a.24.24,0,0,0,.16.24l.49.28a1,1,0,0,1,.54.93v.24c0,.48-.25.47-.5.33a5.39,5.39,0,0,1-1.14-.79v-.39l1,.56s.13.07.13-.07v-.11a.22.22,0,0,0-.13-.23l-.48-.28a1,1,0,0,1-.58-1Z"/><path class="cls-26" d="M169.8,91.06l.81,3.6.66-2.75.74.43-.25.94.58,2.39.67-2.76.74.43-1,3.64-.8-.47-.5-2L171,96l-.81-.47-1.14-4.88Z"/><path class="cls-26" d="M174.81,95.08a2.21,2.21,0,0,1,1.21,2.3c0,1.14-.28,1.35-1.21.82A2.18,2.18,0,0,1,173.6,96C173.6,94.74,173.92,94.57,174.81,95.08Zm0,2.47c.39.23.51.24.51-.57s-.09-1-.51-1.25-.51-.19-.51.66S174.44,97.34,174.81,97.55Z"/><path class="cls-26" d="M176.44,96.05l.58.34.11.45a.71.71,0,0,1,.76,0,1.55,1.55,0,0,1,.3.21v.78l-.38-.24c-.29-.17-.5-.23-.68,0v2l-.69-.4Z"/><path class="cls-26" d="M178.52,95.81l.69.4v2.47l.15.08.75-.59.88.51-1,.76,1,2.3-.82-.48-.81-1.88-.15-.08v1.41l-.69-.4Z"/><path class="cls-26" d="M182.47,98.38l2.7,1.55v.75l-1-.59v3.47l-.7-.4V99.69l-1-.57Z"/><path class="cls-26" d="M185.46,100.3c0-.09,0-.12.12-.08l.52.3a.25.25,0,0,1,.12.21v.51c0,.09-.05.11-.12.07l-.52-.3a.24.24,0,0,1-.12-.2Zm0,1,.69.4v3.06l-.69-.41Z"/><path class="cls-26" d="M186.63,101.94l.56.32.14.41a.87.87,0,0,1,.82.1,1.54,1.54,0,0,1,.69.79,1.18,1.18,0,0,1,.95.16,1.64,1.64,0,0,1,.79,1.53v2l-.69-.41v-2a.63.63,0,0,0-.3-.59.72.72,0,0,0-.65-.13s0,.15,0,.18v2l-.7-.4v-2a.63.63,0,0,0-.3-.58.64.64,0,0,0-.62-.1v2.19l-.7-.4Z"/><path class="cls-26" d="M192.12,105.08a1.71,1.71,0,0,1,1.12,1.76c0,.55-.26.62-.74.34l-.84-.48a.84.84,0,0,0,.56.9,5.61,5.61,0,0,0,1,.5v.55a5.25,5.25,0,0,1-1.36-.62c-.67-.39-.87-1-.87-2.08C191,104.64,191.28,104.6,192.12,105.08Zm.2,1.42c.14.08.22,0,.22-.1,0-.39,0-.49-.38-.68s-.51-.27-.5.4Z"/><path class="cls-26" d="M193.66,106.14c0-.09,0-.12.12-.08l.43.25a.22.22,0,0,1,.12.22V107c0,.11-.05.1-.12.06l-.43-.24a.24.24,0,0,1-.12-.2Zm0,2.26c0-.08,0-.12.12-.07l.43.25a.22.22,0,0,1,.12.21v.52c0,.1-.05.1-.12.06l-.43-.25a.24.24,0,0,1-.12-.2Z"/><path class="cls-26" d="M197,106.75a9.56,9.56,0,0,1,1.59,1v.61l-1.25-.72c-.45-.26-.49.34-.5.78a4.29,4.29,0,0,1,1,.46,1.55,1.55,0,0,1,.86,1.48V111c0,.7-.36.75-.89.44l-.71-.41c-.58-.33-1-1-1-2.77C196.14,106.75,196.57,106.54,197,106.75Zm.32,3.68.38.22c.2.12.31.13.31-.18v-.38a.53.53,0,0,0-.3-.55l-.87-.5C196.84,109.62,196.89,110.18,197.32,110.43Z"/><path class="cls-26" d="M199.16,107.72l.69.4v1.78a.92.92,0,0,1,.85.11,1.64,1.64,0,0,1,.79,1.53v2l-.7-.4v-2a.62.62,0,0,0-.29-.58.72.72,0,0,0-.64-.11v2.2l-.7-.4Z"/><path class="cls-26" d="M203.07,110.75l.71-.07.69.4v4.21l-.7-.4v-3.41l-.7-.21Z"/><path class="cls-26" d="M204.92,111.43a9.56,9.56,0,0,1,1.52.73,2.21,2.21,0,0,1,1.08,1.93c0,.94-1.05,1.31-1.38,1.43l1.38.79v.74L205,115.58v-.71c.47-.1,1.86-.52,1.86-1.18a1,1,0,0,0-.6-.91l-1.3-.75Z"/><path class="cls-26" d="M207.93,114.24l.56.32.14.41a.89.89,0,0,1,.83.1,1.56,1.56,0,0,1,.68.79,1.18,1.18,0,0,1,1,.16,1.63,1.63,0,0,1,.79,1.53v2l-.69-.41v-2a.63.63,0,0,0-.3-.58.72.72,0,0,0-.64-.14v2.22l-.7-.4v-2a.65.65,0,0,0-.29-.59.69.69,0,0,0-.63-.1v2.2l-.7-.41Z"/><path class="cls-27" d="M87.11,66.08l.68.4v.23l-.94-.54V64.45l.26.15Z"/><path class="cls-27" d="M87.92,66.14a.68.68,0,0,1,.06-.31.26.26,0,0,1,.19-.12.41.41,0,0,1,.26.07,1,1,0,0,1,.37.38,1.2,1.2,0,0,1,.15.53v.07a.67.67,0,0,1-.06.3.24.24,0,0,1-.18.13.51.51,0,0,1-.27-.08.92.92,0,0,1-.38-.4,1.19,1.19,0,0,1-.14-.56Zm.25.16a.83.83,0,0,0,.07.36.48.48,0,0,0,.2.22c.08.05.15.05.19,0a.42.42,0,0,0,.07-.29.78.78,0,0,0-.07-.35.5.5,0,0,0-.2-.23.16.16,0,0,0-.19,0A.42.42,0,0,0,88.17,66.3Z"/><path class="cls-27" d="M89.74,66.82l-.1-.07c-.11-.06-.19,0-.23,0v.88l-.25-.14V66.22l.24.14v.15c.06-.08.14-.09.25,0l.08.06Z"/><path class="cls-27" d="M90.37,68.23a1,1,0,0,1-.38-.4,1,1,0,0,1-.15-.54v0a.64.64,0,0,1,.06-.3.23.23,0,0,1,.18-.13.43.43,0,0,1,.26.06.89.89,0,0,1,.35.37,1.19,1.19,0,0,1,.12.54v.12l-.72-.42a.85.85,0,0,0,.09.31.58.58,0,0,0,.2.21c.12.06.21.06.28,0l.14.22a.25.25,0,0,1-.18.08A.52.52,0,0,1,90.37,68.23Zm0-1.12a.15.15,0,0,0-.17,0,.25.25,0,0,0-.08.18l.48.28v0a.66.66,0,0,0-.07-.26A.44.44,0,0,0,90.34,67.11Z"/><path class="cls-27" d="M91.24,67.43v.13c.08-.06.18,0,.32,0a.64.64,0,0,1,.3.37c.08-.08.2-.08.34,0a.69.69,0,0,1,.28.28.82.82,0,0,1,.09.4v.84l-.25-.15V68.5a.39.39,0,0,0,0-.2.36.36,0,0,0-.15-.15.2.2,0,0,0-.14,0,.15.15,0,0,0-.07.1v.88L91.67,69v-.84a.37.37,0,0,0-.2-.34c-.1-.06-.17,0-.21,0v.92L91,68.57V67.29Z"/><path class="cls-27" d="M93.66,70.1,93.4,70V68.23l.26.15Z"/><path class="cls-27" d="M94.92,70.2a.54.54,0,0,1-.12.41c-.07.07-.18.07-.31,0a.79.79,0,0,1-.29-.31v.61L94,70.76V69l.23.13v.14c.07-.06.17-.06.3,0a.78.78,0,0,1,.32.35,1.43,1.43,0,0,1,.11.56ZM94.67,70a1,1,0,0,0-.06-.35.52.52,0,0,0-.19-.22c-.1-.06-.18,0-.22,0v.57a.52.52,0,0,0,.22.28c.08,0,.14,0,.19,0A.48.48,0,0,0,94.67,70Z"/><path class="cls-27" d="M95.75,71a.23.23,0,0,0,0-.15l-.18-.17a1.37,1.37,0,0,1-.21-.2.61.61,0,0,1-.19-.41.2.2,0,0,1,.12-.21.4.4,0,0,1,.31.07.84.84,0,0,1,.32.3.65.65,0,0,1,.12.36l-.25-.14a.37.37,0,0,0,0-.17.47.47,0,0,0-.14-.14.2.2,0,0,0-.14,0s0,0,0,.09a.27.27,0,0,0,0,.13,1.79,1.79,0,0,0,.19.18,2.76,2.76,0,0,1,.24.23,1,1,0,0,1,.12.19.48.48,0,0,1,0,.2q0,.18-.12.21a.45.45,0,0,1-.33-.08.91.91,0,0,1-.24-.2,1,1,0,0,1-.17-.25.61.61,0,0,1-.06-.25l.24.14a.53.53,0,0,0,.07.2.43.43,0,0,0,.16.14c.07,0,.12.06.15,0S95.75,71,95.75,71Z"/><path class="cls-27" d="M96.89,71.84c-.07.06-.18,0-.31,0a.75.75,0,0,1-.28-.28.88.88,0,0,1-.09-.41v-.83l.25.15v.82a.37.37,0,0,0,.18.35c.12.07.2.07.24,0v-.92l.25.15v1.28L96.89,72Z"/><path class="cls-27" d="M97.62,71.11v.13c.07-.06.18,0,.31,0a.7.7,0,0,1,.31.37c.08-.08.19-.08.34,0a.72.72,0,0,1,.27.28.82.82,0,0,1,.09.4v.84L98.71,73v-.84a.39.39,0,0,0,0-.2.36.36,0,0,0-.15-.15.21.21,0,0,0-.14,0,.16.16,0,0,0-.08.1v.88L98,72.63v-.84a.37.37,0,0,0-.2-.34c-.1-.06-.17,0-.21,0v.93l-.25-.15V71Z"/><path class="cls-4" d="M83.07,73.84V71l.72.41a1.94,1.94,0,0,1,.57.5,2.28,2.28,0,0,1,.52,1.47v.14a1.22,1.22,0,0,1-.13.62.48.48,0,0,1-.39.24,1.14,1.14,0,0,1-.59-.17Zm.43-2.16v2l.27.16c.22.12.39.14.51,0a.72.72,0,0,0,.18-.58v-.16a1.77,1.77,0,0,0-.17-.79,1.22,1.22,0,0,0-.5-.53Z"/><path class="cls-4" d="M86.63,75.24l-.94-.54-.2.54L85.05,75,86,72.71l.38.22.92,3.33L86.83,76Zm-.82-.86.7.4-.35-1.36Z"/><path class="cls-4" d="M88.81,76.43a.66.66,0,0,0-.11-.35,3,3,0,0,0-.41-.43,4,4,0,0,1-.46-.5,1.33,1.33,0,0,1-.34-.82.4.4,0,0,1,.24-.42.78.78,0,0,1,.62.14,2,2,0,0,1,.46.37,1.93,1.93,0,0,1,.31.49,1.33,1.33,0,0,1,.11.5l-.42-.24a.75.75,0,0,0-.12-.41.88.88,0,0,0-.34-.32.46.46,0,0,0-.32-.09c-.08,0-.11.1-.11.22a.58.58,0,0,0,.12.33,3,3,0,0,0,.41.44,3.85,3.85,0,0,1,.45.48,1.49,1.49,0,0,1,.25.43,1,1,0,0,1,.08.42c0,.24-.07.38-.23.43a.9.9,0,0,1-.63-.16,2,2,0,0,1-.49-.39,2.06,2.06,0,0,1-.34-.51,1.32,1.32,0,0,1-.12-.54l.42.25a.82.82,0,0,0,.14.45,1,1,0,0,0,.39.35q.22.14.33.09C88.77,76.62,88.81,76.55,88.81,76.43Z"/><path class="cls-4" d="M91.53,78.73l-.42-.25V77.24L90,76.61v1.25l-.42-.25v-2.8l.42.24v1.17l1.09.63V75.68l.42.24Z"/><path class="cls-4" d="M92,79v-2.8l.83.48a1.91,1.91,0,0,1,.63.55,1.23,1.23,0,0,1,.21.7.44.44,0,0,1-.09.29.29.29,0,0,1-.26.09,1.17,1.17,0,0,1,.3.4,1.05,1.05,0,0,1,.11.48c0,.26-.07.42-.22.47s-.35,0-.63-.15Zm.42-1.38.41.24a.43.43,0,0,0,.31.08c.08,0,.11-.1.11-.23a.61.61,0,0,0-.1-.36,1,1,0,0,0-.32-.28l-.41-.23Zm0,.36v.88l.47.27c.13.07.23.1.31.06s.11-.11.11-.25a.74.74,0,0,0-.39-.67Z"/><path class="cls-4" d="M96.12,80.05a1.48,1.48,0,0,1-.12.65.47.47,0,0,1-.36.27.75.75,0,0,1-.52-.14,1.68,1.68,0,0,1-.53-.47,2.45,2.45,0,0,1-.36-.68,2.54,2.54,0,0,1-.12-.78v-.16a1.48,1.48,0,0,1,.12-.65.47.47,0,0,1,.36-.27.78.78,0,0,1,.52.13,1.81,1.81,0,0,1,.53.47,2.19,2.19,0,0,1,.35.68,2.34,2.34,0,0,1,.13.79Zm-.42-.39a2,2,0,0,0-.15-.81,1.06,1.06,0,0,0-.44-.49q-.27-.17-.42,0a.84.84,0,0,0-.16.61v.16a2,2,0,0,0,.15.8,1,1,0,0,0,.44.5c.18.11.33.11.43,0a1,1,0,0,0,.15-.64Z"/><path class="cls-4" d="M97.86,81.73l-.94-.54-.19.54-.44-.26.92-2.27.37.22.92,3.33-.44-.25ZM97,80.86l.71.41-.36-1.37Z"/><path class="cls-4" d="M99.67,82.35l-.47-.27v1.07l-.42-.24v-2.8l.85.49a1.87,1.87,0,0,1,.65.59,1.38,1.38,0,0,1,.23.76.57.57,0,0,1-.12.41.4.4,0,0,1-.33.1l.55,1.48v0l-.45-.26Zm-.47-.67.43.25c.15.08.26.11.34.07s.12-.13.12-.27a.81.81,0,0,0-.11-.41,1,1,0,0,0-.34-.32l-.44-.26Z"/><path class="cls-4" d="M100.91,84.14v-2.8l.72.41a2.05,2.05,0,0,1,.57.5,2.31,2.31,0,0,1,.38.69,2.28,2.28,0,0,1,.14.77v.15a1.21,1.21,0,0,1-.14.62.46.46,0,0,1-.39.24,1,1,0,0,1-.58-.18Zm.42-2.17v2l.28.16q.33.19.51.06a.81.81,0,0,0,.18-.59v-.15a1.69,1.69,0,0,0-.18-.8,1.32,1.32,0,0,0-.49-.53Z"/><path class="cls-4" d="M86.25,83.8l-.94-.55-.2.54-.44-.25.92-2.28.38.22.92,3.34-.44-.26Zm-.82-.87.7.4L85.78,82Z"/><path class="cls-4" d="M89,85.11c0,.29-.12.47-.29.54a.76.76,0,0,1-.66-.14,1.71,1.71,0,0,1-.52-.45,2.32,2.32,0,0,1-.46-1.4V83.4a1.36,1.36,0,0,1,.12-.63.44.44,0,0,1,.35-.26.77.77,0,0,1,.53.14,1.81,1.81,0,0,1,.64.62,1.88,1.88,0,0,1,.29.88l-.42-.25a1.28,1.28,0,0,0-.15-.52,1.07,1.07,0,0,0-.36-.34c-.19-.11-.33-.11-.43,0a.87.87,0,0,0-.15.59v.25a2,2,0,0,0,.14.77,1,1,0,0,0,.42.48c.16.1.29.13.37.09s.14-.15.16-.34Z"/><path class="cls-4" d="M91.06,84.82l-.76-.44v2.41l-.41-.24V84.14l-.75-.43v-.4l1.92,1.11Z"/><path class="cls-4" d="M91.82,87.67l-.42-.24V84.62l.42.25Z"/><path class="cls-4" d="M93.2,87.85,93.81,86l.47.27-.88,2.3-.4-.24L92.13,85l.46.27Z"/><path class="cls-4" d="M95,89.5l-.42-.24V86.45l.42.25Z"/><path class="cls-4" d="M97.22,88.37l-.76-.43v2.41l-.41-.24V87.7l-.75-.44v-.39L97.22,88Z"/><path class="cls-4" d="M98.36,90l.56-1,.46.27-.81,1.3v1l-.42-.24v-1L97.33,88l.47.27Z"/><g class="cls-28"><polygon class="cls-27" points="109.2 101.19 109.2 111.2 76.81 92.5 76.83 82.5 109.2 101.19"/></g><path class="cls-4" d="M85.78,93.75l-.47-.27v1.08l-.42-.24V91.51l.85.5a1.87,1.87,0,0,1,.65.59,1.38,1.38,0,0,1,.23.76.55.55,0,0,1-.12.4.37.37,0,0,1-.33.11l.55,1.48v0l-.45-.26Zm-.47-.66.43.25a.43.43,0,0,0,.34.07q.12-.06.12-.27a.81.81,0,0,0-.11-.41.92.92,0,0,0-.33-.32l-.45-.26Z"/><path class="cls-4" d="M88.44,95.11l-1-.57v.86l1.17.67v.39L87,95.55V92.74l1.58.91v.4l-1.16-.67v.77l1,.58Z"/><path class="cls-4" d="M89.37,95.87v1L89,96.66v-2.8l.93.53a1.93,1.93,0,0,1,.65.62,1.56,1.56,0,0,1,.23.79c0,.27-.07.44-.23.5s-.37,0-.66-.14Zm0-.4.51.3c.15.08.26.11.34.07s.12-.13.12-.28a.88.88,0,0,0-.12-.44,1,1,0,0,0-.33-.33l-.52-.3Z"/><path class="cls-4" d="M93.07,97.71a1.45,1.45,0,0,1-.12.65.5.5,0,0,1-.36.28.87.87,0,0,1-.52-.14,1.68,1.68,0,0,1-.53-.47,2.6,2.6,0,0,1-.36-.68,2.66,2.66,0,0,1-.12-.79v-.15a1.45,1.45,0,0,1,.12-.65.46.46,0,0,1,.36-.28.79.79,0,0,1,.52.14,1.68,1.68,0,0,1,.53.47,2.14,2.14,0,0,1,.35.67,2.4,2.4,0,0,1,.13.8Zm-.42-.39a1.94,1.94,0,0,0-.15-.8,1.14,1.14,0,0,0-.44-.5q-.27-.15-.42,0a.86.86,0,0,0-.16.61v.16a2,2,0,0,0,.15.81,1.14,1.14,0,0,0,.44.5c.18.11.33.11.43,0a1,1,0,0,0,.15-.63Z"/><path class="cls-4" d="M94.38,98.72l-.47-.27v1.08l-.42-.25v-2.8l.85.49a1.87,1.87,0,0,1,.65.59,1.42,1.42,0,0,1,.23.77.56.56,0,0,1-.12.4.35.35,0,0,1-.32.1l.54,1.48v0l-.45-.26Zm-.47-.66.44.25a.36.36,0,0,0,.33.06q.12,0,.12-.27a.84.84,0,0,0-.11-.41,1.12,1.12,0,0,0-.33-.32l-.45-.25Z"/><path class="cls-4" d="M97.29,99.07l-.76-.44V101l-.41-.24V98.39L95.37,98v-.4l1.92,1.11Z"/><path class="cls-4" d="M98.85,101.66a.63.63,0,0,0-.11-.35,2.93,2.93,0,0,0-.41-.44,4,4,0,0,1-.46-.5,1.37,1.37,0,0,1-.34-.82.4.4,0,0,1,.24-.42.86.86,0,0,1,.63.14,2,2,0,0,1,.45.37,1.93,1.93,0,0,1,.31.49,1.38,1.38,0,0,1,.11.51l-.42-.25a.78.78,0,0,0-.12-.41,1,1,0,0,0-.34-.32c-.14-.08-.24-.11-.32-.08s-.11.09-.11.22a.56.56,0,0,0,.12.32,2.56,2.56,0,0,0,.41.44,3.22,3.22,0,0,1,.45.48,1.63,1.63,0,0,1,.25.43,1.06,1.06,0,0,1,.08.43c0,.23-.07.37-.23.42a.81.81,0,0,1-.63-.16,1.79,1.79,0,0,1-.48-.39,1.86,1.86,0,0,1-.35-.51,1.31,1.31,0,0,1-.12-.53l.42.24a.82.82,0,0,0,.14.45,1.14,1.14,0,0,0,.39.36c.15.08.26.11.33.08S98.85,101.77,98.85,101.66Z"/><path class="cls-4" d="M84.58,103.26v1l-.42-.25v-2.8l.93.54a1.78,1.78,0,0,1,.64.61,1.48,1.48,0,0,1,.24.79c0,.28-.08.44-.23.51a.82.82,0,0,1-.66-.15Zm0-.39.51.29c.15.08.26.11.34.07s.12-.13.12-.28a.82.82,0,0,0-.12-.43.87.87,0,0,0-.33-.33l-.52-.3Z"/><path class="cls-4" d="M87.23,104.75l-.47-.27v1.08l-.42-.25v-2.8l.85.49a1.89,1.89,0,0,1,.65.6,1.29,1.29,0,0,1,.23.76.55.55,0,0,1-.12.4.34.34,0,0,1-.32.1l.54,1.49v0l-.45-.26Zm-.47-.66.44.25a.4.4,0,0,0,.33.07q.12-.06.12-.27a.88.88,0,0,0-.11-.42,1.12,1.12,0,0,0-.33-.32l-.45-.25Z"/><path class="cls-4" d="M90.41,106.33a1.36,1.36,0,0,1-.13.66.44.44,0,0,1-.35.27.83.83,0,0,1-.53-.14,1.77,1.77,0,0,1-.52-.47,2.33,2.33,0,0,1-.36-.68,2.89,2.89,0,0,1-.13-.78V105a1.47,1.47,0,0,1,.13-.65.49.49,0,0,1,.36-.28.87.87,0,0,1,.52.14,1.8,1.8,0,0,1,.53.47,2.19,2.19,0,0,1,.35.68,2.56,2.56,0,0,1,.13.79Zm-.42-.39a1.81,1.81,0,0,0-.16-.8,1.06,1.06,0,0,0-.43-.5c-.18-.1-.32-.1-.43,0a.92.92,0,0,0-.15.61v.17a2,2,0,0,0,.15.8,1.13,1.13,0,0,0,.43.5c.19.11.33.11.44,0a.93.93,0,0,0,.15-.63Z"/><path class="cls-4" d="M91.82,105.68l.42.24v2c0,.27-.07.44-.22.52a.61.61,0,0,1-.57-.1,1.59,1.59,0,0,1-.59-.56,1.43,1.43,0,0,1-.2-.73l.42.24a.69.69,0,0,0,.37.66q.17.11.27,0a.35.35,0,0,0,.1-.3Z"/><path class="cls-4" d="M94.14,108.57l-1-.58v.86l1.16.68v.39L92.72,109v-2.8l1.58.91v.39l-1.15-.67v.78l1,.57Z"/><path class="cls-4" d="M96.51,110.27c0,.29-.12.46-.29.54a.76.76,0,0,1-.66-.14,1.71,1.71,0,0,1-.52-.45,2.32,2.32,0,0,1-.46-1.4v-.26a1.36,1.36,0,0,1,.12-.63.47.47,0,0,1,.35-.27.9.9,0,0,1,.53.14,1.93,1.93,0,0,1,.64.63,1.88,1.88,0,0,1,.29.88l-.42-.25a1.1,1.1,0,0,0-.16-.52,1,1,0,0,0-.35-.34c-.19-.11-.33-.11-.43,0a.82.82,0,0,0-.15.59V109a2,2,0,0,0,.14.77,1,1,0,0,0,.42.48.45.45,0,0,0,.37.09c.08,0,.14-.15.16-.34Z"/><path class="cls-4" d="M98.59,110l-.76-.44V112l-.42-.24V109.3l-.75-.44v-.39l1.93,1.11Z"/><path class="cls-4" d="M100.15,112.57a.63.63,0,0,0-.11-.35,2.93,2.93,0,0,0-.41-.44,5.13,5.13,0,0,1-.47-.5,1.38,1.38,0,0,1-.33-.82.4.4,0,0,1,.24-.42.78.78,0,0,1,.62.14,2,2,0,0,1,.46.37,1.93,1.93,0,0,1,.31.49,1.34,1.34,0,0,1,.11.51l-.42-.25a.78.78,0,0,0-.12-.41.88.88,0,0,0-.34-.32c-.14-.08-.24-.11-.32-.08s-.12.09-.12.21a.58.58,0,0,0,.13.33,3,3,0,0,0,.41.44,3.85,3.85,0,0,1,.45.48,1.76,1.76,0,0,1,.25.43,1,1,0,0,1,.08.42c0,.24-.08.38-.23.43a.84.84,0,0,1-.63-.16,2,2,0,0,1-.49-.39,2.06,2.06,0,0,1-.34-.51,1.31,1.31,0,0,1-.12-.53l.42.24a.82.82,0,0,0,.14.45,1.14,1.14,0,0,0,.39.36c.15.08.26.11.33.08S100.15,112.68,100.15,112.57Z"/><path class="cls-29" d="M85.69,58.15l.34.62.07.11a26.3,26.3,0,0,0,3.36,4.61l.48.51a20.27,20.27,0,0,0,1.69,1.56,12.49,12.49,0,0,0,7,3.17,5.87,5.87,0,0,0,3.22-.73,5.47,5.47,0,0,0,1.27-1,6.83,6.83,0,0,0,1.28-2.06c1.5-3.72.65-9.6-2.55-15.15-4.36-7.55-11.42-11.63-15.78-9.11S81.75,50.82,85.69,58.15Z"/><path class="cls-30" d="M85.69,58.15l.34.62.07.11a26.3,26.3,0,0,0,3.36,4.61,11.11,11.11,0,0,0,.18-1.82,6.66,6.66,0,0,0-.92-3.28,1.92,1.92,0,0,0-1.15-1.13,1.81,1.81,0,0,0-1.38.48Z"/><path class="cls-1" d="M86,58.77l.07.11c4.36,7.55,11.42,11.63,15.78,9.12a5.47,5.47,0,0,0,1.27-1,4.46,4.46,0,0,0,.16-.73c.22-1.93-.89-3.42-3.39-5.11a36.75,36.75,0,0,0-8.36-3.68C88.25,56.43,87,57,86,58.77Z"/><path class="cls-27" d="M89.94,64a20.27,20.27,0,0,0,1.69,1.56c.08-.75.18-1.5.28-2.24l-1.56-1.1C90.2,62.82,90.07,63.41,89.94,64Z"/><path class="cls-21" d="M89.69,62.07a.31.31,0,0,0,0,.1,2.32,2.32,0,0,0,.19.6,5.81,5.81,0,0,0,.52,1.1,1,1,0,0,0,.45.47.88.88,0,0,0,.72-.1c.25-.14.7-.34.64-.65a4.66,4.66,0,0,0-.23-.81,2.86,2.86,0,0,0-.92-1.51c-.55-.37-.94.18-1.23.59A.71.71,0,0,0,89.69,62.07Z"/><path class="cls-31" d="M96.66,59.37c.12,3.73-6.87,3.79-6.77.28.14-4.88.44-5.44,2.74-6.2a6.55,6.55,0,0,1,2-.38c2.43,0,1.49,1.19,1.39,2C95.71,57.67,96.62,58,96.66,59.37Z"/><path class="cls-31" d="M96.66,59.37c0-1.34-1-1.7-.68-4.25.1-.86,1-2.1-1.39-2a6.55,6.55,0,0,0-2,.38c-2.27.74-2.59,1.3-2.74,6,1.94-.18,3.65-2.32,5.62-1.05a3.55,3.55,0,0,1,1.13,1.46A2.64,2.64,0,0,0,96.66,59.37Z"/><path class="cls-31" d="M95.51,58.4c-2-1.27-3.68.87-5.62,1.05v.2c-.1,3.35,6.26,3.44,6.75.21A3.55,3.55,0,0,0,95.51,58.4Z"/><path class="cls-30" d="M91,61.67c-.13.4-.66.53-1,.77-.16.1-.42.29-.62.25s-.32-.31-.39-.47a10.28,10.28,0,0,1-.79-3.82,1.52,1.52,0,0,1,.38-1.17,1.16,1.16,0,0,1,1.15-.16c.38.17.48.92.34,1.27A3,3,0,0,0,91,61.67Z"/><path class="cls-30" d="M91,61.68a9,9,0,0,0,1.35,1.62c.18.17.33.37.58.29a9.51,9.51,0,0,0,4.23-3.85,1.76,1.76,0,0,0-.45-1.47,6.22,6.22,0,0,0-.51-.64,9,9,0,0,1-.73,1.66A6.33,6.33,0,0,1,91,61.68Z"/><path class="cls-30" d="M98.66,68.73a5.87,5.87,0,0,0,3.22-.73,5.47,5.47,0,0,0,1.27-1,6.83,6.83,0,0,0,1.28-2.06,2.15,2.15,0,0,1-.14-.26,6.31,6.31,0,0,0-2.35-2.23A2,2,0,0,0,100.4,62a1.76,1.76,0,0,0-1,1A9.44,9.44,0,0,0,98.66,68.73Z"/><path class="cls-32" d="M87.48,47.65a4.85,4.85,0,0,0-.75,2.62,3.82,3.82,0,0,0,.2,1.2,3.66,3.66,0,0,1,.37,1.1A5.05,5.05,0,0,1,86.81,54a1.89,1.89,0,0,0-.06,1.24,4.78,4.78,0,0,0,.38.61c.62,1,0,2.4,1.12,3.1a1.72,1.72,0,0,0,.9.23A13,13,0,0,0,92,58.39a7.21,7.21,0,0,0,2.06-1.84,9.33,9.33,0,0,0,1.44-1.72c.09-.18-.12-.22.07-.31s.24-.76.37-.78a1.28,1.28,0,0,0,.47-.26c.24-.16.36.42.44.14A11.88,11.88,0,0,0,97.6,50a4.26,4.26,0,0,0-2.95-4.67,6.1,6.1,0,0,0-4.11-.07A5.88,5.88,0,0,0,87.48,47.65Z"/><path class="cls-32" d="M97.6,50a4.26,4.26,0,0,0-2.95-4.67,6,6,0,0,0-2.45-.38c-1.25,2.48.56,5.67-.8,8.25C90.94,53.8,90,54.25,90,55c-.3,1.36,1.06,2.57.31,3.93a14.29,14.29,0,0,0,1.7-.55,7.21,7.21,0,0,0,2.06-1.84,9.33,9.33,0,0,0,1.44-1.72c.09-.18-.12-.22.07-.31s.24-.76.37-.78a1.28,1.28,0,0,0,.47-.26c.24-.16.36.42.44.14A11.88,11.88,0,0,0,97.6,50Z"/><path class="cls-33" d="M91.84,49.44c.4,0,1.18-.11,1.46.26s.09,1.23,0,1.78c-.14.78-.24,1.56-.37,2.33a.81.81,0,0,0,0,.49.54.54,0,0,0,.6.25,1.5,1.5,0,0,0,.61-.32c.31-.25.61-.52.9-.8s.5-.48.8-.18a1.64,1.64,0,0,1,.2,1.45c0,.07-.17.62,0,.62s2.21-2,2.3-5.51-2.22-3.94-2.22-3.94a4,4,0,0,0-3.7-1.6,7.76,7.76,0,0,0-6.67,3.59,2.6,2.6,0,0,0,1.87,1.65,7,7,0,0,0,2.58.07C90.79,49.52,91.31,49.45,91.84,49.44Z"/><path class="cls-32" d="M95.78,52.29c1-.07,1.24,1.16.56,2.11a5.2,5.2,0,0,1-.81.74c-1.77,1.51-2.21-.13-1.65-.64C95.18,53.31,94.53,52.37,95.78,52.29Z"/><path class="cls-31" d="M95.18,54.63c.11-.11,1.24-.77.47-1.22a.34.34,0,0,0-.48.28c0,.12,0,.24,0,.36a.73.73,0,0,1-.07.19c-.1.16-.44.32-.38.56S95.11,54.69,95.18,54.63Z"/><path class="cls-33" d="M89.78,58.05a5.11,5.11,0,0,0,1.13-.54A3.3,3.3,0,0,0,92.5,56a7.73,7.73,0,0,0,.44-2.35,3.68,3.68,0,0,1,1.37-1.87c.48-.27.42,1.38.39,1.61-.22,1.36-.2,1.36-.35,2.11s-.07.38-.27,1.16a18.53,18.53,0,0,1-.81,1.83,5.34,5.34,0,0,1-.76,1.28,5.22,5.22,0,0,1-2.29,1.6,1.92,1.92,0,0,1-2.39-.42,2.84,2.84,0,0,1-.48-1.57A5.39,5.39,0,0,1,87.58,58a1.12,1.12,0,0,0,.85.24A4.07,4.07,0,0,0,89.78,58.05Z"/><path class="cls-33" d="M88.7,56.38c.29.29.49.66.77,1a2.24,2.24,0,0,0,.92.59.65.65,0,0,1-.47.31,1,1,0,0,1-.81-.17c-.36-.24-.53-.68-.88-.94a4.64,4.64,0,0,0-.44-.26.89.89,0,0,1-.37-.35c-.2-.35.06-.47.36-.51A1.15,1.15,0,0,1,88.7,56.38Z"/><polygon class="cls-34" points="170.67 102.45 158.25 95.28 158.25 105.13 170.67 112.3 170.67 102.45"/><polygon class="cls-34" points="124.36 85.57 144.16 97 144.16 87.15 124.36 75.72 124.36 85.57"/><polygon class="cls-35" points="157.08 94.61 145.34 87.83 145.34 97.67 157.08 104.45 157.08 94.61"/><polygon class="cls-12" points="195 116.5 195 126.35 217.65 139.43 217.89 129.72 195 116.5"/><polygon class="cls-12" points="123.19 75.05 111.67 68.39 111.67 78.24 123.19 84.89 123.19 75.05"/><polygon class="cls-34" points="193.83 115.83 171.84 103.13 171.84 112.98 193.83 125.68 193.83 115.83"/><path class="cls-29" d="M179.94,132.27l-2-1.15v-2.29l2,1.14Zm-1.63-1.35,1.27.73v-1.47l-1.27-.73Z"/><polygon class="cls-11" points="188.81 136.76 180.84 132.15 180.84 131.13 188.81 135.73 188.81 136.76"/><polygon class="cls-11" points="198.58 142.4 194.94 140.29 194.94 139.27 198.58 141.37 198.58 142.4"/><polygon class="cls-11" points="207.87 147.76 204.23 145.66 204.23 144.63 207.87 146.74 207.87 147.76"/><path class="cls-29" d="M179.94,137.15,178,136v-2.3l2,1.15Zm-1.63-1.36,1.27.73v-1.46l-1.27-.74Z"/><polygon class="cls-11" points="190.37 142.01 180.84 136.51 180.84 135.49 190.37 140.99 190.37 142.01"/><polygon class="cls-11" points="185.7 141 180.84 138.2 180.84 137.17 185.7 139.98 185.7 141"/><polygon class="cls-11" points="190.37 157.91 180.84 152.41 180.84 151.38 190.37 156.88 190.37 157.91"/><polygon class="cls-11" points="185.7 156.9 180.84 154.09 180.84 153.06 185.7 155.87 185.7 156.9"/><polygon class="cls-11" points="190.37 168.43 180.84 162.93 180.84 161.91 190.37 167.41 190.37 168.43"/><polygon class="cls-11" points="185.7 167.42 180.84 164.62 180.84 163.59 185.7 166.4 185.7 167.42"/><polygon class="cls-11" points="199.92 148.04 194.94 145.17 194.94 144.14 199.92 147.02 199.92 148.04"/><polygon class="cls-11" points="207.87 152.63 204.23 150.53 204.23 149.51 207.87 151.61 207.87 152.63"/><path class="cls-29" d="M179.94,142.57l-2-1.15v-2.3l2,1.15Zm-1.63-1.36,1.27.74v-1.47l-1.27-.74Z"/><polygon class="cls-11" points="189.96 147.72 180.84 142.45 180.84 141.42 189.96 146.69 189.96 147.72"/><polygon class="cls-11" points="198.58 152.69 194.94 150.59 194.94 149.56 198.58 151.67 198.58 152.69"/><polygon class="cls-11" points="207.87 158.06 204.23 155.95 204.23 154.93 207.87 157.03 207.87 158.06"/><path class="cls-29" d="M179.94,147.53l-2-1.14v-2.3l2,1.15Zm-1.63-1.35,1.27.73v-1.47l-1.27-.73Z"/><polygon class="cls-11" points="186.17 150.5 180.84 147.42 180.84 146.39 186.17 149.47 186.17 150.5"/><polygon class="cls-11" points="199.45 158.16 194.94 155.56 194.94 154.53 199.45 157.14 199.45 158.16"/><polygon class="cls-11" points="207.87 163.02 204.23 160.92 204.23 159.9 207.87 162 207.87 163.02"/><path class="cls-29" d="M179.94,153l-2-1.15v-2.3l2,1.15Zm-1.63-1.36,1.27.73v-1.46l-1.27-.74Z"/><polygon class="cls-11" points="197.6 162.52 194.94 160.98 194.94 159.95 197.6 161.49 197.6 162.52"/><polygon class="cls-11" points="207.87 168.44 204.23 166.34 204.23 165.32 207.87 167.42 207.87 168.44"/><path class="cls-29" d="M179.94,158.06l-2-1.15v-2.3l2,1.15Zm-1.63-1.36,1.27.74V156l-1.27-.73Z"/><polygon class="cls-11" points="188.81 162.55 180.84 157.94 180.84 156.92 188.81 161.52 188.81 162.55"/><polygon class="cls-11" points="199.95 168.98 194.94 166.08 194.94 165.06 199.95 167.95 199.95 168.98"/><polygon class="cls-11" points="207.87 173.55 204.23 171.44 204.23 170.42 207.87 172.52 207.87 173.55"/><path class="cls-29" d="M179.94,163.48l-2-1.15V160l2,1.14Zm-1.63-1.36,1.27.74v-1.47l-1.27-.73Z"/><polygon class="cls-11" points="198.58 173.6 194.94 171.5 194.94 170.48 198.58 172.58 198.58 173.6"/><polygon class="cls-11" points="207.87 178.97 204.23 176.87 204.23 175.84 207.87 177.94 207.87 178.97"/><path class="cls-29" d="M179.94,168.45l-2-1.15V165l2,1.15Zm-1.63-1.36,1.27.74v-1.47l-1.27-.74Z"/><polygon class="cls-11" points="188.81 172.94 180.84 168.33 180.84 167.31 188.81 171.91 188.81 172.94"/><polygon class="cls-11" points="199.62 179.17 194.94 176.47 194.94 175.44 199.62 178.15 199.62 179.17"/><polygon class="cls-11" points="207.87 183.94 204.23 181.83 204.23 180.81 207.87 182.91 207.87 183.94"/><path class="cls-29" d="M179.94,173.87l-2-1.15v-2.3l2,1.15Zm-1.63-1.36,1.27.74v-1.47l-1.27-.74Z"/><polygon class="cls-11" points="188.81 178.36 180.84 173.75 180.84 172.73 188.81 177.33 188.81 178.36"/><polygon class="cls-11" points="198.58 183.99 194.94 181.89 194.94 180.87 198.58 182.97 198.58 183.99"/><polygon class="cls-11" points="207.87 189.36 204.23 187.25 204.23 186.23 207.87 188.33 207.87 189.36"/><polygon class="cls-11" points="215.87 152.38 211.03 149.58 211.03 148.56 215.87 151.35 215.87 152.38"/><polygon class="cls-11" points="215.87 157.25 211.03 154.46 211.03 153.43 215.87 156.22 215.87 157.25"/><polygon class="cls-11" points="215.87 162.67 211.03 159.88 211.03 158.85 215.87 161.65 215.87 162.67"/><polygon class="cls-11" points="215.87 167.64 211.03 164.85 211.03 163.82 215.87 166.61 215.87 167.64"/><polygon class="cls-11" points="215.87 173.06 211.03 170.27 211.03 169.24 215.87 172.03 215.87 173.06"/><polygon class="cls-11" points="215.87 178.16 211.03 175.37 211.03 174.35 215.87 177.14 215.87 178.16"/><polygon class="cls-11" points="215.86 183.58 211.03 180.79 211.03 179.77 215.86 182.56 215.86 183.58"/><polygon class="cls-11" points="215.86 188.55 211.03 185.76 211.03 184.74 215.86 187.53 215.86 188.55"/><polygon class="cls-11" points="215.86 193.97 211.03 191.18 211.03 190.16 215.86 192.95 215.86 193.97"/><polygon class="cls-11" points="219.82 155.94 175.43 130.31 175.43 130.72 219.82 156.35 219.82 155.94"/><polygon class="cls-11" points="219.82 161.18 175.43 135.54 175.43 135.96 219.82 161.59 219.82 161.18"/><polygon class="cls-11" points="219.82 166.41 175.43 140.78 175.43 141.2 219.82 166.83 219.82 166.41"/><polygon class="cls-11" points="219.82 171.66 175.43 146.02 175.43 146.44 219.82 172.07 219.82 171.66"/><polygon class="cls-11" points="219.82 176.89 175.43 151.26 175.43 151.68 219.82 177.31 219.82 176.89"/><polygon class="cls-11" points="219.82 182.13 175.43 156.5 175.43 156.92 219.82 182.55 219.82 182.13"/><polygon class="cls-11" points="219.82 187.37 175.43 161.74 175.43 162.16 219.82 187.79 219.82 187.37"/><polygon class="cls-11" points="219.82 192.61 175.43 166.98 175.43 167.4 219.82 193.03 219.82 192.61"/></g></g></svg>