<svg id="レイヤー_1" data-name="レイヤー 1" xmlns="http://www.w3.org/2000/svg" viewBox="0 0 283.46 283.46"><defs><style>.cls-1{fill:#e3be63;}.cls-2{fill:#513939;}.cls-3{fill:#352121;}.cls-4{fill:#f2d889;}.cls-5{fill:#ecd1d1;}.cls-6{fill:#f4a994;}.cls-7{fill:#f7c1b0;}.cls-8{fill:#fff;}.cls-9{fill:#b83e3d;}.cls-10{fill:#8d6868;}.cls-11{fill:#3d2928;}.cls-12{fill:#765454;}.cls-13{fill:#654847;}.cls-14{fill:#c74948;}.cls-15{fill:#54b5bb;}</style></defs><path class="cls-1" d="M113.85,83.22c-4.4-10.29-10-7.9-10-7.9l-1.46,2s.19,33.69,9.62,34.32c4.12.28,5.77.06,7.15-2.31a12.91,12.91,0,0,0,2-7.37C120.71,94.77,116.2,88.71,113.85,83.22Z"/><path class="cls-2" d="M121.09,215.93c-2.73-2.67-4.77-4.89-4.77-4.89l-12.43-.53v4.11a5.2,5.2,0,0,0,2.31,2.93,52.87,52.87,0,0,0,7.78,4,46.76,46.76,0,0,0,10.4,2.25c2.61.1,3.74-1.12,2.37-2.46C124.4,219.1,123.62,218.39,121.09,215.93Z"/><path class="cls-2" d="M83.83,216.16,72.62,214.9a29.22,29.22,0,0,0,1.06,14.47c2.62,7.35,7.23,7.42,8.84,6.84s2.37-5.25,2.08-10.55S83.83,216.16,83.83,216.16Z"/><path class="cls-3" d="M108.85,122.77s-23.57-7.11-22.91-2c0,0-8.31,7.93-7.35,23,.45,6.92-1.41,22.65-2,34.53-7,15.66-8.33,33.75-8.33,33.75s-1.06,3,4.35,5.73,13.32-.11,13.32-.11,0-23.33,6.27-36.56c3.44-7.24,4.36-32.32,4.36-32.32L102,175.65l.48,34.07s3.85,3.8,8.52,3.82c6.09,0,6.4-3.53,6.4-3.53s1.06-29.19-1.36-45.54C113.9,150.09,108.85,122.77,108.85,122.77Z"/><path class="cls-4" d="M112.64,92.73c-1-9.29-9.11-15.86-9.11-15.86-7.6-3-15,2.69-15,2.69s-10.35,5-11,9.51c-.36,2.73,1.65,19.41,3,29.73.38,2.91-.13,8.08-.84,13.12a27.25,27.25,0,0,0,13,5.41,24.59,24.59,0,0,0,19.4-7c-.28-2.88-.49-5.54-.48-7.26C111.71,112.87,113.12,97.34,112.64,92.73Z"/><path class="cls-1" d="M103.15,82.17,92.32,87.52A54,54,0,0,0,98,93.43a86.08,86.08,0,0,1,6.27,6.49A17.2,17.2,0,0,0,106,88.53,19.76,19.76,0,0,0,103.15,82.17Z"/><path class="cls-5" d="M103.28,83.22a11.38,11.38,0,0,1-3.1,1.93c-2.53,1.11-6,2.19-4.8,3.38,2.16,2.13,8.71,8.33,8.71,8.33a14.27,14.27,0,0,0,.82-6.39A30.61,30.61,0,0,0,103.28,83.22Z"/><path class="cls-6" d="M91.18,69.72l-2,11.11s6,5.56,8.58,6.37a19.21,19.21,0,0,0,3.36-3.46l-.49-7.15Z"/><path class="cls-7" d="M90.07,57.51c-2.09,2.67-2.74,9.35.14,14,2.56,4.18,8.39,6.54,11,7,4.62.75,9.62-12,4.33-19.86C100.49,51.2,92.76,54.09,90.07,57.51Z"/><path class="cls-8" d="M100.82,79.36l-.64,5.79,4.71,1.93S105.43,80.88,100.82,79.36Z"/><path class="cls-8" d="M89.59,78.54C86.39,81.68,90,86,90,86c2.76,2.18,8.37,4.45,8.37,4.45l1.77-5.32a32,32,0,0,1-5.74-2A13.2,13.2,0,0,1,89.59,78.54Z"/><path class="cls-2" d="M103.07,77.87l-.62.52a23.92,23.92,0,0,1,3.36,8c1.06,4.9-.28,17.84-1.19,20.48-1.13-2.25-5.18-13.68-9.8-18.84a64.62,64.62,0,0,0-8.46-7.84c-.89-.65-.85.38-.55.63a94.89,94.89,0,0,1,8.34,7.81c5.76,6.43,10.09,19.5,10.13,19.57l.44,1,.38-1c.16-.41,3-15.67,1.58-22A24.82,24.82,0,0,0,103.07,77.87Z"/><polygon class="cls-8" points="101.53 106.82 102.13 115.84 107.85 112.53 107.85 112.52 107.25 103.52 101.53 106.82"/><polygon class="cls-9" points="102.02 107.17 102.08 108.18 106.94 105.37 106.88 104.36 102.02 107.17"/><polygon class="cls-5" points="102.23 108.96 102.65 114.87 105.59 113.17 105.17 107.26 102.23 108.96"/><path class="cls-3" d="M95.15,52.17c-6.15.77-8.64,7.41-8.65,10.77a12,12,0,0,0,3.71,8.61s-.14-3.27.85-4.12,1.64-.34,2.1,1.45a4.28,4.28,0,0,0,1.29.18s-.29-6.51,7.52-9.19c3.56-1.22,4.11.8,5.17,2.2.48-.78.13-3.7-.68-5.32C105.06,54,101.31,51.41,95.15,52.17Z"/><path class="cls-7" d="M88.71,106.8l-2.21.9v6.68l10.23-2.7-2.24-7.18C92.1,105.51,90.93,105.9,88.71,106.8Z"/><path class="cls-1" d="M114,98.88a60.81,60.81,0,0,0-12,2.43,24.27,24.27,0,0,0-8.2,4.25s1,3.78,2.26,5.23,18.69,2.51,21.62.66S120.29,100.2,114,98.88Z"/><path class="cls-8" d="M96.93,103.44l-4,1.74a3.33,3.33,0,0,1,.84,1.54c.46,1.26,1.41,4.7,1.41,4.7l3.8.26a16.47,16.47,0,0,0,.3-4.61A3.85,3.85,0,0,0,96.93,103.44Z"/><path class="cls-1" d="M105.47,101.77c-4.7,2.63-21.28,14.49-21.28,14.49s3.65,7.55,7.42,7c4.48-.6,13.48-7.24,16.81-10.6s5.62-7.09,5.55-9.83a6.89,6.89,0,0,0-1.62-4.33A36.77,36.77,0,0,0,105.47,101.77Z"/><path class="cls-1" d="M87.55,97.91c-1.83-7.58-5.79-11.36-8.18-12-4.37,1.8-4.48,6.5-3.83,15.57A35,35,0,0,0,80,116.65c3.09,5.73,7.7,7.19,11.17,6.8,3.65-.41,3.36-3.53,2.26-6.65C93.39,116.8,88.71,102.71,87.55,97.91Z"/><path class="cls-8" d="M109.91,98a8.55,8.55,0,0,0-3.33,2.5,16,16,0,0,1,3.62.73,6.29,6.29,0,0,1,3.47,3.25s1.85-2.52.27-4.88A3.76,3.76,0,0,0,109.91,98Z"/><polygon class="cls-10" points="58.92 169.8 107.95 198.23 224.55 130.61 175.48 102.42 58.92 169.8"/><polygon class="cls-2" points="107.95 277.16 224.55 209.46 224.55 130.53 107.95 198.23 107.95 277.16"/><polygon class="cls-11" points="58.92 248.73 108.4 277.16 108.4 198.23 58.92 169.8 58.92 248.73"/><polygon class="cls-4" points="107.95 277.16 224.55 209.46 224.55 191.33 107.95 259.03 107.95 277.16"/><polygon class="cls-1" points="58.92 248.73 108.4 277.16 108.4 258.69 58.92 230.26 58.92 248.73"/><polygon class="cls-12" points="107.95 203.97 224.55 136.28 224.55 130.53 107.95 198.23 107.95 203.97"/><polygon class="cls-13" points="58.92 175.55 108.4 203.97 108.4 198.23 58.92 169.8 58.92 175.55"/><path class="cls-5" d="M146.29,159.11l-24-13.86a2.52,2.52,0,0,0-2.26-.1l-14.44,8.34c-.58.33-.5.92.16,1.3l24,13.87a2.48,2.48,0,0,0,2.26.09l14.44-8.33C147,160.08,147,159.5,146.29,159.11Z"/><rect class="cls-5" x="105.18" y="152.58" width="1.65" height="1.42"/><rect class="cls-5" x="145.19" y="158.4" width="1.65" height="1.41"/><path class="cls-8" d="M146.29,157.7l-24-13.86a2.52,2.52,0,0,0-2.26-.1l-14.44,8.34c-.58.33-.5.92.16,1.3l24,13.87a2.52,2.52,0,0,0,2.26.1L146.45,159C147,158.68,147,158.09,146.29,157.7Z"/><polygon class="cls-14" points="107.62 153.05 130.32 166.16 144.4 158.03 121.7 144.93 107.62 153.05"/><path class="cls-2" d="M113.54,148.34c-.15.09-.13.24,0,.34a.68.68,0,0,0,.59,0c.15-.09.13-.24,0-.34A.68.68,0,0,0,113.54,148.34Z"/><path class="cls-5" d="M137.67,162.26c-.61.35-.85.78-.55,1a2,2,0,0,0,1.64-.31c.6-.35.84-.77.54-.95A2,2,0,0,0,137.67,162.26Z"/><path class="cls-8" d="M137.84,162.37c-.48.28-.71.6-.5.72a1.68,1.68,0,0,0,1.25-.29c.48-.27.7-.6.5-.72A1.71,1.71,0,0,0,137.84,162.37Z"/><path class="cls-5" d="M175.24,141.84l-24-13.87a2.52,2.52,0,0,0-2.25-.09l-14.44,8.34c-.58.33-.51.92.16,1.3l24,13.87a2.51,2.51,0,0,0,2.26.09l14.44-8.33C176,142.81,175.9,142.23,175.24,141.84Z"/><rect class="cls-5" x="134.13" y="135.31" width="1.65" height="1.42"/><rect class="cls-5" x="174.13" y="141.13" width="1.65" height="1.41"/><path class="cls-8" d="M175.24,140.43l-24-13.86a2.49,2.49,0,0,0-2.25-.1l-14.44,8.34c-.58.33-.51.92.16,1.3l24,13.87a2.48,2.48,0,0,0,2.26.09l14.44-8.33C176,141.4,175.9,140.82,175.24,140.43Z"/><polygon class="cls-15" points="136.57 135.78 159.27 148.89 173.35 140.76 150.64 127.66 136.57 135.78"/><path class="cls-2" d="M142.48,131.07c-.15.09-.13.24.05.34a.66.66,0,0,0,.58,0c.16-.09.14-.24,0-.34A.65.65,0,0,0,142.48,131.07Z"/><path class="cls-5" d="M166.61,145c-.6.35-.84.78-.54,1a2,2,0,0,0,1.63-.31c.6-.35.85-.77.55-.95A2.05,2.05,0,0,0,166.61,145Z"/><path class="cls-8" d="M166.78,145.1c-.48.28-.7.6-.5.72a1.67,1.67,0,0,0,1.25-.29c.48-.28.71-.6.5-.72A1.67,1.67,0,0,0,166.78,145.1Z"/><path class="cls-5" d="M202,126.58l-24-13.87a2.51,2.51,0,0,0-2.26-.09L161.28,121c-.58.34-.51.92.16,1.31l24,13.87a2.54,2.54,0,0,0,2.26.09l14.44-8.34C202.73,127.55,202.66,127,202,126.58Z"/><rect class="cls-5" x="160.89" y="120.05" width="1.65" height="1.42"/><rect class="cls-5" x="200.9" y="125.87" width="1.65" height="1.41"/><path class="cls-8" d="M202,125.17,178,111.3a2.51,2.51,0,0,0-2.26-.09l-14.44,8.34c-.58.33-.51.91.16,1.3l24,13.87a2.54,2.54,0,0,0,2.26.09l14.44-8.34C202.73,126.14,202.66,125.55,202,125.17Z"/><polygon class="cls-4" points="163.33 120.52 186.03 133.63 200.11 125.5 177.41 112.39 163.33 120.52"/><path class="cls-2" d="M169.24,115.81c-.15.08-.13.24,0,.34a.63.63,0,0,0,.58,0c.16-.09.14-.24,0-.34A.65.65,0,0,0,169.24,115.81Z"/><path class="cls-5" d="M193.37,129.73c-.6.35-.84.77-.54,1a2,2,0,0,0,1.63-.3c.6-.35.85-.78.55-1A2.07,2.07,0,0,0,193.37,129.73Z"/><path class="cls-8" d="M193.54,129.84c-.48.28-.7.6-.5.72a1.67,1.67,0,0,0,1.25-.29c.48-.28.71-.6.5-.72A1.68,1.68,0,0,0,193.54,129.84Z"/><path class="cls-5" d="M115.26,177.18l-24-13.87a2.46,2.46,0,0,0-2.25-.09l-14.45,8.33c-.57.34-.5.92.17,1.31l24,13.86a2.51,2.51,0,0,0,2.26.1l14.44-8.34C116,178.15,115.93,177.56,115.26,177.18Z"/><rect class="cls-5" x="74.16" y="170.64" width="1.65" height="1.42"/><rect class="cls-5" x="114.16" y="176.47" width="1.65" height="1.41"/><path class="cls-8" d="M115.26,175.77l-24-13.87a2.49,2.49,0,0,0-2.25-.09l-14.45,8.33c-.57.34-.5.92.17,1.31l24,13.87a2.54,2.54,0,0,0,2.26.09l14.44-8.34C116,176.74,115.93,176.15,115.26,175.77Z"/><polygon class="cls-2" points="76.6 171.12 99.3 184.22 113.37 176.1 90.67 162.99 76.6 171.12"/><path class="cls-2" d="M82.51,166.41c-.15.08-.13.23,0,.34a.65.65,0,0,0,.59,0c.15-.09.13-.24,0-.34A.65.65,0,0,0,82.51,166.41Z"/><path class="cls-5" d="M106.64,180.33c-.6.35-.85.77-.54.95a2,2,0,0,0,1.63-.3c.6-.35.85-.78.55-1A2,2,0,0,0,106.64,180.33Z"/><path class="cls-8" d="M106.81,180.44c-.48.27-.7.6-.5.72a1.67,1.67,0,0,0,1.25-.29c.48-.28.71-.6.5-.72A1.67,1.67,0,0,0,106.81,180.44Z"/></svg>