<svg id="レイヤー_1" data-name="レイヤー 1" xmlns="http://www.w3.org/2000/svg" viewBox="0 0 566.93 396.85"><defs><style>.cls-1{fill:#fff;}.cls-2{fill:#009fe8;}</style></defs><path class="cls-1" d="M190.17,32.59,138,62.71c-4.9,2.83-8.91,9.79-8.91,15.48V98.8c-.62,7.21-3.31,14.67-7.72,19.71,5.39.52,12.3-5.32,18.51-13.21l50.29-29c4.9-2.83,8.91-9.8,8.91-15.48v-23C199.08,32.1,195.07,29.76,190.17,32.59Z"/><path class="cls-2" d="M141.05,85.69c0,1.16.06,3.34.06,3.48,0,.42-.12.57-.58.84l-1.29.74c-.46.27-.58.26-.58-.16,0-.14.06-2.39.06-3.55v-6.2c0-1.17-.06-3.34-.06-3.48,0-.43.12-.58.58-.84l1.29-.75c.46-.26.58-.25.58.17,0,.14-.06,2.39-.06,3.55v1c0,.5.1.54.6.25l5.86-3.37c.5-.29.6-.45.6-1v-1c0-1.17-.06-3.35-.06-3.49,0-.42.12-.57.58-.84l1.29-.74c.46-.27.58-.26.58.17,0,.14-.06,2.38-.06,3.55v6.2c0,1.16.06,3.34.06,3.48,0,.42-.12.57-.58.84l-1.29.74c-.46.27-.58.26-.58-.16,0-.14.06-2.39.06-3.56V79.76c0-.5-.1-.54-.6-.25l-5.86,3.38c-.5.29-.6.44-.6,1Z"/><path class="cls-2" d="M161.59,76.42a.58.58,0,0,1,.12.31c0,.19-.12.36-.4.66A14.67,14.67,0,0,1,158,80c-3.58,2.07-5.07.57-5.07-2.14A10.26,10.26,0,0,1,158,69.47c2.57-1.49,4.06-.58,4.06,2.52,0,1-.16,1.28-.68,1.58l-5.69,3.29c-.37.21-.51.35-.51.59a1.39,1.39,0,0,0,.43.88c.46.46,1.26.42,2.57-.34a9.26,9.26,0,0,0,2.25-1.84,1.66,1.66,0,0,1,.41-.39c.16-.1.24,0,.38.2Zm-1.67-4.12a1.4,1.4,0,0,0-.28-.78c-.32-.44-.89-.46-1.69,0a5.56,5.56,0,0,0-2.21,2.4,3.43,3.43,0,0,0-.36,1c0,.16.14.14.46,0l3.56-2.06C159.76,72.65,159.9,72.51,159.92,72.3Z"/><path class="cls-2" d="M168,74.17a6.62,6.62,0,0,1-.61.37c-2.33,1.35-3.11.86-3.11-1.51V64.66c0-.83,0-2.55,0-2.69,0-.43.12-.57.58-.84l1.16-.68c.47-.26.59-.25.59.17,0,.14,0,1.83,0,2.74v8.16c0,1,.22,1.38,1.25.81.16-.09.4-.27.5-.33s.28-.06.28.22v1C168.59,73.71,168.49,73.87,168,74.17Z"/><path class="cls-2" d="M174.09,70.67c-.2.14-.4.25-.6.37-2.33,1.35-3.12.86-3.12-1.52V61.15c0-.82,0-2.55,0-2.69,0-.42.12-.57.59-.84l1.16-.67c.47-.27.59-.26.59.17,0,.14,0,1.83,0,2.74V68c0,1,.22,1.38,1.24.81.16-.1.4-.27.51-.33s.28-.06.28.22v1C174.66,70.21,174.56,70.36,174.09,70.67Z"/><path class="cls-2" d="M186.2,58.27a10.3,10.3,0,0,1-5.33,8.57c-2.86,1.65-5,.92-5-2.16a10.33,10.33,0,0,1,5.33-8.61C184.07,54.44,186.2,55.2,186.2,58.27Zm-8,5.09c0,1.85,1.13,2.4,2.7,1.5a6.06,6.06,0,0,0,2.93-5.06c0-1.89-1.16-2.4-2.73-1.5A5.89,5.89,0,0,0,178.23,63.36Z"/><path class="cls-2" d="M191.34,59.27a3,3,0,0,1-1.52,2.41c-.79.45-1.37.26-1.37-.52A3,3,0,0,1,190,58.7C190.74,58.25,191.34,58.48,191.34,59.27Zm-1.77-1.86c-.5.29-.6.25-.62-.24l-.14-4.89c0-1.3-.14-3.48-.14-3.88s.12-.49.56-.75l1.31-.75c.44-.26.56-.25.56.09s-.1,2.7-.14,4.19l-.12,4.9c0,.51-.12.67-.62,1Z"/></svg>