<svg id="レイヤー_1" data-name="レイヤー 1" xmlns="http://www.w3.org/2000/svg" xmlns:xlink="http://www.w3.org/1999/xlink" viewBox="0 0 566.93 396.85"><defs><style>.cls-1{fill:none;}.cls-2{clip-path:url(#clip-path);}.cls-3{fill:#54bec6;}.cls-4{fill:#35a7aa;}.cls-5{fill:#6bd8db;}.cls-6{fill:#f9dd89;}.cls-7{fill:#4c3948;}.cls-8{fill:#674747;}.cls-9{fill:#352222;}.cls-10{fill:#513939;}.cls-11{fill:#fff;}.cls-12{fill:#dbb4b4;}.cls-13{fill:#efd3d3;}.cls-14{fill:#ffc4b2;}.cls-15{fill:#3d2929;}.cls-16{clip-path:url(#clip-path-2);}.cls-17{fill:#ced4f1;}.cls-18{fill:#271e2c;}.cls-19{fill:#f3a984;}.cls-20{fill:#ffc7ad;}.cls-21{fill:#3e3544;}.cls-22{fill:#f4f5fa;}.cls-23{fill:#1499fc;}.cls-24{fill:#f0f0f5;}.cls-25{fill:#453c4c;}.cls-26{fill:#009fe8;}</style><clipPath id="clip-path"><rect class="cls-1" x="371.34" y="60.25" width="189.46" height="298.15"/></clipPath><clipPath id="clip-path-2"><path class="cls-1" d="M484.14,192.57c.24.46.5.93.77,1.4l.12.21a41.6,41.6,0,0,0,3.07,4.52c.59.77,1.2,1.5,1.82,2.19l.09.09c.23.26.46.5.7.75a31.64,31.64,0,0,0,4.53,3.91A18.87,18.87,0,0,0,503,209a11.94,11.94,0,0,0,2.13.13,8.75,8.75,0,0,0,4.12-1.14,8.3,8.3,0,0,0,2-1.58c4.67-5.05,4-16.16-2-26.53-6.72-11.64-17.63-17.94-24.35-14C478.45,169.58,478.2,181.33,484.14,192.57Z"/></clipPath></defs><g class="cls-2"><polygon class="cls-3" points="542.83 329.84 432.8 265.83 432.8 91.12 542.83 155.13 542.83 329.84"/><polygon class="cls-4" points="547.11 327.52 542.83 329.84 542.83 155.13 547.11 152.81 547.11 327.52"/><polygon class="cls-5" points="547.11 152.81 542.83 155.13 432.35 90.86 436.55 88.5 547.11 152.81"/><path class="cls-6" d="M450.85,113a4.12,4.12,0,1,1-5.28,2.48A4.11,4.11,0,0,1,450.85,113Z"/><polygon class="cls-7" points="470.29 107.68 449.45 119.71 444 116.57 464.84 104.54 470.29 107.68"/><polygon class="cls-8" points="470.29 105.79 449.45 117.82 444 114.68 464.84 102.65 470.29 105.79"/><polygon class="cls-9" points="470.29 107.68 449.45 119.71 449.45 117.82 470.29 105.79 470.29 107.68"/><polygon class="cls-10" points="449.45 119.71 444 116.57 444 114.68 449.45 117.82 449.45 119.71"/><path class="cls-6" d="M504.88,144.86a4.13,4.13,0,1,1-5.29,2.49A4.14,4.14,0,0,1,504.88,144.86Z"/><polygon class="cls-7" points="524.31 139.55 503.48 151.58 498.03 148.43 518.87 136.4 524.31 139.55"/><polygon class="cls-8" points="524.31 137.66 503.48 149.69 498.03 146.54 518.87 134.51 524.31 137.66"/><polygon class="cls-9" points="524.31 139.55 503.48 151.58 503.48 149.69 524.31 137.66 524.31 139.55"/><polygon class="cls-10" points="503.48 151.58 498.03 148.43 498.03 146.54 503.48 149.69 503.48 151.58"/><polygon class="cls-10" points="521.78 232.57 439.17 184.81 439.17 124.73 521.78 172.71 521.78 232.57"/><path class="cls-11" d="M501.7,169.27c-.48,2.08.83,3.38,2.46,4.28-2.17,1-3.53,2.67-2.41,5.51,1.07,2.68,3.73,4.52,6.31,3.86-.14,3.61,1.77,7.56,5.3,8.87a5.07,5.07,0,0,0,5.31-1V225.7l-60.73-35.11c3-5.33.25-14.39-5.9-14.5a4,4,0,0,0-4.16-5.44,6,6,0,0,0-5.73-7.5V128.86l65,37.77C504.9,166.16,502.33,166.56,501.7,169.27Z"/><path class="cls-3" d="M447.88,170.65a4,4,0,0,1,4.16,5.44c6.15.11,8.87,9.17,5.9,14.5l-15.79-9.12V163.15A6,6,0,0,1,447.88,170.65Z"/><path class="cls-3" d="M504.16,173.55c-1.63-.9-2.94-2.2-2.46-4.28.63-2.71,3.2-3.11,5.48-2.64l11.49,6.67v17.49a5.07,5.07,0,0,1-5.31,1c-3.53-1.31-5.44-5.26-5.3-8.87-2.58.66-5.24-1.18-6.31-3.86C500.63,176.22,502,174.54,504.16,173.55Z"/><polygon class="cls-9" points="524.22 231.31 521.78 232.57 521.78 172.71 524.22 171.45 524.22 231.31"/><polygon class="cls-8" points="524.22 171.45 521.78 172.71 439.17 124.73 441.61 123.47 524.22 171.45"/><polygon class="cls-11" points="479.14 207 470.45 201.98 470.45 200.41 479.14 205.43 479.14 207"/><path class="cls-3" d="M497.11,203.49a3.21,3.21,0,0,1,.92-4.28,3,3,0,0,1,4.6,1.23c2-1.35,4.52-1.79,6.6,0a3.84,3.84,0,0,1,.89,4.89,4.09,4.09,0,0,1,1.46,6.67c-2.31,2.49-7.29,2-9-.86-3.11,1.33-7,.29-8.18-3.27C493.54,205.3,495.05,203.89,497.11,203.49Z"/><path class="cls-3" d="M449,147.85c-1.06-.94-1.77-2.46-.46-3.69s2.4.12,2.83,1.54a3.31,3.31,0,0,1,3.25-1.18c1.69.49,1.92,2.34,1.67,4s-1.17,3.58-2.87,3.92a2.66,2.66,0,0,1-2.89-1.34c-1.15.92-3,1.73-3.66-.17C446.29,149.4,447.68,148.35,449,147.85Z"/><path class="cls-12" d="M483.33,169c8.63,4.36,11.58,8.64,11.58,8.64s-14.42-4.24-19.22-5.05-6.77-6.3-6.77-6.3S474.7,164.6,483.33,169Z"/><path class="cls-13" d="M505.32,189l-11.55,5-4.24-4.52a18.59,18.59,0,0,1,7.91-1.86C503.37,187.46,505.32,189,505.32,189Z"/><path class="cls-12" d="M472.72,176.62c-1.39,3-1.3,19.14-1.3,19.14s-4.29-3.25-5.92-11.66c-1.47-7.5.47-16.77.47-16.77S474.12,173.64,472.72,176.62Z"/><path class="cls-12" d="M462.69,164.6c3,3.34,20.23,22.56,27,28.8a14.65,14.65,0,0,1-5.78-3.54c-3.37-3.35-21.11-22.55-24.45-27.83-1.52-2.41-1.63-4-1-4.75A19,19,0,0,0,462.69,164.6Z"/><path class="cls-13" d="M462.6,158.29c3.07,2.94,25.06,25.38,25.06,25.38,7.34,7.88,7.28,10.39,5.6,10.39a12.22,12.22,0,0,1-3.6-.66c-6.74-6.24-23.94-25.46-27-28.8a19,19,0,0,1-4.27-7.32C459.16,156.38,460.94,156.69,462.6,158.29Z"/><polygon class="cls-8" points="493.48 240.15 474.9 250.88 443.34 232.66 461.92 221.93 493.48 240.15"/><polygon class="cls-11" points="478.52 245.87 474.55 248.16 467.81 244.27 471.78 241.98 478.52 245.87"/><polygon class="cls-9" points="493.48 242.81 474.9 253.54 474.9 250.88 493.48 240.15 493.48 242.81"/><polygon class="cls-10" points="474.9 253.54 443.34 235.31 443.34 232.66 474.9 250.88 474.9 253.54"/><path class="cls-11" d="M467.5,234.14c3.09,0,5.6,1.41,5.6,3.15s-2.51,3.15-5.6,3.15-5.6-1.41-5.6-3.15S464.4,234.14,467.5,234.14Z"/><path class="cls-11" d="M467.5,231.51a5.61,5.61,0,0,1,5.6,5.5H461.9A5.6,5.6,0,0,1,467.5,231.51Z"/><polygon class="cls-12" points="462.82 207.69 461.05 206.89 462.25 206.19 462.82 207.69"/><path class="cls-12" d="M463,206.24l12,6.95a2.67,2.67,0,0,1,1.11,2.13v22c0,.82-.5,1.2-1.11.85l-12-7a2.71,2.71,0,0,1-1.11-2.13v-22C461.88,206.26,462.38,205.88,463,206.24Z"/><polygon class="cls-12" points="475.73 238.25 474.55 238.94 474.85 237.4 475.73 238.25"/><path class="cls-11" d="M461.79,206.94l12,6.95a2.67,2.67,0,0,1,1.11,2.13v22c0,.82-.5,1.2-1.11.85l-12-6.95a2.71,2.71,0,0,1-1.12-2.13v-22C460.67,207,461.18,206.59,461.79,206.94Z"/><path class="cls-13" d="M462,207.38l11.71,6.78a2.91,2.91,0,0,1,1,2.3V237.8c0,.78-.29,1-.88.71L462,231.68a2.57,2.57,0,0,1-1.06-2l0-21.51C460.91,207.36,461.41,207,462,207.38Z"/><path class="cls-11" d="M466.48,233l1.69,1a.7.7,0,0,1,.35.56c0,.2-.19.26-.4.14l-1.68-1a.72.72,0,0,1-.35-.57C466.1,232.91,466.28,232.84,466.48,233Z"/><path class="cls-11" d="M473.89,231.4a1.34,1.34,0,0,1-2-.67c-.86,0-.8.46-.56,1-.64-.1-1.34-.08-1.53.63s.41,1.26,1,1.67a1.38,1.38,0,0,0-.2.45l-6.16-3.57a2,2,0,0,0,.66-.84,2,2,0,0,0-1.18-2.51,2.31,2.31,0,0,0-2.18,0V208.74l12.16,7Z"/><path class="cls-3" d="M471.34,231.7c-.24-.51-.3-1,.56-1a1.34,1.34,0,0,0,2,.67v5l-3.3-1.92a1.38,1.38,0,0,1,.2-.45c-.57-.41-1.17-1-1-1.67S470.7,231.6,471.34,231.7Z"/><path class="cls-3" d="M463.91,227.53a2,2,0,0,1,1.18,2.51,2,2,0,0,1-.66.84l-2.7-1.57V227.5A2.31,2.31,0,0,1,463.91,227.53Z"/><path class="cls-3" d="M466.62,224.55c-.56-.8-.94-1.82,0-2.17s1.72.79,1.78,1.66a2.81,2.81,0,0,1,3.49.81,1.63,1.63,0,0,1-1,2.48,1,1,0,0,1,0,1,2.47,2.47,0,0,1-2,.88,1.93,1.93,0,0,1-1.91-2.38c-.92-.12-2.2-.52-1.82-1.56A1.43,1.43,0,0,1,466.62,224.55Z"/><path class="cls-3" d="M463.88,217.51c-.42-.33-.74-.77-.45-1.33s.78-.49,1.22-.23c.26-.65,1.34-.74,2-.37a1.73,1.73,0,0,1,.88,2.16c1.14.41,2.65,1.31,1.75,2.25s-2.94,1.19-3.51.15c-1,.41-2.39.45-3-.59a1.34,1.34,0,0,1,.13-1.47A1.4,1.4,0,0,1,463.88,217.51Z"/><path class="cls-3" d="M471.42,217.39c-.37.32-1.18-.3-1.33-.86C469.77,215.36,472.55,216.39,471.42,217.39Z"/><path class="cls-3" d="M472.24,219.08c.81.29-.14,1.53-.91,1.38S471.15,218.7,472.24,219.08Z"/><path class="cls-3" d="M464,222c.81.28-.15,1.53-.91,1.37S462.87,221.61,464,222Z"/><path class="cls-14" d="M407.12,222.14a49.1,49.1,0,0,0-3.38,10.21c-.69,4.37.32,6.44,2.05,8.51s7.93-.69,8.16-.84l3.05-2.23a41.79,41.79,0,0,0-.61-15.86Z"/><path class="cls-15" d="M427,322.32c-3.54.15-9.22,2.52-9.22,2.52l-6.12,1.43c-.08,0-2.52,5.21.61,7.2,2.3,1.46,3.31,1.39,6.17.21,3.18-1.3,5.6-2,9.48-5.24S430.48,322.16,427,322.32Z"/><path class="cls-15" d="M436.44,333.78c-3-1.16-3.89,1.79-5.47-1.36a30.54,30.54,0,0,1-2.24-5.92l-8.41-3.4s-2.48,3.34-1.4,5,3.22,9.81,4.4,10.86,8,2.93,10.64,1.05S439.47,334.94,436.44,333.78Z"/><path class="cls-15" d="M422.09,251.18c-2.62.06-11.41-.43-12.72.62-5.69,4.6.38,28.37.61,38.33.24,10.83,1.81,32.93,1.54,35.91,1.52,1.71,9.57,2.4,12.52-2.38,0-.44-.23-18.7-.3-25.42C423.69,293.59,422.13,264.32,422.09,251.18Z"/><path class="cls-10" d="M432.78,252.79a82.22,82.22,0,0,0-15.42-2.5c0,5.34-1.09,14,1.29,22,2.66,9,8.9,17.13,10.06,18.84-1.08,3.55-10.42,28.12-11,33.73,1.55,0,4.9,1,8.27,1.86a11.88,11.88,0,0,1,5.16,3.29s5.68-18.49,10.51-32.93c1.56-4.67,1.66-6.48.32-12.68C439.05,270.79,432.78,252.79,432.78,252.79Z"/><path class="cls-4" d="M410,214.28c-1.3,1.56-3.7,6.24-5.8,10.61,1.61,2.8,6,6.6,11.36,6.42a44.85,44.85,0,0,0-1.08-7.87l3.32-10.55S413.13,210.53,410,214.28Z"/><path class="cls-14" d="M424.81,192.2c-2.49-1.73-7.27-1.19-9.35,3.19-1.15,2.43.48,9,.73,13.54a11.15,11.15,0,0,1-1,5.83l3.17,1.3a9.57,9.57,0,0,0,6.48,0l-.11-5.63s3.42-.51,4-1.06c1.44-1.32,2.2-5.24,1.54-10.29C429.25,191.55,425.72,192.83,424.81,192.2Z"/><path class="cls-3" d="M433.36,232.64c1.87-4-2.37-11.24-3.56-13.84s-5-4.19-5-4.19l-11.55-1.72s-5.06,8.79-5.73,14c-.47,3.67-.1,10.46.1,19.79a37,37,0,0,1-1.83,13.16c4.06,4.18,14.31,6.89,19.5,5.5a22.57,22.57,0,0,0,9.8-6.06C434.13,254.74,429.54,240.8,433.36,232.64Z"/><path class="cls-4" d="M424.75,213s-4.62,1.36-7.34-.77c-3.86-3-4.28,1.22-4.28,1.22a10.15,10.15,0,0,0,4.85,3.3,11.7,11.7,0,0,0,9.3-.74C427.3,213.94,424.75,213,424.75,213Z"/><path class="cls-15" d="M417.06,189.11c-2.35,1.36-7.35,3.85-5.61,12,1.41,6.55,2.78,7.28,4.76,8.82a11.22,11.22,0,0,0,4.78,1.68,5.62,5.62,0,0,0,2-3.71c.1-.78,0-3.15,0-3.15s-1.73-3.43-.39-4.65,2.89.77,3.23,1.6c1.17,2.94,2.33,4.31,2.05-.59.38-1.27,1.24-4.2,1.45-5.38a5.73,5.73,0,0,0-1.54-5.36C425.91,188.38,419.41,187.75,417.06,189.11Z"/><path class="cls-14" d="M433.42,229.42,426,234.57s2.18,5.86,3.47,8.53c1.82,3.8,3.77,5.07,5.62,5.41.2,0,1.55,0,1.75,0,1.62-2.8.24-7.58-1.75-13.68Z"/><path class="cls-4" d="M428.84,216.64c-2-.65-5.48,6.16-4.88,11,.17,1.36,1,5.15,2,9.59,4.11.88,8.56-.4,10.86-3.54C435.17,226.1,432.5,217.85,428.84,216.64Z"/><path class="cls-14" d="M436.38,239s-7.38,2.76-6.91,4.12c1.87,5.43,11.28,14.71,11.28,14.71s0,1.83.25,4.32,4.16,2.33,4.16,2.33.82,3.22,1.75,4.17c.78.79,1.83-3.33-.72-9.43C443.18,252,436.38,239,436.38,239Z"/><polygon class="cls-11" points="507.18 166.63 442.15 128.87 442.15 163.16 442.15 181.47 457.94 190.59 518.67 225.7 518.67 190.79 518.67 173.31 507.18 166.63"/><g class="cls-16"><path class="cls-17" d="M484.14,192.57c.24.46.5.93.77,1.4l.12.21a41.6,41.6,0,0,0,3.07,4.52c.59.77,1.2,1.5,1.82,2.19l.09.09c.23.26.46.5.7.75a31.64,31.64,0,0,0,4.53,3.91A18.87,18.87,0,0,0,503,209a11.94,11.94,0,0,0,2.13.13,8.75,8.75,0,0,0,4.12-1.14,8.3,8.3,0,0,0,2-1.58c4.67-5.05,4-16.16-2-26.53-6.72-11.64-17.63-17.94-24.35-14C478.45,169.58,478.2,181.33,484.14,192.57Z"/><path class="cls-18" d="M477.79,259.48l.71,4.68a.54.54,0,0,0,.71-.09v-5.63Z"/><path class="cls-18" d="M472.46,268.94a1.66,1.66,0,0,0,.34.59,2.22,2.22,0,0,0,1.36.78,2.36,2.36,0,0,0,1-.14,2.43,2.43,0,0,0,1.35-1.17,6.42,6.42,0,0,0,.87-2c.07-.34.6-3.13.79-3.6s1.16-4,1-5.3a1.23,1.23,0,0,0-.43-.85,2.22,2.22,0,0,0-.93-.4,3.66,3.66,0,0,0-1,.05,1.48,1.48,0,0,0-.55.13c-.48.25-.9-.4-1.24,0a10.79,10.79,0,0,0-1,2.51c-.16.45-.87,3.43-1.11,4.48-.17.76-.37,1.52-.47,2.3A5.89,5.89,0,0,0,472.46,268.94Z"/><path class="cls-18" d="M471.61,261.57l.13-5.44-1.53-.18.26,5.65A.8.8,0,0,0,471.61,261.57Z"/><path class="cls-18" d="M461.29,263.34a3.84,3.84,0,0,0-.52,1.56.6.6,0,0,0,.28.54,3.25,3.25,0,0,0,1.55.54,5.38,5.38,0,0,0,1.65-.1,9.05,9.05,0,0,0,2.5-1,2.81,2.81,0,0,0,1.1-1.14,5.38,5.38,0,0,0,.41-1.6,3.84,3.84,0,0,1,1.3-2.73c.24-.16.5-.27.74-.42a3.54,3.54,0,0,0,.58-5.19c-.69-.83-1.44-.67-2.29-.17a8.62,8.62,0,0,0-2.19,2.46c-.1.13-.2.25-.31.37-.77.8,0-3.2-.4-2.1C464.64,257.46,461.57,262.72,461.29,263.34Z"/><path class="cls-19" d="M464,233.36a59.34,59.34,0,0,1,1.59,9c.26,2,.75,11.68-1.18,16-.44,1,2.84-2,3.73-2.65.61-.41,1.81-1.4,1.79-2.14-.1-4.22,1.6-11.23,2.1-15.41a28.17,28.17,0,0,0-1-10.36Z"/><path class="cls-19" d="M465.11,256.52a6.41,6.41,0,0,1-.39,1c-.13.32-2.38,3.8-1.44,4.27.55.28,1.68-.3,2-.62a27,27,0,0,0,1.69-2.35,6.85,6.85,0,0,1,2.35-1.63,2.64,2.64,0,0,0,1-.72,2.5,2.5,0,0,0,.45-2,4.07,4.07,0,0,0-.38-1.06,3.6,3.6,0,0,1-.42-1,4,4,0,0,0-.58-1.83S465.19,256.2,465.11,256.52Z"/><path class="cls-20" d="M471.13,223.6c.54,7.32,2.52,18.78,3.13,26.09a57.89,57.89,0,0,1-.35,12.42c-.19,1.07,2.62,1.05,3.53.49.64-.39,1.3-3.33,1.27-4.08-.18-4.52,2-11.14,2.69-15.29A27.94,27.94,0,0,0,479.63,229c-.36-.8-.89-1.68-1.75-1.84Z"/><path class="cls-20" d="M474.9,258.59c-.11.5-.54-.58-.58-.08s-.45,3.21-.57,3.77a7.09,7.09,0,0,0-.16,2.3,1.61,1.61,0,0,0,.87,1.42c.66.29,1.47-.22,1.94-.75a6.06,6.06,0,0,0,1-1.73,10.22,10.22,0,0,0,.73-1.93,14.25,14.25,0,0,0,.53-4.1,9.37,9.37,0,0,0-.46-1.83,6.66,6.66,0,0,0-.66.53l-2.49,2.15C474.77,258.62,475,258.15,474.9,258.59Z"/><path class="cls-21" d="M503.11,182.1c0-.24,0-.47,0-.71a11.89,11.89,0,0,0-.9-4.2c-.2-.53-.53-2.7-1.43-1.6-.34.43-.3,1.61-1,1.75s-2.55.93-2.72,1.53,1.12,1.83,1.18,2.71a7.86,7.86,0,0,1-.61,3,6.58,6.58,0,0,0-.46,3c.26,1.55,1.56,2.8,1.7,4.36s-.8,2.81-1.69,4c1-.39,1.88-1.08,2.93-1.37A4.34,4.34,0,0,0,503,192.4a7.65,7.65,0,0,0,1.15-4.2c-.12-1.28-.81-2.44-1-3.71A11.92,11.92,0,0,1,503.11,182.1Z"/><path class="cls-20" d="M471.76,234.16c-1.31,1.07-2.44,7.71,2.87,7.57,2.74-.08,5.12-1.94,7.5-3.44,1.35-.85.67-2.33,2.07-3,6.49-3.32,14.79-5.12,13.6-13-.14-.87-.37-4.58-1-5-.49-.31-3.24.66-3.85.76-5.93,1-6.7,1-7.68,1.69-.16,4.45-.88,5.22-3.32,6.68C480.79,227.09,472.75,233.34,471.76,234.16Z"/><path class="cls-22" d="M485.63,200.34c-.69-.45,3.62-13.9,2.92-14.18-1.68-.68-5,8.8-7.21,15.56-.55,1.68-.72,3-1.14,4.16a24.36,24.36,0,0,1,4.3,3.31c1.79-2.57,3.36-5.37,3.2-7C487.62,201.3,486.56,200.94,485.63,200.34Z"/><path class="cls-23" d="M469.09,235.61a31.62,31.62,0,0,0,3.5,2.08c2.14,1.07,5,2.16,7.43,1.92,2.05-.19,3.59-2.41,5.45-3.15,5.85-2.32,8.31-2.84,12.1-5.84s4-7.43,3.36-11.89c-.13-1-.22-1.93-.41-2.88-.1-.52-.2-1.54-.71-1.86s-3.89.8-4.63.93c-7.14,1.18-9.78-1.46-11-.65-3.06,2.07-6.23,4-9.44,5.81-2.49,1.44-4.88,3-7.32,4.5a8.11,8.11,0,0,0-2.7,3.41,4.81,4.81,0,0,0-.09,4.11,5.94,5.94,0,0,0,1.47,1.4C467.11,234.22,468.09,234.94,469.09,235.61Z"/><path class="cls-19" d="M496,186.22a24.24,24.24,0,0,1,4.22,1.39v11.73h-9.34V186.22Z"/><path class="cls-24" d="M505.78,193.27a4.86,4.86,0,0,1-.17,1.74,42.35,42.35,0,0,1-2.76,6.61,26.4,26.4,0,0,0-2.51,7,21.51,21.51,0,0,0-.18,4.81,19.83,19.83,0,0,1,.13,2.3,4.82,4.82,0,0,1,0,.76c-.05.28-.19.37-.45.58a11.4,11.4,0,0,1-8.19,2.15l-.49-.07c-.34-.07-.68-.14-1-.24a30.44,30.44,0,0,1-5.12-2.05c-.76-.44-2-1.8-1.47-2.77a13.24,13.24,0,0,0,1.57-4.59,9.24,9.24,0,0,0,.11-2.29c-.19-1.77-1.13-3.39-1.4-5.16a15.92,15.92,0,0,1,.27-5.67,41.89,41.89,0,0,1,2.86-7.92,6.53,6.53,0,0,1,1.19-2,4.17,4.17,0,0,1,2.83-1c0,2.14-.44,4.24,1,6.11a3.23,3.23,0,0,0,3.77,1.13c2.49-.83,3.49-2.76,3.85-5.21.25.16.64,0,.9.2C502.83,189.06,505.54,190.58,505.78,193.27Z"/><path class="cls-22" d="M493.71,192.83a4,4,0,0,0-.94-.43c-4.68,5.53-6.25,18.62-5.36,25.43.06.44,1.18.87,1.11.42C487.47,211,489.31,199.41,493.71,192.83Z"/><path class="cls-22" d="M493.3,192.62c-.16.49-2.9,1.39-2.9,1.39s-3.38-5-.45-8.58c.31-.38.84.83,1.29,1s.3.24.13.67C490.76,188.67,492.23,191.82,493.3,192.62Z"/><path class="cls-19" d="M498.51,187.91c.09,4.58-7.32,4.71-7.18.41.19-6,.51-6.68,3-7.63a6.3,6.3,0,0,1,2.08-.48c2.58-.08,1.57,1.44,1.46,2.5C497.52,185.84,498.48,186.27,498.51,187.91Z"/><path class="cls-22" d="M493.3,192.62l-.39.23,1,2.37A10.51,10.51,0,0,0,500,191c.33-.5,1.08-2.86.65-3.25-.08-.07-1.71-.65-1.82-.69a8.6,8.6,0,0,1-.48,1.88C497.51,190.9,495.34,191.91,493.3,192.62Z"/><path class="cls-25" d="M486.57,183c0-1.06,2.6-4.1,3.31-4.79,1.13-1.1-.21-6.8-.21-6.8S484.3,173.06,486.57,183Z"/><path class="cls-18" d="M486,178.86a26.06,26.06,0,0,1,3.31-.05,21.54,21.54,0,0,1,3.68.12c.57.08,1.35.15,1.67.72a2.15,2.15,0,0,1-.43,2.11c-.14.2-.47,0-.33-.19a2.32,2.32,0,0,0-.3-2.12c-.27-.24-1.26-.21-1.62-.24-.73-.06-1.46-.05-2.19,0-1.21,0-2.45.08-3.73,0C486,179.19,485.88,178.87,486,178.86Z"/><path class="cls-20" d="M496.09,186a4.91,4.91,0,0,0,.43-.48,3.71,3.71,0,0,0,.51-1.06,8,8,0,0,1,2.07-2.91,3.12,3.12,0,0,0,.73-2,7.43,7.43,0,0,0-.53-4.27,6.57,6.57,0,0,0-1.21-1.79,7,7,0,0,0-6.79-1.86,9.69,9.69,0,0,0-1.86.76,4.92,4.92,0,0,0-1.41,1,4.59,4.59,0,0,0-.64.94,8.69,8.69,0,0,0-.69,1.84,4,4,0,0,0-.06,1.1,9.17,9.17,0,0,0,.06,1.17,4.93,4.93,0,0,1,.05.54c0,.12,0,.24,0,.36,0,.84,0,1.65-.1,2.49a6.32,6.32,0,0,0,.12,1.84c.41,1.61.66,4.16,2.18,5.16,1.15.75,2.81,0,3.95-.56.39-.19,1.7-1.06,2-1.25A6.67,6.67,0,0,0,496.09,186Z"/><path class="cls-25" d="M502.44,177.21c-.11-3.63-2-4.41-3.38-5.57a7.33,7.33,0,0,0-4.86-1.59,10.13,10.13,0,0,0-5,1.58l-.18.11a6.58,6.58,0,0,0-2.44,3.44,10.89,10.89,0,0,0-.35,1.24c0,.14-.12.25-.08.4a.73.73,0,0,0,.36.39,1.61,1.61,0,0,0,.72.15,4.63,4.63,0,0,0,1.47-.21,5.58,5.58,0,0,0,.67-.28c.19-.1.36-.27.55-.36s.41.06.6.14l.71.3a12.12,12.12,0,0,1,1.39.71,6.38,6.38,0,0,1,1.75,1.48,13.43,13.43,0,0,1,.87,2.05,2,2,0,0,0,1.18,1,1.22,1.22,0,0,0,1.22-.39c.24-.25.87-.38,1,.1s-.88.69-1,1c0,.09.29,2.48.29,2.48S502.57,181.56,502.44,177.21Z"/><path class="cls-18" d="M489.26,182.72a1.79,1.79,0,0,0,2.27,1c.8-.39.84-1.91.5-2.68a2.44,2.44,0,0,0-2.59-1C488.52,180.34,489,182.15,489.26,182.72Zm.21-2.19a2.36,2.36,0,0,1,1.64.18,1.86,1.86,0,0,1,.63,2.27c-.39.91-1.51.46-2-.1a2.5,2.5,0,0,1-.49-1C489.17,181.46,489.1,180.71,489.47,180.53Z"/><path class="cls-18" d="M487,179.32a7.9,7.9,0,0,0,2.86.69,8.26,8.26,0,0,1-.78.55,6,6,0,0,1-1.18-.34A5.79,5.79,0,0,1,487,179.32Z"/><path class="cls-18" d="M491.59,180.73a25.91,25.91,0,0,1,3.3,0,21.65,21.65,0,0,1,3.69.12c.57.08,1.35.14,1.67.72a2.2,2.2,0,0,1-.43,2.11c-.15.2-.47,0-.34-.2a2.27,2.27,0,0,0-.29-2.11c-.28-.25-1.26-.21-1.62-.24-.73-.06-1.46-.05-2.19,0-1.21,0-2.45.07-3.74,0C491.58,181.06,491.52,180.74,491.59,180.73Z"/><path class="cls-20" d="M498,180c1.24-.08,1.55,1.46.69,2.64a5.91,5.91,0,0,1-1,.92c-2.22,1.88-2.77-.16-2.06-.8C497.24,181.28,496.43,180.11,498,180Z"/><path class="cls-19" d="M497.18,182.82c.14-.13,1.56-1,.6-1.53a.43.43,0,0,0-.6.36c0,.14,0,.29,0,.44a.64.64,0,0,1-.1.24c-.12.2-.55.4-.47.7S497.1,182.89,497.18,182.82Z"/><path class="cls-18" d="M485.67,180.34c.12.68.59,2.18,1.56,2,.67-.15.77-1.23.71-1.89a.59.59,0,0,0,0-.27h0c-.18-.6-1-1-1.53-1.23C485.44,178.55,485.56,179.77,485.67,180.34Zm.93-1a1.66,1.66,0,0,1,.87,2.52c-.66.92-1.32-.82-1.41-1.15C485.92,180.19,485.64,179,486.6,179.31Z"/><path class="cls-20" d="M471.73,218.56a7,7,0,0,1,.31-.8,5.29,5.29,0,0,1,.29-.52c.32-.49.55-1,.91-1.48s.95-.82,1.38-1.28c.17-.19.32-.4.48-.6s.34-.52.51-.8a1.17,1.17,0,0,1,.65-.43,1.49,1.49,0,0,1,.55-.05,2.33,2.33,0,0,1,1.78.79,2.16,2.16,0,0,1,.54.89,1.71,1.71,0,0,1-.22.85s0,.08,0,.12c0,.43-.1.82-.08,1.26a3.4,3.4,0,0,1-.19,1.42c-.15.37-.3.74-.44,1.12a4.41,4.41,0,0,1-1.12,1.64c-.16.15-.52.51-.76.47-.5-.08-.23-.88-.12-1.14s.21-.48.3-.73.22-.66.12-.84-.35-.15-.48-.13a2.13,2.13,0,0,0-1.46,1.3,4.51,4.51,0,0,0-.35,1.39,3.84,3.84,0,0,1-.07.76c-.09.27-.33.41-.54.17s-.18-.3-.35-.25-.3.24-.49.17-.19-.27-.23-.41-.27-.36-.36-.57a2.5,2.5,0,0,1-.05-.55c0-.16,0-.32,0-.48s0-.43-.15-.2-.06.19-.14.26-.32-.26-.34-.41A2.5,2.5,0,0,1,471.73,218.56Z"/><path class="cls-22" d="M484.7,208.9c-1.77-1.53-1.2-6.25-3.26-7.45-1.23,3.21-5.2,9.31-6,11.46-.72,2,3.15,3.5,4,2.44C480.11,214.47,482.9,211.47,484.7,208.9Z"/><path class="cls-20" d="M488.61,220.89c-.36,0-1.42.82-1.6.91s-1.48.72-1.81.94c-.49.33-1,.63-1.49,1a13.67,13.67,0,0,0-1.26,1.2c-.11.12-.42.37-.53.14a.93.93,0,0,1,0-.57c.07-.24.44-1.26.48-1.37s-2.74,2.53-3.14,2.36a1,1,0,0,1,.09-.79c.1-.23.9-1.46.9-1.46s-1.43,1.69-1.88,1.75c-.77.1-.28-1,.31-1.77.27-.35.63-.62.92-1,.12-.15.72-.83.21-.89-.33,0-1.24.51-1.42.58s-1.41.6-1.49.61-.59.09-.5-.26a1.91,1.91,0,0,1,.6-.75,13.79,13.79,0,0,1,2.4-1.68,8.73,8.73,0,0,1,1.17-.62c1.43-.55,3-.74,4.47-1.16.41-.12.83-.22,1.25-.36.25-.09.6-.31.87-.22C487.67,217.66,488.81,220.83,488.61,220.89Z"/><path class="cls-22" d="M487.2,221.15a3.6,3.6,0,0,0,3.09.33c2.31-.52,13.88-3.91,15.76-7.33.48-.87-.32-1.88-.83-3-.38-.87-3.62-1.77-4.4-1.36-1.22.64-10.19,4.44-13.67,6.88a2.67,2.67,0,0,0-1.11,1.28A4,4,0,0,0,487.2,221.15Z"/><path class="cls-22" d="M506.61,212.2c.62-3.2,1-7.31,1.56-12.47a13.45,13.45,0,0,0-.17-4.2,7.75,7.75,0,0,0-1.7-3.6,2.68,2.68,0,0,0-1.83-1,2.12,2.12,0,0,0-1.48.91c-2.31,2.69-3.07,6.5-3,9.93.08,3.2-.28,6.4-.17,9.6a9.76,9.76,0,0,0,.14,1.87,3.18,3.18,0,0,0,5.19,1.87C506,214.48,506.28,213.94,506.61,212.2Z"/><path class="cls-18" d="M499.29,180.18c.54,1.48-.24,4.1-2.05,3.9s-1.47-2.87-1.2-3.85C496.42,178.83,498.5,178,499.29,180.18Z"/><path class="cls-18" d="M498,178.85c.09-4.29-3-8.43-7.23-8-.44.17-.82.36-.82.36,4.67-.26,7.59,3.59,7.4,7.71C497.56,179.34,498,178.85,498,178.85Z"/><path class="cls-18" d="M496.66,183.7c-1.3,2.24-5.1,3.23-6.12,3.3-.09-.24,0-.26,0-.26a9.43,9.43,0,0,0,5.84-3.11C496.74,183.19,496.66,183.7,496.66,183.7Z"/><path class="cls-18" d="M490.74,186.74c-.17-.56-1.22-.59-1.38-.1s.3.67.65.72a.79.79,0,0,0,.85-.41C491,186.64,490.74,186.74,490.74,186.74Z"/></g><path class="cls-26" d="M454.22,156.33c0,.3,0,.87,0,.91s0,.11-.18,0l-.37-.22c-.14-.08-.17-.12-.17-.23s0-.59,0-.89V154c0-.13,0-.17-.17-.25l-.19-.11-.8-.45c-.13-.07-.15-.11-.15-.23v-.29c0-.12,0-.13.15-.06l.86.51,1.3.75.86.48a.22.22,0,0,1,.15.24v.28c0,.12,0,.14-.15.07l-.8-.48-.19-.11c-.15-.09-.18-.08-.18,0Z"/><path class="cls-26" d="M457,158.12c0,.23,0,.66,0,.7s0,.11-.17,0l-.34-.2c-.14-.08-.18-.12-.18-.23s0-.45,0-.69v-2.15c0-.23,0-.67,0-.71s0-.1.18,0l.34.19c.14.08.17.12.17.23s0,.46,0,.69v.45c0,.07,0,.11.05.13l.1,0a1.41,1.41,0,0,1,.77.24,1.87,1.87,0,0,1,1,1.51v.93c0,.23,0,.66,0,.7s0,.11-.17,0l-.34-.2c-.14-.08-.18-.12-.18-.23s0-.46,0-.69v-.77a1,1,0,0,0-.59-.86,1,1,0,0,0-.56-.15c-.1,0-.13,0-.13.16Z"/><path class="cls-26" d="M461.75,161.71c-.14-.08-.17-.11-.17-.25s0-.1-.05-.12h-.09a1.89,1.89,0,0,1-.87-.27,1.57,1.57,0,0,1-.89-1.22c0-.66.9-.43,1.69,0,.11.06.15.06.15,0a.71.71,0,0,0-.09-.29,1.27,1.27,0,0,0-.46-.42,1.76,1.76,0,0,0-.79-.25.22.22,0,0,1-.12,0s-.06-.07-.1-.16l-.11-.29a.41.41,0,0,1,0-.12s0,0,.12,0a3.23,3.23,0,0,1,1.11.41,1.89,1.89,0,0,1,1.14,1.68l0,.78c0,.29,0,.67,0,.76s0,.09-.16,0Zm-.32-1.4-.07,0c-.55-.25-1-.35-1-.09s.16.36.41.5a1.34,1.34,0,0,0,.63.19c.12,0,.15,0,.15-.14v-.22A.19.19,0,0,0,461.43,160.31Z"/><path class="cls-26" d="M463.83,162.08c0,.23,0,.67,0,.7s0,.11-.17,0l-.35-.2c-.14-.07-.17-.12-.17-.22s0-.46,0-.69v-1c0-.23,0-.67,0-.7s0-.11.17,0l.29.16c.14.09.16.12.17.25s0,.11.05.12a.17.17,0,0,0,.09,0,1.41,1.41,0,0,1,.82.24,1.86,1.86,0,0,1,1,1.51v.93c0,.23,0,.67,0,.7s0,.11-.17,0l-.35-.2c-.14-.08-.17-.12-.17-.22s0-.46,0-.69v-.77a1,1,0,0,0-.58-.87A1.1,1.1,0,0,0,464,161c-.1,0-.13.05-.13.16Z"/><path class="cls-26" d="M467.46,164.08s0,0,0,.12,0,.62,0,.65,0,.11-.17,0l-.33-.19c-.14-.08-.18-.12-.18-.23s0-.46,0-.69v-2.15c0-.24,0-.67,0-.71s0-.11.18,0l.33.2c.14.07.17.12.17.22s0,.46,0,.69v1.25q0,.1,0,.12a.1.1,0,0,0,.09,0l.42-.13a4.09,4.09,0,0,0,.49-.18c.1,0,.15,0,.3.06l.46.26c.07,0,.11.08.11.11s0,0,0,0l-.68.21-.17.05c-.06,0-.09,0-.09.08a.5.5,0,0,0,.05.15l.48,1,.51,1a.24.24,0,0,1,0,.11s0,0-.13,0l-.43-.25a.5.5,0,0,1-.26-.29c-.13-.29-.27-.58-.41-.86l-.25-.52a.46.46,0,0,0-.1-.14s-.07,0-.12,0Z"/><path class="cls-26" d="M456.09,166.57c0,.3,0,.87,0,.91s0,.11-.17,0l-.39-.22c-.13-.08-.17-.12-.17-.23s0-.6,0-.89v-.33a.62.62,0,0,0-.1-.34l-.68-1.27c-.23-.44-.49-.91-.79-1.46a.22.22,0,0,1,0-.1s0,0,.14,0l.46.27a.49.49,0,0,1,.27.28c.2.41.39.78.59,1.17l.41.76a.31.31,0,0,0,.09.13s.06,0,.1,0l.41-.3c.2-.15.39-.3.59-.47s.12-.07.27,0l.44.26c.09,0,.14.09.14.13a.07.07,0,0,1,0,.06c-.3.19-.53.35-.78.53l-.69.5c-.08.06-.1.1-.1.23Z"/><path class="cls-26" d="M460.77,168.92c0,.87-.64,1-1.58.5a2.76,2.76,0,0,1-1.47-2.14c0-.83.59-1.08,1.58-.51A2.77,2.77,0,0,1,460.77,168.92Zm-2.36-1.24a1.56,1.56,0,0,0,.8,1.25c.51.29.87.15.87-.36a1.57,1.57,0,0,0-.81-1.26C458.71,167,458.41,167.19,458.41,167.68Z"/><path class="cls-26" d="M463.74,172c-.14-.08-.17-.11-.18-.25s0-.1,0-.12h-.09a1.59,1.59,0,0,1-.83-.24,1.89,1.89,0,0,1-1-1.52v-.93c0-.23,0-.66,0-.7s0-.11.17,0l.34.2c.14.08.18.12.18.23s0,.46,0,.68v.81a1,1,0,0,0,.58.87,1,1,0,0,0,.56.15c.1,0,.13,0,.13-.16v-.93c0-.23,0-.66,0-.7s0-.11.17,0l.34.2c.14.08.18.12.18.23s0,.46,0,.68v1c0,.24,0,.67,0,.71s0,.11-.18,0Z"/><path class="cls-26" d="M467.29,173.7c0,.21-.16.3-.45.14a.76.76,0,0,1-.4-.57c0-.22.16-.32.44-.15A.75.75,0,0,1,467.29,173.7Zm-.52-1c-.15-.08-.18-.12-.18-.26l0-1.29c0-.35,0-.94,0-1s0-.09.17,0l.39.23c.13.07.16.11.16.2s0,.66,0,1l0,1.22c0,.12,0,.13-.19,0Z"/></g></svg>