<svg id="レイヤー_1" data-name="レイヤー 1" xmlns="http://www.w3.org/2000/svg" viewBox="0 0 750 750"><defs><style>.cls-1{fill:#00a0e9;}</style></defs><path class="cls-1" d="M89.51,172c-.71,1.85-1.34,3.46-2.05,5.51-.35.94-.55,1.1-1.57,1.1h-1c-1,0-1.22-.16-1.54-1.14-.63-2.05-1.18-3.66-1.81-5.55L76.83,158c-.67-1.89-1.3-3.7-2.2-6.14a1.75,1.75,0,0,1-.16-.67c0-.35.27-.43.9-.43h3c1,0,1.22.16,1.49,1.14.63,2.28,1.14,3.94,1.73,5.79l3.74,11.73c.12.35.24.51.4.51s.27-.16.39-.47l4.45-11.58c.75-2,1.38-3.66,2.16-6,.36-.94.56-1.1,1.58-1.1H95c1,0,1.22.16,1.53,1.14.79,2.32,1.46,4.05,2.17,6L103,169.43c.12.31.24.47.39.47s.28-.16.4-.51l3.82-11.69c.59-1.85,1.1-3.51,1.77-5.79.27-1,.47-1.14,1.49-1.14h2.76c.63,0,.9.08.9.43a1.7,1.7,0,0,1-.15.67c-1,2.44-1.54,4.21-2.21,6.1l-4.8,14c-.63,1.85-1.18,3.5-1.81,5.51-.32,1-.51,1.14-1.54,1.14h-1c-1,0-1.22-.16-1.58-1.1-.7-2.09-1.33-3.74-2-5.51l-4.53-11.89c-.12-.32-.28-.51-.43-.51s-.28.15-.44.51Z"/><path class="cls-1" d="M132.15,175.85a1.84,1.84,0,0,1,.23.74c0,.36-.23.55-.78.83a14.69,14.69,0,0,1-6.46,1.46c-7,0-9.92-4.61-9.92-9.92,0-6.11,3.86-10.75,10-10.75,5,0,7.95,3.46,7.95,9.53,0,2-.31,2.32-1.34,2.32H120.65c-.71,0-1,.12-1,.59a5.12,5.12,0,0,0,.82,2.2c.91,1.42,2.48,2.25,5,2.25a9.46,9.46,0,0,0,4.41-1.07,2.22,2.22,0,0,1,.79-.31c.31,0,.47.27.75.83Zm-3.27-10a4.6,4.6,0,0,0-.55-1.86,3.44,3.44,0,0,0-3.31-1.88,5,5,0,0,0-4.33,2.2A3.81,3.81,0,0,0,120,166c0,.32.28.44.91.44h7C128.56,166.4,128.84,166.28,128.88,165.89Z"/><path class="cls-1" d="M144.54,178.72a11.53,11.53,0,0,1-1.18,0c-4.56,0-6.1-1.85-6.1-6.5V155.89c0-1.62-.08-5-.08-5.32,0-.83.24-1,1.14-1h2.29c.9,0,1.14.15,1.14,1,0,.28-.08,3.54-.08,5.32v16c0,2,.43,2.95,2.44,3,.32,0,.79-.08,1-.08.39,0,.55.2.55.75v2C145.65,178.44,145.45,178.64,144.54,178.72Z"/><path class="cls-1" d="M163.25,177.07c0,.35-.27.55-.82.82a12.6,12.6,0,0,1-4.92,1c-6.78,0-9.57-4.69-9.57-9.57,0-6.3,3.82-11.06,10.83-11.06a11.29,11.29,0,0,1,3.93.67c.59.19.83.39.87.78a2.05,2.05,0,0,1-.16.71l-.71,1.93c-.23.63-.35.87-.67.87a2,2,0,0,1-.78-.24,6.62,6.62,0,0,0-2.37-.47c-3.82,0-6.37,2.79-6.37,6.69,0,3,1.81,5.75,5.63,5.75a7.09,7.09,0,0,0,2.91-.63,2,2,0,0,1,.79-.24c.31,0,.43.24.67.87l.55,1.38A2.48,2.48,0,0,1,163.25,177.07Z"/><path class="cls-1" d="M186,168.13c0,6.61-4.21,10.75-10.43,10.75-5.59,0-9.73-3.82-9.73-9.85,0-6.33,3.9-10.82,10.43-10.82C181.86,158.21,186,162.11,186,168.13Zm-15.59.94c0,3.63,2.2,6,5.27,6,3.39,0,5.75-2.64,5.75-6.58,0-3.7-2.28-6-5.35-6C172.41,162.46,170.44,165.29,170.44,169.07Z"/><path class="cls-1" d="M194.76,172.34c0,1.77.07,5,.07,5.32,0,.82-.23,1-1.14,1h-2.28c-.91,0-1.14-.16-1.14-1,0-.28.08-3.55.08-5.32v-7.6c0-1.77-.08-5-.08-5.31,0-.83.23-1,1.14-1h1.93c.9,0,1.06.16,1.1,1.07,0,.51.12.75.32.75a1.24,1.24,0,0,0,.59-.28,8.46,8.46,0,0,1,5.23-1.77,6.28,6.28,0,0,1,4.73,1.89c.35.39.55.59.78.59s.4-.16.79-.47a9.7,9.7,0,0,1,5.91-2c3.89,0,6.49,2.68,6.49,7v7.08c0,1.77.08,5,.08,5.32,0,.82-.24,1-1.14,1h-2.28c-.91,0-1.15-.16-1.15-1,0-.28.08-3.55.08-5.32v-5.86c0-2.41-1.14-4-3.58-4a5.58,5.58,0,0,0-3.46,1.26,1.49,1.49,0,0,0-.75,1.54v7.08c0,1.77.08,5,.08,5.32,0,.82-.24,1-1.15,1h-2.28c-.9,0-1.14-.16-1.14-1,0-.28.08-3.55.08-5.32v-5.86c0-2.41-1.14-4-3.58-4a5.69,5.69,0,0,0-3.47,1.22,1.89,1.89,0,0,0-.86,1.77Z"/><path class="cls-1" d="M240.36,175.85a1.84,1.84,0,0,1,.23.74c0,.36-.23.55-.78.83a14.69,14.69,0,0,1-6.46,1.46c-7,0-9.92-4.61-9.92-9.92,0-6.11,3.86-10.75,10-10.75,5,0,8,3.46,8,9.53,0,2-.31,2.32-1.34,2.32H228.86c-.71,0-1,.12-1,.59a5.12,5.12,0,0,0,.82,2.2c.91,1.42,2.48,2.25,5,2.25a9.46,9.46,0,0,0,4.41-1.07,2.22,2.22,0,0,1,.79-.31c.31,0,.47.27.75.83Zm-3.27-10a4.6,4.6,0,0,0-.55-1.86,3.44,3.44,0,0,0-3.31-1.88,5,5,0,0,0-4.33,2.2,3.81,3.81,0,0,0-.71,1.61c0,.32.28.44.91.44h7C236.77,166.4,237.05,166.28,237.09,165.89Z"/><path class="cls-1" d="M265.47,177.26c0,1-.2,1.22-1.14,1.38a19.09,19.09,0,0,1-2.17.16c-4.8,0-6.45-2.36-6.45-6.34V163.4c0-.78-.12-1-.79-1-.47,0-1.14,0-1.34,0-1,0-1.18-.16-1.18-1.18v-1.61c0-1,.16-1.19,1.18-1.19.31,0,.94,0,1.38,0,.67,0,.75-.11.75-.94,0-1.22-.08-3.47-.08-3.74,0-.83.23-1,1.14-1h2.16c.91,0,1.14.16,1.14,1,0,.27-.07,2.36-.07,3.74,0,.83.11.94.9.94H262c.71,0,1.93,0,2.33,0,1,0,1.18.16,1.18,1.15v1.69c0,1-.16,1.14-1.18,1.14-.36,0-1.62,0-2.33,0h-.78c-1,0-1.18.2-1.18,1.18v8.23c0,2.24.94,3,3,3,.75,0,1.65-.23,1.93-.23.47,0,.55.27.55,1Z"/><path class="cls-1" d="M288.19,168.13c0,6.61-4.21,10.75-10.43,10.75-5.59,0-9.72-3.82-9.72-9.85,0-6.33,3.89-10.82,10.43-10.82C284,158.21,288.19,162.11,288.19,168.13Zm-15.59.94c0,3.63,2.21,6,5.28,6,3.38,0,5.75-2.64,5.75-6.58,0-3.7-2.29-6-5.36-6C274.57,162.46,272.6,165.29,272.6,169.07Z"/></svg>