<svg id="レイヤー_1" data-name="レイヤー 1" xmlns="http://www.w3.org/2000/svg" viewBox="0 0 566.93 566.93"><defs><style>.cls-1{fill:#fff;}.cls-2{fill:#009fe8;}</style></defs><path class="cls-1" d="M119.74,322.11,92.15,338a10.49,10.49,0,0,0-4.71,8.19v10.9a18.71,18.71,0,0,1-4.08,10.42c2.85.27,6.5-2.81,9.78-7l26.6-15.35a10.48,10.48,0,0,0,4.71-8.18V324.86C124.45,321.85,122.33,320.62,119.74,322.11Z"/><path class="cls-2" d="M93.78,350.19c0,.61,0,1.77,0,1.84,0,.22-.06.3-.3.45l-.69.39c-.24.14-.3.13-.3-.09,0-.07,0-1.26,0-1.88v-3.28c0-.61,0-1.76,0-1.84s.06-.3.3-.44l.69-.4c.24-.14.3-.13.3.09s0,1.27,0,1.88v.52c0,.27,0,.29.32.14l3.1-1.79c.26-.15.32-.24.32-.5v-.52c0-.62,0-1.77,0-1.85s.07-.3.31-.44l.68-.39c.25-.14.31-.14.31.09,0,.07,0,1.26,0,1.87v3.28c0,.62,0,1.77,0,1.84,0,.23-.06.31-.31.45l-.68.39c-.24.14-.31.13-.31-.09s0-1.26,0-1.88v-1c0-.26-.06-.28-.32-.13l-3.1,1.79c-.27.15-.32.23-.32.5Z"/><path class="cls-2" d="M104.68,345.27a.29.29,0,0,1,.06.16c0,.1-.06.19-.21.35a7.87,7.87,0,0,1-1.74,1.4c-1.9,1.09-2.68.3-2.68-1.13a5.42,5.42,0,0,1,2.69-4.46c1.36-.78,2.15-.3,2.15,1.33,0,.55-.09.68-.37.84l-3,1.74c-.19.11-.26.18-.26.31a.74.74,0,0,0,.22.47c.25.24.67.22,1.36-.18a4.86,4.86,0,0,0,1.19-1,.85.85,0,0,1,.22-.2c.08-.05.12,0,.2.1Zm-.88-2.18a.79.79,0,0,0-.15-.42c-.17-.23-.47-.24-.9,0a3,3,0,0,0-1.17,1.27,1.89,1.89,0,0,0-.19.55c0,.08.08.07.25,0l1.88-1.08C103.71,343.27,103.79,343.2,103.8,343.09Z"/><path class="cls-2" d="M108.12,344.06l-.32.19c-1.23.72-1.65.46-1.65-.8V339c0-.44,0-1.35,0-1.43s.06-.3.31-.44l.61-.36c.25-.14.31-.13.31.09s0,1,0,1.45v4.32c0,.54.12.73.66.42.09,0,.21-.14.27-.17s.15,0,.15.12v.54C108.42,343.81,108.36,343.9,108.12,344.06Z"/><path class="cls-2" d="M111.36,342.19a3.37,3.37,0,0,1-.32.19c-1.23.71-1.64.45-1.64-.8v-4.43c0-.43,0-1.35,0-1.42,0-.22.06-.3.3-.44l.62-.36c.24-.14.31-.14.31.09,0,.07,0,1,0,1.44v4.32c0,.55.11.73.66.43l.26-.17c.11-.07.15,0,.15.11v.54C111.66,341.94,111.61,342,111.36,342.19Z"/><path class="cls-2" d="M117.8,335.61a5.46,5.46,0,0,1-2.82,4.53c-1.51.87-2.62.48-2.62-1.14a5.47,5.47,0,0,1,2.81-4.56C116.67,333.58,117.8,334,117.8,335.61Zm-4.21,2.68c0,1,.6,1.28,1.43.8a3.21,3.21,0,0,0,1.55-2.67c0-1-.62-1.27-1.45-.8A3.11,3.11,0,0,0,113.59,338.29Z"/><path class="cls-2" d="M120.56,336.11a1.57,1.57,0,0,1-.81,1.27c-.41.24-.72.15-.72-.27a1.59,1.59,0,0,1,.8-1.3C120.24,335.57,120.56,335.7,120.56,336.11Zm-.93-1c-.27.15-.32.13-.33-.13l-.08-2.58c0-.69-.07-1.84-.07-2.06s.06-.26.3-.39l.69-.4c.23-.14.29-.13.29.05s-.05,1.43-.07,2.21l-.06,2.59a.5.5,0,0,1-.33.51Z"/><path class="cls-1" d="M307.9,153.71l-27.59,15.93a10.47,10.47,0,0,0-4.71,8.18v10.9a18.77,18.77,0,0,1-4.08,10.43c2.85.27,6.5-2.82,9.79-7l26.59-15.35a10.49,10.49,0,0,0,4.71-8.19V156.45C312.61,153.45,310.49,152.21,307.9,153.71Z"/><path class="cls-2" d="M282,181.78c0,.62,0,1.77,0,1.85s-.07.3-.31.44l-.68.39c-.25.14-.31.14-.31-.08s0-1.27,0-1.88v-3.28c0-.62,0-1.77,0-1.84,0-.23.06-.31.31-.45l.68-.39c.24-.14.31-.14.31.09,0,.07,0,1.26,0,1.88V179c0,.26.05.29.32.13l3.09-1.78c.27-.16.32-.24.32-.51v-.52c0-.61,0-1.77,0-1.84s.06-.3.31-.45l.68-.39c.24-.14.31-.13.31.09s0,1.26,0,1.88v3.28c0,.61,0,1.76,0,1.84s-.07.3-.31.44l-.68.4c-.25.14-.31.13-.31-.09s0-1.27,0-1.88v-1c0-.27-.05-.29-.32-.14l-3.09,1.79c-.27.16-.32.24-.32.51Z"/><path class="cls-2" d="M292.84,176.86a.27.27,0,0,1,.07.17c0,.1-.07.18-.22.34a7.47,7.47,0,0,1-1.74,1.41c-1.89,1.09-2.68.3-2.68-1.14a5.42,5.42,0,0,1,2.69-4.45c1.36-.79,2.15-.31,2.15,1.33,0,.54-.09.68-.36.84l-3,1.73c-.2.11-.27.19-.27.32a.77.77,0,0,0,.22.46c.25.24.67.22,1.37-.18a5,5,0,0,0,1.19-1,1.32,1.32,0,0,1,.21-.21c.08,0,.13,0,.2.11Zm-.88-2.18a.69.69,0,0,0-.15-.41c-.17-.23-.47-.24-.89,0a3,3,0,0,0-1.17,1.28,1.67,1.67,0,0,0-.19.54c0,.09.07.08.24,0l1.88-1.09C291.87,174.87,292,174.79,292,174.68Z"/><path class="cls-2" d="M296.28,175.65a2.14,2.14,0,0,1-.32.2c-1.23.71-1.65.45-1.65-.8v-4.43c0-.43,0-1.35,0-1.42s.07-.3.31-.44l.62-.36c.24-.14.31-.14.31.09,0,.07,0,1,0,1.44v4.32c0,.54.11.73.65.43l.27-.17c.11-.07.15,0,.15.11v.54C296.58,175.41,296.53,175.49,296.28,175.65Z"/><path class="cls-2" d="M299.53,173.78l-.32.2c-1.24.71-1.65.45-1.65-.81v-4.42c0-.44,0-1.35,0-1.43s.06-.3.31-.44l.61-.36c.25-.14.31-.13.31.09s0,1,0,1.45v4.32c0,.54.12.73.66.43l.27-.18c.1-.06.15,0,.15.12v.54C299.83,173.53,299.77,173.62,299.53,173.78Z"/><path class="cls-2" d="M306,167.2a5.45,5.45,0,0,1-2.82,4.53c-1.51.88-2.63.49-2.63-1.14a5.45,5.45,0,0,1,2.82-4.55C304.84,165.17,306,165.58,306,167.2Zm-4.22,2.69c0,1,.6,1.27,1.43.79a3.2,3.2,0,0,0,1.55-2.67c0-1-.62-1.27-1.44-.79A3.12,3.12,0,0,0,301.75,169.89Z"/><path class="cls-2" d="M308.72,167.71a1.57,1.57,0,0,1-.8,1.27c-.42.24-.73.14-.73-.27a1.58,1.58,0,0,1,.8-1.3C308.41,167.17,308.72,167.29,308.72,167.71Zm-.93-1c-.27.16-.32.14-.33-.12l-.08-2.59c0-.69-.07-1.84-.07-2s.06-.26.3-.4l.69-.39c.23-.14.3-.13.3.05s-.06,1.42-.08,2.21l-.06,2.59c0,.27-.07.35-.33.51Z"/></svg>