<svg id="レイヤー_1" data-name="レイヤー 1" xmlns="http://www.w3.org/2000/svg" viewBox="0 0 566.93 566.93"><defs><style>.cls-1{fill:#fff;}.cls-2{fill:#009fe8;}</style></defs><path class="cls-1" d="M354.43,33.19,410.84,66a10.75,10.75,0,0,1,4.71,8.29v10.9a19.18,19.18,0,0,0,4.08,10.52c-2.85.21-6.5-3-9.79-7.22L354.43,56.28A10.77,10.77,0,0,1,349.72,48V35.82C349.72,32.82,351.84,31.63,354.43,33.19Z"/><path class="cls-2" d="M359.05,49c0,.62,0,1.8,0,1.88s-.07.23-.31.09l-.67-.39c-.25-.14-.31-.22-.31-.44s0-1.23,0-1.85V44.35c0-.27-.05-.35-.32-.51l-.33-.19-1.43-.79a.43.43,0,0,1-.27-.47v-.58c0-.24,0-.28.27-.16l1.54.92,2.32,1.33,1.54.87a.44.44,0,0,1,.27.47v.58c0,.25-.05.29-.27.16-.07,0-1-.61-1.44-.86l-.34-.2c-.26-.15-.32-.13-.32.13Z"/><path class="cls-2" d="M363.71,52.1c0,.48,0,1.37,0,1.45s-.07.23-.31.09l-.62-.36c-.24-.14-.31-.22-.31-.45,0-.07,0-.94,0-1.42V47c0-.48,0-1.38,0-1.45,0-.23.07-.23.31-.09l.62.36c.24.14.31.22.31.44s0,1,0,1.42v.92c0,.15,0,.23.08.27a.3.3,0,0,0,.17,0,2.32,2.32,0,0,1,1.38.38,3.52,3.52,0,0,1,1.83,3V54.1c0,.48,0,1.38,0,1.45,0,.22-.06.23-.3.09l-.62-.36c-.25-.14-.31-.22-.31-.44s0-1,0-1.43V51.83a2,2,0,0,0-1-1.69,1.47,1.47,0,0,0-1-.22c-.18,0-.23.1-.23.34Z"/><path class="cls-2" d="M372,58.6c-.25-.14-.3-.19-.31-.49,0-.12,0-.19-.09-.23a.28.28,0,0,0-.14,0,2.82,2.82,0,0,1-1.57-.42,2.9,2.9,0,0,1-1.59-2.37c0-1.36,1.6-1,3-.34.18.09.25.09.26,0a1.46,1.46,0,0,0-.17-.57,1.88,1.88,0,0,0-.82-.81,2.74,2.74,0,0,0-1.4-.38.33.33,0,0,1-.21,0c-.08,0-.12-.13-.18-.32l-.21-.58a.68.68,0,0,1-.05-.24c0-.09.07-.12.21-.11a5,5,0,0,1,2,.67,3.55,3.55,0,0,1,2,3.3l0,1.6c0,.6,0,1.38,0,1.56s-.06.19-.29.06Zm-.58-2.83-.12-.06c-1-.43-1.82-.56-1.82,0a1.22,1.22,0,0,0,.73,1,2.07,2.07,0,0,0,1.13.3c.21,0,.26-.06.26-.31v-.47C371.62,56,371.59,55.86,371.44,55.77Z"/><path class="cls-2" d="M375.48,58.9c0,.48,0,1.37,0,1.45s-.07.23-.31.09l-.62-.36c-.24-.14-.31-.22-.31-.44s0-1,0-1.43V56.16c0-.48,0-1.37,0-1.45s.07-.23.31-.09l.51.3c.26.15.3.21.31.47s0,.22.08.26a.39.39,0,0,0,.16,0,2.32,2.32,0,0,1,1.48.37A3.52,3.52,0,0,1,379,59V60.9c0,.48,0,1.38,0,1.45s-.06.23-.3.09l-.62-.36c-.25-.14-.31-.22-.31-.44s0-1,0-1.43V58.63a2,2,0,0,0-1-1.69,1.47,1.47,0,0,0-1-.22c-.18,0-.24.11-.24.34Z"/><path class="cls-2" d="M381.74,62.31c-.09,0-.1.08-.1.25,0,.43,0,1.27,0,1.34,0,.23-.06.23-.3.09l-.6-.34c-.24-.14-.31-.22-.31-.45,0-.07,0-.94,0-1.42V57.33c0-.47,0-1.37,0-1.44,0-.23.07-.23.31-.09l.6.34c.24.14.3.22.3.45,0,.07,0,.94,0,1.42v2.57c0,.14,0,.22.07.24s.08,0,.16,0l.74-.35a9,9,0,0,0,.89-.43c.17-.11.25-.1.53.06l.82.47c.12.07.19.15.19.21a.09.09,0,0,1-.07.09c-.44.19-.84.35-1.21.53l-.31.14c-.1.06-.16.09-.16.18a.83.83,0,0,0,.1.3l.85,1.91c.24.57.55,1.25.9,2a.7.7,0,0,1,.09.23c0,.07-.08,0-.24,0l-.76-.44a.86.86,0,0,1-.47-.55c-.24-.58-.49-1.16-.73-1.71l-.46-1a.55.55,0,0,0-.18-.28.21.21,0,0,0-.2,0Z"/><path class="cls-2" d="M392,68c0,.62,0,1.81,0,1.88s-.07.23-.31.09l-.69-.4c-.25-.14-.31-.22-.31-.44s0-1.23,0-1.85v-.67a1.29,1.29,0,0,0-.18-.69l-1.21-2.52L388,60.55a.69.69,0,0,1-.06-.21c0-.08.08-.06.24,0l.83.48a.9.9,0,0,1,.48.56c.36.8.7,1.53,1.06,2.3l.73,1.51c.06.15.11.23.17.26s.09,0,.17-.06l.73-.69c.36-.35.7-.67,1.07-1.06.13-.15.2-.16.47,0l.79.46c.16.09.25.17.25.24a.19.19,0,0,1-.07.14c-.54.45-.95.82-1.4,1.23l-1.22,1.13a.52.52,0,0,0-.19.48Z"/><path class="cls-2" d="M400,71.94c0,1.79-1.14,2.25-2.82,1.27A5.13,5.13,0,0,1,394.59,69c0-1.71,1.06-2.32,2.82-1.3A5.2,5.2,0,0,1,400,71.94Zm-4.21-2.18a2.92,2.92,0,0,0,1.42,2.44c.92.53,1.56.19,1.56-.88a3,3,0,0,0-1.45-2.46C396.36,68.28,395.83,68.74,395.83,69.76Z"/><path class="cls-2" d="M405.1,77.7c-.25-.15-.31-.21-.32-.49s0-.2-.07-.23a.25.25,0,0,0-.16,0,2.34,2.34,0,0,1-1.48-.37,3.55,3.55,0,0,1-1.83-3V71.71c0-.47,0-1.37,0-1.44s.06-.23.31-.09l.62.36c.24.14.3.22.3.44s0,1,0,1.42v1.67a1.92,1.92,0,0,0,1.05,1.68,1.54,1.54,0,0,0,1,.23c.18,0,.23-.11.23-.35V73.71c0-.47,0-1.36,0-1.44s.06-.23.31-.09l.61.36c.25.14.31.22.31.44s0,1,0,1.42v2.06c0,.48,0,1.37,0,1.45s-.06.23-.31.09Z"/><path class="cls-2" d="M409,79.23c0,.42-.28.64-.81.34a1.42,1.42,0,0,1-.72-1.11c0-.46.29-.68.8-.38A1.48,1.48,0,0,1,409,79.23Zm-.93-2.07c-.27-.15-.32-.23-.33-.5L407.69,74c0-.72-.07-1.93-.07-2.14s.06-.19.3,0l.69.39c.23.14.29.22.29.4s0,1.36-.07,2.13l-.06,2.51c0,.26-.07.28-.33.13Z"/><path class="cls-1" d="M336.72,138.2l-56.41,31.44a10.47,10.47,0,0,0-4.71,8.18v10.9a18.77,18.77,0,0,1-4.08,10.43c2.85.27,6.5-2.82,9.79-7l55.41-30.87a10.47,10.47,0,0,0,4.71-8.18V140.94C341.43,137.94,339.31,136.7,336.72,138.2Z"/><path class="cls-2" d="M284.77,180.69c0,.62,0,1.77,0,1.84,0,.22-.07.3-.31.45l-.67.38c-.25.14-.31.14-.31-.09,0-.07,0-1.26,0-1.87v-3.94c0-.27-.05-.29-.32-.13l-.33.19c-.44.25-1.36.81-1.43.86-.23.13-.27.09-.27-.16v-.58a.41.41,0,0,1,.27-.46c.07-.05,1-.59,1.54-.87l2.32-1.34,1.54-.91c.22-.13.27-.1.27.15v.58a.44.44,0,0,1-.27.47l-1.43.79-.34.2c-.27.15-.32.24-.32.5Z"/><path class="cls-2" d="M289.42,178.43c0,.48,0,1.35,0,1.42,0,.23-.07.3-.31.45l-.62.35c-.24.14-.31.14-.31-.08s0-1,0-1.45v-4.45c0-.48,0-1.35,0-1.42,0-.23.07-.31.31-.45l.62-.35c.24-.14.31-.14.31.09,0,.07,0,1,0,1.44v.92c0,.15,0,.21.08.17a1,1,0,0,0,.17-.18,4.85,4.85,0,0,1,1.38-1.22c1.1-.64,1.83-.34,1.83.84v1.92c0,.47,0,1.34,0,1.42s-.07.3-.31.44l-.62.36c-.25.14-.31.14-.31-.09,0-.07,0-1,0-1.45v-1.58c0-.65-.34-.89-1-.48a3.4,3.4,0,0,0-1,.93.9.9,0,0,0-.23.61Z"/><path class="cls-2" d="M297.73,175.33c-.25.14-.3.15-.31-.13,0-.11,0-.17-.08-.13a.46.46,0,0,0-.15.16,5.93,5.93,0,0,1-1.57,1.38c-.91.53-1.59.44-1.59-.52,0-1.37,1.6-2.89,3-3.85.18-.11.25-.2.26-.32a.5.5,0,0,0-.17-.37c-.14-.14-.41-.1-.81.13a5.69,5.69,0,0,0-1.41,1.25.79.79,0,0,1-.21.21c-.08.05-.12,0-.18-.1l-.2-.35a.28.28,0,0,1-.06-.18c0-.09.07-.19.21-.35a9.29,9.29,0,0,1,2-1.63c1.37-.79,2-.55,2,.95l0,1.64c0,.61,0,1.36,0,1.54s-.07.26-.3.4Zm-.58-2.17-.12.09c-1,.7-1.82,1.54-1.82,2.07,0,.35.29.37.73.12a4.7,4.7,0,0,0,1.13-1,.83.83,0,0,0,.27-.63v-.46C297.34,173.13,297.3,173.08,297.15,173.16Z"/><path class="cls-2" d="M301.2,171.63c0,.48,0,1.35,0,1.42s-.07.3-.31.45l-.62.35c-.24.14-.31.14-.31-.09,0-.07,0-1,0-1.44v-2.06c0-.48,0-1.35,0-1.42,0-.22.07-.3.31-.44l.51-.3c.26-.15.3-.13.31.12s0,.18.09.15.08-.07.16-.16a5.26,5.26,0,0,1,1.47-1.35c1.1-.63,1.83-.33,1.83.85v1.92c0,.47,0,1.34,0,1.42s-.07.3-.31.44l-.62.36c-.25.14-.31.13-.31-.09,0-.07,0-1,0-1.45v-1.58c0-.65-.34-.89-1-.48a3.49,3.49,0,0,0-1,.92.92.92,0,0,0-.23.62Z"/><path class="cls-2" d="M307.45,167.82a.51.51,0,0,0-.1.36c0,.42,0,1.24,0,1.32s-.07.3-.31.44l-.6.34c-.24.15-.31.14-.31-.08s0-1,0-1.45V164.3c0-.48,0-1.35,0-1.42,0-.22.07-.3.31-.44l.6-.35c.24-.14.31-.13.31.09,0,.07,0,1,0,1.45v2.57c0,.14,0,.19.07.17a1.44,1.44,0,0,0,.16-.21l.74-1.21c.3-.47.59-.94.89-1.46a1.14,1.14,0,0,1,.53-.55l.82-.47c.12-.07.19-.07.19,0a.29.29,0,0,1-.07.17c-.44.7-.84,1.32-1.21,1.93l-.31.5a.9.9,0,0,0-.16.36.27.27,0,0,0,.1.19l.85.93c.24.29.55.61.9,1,.06,0,.09.09.09.13s-.08.13-.24.22l-.76.44c-.28.16-.34.16-.47,0-.24-.31-.49-.6-.73-.87l-.46-.5c-.06-.08-.12-.11-.18-.08a.79.79,0,0,0-.2.26Z"/><path class="cls-2" d="M317.71,161.67c0,.61,0,1.76,0,1.84s-.07.3-.31.44l-.69.4c-.25.14-.31.14-.31-.09,0-.07,0-1.26,0-1.88v-.67a.51.51,0,0,0-.18-.48l-1.21-1.12-1.42-1.23a.22.22,0,0,1-.06-.13c0-.08.08-.16.24-.25l.83-.48c.28-.16.34-.15.48,0,.36.39.7.72,1.06,1.08l.73.67c.06.07.11.1.17.07a.86.86,0,0,0,.17-.26L318,158c.36-.77.7-1.48,1.07-2.29a.89.89,0,0,1,.47-.55l.79-.45c.16-.1.25-.11.25,0a.82.82,0,0,1-.07.21c-.54,1.08-1,1.92-1.4,2.85l-1.22,2.55a1.27,1.27,0,0,0-.19.69Z"/><path class="cls-2" d="M325.75,156.31a5.45,5.45,0,0,1-2.82,4.53c-1.51.88-2.63.49-2.63-1.14a5.48,5.48,0,0,1,2.82-4.55C324.62,154.28,325.75,154.69,325.75,156.31ZM321.54,159c0,1,.59,1.27,1.42.79a3.17,3.17,0,0,0,1.56-2.67c0-1-.62-1.27-1.45-.79A3.11,3.11,0,0,0,321.54,159Z"/><path class="cls-2" d="M330.81,156.23c-.25.15-.31.15-.32-.12s0-.18-.07-.15a.76.76,0,0,0-.16.16,5,5,0,0,1-1.48,1.35c-1.09.63-1.83.33-1.83-.85v-1.93c0-.46,0-1.33,0-1.41s.06-.3.31-.44l.62-.36c.24-.14.3-.13.3.09,0,.07,0,1,0,1.44v1.67c0,.65.34.88,1.05.48a3.4,3.4,0,0,0,1-.93.9.9,0,0,0,.23-.61v-1.93c0-.47,0-1.34,0-1.41,0-.22.06-.3.31-.44l.61-.36c.25-.14.31-.14.31.09,0,.07,0,1,0,1.43v2.07c0,.48,0,1.35,0,1.42s-.06.3-.31.45Z"/><path class="cls-2" d="M334.74,153.22a1.59,1.59,0,0,1-.81,1.27c-.41.24-.72.14-.72-.27a1.58,1.58,0,0,1,.8-1.3C334.42,152.68,334.74,152.8,334.74,153.22Zm-.93-1c-.27.15-.32.13-.33-.13l-.08-2.59c0-.68-.07-1.83-.07-2.05s.06-.26.29-.39l.7-.4c.23-.14.29-.13.29,0s-.05,1.42-.07,2.21l-.06,2.59a.51.51,0,0,1-.33.51Z"/></svg>