<svg id="レイヤー_1" data-name="レイヤー 1" xmlns="http://www.w3.org/2000/svg" viewBox="0 0 566.93 396.85"><defs><style>.cls-1{fill:#fff;}.cls-2{fill:#009fe8;}</style></defs><path class="cls-1" d="M133.42,91.82,60.48,134a15.89,15.89,0,0,0-7.15,12.41v16.53c-.49,5.77-2.65,11.76-6.19,15.8,4.32.42,9.87-4.27,14.84-10.59l71.44-41.31a15.92,15.92,0,0,0,7.14-12.41V96C140.56,91.42,137.34,89.55,133.42,91.82Z"/><path class="cls-2" d="M70.4,151.31c0,.14-.12.29-.36.54a13.27,13.27,0,0,1-2.73,2.09c-3.34,1.93-5.48.94-5.48-2.37A11.53,11.53,0,0,1,67.91,142a7.48,7.48,0,0,1,2.32-.93c.25-.05.36,0,.36.11a1.4,1.4,0,0,1-.08.36l-.36,1.17c-.09.29-.14.42-.27.49a.81.81,0,0,1-.32.09,5.16,5.16,0,0,0-1.73.63,7.82,7.82,0,0,0-4,6.5c0,2.27,1.44,3,3.74,1.66a8.2,8.2,0,0,0,1.88-1.48,1.12,1.12,0,0,1,.32-.3c.13-.08.19,0,.29.17l.31.6A.7.7,0,0,1,70.4,151.31Z"/><path class="cls-2" d="M74,147.4c0,.72,0,2,0,2.16,0,.33-.1.46-.47.67l-.93.54c-.37.21-.47.21-.47-.13,0-.12,0-1.47,0-2.2V141.7c0-.73,0-2,0-2.16,0-.34.1-.46.47-.67l.93-.54c.37-.22.47-.21.47.13,0,.11,0,1.47,0,2.2V142c0,.23,0,.32.13.27a1.56,1.56,0,0,0,.25-.28,7.75,7.75,0,0,1,2.1-1.86c1.66-1,2.78-.5,2.78,1.29v2.9c0,.73,0,2,0,2.16,0,.34-.1.46-.47.67l-.93.54c-.37.22-.47.21-.47-.13,0-.11,0-1.47,0-2.2V143c0-1-.52-1.35-1.58-.73a5.29,5.29,0,0,0-1.52,1.41,1.38,1.38,0,0,0-.35.93Z"/><path class="cls-2" d="M86.58,142.72c-.37.21-.45.23-.47-.2,0-.17,0-.25-.13-.2a1.26,1.26,0,0,0-.22.25,9.19,9.19,0,0,1-2.37,2.09c-1.39.8-2.42.67-2.42-.8,0-2.06,2.43-4.37,4.59-5.83.28-.17.39-.3.41-.49a.81.81,0,0,0-.26-.56c-.23-.21-.63-.15-1.24.2a9,9,0,0,0-2.13,1.89,1.41,1.41,0,0,1-.32.33c-.12.07-.18,0-.28-.16l-.31-.53a.46.46,0,0,1-.08-.26c0-.15.1-.3.33-.54a13.8,13.8,0,0,1,3-2.47c2.07-1.19,3.09-.83,3.09,1.44l0,2.49c0,.92,0,2.06,0,2.33s-.1.4-.45.6Zm-.87-3.29-.19.13c-1.49,1.07-2.76,2.33-2.76,3.14,0,.53.43.57,1.11.18a7,7,0,0,0,1.71-1.52,1.21,1.21,0,0,0,.4-.94v-.71C86,139.39,85.94,139.3,85.71,139.43Z"/><path class="cls-2" d="M91.8,137.12c0,.73,0,2,0,2.16,0,.34-.1.46-.47.68l-.94.54c-.37.21-.47.2-.47-.14,0-.11,0-1.47,0-2.19v-3.12c0-.72,0-2,0-2.16,0-.33.1-.45.47-.67l.68-.39c.42-.24.52-.23.52.19s0,.45.14.4a1.2,1.2,0,0,0,.24-.29,10.55,10.55,0,0,1,1.29-1.49,9,9,0,0,1,.89-.67c.24-.14.31-.06.31.26v1.23a.51.51,0,0,1-.28.48,3.27,3.27,0,0,0-.38.19,5.77,5.77,0,0,0-1.68,1.59,1.35,1.35,0,0,0-.36.94Z"/><path class="cls-2" d="M101.14,134.31c-.37.22-.45.23-.47-.19,0-.17,0-.26-.13-.2a.88.88,0,0,0-.22.24,9.3,9.3,0,0,1-2.38,2.1c-1.38.8-2.42.67-2.42-.8,0-2.07,2.44-4.37,4.6-5.83.28-.18.39-.31.41-.49a.78.78,0,0,0-.26-.56c-.23-.21-.63-.16-1.25.2a8.94,8.94,0,0,0-2.13,1.89,1.42,1.42,0,0,1-.32.33c-.11.06-.18,0-.27-.16L96,130.3a.46.46,0,0,1-.08-.26c0-.14.1-.3.32-.54a14.46,14.46,0,0,1,3-2.47c2.07-1.19,3.08-.82,3.08,1.45l0,2.48c0,.93,0,2.06,0,2.34s-.1.39-.46.6Zm-.87-3.28a.88.88,0,0,0-.2.12c-1.48,1.07-2.76,2.34-2.76,3.15,0,.53.44.57,1.12.18a7.2,7.2,0,0,0,1.71-1.52,1.23,1.23,0,0,0,.4-1v-.71C100.54,131,100.49,130.9,100.27,131Z"/><path class="cls-2" d="M110.35,128.35c0,.15-.11.29-.34.54a10,10,0,0,1-2,1.57c-2.77,1.6-3.92.34-3.92-1.66a8.49,8.49,0,0,1,4.44-7.09,5.38,5.38,0,0,1,1.61-.66c.24-.06.34,0,.36.12a1.15,1.15,0,0,1-.07.32l-.29,1c-.09.32-.14.44-.27.52a.84.84,0,0,1-.33.08,3,3,0,0,0-1,.37,5.19,5.19,0,0,0-2.62,4.25c0,1.22.74,1.93,2.31,1a5.18,5.18,0,0,0,1.19-1,2.58,2.58,0,0,1,.33-.28c.13-.07.17,0,.27.2l.23.43A.59.59,0,0,1,110.35,128.35Z"/><path class="cls-2" d="M117,124.59c0,.4-.08.54-.46.83s-.6.41-.89.58c-2,1.13-2.65.56-2.65-1.07v-3.71c0-.33-.05-.38-.32-.22l-.55.33c-.42.25-.48.22-.48-.2v-.66c0-.42.06-.52.48-.76.13-.08.39-.21.56-.32s.31-.22.31-.56c0-.5,0-1.4,0-1.51,0-.34.1-.46.47-.68l.88-.51c.38-.21.47-.2.47.13,0,.12,0,1,0,1.56,0,.33,0,.35.37.17l.44-.25,1-.57c.42-.24.48-.21.48.19v.69c0,.41-.06.51-.48.75l-1,.53-.33.19c-.4.23-.48.36-.48.76v3.37c0,.92.39,1,1.23.52.3-.18.67-.49.79-.55s.22,0,.22.29Z"/><path class="cls-2" d="M125.13,119.32a.45.45,0,0,1,.09.25c0,.15-.09.28-.32.53a11.66,11.66,0,0,1-2.65,2.12c-2.87,1.66-4.06.46-4.06-1.72a8.24,8.24,0,0,1,4.08-6.76c2.07-1.19,3.26-.46,3.26,2,0,.83-.13,1-.55,1.27l-4.57,2.64c-.29.17-.4.28-.4.47a1.13,1.13,0,0,0,.34.71c.37.37,1,.33,2.07-.27a7.52,7.52,0,0,0,1.8-1.48,2.2,2.2,0,0,1,.33-.32c.12-.07.19,0,.3.17ZM123.79,116a1.13,1.13,0,0,0-.23-.63c-.26-.34-.71-.36-1.35,0a4.53,4.53,0,0,0-1.78,1.93,2.94,2.94,0,0,0-.29.83c0,.13.11.11.37,0l2.86-1.64C123.66,116.3,123.77,116.18,123.79,116Z"/><path class="cls-2" d="M129.23,115.51c0,.73,0,2,0,2.16,0,.34-.1.46-.47.68l-.94.54c-.37.21-.47.2-.47-.14,0-.11,0-1.47,0-2.19v-3.11c0-.73,0-2,0-2.16,0-.34.1-.46.47-.68l.68-.39c.42-.24.51-.23.51.19s0,.45.15.4a1.2,1.2,0,0,0,.24-.29,9.92,9.92,0,0,1,1.29-1.48,7.06,7.06,0,0,1,.89-.68c.24-.14.31-.06.31.26v1.23a.51.51,0,0,1-.28.48,3.27,3.27,0,0,0-.38.19,5.69,5.69,0,0,0-1.68,1.6,1.31,1.31,0,0,0-.36.93Z"/></svg>