<svg id="レイヤー_1" data-name="レイヤー 1" xmlns="http://www.w3.org/2000/svg" viewBox="0 0 283.46 283.46"><defs><style>.cls-1{fill:#1e95d4;}.cls-2{fill:#fff;}</style></defs><path class="cls-1" d="M197.84,7.28,150.75,34.37a16,16,0,0,0-7.19,12.48V63.47c-.5,5.81-2.67,11.83-6.22,15.9,4.34.42,9.91-4.29,14.92-10.66L197.84,42.5A16,16,0,0,0,205,30V11.46C205,6.88,201.79,5,197.84,7.28Z"/><path class="cls-2" d="M163.93,46.28c0,2.38-1.91,4.92-4.64,6.5s-4.32,1-4.32-1.3V47.23c0-.9-.05-2.58-.05-2.68,0-.33.09-.45.45-.65l1-.57c.36-.21.45-.2.45.13,0,.1-.05,1.83-.05,2.73v4c0,1.5,1,1.85,2.6.91a5,5,0,0,0,2.77-4V43.09c0-.9,0-2.57,0-2.68,0-.33.1-.44.45-.65l1-.57c.36-.2.45-.2.45.13,0,.11,0,1.84,0,2.73Z"/><path class="cls-2" d="M167.92,45.13c0,.7,0,2,0,2.07,0,.33-.09.44-.45.65l-.89.52c-.36.2-.45.19-.45-.13,0-.11,0-1.41,0-2.11V39.67c0-.7,0-2,0-2.08,0-.32.09-.44.45-.64l.89-.52c.36-.2.45-.2.45.13,0,.11,0,1.41,0,2.1V40c0,.22,0,.31.12.26a1.39,1.39,0,0,0,.25-.27,7.26,7.26,0,0,1,2-1.78c1.6-.92,2.67-.48,2.67,1.23v2.79c0,.7,0,2,0,2.07,0,.32-.1.44-.45.65l-.9.51c-.36.21-.45.2-.45-.12,0-.11,0-1.41,0-2.11V40.91c0-.94-.49-1.29-1.51-.7a5.14,5.14,0,0,0-1.46,1.35,1.34,1.34,0,0,0-.34.89Z"/><path class="cls-2" d="M177.28,41a2.39,2.39,0,0,1-1.22,2c-.64.37-1.12.21-1.12-.44a2.39,2.39,0,0,1,1.24-2C176.8,40.25,177.28,40.41,177.28,41Z"/><path class="cls-2" d="M181.29,38.73a2.41,2.41,0,0,1-1.22,2c-.64.36-1.12.21-1.12-.44a2.42,2.42,0,0,1,1.24-2C180.81,37.94,181.29,38.09,181.29,38.73Z"/><path class="cls-2" d="M185.3,36.41a2.4,2.4,0,0,1-1.22,2c-.63.37-1.11.21-1.11-.44a2.38,2.38,0,0,1,1.23-2C184.82,35.62,185.3,35.78,185.3,36.41Z"/><path class="cls-2" d="M189.31,34.1a2.36,2.36,0,0,1-1.22,1.95c-.63.37-1.11.22-1.11-.44a2.41,2.41,0,0,1,1.24-2C188.83,33.31,189.31,33.46,189.31,34.1Z"/><path class="cls-2" d="M193.33,31.78a2.39,2.39,0,0,1-1.23,2c-.63.36-1.11.21-1.11-.44a2.39,2.39,0,0,1,1.24-1.95C192.85,31,193.33,31.15,193.33,31.78Z"/></svg>