<svg id="レイヤー_1" data-name="レイヤー 1" xmlns="http://www.w3.org/2000/svg" viewBox="0 0 750 750"><defs><style>.cls-1{fill:#00a0e9;}</style></defs><path class="cls-1" d="M158.54,234.34a.76.76,0,0,1,.28-1.25,10.73,10.73,0,0,0,5.57-3.63,11.9,11.9,0,0,0,2.24-7.51,13.81,13.81,0,0,0-.84-4.85,11.17,11.17,0,0,0-6.65-6.71,16.22,16.22,0,0,0-5.93-1H137.49a.69.69,0,0,0-.71.7V249a1,1,0,0,0,1,1h8.84a.68.68,0,0,0,.71-.7V237c0-.81,1.08-1,1.57-.21l8.19,12.71a1,1,0,0,0,.85.48h11.12c.66,0,.94-.71.51-1.28Zm-4.41-8.08a7.73,7.73,0,0,1-4.8,1.29h-1a1,1,0,0,1-1-1v-8.32a.68.68,0,0,1,.71-.7h1.28a7.73,7.73,0,0,1,4.8,1.29,5,5,0,0,1,0,7.44Z"/><path class="cls-1" d="M207.21,209.39h-8.78a.69.69,0,0,0-.72.7v21.39c0,1.19,0,2.4-.13,3.64a9.55,9.55,0,0,1-.84,3.37,5.83,5.83,0,0,1-2.12,2.45,7.38,7.38,0,0,1-4.07.94,7.52,7.52,0,0,1-4.1-.94,5.56,5.56,0,0,1-2.12-2.45,10,10,0,0,1-.81-3.37c-.09-1.24-.14-2.45-.14-3.64V210.39a1,1,0,0,0-1-1h-8.83a.69.69,0,0,0-.72.7v22.85q0,9.48,4.37,13.84t13.36,4.37q9,0,13.33-4.37t4.34-13.84V210.39A1,1,0,0,0,207.21,209.39Z"/><path class="cls-1" d="M236.33,234.34a.76.76,0,0,1,.29-1.25,10.77,10.77,0,0,0,5.57-3.63,11.9,11.9,0,0,0,2.23-7.51,14,14,0,0,0-.83-4.85,11.61,11.61,0,0,0-2.48-4,11.44,11.44,0,0,0-4.18-2.72,16.16,16.16,0,0,0-5.92-1H215.29a.69.69,0,0,0-.71.7V249a1,1,0,0,0,1,1h8.83a.68.68,0,0,0,.72-.7V237c0-.81,1.08-1,1.56-.21l8.2,12.71a1,1,0,0,0,.85.48h11.12c.66,0,.94-.71.5-1.28Zm-4.41-8.08a7.7,7.7,0,0,1-4.79,1.29h-1a1,1,0,0,1-1-1v-8.32a.68.68,0,0,1,.71-.7h1.28a7.7,7.7,0,0,1,4.79,1.29,5,5,0,0,1,0,7.44Z"/><path class="cls-1" d="M292.83,248.74l-14.61-38.41a1.05,1.05,0,0,0-1-.68H267.08a.7.7,0,0,0-.67.44L251.8,248.5a1,1,0,0,0,1,1.26h9.16a.7.7,0,0,0,.67-.46l2.08-6.05a.68.68,0,0,1,.67-.46H279a1.06,1.06,0,0,1,1,.71l1.9,5.55a1.06,1.06,0,0,0,1,.71h9.35A.71.71,0,0,0,292.83,248.74Zm-16.89-13.88H269a1,1,0,0,1-1-1.24l3.47-9.91c.25-.71,1.35-.54,1.63.25l3.47,9.91A.7.7,0,0,1,275.94,234.86Z"/><path class="cls-1" d="M75.9,223.48a1.69,1.69,0,0,0,.58-.1,1.79,1.79,0,0,0,1.11-2.28c-1.44-4.19-1.2-7.53.67-9.43,2.07-2.09,6.06-2.36,11-.72.77.26,1.51.53,2.24.82,1.2-.85,2.42-1.63,3.64-2.34a46.33,46.33,0,0,0-4.74-1.89c-6.25-2.08-11.59-1.5-14.65,1.6-2.89,2.92-3.43,7.58-1.51,13.13A1.79,1.79,0,0,0,75.9,223.48Z"/><path class="cls-1" d="M91.64,213.25a54.69,54.69,0,0,0-8.15,7.32h0A1.8,1.8,0,1,0,86.15,223h0a49.89,49.89,0,0,1,9.18-8c.41-.27.82-.55,1.23-.8h0l1.27.75,0,0a37.09,37.09,0,0,1,8.49,7.74h0a1.79,1.79,0,1,0,2.77-2.28h0a41.72,41.72,0,0,0-7.65-7.34l-.05,0-1.28-.83.12-.05c.46-.23.93-.44,1.39-.63.61-.26,1.22-.5,1.82-.7,4.9-1.63,8.89-1.37,11,.72,1.88,1.9,2.11,5.24.67,9.43a1.79,1.79,0,0,0,3.39,1.17c1.92-5.55,1.38-10.21-1.5-13.13-3.07-3.09-8.41-3.68-14.65-1.6a33,33,0,0,0-4.37,1.85c-.46.23-.92.48-1.38.73-1.22.68-2.45,1.42-3.66,2.25C92.45,212.65,92.05,213,91.64,213.25Z"/><path class="cls-1" d="M112.76,225a4.25,4.25,0,1,0,4.24,4.24A4.24,4.24,0,0,0,112.76,225Z"/><path class="cls-1" d="M80.21,224.85a4.25,4.25,0,1,0,4.24,4.24A4.24,4.24,0,0,0,80.21,224.85Z"/><path class="cls-1" d="M118.39,236.17a1.8,1.8,0,1,0-3.41,1.14h0c1.59,4.77,1.25,8.7-.93,10.78s-5.77,2.13-10.16.42c-1-.37-1.86-.76-2.75-1.17-1.12.81-2.3,1.56-3.5,2.27a48.83,48.83,0,0,0,5,2.25,19.14,19.14,0,0,0,6.84,1.41,10,10,0,0,0,7.1-2.58c3.23-3.07,3.91-8.37,1.86-14.52Z"/><path class="cls-1" d="M101,245.81a47.64,47.64,0,0,0,8.14-8h0a1.8,1.8,0,0,0-2.79-2.27h0a42.55,42.55,0,0,1-8.84,8.32l-1.07.73-1.26-.75-.31-.18a42.87,42.87,0,0,1-8.56-8.12h0a1.79,1.79,0,1,0-2.78,2.27h0a47.23,47.23,0,0,0,8.13,8l.07,0,1.27.82-.16.07c-.44.23-.87.46-1.33.67-.89.41-1.8.8-2.75,1.17-4.39,1.71-8.1,1.55-10.17-.42s-2.51-6-.92-10.78h0a1.8,1.8,0,1,0-3.41-1.14h0c-2,6.15-1.38,11.45,1.86,14.52a10,10,0,0,0,7.1,2.58A19.18,19.18,0,0,0,90,251.86,48.65,48.65,0,0,0,95,249.61c.45-.24.9-.48,1.33-.73a40.34,40.34,0,0,0,3.49-2.21C100.2,246.39,100.6,246.1,101,245.81Z"/></svg>