<svg id="レイヤー_1" data-name="レイヤー 1" xmlns="http://www.w3.org/2000/svg" viewBox="0 0 566.93 566.93"><defs><style>.cls-1{fill:#fff;}.cls-2{fill:#009fe8;}</style></defs><path class="cls-1" d="M533,296.87l-51,28.54a10.49,10.49,0,0,0-4.71,8.19v10.9a18.71,18.71,0,0,1-4.08,10.42c2.85.28,6.5-2.81,9.79-7l50-28a10.48,10.48,0,0,0,4.71-8.18V299.62C537.71,296.61,535.59,295.38,533,296.87Z"/><path class="cls-2" d="M486.92,336.56c-.19.61-.36,1.14-.55,1.8a.74.74,0,0,1-.43.55l-.25.14c-.28.16-.33.15-.42-.06-.17-.46-.32-.81-.49-1.22l-1.29-3c-.18-.41-.35-.8-.59-1.32a.31.31,0,0,1,0-.15c0-.1.07-.16.24-.26l.82-.48c.28-.16.33-.14.4.08.17.52.31.89.47,1.29l1,2.59c0,.08.07.1.11.08a.49.49,0,0,0,.11-.19l1.2-3.82c.2-.65.37-1.21.58-2a.72.72,0,0,1,.43-.54l.17-.1c.28-.16.33-.15.41.07.22.5.4.87.59,1.28l1.17,2.44c0,.06.06.09.11.06a.35.35,0,0,0,.1-.2l1-3.75c.16-.59.3-1.12.48-1.84a.66.66,0,0,1,.41-.54l.74-.43c.17-.1.25-.12.25,0a.52.52,0,0,1-.05.21c-.25.81-.41,1.38-.59,2l-1.3,4.54c-.17.59-.32,1.13-.49,1.77a.69.69,0,0,1-.41.55l-.27.15c-.28.16-.33.15-.43-.05-.19-.46-.36-.8-.54-1.18l-1.22-2.5c0-.07-.08-.1-.12-.07s-.07.08-.12.2Z"/><path class="cls-2" d="M498.56,330.87a.29.29,0,0,1,.06.16c0,.1-.06.19-.21.35a7.87,7.87,0,0,1-1.74,1.4c-1.9,1.09-2.69.3-2.69-1.13a5.43,5.43,0,0,1,2.7-4.46c1.36-.79,2.15-.31,2.15,1.33,0,.55-.09.68-.37.84l-3,1.74c-.19.11-.26.18-.26.31a.76.76,0,0,0,.22.47c.25.24.67.22,1.36-.18a4.86,4.86,0,0,0,1.19-1,1.26,1.26,0,0,1,.22-.21c.08,0,.12,0,.2.11Zm-.88-2.18a.79.79,0,0,0-.15-.42c-.17-.23-.47-.24-.9,0a3,3,0,0,0-1.17,1.27,2,2,0,0,0-.19.54c0,.09.08.08.25,0L497.4,329C497.59,328.87,497.67,328.8,497.68,328.69Z"/><path class="cls-2" d="M502,329.66l-.32.19c-1.24.72-1.65.46-1.65-.8v-4.42c0-.44,0-1.35,0-1.43s.06-.3.31-.44l.62-.36c.24-.14.3-.13.3.09,0,.07,0,1,0,1.45v4.32c0,.54.12.73.66.42l.27-.17c.1-.06.15,0,.15.12v.54C502.3,329.41,502.24,329.5,502,329.66Z"/><path class="cls-2" d="M507.15,326.24c0,.09-.08.19-.22.35a6.61,6.61,0,0,1-1.34,1c-1.82,1.06-2.58.23-2.58-1.09a5.61,5.61,0,0,1,2.93-4.68,3.75,3.75,0,0,1,1.06-.43c.16,0,.22,0,.23.08a.92.92,0,0,1,0,.22l-.19.63c-.06.2-.1.29-.18.33a.4.4,0,0,1-.21.06,1.92,1.92,0,0,0-.64.25,3.44,3.44,0,0,0-1.73,2.8c0,.81.49,1.27,1.53.67a3.87,3.87,0,0,0,.78-.62,1,1,0,0,1,.22-.19c.08,0,.11,0,.18.13l.15.29A.37.37,0,0,1,507.15,326.24Z"/><path class="cls-2" d="M513.4,320.21a5.45,5.45,0,0,1-2.82,4.53c-1.51.88-2.63.49-2.63-1.14a5.48,5.48,0,0,1,2.82-4.55C512.27,318.18,513.4,318.59,513.4,320.21Zm-4.21,2.69c0,1,.59,1.27,1.42.79a3.17,3.17,0,0,0,1.56-2.67c0-1-.62-1.27-1.45-.79A3.11,3.11,0,0,0,509.19,322.9Z"/><path class="cls-2" d="M515.85,319.94c0,.48,0,1.35,0,1.42s-.06.3-.31.44l-.61.36c-.25.14-.31.14-.31-.09,0-.07,0-1,0-1.45v-2.05c0-.48,0-1.35,0-1.42s.06-.3.31-.45l.52-.3c.24-.14.29-.12.3.12s0,.18.08.15a.76.76,0,0,0,.16-.16,4.63,4.63,0,0,1,1.42-1.3,1.38,1.38,0,0,1,1.27-.23c.1,0,.15.08.22,0a1,1,0,0,0,.21-.25,5.39,5.39,0,0,1,1.59-1.46c1.06-.61,1.76-.29,1.76.89v1.91c0,.48,0,1.35,0,1.42,0,.23-.06.31-.31.45l-.62.36c-.24.14-.3.13-.3-.09s0-1,0-1.45v-1.59c0-.65-.31-.9-1-.52a3.13,3.13,0,0,0-.94.88.7.7,0,0,0-.2.53V318c0,.48,0,1.35,0,1.43s-.06.3-.31.44l-.61.36c-.25.14-.31.13-.31-.09,0-.07,0-1,0-1.45v-1.58c0-.65-.31-.91-1-.53a3.09,3.09,0,0,0-.93.87.89.89,0,0,0-.24.62Z"/><path class="cls-2" d="M528.27,313.72a.29.29,0,0,1,.06.16c0,.1-.06.19-.21.35a7.7,7.7,0,0,1-1.75,1.4c-1.89,1.09-2.68.3-2.68-1.13a5.42,5.42,0,0,1,2.69-4.46c1.36-.79,2.15-.31,2.15,1.33,0,.55-.09.68-.36.84l-3,1.74c-.19.11-.27.18-.27.31a.78.78,0,0,0,.23.47c.24.24.67.22,1.36-.18a5.06,5.06,0,0,0,1.19-1,1.32,1.32,0,0,1,.21-.21c.09,0,.13,0,.2.11Zm-.89-2.18a.72.72,0,0,0-.15-.42c-.17-.23-.46-.24-.89,0a2.92,2.92,0,0,0-1.17,1.27,1.67,1.67,0,0,0-.19.54c0,.09.07.08.24,0l1.89-1.09C527.3,311.72,527.37,311.65,527.38,311.54Z"/><path class="cls-2" d="M531.32,312a1.59,1.59,0,0,1-.81,1.27c-.42.24-.72.14-.72-.27a1.57,1.57,0,0,1,.79-1.3C531,311.43,531.32,311.55,531.32,312Zm-.94-1c-.26.16-.32.14-.33-.13l-.07-2.58c0-.69-.08-1.84-.08-2s.07-.26.3-.4l.69-.4c.24-.13.3-.12.3.06s-.05,1.42-.07,2.21l-.07,2.59c0,.27-.06.35-.33.51Z"/><path class="cls-1" d="M331.29,141.1l-51,28.54a10.47,10.47,0,0,0-4.71,8.18v10.9a18.77,18.77,0,0,1-4.08,10.43c2.85.27,6.5-2.82,9.79-7l50-28A10.47,10.47,0,0,0,336,156V143.84C336,140.84,333.88,139.6,331.29,141.1Z"/><path class="cls-2" d="M285.2,180.78c-.19.61-.36,1.14-.55,1.81a.72.72,0,0,1-.43.54l-.25.15c-.28.16-.33.14-.42-.07-.17-.46-.32-.81-.49-1.22l-1.28-3c-.18-.41-.35-.8-.6-1.32a.31.31,0,0,1,0-.15c0-.1.07-.16.24-.26l.82-.47c.28-.16.33-.15.41.07.17.52.31.89.46,1.29l1,2.59c0,.08.07.1.11.08a.39.39,0,0,0,.11-.19l1.2-3.82c.2-.65.37-1.21.58-2a.72.72,0,0,1,.43-.54l.17-.1c.28-.16.33-.15.42.07.21.51.39.87.58,1.28l1.17,2.44c0,.07.06.09.11.07a.39.39,0,0,0,.1-.2l1-3.76c.16-.59.29-1.12.47-1.84a.66.66,0,0,1,.41-.54l.74-.43c.17-.1.25-.12.25,0a.51.51,0,0,1-.05.2c-.25.81-.41,1.38-.59,2L290,178c-.17.6-.32,1.13-.49,1.77a.68.68,0,0,1-.41.55l-.27.15c-.28.16-.33.15-.42,0-.2-.45-.37-.8-.55-1.18l-1.22-2.5c0-.07-.07-.1-.12-.07s-.07.08-.11.2Z"/><path class="cls-2" d="M296.84,175.09a.29.29,0,0,1,.06.17c0,.09-.06.18-.21.34A7.64,7.64,0,0,1,295,177c-1.9,1.09-2.68.3-2.68-1.13a5.42,5.42,0,0,1,2.69-4.46c1.36-.78,2.15-.3,2.15,1.34,0,.54-.09.67-.36.83l-3,1.74c-.19.11-.26.19-.26.31a.79.79,0,0,0,.22.47c.25.24.67.22,1.36-.18a4.91,4.91,0,0,0,1.2-1,1.13,1.13,0,0,1,.21-.2c.08-.05.13,0,.2.1Zm-.88-2.18a.82.82,0,0,0-.15-.42c-.17-.23-.47-.23-.89,0a2.92,2.92,0,0,0-1.17,1.27,1.69,1.69,0,0,0-.2.55c0,.08.08.07.25,0l1.88-1.08C295.87,173.1,296,173,296,172.91Z"/><path class="cls-2" d="M300.28,173.88l-.32.2c-1.23.71-1.65.45-1.65-.81v-4.42c0-.44,0-1.35,0-1.43s.07-.3.31-.44l.62-.35c.24-.15.3-.14.3.08s0,1,0,1.45v4.32c0,.54.12.73.66.43.09,0,.22-.15.27-.18s.15,0,.15.12v.54C300.58,173.63,300.52,173.72,300.28,173.88Z"/><path class="cls-2" d="M305.43,170.46c0,.1-.07.19-.22.35a6.66,6.66,0,0,1-1.33,1c-1.83,1.05-2.59.22-2.59-1.09a5.58,5.58,0,0,1,2.93-4.68,3.8,3.8,0,0,1,1.06-.44c.16,0,.22,0,.24.08a1.16,1.16,0,0,1,0,.22l-.19.63c-.06.21-.09.29-.18.34a.76.76,0,0,1-.21.06,1.76,1.76,0,0,0-.64.24,3.42,3.42,0,0,0-1.72,2.8c0,.81.49,1.27,1.52.67a3.55,3.55,0,0,0,.78-.62,1,1,0,0,1,.22-.19c.08-.05.11,0,.18.13l.15.29A.45.45,0,0,1,305.43,170.46Z"/><path class="cls-2" d="M311.68,164.44a5.44,5.44,0,0,1-2.82,4.53c-1.51.87-2.62.48-2.62-1.14a5.46,5.46,0,0,1,2.82-4.56C310.56,162.41,311.68,162.81,311.68,164.44Zm-4.21,2.68c0,1,.6,1.28,1.43.8a3.22,3.22,0,0,0,1.55-2.68c0-1-.62-1.27-1.45-.79A3.11,3.11,0,0,0,307.47,167.12Z"/><path class="cls-2" d="M314.13,164.16c0,.48,0,1.35,0,1.42,0,.23-.06.31-.3.45l-.62.35c-.25.14-.31.14-.31-.08s0-1,0-1.45v-2.06c0-.47,0-1.34,0-1.42s.06-.3.31-.44l.52-.3c.25-.15.29-.13.3.11s0,.18.08.15.09-.07.16-.16a5,5,0,0,1,1.42-1.3,1.38,1.38,0,0,1,1.27-.22c.1,0,.15.07.22,0a1,1,0,0,0,.21-.25,5.42,5.42,0,0,1,1.6-1.46c1.05-.61,1.75-.29,1.75.89v1.91c0,.48,0,1.35,0,1.43s-.06.3-.31.44l-.61.36c-.25.14-.31.13-.31-.09s0-1,0-1.45v-1.58c0-.65-.31-.91-1-.53a3,3,0,0,0-.93.88.72.72,0,0,0-.21.53v1.92c0,.47,0,1.35,0,1.42,0,.22-.06.3-.3.44l-.62.36c-.25.14-.31.14-.31-.09,0-.07,0-1,0-1.45v-1.58c0-.65-.31-.91-1-.53a3.5,3.5,0,0,0-.93.87.94.94,0,0,0-.24.62Z"/><path class="cls-2" d="M326.55,157.94a.29.29,0,0,1,.06.16c0,.1-.06.19-.21.35a7.7,7.7,0,0,1-1.75,1.4c-1.89,1.09-2.68.3-2.68-1.13a5.45,5.45,0,0,1,2.69-4.46c1.36-.78,2.15-.3,2.15,1.33,0,.55-.08.68-.36.84l-3,1.74c-.19.11-.27.18-.27.31a.75.75,0,0,0,.23.47c.24.24.67.22,1.36-.18a4.86,4.86,0,0,0,1.19-1,1.59,1.59,0,0,1,.21-.2c.09-.05.13,0,.21.1Zm-.89-2.18a.81.81,0,0,0-.14-.42c-.18-.23-.47-.24-.9,0a3,3,0,0,0-1.17,1.27,1.89,1.89,0,0,0-.19.55c0,.08.07.07.24,0l1.89-1.08C325.58,156,325.65,155.87,325.66,155.76Z"/><path class="cls-2" d="M329.6,156.19a1.59,1.59,0,0,1-.81,1.27c-.41.24-.72.14-.72-.27a1.58,1.58,0,0,1,.8-1.3C329.28,155.65,329.6,155.77,329.6,156.19Zm-.94-1c-.26.15-.32.13-.33-.13l-.07-2.59c0-.69-.08-1.83-.08-2.05s.07-.26.3-.39l.69-.4c.24-.14.3-.13.3,0s-.05,1.42-.07,2.21l-.07,2.59c0,.27-.06.36-.33.51Z"/></svg>