<svg id="レイヤー_1" data-name="レイヤー 1" xmlns="http://www.w3.org/2000/svg" xmlns:xlink="http://www.w3.org/1999/xlink" viewBox="0 0 1334 750"><defs><style>.cls-1{mask:url(#mask);}.cls-2,.cls-4{mix-blend-mode:multiply;}.cls-2{fill:url(#linear-gradient);}.cls-3{mask:url(#mask-2);}.cls-4{fill:url(#linear-gradient-2);}.cls-5{fill:url(#linear-gradient-3);}.cls-6{fill:url(#linear-gradient-4);}.cls-7{fill:#e8e9e7;}.cls-8{fill:#b2b4b3;}.cls-9{fill:#5e5e5e;}.cls-10{mask:url(#mask-3);}.cls-11{fill:url(#linear-gradient-5);}.cls-12{mask:url(#mask-4);}.cls-13{fill:url(#linear-gradient-6);}.cls-14{filter:url(#luminosity-noclip-2);}.cls-15{filter:url(#luminosity-noclip);}</style><filter id="luminosity-noclip" x="693.53" y="-8567" width="416.95" height="32766" filterUnits="userSpaceOnUse" color-interpolation-filters="sRGB"><feFlood flood-color="#fff" result="bg"/><feBlend in="SourceGraphic" in2="bg"/></filter><mask id="mask" x="693.53" y="-8567" width="416.95" height="32766" maskUnits="userSpaceOnUse"><g class="cls-15"/></mask><linearGradient id="linear-gradient" x1="902.01" y1="549.94" x2="902.01" y2="21.13" gradientUnits="userSpaceOnUse"><stop offset="0"/><stop offset="0.25" stop-color="#030303"/><stop offset="0.44" stop-color="#0d0d0d"/><stop offset="0.61" stop-color="#1d1d1d"/><stop offset="0.77" stop-color="#343434"/><stop offset="0.91" stop-color="#515151"/><stop offset="1" stop-color="#666"/></linearGradient><filter id="luminosity-noclip-2" x="712.38" y="-8567" width="368.44" height="32766" filterUnits="userSpaceOnUse" color-interpolation-filters="sRGB"><feFlood flood-color="#fff" result="bg"/><feBlend in="SourceGraphic" in2="bg"/></filter><mask id="mask-2" x="712.38" y="-8567" width="368.44" height="32766" maskUnits="userSpaceOnUse"><g class="cls-14"/></mask><linearGradient id="linear-gradient-2" x1="859.76" y1="306.57" x2="1136.08" y2="147.03" gradientUnits="userSpaceOnUse"><stop offset="0" stop-color="#666"/><stop offset="0.03" stop-color="#5a5a5a"/><stop offset="0.11" stop-color="#3a3a3a"/><stop offset="0.2" stop-color="#202020"/><stop offset="0.3" stop-color="#0e0e0e"/><stop offset="0.4" stop-color="#040404"/><stop offset="0.51"/></linearGradient><linearGradient id="linear-gradient-3" x1="223.52" y1="584.24" x2="1110.48" y2="584.24" gradientUnits="userSpaceOnUse"><stop offset="0" stop-color="#ababab"/><stop offset="0.52" stop-color="#bfbfbf"/><stop offset="1" stop-color="#d5d5d5"/></linearGradient><linearGradient id="linear-gradient-4" x1="666.97" y1="725.91" x2="666.97" y2="624.19" gradientUnits="userSpaceOnUse"><stop offset="0" stop-color="#c4c4c4"/><stop offset="0.02" stop-color="#bfbfbf"/><stop offset="0.05" stop-color="#afafaf"/><stop offset="0.09" stop-color="#969696"/><stop offset="0.12" stop-color="#737373"/><stop offset="0.13" stop-color="#6b6b6b"/><stop offset="0.16" stop-color="#7d7d7e"/><stop offset="0.2" stop-color="#999b9d"/><stop offset="0.23" stop-color="#bdbebf"/><stop offset="0.27" stop-color="#dadadb"/><stop offset="0.3" stop-color="#ececec"/><stop offset="0.32" stop-color="#f2f2f2"/><stop offset="0.53" stop-color="#c1c3c5"/><stop offset="0.61" stop-color="#bcbec0"/><stop offset="0.71" stop-color="#adafb0"/><stop offset="0.82" stop-color="#959697"/><stop offset="0.93" stop-color="#737374"/><stop offset="1" stop-color="#5c5c5c"/></linearGradient><mask id="mask-3" x="693.53" y="21.13" width="416.95" height="528.81" maskUnits="userSpaceOnUse"><g class="cls-1"><path class="cls-2" d="M1044.43,549.94h66V43.4a22.26,22.26,0,0,0-22.26-22.27H693.53Z"/></g></mask><linearGradient id="linear-gradient-5" x1="902.01" y1="549.94" x2="902.01" y2="21.13" gradientUnits="userSpaceOnUse"><stop offset="0" stop-color="#fff"/><stop offset="0.9" stop-color="#fff"/><stop offset="1" stop-color="#fff"/></linearGradient><mask id="mask-4" x="712.38" y="51.3" width="368.44" height="468.01" maskUnits="userSpaceOnUse"><g class="cls-3"><polygon class="cls-4" points="1080.81 519.31 1080.81 51.3 712.38 51.3 1024.03 519.31 1080.81 519.31"/></g></mask><linearGradient id="linear-gradient-6" x1="859.76" y1="306.57" x2="1136.08" y2="147.03" gradientUnits="userSpaceOnUse"><stop offset="0" stop-color="#fff"/><stop offset="0.03" stop-color="#fff"/><stop offset="0.51" stop-color="#fff"/></linearGradient></defs><path class="cls-5" d="M1090.79,624.19H243.21a19.69,19.69,0,0,1-19.69-19.7V544.3h887v60.19A19.69,19.69,0,0,1,1090.79,624.19Z"/><path class="cls-6" d="M797.28,720.71l-27.71-6.81c-7.27-1.13-8.86-18.62-8.86-18.62-3-20.44-6.13-71.09-6.13-71.09H579.38s-3.18,50.65-6.13,71.09c0,0-1.59,17.49-8.86,18.62l-27.73,6.81s-17.95,4.55,22.73,5,107.61,0,107.61,0,66.91.46,107.57,0S797.28,720.71,797.28,720.71Z"/><path d="M1110.48,549.94h-887V43.4a22.26,22.26,0,0,1,22.26-22.27h842.44a22.26,22.26,0,0,1,22.26,22.27Z"/><rect class="cls-7" x="253.19" y="51.3" width="826.94" height="468.67"/><rect class="cls-8" x="575.91" y="51.3" width="20.17" height="20.35"/><rect class="cls-8" x="616.25" y="51.3" width="20.17" height="20.35"/><rect class="cls-8" x="656.58" y="51.3" width="20.17" height="20.35"/><rect class="cls-8" x="696.91" y="51.3" width="20.17" height="20.35"/><rect class="cls-8" x="737.24" y="51.11" width="20.17" height="20.35"/><rect class="cls-8" x="777.57" y="51.11" width="20.17" height="20.35"/><rect class="cls-8" x="817.91" y="51.11" width="20.17" height="20.35"/><rect class="cls-8" x="858.24" y="51.11" width="20.17" height="20.35"/><rect class="cls-8" x="898.57" y="51.11" width="20.17" height="20.35"/><rect class="cls-8" x="938.9" y="51.11" width="20.17" height="20.35"/><rect class="cls-8" x="979.23" y="51.3" width="20.17" height="20.35"/><rect class="cls-8" x="1019.57" y="51.3" width="20.17" height="20.35"/><rect class="cls-8" x="1059.9" y="51.2" width="20.17" height="20.35"/><rect class="cls-8" x="575.91" y="92.28" width="20.17" height="20.35"/><rect class="cls-8" x="596.08" y="71.93" width="20.17" height="20.35"/><rect class="cls-8" x="636.41" y="71.93" width="20.17" height="20.35"/><rect class="cls-8" x="616.25" y="92.28" width="20.17" height="20.35"/><rect class="cls-8" x="656.58" y="92.28" width="20.17" height="20.35"/><rect class="cls-8" x="676.74" y="71.93" width="20.17" height="20.35"/><rect class="cls-8" x="696.91" y="92.28" width="20.17" height="20.35"/><rect class="cls-8" x="717.08" y="71.74" width="20.17" height="20.35"/><rect class="cls-8" x="757.41" y="71.74" width="20.17" height="20.35"/><rect class="cls-8" x="737.24" y="92.09" width="20.17" height="20.35"/><rect class="cls-8" x="777.57" y="92.09" width="20.17" height="20.35"/><rect class="cls-8" x="797.74" y="71.74" width="20.17" height="20.35"/><rect class="cls-8" x="817.91" y="92.09" width="20.17" height="20.35"/><rect class="cls-8" x="838.07" y="71.74" width="20.17" height="20.35"/><rect class="cls-8" x="878.4" y="71.74" width="20.17" height="20.35"/><rect class="cls-8" x="858.24" y="92.09" width="20.17" height="20.35"/><rect class="cls-8" x="898.57" y="92.09" width="20.17" height="20.35"/><rect class="cls-8" x="918.74" y="71.74" width="20.17" height="20.35"/><rect class="cls-8" x="938.9" y="92.09" width="20.17" height="20.35"/><rect class="cls-8" x="959.07" y="71.93" width="20.17" height="20.35"/><rect class="cls-8" x="979.23" y="92.28" width="20.17" height="20.35"/><rect class="cls-8" x="999.4" y="71.93" width="20.17" height="20.35"/><rect class="cls-8" x="1019.57" y="92.28" width="20.17" height="20.35"/><rect class="cls-8" x="1039.73" y="71.83" width="20.17" height="20.35"/><rect class="cls-8" x="1059.9" y="92.18" width="20.17" height="20.35"/><rect class="cls-8" x="575.91" y="132.98" width="20.17" height="20.35"/><rect class="cls-8" x="596.08" y="112.63" width="20.17" height="20.35"/><rect class="cls-8" x="636.41" y="112.63" width="20.17" height="20.35"/><rect class="cls-8" x="616.25" y="132.98" width="20.17" height="20.35"/><rect class="cls-8" x="656.58" y="132.98" width="20.17" height="20.35"/><rect class="cls-8" x="676.74" y="112.63" width="20.17" height="20.35"/><rect class="cls-8" x="696.91" y="132.98" width="20.17" height="20.35"/><rect class="cls-8" x="717.08" y="112.44" width="20.17" height="20.35"/><rect class="cls-8" x="757.41" y="112.44" width="20.17" height="20.35"/><rect class="cls-8" x="737.24" y="132.79" width="20.17" height="20.35"/><rect class="cls-8" x="777.57" y="132.79" width="20.17" height="20.35"/><rect class="cls-8" x="797.74" y="112.44" width="20.17" height="20.35"/><rect class="cls-8" x="817.91" y="132.79" width="20.17" height="20.35"/><rect class="cls-8" x="838.07" y="112.44" width="20.17" height="20.35"/><rect class="cls-8" x="878.4" y="112.44" width="20.17" height="20.35"/><rect class="cls-8" x="858.24" y="132.79" width="20.17" height="20.35"/><rect class="cls-8" x="898.57" y="132.79" width="20.17" height="20.35"/><rect class="cls-8" x="918.74" y="112.44" width="20.17" height="20.35"/><rect class="cls-8" x="938.9" y="132.79" width="20.17" height="20.35"/><rect class="cls-8" x="959.07" y="112.63" width="20.17" height="20.35"/><rect class="cls-8" x="979.23" y="132.98" width="20.17" height="20.35"/><rect class="cls-8" x="999.4" y="112.63" width="20.17" height="20.35"/><rect class="cls-8" x="1019.57" y="132.98" width="20.17" height="20.35"/><rect class="cls-8" x="1039.73" y="112.53" width="20.17" height="20.35"/><rect class="cls-8" x="1059.9" y="132.89" width="20.17" height="20.35"/><rect class="cls-8" x="575.91" y="173.49" width="20.17" height="20.35"/><rect class="cls-8" x="596.08" y="153.14" width="20.17" height="20.35"/><rect class="cls-8" x="636.41" y="153.14" width="20.17" height="20.35"/><rect class="cls-8" x="616.25" y="173.49" width="20.17" height="20.35"/><rect class="cls-8" x="656.58" y="173.49" width="20.17" height="20.35"/><rect class="cls-8" x="676.74" y="153.14" width="20.17" height="20.35"/><rect class="cls-8" x="696.91" y="173.49" width="20.17" height="20.35"/><rect class="cls-8" x="717.08" y="152.96" width="20.17" height="20.35"/><rect class="cls-8" x="757.41" y="152.96" width="20.17" height="20.35"/><rect class="cls-8" x="737.24" y="173.31" width="20.17" height="20.35"/><rect class="cls-8" x="777.57" y="173.31" width="20.17" height="20.35"/><rect class="cls-8" x="797.74" y="152.96" width="20.17" height="20.35"/><rect class="cls-8" x="817.91" y="173.31" width="20.17" height="20.35"/><rect class="cls-8" x="838.07" y="152.96" width="20.17" height="20.35"/><rect class="cls-8" x="878.4" y="152.96" width="20.17" height="20.35"/><rect class="cls-8" x="858.24" y="173.31" width="20.17" height="20.35"/><rect class="cls-8" x="898.57" y="173.31" width="20.17" height="20.35"/><rect class="cls-8" x="918.74" y="152.96" width="20.17" height="20.35"/><rect class="cls-8" x="938.9" y="173.31" width="20.17" height="20.35"/><rect class="cls-8" x="959.07" y="153.14" width="20.17" height="20.35"/><rect class="cls-8" x="979.23" y="173.49" width="20.17" height="20.35"/><rect class="cls-8" x="999.4" y="153.14" width="20.17" height="20.35"/><rect class="cls-8" x="1019.57" y="173.49" width="20.17" height="20.35"/><rect class="cls-8" x="1039.73" y="153.05" width="20.17" height="20.35"/><rect class="cls-8" x="1059.9" y="173.4" width="20.17" height="20.35"/><rect class="cls-8" x="575.91" y="214.19" width="20.17" height="20.35"/><rect class="cls-8" x="596.08" y="193.84" width="20.17" height="20.35"/><rect class="cls-8" x="636.41" y="193.84" width="20.17" height="20.35"/><rect class="cls-8" x="616.25" y="214.19" width="20.17" height="20.35"/><rect class="cls-8" x="656.58" y="214.19" width="20.17" height="20.35"/><rect class="cls-8" x="676.74" y="193.84" width="20.17" height="20.35"/><rect class="cls-8" x="696.91" y="214.19" width="20.17" height="20.35"/><rect class="cls-8" x="717.08" y="193.66" width="20.17" height="20.35"/><rect class="cls-8" x="757.41" y="193.66" width="20.17" height="20.35"/><rect class="cls-8" x="737.24" y="214.01" width="20.17" height="20.35"/><rect class="cls-8" x="777.57" y="214.01" width="20.17" height="20.35"/><rect class="cls-8" x="797.74" y="193.66" width="20.17" height="20.35"/><rect class="cls-8" x="817.91" y="214.01" width="20.17" height="20.35"/><rect class="cls-8" x="838.07" y="193.66" width="20.17" height="20.35"/><rect class="cls-8" x="878.4" y="193.66" width="20.17" height="20.35"/><rect class="cls-8" x="858.24" y="214.01" width="20.17" height="20.35"/><rect class="cls-8" x="898.57" y="214.01" width="20.17" height="20.35"/><rect class="cls-8" x="918.74" y="193.66" width="20.17" height="20.35"/><rect class="cls-8" x="938.9" y="214.01" width="20.17" height="20.35"/><rect class="cls-8" x="959.07" y="193.84" width="20.17" height="20.35"/><rect class="cls-8" x="979.23" y="214.19" width="20.17" height="20.35"/><rect class="cls-8" x="999.4" y="193.84" width="20.17" height="20.35"/><rect class="cls-8" x="1019.57" y="214.19" width="20.17" height="20.35"/><rect class="cls-8" x="1039.73" y="193.75" width="20.17" height="20.35"/><rect class="cls-8" x="1059.9" y="214.1" width="20.17" height="20.35"/><rect class="cls-8" x="575.91" y="255.03" width="20.17" height="20.35"/><rect class="cls-8" x="596.08" y="234.68" width="20.17" height="20.35"/><rect class="cls-8" x="636.41" y="234.68" width="20.17" height="20.35"/><rect class="cls-8" x="616.25" y="255.03" width="20.17" height="20.35"/><rect class="cls-8" x="656.58" y="255.03" width="20.17" height="20.35"/><rect class="cls-8" x="676.74" y="234.68" width="20.17" height="20.35"/><rect class="cls-8" x="696.91" y="255.03" width="20.17" height="20.35"/><rect class="cls-8" x="717.08" y="234.5" width="20.17" height="20.35"/><rect class="cls-8" x="757.41" y="234.5" width="20.17" height="20.35"/><rect class="cls-8" x="737.24" y="254.85" width="20.17" height="20.35"/><rect class="cls-8" x="777.57" y="254.85" width="20.17" height="20.35"/><rect class="cls-8" x="797.74" y="234.5" width="20.17" height="20.35"/><rect class="cls-8" x="817.91" y="254.85" width="20.17" height="20.35"/><rect class="cls-8" x="838.07" y="234.5" width="20.17" height="20.35"/><rect class="cls-8" x="878.4" y="234.5" width="20.17" height="20.35"/><rect class="cls-8" x="858.24" y="254.85" width="20.17" height="20.35"/><rect class="cls-8" x="898.57" y="254.85" width="20.17" height="20.35"/><rect class="cls-8" x="918.74" y="234.5" width="20.17" height="20.35"/><rect class="cls-8" x="938.9" y="254.85" width="20.17" height="20.35"/><rect class="cls-8" x="959.07" y="234.68" width="20.17" height="20.35"/><rect class="cls-8" x="979.23" y="255.03" width="20.17" height="20.35"/><rect class="cls-8" x="999.4" y="234.68" width="20.17" height="20.35"/><rect class="cls-8" x="1019.57" y="255.03" width="20.17" height="20.35"/><rect class="cls-8" x="1039.73" y="234.59" width="20.17" height="20.35"/><rect class="cls-8" x="1059.9" y="254.94" width="20.17" height="20.35"/><rect class="cls-8" x="575.91" y="295.73" width="20.17" height="20.35"/><rect class="cls-8" x="596.08" y="275.38" width="20.17" height="20.35"/><rect class="cls-8" x="636.41" y="275.38" width="20.17" height="20.35"/><rect class="cls-8" x="616.25" y="295.73" width="20.17" height="20.35"/><rect class="cls-8" x="656.58" y="295.73" width="20.17" height="20.35"/><rect class="cls-8" x="676.74" y="275.38" width="20.17" height="20.35"/><rect class="cls-8" x="696.91" y="295.73" width="20.17" height="20.35"/><rect class="cls-8" x="717.08" y="275.2" width="20.17" height="20.35"/><rect class="cls-8" x="757.41" y="275.2" width="20.17" height="20.35"/><rect class="cls-8" x="737.24" y="295.55" width="20.17" height="20.35"/><rect class="cls-8" x="777.57" y="295.55" width="20.17" height="20.35"/><rect class="cls-8" x="797.74" y="275.2" width="20.17" height="20.35"/><rect class="cls-8" x="817.91" y="295.55" width="20.17" height="20.35"/><rect class="cls-8" x="838.07" y="275.2" width="20.17" height="20.35"/><rect class="cls-8" x="878.4" y="275.2" width="20.17" height="20.35"/><rect class="cls-8" x="858.24" y="295.55" width="20.17" height="20.35"/><rect class="cls-8" x="898.57" y="295.55" width="20.17" height="20.35"/><rect class="cls-8" x="918.74" y="275.2" width="20.17" height="20.35"/><rect class="cls-8" x="938.9" y="295.55" width="20.17" height="20.35"/><rect class="cls-8" x="959.07" y="275.38" width="20.17" height="20.35"/><rect class="cls-8" x="979.23" y="295.73" width="20.17" height="20.35"/><rect class="cls-8" x="999.4" y="275.38" width="20.17" height="20.35"/><rect class="cls-8" x="1019.57" y="295.73" width="20.17" height="20.35"/><rect class="cls-8" x="1039.73" y="275.29" width="20.17" height="20.35"/><rect class="cls-8" x="1059.9" y="295.64" width="20.17" height="20.35"/><rect class="cls-8" x="575.91" y="336.25" width="20.17" height="20.35"/><rect class="cls-8" x="596.08" y="315.9" width="20.17" height="20.35"/><rect class="cls-8" x="636.41" y="315.9" width="20.17" height="20.35"/><rect class="cls-8" x="616.25" y="336.25" width="20.17" height="20.35"/><rect class="cls-8" x="656.58" y="336.25" width="20.17" height="20.35"/><rect class="cls-8" x="676.74" y="315.9" width="20.17" height="20.35"/><rect class="cls-8" x="696.91" y="336.25" width="20.17" height="20.35"/><rect class="cls-8" x="717.08" y="315.71" width="20.17" height="20.35"/><rect class="cls-8" x="757.41" y="315.71" width="20.17" height="20.35"/><rect class="cls-8" x="737.24" y="336.06" width="20.17" height="20.35"/><rect class="cls-8" x="777.57" y="336.06" width="20.17" height="20.35"/><rect class="cls-8" x="797.74" y="315.71" width="20.17" height="20.35"/><rect class="cls-8" x="817.91" y="336.06" width="20.17" height="20.35"/><rect class="cls-8" x="838.07" y="315.71" width="20.17" height="20.35"/><rect class="cls-8" x="878.4" y="315.71" width="20.17" height="20.35"/><rect class="cls-8" x="858.24" y="336.06" width="20.17" height="20.35"/><rect class="cls-8" x="898.57" y="336.06" width="20.17" height="20.35"/><rect class="cls-8" x="918.74" y="315.71" width="20.17" height="20.35"/><rect class="cls-8" x="938.9" y="336.06" width="20.17" height="20.35"/><rect class="cls-8" x="959.07" y="315.9" width="20.17" height="20.35"/><rect class="cls-8" x="979.23" y="336.25" width="20.17" height="20.35"/><rect class="cls-8" x="999.4" y="315.9" width="20.17" height="20.35"/><rect class="cls-8" x="1019.57" y="336.25" width="20.17" height="20.35"/><rect class="cls-8" x="1039.73" y="315.8" width="20.17" height="20.35"/><rect class="cls-8" x="1059.9" y="336.15" width="20.17" height="20.35"/><rect class="cls-8" x="575.91" y="376.95" width="20.17" height="20.35"/><rect class="cls-8" x="596.08" y="356.6" width="20.17" height="20.35"/><rect class="cls-8" x="636.41" y="356.6" width="20.17" height="20.35"/><rect class="cls-8" x="616.25" y="376.95" width="20.17" height="20.35"/><rect class="cls-8" x="656.58" y="376.95" width="20.17" height="20.35"/><rect class="cls-8" x="676.74" y="356.6" width="20.17" height="20.35"/><rect class="cls-8" x="696.91" y="376.95" width="20.17" height="20.35"/><rect class="cls-8" x="717.08" y="356.41" width="20.17" height="20.35"/><rect class="cls-8" x="757.41" y="356.41" width="20.17" height="20.35"/><rect class="cls-8" x="737.24" y="376.76" width="20.17" height="20.35"/><rect class="cls-8" x="777.57" y="376.76" width="20.17" height="20.35"/><rect class="cls-8" x="797.74" y="356.41" width="20.17" height="20.35"/><rect class="cls-8" x="817.91" y="376.76" width="20.17" height="20.35"/><rect class="cls-8" x="838.07" y="356.41" width="20.17" height="20.35"/><rect class="cls-8" x="878.4" y="356.41" width="20.17" height="20.35"/><rect class="cls-8" x="858.24" y="376.76" width="20.17" height="20.35"/><rect class="cls-8" x="898.57" y="376.76" width="20.17" height="20.35"/><rect class="cls-8" x="918.74" y="356.41" width="20.17" height="20.35"/><rect class="cls-8" x="938.9" y="376.76" width="20.17" height="20.35"/><rect class="cls-8" x="959.07" y="356.6" width="20.17" height="20.35"/><rect class="cls-8" x="979.23" y="376.95" width="20.17" height="20.35"/><rect class="cls-8" x="999.4" y="356.6" width="20.17" height="20.35"/><rect class="cls-8" x="1019.57" y="376.95" width="20.17" height="20.35"/><rect class="cls-8" x="1039.73" y="356.5" width="20.17" height="20.35"/><rect class="cls-8" x="1059.9" y="376.85" width="20.17" height="20.35"/><rect class="cls-8" x="575.91" y="417.93" width="20.17" height="20.35"/><rect class="cls-8" x="596.08" y="397.58" width="20.17" height="20.35"/><rect class="cls-8" x="636.41" y="397.58" width="20.17" height="20.35"/><rect class="cls-8" x="616.25" y="417.93" width="20.17" height="20.35"/><rect class="cls-8" x="656.58" y="417.93" width="20.17" height="20.35"/><rect class="cls-8" x="676.74" y="397.58" width="20.17" height="20.35"/><rect class="cls-8" x="696.91" y="417.93" width="20.17" height="20.35"/><rect class="cls-8" x="717.08" y="397.39" width="20.17" height="20.35"/><rect class="cls-8" x="757.41" y="397.39" width="20.17" height="20.35"/><rect class="cls-8" x="737.24" y="417.74" width="20.17" height="20.35"/><rect class="cls-8" x="777.57" y="417.74" width="20.17" height="20.35"/><rect class="cls-8" x="797.74" y="397.39" width="20.17" height="20.35"/><rect class="cls-8" x="817.91" y="417.74" width="20.17" height="20.35"/><rect class="cls-8" x="838.07" y="397.39" width="20.17" height="20.35"/><rect class="cls-8" x="878.4" y="397.39" width="20.17" height="20.35"/><rect class="cls-8" x="858.24" y="417.74" width="20.17" height="20.35"/><rect class="cls-8" x="898.57" y="417.74" width="20.17" height="20.35"/><rect class="cls-8" x="918.74" y="397.39" width="20.17" height="20.35"/><rect class="cls-8" x="938.9" y="417.74" width="20.17" height="20.35"/><rect class="cls-8" x="959.07" y="397.58" width="20.17" height="20.35"/><rect class="cls-8" x="979.23" y="417.93" width="20.17" height="20.35"/><rect class="cls-8" x="999.4" y="397.58" width="20.17" height="20.35"/><rect class="cls-8" x="1019.57" y="417.93" width="20.17" height="20.35"/><rect class="cls-8" x="1039.73" y="397.48" width="20.17" height="20.35"/><rect class="cls-8" x="1059.9" y="417.83" width="20.17" height="20.35"/><rect class="cls-8" x="575.91" y="458.63" width="20.17" height="20.35"/><rect class="cls-8" x="596.08" y="438.28" width="20.17" height="20.35"/><rect class="cls-8" x="636.41" y="438.28" width="20.17" height="20.35"/><rect class="cls-8" x="616.25" y="458.63" width="20.17" height="20.35"/><rect class="cls-8" x="656.58" y="458.63" width="20.17" height="20.35"/><rect class="cls-8" x="676.74" y="438.28" width="20.17" height="20.35"/><rect class="cls-8" x="696.91" y="458.63" width="20.17" height="20.35"/><rect class="cls-8" x="717.08" y="438.09" width="20.17" height="20.35"/><rect class="cls-8" x="757.41" y="438.09" width="20.17" height="20.35"/><rect class="cls-8" x="737.24" y="458.44" width="20.17" height="20.35"/><rect class="cls-8" x="777.57" y="458.44" width="20.17" height="20.35"/><rect class="cls-8" x="797.74" y="438.09" width="20.17" height="20.35"/><rect class="cls-8" x="817.91" y="458.44" width="20.17" height="20.35"/><rect class="cls-8" x="838.07" y="438.09" width="20.17" height="20.35"/><rect class="cls-8" x="878.4" y="438.09" width="20.17" height="20.35"/><rect class="cls-8" x="858.24" y="458.44" width="20.17" height="20.35"/><rect class="cls-8" x="898.57" y="458.44" width="20.17" height="20.35"/><rect class="cls-8" x="918.74" y="438.09" width="20.17" height="20.35"/><rect class="cls-8" x="938.9" y="458.44" width="20.17" height="20.35"/><rect class="cls-8" x="959.07" y="438.28" width="20.17" height="20.35"/><rect class="cls-8" x="979.23" y="458.63" width="20.17" height="20.35"/><rect class="cls-8" x="999.4" y="438.28" width="20.17" height="20.35"/><rect class="cls-8" x="1019.57" y="458.63" width="20.17" height="20.35"/><rect class="cls-8" x="1039.73" y="438.19" width="20.17" height="20.35"/><rect class="cls-8" x="1059.9" y="458.54" width="20.17" height="20.35"/><rect class="cls-8" x="575.91" y="499.14" width="20.17" height="20.35"/><rect class="cls-8" x="596.08" y="478.79" width="20.17" height="20.35"/><rect class="cls-8" x="636.41" y="478.79" width="20.17" height="20.35"/><rect class="cls-8" x="616.25" y="499.14" width="20.17" height="20.35"/><rect class="cls-8" x="656.58" y="499.14" width="20.17" height="20.35"/><rect class="cls-8" x="676.74" y="478.79" width="20.17" height="20.35"/><rect class="cls-8" x="696.91" y="499.14" width="20.17" height="20.35"/><rect class="cls-8" x="717.08" y="478.61" width="20.17" height="20.35"/><rect class="cls-8" x="757.41" y="478.61" width="20.17" height="20.35"/><rect class="cls-8" x="737.24" y="498.96" width="20.17" height="20.35"/><rect class="cls-8" x="777.57" y="498.96" width="20.17" height="20.35"/><rect class="cls-8" x="797.74" y="478.61" width="20.17" height="20.35"/><rect class="cls-8" x="817.91" y="498.96" width="20.17" height="20.35"/><rect class="cls-8" x="838.07" y="478.61" width="20.17" height="20.35"/><rect class="cls-8" x="878.4" y="478.61" width="20.17" height="20.35"/><rect class="cls-8" x="858.24" y="498.96" width="20.17" height="20.35"/><rect class="cls-8" x="898.57" y="498.96" width="20.17" height="20.35"/><rect class="cls-8" x="918.74" y="478.61" width="20.17" height="20.35"/><rect class="cls-8" x="938.9" y="498.96" width="20.17" height="20.35"/><rect class="cls-8" x="959.07" y="478.79" width="20.17" height="20.35"/><rect class="cls-8" x="979.23" y="499.14" width="20.17" height="20.35"/><rect class="cls-8" x="999.4" y="478.79" width="20.17" height="20.35"/><rect class="cls-8" x="1019.57" y="499.14" width="20.17" height="20.35"/><rect class="cls-8" x="1039.73" y="478.7" width="20.17" height="20.35"/><rect class="cls-8" x="1059.9" y="499.05" width="20.17" height="20.35"/><rect class="cls-8" x="253.26" y="51.3" width="20.17" height="20.35"/><rect class="cls-8" x="293.59" y="51.3" width="20.17" height="20.35"/><rect class="cls-8" x="333.92" y="51.3" width="20.17" height="20.35"/><rect class="cls-8" x="374.25" y="51.3" width="20.17" height="20.35"/><rect class="cls-8" x="414.59" y="51.11" width="20.17" height="20.35"/><rect class="cls-8" x="454.92" y="51.11" width="20.17" height="20.35"/><rect class="cls-8" x="495.25" y="51.11" width="20.17" height="20.35"/><rect class="cls-8" x="535.58" y="51.11" width="20.17" height="20.35"/><rect class="cls-8" x="253.26" y="92.28" width="20.17" height="20.35"/><rect class="cls-8" x="273.42" y="71.93" width="20.17" height="20.35"/><rect class="cls-8" x="313.76" y="71.93" width="20.17" height="20.35"/><rect class="cls-8" x="293.59" y="92.28" width="20.17" height="20.35"/><rect class="cls-8" x="333.92" y="92.28" width="20.17" height="20.35"/><rect class="cls-8" x="354.09" y="71.93" width="20.17" height="20.35"/><rect class="cls-8" x="374.25" y="92.28" width="20.17" height="20.35"/><rect class="cls-8" x="394.42" y="71.74" width="20.17" height="20.35"/><rect class="cls-8" x="434.75" y="71.74" width="20.17" height="20.35"/><rect class="cls-8" x="414.59" y="92.09" width="20.17" height="20.35"/><rect class="cls-8" x="454.92" y="92.09" width="20.17" height="20.35"/><rect class="cls-8" x="475.08" y="71.74" width="20.17" height="20.35"/><rect class="cls-8" x="495.25" y="92.09" width="20.17" height="20.35"/><rect class="cls-8" x="515.42" y="71.74" width="20.17" height="20.35"/><rect class="cls-8" x="555.75" y="71.74" width="20.17" height="20.35"/><rect class="cls-8" x="535.58" y="92.09" width="20.17" height="20.35"/><rect class="cls-8" x="253.26" y="132.98" width="20.17" height="20.35"/><rect class="cls-8" x="273.42" y="112.63" width="20.17" height="20.35"/><rect class="cls-8" x="313.76" y="112.63" width="20.17" height="20.35"/><rect class="cls-8" x="293.59" y="132.98" width="20.17" height="20.35"/><rect class="cls-8" x="333.92" y="132.98" width="20.17" height="20.35"/><rect class="cls-8" x="354.09" y="112.63" width="20.17" height="20.35"/><rect class="cls-8" x="374.25" y="132.98" width="20.17" height="20.35"/><rect class="cls-8" x="394.42" y="112.44" width="20.17" height="20.35"/><rect class="cls-8" x="434.75" y="112.44" width="20.17" height="20.35"/><rect class="cls-8" x="414.59" y="132.79" width="20.17" height="20.35"/><rect class="cls-8" x="454.92" y="132.79" width="20.17" height="20.35"/><rect class="cls-8" x="475.08" y="112.44" width="20.17" height="20.35"/><rect class="cls-8" x="495.25" y="132.79" width="20.17" height="20.35"/><rect class="cls-8" x="515.42" y="112.44" width="20.17" height="20.35"/><rect class="cls-8" x="555.75" y="112.44" width="20.17" height="20.35"/><rect class="cls-8" x="535.58" y="132.79" width="20.17" height="20.35"/><rect class="cls-8" x="253.26" y="173.49" width="20.17" height="20.35"/><rect class="cls-8" x="273.42" y="153.14" width="20.17" height="20.35"/><rect class="cls-8" x="313.76" y="153.14" width="20.17" height="20.35"/><rect class="cls-8" x="293.59" y="173.49" width="20.17" height="20.35"/><rect class="cls-8" x="333.92" y="173.49" width="20.17" height="20.35"/><rect class="cls-8" x="354.09" y="153.14" width="20.17" height="20.35"/><rect class="cls-8" x="374.25" y="173.49" width="20.17" height="20.35"/><rect class="cls-8" x="394.42" y="152.96" width="20.17" height="20.35"/><rect class="cls-8" x="434.75" y="152.96" width="20.17" height="20.35"/><rect class="cls-8" x="414.59" y="173.31" width="20.17" height="20.35"/><rect class="cls-8" x="454.92" y="173.31" width="20.17" height="20.35"/><rect class="cls-8" x="475.08" y="152.96" width="20.17" height="20.35"/><rect class="cls-8" x="495.25" y="173.31" width="20.17" height="20.35"/><rect class="cls-8" x="515.42" y="152.96" width="20.17" height="20.35"/><rect class="cls-8" x="555.75" y="152.96" width="20.17" height="20.35"/><rect class="cls-8" x="535.58" y="173.31" width="20.17" height="20.35"/><rect class="cls-8" x="253.26" y="214.19" width="20.17" height="20.35"/><rect class="cls-8" x="273.42" y="193.84" width="20.17" height="20.35"/><rect class="cls-8" x="313.76" y="193.84" width="20.17" height="20.35"/><rect class="cls-8" x="293.59" y="214.19" width="20.17" height="20.35"/><rect class="cls-8" x="333.92" y="214.19" width="20.17" height="20.35"/><rect class="cls-8" x="354.09" y="193.84" width="20.17" height="20.35"/><rect class="cls-8" x="374.25" y="214.19" width="20.17" height="20.35"/><rect class="cls-8" x="394.42" y="193.66" width="20.17" height="20.35"/><rect class="cls-8" x="434.75" y="193.66" width="20.17" height="20.35"/><rect class="cls-8" x="414.59" y="214.01" width="20.17" height="20.35"/><rect class="cls-8" x="454.92" y="214.01" width="20.17" height="20.35"/><rect class="cls-8" x="475.08" y="193.66" width="20.17" height="20.35"/><rect class="cls-8" x="495.25" y="214.01" width="20.17" height="20.35"/><rect class="cls-8" x="515.42" y="193.66" width="20.17" height="20.35"/><rect class="cls-8" x="555.75" y="193.66" width="20.17" height="20.35"/><rect class="cls-8" x="535.58" y="214.01" width="20.17" height="20.35"/><rect class="cls-8" x="253.26" y="255.03" width="20.17" height="20.35"/><rect class="cls-8" x="273.42" y="234.68" width="20.17" height="20.35"/><rect class="cls-8" x="313.76" y="234.68" width="20.17" height="20.35"/><rect class="cls-8" x="293.59" y="255.03" width="20.17" height="20.35"/><rect class="cls-8" x="333.92" y="255.03" width="20.17" height="20.35"/><rect class="cls-8" x="354.09" y="234.68" width="20.17" height="20.35"/><rect class="cls-8" x="374.25" y="255.03" width="20.17" height="20.35"/><rect class="cls-8" x="394.42" y="234.5" width="20.17" height="20.35"/><rect class="cls-8" x="434.75" y="234.5" width="20.17" height="20.35"/><rect class="cls-8" x="414.59" y="254.85" width="20.17" height="20.35"/><rect class="cls-8" x="454.92" y="254.85" width="20.17" height="20.35"/><rect class="cls-8" x="475.08" y="234.5" width="20.17" height="20.35"/><rect class="cls-8" x="495.25" y="254.85" width="20.17" height="20.35"/><rect class="cls-8" x="515.42" y="234.5" width="20.17" height="20.35"/><rect class="cls-8" x="555.75" y="234.5" width="20.17" height="20.35"/><rect class="cls-8" x="535.58" y="254.85" width="20.17" height="20.35"/><rect class="cls-8" x="253.26" y="295.73" width="20.17" height="20.35"/><rect class="cls-8" x="273.42" y="275.38" width="20.17" height="20.35"/><rect class="cls-8" x="313.76" y="275.38" width="20.17" height="20.35"/><rect class="cls-8" x="293.59" y="295.73" width="20.17" height="20.35"/><rect class="cls-8" x="333.92" y="295.73" width="20.17" height="20.35"/><rect class="cls-8" x="354.09" y="275.38" width="20.17" height="20.35"/><rect class="cls-8" x="374.25" y="295.73" width="20.17" height="20.35"/><rect class="cls-8" x="394.42" y="275.2" width="20.17" height="20.35"/><rect class="cls-8" x="434.75" y="275.2" width="20.17" height="20.35"/><rect class="cls-8" x="414.59" y="295.55" width="20.17" height="20.35"/><rect class="cls-8" x="454.92" y="295.55" width="20.17" height="20.35"/><rect class="cls-8" x="475.08" y="275.2" width="20.17" height="20.35"/><rect class="cls-8" x="495.25" y="295.55" width="20.17" height="20.35"/><rect class="cls-8" x="515.42" y="275.2" width="20.17" height="20.35"/><rect class="cls-8" x="555.75" y="275.2" width="20.17" height="20.35"/><rect class="cls-8" x="535.58" y="295.55" width="20.17" height="20.35"/><rect class="cls-8" x="253.26" y="336.25" width="20.17" height="20.35"/><rect class="cls-8" x="273.42" y="315.9" width="20.17" height="20.35"/><rect class="cls-8" x="313.76" y="315.9" width="20.17" height="20.35"/><rect class="cls-8" x="293.59" y="336.25" width="20.17" height="20.35"/><rect class="cls-8" x="333.92" y="336.25" width="20.17" height="20.35"/><rect class="cls-8" x="354.09" y="315.9" width="20.17" height="20.35"/><rect class="cls-8" x="374.25" y="336.25" width="20.17" height="20.35"/><rect class="cls-8" x="394.42" y="315.71" width="20.17" height="20.35"/><rect class="cls-8" x="434.75" y="315.71" width="20.17" height="20.35"/><rect class="cls-8" x="414.59" y="336.06" width="20.17" height="20.35"/><rect class="cls-8" x="454.92" y="336.06" width="20.17" height="20.35"/><rect class="cls-8" x="475.08" y="315.71" width="20.17" height="20.35"/><rect class="cls-8" x="495.25" y="336.06" width="20.17" height="20.35"/><rect class="cls-8" x="515.42" y="315.71" width="20.17" height="20.35"/><rect class="cls-8" x="555.75" y="315.71" width="20.17" height="20.35"/><rect class="cls-8" x="535.58" y="336.06" width="20.17" height="20.35"/><rect class="cls-8" x="253.26" y="376.95" width="20.17" height="20.35"/><rect class="cls-8" x="273.42" y="356.6" width="20.17" height="20.35"/><rect class="cls-8" x="313.76" y="356.6" width="20.17" height="20.35"/><rect class="cls-8" x="293.59" y="376.95" width="20.17" height="20.35"/><rect class="cls-8" x="333.92" y="376.95" width="20.17" height="20.35"/><rect class="cls-8" x="354.09" y="356.6" width="20.17" height="20.35"/><rect class="cls-8" x="374.25" y="376.95" width="20.17" height="20.35"/><rect class="cls-8" x="394.42" y="356.41" width="20.17" height="20.35"/><rect class="cls-8" x="434.75" y="356.41" width="20.17" height="20.35"/><rect class="cls-8" x="414.59" y="376.76" width="20.17" height="20.35"/><rect class="cls-8" x="454.92" y="376.76" width="20.17" height="20.35"/><rect class="cls-8" x="475.08" y="356.41" width="20.17" height="20.35"/><rect class="cls-8" x="495.25" y="376.76" width="20.17" height="20.35"/><rect class="cls-8" x="515.42" y="356.41" width="20.17" height="20.35"/><rect class="cls-8" x="555.75" y="356.41" width="20.17" height="20.35"/><rect class="cls-8" x="535.58" y="376.76" width="20.17" height="20.35"/><rect class="cls-8" x="253.26" y="417.93" width="20.17" height="20.35"/><rect class="cls-8" x="273.42" y="397.58" width="20.17" height="20.35"/><rect class="cls-8" x="313.76" y="397.58" width="20.17" height="20.35"/><rect class="cls-8" x="293.59" y="417.93" width="20.17" height="20.35"/><rect class="cls-8" x="333.92" y="417.93" width="20.17" height="20.35"/><rect class="cls-8" x="354.09" y="397.58" width="20.17" height="20.35"/><rect class="cls-8" x="374.25" y="417.93" width="20.17" height="20.35"/><rect class="cls-8" x="394.42" y="397.39" width="20.17" height="20.35"/><rect class="cls-8" x="434.75" y="397.39" width="20.17" height="20.35"/><rect class="cls-8" x="414.59" y="417.74" width="20.17" height="20.35"/><rect class="cls-8" x="454.92" y="417.74" width="20.17" height="20.35"/><rect class="cls-8" x="475.08" y="397.39" width="20.17" height="20.35"/><rect class="cls-8" x="495.25" y="417.74" width="20.17" height="20.35"/><rect class="cls-8" x="515.42" y="397.39" width="20.17" height="20.35"/><rect class="cls-8" x="555.75" y="397.39" width="20.17" height="20.35"/><rect class="cls-8" x="535.58" y="417.74" width="20.17" height="20.35"/><rect class="cls-8" x="253.26" y="458.63" width="20.17" height="20.35"/><rect class="cls-8" x="273.42" y="438.28" width="20.17" height="20.35"/><rect class="cls-8" x="313.76" y="438.28" width="20.17" height="20.35"/><rect class="cls-8" x="293.59" y="458.63" width="20.17" height="20.35"/><rect class="cls-8" x="333.92" y="458.63" width="20.17" height="20.35"/><rect class="cls-8" x="354.09" y="438.28" width="20.17" height="20.35"/><rect class="cls-8" x="374.25" y="458.63" width="20.17" height="20.35"/><rect class="cls-8" x="394.42" y="438.09" width="20.17" height="20.35"/><rect class="cls-8" x="434.75" y="438.09" width="20.17" height="20.35"/><rect class="cls-8" x="414.59" y="458.44" width="20.17" height="20.35"/><rect class="cls-8" x="454.92" y="458.44" width="20.17" height="20.35"/><rect class="cls-8" x="475.08" y="438.09" width="20.17" height="20.35"/><rect class="cls-8" x="495.25" y="458.44" width="20.17" height="20.35"/><rect class="cls-8" x="515.42" y="438.09" width="20.17" height="20.35"/><rect class="cls-8" x="555.75" y="438.09" width="20.17" height="20.35"/><rect class="cls-8" x="535.58" y="458.44" width="20.17" height="20.35"/><rect class="cls-8" x="253.26" y="499.14" width="20.17" height="20.35"/><rect class="cls-8" x="273.42" y="478.79" width="20.17" height="20.35"/><rect class="cls-8" x="313.76" y="478.79" width="20.17" height="20.35"/><rect class="cls-8" x="293.59" y="499.14" width="20.17" height="20.35"/><rect class="cls-8" x="333.92" y="499.14" width="20.17" height="20.35"/><rect class="cls-8" x="354.09" y="478.79" width="20.17" height="20.35"/><rect class="cls-8" x="374.25" y="499.14" width="20.17" height="20.35"/><rect class="cls-8" x="394.42" y="478.61" width="20.17" height="20.35"/><rect class="cls-8" x="434.75" y="478.61" width="20.17" height="20.35"/><rect class="cls-8" x="414.59" y="498.96" width="20.17" height="20.35"/><rect class="cls-8" x="454.92" y="498.96" width="20.17" height="20.35"/><rect class="cls-8" x="475.08" y="478.61" width="20.17" height="20.35"/><rect class="cls-8" x="495.25" y="498.96" width="20.17" height="20.35"/><rect class="cls-8" x="515.42" y="478.61" width="20.17" height="20.35"/><rect class="cls-8" x="555.75" y="478.61" width="20.17" height="20.35"/><rect class="cls-8" x="535.58" y="498.96" width="20.17" height="20.35"/><path class="cls-9" d="M532.72,725.77c0,1.26,5.06,2.65,26.67,2.89,40.67.46,107.61,0,107.61,0s66.91.46,107.57,0c21.71-.24,26.71-1.65,26.65-2.91v-3c.06,1.26-4.94,2.67-26.65,2.91-40.66.46-107.57,0-107.57,0s-66.94.46-107.61,0c-21.61-.24-26.67-1.63-26.67-2.89Z"/><g class="cls-10"><path class="cls-11" d="M1044.43,549.94h66V43.4a22.26,22.26,0,0,0-22.26-22.27H693.53Z"/></g><g class="cls-12"><polygon class="cls-13" points="1080.81 519.31 1080.81 51.3 712.38 51.3 1024.03 519.31 1080.81 519.31"/></g><rect x="255.37" y="519.49" width="820.15" height="30.45"/><rect x="253.19" y="51.3" width="826.94" height="468.67"/></svg>