<svg id="レイヤー_1" data-name="レイヤー 1" xmlns="http://www.w3.org/2000/svg" viewBox="0 0 566.93 396.85"><defs><style>.cls-1{fill:#fff;}.cls-2{fill:#009fe8;}</style></defs><path class="cls-1" d="M414,23.8l86.84,50.45a14.5,14.5,0,0,1,6.35,11.17v14.69a25.79,25.79,0,0,0,5.5,14.18c-3.84.28-8.76-4-13.19-9.72L414,54.92a14.53,14.53,0,0,1-6.35-11.18V27.35C407.62,23.3,410.48,21.7,414,23.8Z"/><path class="cls-2" d="M417.66,43.6c0,.84,0,2.44,0,2.54,0,.3-.08.31-.41.11l-.89-.51c-.33-.19-.42-.3-.42-.6,0-.1,0-1.65,0-2.48V38.2c0-.7,0-1.64,0-2.4,0-.35.08-.41.4-.23.1.06,1.23.74,1.91,1.13l.8.46c.69.4,2,1.12,2.08,1.17a.59.59,0,0,1,.36.63v.77c0,.33-.06.38-.36.21-.1-.06-1.39-.85-2.08-1.25l-1-.58c-.36-.21-.43-.18-.43.18V40c0,.36.07.47.43.68l.72.41c.67.39,2,1.12,2.08,1.17a.59.59,0,0,1,.36.63v.7c0,.33-.06.38-.36.21l-2.08-1.23-.72-.42c-.36-.2-.43-.17-.43.19Z"/><path class="cls-2" d="M427.46,52.13c-.33-.19-.4-.26-.41-.66,0-.16,0-.26-.12-.31a.31.31,0,0,0-.2,0,4.34,4.34,0,0,1-4.26-3.77c0-1.83,2.17-1.38,4.09-.46.24.13.34.13.36,0a2.15,2.15,0,0,0-.23-.76,2.55,2.55,0,0,0-1.11-1.1,3.6,3.6,0,0,0-1.89-.5.51.51,0,0,1-.29,0c-.1-.06-.15-.18-.24-.43l-.27-.79a.76.76,0,0,1-.07-.31c0-.13.08-.17.28-.15a6.78,6.78,0,0,1,2.68.9,4.78,4.78,0,0,1,2.74,4.45l0,2.15c0,.81,0,1.87,0,2.11s-.09.25-.4.07Zm-.77-3.82-.17-.08c-1.32-.58-2.46-.76-2.46,0a1.7,1.7,0,0,0,1,1.3,2.93,2.93,0,0,0,1.52.41c.29,0,.36-.08.36-.43v-.63C426.93,48.56,426.89,48.43,426.69,48.31Z"/><path class="cls-2" d="M435.66,56.29c0,.13-.1.14-.3.13a5.31,5.31,0,0,1-1.79-.68,6.56,6.56,0,0,1-3.49-5.49c0-2.3,1.4-3.23,3.95-1.75a7.51,7.51,0,0,1,1.43,1.07c.22.19.3.31.32.47a.61.61,0,0,1-.06.22l-.26.55c-.08.18-.13.25-.24.18a1.62,1.62,0,0,1-.29-.25,4.32,4.32,0,0,0-.86-.67c-1.39-.8-2.32-.32-2.32,1.09a4,4,0,0,0,2.05,3.28,2.73,2.73,0,0,0,1.06.38.92.92,0,0,1,.29.08c.11.07.15.18.24.46l.2.62A1.38,1.38,0,0,1,435.66,56.29Z"/><path class="cls-2" d="M442.89,60a1,1,0,0,1,.09.32c0,.13-.09.15-.29.14a5.85,5.85,0,0,1-2.35-.83,6.7,6.7,0,0,1-3.61-5.7c0-2.22,1.4-3.1,3.63-1.81a5.77,5.77,0,0,1,2.89,5.14c0,.73-.11.78-.48.56l-4.06-2.34c-.26-.15-.36-.17-.36,0a3,3,0,0,0,.3,1,4.23,4.23,0,0,0,1.84,1.88,3.61,3.61,0,0,0,1.6.54.69.69,0,0,1,.29.05c.11.07.17.2.27.46Zm-1.19-4.31a2.34,2.34,0,0,0-.2-.79,2.73,2.73,0,0,0-1.2-1.38c-.7-.41-1.23-.41-1.58-.11a.71.71,0,0,0-.26.44c0,.11.1.21.33.34l2.54,1.47C441.59,55.83,441.69,55.84,441.7,55.71Z"/><path class="cls-2" d="M446.53,60l-1.31-.74a.54.54,0,0,1-.34-.61V58c0-.32,0-.39.34-.21l1.31.77,1.22.7L449,60a.54.54,0,0,1,.34.61v.67c0,.33,0,.39-.34.22l-1.23-.72Z"/><path class="cls-2" d="M455,67.53c0,.36-.07.4-.42.26a8.26,8.26,0,0,1-.78-.4,4,4,0,0,1-2.36-3.66v-3.3a.47.47,0,0,0-.28-.52c-.17-.1-.42-.22-.49-.27-.37-.21-.43-.3-.43-.67v-.59c0-.37.06-.4.43-.18l.5.3c.25.14.27.12.27-.19s0-1.27,0-1.37c0-.3.08-.31.41-.12l.79.45c.33.19.42.3.42.6,0,.1,0,.84,0,1.35,0,.3,0,.37.33.53l.38.22.85.48c.37.21.43.3.43.66v.62c0,.36-.06.38-.43.17l-.85-.51-.28-.16c-.36-.21-.43-.18-.43.18v3a1.8,1.8,0,0,0,1.09,1.72c.27.16.6.26.7.32s.2.22.2.49Z"/><path class="cls-2" d="M463.4,69.05c0,2.41-1.53,3-3.8,1.72a6.92,6.92,0,0,1-3.54-5.63c0-2.3,1.42-3.12,3.8-1.74A7,7,0,0,1,463.4,69.05Zm-5.68-2.93a3.94,3.94,0,0,0,1.92,3.28c1.24.72,2.1.25,2.1-1.18a4,4,0,0,0-1.95-3.32C458.44,64.12,457.72,64.74,457.72,66.12Z"/><path class="cls-2" d="M466.74,71.71l-1.3-.74a.55.55,0,0,1-.35-.61v-.68c0-.32.05-.38.35-.21l1.3.77,1.22.7,1.23.7a.54.54,0,0,1,.35.61v.67c0,.33,0,.4-.35.22L468,72.42Z"/><path class="cls-2" d="M473.2,76.24c0,.63,0,1.85,0,2,0,.31-.09.31-.42.12l-.78-.45c-.33-.19-.42-.3-.42-.6,0-.1,0-1.29,0-1.92V72.06a.5.5,0,0,0-.29-.5l-.57-.31a.56.56,0,0,1-.32-.61v-.59c0-.33.05-.41.32-.25l.57.35c.22.12.29.09.29-.25v-.23c0-1.58.87-2.15,2.75-1.06a4,4,0,0,1,.39.23c.29.2.34.3.34.59v.82c0,.23,0,.3-.18.2s-.32-.22-.53-.35c-.91-.52-1.21-.07-1.21.64a.63.63,0,0,0,.43.72l.22.13c.25.15.7.39.84.47.38.22.43.31.43.66v.62c0,.36-.05.38-.43.17l-.84-.5-.22-.13c-.36-.21-.43-.17-.43.18Z"/><path class="cls-2" d="M481,83c-.33-.19-.4-.26-.42-.65,0-.17,0-.26-.11-.31a.3.3,0,0,0-.2,0,3.8,3.8,0,0,1-2.11-.57A3.9,3.9,0,0,1,476,78.27c0-1.83,2.16-1.39,4.08-.46.25.12.35.12.36,0a2,2,0,0,0-.23-.77,2.62,2.62,0,0,0-1.1-1.09,3.64,3.64,0,0,0-1.89-.51.43.43,0,0,1-.29,0c-.1,0-.16-.17-.24-.42l-.28-.79a1,1,0,0,1-.07-.31c0-.13.09-.17.29-.15a6.68,6.68,0,0,1,2.68.9A4.78,4.78,0,0,1,482,79.06l0,2.15c0,.81,0,1.86,0,2.11s-.08.25-.4.07Zm-.78-3.81a.67.67,0,0,0-.17-.08c-1.32-.58-2.45-.76-2.45,0a1.7,1.7,0,0,0,1,1.3,2.89,2.89,0,0,0,1.52.4c.29,0,.36-.08.36-.42v-.63C480.43,79.44,480.38,79.32,480.18,79.2Z"/><path class="cls-2" d="M489.16,87.18c0,.12-.1.14-.3.12a5.1,5.1,0,0,1-1.8-.67,6.58,6.58,0,0,1-3.48-5.5c0-2.29,1.39-3.22,3.94-1.75A8.41,8.41,0,0,1,489,80.45c.21.2.3.32.31.47a.46.46,0,0,1-.06.23l-.25.55c-.09.18-.13.24-.25.18a1.86,1.86,0,0,1-.28-.26,4.57,4.57,0,0,0-.86-.66c-1.39-.81-2.33-.33-2.33,1.09a4,4,0,0,0,2.05,3.28,3,3,0,0,0,1.06.38.85.85,0,0,1,.29.08c.12.06.16.17.25.45l.2.62A1.34,1.34,0,0,1,489.16,87.18Z"/><path class="cls-2" d="M496.39,90.91a.92.92,0,0,1,.09.32c0,.13-.09.15-.29.13a5.76,5.76,0,0,1-2.35-.82,6.72,6.72,0,0,1-3.61-5.7c0-2.22,1.4-3.1,3.62-1.82a5.77,5.77,0,0,1,2.9,5.14c0,.73-.12.78-.49.57l-4.06-2.35c-.25-.15-.35-.16-.35,0a3.09,3.09,0,0,0,.3,1A4.24,4.24,0,0,0,494,89.24a3.68,3.68,0,0,0,1.61.54.58.58,0,0,1,.28.06c.12.06.18.2.28.45Zm-1.19-4.32a2.86,2.86,0,0,0-1.4-2.17c-.71-.4-1.24-.41-1.58-.11a.71.71,0,0,0-.26.44c0,.12.1.22.33.35l2.54,1.47C495.09,86.71,495.19,86.73,495.2,86.59Z"/></svg>