<svg id="レイヤー_1" data-name="レイヤー 1" xmlns="http://www.w3.org/2000/svg" viewBox="0 0 283.46 283.46"><defs><style>.cls-1{fill:#1e95d4;}.cls-2{fill:#fff;}</style></defs><path class="cls-1" d="M229.11,6.85,175.94,37.8a16,16,0,0,0-7.18,12.48V66.9c-.5,5.82-2.68,11.84-6.23,15.9,4.34.42,9.92-4.29,14.93-10.65l51.65-30.08a16,16,0,0,0,7.18-12.48V11C236.29,6.45,233.06,4.56,229.11,6.85Z"/><path class="cls-2" d="M184.72,51.93c0,2-1.5,4-3.88,5.42a7.29,7.29,0,0,1-3.25,1.07c-.2,0-.29,0-.29-.17a1.22,1.22,0,0,1,.09-.36l.39-1c.09-.26.15-.4.26-.46a.4.4,0,0,1,.29,0,4.67,4.67,0,0,0,2.65-.72,3.35,3.35,0,0,0,1.92-2.52c0-.89-1-.8-2.28-.59-1.5.25-3.09.41-3.09-1.44s1.53-3.9,3.88-5.26a7.67,7.67,0,0,1,2.67-1c.21,0,.32,0,.32.14a1.22,1.22,0,0,1-.08.34L184,46.48c-.1.27-.16.41-.25.47a.5.5,0,0,1-.31,0,4.65,4.65,0,0,0-2.2.67c-1.24.72-1.84,1.6-1.84,2.33s.81.74,2.09.54C183.08,50.27,184.72,50.08,184.72,51.93Z"/><path class="cls-2" d="M191.41,51.14c-.35.2-.43.22-.45-.19,0-.16,0-.25-.12-.19s-.11.09-.22.23a8.67,8.67,0,0,1-2.27,2c-1.33.77-2.32.64-2.32-.76,0-2,2.33-4.2,4.41-5.6.26-.17.37-.29.38-.47a.79.79,0,0,0-.24-.54c-.22-.2-.61-.14-1.2.2a8.41,8.41,0,0,0-2,1.81A1.57,1.57,0,0,1,187,48c-.11.06-.17,0-.26-.16l-.29-.51a.37.37,0,0,1-.08-.25c0-.14.09-.29.31-.52a13.28,13.28,0,0,1,2.89-2.37c2-1.14,3-.79,3,1.39l-.05,2.38c0,.89,0,2,0,2.24s-.09.38-.43.58ZM190.58,48l-.19.13c-1.42,1-2.65,2.24-2.65,3,0,.51.42.55,1.07.17a6.46,6.46,0,0,0,1.64-1.46,1.16,1.16,0,0,0,.39-.9v-.68C190.84,47.94,190.79,47.86,190.58,48Z"/><path class="cls-2" d="M196.74,45.58c0,.68,0,2,0,2.07,0,.33-.09.45-.44.65l-.86.49c-.35.21-.44.2-.44-.13,0-.1,0-1.42,0-2.1V43c0-.27-.1-.3-.31-.17l-.62.37c-.3.17-.34.09-.34-.27v-.63c0-.36,0-.49.34-.66s.45-.25.62-.34.31-.26.31-.63v-.25a5.33,5.33,0,0,1,3-4.58,4.23,4.23,0,0,1,.42-.22c.3-.15.37-.11.37.2v.88c0,.25,0,.36-.2.46s-.35.15-.58.28a2.47,2.47,0,0,0-1.3,2.19c0,.45.08.47.47.24l.23-.13.91-.54c.4-.23.47-.21.47.18v.66c0,.39-.07.49-.47.72l-.91.51-.23.14c-.39.22-.47.34-.47.73Z"/><path class="cls-2" d="M206.3,41.45a.4.4,0,0,1,.09.24c0,.13-.09.27-.31.5a11.22,11.22,0,0,1-2.54,2c-2.75,1.59-3.9.44-3.9-1.65a7.91,7.91,0,0,1,3.92-6.49c2-1.14,3.12-.44,3.12,1.95,0,.78-.12,1-.52,1.21l-4.38,2.53c-.28.16-.39.27-.39.45a1.1,1.1,0,0,0,.33.68c.35.36,1,.32,2-.26a7.13,7.13,0,0,0,1.73-1.42,2.51,2.51,0,0,1,.31-.3c.12-.07.19,0,.29.16ZM205,38.27a1.09,1.09,0,0,0-.21-.6c-.25-.34-.68-.35-1.3,0a4.36,4.36,0,0,0-1.71,1.85,2.72,2.72,0,0,0-.27.79c0,.13.1.11.35,0l2.74-1.58C204.89,38.54,205,38.44,205,38.27Z"/><path class="cls-2" d="M212.79,38.25c0,.39-.08.53-.45.8a9.59,9.59,0,0,1-.85.56c-1.89,1.09-2.54.53-2.54-1V35c0-.31,0-.36-.31-.2l-.52.31c-.41.24-.47.21-.47-.19V34.3c0-.4.06-.5.47-.73l.54-.3c.26-.15.29-.21.29-.54s0-1.34,0-1.45c0-.32.09-.44.45-.64l.85-.5c.36-.2.45-.19.45.13,0,.11,0,.95,0,1.49,0,.32,0,.34.35.17l.42-.25.92-.54c.4-.23.46-.2.46.18V32c0,.38-.06.48-.46.71-.14.08-.64.35-.92.52l-.31.17c-.38.23-.46.35-.46.74v3.23c0,.88.37,1,1.17.5.3-.17.65-.47.76-.53s.22,0,.22.27Z"/><path class="cls-2" d="M218.54,36.14c-.23.71-.46,1.43-.74,2.32a1.07,1.07,0,0,1-.62.79l-1,.56c-.24.14-.34.16-.34,0a1,1,0,0,1,.08-.31c.36-1,.62-1.73.82-2.31l.19-.56a1.53,1.53,0,0,0,.12-.5.62.62,0,0,0-.12-.36l-2-3.69c-.29-.51-.54-1-.9-1.56a.52.52,0,0,1-.07-.21c0-.13.1-.22.35-.37l1.07-.61c.4-.23.48-.22.62.07.28.62.51,1.12.76,1.61l1.11,2.22c.06.12.11.18.17.15s.11-.14.17-.35l1.11-3.49c.25-.78.48-1.54.76-2.49a1.07,1.07,0,0,1,.62-.8l1-.56c.24-.14.35-.17.35-.05A1.51,1.51,0,0,1,222,26c-.38,1-.64,1.82-.89,2.57Z"/><path class="cls-2" d="M225.57,30.34a2.3,2.3,0,0,1-1.18,1.85c-.6.35-1,.21-1-.4a2.29,2.29,0,0,1,1.16-1.89C225.1,29.55,225.57,29.73,225.57,30.34Zm-1.37-1.43c-.38.22-.46.19-.48-.19l-.1-3.76c0-1-.11-2.67-.11-3s.09-.38.43-.58l1-.58c.34-.2.43-.19.43.08s-.08,2.07-.11,3.22l-.09,3.76c0,.4-.09.52-.48.74Z"/></svg>