<svg id="レイヤー_1" data-name="レイヤー 1" xmlns="http://www.w3.org/2000/svg" xmlns:xlink="http://www.w3.org/1999/xlink" viewBox="0 0 566.93 566.93"><defs><style>.cls-1{fill:none;}.cls-2{fill:#54bec6;}.cls-3{fill:#35a7aa;}.cls-4{fill:#6bd8db;}.cls-5{fill:#f9dd89;}.cls-6{fill:#4c3948;}.cls-7{fill:#674747;}.cls-8{fill:#352222;}.cls-9{fill:#513939;}.cls-10{fill:#fff;}.cls-11{fill:#dbb4b4;}.cls-12{fill:#efd3d3;}.cls-13{fill:#ffc4b2;}.cls-14{fill:#3d2929;}.cls-15{clip-path:url(#clip-path);}.cls-16{fill:#ced4f1;}.cls-17{fill:#271e2c;}.cls-18{fill:#f3a984;}.cls-19{fill:#ffc7ad;}.cls-20{fill:#3e3544;}.cls-21{fill:#f4f5fa;}.cls-22{fill:#1499fc;}.cls-23{fill:#f0f0f5;}.cls-24{fill:#453c4c;}.cls-25{fill:#009fe8;}</style><clipPath id="clip-path"><path class="cls-1" d="M478.29,128c.23.45.48.89.74,1.34l.11.2a39.23,39.23,0,0,0,2.94,4.34c.56.73,1.15,1.43,1.75,2.09l.08.09c.22.24.44.48.67.71a30.29,30.29,0,0,0,4.34,3.75,18,18,0,0,0,7.44,3.24,10.92,10.92,0,0,0,2,.13,8.34,8.34,0,0,0,3.94-1.09,8.6,8.6,0,0,0,1.89-1.51c4.47-4.84,3.84-15.48-1.89-25.41C495.9,104.73,485.46,98.7,479,102.42,472.84,106,472.6,117.24,478.29,128Z"/></clipPath></defs><polygon class="cls-2" points="534.49 259.45 429.13 198.16 429.13 30.86 534.49 92.15 534.49 259.45"/><polygon class="cls-3" points="538.58 257.23 534.49 259.45 534.49 92.15 538.58 89.93 538.58 257.23"/><polygon class="cls-4" points="538.58 89.93 534.49 92.15 428.69 30.61 432.72 28.35 538.58 89.93"/><path class="cls-5" d="M446.41,51.81a3.95,3.95,0,1,1-5.06,2.37A3.95,3.95,0,0,1,446.41,51.81Z"/><polygon class="cls-6" points="465.02 46.72 445.07 58.24 439.86 55.22 459.81 43.7 465.02 46.72"/><polygon class="cls-7" points="465.02 44.91 445.07 56.43 439.86 53.42 459.81 41.9 465.02 44.91"/><polygon class="cls-8" points="465.02 46.72 445.07 58.24 445.07 56.43 465.02 44.91 465.02 46.72"/><polygon class="cls-9" points="445.07 58.24 439.86 55.22 439.86 53.42 445.07 56.43 445.07 58.24"/><path class="cls-5" d="M498.15,82.32a4,4,0,1,1-5.06,2.38A4,4,0,0,1,498.15,82.32Z"/><polygon class="cls-6" points="516.76 77.23 496.8 88.75 491.59 85.74 511.54 74.22 516.76 77.23"/><polygon class="cls-7" points="516.76 75.42 496.8 86.94 491.59 83.93 511.54 72.41 516.76 75.42"/><polygon class="cls-8" points="516.76 77.23 496.8 88.75 496.8 86.94 516.76 75.42 516.76 77.23"/><polygon class="cls-9" points="496.8 88.75 491.59 85.74 491.59 83.93 496.8 86.94 496.8 88.75"/><polygon class="cls-9" points="514.33 166.3 435.22 120.57 435.22 63.04 514.33 108.99 514.33 166.3"/><path class="cls-10" d="M495.11,105.69c-.46,2,.79,3.24,2.35,4.1-2.08.95-3.38,2.56-2.31,5.27s3.57,4.34,6.05,3.7c-.14,3.46,1.69,7.24,5.07,8.49a4.84,4.84,0,0,0,5.09-1v33.44L453.2,126.11c2.84-5.11.24-13.78-5.64-13.89a3.83,3.83,0,0,0-4-5.21,5.76,5.76,0,0,0-5.49-7.17V67l62.27,36.17C498.17,102.71,495.7,103.1,495.11,105.69Z"/><path class="cls-2" d="M443.57,107a3.83,3.83,0,0,1,4,5.21c5.88.11,8.48,8.78,5.64,13.89l-15.12-8.74V99.84A5.76,5.76,0,0,1,443.57,107Z"/><path class="cls-2" d="M497.46,109.79c-1.56-.86-2.81-2.1-2.35-4.1.59-2.59,3.06-3,5.24-2.52l11,6.39v16.73a4.84,4.84,0,0,1-5.09,1c-3.38-1.25-5.21-5-5.07-8.49-2.48.64-5-1.13-6.05-3.7S495.38,110.74,497.46,109.79Z"/><polygon class="cls-8" points="516.67 165.1 514.33 166.3 514.33 108.99 516.67 107.78 516.67 165.1"/><polygon class="cls-7" points="516.67 107.78 514.33 108.99 435.22 63.04 437.56 61.84 516.67 107.78"/><polygon class="cls-10" points="473.5 141.82 465.18 137.02 465.18 135.51 473.5 140.32 473.5 141.82"/><path class="cls-2" d="M490.71,138.46a3.08,3.08,0,0,1,.88-4.1,2.85,2.85,0,0,1,4.41,1.18c1.92-1.29,4.32-1.72,6.31,0a3.66,3.66,0,0,1,.85,4.68,3.91,3.91,0,0,1,1.4,6.39c-2.21,2.38-7,1.89-8.63-.83-3,1.28-6.69.29-7.83-3.13C487.29,140.19,488.74,138.84,490.71,138.46Z"/><path class="cls-2" d="M444.62,85.18c-1-.9-1.69-2.36-.44-3.53s2.3.11,2.71,1.47A3.15,3.15,0,0,1,450,82c1.62.46,1.84,2.24,1.6,3.83s-1.12,3.43-2.75,3.76a2.55,2.55,0,0,1-2.77-1.29c-1.1.89-2.83,1.66-3.5-.16C442,86.66,443.38,85.66,444.62,85.18Z"/><path class="cls-11" d="M477.52,105.39c8.26,4.17,11.08,8.27,11.08,8.27s-13.8-4.06-18.4-4.83-6.49-6-6.49-6S469.25,101.22,477.52,105.39Z"/><path class="cls-12" d="M498.57,124.55l-11.06,4.77L483.45,125a17.92,17.92,0,0,1,7.58-1.78C496.71,123.11,498.57,124.55,498.57,124.55Z"/><path class="cls-11" d="M467.36,112.73c-1.34,2.85-1.25,18.33-1.25,18.33s-4.11-3.12-5.68-11.17c-1.39-7.18.46-16,.46-16S468.69,109.87,467.36,112.73Z"/><path class="cls-11" d="M457.75,101.22c2.9,3.2,19.37,21.61,25.82,27.58a14,14,0,0,1-5.53-3.4c-3.22-3.2-20.21-21.59-23.41-26.64-1.46-2.31-1.56-3.83-1-4.55A18.11,18.11,0,0,0,457.75,101.22Z"/><path class="cls-12" d="M457.66,95.18c2.94,2.81,24,24.3,24,24.3,7,7.54,7,10,5.37,10a11.73,11.73,0,0,1-3.46-.63c-6.45-6-22.92-24.38-25.82-27.58a18.11,18.11,0,0,1-4.09-7C454.37,93.35,456.07,93.64,457.66,95.18Z"/><polygon class="cls-7" points="487.23 173.56 469.44 183.84 439.22 166.39 457.01 156.12 487.23 173.56"/><polygon class="cls-10" points="472.91 179.04 469.11 181.24 462.65 177.51 466.45 175.32 472.91 179.04"/><polygon class="cls-8" points="487.23 176.11 469.44 186.38 469.44 183.84 487.23 173.56 487.23 176.11"/><polygon class="cls-9" points="469.44 186.38 439.22 168.93 439.22 166.39 469.44 183.84 469.44 186.38"/><path class="cls-10" d="M462.35,167.81c3,0,5.36,1.35,5.36,3s-2.4,3-5.36,3-5.36-1.35-5.36-3S459.39,167.81,462.35,167.81Z"/><path class="cls-10" d="M462.35,165.29a5.37,5.37,0,0,1,5.36,5.27H457A5.37,5.37,0,0,1,462.35,165.29Z"/><polygon class="cls-11" points="457.87 142.48 456.17 141.72 457.33 141.04 457.87 142.48"/><path class="cls-11" d="M458,141.09l11.52,6.66a2.55,2.55,0,0,1,1.07,2v21.08c0,.78-.48,1.14-1.07.8L458,165a2.57,2.57,0,0,1-1.07-2V141.9C457,141.12,457.45,140.75,458,141.09Z"/><polygon class="cls-11" points="470.23 171.74 469.1 172.41 469.4 170.93 470.23 171.74"/><path class="cls-10" d="M456.89,141.76l11.52,6.66a2.55,2.55,0,0,1,1.07,2v21.08c0,.78-.48,1.14-1.07.8l-11.52-6.65a2.57,2.57,0,0,1-1.07-2V142.57C455.82,141.79,456.3,141.42,456.89,141.76Z"/><path class="cls-12" d="M457.08,142.18l11.22,6.5a2.81,2.81,0,0,1,.94,2.2v20.44c0,.74-.28,1-.84.67l-11.32-6.54a2.44,2.44,0,0,1-1-1.94l0-20.6C456,142.17,456.52,141.86,457.08,142.18Z"/><path class="cls-10" d="M461.38,166.68l1.61.92a.66.66,0,0,1,.34.54c0,.18-.18.24-.38.13l-1.61-.92a.67.67,0,0,1-.33-.54C461,166.63,461.19,166.57,461.38,166.68Z"/><path class="cls-10" d="M468.47,165.19a1.44,1.44,0,0,0-.57.2,1.63,1.63,0,0,0-1.33-.85c-.83,0-.77.45-.54.93-.61-.1-1.28-.08-1.47.61s.4,1.2.94,1.6a1.38,1.38,0,0,0-.19.43l-5.89-3.42a2,2,0,0,0,.63-.8,2,2,0,0,0-1.13-2.41,2.21,2.21,0,0,0-2.09,0v-18l11.64,6.75Z"/><path class="cls-2" d="M466,165.47c-.23-.48-.29-1,.54-.93a1.63,1.63,0,0,1,1.33.85,1.44,1.44,0,0,1,.57-.2v4.75l-3.16-1.83a1.38,1.38,0,0,1,.19-.43c-.54-.4-1.11-1-.94-1.6S465.42,165.37,466,165.47Z"/><path class="cls-2" d="M458.92,161.48a2,2,0,0,1,1.13,2.41,2,2,0,0,1-.63.8l-2.59-1.51v-1.73A2.21,2.21,0,0,1,458.92,161.48Z"/><path class="cls-2" d="M461.51,158.63c-.53-.77-.9-1.75,0-2.08s1.64.75,1.69,1.59a2.7,2.7,0,0,1,3.35.77,1.56,1.56,0,0,1-1,2.38.93.93,0,0,1,0,1,2.41,2.41,0,0,1-1.95.84,1.85,1.85,0,0,1-1.83-2.28c-.88-.11-2.1-.5-1.74-1.49A1.34,1.34,0,0,1,461.51,158.63Z"/><path class="cls-2" d="M458.89,151.88c-.41-.31-.71-.73-.43-1.27s.75-.47,1.16-.22c.25-.62,1.29-.71,1.91-.36a1.66,1.66,0,0,1,.84,2.07c1.1.4,2.54,1.26,1.68,2.16s-2.82,1.14-3.36.14c-1,.39-2.29.44-2.84-.56a1.32,1.32,0,0,1,.13-1.41A1.37,1.37,0,0,1,458.89,151.88Z"/><path class="cls-2" d="M466.1,151.77c-.34.31-1.12-.28-1.27-.82C464.53,149.83,467.19,150.81,466.1,151.77Z"/><path class="cls-2" d="M466.89,153.39c.78.27-.14,1.46-.87,1.32S465.85,153,466.89,153.39Z"/><path class="cls-2" d="M459,156.17c.78.27-.13,1.46-.87,1.32S457.92,155.81,459,156.17Z"/><path class="cls-13" d="M404.53,156.32a47.06,47.06,0,0,0-3.23,9.78c-.66,4.18.3,6.17,2,8.15s7.58-.67,7.8-.81L414,171.3a39.92,39.92,0,0,0-.59-15.19Z"/><path class="cls-14" d="M423.52,252.24c-3.39.15-8.82,2.42-8.82,2.42L408.84,256c-.08,0-2.42,5,.58,6.89,2.2,1.4,3.17,1.33,5.91.21,3-1.25,5.36-1.94,9.08-5S426.91,252.1,423.52,252.24Z"/><path class="cls-14" d="M432.61,263.22c-2.89-1.11-3.72,1.72-5.24-1.3a29.33,29.33,0,0,1-2.14-5.67L417.17,253s-2.37,3.19-1.34,4.76,3.09,9.38,4.22,10.39,7.63,2.81,10.19,1S435.51,264.33,432.61,263.22Z"/><path class="cls-14" d="M418.87,184.13c-2.51.05-10.92-.42-12.17.59-5.46,4.4.36,27.16.57,36.7.24,10.38,1.74,31.54,1.48,34.39,1.46,1.64,9.17,2.29,12-2.28,0-.42-.22-17.91-.29-24.34C420.4,224.74,418.91,196.71,418.87,184.13Z"/><path class="cls-9" d="M429.11,185.67a79.39,79.39,0,0,0-14.76-2.4c0,5.12-1.05,13.4,1.22,21,2.56,8.6,8.53,16.41,9.64,18-1,3.4-10,26.92-10.51,32.3,1.48,0,4.69,1,7.91,1.78a11.35,11.35,0,0,1,4.95,3.15s5.44-17.7,10.06-31.53c1.49-4.47,1.59-6.21.31-12.14C435.11,202.9,429.11,185.67,429.11,185.67Z"/><path class="cls-3" d="M407.28,148.79c-1.25,1.49-3.55,6-5.55,10.16,1.54,2.68,5.73,6.32,10.87,6.15a43.47,43.47,0,0,0-1-7.53l3.18-10.11S410.29,145.2,407.28,148.79Z"/><path class="cls-13" d="M421.47,127.64c-2.38-1.65-7-1.13-8.94,3.07-1.1,2.32.45,8.57.7,13a10.78,10.78,0,0,1-1,5.58l3,1.25a9.17,9.17,0,0,0,6.2,0l-.1-5.4s3.27-.48,3.84-1c1.38-1.26,2.11-5,1.47-9.86C425.73,127,422.35,128.25,421.47,127.64Z"/><path class="cls-2" d="M429.66,166.38c1.79-3.83-2.27-10.77-3.41-13.26s-4.78-4-4.78-4l-11.07-1.64s-4.83,8.42-5.48,13.44c-.45,3.52-.09,10,.1,19a35.42,35.42,0,0,1-1.75,12.59c3.88,4,13.7,6.6,18.66,5.27a21.58,21.58,0,0,0,9.39-5.8C430.4,187.53,426,174.19,429.66,166.38Z"/><path class="cls-3" d="M421.42,147.57s-4.42,1.3-7-.73c-3.69-2.88-4.1,1.17-4.1,1.17a9.69,9.69,0,0,0,4.65,3.15,11.15,11.15,0,0,0,8.9-.7C423.86,148.46,421.42,147.57,421.42,147.57Z"/><path class="cls-14" d="M414.05,124.69c-2.25,1.31-7,3.69-5.37,11.45,1.36,6.27,2.67,7,4.56,8.45a10.82,10.82,0,0,0,4.58,1.61,5.44,5.44,0,0,0,1.92-3.55c.09-.75,0-3,0-3s-1.66-3.28-.38-4.45,2.77.73,3.09,1.53c1.12,2.81,2.24,4.13,2-.57.37-1.21,1.19-4,1.4-5.15a5.52,5.52,0,0,0-1.48-5.13C422.53,124,416.31,123.39,414.05,124.69Z"/><path class="cls-13" d="M429.72,163.29l-7.11,4.94s2.1,5.6,3.32,8.16c1.75,3.64,3.62,4.85,5.39,5.18.19,0,1.49,0,1.68,0,1.55-2.68.23-7.26-1.68-13.11Z"/><path class="cls-3" d="M425.34,151.05c-1.88-.62-5.25,5.9-4.68,10.52.16,1.31.95,4.94,1.93,9.19,4,.84,8.2-.38,10.41-3.39C431.39,160.11,428.84,152.21,425.34,151.05Z"/><path class="cls-13" d="M432.56,172.44s-7.07,2.65-6.63,3.95c1.8,5.2,10.81,14.08,10.81,14.08s0,1.75.24,4.14,4,2.24,4,2.24.78,3.08,1.67,4,1.76-3.19-.68-9C439.06,184.9,432.56,172.44,432.56,172.44Z"/><polygon class="cls-10" points="500.35 103.17 438.08 67 438.08 99.84 438.08 117.37 453.2 126.11 511.36 159.73 511.36 126.3 511.36 109.56 500.35 103.17"/><g class="cls-15"><path class="cls-16" d="M478.29,128c.23.45.48.89.74,1.34l.11.2a39.23,39.23,0,0,0,2.94,4.34c.56.73,1.15,1.43,1.75,2.09l.08.09c.22.24.44.48.67.71a30.29,30.29,0,0,0,4.34,3.75,18,18,0,0,0,7.44,3.24,10.92,10.92,0,0,0,2,.13,8.34,8.34,0,0,0,3.94-1.09,8.6,8.6,0,0,0,1.89-1.51c4.47-4.84,3.84-15.48-1.89-25.41C495.9,104.73,485.46,98.7,479,102.42,472.84,106,472.6,117.24,478.29,128Z"/><path class="cls-17" d="M472.21,192.07l.68,4.48a.52.52,0,0,0,.68-.08v-5.39Z"/><path class="cls-17" d="M467.11,201.13a1.61,1.61,0,0,0,.32.57,2.16,2.16,0,0,0,1.3.75,2.19,2.19,0,0,0,1-.14,2.26,2.26,0,0,0,1.29-1.12,6,6,0,0,0,.84-1.93c.06-.32.57-3,.75-3.45a18.23,18.23,0,0,0,1-5.07,1.16,1.16,0,0,0-.41-.81,2.13,2.13,0,0,0-.89-.38,3.37,3.37,0,0,0-.95,0,1.4,1.4,0,0,0-.53.11c-.46.24-.86-.38-1.19,0a10.66,10.66,0,0,0-1,2.4c-.16.43-.83,3.29-1.06,4.29-.17.73-.36,1.46-.46,2.2A5.55,5.55,0,0,0,467.11,201.13Z"/><path class="cls-17" d="M466.29,194.08l.13-5.21L465,188.7l.25,5.4A.76.76,0,0,0,466.29,194.08Z"/><path class="cls-17" d="M456.41,195.77a3.66,3.66,0,0,0-.5,1.49.58.58,0,0,0,.27.52,3.07,3.07,0,0,0,1.48.52,5,5,0,0,0,1.59-.1,8.62,8.62,0,0,0,2.38-1,2.65,2.65,0,0,0,1.06-1.09,5.13,5.13,0,0,0,.39-1.54,3.7,3.7,0,0,1,1.25-2.61c.22-.16.48-.26.71-.41a3.39,3.39,0,0,0,.55-5c-.66-.79-1.38-.63-2.19-.16a8.33,8.33,0,0,0-2.1,2.36,3.27,3.27,0,0,1-.3.35c-.73.77,0-3.06-.38-2C459.62,190.14,456.68,195.17,456.41,195.77Z"/><path class="cls-18" d="M459,167.06a56.36,56.36,0,0,1,1.52,8.6c.25,1.91.72,11.18-1.12,15.3-.42.94,2.71-2,3.56-2.53.59-.4,1.74-1.34,1.72-2.06-.1-4,1.53-10.75,2-14.75a27.12,27.12,0,0,0-1-9.93Z"/><path class="cls-18" d="M460.07,189.24a6.39,6.39,0,0,1-.37,1c-.13.31-2.29,3.64-1.38,4.1.52.26,1.6-.29,1.9-.6a26.24,26.24,0,0,0,1.62-2.25,6.58,6.58,0,0,1,2.25-1.57,2.48,2.48,0,0,0,.92-.68,2.41,2.41,0,0,0,.43-1.9,3.64,3.64,0,0,0-.36-1,3.79,3.79,0,0,1-.41-1,3.69,3.69,0,0,0-.56-1.75S460.14,188.93,460.07,189.24Z"/><path class="cls-19" d="M465.83,157.72c.52,7,2.41,18,3,25a54.79,54.79,0,0,1-.33,11.9c-.18,1,2.51,1,3.39.46.61-.37,1.24-3.19,1.21-3.9-.18-4.33,1.9-10.67,2.57-14.65A26.78,26.78,0,0,0,474,162.85c-.35-.77-.85-1.61-1.68-1.76Z"/><path class="cls-19" d="M469.44,191.22c-.1.48-.52-.56-.55-.07s-.44,3.06-.55,3.6a7.09,7.09,0,0,0-.16,2.2,1.62,1.62,0,0,0,.83,1.37c.64.27,1.42-.22,1.87-.73a5.51,5.51,0,0,0,1-1.65,9.54,9.54,0,0,0,.7-1.84,13.82,13.82,0,0,0,.51-3.93,8.74,8.74,0,0,0-.44-1.75,6,6,0,0,0-.63.5L469.61,191C469.31,191.25,469.53,190.8,469.44,191.22Z"/><path class="cls-20" d="M496.45,118c0-.23,0-.45,0-.68a11.65,11.65,0,0,0-.87-4c-.19-.5-.51-2.58-1.36-1.52-.34.41-.3,1.54-.93,1.67s-2.45.89-2.61,1.47,1.07,1.75,1.13,2.59a7.78,7.78,0,0,1-.58,2.91,6.15,6.15,0,0,0-.45,2.92c.25,1.48,1.5,2.68,1.63,4.18s-.77,2.69-1.62,3.83c1-.38,1.81-1,2.81-1.32a4.16,4.16,0,0,0,2.74-2.16,7.37,7.37,0,0,0,1.1-4c-.12-1.23-.77-2.34-1-3.55A11,11,0,0,1,496.45,118Z"/><path class="cls-19" d="M466.44,167.82c-1.26,1-2.35,7.39,2.74,7.25,2.63-.07,4.91-1.85,7.18-3.29,1.3-.81.65-2.23,2-2.92,6.21-3.17,14.16-4.9,13-12.4-.13-.84-.35-4.4-1-4.8-.47-.29-3.09.64-3.68.74-5.69.94-6.42,1-7.36,1.61-.16,4.26-.84,5-3.17,6.4C475.08,161.06,467.38,167.05,466.44,167.82Z"/><path class="cls-21" d="M479.72,135.44c-.67-.43,3.46-13.31,2.79-13.58-1.6-.65-4.8,8.43-6.91,14.9-.52,1.61-.68,2.85-1.08,4a23.51,23.51,0,0,1,4.11,3.16c1.72-2.45,3.22-5.13,3.07-6.74C481.62,136.36,480.6,136,479.72,135.44Z"/><path class="cls-22" d="M463.88,169.22a29.62,29.62,0,0,0,3.34,2c2.06,1,4.78,2.07,7.12,1.85,2-.19,3.44-2.31,5.23-3,5.59-2.22,7.95-2.72,11.58-5.59s3.81-7.12,3.22-11.39c-.13-.92-.22-1.85-.39-2.75-.1-.5-.2-1.48-.69-1.78s-3.72.76-4.43.88c-6.83,1.14-9.37-1.4-10.49-.62-2.93,2-6,3.8-9,5.57-2.39,1.37-4.68,2.83-7,4.3a7.88,7.88,0,0,0-2.59,3.27,4.61,4.61,0,0,0-.08,3.94,5.38,5.38,0,0,0,1.4,1.33C462,167.89,462.92,168.57,463.88,169.22Z"/><path class="cls-18" d="M489.59,121.93a22.32,22.32,0,0,1,4.05,1.33v11.22h-8.95V121.93Z"/><path class="cls-23" d="M499,128.67a4.49,4.49,0,0,1-.17,1.67,40.07,40.07,0,0,1-2.63,6.33,24.87,24.87,0,0,0-2.41,6.66,20.35,20.35,0,0,0-.17,4.61,20.44,20.44,0,0,1,.13,2.2,5.92,5.92,0,0,1,0,.73c-.05.26-.19.35-.44.55a10.86,10.86,0,0,1-7.84,2.06l-.47-.07a8.52,8.52,0,0,1-1-.23,28.53,28.53,0,0,1-4.9-2c-.73-.42-2-1.73-1.4-2.66a12.56,12.56,0,0,0,1.49-4.39,8.54,8.54,0,0,0,.11-2.2c-.18-1.69-1.08-3.24-1.33-4.94a15,15,0,0,1,.25-5.43A40.61,40.61,0,0,1,481,124a6.38,6.38,0,0,1,1.15-1.93,3.94,3.94,0,0,1,2.71-.93c0,2-.42,4.06.92,5.85a3.1,3.1,0,0,0,3.61,1.08c2.38-.8,3.33-2.64,3.68-5,.24.15.61,0,.87.19C496.19,124.64,498.78,126.1,499,128.67Z"/><path class="cls-21" d="M487.45,128.25a4.12,4.12,0,0,0-.9-.41c-4.48,5.3-6,17.83-5.13,24.35.05.42,1.13.83,1.06.41C481.48,145.61,483.24,134.55,487.45,128.25Z"/><path class="cls-21" d="M487.06,128.05c-.15.47-2.77,1.33-2.77,1.33s-3.24-4.77-.44-8.21c.3-.36.81.79,1.23,1s.29.23.13.65C484.63,124.27,486,127.29,487.06,128.05Z"/><path class="cls-18" d="M492.05,123.54c.09,4.38-7,4.52-6.88.4.19-5.74.49-6.4,2.84-7.31a6,6,0,0,1,2-.46c2.47-.08,1.5,1.38,1.4,2.39C491.1,121.56,492,122,492.05,123.54Z"/><path class="cls-21" d="M487.06,128.05l-.38.22.93,2.27a10,10,0,0,0,5.85-4.06c.32-.48,1-2.74.63-3.12-.07-.06-1.64-.61-1.74-.66a8.71,8.71,0,0,1-.46,1.81C491.09,126.4,489,127.37,487.06,128.05Z"/><path class="cls-24" d="M480.62,118.84c0-1,2.49-3.92,3.17-4.59,1.07-1-.2-6.51-.2-6.51S478.44,109.32,480.62,118.84Z"/><path class="cls-17" d="M480,114.88a25.74,25.74,0,0,1,3.17,0,20.8,20.8,0,0,1,3.53.11c.54.08,1.29.14,1.59.69a2.07,2.07,0,0,1-.41,2c-.13.19-.45,0-.32-.18a2.23,2.23,0,0,0-.28-2c-.26-.23-1.21-.2-1.55-.23-.7-.06-1.4,0-2.1,0-1.15,0-2.35.07-3.57,0C480,115.19,480,114.89,480,114.88Z"/><path class="cls-19" d="M489.73,121.75a4.36,4.36,0,0,0,.41-.46,3.26,3.26,0,0,0,.49-1,7.71,7.71,0,0,1,.59-1.14,7.57,7.57,0,0,1,1.39-1.65,3,3,0,0,0,.71-1.94,7.26,7.26,0,0,0-.51-4.09,6.4,6.4,0,0,0-1.16-1.7,6.72,6.72,0,0,0-6.51-1.79,9.71,9.71,0,0,0-1.77.73,4.9,4.9,0,0,0-1.36.93,4.6,4.6,0,0,0-.61.9,8.27,8.27,0,0,0-.66,1.76,4.09,4.09,0,0,0-.06,1,10.37,10.37,0,0,0,.06,1.12,4.57,4.57,0,0,1,.05.52c0,.11,0,.23,0,.35,0,.79-.05,1.58-.09,2.38a5.8,5.8,0,0,0,.11,1.76c.39,1.55.63,4,2.08,4.94,1.1.72,2.7,0,3.79-.54.37-.17,1.63-1,1.92-1.19A5.84,5.84,0,0,0,489.73,121.75Z"/><path class="cls-24" d="M495.81,113.29c-.11-3.47-1.92-4.22-3.24-5.33a7,7,0,0,0-4.65-1.52,9.76,9.76,0,0,0-4.79,1.51l-.17.11a6.28,6.28,0,0,0-2.34,3.29,12.34,12.34,0,0,0-.33,1.19c0,.14-.11.24-.07.39a.72.72,0,0,0,.34.37,1.59,1.59,0,0,0,.68.14,4.19,4.19,0,0,0,1.41-.21,5.18,5.18,0,0,0,.65-.26c.18-.09.35-.26.52-.34s.39.05.57.13l.69.29a13.79,13.79,0,0,1,1.33.67,6.15,6.15,0,0,1,1.67,1.42c.45.55.49,1.34.84,2a1.89,1.89,0,0,0,1.12,1,1.17,1.17,0,0,0,1.17-.37c.23-.24.84-.37.94.09s-.84.67-.93,1c0,.09.27,2.37.27,2.37S495.94,117.46,495.81,113.29Z"/><path class="cls-17" d="M483.19,118.57a1.72,1.72,0,0,0,2.17,1c.77-.38.81-1.83.48-2.57a2.32,2.32,0,0,0-2.48-.94C482.48,116.3,482.92,118,483.19,118.57Zm.21-2.09a2.24,2.24,0,0,1,1.56.16,1.76,1.76,0,0,1,.6,2.18c-.37.87-1.44.44-1.88-.1a2.18,2.18,0,0,1-.47-.92C483.11,117.37,483,116.64,483.4,116.48Z"/><path class="cls-17" d="M481.05,115.31a7.3,7.3,0,0,0,2.73.66,6,6,0,0,1-.74.53,5.35,5.35,0,0,1-1.13-.33A5.3,5.3,0,0,1,481.05,115.31Z"/><path class="cls-17" d="M485.42,116.66a23.91,23.91,0,0,1,3.17,0,20.87,20.87,0,0,1,3.53.11c.54.08,1.29.14,1.59.69a2.07,2.07,0,0,1-.41,2c-.14.19-.45,0-.32-.19a2.21,2.21,0,0,0-.28-2c-.26-.24-1.21-.2-1.56-.23a20.77,20.77,0,0,0-2.09,0c-1.16,0-2.35.07-3.58,0C485.42,117,485.35,116.67,485.42,116.66Z"/><path class="cls-19" d="M491.54,116c1.19-.08,1.48,1.39.67,2.52a5.86,5.86,0,0,1-1,.89c-2.13,1.8-2.66-.16-2-.77C490.83,117.2,490.06,116.07,491.54,116Z"/><path class="cls-18" d="M490.78,118.67c.13-.13,1.49-.92.57-1.46-.25-.16-.54.07-.58.33s0,.29,0,.43a.65.65,0,0,1-.09.23c-.12.19-.53.38-.45.66S490.7,118.74,490.78,118.67Z"/><path class="cls-17" d="M479.75,116.29c.12.65.57,2.09,1.5,1.89.64-.13.73-1.17.68-1.81a1,1,0,0,0,0-.25h0c-.18-.58-.95-1-1.46-1.18C479.54,114.57,479.65,115.74,479.75,116.29Zm.89-1a1.6,1.6,0,0,1,.84,2.42c-.63.88-1.27-.79-1.36-1.1C480,116.14,479.72,115,480.64,115.3Z"/><path class="cls-19" d="M466.41,152.89a5.57,5.57,0,0,1,.3-.77,4.67,4.67,0,0,1,.27-.49,15.87,15.87,0,0,1,.87-1.42c.38-.47.91-.78,1.32-1.23.16-.18.31-.38.46-.57a8.9,8.9,0,0,0,.49-.76,1.07,1.07,0,0,1,.62-.42,1.38,1.38,0,0,1,.53,0,2.18,2.18,0,0,1,1.7.75,1.92,1.92,0,0,1,.52.85c.06.26-.12.54-.21.81,0,0,0,.08,0,.12,0,.41-.09.79-.08,1.21a3.15,3.15,0,0,1-.17,1.36c-.15.35-.3.71-.43,1.07a4.23,4.23,0,0,1-1.07,1.57c-.16.15-.5.49-.73.45-.48-.08-.22-.84-.12-1.09s.21-.46.29-.7.21-.63.12-.81-.34-.14-.46-.12a2.06,2.06,0,0,0-1.4,1.25,4.06,4.06,0,0,0-.33,1.33,3.45,3.45,0,0,1-.07.72c-.09.26-.32.4-.52.17s-.17-.29-.34-.24-.28.23-.46.16-.18-.26-.22-.4-.26-.34-.35-.54a2.24,2.24,0,0,1,0-.52c0-.16,0-.31,0-.46s0-.42-.14-.2-.05.19-.14.26-.3-.25-.32-.4A2.3,2.3,0,0,1,466.41,152.89Z"/><path class="cls-21" d="M478.82,143.64c-1.69-1.47-1.15-6-3.12-7.13-1.18,3.07-5,8.91-5.71,11s3,3.36,3.8,2.33C474.43,149,477.1,146.1,478.82,143.64Z"/><path class="cls-19" d="M482.57,155.12c-.34,0-1.36.79-1.53.87s-1.42.69-1.73.9c-.48.32-1,.61-1.44.94a13.66,13.66,0,0,0-1.2,1.15c-.11.11-.4.36-.51.13a.84.84,0,0,1,0-.54c.06-.23.41-1.21.45-1.31s-2.62,2.42-3,2.26a.92.92,0,0,1,.08-.76c.09-.22.87-1.4.87-1.4S473.23,159,472.8,159c-.74.09-.27-1,.3-1.7.26-.33.61-.59.88-.92.11-.14.69-.79.2-.85a4.84,4.84,0,0,0-1.36.56c-.24.09-1.35.57-1.42.58s-.57.09-.48-.25a1.81,1.81,0,0,1,.57-.72,13.51,13.51,0,0,1,2.3-1.6,7.11,7.11,0,0,1,1.12-.6c1.37-.53,2.86-.71,4.27-1.11.41-.11.81-.21,1.2-.35s.58-.29.84-.2C481.67,152,482.76,155.06,482.57,155.12Z"/><path class="cls-21" d="M481.22,155.37a3.41,3.41,0,0,0,3,.31c2.21-.49,13.29-3.74,15.09-7,.46-.82-.31-1.79-.79-2.9-.37-.84-3.47-1.7-4.22-1.31-1.17.62-9.76,4.26-13.09,6.6a2.5,2.5,0,0,0-1.06,1.21A3.79,3.79,0,0,0,481.22,155.37Z"/><path class="cls-21" d="M499.81,146.8c.59-3.06.91-7,1.49-11.94a13,13,0,0,0-.17-4,7.4,7.4,0,0,0-1.62-3.44,2.6,2.6,0,0,0-1.76-1,2,2,0,0,0-1.41.87c-2.21,2.58-2.94,6.22-2.85,9.51.07,3.06-.28,6.13-.17,9.2a8.85,8.85,0,0,0,.14,1.78,3,3,0,0,0,5,1.79C499.24,149,499.49,148.46,499.81,146.8Z"/><path class="cls-17" d="M492.8,116.14c.51,1.42-.23,3.92-2,3.74s-1.42-2.76-1.16-3.7C490.05,114.85,492,114,492.8,116.14Z"/><path class="cls-17" d="M491.6,114.87c.09-4.11-2.86-8.08-6.93-7.69-.41.17-.78.35-.78.35,4.48-.25,7.27,3.44,7.08,7.39C491.14,115.33,491.6,114.87,491.6,114.87Z"/><path class="cls-17" d="M490.28,119.51c-1.24,2.14-4.89,3.09-5.86,3.16-.09-.23,0-.25,0-.25a9,9,0,0,0,5.58-3C490.35,119,490.28,119.51,490.28,119.51Z"/><path class="cls-17" d="M484.6,122.42c-.16-.53-1.16-.56-1.31-.1s.29.64.62.7a.78.78,0,0,0,.81-.4C484.84,122.32,484.6,122.42,484.6,122.42Z"/></g><path class="cls-25" d="M449.58,93.29c0,.29,0,.84,0,.87s0,.11-.17,0l-.35-.21c-.14-.07-.17-.11-.17-.22s0-.56,0-.85V91.09c0-.13,0-.17-.17-.25l-.18-.1-.77-.43c-.12-.07-.14-.11-.14-.23v-.27c0-.11,0-.13.14-.06l.83.49,1.24.72.82.46c.12.07.15.12.15.23v.27c0,.11,0,.13-.15.06l-.76-.46-.19-.1c-.14-.09-.17-.08-.17,0Z"/><path class="cls-25" d="M452.22,95c0,.22,0,.64,0,.67s0,.1-.16,0l-.33-.19c-.14-.08-.17-.12-.17-.22s0-.44,0-.66V92.58c0-.22,0-.64,0-.67s0-.11.17,0l.33.19c.13.08.16.12.16.22s0,.44,0,.66v.42c0,.07,0,.11,0,.13l.1,0a1.38,1.38,0,0,1,.74.23,1.8,1.8,0,0,1,1,1.44v.89c0,.22,0,.64,0,.67s0,.11-.17,0l-.33-.19c-.13-.08-.16-.12-.16-.22s0-.44,0-.66V95a1.11,1.11,0,0,0-1.1-1c-.09,0-.12,0-.12.15Z"/><path class="cls-25" d="M456.81,98.45c-.13-.08-.16-.1-.17-.24s0-.09,0-.11h-.08a2,2,0,0,1-.84-.26,1.5,1.5,0,0,1-.85-1.17c0-.63.86-.41,1.62,0,.1.05.14.05.14,0a.64.64,0,0,0-.09-.27,1.1,1.1,0,0,0-.44-.41,1.69,1.69,0,0,0-.75-.23l-.11,0s-.06-.07-.1-.16l-.11-.28a.3.3,0,0,1,0-.11s0-.05.12,0a3,3,0,0,1,1.06.4,1.79,1.79,0,0,1,1.09,1.61l0,.74c0,.28,0,.64,0,.72s0,.09-.16,0Zm-.31-1.34-.07,0c-.52-.24-1-.34-1-.09s.15.34.39.48a1.33,1.33,0,0,0,.61.18c.11,0,.14,0,.14-.13V97.3A.18.18,0,0,0,456.5,97.11Z"/><path class="cls-25" d="M458.81,98.81c0,.23,0,.64,0,.68s0,.1-.16,0l-.33-.19c-.14-.07-.17-.11-.17-.22s0-.43,0-.65v-1c0-.22,0-.63,0-.67s0-.1.17,0l.27.16c.14.08.16.11.16.24s0,.1.05.11,0,0,.08,0a1.47,1.47,0,0,1,.8.23,1.81,1.81,0,0,1,1,1.45v.89c0,.22,0,.63,0,.67s0,.1-.17,0l-.33-.2c-.13-.07-.16-.11-.16-.21s0-.44,0-.66v-.74a1,1,0,0,0-.56-.82,1,1,0,0,0-.54-.15c-.09,0-.12,0-.12.15Z"/><path class="cls-25" d="M462.3,100.73c-.05,0-.05,0-.05.12s0,.59,0,.62,0,.1-.17,0l-.32-.19c-.13-.07-.16-.11-.16-.21s0-.44,0-.66V98.38c0-.23,0-.64,0-.67s0-.11.16,0l.32.18c.13.08.17.12.17.22s0,.44,0,.66v1.19c0,.07,0,.1,0,.11h.09l.4-.13c.15,0,.31-.1.47-.17s.13,0,.28.05l.44.26c.07,0,.1.08.1.1s0,0,0,0l-.65.2-.16,0c-.06,0-.09,0-.09.08a.59.59,0,0,0,.05.14l.46.92c.13.27.29.6.48,1a.42.42,0,0,1,.05.12s0,0-.13,0l-.41-.23a.49.49,0,0,1-.25-.28c-.13-.28-.26-.56-.39-.82l-.25-.5a.33.33,0,0,0-.09-.14.14.14,0,0,0-.11,0Z"/><path class="cls-25" d="M451.38,103.1c0,.28,0,.84,0,.87s0,.11-.16,0l-.37-.21c-.13-.08-.17-.12-.17-.22s0-.57,0-.86v-.31a.56.56,0,0,0-.1-.32l-.65-1.22-.75-1.39a.22.22,0,0,1,0-.1s.05,0,.13,0l.45.26a.47.47,0,0,1,.25.27l.57,1.11.39.74a.31.31,0,0,0,.09.12s.05,0,.09,0l.39-.29a5.92,5.92,0,0,0,.57-.45c.08-.06.11-.06.26,0l.42.24c.09,0,.13.09.13.12a.09.09,0,0,1,0,.06l-.75.51-.66.48a.2.2,0,0,0-.1.21Z"/><path class="cls-25" d="M455.87,105.36c0,.83-.61,1-1.51.47a2.6,2.6,0,0,1-1.4-2c0-.79.56-1,1.51-.48A2.64,2.64,0,0,1,455.87,105.36Zm-2.25-1.18a1.49,1.49,0,0,0,.76,1.19c.49.28.83.15.83-.35a1.5,1.5,0,0,0-.77-1.2C453.9,103.51,453.62,103.7,453.62,104.18Z"/><path class="cls-25" d="M458.72,108.32c-.13-.08-.16-.11-.17-.24s0-.09,0-.11a.09.09,0,0,0-.08,0,1.44,1.44,0,0,1-.79-.24,1.78,1.78,0,0,1-1-1.44v-.9c0-.21,0-.63,0-.66s0-.11.16,0l.33.19c.13.08.17.12.17.22s0,.44,0,.65v.78a1,1,0,0,0,.56.82,1,1,0,0,0,.54.15c.1,0,.12,0,.12-.15v-.89c0-.22,0-.64,0-.67s0-.1.17,0l.33.19c.13.08.16.12.16.22s0,.44,0,.65v1c0,.22,0,.64,0,.67s0,.11-.16,0Z"/><path class="cls-25" d="M462.13,109.94c0,.2-.15.29-.43.13a.73.73,0,0,1-.39-.54c0-.22.15-.31.43-.15A.76.76,0,0,1,462.13,109.94Zm-.5-1c-.14-.08-.17-.12-.18-.25l0-1.24c0-.33,0-.9,0-1s0-.09.16,0l.37.21c.13.07.16.11.16.19s0,.63,0,1l0,1.16c0,.12,0,.13-.18,0Z"/></svg>